<?xml version="1.0" encoding="utf-8"?>
<!-- Generator: Adobe Illustrator 16.0.0, SVG Export Plug-In . SVG Version: 6.00 Build 0)  -->
<!DOCTYPE svg PUBLIC "-//W3C//DTD SVG 1.1//EN" "http://www.w3.org/Graphics/SVG/1.1/DTD/svg11.dtd">
<svg version="1.1" id="Layer_1" xmlns="http://www.w3.org/2000/svg" xmlns:xlink="http://www.w3.org/1999/xlink" x="0px" y="0px"
	 width="164px" height="164px" viewBox="0 0 164 164" enable-background="new 0 0 164 164" xml:space="preserve">
<g id="XMLID_15228_">
	<polygon id="XMLID_15247_" fill="#3D2E23" points="89.1,118.6 82,122.7 67.8,114.5 74.9,110.5 	"/>
	<g id="XMLID_15244_">
		<polygon id="XMLID_15246_" opacity="0.2" fill="#FFFFFF" points="70.8,116.2 73.7,117.9 73.7,117.9 70.8,116.2 		"/>
		<polygon id="XMLID_15245_" opacity="0.2" fill="#FFFFFF" points="70.8,116.2 73.7,117.9 73.7,117.9 70.8,116.2 		"/>
	</g>
	<g id="XMLID_15239_">
		<polygon id="XMLID_15243_" opacity="0.6" fill="#FFFFFF" points="84,118.7 81.7,117.4 81.7,116.6 81.7,116.6 79.5,115.3 
			79.5,114.6 77.2,113.3 77.2,112.5 77.2,112.5 77.2,112.5 74.9,111.2 74.9,110.5 71.9,112.2 83.5,119 		"/>
		<polygon id="XMLID_15242_" opacity="0.1" points="84,118.7 84,118.7 81.7,117.4 81.7,116.6 79.5,115.3 79.5,114.6 79.5,114.6 
			79.5,114.6 77.2,113.3 77.2,112.5 74.8,113.9 84,119.2 		"/>
		<polygon id="XMLID_15241_" opacity="0.1" points="84,118.7 81.7,117.4 81.7,116.6 81.7,116.6 81.7,116.6 79.5,115.3 79.5,114.6 
			77.7,115.6 84,119.2 		"/>
		<polygon id="XMLID_15240_" opacity="0.1" points="84,118.7 84,118.7 84,118.7 81.8,117.4 81.8,116.6 80.6,117.3 84,119.3 		"/>
	</g>
	<polyline id="XMLID_15238_" fill="#AD856A" points="89.1,118.6 82,122.7 82,119.4 89.1,115.3 89.1,118.6 	"/>
	<polygon id="XMLID_15237_" fill="#B8B8B8" points="64.1,104.2 58.1,107.6 68.9,113.9 74.9,110.5 74.9,110.5 	"/>
	<g id="XMLID_15233_">
		<g id="XMLID_15235_">
			<polygon id="XMLID_15236_" fill="#D4AB90" points="65.5,113.2 82,122.7 82,119.4 65.5,109.9 			"/>
		</g>
		<polygon id="XMLID_15234_" fill="#D2C7B0" points="82,118.1 66.6,109.2 65.5,109.9 82,119.4 89.1,115.3 88,114.6 		"/>
	</g>
	<polygon id="XMLID_15232_" fill="#90674C" points="84.4,118.7 84.4,120.7 82,122 82,120 	"/>
	<polygon id="XMLID_15231_" fill="#B68E72" points="79,118.3 75,116 75,116 75,118 79,120.3 	"/>
	<polygon id="XMLID_15230_" fill="#B68E72" points="79.7,118.7 79.7,120.7 82,122 82,120 	"/>
	<polyline id="XMLID_15229_" fill="#B68E72" points="69.5,114.9 69.5,112.9 65.5,110.5 65.5,112.5 	"/>
</g>
</svg>
