<?xml version="1.0" encoding="utf-8"?>
<!-- Generator: Adobe Illustrator 16.0.0, SVG Export Plug-In . SVG Version: 6.00 Build 0)  -->
<!DOCTYPE svg PUBLIC "-//W3C//DTD SVG 1.1//EN" "http://www.w3.org/Graphics/SVG/1.1/DTD/svg11.dtd">
<svg version="1.1" id="Layer_1" xmlns="http://www.w3.org/2000/svg" xmlns:xlink="http://www.w3.org/1999/xlink" x="0px" y="0px"
	 width="164px" height="164px" viewBox="0 0 164 164" enable-background="new 0 0 164 164" xml:space="preserve">
<polyline id="XMLID_17109_" fill="none" points="89.1,102.3 89.1,102.3 74.9,94.1 74.9,110.5 74.9,110.5 "/>
<polyline id="XMLID_17108_" fill="none" points="74.9,110.5 89.1,118.6 89.1,102.3 "/>
<g id="XMLID_15953_">
	<g id="XMLID_15802_">
		<g id="XMLID_15805_">
			<g id="XMLID_15943_">
				<g id="XMLID_15950_">
					<defs>
						<polygon id="XMLID_16894_" points="74.2,110.1 74.2,98.8 73.1,98.2 73.1,93 60.7,85.9 61.9,86.6 61.9,96.8 62.9,97.4 
							62.9,103.5 						"/>
					</defs>
					<clipPath id="XMLID_46_">
						<use xlink:href="#XMLID_16894_"  overflow="visible"/>
					</clipPath>
					<g id="XMLID_15958_" clip-path="url(#XMLID_46_)">
						<polygon fill="#9EB2B7" points="69.5,98.3 72.5,96.5 74.4,97.6 74.3,99 72.5,100 						"/>
						<path fill="#556063" d="M72.5,96.5l1.9,1.1L74.2,99l-1.7,1l-3-1.7L72.5,96.5 M72.5,96.4L72.5,96.4l-3,1.8l-0.1,0l0.1,0l3,1.7
							l0,0l0,0l1.7-1l0,0l0,0l0.1-1.4l0,0l0,0L72.5,96.4L72.5,96.4L72.5,96.4z"/>
					</g>
					<g id="XMLID_17102_" clip-path="url(#XMLID_46_)">
						<polygon fill="#CBD7D8" points="66.2,96.4 69.4,94.5 72.6,96.4 69.5,98.2 						"/>
						<path fill="#556063" d="M69.4,94.5l3.2,1.9l-3.1,1.8l-3.2-1.9L69.4,94.5 M69.4,94.5L69.4,94.5l-3.2,1.8l-0.1,0l0.1,0l3.2,1.9
							l0,0l0,0l3.1-1.8l0.1,0l-0.1,0L69.4,94.5L69.4,94.5L69.4,94.5z"/>
					</g>
					<polygon id="XMLID_17101_" opacity="4.000000e-002" clip-path="url(#XMLID_46_)" points="70.6,95.2 72.6,96.4 69.5,98.2 					
						"/>
					<g id="XMLID_17094_" clip-path="url(#XMLID_46_)">
						<polygon fill="#CBD7D8" points="72.7,93.6 75.7,91.8 78.8,93.5 75.7,95.3 						"/>
						<g>
							<path fill="#556063" d="M75.7,91.8l3,1.7l-3,1.7l-3-1.7L75.7,91.8 M75.7,91.7L75.7,91.7l-3,1.8l-0.1,0l0.1,0l3,1.7l0,0l0,0
								l3-1.7l0.1,0l-0.1,0L75.7,91.7L75.7,91.7L75.7,91.7z"/>
						</g>
					</g>
					<g id="XMLID_16956_" clip-path="url(#XMLID_46_)">
						<g id="XMLID_17088_">
							<polygon fill="#CBD7D8" points="66.7,93.6 69.7,91.8 72.7,93.5 69.7,95.3 							"/>
							<path fill="#556063" d="M69.7,91.8l3,1.7l-3,1.7h0l-3-1.7L69.7,91.8 M69.7,91.7L69.7,91.7l-3,1.8l-0.1,0l0.1,0l3,1.7l0,0h0h0
								l0,0l3-1.7l0.1,0l-0.1,0L69.7,91.7L69.7,91.7L69.7,91.7z"/>
						</g>
						<g id="XMLID_17082_">
							<polygon fill="#9EB2B7" points="63.6,91.8 66.7,90 69.7,91.8 66.7,93.6 							"/>
							<path fill="#556063" d="M66.7,90.1l3,1.7l-3,1.7l-3-1.7L66.7,90.1 M66.7,90L66.7,90l-3,1.8l-0.1,0l0.1,0l3,1.7l0,0l0,0l3-1.7
								l0.1,0l-0.1,0L66.7,90L66.7,90L66.7,90z"/>
						</g>
						<g id="XMLID_16975_">
							<polygon fill="#9EB2B7" points="69.7,91.8 72.7,90 75.7,91.8 72.7,93.6 							"/>
							<path fill="#556063" d="M72.7,90.1l3,1.7l-3,1.7h0l-3-1.7L72.7,90.1 M72.7,90L72.7,90l-3,1.8l-0.1,0l0.1,0l3,1.7l0,0h0h0l0,0
								l3-1.7l0.1,0l-0.1,0L72.7,90L72.7,90L72.7,90z"/>
						</g>
						<g id="XMLID_16968_">
							<polygon fill="#CBD7D8" points="66.7,90.1 69.7,88.3 72.7,90 69.7,91.8 							"/>
							<g>
								<path fill="#556063" d="M69.7,88.3l3,1.7l-3,1.7h0l-3-1.7L69.7,88.3 M69.7,88.3L69.7,88.3l-3,1.8l-0.1,0l0.1,0l3,1.7l0,0h0
									h0l0,0l3-1.7l0.1,0l-0.1,0L69.7,88.3L69.7,88.3L69.7,88.3z"/>
							</g>
						</g>
						<g id="XMLID_16962_">
							<polygon fill="#9EB2B7" points="63.6,88.3 66.7,86.6 69.7,88.3 66.7,90.1 							"/>
							<path fill="#556063" d="M66.7,86.6l3,1.7l-3,1.7l-3-1.7L66.7,86.6 M66.7,86.5L66.7,86.5l-3,1.8l-0.1,0l0.1,0l3,1.7l0,0l0,0
								l3-1.7l0.1,0l-0.1,0L66.7,86.5L66.7,86.5L66.7,86.5z"/>
						</g>
						<polygon id="XMLID_16961_" opacity="4.000000e-002" points="70.9,92.4 72.7,93.5 69.7,95.3 						"/>
						<polygon id="XMLID_16960_" opacity="8.000000e-002" points="73.9,90.7 75.7,91.8 72.7,93.5 						"/>
						<polygon id="XMLID_16959_" opacity="8.000000e-002" points="70.9,89 72.7,90.1 69.7,91.8 						"/>
						<polygon id="XMLID_16958_" opacity="4.000000e-002" points="67.9,90.7 69.7,91.8 66.7,93.5 						"/>
						<polygon id="XMLID_16957_" opacity="4.000000e-002" points="67.9,87.2 69.7,88.3 66.7,90.1 						"/>
					</g>
					<g id="XMLID_16896_" clip-path="url(#XMLID_46_)">
						<g id="XMLID_16950_">
							<polygon fill="#CBD7D8" points="60.6,97.1 63.6,95.3 66.6,97 63.6,98.8 							"/>
							<path fill="#556063" d="M63.6,95.3l3,1.7l-3,1.7v0v0l-3-1.7L63.6,95.3 M63.6,95.2L63.6,95.2l-3,1.8l-0.1,0l0.1,0l3,1.7v0.1
								l0,0l0.1,0v-0.1l3-1.7l0.1,0l-0.1,0L63.6,95.2L63.6,95.2L63.6,95.2z"/>
						</g>
						<g id="XMLID_16944_">
							<polygon fill="#CBD7D8" points="60.6,93.6 63.6,91.8 66.6,93.5 63.6,95.3 							"/>
							<path fill="#556063" d="M63.6,91.8l3,1.7l-3,1.7l-3-1.7L63.6,91.8 M63.6,91.8L63.6,91.8l-3,1.8l-0.1,0l0.1,0l3,1.7l0,0l0,0
								l3-1.7l0.1,0l-0.1,0L63.6,91.8L63.6,91.8L63.6,91.8z"/>
						</g>
						<g id="XMLID_16938_">
							<polygon fill="#9EB2B7" points="57.5,91.8 60.6,90.1 63.6,91.8 60.6,93.6 							"/>
							<path fill="#556063" d="M60.6,90.1l3,1.7l-3,1.7l-3-1.7L60.6,90.1 M60.6,90L60.6,90l-3,1.8l-0.1,0l0.1,0l3,1.7l0,0l0,0l3-1.7
								l0.1,0l-0.1,0L60.6,90L60.6,90L60.6,90z"/>
						</g>
						<g id="XMLID_16931_">
							<polygon fill="#CBD7D8" points="60.6,90.1 63.6,88.3 66.7,90 63.7,91.8 							"/>
							<path fill="#556063" d="M63.7,88.3l3,1.7l-3,1.7l-3-1.7L63.7,88.3 M63.7,88.3L63.7,88.3l-3,1.8l-0.1,0l0.1,0l3,1.7l0,0l0,0
								l3-1.7l0.1,0l-0.1,0L63.7,88.3L63.7,88.3L63.7,88.3z"/>
						</g>
						<g id="XMLID_16925_">
							<polygon fill="#9EB2B7" points="57.6,88.3 60.6,86.6 63.7,88.3 60.6,90.1 							"/>
							<path fill="#556063" d="M60.6,86.6l3,1.7l-3,1.7l-3-1.7L60.6,86.6 M60.6,86.5L60.6,86.5l-3,1.8l-0.1,0l0.1,0l3,1.7l0,0l0,0
								l3-1.7l0.1,0l-0.1,0L60.6,86.5L60.6,86.5L60.6,86.5z"/>
						</g>
						<g id="XMLID_16917_">
							<polygon fill="#CBD7D8" points="60.6,86.6 63.6,84.8 66.7,86.6 63.7,88.3 							"/>
							<g>
								<path fill="#556063" d="M63.7,84.8l3,1.7l-3,1.7l-3-1.7L63.7,84.8 M63.7,84.8L63.7,84.8l-3,1.8l-0.1,0l0.1,0l3,1.7l0,0l0,0
									l3-1.7l0.1,0l-0.1,0L63.7,84.8L63.7,84.8L63.7,84.8z"/>
							</g>
						</g>
						<g id="XMLID_16911_">
							<polygon fill="#9EB2B7" points="57.5,98.8 60.5,97 63.6,98.8 60.5,100.6 							"/>
							<path fill="#556063" d="M60.5,97.1l3,1.7l-3,1.7l-3-1.7L60.5,97.1 M60.5,97L60.5,97l-3,1.8l-0.1,0l0.1,0l3,1.7l0,0l0,0l3-1.7
								l0.1,0l-0.1,0L60.5,97L60.5,97L60.5,97z"/>
						</g>
						<g id="XMLID_16905_">
							<polygon fill="#9EB2B7" points="57.5,95.3 60.6,93.5 63.6,95.3 60.6,97.1 							"/>
							<path fill="#556063" d="M60.6,93.6l3,1.7l-3,1.7l-3-1.7L60.6,93.6 M60.6,93.5L60.6,93.5l-3,1.8l-0.1,0l0.1,0l3,1.7l0,0l0,0
								l3-1.7l0.1,0l-0.1,0L60.6,93.5L60.6,93.5L60.6,93.5z"/>
						</g>
						<polygon id="XMLID_16904_" opacity="4.000000e-002" points="64.8,95.9 66.6,97 63.6,98.8 						"/>
						<polygon id="XMLID_16903_" opacity="4.000000e-002" points="64.8,92.5 66.6,93.6 63.6,95.3 						"/>
						<polygon id="XMLID_16902_" opacity="4.000000e-002" points="64.8,89 66.6,90.1 63.6,91.8 						"/>
						<polygon id="XMLID_16901_" opacity="8.000000e-002" points="64.8,85.5 66.6,86.6 63.6,88.3 						"/>
						<polygon id="XMLID_16900_" opacity="8.000000e-002" points="61.8,97.7 63.6,98.8 60.6,100.5 						"/>
						<polygon id="XMLID_16899_" opacity="4.000000e-002" points="61.8,94.2 63.6,95.3 60.6,97 						"/>
						<polygon id="XMLID_16898_" opacity="4.000000e-002" points="61.8,90.7 63.6,91.8 60.6,93.6 						"/>
						<polygon id="XMLID_16897_" opacity="8.000000e-002" points="61.8,87.2 63.6,88.3 60.6,90.1 						"/>
					</g>
					<polygon id="XMLID_16895_" clip-path="url(#XMLID_46_)" fill="#968677" points="63.8,103 62.9,103.5 75.4,110.8 75.4,109.7 
											"/>
					<g id="XMLID_16562_" clip-path="url(#XMLID_46_)">
						<g id="XMLID_16566_">
							<polygon fill="#556063" points="63.2,101.7 69.5,98.2 69.5,98.2 63.2,101.8 							"/>
							<path fill="#556063" d="M69.4,98.2L69.4,98.2l-6.2,3.6v0L69.4,98.2 M69.5,98.1l-6.3,3.6v0.1l6.3-3.6V98.1L69.5,98.1z"/>
						</g>
						<g id="XMLID_16239_">
							<polygon fill="#CBD7D8" points="62.5,102.2 63.4,101.7 66.5,103.4 65.6,104 							"/>
							<g>
								<path fill="#556063" d="M63.4,101.7l3,1.7l-0.9,0.5l-3-1.7L63.4,101.7 M63.4,101.7L63.4,101.7l-0.9,0.5l-0.1,0l0.1,0l3,1.7
									l0,0l0,0l0.9-0.5l0.1,0l-0.1,0L63.4,101.7L63.4,101.7L63.4,101.7z"/>
							</g>
						</g>
						<g id="XMLID_15724_">
							<polygon fill="#9EB2B7" points="65.5,104 66.4,103.4 69.5,105.2 68.6,105.7 							"/>
							<path fill="#556063" d="M66.4,103.5l3,1.7l-0.9,0.5l-3-1.7L66.4,103.5 M66.4,103.4L66.4,103.4l-0.9,0.5l-0.1,0l0.1,0l3,1.7
								l0,0l0,0l0.9-0.5l0.1,0l-0.1,0L66.4,103.4L66.4,103.4L66.4,103.4z"/>
						</g>
						<g id="XMLID_16842_">
							<polygon fill="#CBD7D8" points="68.6,105.7 69.5,105.2 72.5,106.9 71.6,107.5 							"/>
							<g>
								<path fill="#556063" d="M69.5,105.2l3,1.7l-0.9,0.5l-3-1.7L69.5,105.2 M69.5,105.1L69.5,105.1l-0.9,0.5l-0.1,0l0.1,0l3,1.7
									l0,0l0,0l0.9-0.5l0.1,0l-0.1,0L69.5,105.1L69.5,105.1L69.5,105.1z"/>
							</g>
						</g>
						<polygon id="XMLID_16579_" opacity="4.000000e-002" points="64.6,102.4 66.4,103.5 65.5,104 64.3,103.2 						"/>
						<polygon id="XMLID_16580_" opacity="4.000000e-002" points="67.6,104.2 69.5,105.2 68.6,105.7 67.3,105 						"/>
						<polygon id="XMLID_16583_" opacity="4.000000e-002" points="70.6,105.8 72.5,106.9 69.5,108.7 						"/>
					</g>
					<g id="XMLID_16556_" clip-path="url(#XMLID_46_)">
						<polygon fill="#CBD7D8" points="59.9,100 63,98.2 66.2,100 63,101.8 						"/>
						<path fill="#556063" d="M63,98.2l3.1,1.8l-3.1,1.8l-3.1-1.8L63,98.2 M63,98.1L63,98.1l-3.2,1.8l-0.1,0l0.1,0l3.1,1.8l0,0l0,0
							l3.1-1.8l0.1,0l-0.1,0L63,98.1L63,98.1L63,98.1z"/>
					</g>
					<polygon id="XMLID_16536_" opacity="4.000000e-002" clip-path="url(#XMLID_46_)" points="64.3,98.9 66.2,100 63,101.8 					"/>
					<g id="XMLID_16527_" clip-path="url(#XMLID_46_)">
						<polygon fill="#9EB2B7" points="69.5,94.6 72.6,92.7 75.8,94.6 72.7,96.4 						"/>
						<path fill="#556063" d="M72.7,92.8l3.1,1.8l-3.1,1.8l-3.1-1.8L72.7,92.8 M72.7,92.7L72.7,92.7l-3.2,1.8l-0.1,0l0.1,0l3.1,1.8
							l0,0l0,0l3.1-1.8l0.1,0l-0.1,0L72.7,92.7L72.7,92.7L72.7,92.7z"/>
					</g>
					<polygon id="XMLID_16526_" opacity="8.000000e-002" clip-path="url(#XMLID_46_)" points="73.9,93.4 75.8,94.6 72.7,96.4 					
						"/>
					<g id="XMLID_16520_" clip-path="url(#XMLID_46_)">
						<polygon fill="#9EB2B7" points="63,98.2 66.2,96.4 69.3,98.2 66.2,100 						"/>
						<path fill="#556063" d="M66.2,96.4l3.1,1.8l-3.1,1.8l-3.1-1.8L66.2,96.4 M66.2,96.3L66.2,96.3L63,98.1l-0.1,0l0.1,0l3.1,1.8
							l0,0l0,0l3.1-1.8l0.1,0l-0.1,0L66.2,96.3L66.2,96.3L66.2,96.3z"/>
					</g>
					<polygon id="XMLID_16519_" opacity="8.000000e-002" clip-path="url(#XMLID_46_)" points="67.4,97.1 69.3,98.2 66.2,100 					
						"/>
					<g id="XMLID_16243_" clip-path="url(#XMLID_46_)">
						<polygon fill="#9EB2B7" points="63.6,95.3 66.6,93.5 69.7,95.3 66.6,97.1 						"/>
						<path fill="#556063" d="M66.6,93.6l3,1.7l-3,1.7h0l-3-1.7L66.6,93.6 M66.6,93.5L66.6,93.5l-3,1.8l-0.1,0l0.1,0l3,1.7l0,0h0h0
							l0,0l3-1.7l0.1,0l-0.1,0L66.6,93.5L66.6,93.5L66.6,93.5z"/>
					</g>
					<polygon id="XMLID_16241_" opacity="4.000000e-002" clip-path="url(#XMLID_46_)" points="67.8,94.2 69.6,95.3 66.6,97 					"/>
					<g id="XMLID_16169_" clip-path="url(#XMLID_46_)">
						<polygon id="XMLID_16231_" opacity="0.1" points="62.7,96.2 62.1,95.9 62.1,95.9 						"/>
					</g>
					<g id="XMLID_16162_" clip-path="url(#XMLID_46_)">
						<polygon fill="#9EB2B7" points="54.5,97.1 57.5,95.3 60.5,97 57.5,98.8 						"/>
						<path fill="#556063" d="M57.5,95.3l3,1.7l-3,1.7l-3-1.7L57.5,95.3 M57.5,95.3L57.5,95.3l-3,1.8l-0.1,0l0.1,0l3,1.7l0,0l0,0
							l3-1.7l0.1,0l-0.1,0L57.5,95.3L57.5,95.3L57.5,95.3z"/>
					</g>
					<g id="XMLID_16101_" clip-path="url(#XMLID_46_)">
						<polygon fill="#9EB2B7" points="51.4,95.3 54.5,93.6 57.5,95.3 54.5,97.1 						"/>
						<path fill="#556063" d="M54.5,93.6l3,1.7l-3,1.7l-3-1.7L54.5,93.6 M54.5,93.5L54.5,93.5l-3,1.8l-0.1,0l0.1,0l3,1.7l0,0l0,0
							l3-1.7l0.1,0l-0.1,0L54.5,93.5L54.5,93.5L54.5,93.5z"/>
					</g>
					<g id="XMLID_15968_" clip-path="url(#XMLID_46_)">
						<polygon fill="#9EB2B7" points="54.5,93.6 57.5,91.8 60.6,93.5 57.6,95.3 						"/>
						<path fill="#556063" d="M57.6,91.8l3,1.7l-3,1.7l-3-1.7L57.6,91.8 M57.6,91.8L57.6,91.8l-3,1.8l-0.1,0l0.1,0l3,1.7l0,0l0,0
							l3-1.7l0.1,0l-0.1,0L57.6,91.8L57.6,91.8L57.6,91.8z"/>
					</g>
					<g id="XMLID_16240_" clip-path="url(#XMLID_46_)">
						<polygon fill="#CBD7D8" points="66.4,100 69.5,98.2 72.5,100 69.5,101.7 						"/>
						<g>
							<path fill="#556063" d="M69.5,98.2l3,1.7l-3,1.7l-3-1.7L69.5,98.2 M69.5,98.2L69.5,98.2l-3,1.8l-0.1,0l0.1,0l3,1.7l0,0l0,0
								l3-1.7l0.1,0l-0.1,0L69.5,98.2L69.5,98.2L69.5,98.2z"/>
						</g>
					</g>
					<g id="XMLID_15723_" clip-path="url(#XMLID_46_)">
						<polygon fill="#9EB2B7" points="63.4,101.7 66.4,100 69.5,101.7 66.4,103.5 						"/>
						<path fill="#556063" d="M66.4,100l3,1.7l-3,1.7l-3-1.7L66.4,100 M66.4,99.9L66.4,99.9l-3,1.8l-0.1,0l0.1,0l3,1.7l0,0l0,0
							l3-1.7l0.1,0l-0.1,0L66.4,99.9L66.4,99.9L66.4,99.9z"/>
					</g>
					<g id="XMLID_16835_" clip-path="url(#XMLID_46_)">
						<polygon fill="#9EB2B7" points="69.5,101.7 72.5,100 75.5,101.7 72.5,103.5 						"/>
						<path fill="#556063" d="M72.5,100l3,1.7l-3,1.7l-3-1.7L72.5,100 M72.5,99.9L72.5,99.9l-3,1.8l-0.1,0l0.1,0l3,1.7l0,0l0,0
							l3-1.7l0.1,0l-0.1,0L72.5,99.9L72.5,99.9L72.5,99.9z"/>
					</g>
					<g id="XMLID_16575_" clip-path="url(#XMLID_46_)">
						<polygon fill="#CBD7D8" points="66.4,103.5 69.5,101.7 72.5,103.4 69.5,105.2 						"/>
						<g>
							<path fill="#556063" d="M69.5,101.7l3,1.7l-3,1.7l-3-1.7L69.5,101.7 M69.5,101.7L69.5,101.7l-3,1.8l-0.1,0l0.1,0l3,1.7l0,0
								l0,0l3-1.7l0.1,0l-0.1,0L69.5,101.7L69.5,101.7L69.5,101.7z"/>
						</g>
					</g>
					<g id="XMLID_15801_" clip-path="url(#XMLID_46_)">
						<polygon fill="#CBD7D8" points="72.5,100 75.5,98.2 78.6,99.9 75.6,101.7 						"/>
						<g>
							<path fill="#556063" d="M75.6,98.2l3,1.7l-3,1.7l-3-1.7L75.6,98.2 M75.6,98.2L75.6,98.2l-3,1.8l-0.1,0l0.1,0l3,1.7l0,0l0,0
								l3-1.7l0.1,0l-0.1,0L75.6,98.2L75.6,98.2L75.6,98.2z"/>
						</g>
					</g>
					<g id="XMLID_17991_" clip-path="url(#XMLID_46_)">
						<polygon fill="#CBD7D8" points="72.5,103.5 75.5,101.7 78.5,103.4 75.5,105.2 						"/>
						<g>
							<path fill="#556063" d="M75.5,101.7l3,1.7l-3,1.7l-3-1.7L75.5,101.7 M75.5,101.7L75.5,101.7l-3,1.8l-0.1,0l0.1,0l3,1.7l0,0
								l0,0l3-1.7l0.1,0l-0.1,0L75.5,101.7L75.5,101.7L75.5,101.7z"/>
						</g>
					</g>
					<g id="XMLID_17981_" clip-path="url(#XMLID_46_)">
						<polygon fill="#9EB2B7" points="69.5,105.2 72.5,103.4 75.5,105.2 72.5,107 						"/>
						<path fill="#556063" d="M72.5,103.5l3,1.7l-3,1.7l-3-1.7L72.5,103.5 M72.5,103.4L72.5,103.4l-3,1.8l-0.1,0l0.1,0l3,1.7l0,0
							l0,0l3-1.7l0.1,0l-0.1,0L72.5,103.4L72.5,103.4L72.5,103.4z"/>
					</g>
					<g id="XMLID_15952_" clip-path="url(#XMLID_46_)">
						<polygon fill="#6D513E" points="61.2,102 61.2,86.3 72.7,81.7 73.9,95.3 61.6,102.2 						"/>
						<path fill="#5B433C" d="M72.2,82.4L73.3,95l-11.6,6.6v-15L72.2,82.4 M73.1,81l-12.4,4.9v16.4l0.8,0.5l12.8-7.3L73.1,81
							L73.1,81z"/>
					</g>
					<polygon id="XMLID_15955_" opacity="5.000000e-002" clip-path="url(#XMLID_46_)" points="66.4,100.6 66,100.3 66,95.8 
						68.7,94.3 68.7,94.7 					"/>
					<polygon id="XMLID_15954_" opacity="0.1" clip-path="url(#XMLID_46_)" points="69.2,92.1 69.2,94.9 70.9,97.7 72.1,99.6 
						72.6,99.3 72.6,96.5 70,95 70,92.6 					"/>
					<polygon id="XMLID_15951_" opacity="0.1" clip-path="url(#XMLID_46_)" points="62.9,102.5 63.2,102.7 63.2,96.5 61.8,95.7 
						62.9,96.3 					"/>
					<g id="XMLID_15938_" clip-path="url(#XMLID_46_)">
						<polygon fill="#9EB2B7" points="71.6,107.4 72.5,106.9 75.5,108.6 74.6,109.2 						"/>
						<path fill="#556063" d="M72.5,106.9l3,1.7l-0.9,0.5l-3-1.7L72.5,106.9 M72.5,106.9L72.5,106.9l-0.9,0.5l-0.1,0l0.1,0l3,1.7
							l0,0l0,0l0.9-0.5l0.1,0l-0.1,0L72.5,106.9L72.5,106.9L72.5,106.9z"/>
					</g>
					<polygon id="XMLID_15937_" opacity="4.000000e-002" clip-path="url(#XMLID_46_)" points="73.7,107.6 75.5,108.7 74.6,109.2 
						73.3,108.5 					"/>
					<g id="XMLID_15927_" clip-path="url(#XMLID_46_)">
						<polygon fill="#CBD7D8" points="72.5,107 75.5,105.2 78.5,106.9 75.5,108.7 						"/>
						<g>
							<path fill="#556063" d="M75.5,105.2l3,1.7l-3,1.7l-3-1.7L75.5,105.2 M75.5,105.1L75.5,105.1l-3,1.8l-0.1,0l0.1,0l3,1.7l0,0
								l0,0l3-1.7l0.1,0l-0.1,0L75.5,105.1L75.5,105.1L75.5,105.1z"/>
						</g>
					</g>
					<g id="XMLID_15929_" clip-path="url(#XMLID_46_)">
						<g id="XMLID_15928_">
							<polygon fill="#3D3D3D" points="70.2,94 66.4,96.1 68.3,97.2 72.1,95 							"/>
						</g>
						<g id="XMLID_15926_">
							<polygon fill="#292929" points="72.1,99.5 68.3,101.7 68.3,97.2 72.1,95 							"/>
						</g>
						<g id="XMLID_15940_" opacity="0.4">
							<g id="XMLID_15932_">
								<polygon fill="#8E8E8E" points="71.4,99.2 68.9,100.6 68.9,97.6 71.4,96.1 								"/>
							</g>
							<g id="XMLID_15936_">
								<polygon fill="#B4B4B4" points="71.4,96.1 70.3,96.8 70.3,98.5 71.4,99.2 								"/>
							</g>
							<g id="XMLID_16827_">
								<polygon fill="#727272" points="70.3,96.8 68.9,97.6 68.9,99.3 70.3,98.5 								"/>
							</g>
						</g>
						<g id="XMLID_7921_">
							<polygon fill="#353535" points="66.4,100.6 68.3,101.7 68.3,97.2 66.4,96.1 							"/>
						</g>
						<path id="XMLID_16829_" fill="#B85C00" d="M70.4,97.6c0,0-0.1,1.2-0.6,0.2c0,0-0.1,1.2-0.3,0.8c0,0-0.3,0-0.3-0.5
							c0,0,0.1,0.7-0.2,0.7v0.9c0,0,0,0,0.1,0c0.1,0,0.8-0.2,0.9-0.5c0,0,0.8,0.4,0.8-1.4C70.7,97.9,70.5,98,70.4,97.6z"/>
						<path id="XMLID_15941_" fill="#9B2F00" d="M70.1,99.5c0,0,0.8,0.4,0.8-1.4c0,0-0.2,0.1-0.3-0.3c0,0-0.1,1.2-0.6,0.2
							c0,0-0.1,1.2-0.3,0.8c0,0-0.3,0-0.3-0.5c0,0,0.1,1-0.4,0.7v1.2c0,0,0-0.3,0.3-0.3C69.2,100,70,99.8,70.1,99.5z"/>
					</g>
					<path id="XMLID_15931_" clip-path="url(#XMLID_46_)" fill="#8E8E8E" d="M68.1,88.6v6.6h0c0,0.1,0.1,0.2,0.2,0.3
						c0.1,0,0.2,0.1,0.3,0.1v-7L68.1,88.6z"/>
					<path id="XMLID_16828_" clip-path="url(#XMLID_46_)" fill="#727272" d="M68.6,88.5v7c0.2,0,0.5-0.1,0.7-0.2
						c0.1-0.1,0.2-0.2,0.2-0.3h0v-6.5L68.6,88.5z"/>
				</g>
				<g id="XMLID_15946_">
					<polygon id="XMLID_15949_" fill="#AD856A" points="61.9,96.8 62.8,96.3 62.8,87.1 61.9,86.6 					"/>
					<polygon id="XMLID_15948_" fill="#E2BDA8" points="62.8,96.3 61.9,96.8 62.9,97.4 63.8,96.9 					"/>
					<polygon id="XMLID_15947_" fill="#AD856A" points="62.9,103.5 62.9,97.4 63.8,96.9 63.8,103 					"/>
				</g>
				<polygon id="XMLID_15945_" opacity="4.000000e-002" points="73.7,97.1 74.3,98.9 72.5,100 				"/>
				<polygon id="XMLID_16576_" opacity="4.000000e-002" points="70.6,98.9 72.5,100 69.5,101.7 				"/>
				<polygon id="XMLID_16578_" opacity="4.000000e-002" points="67.6,100.6 69.5,101.7 66.4,103.5 				"/>
				<polygon id="XMLID_16582_" opacity="4.000000e-002" points="73.7,100.6 74.3,100.9 74.3,102.4 72.5,103.5 				"/>
				<polygon id="XMLID_16581_" opacity="4.000000e-002" points="70.6,102.4 72.5,103.5 69.5,105.2 				"/>
				<polygon id="XMLID_16584_" opacity="4.000000e-002" points="73.7,104.1 74.2,104.5 74.2,105.9 72.5,106.9 				"/>
				<polygon id="XMLID_15944_" opacity="0.1" points="72.8,92.9 72.8,92.9 62.8,87.1 62.8,88.3 62.8,96.3 63.2,96.5 63.2,88.5 
					72.8,94.2 72.8,98.3 74,99 74,108.9 74.9,109.3 74.9,94.1 				"/>
			</g>
		</g>
		<polygon id="XMLID_15804_" fill="#D4AB90" points="61.9,86.6 60.7,85.9 60.7,102.3 62.9,103.5 62.9,97.4 61.9,96.8 		"/>
		<polygon id="XMLID_15803_" fill="#D4AB90" points="74.2,110.1 74.9,110.5 74.9,94.1 73.1,93 73.1,98.2 74.2,98.8 		"/>
		<g id="XMLID_16826_" opacity="0.19">
			<polygon fill="#E23A00" points="71.4,99.2 68.9,100.6 68.9,97.6 71.4,96.1 			"/>
		</g>
		<path id="XMLID_16832_" opacity="0.15" fill="#E23A00" d="M68.9,100.6v0.8c0,0,1.1,0.6,2.3-0.2c0.6-0.4,0.4-1.1,0.2-1.3v-0.8
			L68.9,100.6z"/>
		<line id="XMLID_16831_" fill="none" x1="68.9" y1="101.4" x2="71.4" y2="100"/>
		<path id="XMLID_16838_" opacity="0.6" fill="#E24F00" d="M72.1,99.5l-3.7,2.1c0,0,1.8,1.1,3.6-0.1C72.8,100.9,72.3,99.8,72.1,99.5
			z"/>
		<path id="XMLID_15939_" opacity="0.39" fill="#E26900" d="M71.1,100.1l-1.6,0.9c0,0,0.8,0.5,1.5-0.1
			C71.4,100.6,71.2,100.2,71.1,100.1z"/>
	</g>
	<polygon id="XMLID_15930_" fill="none" stroke="#727272" stroke-width="0.1" stroke-miterlimit="10" points="70.4,95.3 68.8,96.2 
		69.2,96.4 70.8,95.5 	"/>
	
		<line id="XMLID_15942_" fill="none" stroke="#727272" stroke-width="0.1" stroke-miterlimit="10" x1="69" y1="96.3" x2="70.6" y2="95.4"/>
</g>
</svg>
