<?xml version="1.0" encoding="utf-8"?>
<!-- Generator: Adobe Illustrator 16.0.0, SVG Export Plug-In . SVG Version: 6.00 Build 0)  -->
<!DOCTYPE svg PUBLIC "-//W3C//DTD SVG 1.1//EN" "http://www.w3.org/Graphics/SVG/1.1/DTD/svg11.dtd">
<svg version="1.1" id="Layer_1" xmlns="http://www.w3.org/2000/svg" xmlns:xlink="http://www.w3.org/1999/xlink" x="0px" y="0px"
	 width="164px" height="164px" viewBox="0 0 164 164" enable-background="new 0 0 164 164" xml:space="preserve">
<polyline id="XMLID_18271_" fill="none" points="89.1,102.3 89.1,102.3 74.9,94.1 74.9,110.5 74.9,110.5 "/>
<polyline id="XMLID_18270_" fill="none" points="74.9,110.5 89.1,118.6 89.1,102.3 "/>
<g id="XMLID_15957_">
	<g id="XMLID_15964_">
		<g id="XMLID_17103_">
			<g id="XMLID_17104_">
				<g id="XMLID_17988_">
					<defs>
						<polygon id="XMLID_18163_" points="74.2,110.1 74.2,98.8 73.1,98.2 73.1,93 60.7,85.9 61.9,86.6 61.9,96.8 62.9,97.4 
							62.9,103.5 						"/>
					</defs>
					<clipPath id="XMLID_84_">
						<use xlink:href="#XMLID_18163_"  overflow="visible"/>
					</clipPath>
					<g id="XMLID_18232_" clip-path="url(#XMLID_84_)">
						<polygon fill="#9EB2B7" points="69.5,98.3 72.5,96.5 74.4,97.6 74.3,99 72.5,100 						"/>
						<path fill="#556063" d="M72.5,96.5l1.9,1.1L74.2,99l-1.7,1l-3-1.7L72.5,96.5 M72.5,96.4L72.5,96.4l-3,1.8l-0.1,0l0.1,0l3,1.7
							l0,0l0,0l1.7-1l0,0l0,0l0.1-1.4l0,0l0,0L72.5,96.4L72.5,96.4L72.5,96.4z"/>
					</g>
					<g id="XMLID_18231_" clip-path="url(#XMLID_84_)">
						<polygon fill="#CBD7D8" points="66.2,96.4 69.4,94.5 72.6,96.4 69.5,98.2 						"/>
						<path fill="#556063" d="M69.4,94.5l3.2,1.9l-3.1,1.8l-3.2-1.9L69.4,94.5 M69.4,94.5L69.4,94.5l-3.2,1.8l-0.1,0l0.1,0l3.2,1.9
							l0,0l0,0l3.1-1.8l0.1,0l-0.1,0L69.4,94.5L69.4,94.5L69.4,94.5z"/>
					</g>
					<polygon id="XMLID_18230_" opacity="4.000000e-002" clip-path="url(#XMLID_84_)" points="70.6,95.2 72.6,96.4 69.5,98.2 					
						"/>
					<g id="XMLID_18229_" clip-path="url(#XMLID_84_)">
						<polygon fill="#CBD7D8" points="72.7,93.6 75.7,91.8 78.8,93.5 75.7,95.3 						"/>
						<g>
							<path fill="#556063" d="M75.7,91.8l3,1.7l-3,1.7l-3-1.7L75.7,91.8 M75.7,91.7L75.7,91.7l-3,1.8l-0.1,0l0.1,0l3,1.7l0,0l0,0
								l3-1.7l0.1,0l-0.1,0L75.7,91.7L75.7,91.7L75.7,91.7z"/>
						</g>
					</g>
					<g id="XMLID_18218_" clip-path="url(#XMLID_84_)">
						<g id="XMLID_18228_">
							<polygon fill="#CBD7D8" points="66.7,93.6 69.7,91.8 72.7,93.5 69.7,95.3 							"/>
							<path fill="#556063" d="M69.7,91.8l3,1.7l-3,1.7h0l-3-1.7L69.7,91.8 M69.7,91.7L69.7,91.7l-3,1.8l-0.1,0l0.1,0l3,1.7l0,0h0h0
								l0,0l3-1.7l0.1,0l-0.1,0L69.7,91.7L69.7,91.7L69.7,91.7z"/>
						</g>
						<g id="XMLID_18227_">
							<polygon fill="#9EB2B7" points="63.6,91.8 66.7,90 69.7,91.8 66.7,93.6 							"/>
							<path fill="#556063" d="M66.7,90.1l3,1.7l-3,1.7l-3-1.7L66.7,90.1 M66.7,90L66.7,90l-3,1.8l-0.1,0l0.1,0l3,1.7l0,0l0,0l3-1.7
								l0.1,0l-0.1,0L66.7,90L66.7,90L66.7,90z"/>
						</g>
						<g id="XMLID_18226_">
							<polygon fill="#9EB2B7" points="69.7,91.8 72.7,90 75.7,91.8 72.7,93.6 							"/>
							<path fill="#556063" d="M72.7,90.1l3,1.7l-3,1.7l-3-1.7L72.7,90.1 M72.7,90L72.7,90l-3,1.8l-0.1,0l0.1,0l3,1.7l0,0l0,0l3-1.7
								l0.1,0l-0.1,0L72.7,90L72.7,90L72.7,90z"/>
						</g>
						<g id="XMLID_18225_">
							<polygon fill="#CBD7D8" points="66.7,90.1 69.7,88.3 72.7,90 69.7,91.8 							"/>
							<g>
								<path fill="#556063" d="M69.7,88.3l3,1.7l-3,1.7h0l-3-1.7L69.7,88.3 M69.7,88.3L69.7,88.3l-3,1.8l-0.1,0l0.1,0l3,1.7l0,0h0
									h0l0,0l3-1.7l0.1,0l-0.1,0L69.7,88.3L69.7,88.3L69.7,88.3z"/>
							</g>
						</g>
						<g id="XMLID_18224_">
							<polygon fill="#9EB2B7" points="63.6,88.3 66.7,86.6 69.7,88.3 66.7,90.1 							"/>
							<path fill="#556063" d="M66.7,86.6l3,1.7l-3,1.7l-3-1.7L66.7,86.6 M66.7,86.5L66.7,86.5l-3,1.8l-0.1,0l0.1,0l3,1.7l0,0l0,0
								l3-1.7l0.1,0l-0.1,0L66.7,86.5L66.7,86.5L66.7,86.5z"/>
						</g>
						<polygon id="XMLID_18223_" opacity="4.000000e-002" points="70.9,92.4 72.7,93.5 69.7,95.3 						"/>
						<polygon id="XMLID_18222_" opacity="8.000000e-002" points="73.9,90.7 75.7,91.8 72.7,93.5 						"/>
						<polygon id="XMLID_18221_" opacity="8.000000e-002" points="70.9,89 72.7,90.1 69.7,91.8 						"/>
						<polygon id="XMLID_18220_" opacity="4.000000e-002" points="67.9,90.7 69.7,91.8 66.7,93.5 						"/>
						<polygon id="XMLID_18219_" opacity="4.000000e-002" points="67.9,87.2 69.7,88.3 66.7,90.1 						"/>
					</g>
					<g id="XMLID_18165_" clip-path="url(#XMLID_84_)">
						<g id="XMLID_18217_">
							<polygon fill="#CBD7D8" points="63.6,98.8 60.6,97.1 63.6,95.3 66.6,97 63.6,98.8 							"/>
							<path fill="#556063" d="M63.6,95.3l3,1.7l-3,1.7l0,0v0l-3-1.7L63.6,95.3 M63.6,95.2L63.6,95.2l-3,1.8l-0.1,0l0.1,0l3,1.7l0,0
								l0,0l0.1,0v-0.1l3-1.7l0.1,0l-0.1,0L63.6,95.2L63.6,95.2L63.6,95.2z"/>
						</g>
						<g id="XMLID_18211_">
							<polygon fill="#CBD7D8" points="60.6,93.6 63.6,91.8 66.6,93.5 63.6,95.3 							"/>
							<path fill="#556063" d="M63.6,91.8l3,1.7l-3,1.7l-3-1.7L63.6,91.8 M63.6,91.8L63.6,91.8l-3,1.8l-0.1,0l0.1,0l3,1.7l0,0l0,0
								l3-1.7l0.1,0l-0.1,0L63.6,91.8L63.6,91.8L63.6,91.8z"/>
						</g>
						<g id="XMLID_18205_">
							<polygon fill="#9EB2B7" points="57.5,91.8 60.6,90.1 63.6,91.8 60.6,93.6 							"/>
							<path fill="#556063" d="M60.6,90.1l3,1.7l-3,1.7l-3-1.7L60.6,90.1 M60.6,90L60.6,90l-3,1.8l-0.1,0l0.1,0l3,1.7l0,0l0,0l3-1.7
								l0.1,0l-0.1,0L60.6,90L60.6,90L60.6,90z"/>
						</g>
						<g id="XMLID_18199_">
							<polygon fill="#CBD7D8" points="60.6,90.1 63.6,88.3 66.7,90 63.7,91.8 							"/>
							<path fill="#556063" d="M63.7,88.3l3,1.7l-3,1.7l-3-1.7L63.7,88.3 M63.7,88.3L63.7,88.3l-3,1.8l-0.1,0l0.1,0l3,1.7l0,0l0,0
								l3-1.7l0.1,0l-0.1,0L63.7,88.3L63.7,88.3L63.7,88.3z"/>
						</g>
						<g id="XMLID_18193_">
							<polygon fill="#9EB2B7" points="57.6,88.3 60.6,86.6 63.7,88.3 60.6,90.1 							"/>
							<path fill="#556063" d="M60.6,86.6l3,1.7l-3,1.7l-3-1.7L60.6,86.6 M60.6,86.5L60.6,86.5l-3,1.8l-0.1,0l0.1,0l3,1.7l0,0l0,0
								l3-1.7l0.1,0l-0.1,0L60.6,86.5L60.6,86.5L60.6,86.5z"/>
						</g>
						<g id="XMLID_18186_">
							<polygon fill="#CBD7D8" points="60.6,86.6 63.6,84.8 66.7,86.6 63.7,88.3 							"/>
							<g>
								<path fill="#556063" d="M63.7,84.8l3,1.7l-3,1.7l-3-1.7L63.7,84.8 M63.7,84.8L63.7,84.8l-3,1.8l-0.1,0l0.1,0l3,1.7l0,0l0,0
									l3-1.7l0.1,0l-0.1,0L63.7,84.8L63.7,84.8L63.7,84.8z"/>
							</g>
						</g>
						<g id="XMLID_18180_">
							<polygon fill="#9EB2B7" points="57.5,98.8 60.5,97 63.6,98.8 60.5,100.6 							"/>
							<path fill="#556063" d="M60.5,97.1l3,1.7l-3,1.7h0l-3-1.7L60.5,97.1 M60.5,97L60.5,97l-3,1.8l-0.1,0l0.1,0l3,1.7l0,0h0h0l0,0
								l3-1.7l0.1,0l-0.1,0L60.5,97L60.5,97L60.5,97z"/>
						</g>
						<g id="XMLID_18174_">
							<polygon fill="#9EB2B7" points="57.5,95.3 60.6,93.5 63.6,95.3 60.6,97.1 							"/>
							<path fill="#556063" d="M60.6,93.6l3,1.7l-3,1.7l-3-1.7L60.6,93.6 M60.6,93.5L60.6,93.5l-3,1.8l-0.1,0l0.1,0l3,1.7l0,0l0,0
								l3-1.7l0.1,0l-0.1,0L60.6,93.5L60.6,93.5L60.6,93.5z"/>
						</g>
						<polygon id="XMLID_18173_" opacity="4.000000e-002" points="64.8,95.9 66.6,97 63.6,98.8 						"/>
						<polygon id="XMLID_18172_" opacity="4.000000e-002" points="64.8,92.5 66.6,93.6 63.6,95.3 						"/>
						<polygon id="XMLID_18171_" opacity="4.000000e-002" points="64.8,89 66.6,90.1 63.6,91.8 						"/>
						<polygon id="XMLID_18170_" opacity="8.000000e-002" points="64.8,85.5 66.6,86.6 63.6,88.3 						"/>
						<polygon id="XMLID_18169_" opacity="8.000000e-002" points="61.8,97.7 63.6,98.8 60.6,100.5 						"/>
						<polygon id="XMLID_18168_" opacity="4.000000e-002" points="61.8,94.2 63.6,95.3 60.6,97 						"/>
						<polygon id="XMLID_18167_" opacity="4.000000e-002" points="61.8,90.7 63.6,91.8 60.6,93.6 						"/>
						<polygon id="XMLID_18166_" opacity="8.000000e-002" points="61.8,87.2 63.6,88.3 60.6,90.1 						"/>
					</g>
					<polygon id="XMLID_18164_" clip-path="url(#XMLID_84_)" fill="#968677" points="63.8,103 62.9,103.5 75.4,110.8 75.4,109.7 
											"/>
					<g id="XMLID_18133_" clip-path="url(#XMLID_84_)">
						<g id="XMLID_18157_">
							<polygon fill="#556063" points="63.2,101.7 69.5,98.2 69.5,98.2 63.2,101.8 							"/>
							<path fill="#556063" d="M69.4,98.2L69.4,98.2l-6.2,3.6v0L69.4,98.2 M69.5,98.1l-6.3,3.6v0.1l6.3-3.6V98.1L69.5,98.1z"/>
						</g>
						<g id="XMLID_18150_">
							<polygon fill="#CBD7D8" points="62.5,102.2 63.4,101.7 66.5,103.4 65.6,104 							"/>
							<g>
								<path fill="#556063" d="M63.4,101.7l3,1.7l-0.9,0.5l-3-1.7L63.4,101.7 M63.4,101.7L63.4,101.7l-0.9,0.5l-0.1,0l0.1,0l3,1.7
									l0,0l0,0l0.9-0.5l0.1,0l-0.1,0L63.4,101.7L63.4,101.7L63.4,101.7z"/>
							</g>
						</g>
						<g id="XMLID_18144_">
							<polygon fill="#9EB2B7" points="65.5,104 66.4,103.4 69.5,105.2 68.6,105.7 							"/>
							<path fill="#556063" d="M66.4,103.5l3,1.7l-0.9,0.5l-3-1.7L66.4,103.5 M66.4,103.4L66.4,103.4l-0.9,0.5l-0.1,0l0.1,0l3,1.7
								l0,0l0,0l0.9-0.5l0.1,0l-0.1,0L66.4,103.4L66.4,103.4L66.4,103.4z"/>
						</g>
						<g id="XMLID_18137_">
							<polygon fill="#CBD7D8" points="68.6,105.7 69.5,105.2 72.5,106.9 71.6,107.5 							"/>
							<g>
								<path fill="#556063" d="M69.5,105.2l3,1.7l-0.9,0.5l-3-1.7L69.5,105.2 M69.5,105.1L69.5,105.1l-0.9,0.5l-0.1,0l0.1,0l3,1.7
									l0,0l0,0l0.9-0.5l0.1,0l-0.1,0L69.5,105.1L69.5,105.1L69.5,105.1z"/>
							</g>
						</g>
						<polygon id="XMLID_18136_" opacity="4.000000e-002" points="64.6,102.4 66.4,103.5 65.5,104 64.3,103.2 						"/>
						<polygon id="XMLID_18135_" opacity="4.000000e-002" points="67.6,104.2 69.5,105.2 68.6,105.7 67.3,105 						"/>
						<polygon id="XMLID_18134_" opacity="4.000000e-002" points="70.6,105.8 72.5,106.9 69.5,108.7 						"/>
					</g>
					<g id="XMLID_18127_" clip-path="url(#XMLID_84_)">
						<polygon fill="#CBD7D8" points="59.9,100 63,98.2 66.2,100 63,101.8 						"/>
						<path fill="#556063" d="M63,98.2l3.1,1.8l-3.1,1.8l-3.1-1.8L63,98.2 M63,98.1L63,98.1l-3.2,1.8l-0.1,0l0.1,0l3.1,1.8l0,0l0,0
							l3.1-1.8l0.1,0l-0.1,0L63,98.1L63,98.1L63,98.1z"/>
					</g>
					<polygon id="XMLID_18126_" opacity="4.000000e-002" clip-path="url(#XMLID_84_)" points="64.3,98.9 66.2,100 63,101.8 					"/>
					<g id="XMLID_18120_" clip-path="url(#XMLID_84_)">
						<polygon fill="#9EB2B7" points="69.5,94.6 72.6,92.7 75.8,94.6 72.7,96.4 						"/>
						<path fill="#556063" d="M72.7,92.8l3.1,1.8l-3.1,1.8l-3.1-1.8L72.7,92.8 M72.7,92.7L72.7,92.7l-3.2,1.8l-0.1,0l0.1,0l3.1,1.8
							l0,0l0,0l3.1-1.8l0.1,0l-0.1,0L72.7,92.7L72.7,92.7L72.7,92.7z"/>
					</g>
					<polygon id="XMLID_18119_" opacity="8.000000e-002" clip-path="url(#XMLID_84_)" points="73.9,93.4 75.8,94.6 72.7,96.4 					
						"/>
					<g id="XMLID_18113_" clip-path="url(#XMLID_84_)">
						<polygon fill="#9EB2B7" points="63,98.2 66.2,96.4 69.3,98.2 66.2,100 						"/>
						<path fill="#556063" d="M66.2,96.4l3.1,1.8l-3.1,1.8l-3.1-1.8L66.2,96.4 M66.2,96.3L66.2,96.3L63,98.1l-0.1,0l0.1,0l3.1,1.8
							l0,0l0,0l3.1-1.8l0.1,0l-0.1,0L66.2,96.3L66.2,96.3L66.2,96.3z"/>
					</g>
					<polygon id="XMLID_18112_" opacity="8.000000e-002" clip-path="url(#XMLID_84_)" points="67.4,97.1 69.3,98.2 66.2,100 					
						"/>
					<g id="XMLID_18106_" clip-path="url(#XMLID_84_)">
						<polygon fill="#9EB2B7" points="63.6,95.3 66.6,93.5 69.6,95.3 66.6,97.1 						"/>
						<path fill="#556063" d="M66.6,93.6l3,1.7l-3,1.7h0l-3-1.7L66.6,93.6 M66.6,93.5L66.6,93.5l-3,1.8l-0.1,0l0.1,0l3,1.7l0,0h0h0
							l0,0l3-1.7l0.1,0l-0.1,0L66.6,93.5L66.6,93.5L66.6,93.5z"/>
					</g>
					<polygon id="XMLID_18105_" opacity="4.000000e-002" clip-path="url(#XMLID_84_)" points="67.8,94.2 69.6,95.3 66.6,97 					"/>
					<g id="XMLID_18103_" clip-path="url(#XMLID_84_)">
						<polygon id="XMLID_18104_" opacity="0.1" points="62.7,96.2 62.1,95.9 62.1,95.9 						"/>
					</g>
					<g id="XMLID_18097_" clip-path="url(#XMLID_84_)">
						<polygon fill="#9EB2B7" points="54.5,97.1 57.5,95.3 60.5,97 57.5,98.8 						"/>
						<path fill="#556063" d="M57.5,95.3l3,1.7l-3,1.7l-3-1.7L57.5,95.3 M57.5,95.3L57.5,95.3l-3,1.8l-0.1,0l0.1,0l3,1.7l0,0l0,0
							l3-1.7l0.1,0l-0.1,0L57.5,95.3L57.5,95.3L57.5,95.3z"/>
					</g>
					<g id="XMLID_18091_" clip-path="url(#XMLID_84_)">
						<polygon fill="#9EB2B7" points="51.4,95.3 54.5,93.6 57.5,95.3 54.5,97.1 						"/>
						<path fill="#556063" d="M54.5,93.6l3,1.7l-3,1.7l-3-1.7L54.5,93.6 M54.5,93.5L54.5,93.5l-3,1.8l-0.1,0l0.1,0l3,1.7l0,0l0,0
							l3-1.7l0.1,0l-0.1,0L54.5,93.5L54.5,93.5L54.5,93.5z"/>
					</g>
					<g id="XMLID_18085_" clip-path="url(#XMLID_84_)">
						<polygon fill="#9EB2B7" points="54.5,93.6 57.5,91.8 60.6,93.5 57.6,95.3 						"/>
						<path fill="#556063" d="M57.6,91.8l3,1.7l-3,1.7l-3-1.7L57.6,91.8 M57.6,91.8L57.6,91.8l-3,1.8l-0.1,0l0.1,0l3,1.7l0,0l0,0
							l3-1.7l0.1,0l-0.1,0L57.6,91.8L57.6,91.8L57.6,91.8z"/>
					</g>
					<g id="XMLID_18078_" clip-path="url(#XMLID_84_)">
						<polygon fill="#CBD7D8" points="66.4,100 69.5,98.2 72.5,100 69.5,101.7 						"/>
						<g>
							<path fill="#556063" d="M69.5,98.2l3,1.7l-3,1.7l-3-1.7L69.5,98.2 M69.5,98.2L69.5,98.2l-3,1.8l-0.1,0l0.1,0l3,1.7l0,0l0,0
								l3-1.7l0.1,0l-0.1,0L69.5,98.2L69.5,98.2L69.5,98.2z"/>
						</g>
					</g>
					<g id="XMLID_18072_" clip-path="url(#XMLID_84_)">
						<polygon fill="#9EB2B7" points="63.4,101.7 66.4,100 69.5,101.7 66.4,103.5 						"/>
						<path fill="#556063" d="M66.4,100l3,1.7l-3,1.7l-3-1.7L66.4,100 M66.4,99.9L66.4,99.9l-3,1.8l-0.1,0l0.1,0l3,1.7l0,0l0,0
							l3-1.7l0.1,0l-0.1,0L66.4,99.9L66.4,99.9L66.4,99.9z"/>
					</g>
					<g id="XMLID_18066_" clip-path="url(#XMLID_84_)">
						<polygon fill="#9EB2B7" points="69.5,101.7 72.5,100 75.5,101.7 72.5,103.5 						"/>
						<path fill="#556063" d="M72.5,100l3,1.7l-3,1.7l-3-1.7L72.5,100 M72.5,99.9L72.5,99.9l-3,1.8l-0.1,0l0.1,0l3,1.7l0,0l0,0
							l3-1.7l0.1,0l-0.1,0L72.5,99.9L72.5,99.9L72.5,99.9z"/>
					</g>
					<g id="XMLID_18059_" clip-path="url(#XMLID_84_)">
						<polygon fill="#CBD7D8" points="66.4,103.5 69.5,101.7 72.5,103.4 69.5,105.2 						"/>
						<g>
							<path fill="#556063" d="M69.5,101.7l3,1.7l-3,1.7l-3-1.7L69.5,101.7 M69.5,101.7L69.5,101.7l-3,1.8l-0.1,0l0.1,0l3,1.7l0,0
								l0,0l3-1.7l0.1,0l-0.1,0L69.5,101.7L69.5,101.7L69.5,101.7z"/>
						</g>
					</g>
					<g id="XMLID_18052_" clip-path="url(#XMLID_84_)">
						<polygon fill="#CBD7D8" points="72.5,100 75.5,98.2 78.6,99.9 75.6,101.7 						"/>
						<g>
							<path fill="#556063" d="M75.6,98.2l3,1.7l-3,1.7l-3-1.7L75.6,98.2 M75.6,98.2L75.6,98.2l-3,1.8l-0.1,0l0.1,0l3,1.7l0,0l0,0
								l3-1.7l0.1,0l-0.1,0L75.6,98.2L75.6,98.2L75.6,98.2z"/>
						</g>
					</g>
					<g id="XMLID_18045_" clip-path="url(#XMLID_84_)">
						<polygon fill="#CBD7D8" points="72.5,103.5 75.5,101.7 78.5,103.4 75.5,105.2 						"/>
						<g>
							<path fill="#556063" d="M75.5,101.7l3,1.7l-3,1.7l-3-1.7L75.5,101.7 M75.5,101.7L75.5,101.7l-3,1.8l-0.1,0l0.1,0l3,1.7l0,0
								l0,0l3-1.7l0.1,0l-0.1,0L75.5,101.7L75.5,101.7L75.5,101.7z"/>
						</g>
					</g>
					<g id="XMLID_18039_" clip-path="url(#XMLID_84_)">
						<polygon fill="#9EB2B7" points="69.5,105.2 72.5,103.4 75.5,105.2 72.5,107 						"/>
						<path fill="#556063" d="M72.5,103.5l3,1.7l-3,1.7l-3-1.7L72.5,103.5 M72.5,103.4L72.5,103.4l-3,1.8l-0.1,0l0.1,0l3,1.7l0,0
							l0,0l3-1.7l0.1,0l-0.1,0L72.5,103.4L72.5,103.4L72.5,103.4z"/>
					</g>
					<g id="XMLID_18033_" clip-path="url(#XMLID_84_)">
						<polygon fill="#6D513E" points="61.2,102 61.2,86.3 72.7,81.7 73.9,95.3 61.6,102.2 						"/>
						<path fill="#5B433C" d="M72.2,82.4L73.3,95l-11.6,6.6v-15L72.2,82.4 M73.1,81l-12.4,4.9v16.4l0.8,0.5l12.8-7.3L73.1,81
							L73.1,81z"/>
					</g>
					<polygon id="XMLID_18032_" opacity="5.000000e-002" clip-path="url(#XMLID_84_)" points="66.4,97.1 66,96.8 66,91.8 68.7,90.3 
						68.7,90.7 					"/>
					<polygon id="XMLID_18030_" opacity="0.1" clip-path="url(#XMLID_84_)" points="62.9,102.5 63.2,102.7 63.2,96.5 61.8,95.7 
						62.9,96.3 					"/>
					<g id="XMLID_18024_" clip-path="url(#XMLID_84_)">
						<polygon fill="#9EB2B7" points="71.6,107.4 72.5,106.9 75.5,108.6 74.6,109.2 						"/>
						<path fill="#556063" d="M72.5,106.9l3,1.7l-0.9,0.5l-3-1.7L72.5,106.9 M72.5,106.9L72.5,106.9l-0.9,0.5l-0.1,0l0.1,0l3,1.7
							l0,0l0,0l0.9-0.5l0.1,0l-0.1,0L72.5,106.9L72.5,106.9L72.5,106.9z"/>
					</g>
					<polygon id="XMLID_18023_" opacity="4.000000e-002" clip-path="url(#XMLID_84_)" points="73.7,107.6 75.5,108.7 74.6,109.2 
						73.3,108.5 					"/>
					<g id="XMLID_18016_" clip-path="url(#XMLID_84_)">
						<polygon fill="#CBD7D8" points="72.5,107 75.5,105.2 78.5,106.9 75.5,108.7 						"/>
						<g>
							<path fill="#556063" d="M75.5,105.2l3,1.7l-3,1.7l-3-1.7L75.5,105.2 M75.5,105.1L75.5,105.1l-3,1.8l-0.1,0l0.1,0l3,1.7l0,0
								l0,0l3-1.7l0.1,0l-0.1,0L75.5,105.1L75.5,105.1L75.5,105.1z"/>
						</g>
					</g>
					<g id="XMLID_17994_" clip-path="url(#XMLID_84_)">
						<g id="XMLID_18013_">
							<polygon fill="#D6D6D6" points="69.2,90.5 66.4,92.1 67.8,92.9 70.6,91.3 							"/>
						</g>
						<g id="XMLID_18010_">
							<polygon fill="#AFAFAF" points="70.6,96.9 67.8,98.5 67.8,92.9 70.6,91.3 							"/>
						</g>
						<g id="XMLID_17997_">
							<polygon fill="#C6C6C6" points="66.4,97.7 67.8,98.5 67.8,92.9 66.4,92.1 							"/>
						</g>
					</g>
					<path id="XMLID_17993_" clip-path="url(#XMLID_84_)" fill="#AFAFAF" d="M67.7,84.8v6.6h0c0,0.1,0.1,0.2,0.2,0.3
						c0.1,0,0.2,0.1,0.3,0.1v-7L67.7,84.8z"/>
					<path id="XMLID_17992_" clip-path="url(#XMLID_84_)" fill="#8E8E8E" d="M68.2,84.7v7c0.2,0,0.5-0.1,0.7-0.2
						c0.1-0.1,0.2-0.2,0.2-0.3h0v-6.5L68.2,84.7z"/>
					<g id="XMLID_17098_" opacity="0.2" clip-path="url(#XMLID_84_)">
						<polygon points="69.4,96 68.9,96.3 68.4,96.6 68.4,97.2 68.9,96.9 69.4,96.6 69.9,96.3 69.9,95.7 						"/>
					</g>
				</g>
				<g id="XMLID_17982_">
					<polygon id="XMLID_17987_" fill="#AD856A" points="61.9,96.8 62.8,96.3 62.8,87.1 61.9,86.6 					"/>
					<polygon id="XMLID_17986_" fill="#E2BDA8" points="62.8,96.3 61.9,96.8 62.9,97.4 63.8,96.9 					"/>
					<polygon id="XMLID_17985_" fill="#AD856A" points="62.9,103.5 62.9,97.4 63.8,96.9 63.8,103 					"/>
				</g>
				<polygon id="XMLID_17977_" opacity="4.000000e-002" points="73.7,97.1 74.3,98.9 72.5,100 				"/>
				<polygon id="XMLID_17976_" opacity="4.000000e-002" points="70.6,98.9 72.5,100 69.5,101.7 				"/>
				<polygon id="XMLID_17975_" opacity="4.000000e-002" points="67.6,100.6 69.5,101.7 66.4,103.5 				"/>
				<polygon id="XMLID_17556_" opacity="4.000000e-002" points="73.7,100.6 74.3,100.9 74.3,102.4 72.5,103.5 				"/>
				<polygon id="XMLID_17107_" opacity="4.000000e-002" points="70.6,102.4 72.5,103.5 69.5,105.2 				"/>
				<polygon id="XMLID_17106_" opacity="4.000000e-002" points="73.7,104.1 74.2,104.5 74.2,105.9 72.5,106.9 				"/>
				<polygon id="XMLID_17105_" opacity="0.1" points="72.8,92.9 72.8,92.9 62.8,87.1 62.8,88.3 62.8,96.3 63.2,96.5 63.2,88.5 
					72.8,94.2 72.8,98.3 74,99 74,108.9 74.9,109.3 74.9,94.1 				"/>
			</g>
		</g>
		<polygon id="XMLID_17100_" fill="#D4AB90" points="61.9,86.6 60.7,85.9 60.7,102.3 62.9,103.5 62.9,97.4 61.9,96.8 		"/>
		<polygon id="XMLID_17099_" fill="#D4AB90" points="74.2,110.1 74.9,110.5 74.9,94.1 73.1,93 73.1,98.2 74.2,98.8 		"/>
		<line id="XMLID_15971_" fill="none" x1="68.9" y1="101.4" x2="71.4" y2="100"/>
	</g>
</g>
<polyline id="XMLID_19910_" fill="none" points="89.1,102.3 89.1,102.3 74.9,94.1 74.9,110.5 74.9,110.5 "/>
<polyline id="XMLID_19909_" fill="none" points="74.9,110.5 89.1,118.6 89.1,102.3 "/>
<g id="XMLID_19583_">
	<g id="XMLID_19588_">
		<g id="XMLID_19606_">
			<g id="XMLID_19607_">
				<g id="XMLID_19619_">
					<defs>
						<polygon id="XMLID_19790_" points="74.2,110.1 74.2,98.8 73.1,98.2 73.1,93.1 60.7,85.9 61.9,86.6 61.9,96.8 62.9,97.4 
							62.9,103.6 						"/>
					</defs>
					<clipPath id="XMLID_85_">
						<use xlink:href="#XMLID_19790_"  overflow="visible"/>
					</clipPath>
					<g id="XMLID_19901_" clip-path="url(#XMLID_85_)">
						<polygon fill="#9EB2B7" points="69.5,98.3 72.5,96.5 74.4,97.6 74.3,99 72.5,100 						"/>
						<path fill="#556063" d="M72.5,96.5l1.9,1.1L74.2,99l-1.7,1l-3-1.7L72.5,96.5 M72.5,96.5L72.5,96.5l-3,1.8l-0.1,0l0.1,0l3,1.7
							l0,0l0,0l1.7-1l0,0l0,0l0.1-1.4l0,0l0,0L72.5,96.5L72.5,96.5L72.5,96.5z"/>
					</g>
					<g id="XMLID_19895_" clip-path="url(#XMLID_85_)">
						<polygon fill="#CBD7D8" points="66.2,96.4 69.4,94.5 72.6,96.4 69.5,98.2 						"/>
						<path fill="#556063" d="M69.4,94.6l3.2,1.9l-3.1,1.8l-3.2-1.9L69.4,94.6 M69.4,94.5L69.4,94.5l-3.2,1.8l-0.1,0l0.1,0l3.2,1.9
							l0,0l0,0l3.1-1.8l0.1,0l-0.1,0L69.4,94.5L69.4,94.5L69.4,94.5z"/>
					</g>
					<polygon id="XMLID_19894_" opacity="4.000000e-002" clip-path="url(#XMLID_85_)" points="70.6,95.2 72.6,96.4 69.5,98.2 					
						"/>
					<g id="XMLID_19887_" clip-path="url(#XMLID_85_)">
						<polygon fill="#CBD7D8" points="72.7,93.6 75.7,91.8 78.8,93.5 75.7,95.3 						"/>
						<g>
							<path fill="#556063" d="M75.7,91.8l3,1.7l-3,1.7l-3-1.7L75.7,91.8 M75.7,91.7L75.7,91.7l-3,1.8l-0.1,0l0.1,0l3,1.7l0,0l0,0
								l3-1.7l0.1,0l-0.1,0L75.7,91.7L75.7,91.7L75.7,91.7z"/>
						</g>
					</g>
					<g id="XMLID_19850_" clip-path="url(#XMLID_85_)">
						<g id="XMLID_19881_">
							<polygon fill="#CBD7D8" points="66.7,93.6 69.7,91.8 72.7,93.5 69.7,95.3 							"/>
							<path fill="#556063" d="M69.7,91.8l3,1.7l-3,1.7h0l-3-1.7L69.7,91.8 M69.7,91.7L69.7,91.7l-3,1.8l-0.1,0l0.1,0l3,1.7l0,0h0h0
								l0,0l3-1.7l0.1,0l-0.1,0L69.7,91.7L69.7,91.7L69.7,91.7z"/>
						</g>
						<g id="XMLID_19875_">
							<polygon fill="#9EB2B7" points="63.6,91.8 66.7,90 69.7,91.8 66.7,93.6 							"/>
							<path fill="#556063" d="M66.7,90.1l3,1.7l-3,1.7l-3-1.7L66.7,90.1 M66.7,90L66.7,90l-3,1.8l-0.1,0l0.1,0l3,1.7l0,0l0,0l3-1.7
								l0.1,0l-0.1,0L66.7,90L66.7,90L66.7,90z"/>
						</g>
						<g id="XMLID_19869_">
							<polygon fill="#9EB2B7" points="69.7,91.8 72.7,90 75.7,91.8 72.7,93.6 							"/>
							<path fill="#556063" d="M72.7,90.1l3,1.7l-3,1.7l-3-1.7L72.7,90.1 M72.7,90L72.7,90l-3,1.8l-0.1,0l0.1,0l3,1.7l0,0l0,0l3-1.7
								l0.1,0l-0.1,0L72.7,90L72.7,90L72.7,90z"/>
						</g>
						<g id="XMLID_19862_">
							<polygon fill="#CBD7D8" points="66.7,90.1 69.7,88.3 72.7,90 69.7,91.8 							"/>
							<g>
								<path fill="#556063" d="M69.7,88.3l3,1.7l-3,1.7h0l-3-1.7L69.7,88.3 M69.7,88.3L69.7,88.3l-3,1.8l-0.1,0l0.1,0l3,1.7l0,0h0
									h0l0,0l3-1.7l0.1,0l-0.1,0L69.7,88.3L69.7,88.3L69.7,88.3z"/>
							</g>
						</g>
						<g id="XMLID_19856_">
							<polygon fill="#9EB2B7" points="63.6,88.3 66.7,86.6 69.7,88.3 66.7,90.1 							"/>
							<path fill="#556063" d="M66.7,86.6l3,1.7l-3,1.7l-3-1.7L66.7,86.6 M66.7,86.5L66.7,86.5l-3,1.8l-0.1,0l0.1,0l3,1.7l0,0l0,0
								l3-1.7l0.1,0l-0.1,0L66.7,86.5L66.7,86.5L66.7,86.5z"/>
						</g>
						<polygon id="XMLID_19855_" opacity="4.000000e-002" points="70.9,92.4 72.7,93.5 69.7,95.3 						"/>
						<polygon id="XMLID_19854_" opacity="8.000000e-002" points="73.9,90.7 75.7,91.8 72.7,93.5 						"/>
						<polygon id="XMLID_19853_" opacity="8.000000e-002" points="70.9,89 72.7,90.1 69.7,91.8 						"/>
						<polygon id="XMLID_19852_" opacity="4.000000e-002" points="67.9,90.7 69.7,91.8 66.7,93.5 						"/>
						<polygon id="XMLID_19851_" opacity="4.000000e-002" points="67.9,87.2 69.7,88.3 66.7,90.1 						"/>
					</g>
					<g id="XMLID_19792_" clip-path="url(#XMLID_85_)">
						<g id="XMLID_19844_">
							<polygon fill="#CBD7D8" points="60.6,97.1 63.6,95.3 66.6,97 63.6,98.8 							"/>
							<path fill="#556063" d="M63.6,95.3l3,1.7l-3,1.7h0l-3-1.7L63.6,95.3 M63.6,95.2L63.6,95.2l-3,1.8l-0.1,0l0.1,0l3,1.7l0,0h0h0
								l0,0l3-1.7l0.1,0l-0.1,0L63.6,95.2L63.6,95.2L63.6,95.2z"/>
						</g>
						<g id="XMLID_19838_">
							<polygon fill="#CBD7D8" points="60.6,93.6 63.6,91.8 66.6,93.5 63.6,95.3 							"/>
							<path fill="#556063" d="M63.6,91.8l3,1.7l-3,1.7l-3-1.7L63.6,91.8 M63.6,91.8L63.6,91.8l-3,1.8l-0.1,0l0.1,0l3,1.7l0,0l0,0
								l3-1.7l0.1,0l-0.1,0L63.6,91.8L63.6,91.8L63.6,91.8z"/>
						</g>
						<g id="XMLID_19832_">
							<polygon fill="#9EB2B7" points="57.5,91.8 60.6,90.1 63.6,91.8 60.6,93.6 							"/>
							<path fill="#556063" d="M60.6,90.1l3,1.7l-3,1.7l-3-1.7L60.6,90.1 M60.6,90L60.6,90l-3,1.8l-0.1,0l0.1,0l3,1.7l0,0l0,0l3-1.7
								l0.1,0l-0.1,0L60.6,90L60.6,90L60.6,90z"/>
						</g>
						<g id="XMLID_19826_">
							<polygon fill="#CBD7D8" points="60.6,90.1 63.6,88.3 66.7,90 63.7,91.8 							"/>
							<path fill="#556063" d="M63.7,88.3l3,1.7l-3,1.7l-3-1.7L63.7,88.3 M63.7,88.3L63.7,88.3l-3,1.8l-0.1,0l0.1,0l3,1.7l0,0l0,0
								l3-1.7l0.1,0l-0.1,0L63.7,88.3L63.7,88.3L63.7,88.3z"/>
						</g>
						<g id="XMLID_19820_">
							<polygon fill="#9EB2B7" points="57.6,88.3 60.6,86.6 63.7,88.3 60.6,90.1 							"/>
							<path fill="#556063" d="M60.6,86.6l3,1.7l-3,1.7l-3-1.7L60.6,86.6 M60.6,86.5L60.6,86.5l-3,1.8l-0.1,0l0.1,0l3,1.7l0,0l0,0
								l3-1.7l0.1,0l-0.1,0L60.6,86.5L60.6,86.5L60.6,86.5z"/>
						</g>
						<g id="XMLID_19813_">
							<polygon fill="#CBD7D8" points="60.6,86.6 63.6,84.8 66.7,86.6 63.7,88.4 							"/>
							<g>
								<path fill="#556063" d="M63.7,84.8l3,1.7l-3,1.7l-3-1.7L63.7,84.8 M63.7,84.8L63.7,84.8l-3,1.8l-0.1,0l0.1,0l3,1.7l0,0l0,0
									l3-1.7l0.1,0l-0.1,0L63.7,84.8L63.7,84.8L63.7,84.8z"/>
							</g>
						</g>
						<g id="XMLID_19807_">
							<polygon fill="#9EB2B7" points="57.5,98.8 60.5,97 63.6,98.8 60.5,100.6 							"/>
							<path fill="#556063" d="M60.5,97.1l3,1.7l-3,1.7h0l-3-1.7L60.5,97.1 M60.5,97L60.5,97l-3,1.8l-0.1,0l0.1,0l3,1.7l0,0h0h0l0,0
								l3-1.7l0.1,0l-0.1,0L60.5,97L60.5,97L60.5,97z"/>
						</g>
						<g id="XMLID_19801_">
							<polygon fill="#9EB2B7" points="57.5,95.3 60.6,93.5 63.6,95.3 60.6,97.1 							"/>
							<path fill="#556063" d="M60.6,93.6l3,1.7l-3,1.7l-3-1.7L60.6,93.6 M60.6,93.5L60.6,93.5l-3,1.8l-0.1,0l0.1,0l3,1.7l0,0l0,0
								l3-1.7l0.1,0l-0.1,0L60.6,93.5L60.6,93.5L60.6,93.5z"/>
						</g>
						<polygon id="XMLID_19800_" opacity="4.000000e-002" points="64.8,95.9 66.6,97 63.6,98.8 						"/>
						<polygon id="XMLID_19799_" opacity="4.000000e-002" points="64.8,92.5 66.6,93.6 63.6,95.3 						"/>
						<polygon id="XMLID_19798_" opacity="4.000000e-002" points="64.8,89 66.6,90.1 63.6,91.8 						"/>
						<polygon id="XMLID_19797_" opacity="8.000000e-002" points="64.8,85.5 66.6,86.6 63.6,88.3 						"/>
						<polygon id="XMLID_19796_" opacity="8.000000e-002" points="61.8,97.7 63.6,98.8 60.6,100.5 						"/>
						<polygon id="XMLID_19795_" opacity="4.000000e-002" points="61.8,94.2 63.6,95.3 60.6,97 						"/>
						<polygon id="XMLID_19794_" opacity="4.000000e-002" points="61.8,90.7 63.6,91.8 60.6,93.6 						"/>
						<polygon id="XMLID_19793_" opacity="8.000000e-002" points="61.8,87.3 63.6,88.3 60.6,90.1 						"/>
					</g>
					<polygon id="XMLID_19791_" clip-path="url(#XMLID_85_)" fill="#968677" points="63.8,103 62.9,103.6 75.4,110.8 75.4,109.7 
											"/>
					<g id="XMLID_19760_" clip-path="url(#XMLID_85_)">
						<g id="XMLID_19784_">
							<polygon fill="#556063" points="63.2,101.7 69.5,98.2 69.5,98.3 63.2,101.8 							"/>
							<path fill="#556063" d="M69.4,98.2L69.4,98.2l-6.2,3.6v0L69.4,98.2 M69.5,98.1l-6.3,3.6v0.1l6.3-3.6V98.1L69.5,98.1z"/>
						</g>
						<g id="XMLID_19777_">
							<polygon fill="#CBD7D8" points="62.5,102.2 63.4,101.7 66.5,103.4 65.6,104 							"/>
							<g>
								<path fill="#556063" d="M63.4,101.7l3,1.7l-0.9,0.5l-3-1.7L63.4,101.7 M63.4,101.7L63.4,101.7l-0.9,0.5l-0.1,0l0.1,0l3,1.7
									l0,0l0,0l0.9-0.5l0.1,0l-0.1,0L63.4,101.7L63.4,101.7L63.4,101.7z"/>
							</g>
						</g>
						<g id="XMLID_19771_">
							<polygon fill="#9EB2B7" points="65.5,104 66.4,103.4 69.5,105.2 68.6,105.7 							"/>
							<path fill="#556063" d="M66.4,103.5l3,1.7l-0.9,0.5l-3-1.7L66.4,103.5 M66.4,103.4L66.4,103.4l-0.9,0.5l-0.1,0l0.1,0l3,1.7
								l0,0l0,0l0.9-0.5l0.1,0l-0.1,0L66.4,103.4L66.4,103.4L66.4,103.4z"/>
						</g>
						<g id="XMLID_19764_">
							<polygon fill="#CBD7D8" points="68.6,105.7 69.5,105.2 72.5,106.9 71.6,107.5 							"/>
							<g>
								<path fill="#556063" d="M69.5,105.2l3,1.7l-0.9,0.5l-3-1.7L69.5,105.2 M69.5,105.1L69.5,105.1l-0.9,0.5l-0.1,0l0.1,0l3,1.7
									l0,0l0,0l0.9-0.5l0.1,0l-0.1,0L69.5,105.1L69.5,105.1L69.5,105.1z"/>
							</g>
						</g>
						<polygon id="XMLID_19763_" opacity="4.000000e-002" points="64.6,102.4 66.4,103.5 65.5,104 64.3,103.2 						"/>
						<polygon id="XMLID_19762_" opacity="4.000000e-002" points="67.6,104.2 69.5,105.2 68.6,105.7 67.3,105 						"/>
						<polygon id="XMLID_19761_" opacity="4.000000e-002" points="70.6,105.8 72.5,106.9 69.5,108.7 						"/>
					</g>
					<g id="XMLID_19754_" clip-path="url(#XMLID_85_)">
						<polygon fill="#CBD7D8" points="59.9,100 63,98.2 66.2,100 63,101.8 						"/>
						<path fill="#556063" d="M63,98.2l3.1,1.8l-3.1,1.8l-3.1-1.8L63,98.2 M63,98.1L63,98.1l-3.2,1.8l-0.1,0l0.1,0l3.1,1.8l0,0l0,0
							l3.1-1.8l0.1,0l-0.1,0L63,98.1L63,98.1L63,98.1z"/>
					</g>
					<polygon id="XMLID_19753_" opacity="4.000000e-002" clip-path="url(#XMLID_85_)" points="64.3,98.9 66.2,100 63,101.8 					"/>
					<g id="XMLID_19747_" clip-path="url(#XMLID_85_)">
						<polygon fill="#9EB2B7" points="69.5,94.6 72.6,92.8 75.8,94.6 72.7,96.4 						"/>
						<path fill="#556063" d="M72.7,92.8l3.1,1.8l-3.1,1.8l-3.1-1.8L72.7,92.8 M72.7,92.7L72.7,92.7l-3.2,1.8l-0.1,0l0.1,0l3.1,1.8
							l0,0l0,0l3.1-1.8l0.1,0l-0.1,0L72.7,92.7L72.7,92.7L72.7,92.7z"/>
					</g>
					<polygon id="XMLID_19746_" opacity="8.000000e-002" clip-path="url(#XMLID_85_)" points="73.9,93.4 75.8,94.6 72.7,96.4 					
						"/>
					<g id="XMLID_19740_" clip-path="url(#XMLID_85_)">
						<polygon fill="#9EB2B7" points="63,98.2 66.2,96.4 69.3,98.2 66.2,100 						"/>
						<path fill="#556063" d="M66.2,96.4l3.1,1.8l-3.1,1.8l-3.1-1.8L66.2,96.4 M66.2,96.3L66.2,96.3L63,98.2l-0.1,0l0.1,0l3.1,1.8
							l0,0l0,0l3.1-1.8l0.1,0l-0.1,0L66.2,96.3L66.2,96.3L66.2,96.3z"/>
					</g>
					<polygon id="XMLID_19739_" opacity="8.000000e-002" clip-path="url(#XMLID_85_)" points="67.4,97.1 69.3,98.2 66.2,100 					
						"/>
					<g id="XMLID_19733_" clip-path="url(#XMLID_85_)">
						<polygon fill="#9EB2B7" points="63.6,95.3 66.6,93.5 69.6,95.3 66.6,97.1 						"/>
						<path fill="#556063" d="M66.6,93.6l3,1.7l-3,1.7h0l-3-1.7L66.6,93.6 M66.6,93.5L66.6,93.5l-3,1.8l-0.1,0l0.1,0l3,1.7l0,0h0h0
							l0,0l3-1.7l0.1,0l-0.1,0L66.6,93.5L66.6,93.5L66.6,93.5z"/>
					</g>
					<polygon id="XMLID_19732_" opacity="4.000000e-002" clip-path="url(#XMLID_85_)" points="67.8,94.2 69.6,95.3 66.6,97 					"/>
					<g id="XMLID_19730_" clip-path="url(#XMLID_85_)">
						<polygon id="XMLID_19731_" opacity="0.1" points="62.7,96.3 62.1,95.9 62.1,95.9 						"/>
					</g>
					<g id="XMLID_19724_" clip-path="url(#XMLID_85_)">
						<polygon fill="#9EB2B7" points="54.5,97.1 57.5,95.3 60.5,97 57.5,98.8 						"/>
						<path fill="#556063" d="M57.5,95.3l3,1.7l-3,1.7l-3-1.7L57.5,95.3 M57.5,95.3L57.5,95.3l-3,1.8l-0.1,0l0.1,0l3,1.7l0,0l0,0
							l3-1.7l0.1,0l-0.1,0L57.5,95.3L57.5,95.3L57.5,95.3z"/>
					</g>
					<g id="XMLID_19718_" clip-path="url(#XMLID_85_)">
						<polygon fill="#9EB2B7" points="51.4,95.3 54.5,93.6 57.5,95.3 54.5,97.1 						"/>
						<path fill="#556063" d="M54.5,93.6l3,1.7l-3,1.7l-3-1.7L54.5,93.6 M54.5,93.5L54.5,93.5l-3,1.8l-0.1,0l0.1,0l3,1.7l0,0l0,0
							l3-1.7l0.1,0l-0.1,0L54.5,93.5L54.5,93.5L54.5,93.5z"/>
					</g>
					<g id="XMLID_19712_" clip-path="url(#XMLID_85_)">
						<polygon fill="#9EB2B7" points="54.5,93.6 57.5,91.8 60.6,93.5 57.6,95.3 						"/>
						<path fill="#556063" d="M57.6,91.8l3,1.7l-3,1.7l-3-1.7L57.6,91.8 M57.6,91.8L57.6,91.8l-3,1.8l-0.1,0l0.1,0l3,1.7l0,0l0,0
							l3-1.7l0.1,0l-0.1,0L57.6,91.8L57.6,91.8L57.6,91.8z"/>
					</g>
					<g id="XMLID_19705_" clip-path="url(#XMLID_85_)">
						<polygon fill="#CBD7D8" points="66.4,100 69.5,98.2 72.5,100 69.5,101.8 						"/>
						<g>
							<path fill="#556063" d="M69.5,98.2l3,1.7l-3,1.7l-3-1.7L69.5,98.2 M69.5,98.2L69.5,98.2l-3,1.8l-0.1,0l0.1,0l3,1.7l0,0l0,0
								l3-1.7l0.1,0l-0.1,0L69.5,98.2L69.5,98.2L69.5,98.2z"/>
						</g>
					</g>
					<g id="XMLID_19699_" clip-path="url(#XMLID_85_)">
						<polygon fill="#9EB2B7" points="63.4,101.7 66.4,100 69.5,101.7 66.4,103.5 						"/>
						<path fill="#556063" d="M66.4,100l3,1.7l-3,1.7l-3-1.7L66.4,100 M66.4,99.9L66.4,99.9l-3,1.8l-0.1,0l0.1,0l3,1.7l0,0l0,0
							l3-1.7l0.1,0l-0.1,0L66.4,99.9L66.4,99.9L66.4,99.9z"/>
					</g>
					<g id="XMLID_19693_" clip-path="url(#XMLID_85_)">
						<polygon fill="#9EB2B7" points="69.5,101.7 72.5,100 75.5,101.7 72.5,103.5 						"/>
						<path fill="#556063" d="M72.5,100l3,1.7l-3,1.7l-3-1.7L72.5,100 M72.5,99.9L72.5,99.9l-3,1.8l-0.1,0l0.1,0l3,1.7l0,0l0,0
							l3-1.7l0.1,0l-0.1,0L72.5,99.9L72.5,99.9L72.5,99.9z"/>
					</g>
					<g id="XMLID_19686_" clip-path="url(#XMLID_85_)">
						<polygon fill="#CBD7D8" points="66.4,103.5 69.5,101.7 72.5,103.4 69.5,105.2 						"/>
						<g>
							<path fill="#556063" d="M69.5,101.7l3,1.7l-3,1.7l-3-1.7L69.5,101.7 M69.5,101.7L69.5,101.7l-3,1.8l-0.1,0l0.1,0l3,1.7l0,0
								l0,0l3-1.7l0.1,0l-0.1,0L69.5,101.7L69.5,101.7L69.5,101.7z"/>
						</g>
					</g>
					<g id="XMLID_19679_" clip-path="url(#XMLID_85_)">
						<polygon fill="#CBD7D8" points="72.5,100 75.5,98.2 78.6,99.9 75.6,101.7 						"/>
						<g>
							<path fill="#556063" d="M75.6,98.2l3,1.7l-3,1.7l-3-1.7L75.6,98.2 M75.6,98.2L75.6,98.2l-3,1.8l-0.1,0l0.1,0l3,1.7l0,0l0,0
								l3-1.7l0.1,0l-0.1,0L75.6,98.2L75.6,98.2L75.6,98.2z"/>
						</g>
					</g>
					<g id="XMLID_19672_" clip-path="url(#XMLID_85_)">
						<polygon fill="#CBD7D8" points="72.5,103.5 75.5,101.7 78.5,103.4 75.5,105.2 						"/>
						<g>
							<path fill="#556063" d="M75.5,101.7l3,1.7l-3,1.7l-3-1.7L75.5,101.7 M75.5,101.7L75.5,101.7l-3,1.8l-0.1,0l0.1,0l3,1.7l0,0
								l0,0l3-1.7l0.1,0l-0.1,0L75.5,101.7L75.5,101.7L75.5,101.7z"/>
						</g>
					</g>
					<g id="XMLID_19666_" clip-path="url(#XMLID_85_)">
						<polygon fill="#9EB2B7" points="69.5,105.2 72.5,103.4 75.5,105.2 72.5,107 						"/>
						<path fill="#556063" d="M72.5,103.5l3,1.7l-3,1.7l-3-1.7L72.5,103.5 M72.5,103.4L72.5,103.4l-3,1.8l-0.1,0l0.1,0l3,1.7l0,0
							l0,0l3-1.7l0.1,0l-0.1,0L72.5,103.4L72.5,103.4L72.5,103.4z"/>
					</g>
					<g id="XMLID_19660_" clip-path="url(#XMLID_85_)">
						<polygon fill="#6D513E" points="61.2,102 61.2,86.3 72.7,81.7 73.9,95.3 61.6,102.2 						"/>
						<path fill="#5B433C" d="M72.2,82.4L73.3,95l-11.6,6.6v-15L72.2,82.4 M73.1,81l-12.4,4.9v16.4l0.8,0.5l12.8-7.3L73.1,81
							L73.1,81z"/>
					</g>
					<polygon id="XMLID_19653_" opacity="5.000000e-002" clip-path="url(#XMLID_85_)" points="66.4,98 66,97.8 66,91.8 68.7,90.3 
						68.7,90.8 					"/>
					<polygon id="XMLID_19652_" opacity="0.1" clip-path="url(#XMLID_85_)" points="62.9,102.5 63.2,102.7 63.2,96.5 61.8,95.7 
						62.9,96.3 					"/>
					<g id="XMLID_19646_" clip-path="url(#XMLID_85_)">
						<polygon fill="#9EB2B7" points="71.6,107.5 72.5,106.9 75.5,108.7 74.6,109.2 						"/>
						<path fill="#556063" d="M72.5,106.9l3,1.7l-0.9,0.5l-3-1.7L72.5,106.9 M72.5,106.9L72.5,106.9l-0.9,0.5l-0.1,0l0.1,0l3,1.7
							l0,0l0,0l0.9-0.5l0.1,0l-0.1,0L72.5,106.9L72.5,106.9L72.5,106.9z"/>
					</g>
					<polygon id="XMLID_19645_" opacity="4.000000e-002" clip-path="url(#XMLID_85_)" points="73.7,107.6 75.5,108.7 74.6,109.2 
						73.3,108.5 					"/>
					<g id="XMLID_19638_" clip-path="url(#XMLID_85_)">
						<polygon fill="#CBD7D8" points="72.5,107 75.5,105.2 78.5,106.9 75.5,108.7 						"/>
						<g>
							<path fill="#556063" d="M75.5,105.2l3,1.7l-3,1.7l-3-1.7L75.5,105.2 M75.5,105.1L75.5,105.1l-3,1.8l-0.1,0l0.1,0l3,1.7l0,0
								l0,0l3-1.7l0.1,0l-0.1,0L75.5,105.1L75.5,105.1L75.5,105.1z"/>
						</g>
					</g>
					<g id="XMLID_19628_" clip-path="url(#XMLID_85_)">
						<g id="XMLID_19635_">
							<polygon fill="#D6D6D6" points="69.2,90.5 66.4,92.1 67.8,92.9 70.6,91.3 							"/>
						</g>
						<g id="XMLID_19632_">
							<polygon fill="#AFAFAF" points="70.6,97.2 67.8,98.8 67.8,92.9 70.6,91.3 							"/>
						</g>
						<g id="XMLID_19629_">
							<polygon fill="#C6C6C6" points="66.4,98 67.8,98.8 67.8,92.9 66.4,92.1 							"/>
						</g>
					</g>
					<path id="XMLID_19627_" clip-path="url(#XMLID_85_)" fill="#AFAFAF" d="M67.7,84.8v6.6h0c0,0.1,0.1,0.2,0.2,0.3
						c0.1,0,0.2,0.1,0.3,0.1v-7L67.7,84.8z"/>
					<path id="XMLID_19626_" clip-path="url(#XMLID_85_)" fill="#8C8C8C" d="M68.2,84.7v7c0.2,0,0.5-0.1,0.7-0.2
						c0.1-0.1,0.2-0.2,0.2-0.3l0,0v-6.5L68.2,84.7z"/>
					<g id="XMLID_19620_" clip-path="url(#XMLID_85_)">
						<polygon fill="#8C8C8C" points="69.4,96.3 69,96.6 68.5,96.8 68.5,97.4 69,97.2 69.4,96.9 69.9,96.7 69.9,96.1 						"/>
					</g>
				</g>
				<g id="XMLID_19615_">
					<polygon id="XMLID_19618_" fill="#AD856A" points="61.9,96.8 62.8,96.3 62.8,87.1 61.9,86.6 					"/>
					<polygon id="XMLID_19617_" fill="#E2BDA8" points="62.8,96.3 61.9,96.8 62.9,97.4 63.8,96.9 					"/>
					<polygon id="XMLID_19616_" fill="#AD856A" points="62.9,103.6 62.9,97.4 63.8,96.9 63.8,103 					"/>
				</g>
				<polygon id="XMLID_19614_" opacity="4.000000e-002" points="73.7,97.2 74.3,98.9 72.5,100 				"/>
				<polygon id="XMLID_19613_" opacity="4.000000e-002" points="70.6,98.9 72.5,100 69.5,101.7 				"/>
				<polygon id="XMLID_19612_" opacity="4.000000e-002" points="67.6,100.6 69.5,101.7 66.4,103.5 				"/>
				<polygon id="XMLID_19611_" opacity="4.000000e-002" points="73.7,100.6 74.3,100.9 74.3,102.4 72.5,103.5 				"/>
				<polygon id="XMLID_19610_" opacity="4.000000e-002" points="70.6,102.4 72.5,103.5 69.5,105.2 				"/>
				<polygon id="XMLID_19609_" opacity="4.000000e-002" points="73.7,104.1 74.2,104.5 74.2,105.9 72.5,106.9 				"/>
				<polygon id="XMLID_19608_" opacity="0.1" points="72.8,92.9 72.8,92.9 62.8,87.1 62.8,88.3 62.8,96.3 63.2,96.5 63.2,88.5 
					72.8,94.2 72.8,98.3 74,99 74,108.9 74.9,109.3 74.9,94.1 				"/>
			</g>
		</g>
		<polygon id="XMLID_19605_" fill="#D4AB90" points="61.9,86.6 60.7,85.9 60.7,102.3 62.9,103.6 62.9,97.4 61.9,96.8 		"/>
		<polygon id="XMLID_19604_" fill="#D4AB90" points="74.2,110.1 74.9,110.5 74.9,94.1 73.1,93.1 73.1,98.2 74.2,98.8 		"/>
		<line id="XMLID_19599_" fill="none" x1="68.9" y1="101.4" x2="71.4" y2="100"/>
	</g>
</g>
</svg>
