<?xml version="1.0" encoding="utf-8"?>
<!-- Generator: Adobe Illustrator 16.0.0, SVG Export Plug-In . SVG Version: 6.00 Build 0)  -->
<!DOCTYPE svg PUBLIC "-//W3C//DTD SVG 1.1//EN" "http://www.w3.org/Graphics/SVG/1.1/DTD/svg11.dtd">
<svg version="1.1" id="Layer_1" xmlns="http://www.w3.org/2000/svg" xmlns:xlink="http://www.w3.org/1999/xlink" x="0px" y="0px"
	 width="164px" height="164px" viewBox="0 0 164 164" enable-background="new 0 0 164 164" xml:space="preserve">
<g id="XMLID_16090_">
	<polyline id="XMLID_19269_" fill="none" points="89.1,102.3 89.1,102.3 74.9,94.1 74.9,110.5 74.9,110.5 	"/>
	<polyline id="XMLID_19268_" fill="none" points="74.9,110.5 89.1,118.6 89.1,102.3 	"/>
	<polygon id="XMLID_16532_" fill="#001B24" points="69.6,110.4 69.6,110.4 69.6,110.4 	"/>
	<g id="XMLID_16577_">
		<g id="XMLID_16563_">
			<path id="XMLID_16568_" fill="#001B24" d="M62.3,124.8l-0.5-0.2c0,0-0.5,0.3-1.1,0c-0.5-0.3,0-0.6,0.1-0.6h-0.9l0,0.2l-0.7-0.4
				l-0.6,0.3c-0.2,0.1-0.1,0.3,0.1,0.5l2.1,1.2c0.2,0.1,0.6,0.2,0.8,0.1l0.6-0.3l-0.4-0.2L62.3,124.8z"/>
			<path id="XMLID_16567_" fill="#001B24" d="M74.2,118.3l0.5,0.2c0,0,0.5-0.3,1.1,0s0,0.6-0.1,0.7l0.9,0l0-0.2l0.7,0.4l0.6-0.3
				c0.2-0.1,0.2-0.3-0.1-0.5l-2.1-1.2c-0.2-0.1-0.6-0.2-0.8-0.1l-0.6,0.3l0.4,0.2L74.2,118.3z"/>
			<path id="XMLID_16565_" fill="#001B24" d="M66.3,127.1l-0.5-0.2c0,0-0.5,0.3-1.1,0c-0.5-0.3,0-0.6,0.1-0.6h-0.9l0,0.2l-0.7-0.4
				l-0.6,0.3c-0.2,0.1-0.1,0.3,0.1,0.5l2.1,1.2c0.2,0.1,0.6,0.2,0.8,0.1l0.6-0.3l-0.4-0.2L66.3,127.1z"/>
		</g>
		<g id="XMLID_16208_">
			<polygon id="XMLID_16234_" fill="#3A1B24" points="77.3,119.4 76.4,118.8 63.2,126.1 65.2,127.2 65.2,127.2 64.2,126.6 			"/>
			<path id="XMLID_16560_" fill="#161B24" d="M73.4,117l0.6-0.3c0.2-0.1,0.2-0.3-0.1-0.5l-2.1-1.2c-0.2-0.1-0.6-0.2-0.8-0.1
				l-0.6,0.3l0,0l-12.6,7h0c0,0-0.5,0.3-1.1,0c-0.4-0.3-0.2-0.5,0-0.6l12.7-7l-0.7-0.4l0,0l0.7,0.4l0.6-0.3c0.2-0.1,0.2-0.3-0.1-0.5
				l-2.1-1.2c-0.2-0.1-0.6-0.2-0.8-0.1l-0.6,0.3l-12.6,7l0,0c0,0,0,0,0,0l0,0c-0.1,0.1-0.6,0.3-1,0c-0.4-0.2-0.2-0.4,0-0.6l12.7-7
				l-0.4-0.2l0.4,0.2l0.6-0.3c0.2-0.1,0.2-0.3-0.1-0.5l-2.1-1.2c-0.2-0.1-0.6-0.2-0.8-0.1l-0.6,0.3l0,0l-12.8,7.1
				c-0.2,0.1-0.5,0.1-0.9-0.1c-0.5-0.3,0-0.6,0.1-0.6h0l12.6-6.9l0.6-0.3c0.2-0.1,0.2-0.3-0.1-0.5l-2.1-1.2
				c-0.2-0.1-0.6-0.2-0.8-0.1l-0.6,0.3l-12.6,7c-0.1,0.1-0.6,0.3-1,0c-0.5-0.3,0-0.6,0.1-0.6h0l18.9-10.5l-1-0.6l-19.5,10.8
				l-0.6,0.3c-0.2,0.1-0.1,0.3,0.1,0.5l2.1,1.2c0.2,0.1,0.6,0.2,0.8,0.1l0.6-0.3l12.6-7c0.1-0.1,0.6-0.3,1,0c0.4,0.2,0.2,0.4,0,0.6
				l-12.7,7l0.7,0.4l0,0l-0.7-0.4l-0.6,0.3c-0.2,0.1-0.1,0.3,0.1,0.5l2.1,1.2c0.2,0.1,0.6,0.2,0.8,0.1l0.6-0.3l-0.4-0.2l0,0l0.4,0.2
				l12.6-7v0c0,0,0,0,0,0l0,0c0.1-0.1,0.6-0.3,1,0c0.5,0.3,0.1,0.5,0,0.6l0,0c0,0,0,0,0,0h0L51.3,119l0,0l-0.6,0.3
				c-0.2,0.1-0.1,0.3,0.1,0.5l2.1,1.2c0.2,0.1,0.6,0.2,0.8,0.1l0.6-0.3l-0.3-0.2l0.3,0.2l12.6-7c0.1-0.1,0.6-0.3,1,0
				c0.5,0.3,0.2,0.5,0,0.6l-12.6,7l0.6,0.4l-0.6-0.4l-0.6,0.3c-0.2,0.1-0.1,0.3,0.1,0.5l2.1,1.2c0.2,0.1,0.6,0.2,0.8,0.1l0.6-0.3h0
				l12.7-7c0.2-0.1,0.6-0.2,1,0c0.5,0.3,0.2,0.5,0,0.6l-0.1,0c0,0,0,0,0,0l0,0l-12.6,6.9l1,0.6L73.4,117L73.4,117z"/>
			<polygon id="XMLID_16561_" fill="#201B24" points="74.4,117.6 61.2,124.9 62.2,125.5 75.4,118.2 			"/>
			<path id="XMLID_16564_" fill="#391B24" d="M82.1,118.6l-19.5-11.4l3.4-1.9l-1-0.6l-3.8,2.1c-0.5,0.3-0.1,0.6-0.1,0.6l19.5,11.4
				l-15.4,8.5l1,0.6l15.4-8.5l0.6-0.3C82.4,118.9,82.3,118.7,82.1,118.6z"/>
		</g>
	</g>
	<g id="XMLID_16589_">
		<polyline id="XMLID_17400_" fill="none" points="89.1,102.3 89.1,102.3 74.9,94.1 74.9,110.5 74.9,110.5 		"/>
		<polyline id="XMLID_17399_" fill="none" points="74.9,110.5 89.1,118.6 89.1,102.3 		"/>
		<g id="XMLID_16590_">
			<g id="XMLID_16591_">
				<g id="XMLID_16595_">
					<g id="XMLID_16596_">
						<g id="XMLID_16822_">
							<defs>
								<polygon id="XMLID_17354_" points="74.2,110.1 74.2,98.8 73.1,98.2 73.1,93 60.7,85.9 61.9,86.6 61.9,96.8 62.9,97.4 
									62.9,103.5 								"/>
							</defs>
							<clipPath id="XMLID_43_">
								<use xlink:href="#XMLID_17354_"  overflow="visible"/>
							</clipPath>
							<g id="XMLID_17397_" clip-path="url(#XMLID_43_)">
								<polygon fill="#9EB2B7" points="69.5,98.3 72.5,96.5 74.4,97.6 74.3,99 72.5,100 								"/>
								<path fill="#556063" d="M72.5,96.5l1.9,1.1L74.2,99l-1.7,1l-3-1.7L72.5,96.5 M72.5,96.4L72.5,96.4l-3,1.8l-0.1,0l0.1,0
									l3,1.7l0,0l0,0l1.7-1l0,0l0,0l0.1-1.4l0,0l0,0L72.5,96.4L72.5,96.4L72.5,96.4z"/>
							</g>
							<g id="XMLID_17396_" clip-path="url(#XMLID_43_)">
								<polygon fill="#CBD7D8" points="66.2,96.4 69.4,94.5 72.6,96.4 69.5,98.2 								"/>
								<path fill="#556063" d="M69.4,94.5l3.2,1.9l-3.1,1.8l-3.2-1.9L69.4,94.5 M69.4,94.5L69.4,94.5l-3.2,1.8l-0.1,0l0.1,0
									l3.2,1.9l0,0l0,0l3.1-1.8l0.1,0l-0.1,0L69.4,94.5L69.4,94.5L69.4,94.5z"/>
							</g>
							<polygon id="XMLID_17395_" opacity="4.000000e-002" clip-path="url(#XMLID_43_)" points="70.6,95.2 72.6,96.4 69.5,98.2 
															"/>
							<g id="XMLID_17394_" clip-path="url(#XMLID_43_)">
								<polygon fill="#CBD7D8" points="72.7,93.6 75.7,91.8 78.8,93.5 75.7,95.3 								"/>
								<g>
									<path fill="#556063" d="M75.7,91.8l3,1.7l-3,1.7l-3-1.7L75.7,91.8 M75.7,91.7L75.7,91.7l-3,1.8l-0.1,0l0.1,0l3,1.7l0,0l0,0
										l3-1.7l0.1,0l-0.1,0L75.7,91.7L75.7,91.7L75.7,91.7z"/>
								</g>
							</g>
							<g id="XMLID_17383_" clip-path="url(#XMLID_43_)">
								<g id="XMLID_17393_">
									<polygon fill="#CBD7D8" points="66.7,93.6 69.7,91.8 72.7,93.5 69.7,95.3 									"/>
									<path fill="#556063" d="M69.7,91.8l3,1.7l-3,1.7v0l0,0l-3-1.7L69.7,91.8 M69.7,91.7L69.7,91.7l-3,1.8l-0.1,0l0.1,0l3,1.7
										v0.1l0,0l0,0l0,0l3-1.7l0.1,0l-0.1,0L69.7,91.7L69.7,91.7L69.7,91.7z"/>
								</g>
								<g id="XMLID_17392_">
									<polygon fill="#9EB2B7" points="63.6,91.8 66.7,90 69.7,91.8 66.7,93.6 									"/>
									<path fill="#556063" d="M66.7,90.1l3,1.7l-3,1.7l-3-1.7L66.7,90.1 M66.7,90L66.7,90l-3,1.8l-0.1,0l0.1,0l3,1.7l0,0l0,0
										l3-1.7l0.1,0l-0.1,0L66.7,90L66.7,90L66.7,90z"/>
								</g>
								<g id="XMLID_17391_">
									<polygon fill="#9EB2B7" points="69.7,91.8 72.7,90 75.7,91.8 72.7,93.6 									"/>
									<path fill="#556063" d="M72.7,90.1l3,1.7l-3,1.7h0l-3-1.7L72.7,90.1 M72.7,90L72.7,90l-3,1.8l-0.1,0l0.1,0l3,1.7l0,0h0h0
										l0,0l3-1.7l0.1,0l-0.1,0L72.7,90L72.7,90L72.7,90z"/>
								</g>
								<g id="XMLID_17390_">
									<polygon fill="#CBD7D8" points="66.7,90.1 69.7,88.3 72.7,90 69.7,91.8 									"/>
									<g>
										<path fill="#556063" d="M69.7,88.3l3,1.7l-3,1.7h0l-3-1.7L69.7,88.3 M69.7,88.3L69.7,88.3l-3,1.8l-0.1,0l0.1,0l3,1.7l0,0
											h0h0l0,0l3-1.7l0.1,0l-0.1,0L69.7,88.3L69.7,88.3L69.7,88.3z"/>
									</g>
								</g>
								<g id="XMLID_17389_">
									<polygon fill="#9EB2B7" points="63.6,88.3 66.7,86.6 69.7,88.3 66.7,90.1 									"/>
									<path fill="#556063" d="M66.7,86.6l3,1.7l-3,1.7l-3-1.7L66.7,86.6 M66.7,86.5L66.7,86.5l-3,1.8l-0.1,0l0.1,0l3,1.7l0,0l0,0
										l3-1.7l0.1,0l-0.1,0L66.7,86.5L66.7,86.5L66.7,86.5z"/>
								</g>
								<polygon id="XMLID_17388_" opacity="4.000000e-002" points="70.9,92.4 72.7,93.5 69.7,95.3 								"/>
								<polygon id="XMLID_17387_" opacity="8.000000e-002" points="73.9,90.7 75.7,91.8 72.7,93.5 								"/>
								<polygon id="XMLID_17386_" opacity="8.000000e-002" points="70.9,89 72.7,90.1 69.7,91.8 								"/>
								<polygon id="XMLID_17385_" opacity="4.000000e-002" points="67.9,90.7 69.7,91.8 66.7,93.5 								"/>
								<polygon id="XMLID_17384_" opacity="4.000000e-002" points="67.9,87.2 69.7,88.3 66.7,90.1 								"/>
							</g>
							<g id="XMLID_17356_" clip-path="url(#XMLID_43_)">
								<g id="XMLID_17382_">
									<polygon fill="#CBD7D8" points="60.6,97.1 63.6,95.3 66.6,97 63.6,98.8 									"/>
									<path fill="#556063" d="M63.6,95.3l3,1.7l-3,1.7l-3-1.7L63.6,95.3 M63.6,95.2L63.6,95.2l-3,1.8l-0.1,0l0.1,0l3,1.7l0,0l0,0
										l3-1.7l0.1,0l-0.1,0L63.6,95.2L63.6,95.2L63.6,95.2z"/>
								</g>
								<g id="XMLID_17381_">
									<polygon fill="#CBD7D8" points="60.6,93.6 63.6,91.8 66.6,93.5 63.6,95.3 									"/>
									<path fill="#556063" d="M63.6,91.8l3,1.7l-3,1.7l-3-1.7L63.6,91.8 M63.6,91.8L63.6,91.8l-3,1.8l-0.1,0l0.1,0l3,1.7l0,0l0,0
										l3-1.7l0.1,0l-0.1,0L63.6,91.8L63.6,91.8L63.6,91.8z"/>
								</g>
								<g id="XMLID_17380_">
									<polygon fill="#9EB2B7" points="57.5,91.8 60.6,90.1 63.6,91.8 60.6,93.6 									"/>
									<path fill="#556063" d="M60.6,90.1l3,1.7l-3,1.7l-3-1.7L60.6,90.1 M60.6,90L60.6,90l-3,1.8l-0.1,0l0.1,0l3,1.7l0,0l0,0
										l3-1.7l0.1,0l-0.1,0L60.6,90L60.6,90L60.6,90z"/>
								</g>
								<g id="XMLID_17379_">
									<polygon fill="#CBD7D8" points="60.6,90.1 63.6,88.3 66.7,90 63.7,91.8 									"/>
									<path fill="#556063" d="M63.7,88.3l3,1.7l-3,1.7l-3-1.7L63.7,88.3 M63.7,88.3L63.7,88.3l-3,1.8l-0.1,0l0.1,0l3,1.7l0,0l0,0
										l3-1.7l0.1,0l-0.1,0L63.7,88.3L63.7,88.3L63.7,88.3z"/>
								</g>
								<g id="XMLID_17378_">
									<polygon fill="#9EB2B7" points="57.6,88.3 60.6,86.6 63.7,88.3 60.6,90.1 									"/>
									<path fill="#556063" d="M60.6,86.6l3,1.7l-3,1.7l-3-1.7L60.6,86.6 M60.6,86.5L60.6,86.5l-3,1.8l-0.1,0l0.1,0l3,1.7l0,0l0,0
										l3-1.7l0.1,0l-0.1,0L60.6,86.5L60.6,86.5L60.6,86.5z"/>
								</g>
								<g id="XMLID_17377_">
									<polygon fill="#CBD7D8" points="60.6,86.6 63.6,84.8 66.7,86.6 63.7,88.3 									"/>
									<g>
										<path fill="#556063" d="M63.7,84.8l3,1.7l-3,1.7l-3-1.7L63.7,84.8 M63.7,84.8L63.7,84.8l-3,1.8l-0.1,0l0.1,0l3,1.7l0,0
											l0,0l3-1.7l0.1,0l-0.1,0L63.7,84.8L63.7,84.8L63.7,84.8z"/>
									</g>
								</g>
								<g id="XMLID_17371_">
									<polygon fill="#9EB2B7" points="57.5,98.8 60.5,97 63.6,98.8 60.5,100.6 									"/>
									<path fill="#556063" d="M60.5,97.1l3,1.7l-3,1.7l-3-1.7L60.5,97.1 M60.5,97L60.5,97l-3,1.8l-0.1,0l0.1,0l3,1.7l0,0l0,0
										l3-1.7l0.1,0l-0.1,0L60.5,97L60.5,97L60.5,97z"/>
								</g>
								<g id="XMLID_17365_">
									<polygon fill="#9EB2B7" points="57.5,95.3 60.6,93.5 63.6,95.3 60.6,97.1 									"/>
									<path fill="#556063" d="M60.6,93.6l3,1.7l-3,1.7l-3-1.7L60.6,93.6 M60.6,93.5L60.6,93.5l-3,1.8l-0.1,0l0.1,0l3,1.7l0,0l0,0
										l3-1.7l0.1,0l-0.1,0L60.6,93.5L60.6,93.5L60.6,93.5z"/>
								</g>
								<polygon id="XMLID_17364_" opacity="4.000000e-002" points="64.8,95.9 66.6,97 63.6,98.8 								"/>
								<polygon id="XMLID_17363_" opacity="4.000000e-002" points="64.8,92.5 66.6,93.6 63.6,95.3 								"/>
								<polygon id="XMLID_17362_" opacity="4.000000e-002" points="64.8,89 66.6,90.1 63.6,91.8 								"/>
								<polygon id="XMLID_17361_" opacity="8.000000e-002" points="64.8,85.5 66.6,86.6 63.6,88.3 								"/>
								<polygon id="XMLID_17360_" opacity="8.000000e-002" points="61.8,97.7 63.6,98.8 60.6,100.5 								"/>
								<polygon id="XMLID_17359_" opacity="4.000000e-002" points="61.8,94.2 63.6,95.3 60.6,97 								"/>
								<polygon id="XMLID_17358_" opacity="4.000000e-002" points="61.8,90.7 63.6,91.8 60.6,93.6 								"/>
								<polygon id="XMLID_17357_" opacity="8.000000e-002" points="61.8,87.2 63.6,88.3 60.6,90.1 								"/>
							</g>
							<polygon id="XMLID_17355_" clip-path="url(#XMLID_43_)" fill="#968677" points="63.8,103 62.9,103.5 75.4,110.8 75.4,109.7 
															"/>
							<g id="XMLID_17150_" clip-path="url(#XMLID_43_)">
								<g id="XMLID_17348_">
									<polygon fill="#556063" points="63.2,101.7 69.5,98.2 69.5,98.2 63.2,101.8 									"/>
									<path fill="#556063" d="M69.4,98.2L69.4,98.2l-6.2,3.6v0L69.4,98.2 M69.5,98.1l-6.3,3.6v0.1l6.3-3.6V98.1L69.5,98.1z"/>
								</g>
								<g id="XMLID_17167_">
									<polygon fill="#CBD7D8" points="62.5,102.2 63.4,101.7 66.5,103.4 65.6,104 									"/>
									<g>
										<path fill="#556063" d="M63.4,101.7l3,1.7l-0.9,0.5l-3-1.7L63.4,101.7 M63.4,101.7L63.4,101.7l-0.9,0.5l-0.1,0l0.1,0
											l3,1.7l0,0l0,0l0.9-0.5l0.1,0l-0.1,0L63.4,101.7L63.4,101.7L63.4,101.7z"/>
									</g>
								</g>
								<g id="XMLID_17161_">
									<polygon fill="#9EB2B7" points="65.5,104 66.4,103.4 69.5,105.2 68.6,105.7 									"/>
									<path fill="#556063" d="M66.4,103.5l3,1.7l-0.9,0.5l-3-1.7L66.4,103.5 M66.4,103.4L66.4,103.4l-0.9,0.5l-0.1,0l0.1,0l3,1.7
										l0,0l0,0l0.9-0.5l0.1,0l-0.1,0L66.4,103.4L66.4,103.4L66.4,103.4z"/>
								</g>
								<g id="XMLID_17154_">
									<polygon fill="#CBD7D8" points="68.6,105.7 69.5,105.2 72.5,106.9 71.6,107.5 									"/>
									<g>
										<path fill="#556063" d="M69.5,105.2l3,1.7l-0.9,0.5l-3-1.7L69.5,105.2 M69.5,105.1L69.5,105.1l-0.9,0.5l-0.1,0l0.1,0
											l3,1.7l0,0l0,0l0.9-0.5l0.1,0l-0.1,0L69.5,105.1L69.5,105.1L69.5,105.1z"/>
									</g>
								</g>
								<polygon id="XMLID_17153_" opacity="4.000000e-002" points="64.6,102.4 66.4,103.5 65.5,104 64.3,103.2 								"/>
								<polygon id="XMLID_17152_" opacity="4.000000e-002" points="67.6,104.2 69.5,105.2 68.6,105.7 67.3,105 								"/>
								<polygon id="XMLID_17151_" opacity="4.000000e-002" points="70.6,105.8 72.5,106.9 69.5,108.7 								"/>
							</g>
							<g id="XMLID_17144_" clip-path="url(#XMLID_43_)">
								<polygon fill="#CBD7D8" points="59.9,100 63,98.2 66.2,100 63,101.8 								"/>
								<path fill="#556063" d="M63,98.2l3.1,1.8l-3.1,1.8l-3.1-1.8L63,98.2 M63,98.1L63,98.1l-3.2,1.8l-0.1,0l0.1,0l3.1,1.8l0,0
									l0,0l3.1-1.8l0.1,0l-0.1,0L63,98.1L63,98.1L63,98.1z"/>
							</g>
							<polygon id="XMLID_17143_" opacity="4.000000e-002" clip-path="url(#XMLID_43_)" points="64.3,98.9 66.2,100 63,101.8 
															"/>
							<g id="XMLID_17137_" clip-path="url(#XMLID_43_)">
								<polygon fill="#9EB2B7" points="69.5,94.6 72.6,92.7 75.8,94.6 72.7,96.4 								"/>
								<path fill="#556063" d="M72.7,92.8l3.1,1.8l-3.1,1.8l-3.1-1.8L72.7,92.8 M72.7,92.7L72.7,92.7l-3.2,1.8l-0.1,0l0.1,0
									l3.1,1.8l0,0l0,0l3.1-1.8l0.1,0l-0.1,0L72.7,92.7L72.7,92.7L72.7,92.7z"/>
							</g>
							<polygon id="XMLID_17136_" opacity="8.000000e-002" clip-path="url(#XMLID_43_)" points="73.9,93.4 75.8,94.6 72.7,96.4 
															"/>
							<g id="XMLID_17130_" clip-path="url(#XMLID_43_)">
								<polygon fill="#9EB2B7" points="63,98.2 66.2,96.4 69.3,98.2 66.2,100 								"/>
								<path fill="#556063" d="M66.2,96.4l3.1,1.8l-3.1,1.8l-3.1-1.8L66.2,96.4 M66.2,96.3L66.2,96.3L63,98.1l-0.1,0l0.1,0l3.1,1.8
									l0,0l0,0l3.1-1.8l0.1,0l-0.1,0L66.2,96.3L66.2,96.3L66.2,96.3z"/>
							</g>
							<polygon id="XMLID_17129_" opacity="8.000000e-002" clip-path="url(#XMLID_43_)" points="67.4,97.1 69.3,98.2 66.2,100 
															"/>
							<g id="XMLID_17123_" clip-path="url(#XMLID_43_)">
								<polygon fill="#9EB2B7" points="63.6,95.3 66.6,93.5 69.7,95.3 66.6,97.1 								"/>
								<path fill="#556063" d="M66.6,93.6l3,1.7l-3,1.7h0l-3-1.7L66.6,93.6 M66.6,93.5L66.6,93.5l-3,1.8l-0.1,0l0.1,0l3,1.7l0,0h0
									h0l0,0l3-1.7l0.1,0l-0.1,0L66.6,93.5L66.6,93.5L66.6,93.5z"/>
							</g>
							<polygon id="XMLID_17122_" opacity="4.000000e-002" clip-path="url(#XMLID_43_)" points="67.8,94.2 69.6,95.3 66.6,97 
															"/>
							<g id="XMLID_17120_" clip-path="url(#XMLID_43_)">
								<polygon id="XMLID_17121_" opacity="0.1" points="62.7,96.2 62.1,95.9 62.1,95.9 								"/>
							</g>
							<g id="XMLID_17114_" clip-path="url(#XMLID_43_)">
								<polygon fill="#9EB2B7" points="54.5,97.1 57.5,95.3 60.5,97 57.5,98.8 								"/>
								<path fill="#556063" d="M57.5,95.3l3,1.7l-3,1.7l-3-1.7L57.5,95.3 M57.5,95.3L57.5,95.3l-3,1.8l-0.1,0l0.1,0l3,1.7l0,0l0,0
									l3-1.7l0.1,0l-0.1,0L57.5,95.3L57.5,95.3L57.5,95.3z"/>
							</g>
							<g id="XMLID_17096_" clip-path="url(#XMLID_43_)">
								<polygon fill="#9EB2B7" points="51.4,95.3 54.5,93.6 57.5,95.3 54.5,97.1 								"/>
								<path fill="#556063" d="M54.5,93.6l3,1.7l-3,1.7l-3-1.7L54.5,93.6 M54.5,93.5L54.5,93.5l-3,1.8l-0.1,0l0.1,0l3,1.7l0,0l0,0
									l3-1.7l0.1,0l-0.1,0L54.5,93.5L54.5,93.5L54.5,93.5z"/>
							</g>
							<g id="XMLID_17089_" clip-path="url(#XMLID_43_)">
								<polygon fill="#9EB2B7" points="54.5,93.6 57.5,91.8 60.6,93.5 57.6,95.3 								"/>
								<path fill="#556063" d="M57.6,91.8l3,1.7l-3,1.7l-3-1.7L57.6,91.8 M57.6,91.8L57.6,91.8l-3,1.8l-0.1,0l0.1,0l3,1.7l0,0l0,0
									l3-1.7l0.1,0l-0.1,0L57.6,91.8L57.6,91.8L57.6,91.8z"/>
							</g>
							<g id="XMLID_16979_" clip-path="url(#XMLID_43_)">
								<polygon fill="#CBD7D8" points="66.4,100 69.5,98.2 72.5,100 69.5,101.7 								"/>
								<g>
									<path fill="#556063" d="M69.5,98.2l3,1.7l-3,1.7l-3-1.7L69.5,98.2 M69.5,98.2L69.5,98.2l-3,1.8l-0.1,0l0.1,0l3,1.7l0,0l0,0
										l3-1.7l0.1,0l-0.1,0L69.5,98.2L69.5,98.2L69.5,98.2z"/>
								</g>
							</g>
							<g id="XMLID_16972_" clip-path="url(#XMLID_43_)">
								<polygon fill="#9EB2B7" points="63.4,101.7 66.4,100 69.5,101.7 66.4,103.5 								"/>
								<path fill="#556063" d="M66.4,100l3,1.7l-3,1.7l-3-1.7L66.4,100 M66.4,99.9L66.4,99.9l-3,1.8l-0.1,0l0.1,0l3,1.7l0,0l0,0
									l3-1.7l0.1,0l-0.1,0L66.4,99.9L66.4,99.9L66.4,99.9z"/>
							</g>
							<g id="XMLID_16965_" clip-path="url(#XMLID_43_)">
								<polygon fill="#9EB2B7" points="69.5,101.7 72.5,100 75.5,101.7 72.5,103.5 								"/>
								<path fill="#556063" d="M72.5,100l3,1.7l-3,1.7l-3-1.7L72.5,100 M72.5,99.9L72.5,99.9l-3,1.8l-0.1,0l0.1,0l3,1.7l0,0l0,0
									l3-1.7l0.1,0l-0.1,0L72.5,99.9L72.5,99.9L72.5,99.9z"/>
							</g>
							<g id="XMLID_16951_" clip-path="url(#XMLID_43_)">
								<polygon fill="#CBD7D8" points="66.4,103.5 69.5,101.7 72.5,103.4 69.5,105.2 								"/>
								<g>
									<path fill="#556063" d="M69.5,101.7l3,1.7l-3,1.7l-3-1.7L69.5,101.7 M69.5,101.7L69.5,101.7l-3,1.8l-0.1,0l0.1,0l3,1.7l0,0
										l0,0l3-1.7l0.1,0l-0.1,0L69.5,101.7L69.5,101.7L69.5,101.7z"/>
								</g>
							</g>
							<g id="XMLID_16942_" clip-path="url(#XMLID_43_)">
								<polygon fill="#CBD7D8" points="72.5,100 75.5,98.2 78.6,99.9 75.6,101.7 								"/>
								<g>
									<path fill="#556063" d="M75.6,98.2l3,1.7l-3,1.7l-3-1.7L75.6,98.2 M75.6,98.2L75.6,98.2l-3,1.8l-0.1,0l0.1,0l3,1.7l0,0l0,0
										l3-1.7l0.1,0l-0.1,0L75.6,98.2L75.6,98.2L75.6,98.2z"/>
								</g>
							</g>
							<g id="XMLID_16933_" clip-path="url(#XMLID_43_)">
								<polygon fill="#CBD7D8" points="72.5,103.5 75.5,101.7 78.5,103.4 75.5,105.2 								"/>
								<g>
									<path fill="#556063" d="M75.5,101.7l3,1.7l-3,1.7l-3-1.7L75.5,101.7 M75.5,101.7L75.5,101.7l-3,1.8l-0.1,0l0.1,0l3,1.7l0,0
										l0,0l3-1.7l0.1,0l-0.1,0L75.5,101.7L75.5,101.7L75.5,101.7z"/>
								</g>
							</g>
							<g id="XMLID_16926_" clip-path="url(#XMLID_43_)">
								<polygon fill="#9EB2B7" points="69.5,105.2 72.5,103.4 75.5,105.2 72.5,107 								"/>
								<path fill="#556063" d="M72.5,103.5l3,1.7l-3,1.7l-3-1.7L72.5,103.5 M72.5,103.4L72.5,103.4l-3,1.8l-0.1,0l0.1,0l3,1.7l0,0
									l0,0l3-1.7l0.1,0l-0.1,0L72.5,103.4L72.5,103.4L72.5,103.4z"/>
							</g>
							<g id="XMLID_16918_" clip-path="url(#XMLID_43_)">
								<polygon fill="#6D513E" points="61.2,102 61.2,86.3 72.7,81.7 73.9,95.3 61.6,102.2 								"/>
								<path fill="#5B433C" d="M72.2,82.4L73.3,95l-11.6,6.6v-15L72.2,82.4 M73.1,81l-12.4,4.9v16.4l0.8,0.5l12.8-7.3L73.1,81
									L73.1,81z"/>
							</g>
							<polygon id="XMLID_16916_" opacity="5.000000e-002" clip-path="url(#XMLID_43_)" points="66.4,99.4 66,99.1 66,94.1 
								68.7,92.6 68.7,93 							"/>
							<polygon id="XMLID_16915_" opacity="0.1" clip-path="url(#XMLID_43_)" points="62.9,102.5 63.2,102.7 63.2,96.5 61.8,95.7 
								62.9,96.3 							"/>
							<g id="XMLID_16908_" clip-path="url(#XMLID_43_)">
								<polygon fill="#9EB2B7" points="71.6,107.4 72.5,106.9 75.5,108.6 74.6,109.2 								"/>
								<path fill="#556063" d="M72.5,106.9l3,1.7l-0.9,0.5l-3-1.7L72.5,106.9 M72.5,106.9L72.5,106.9l-0.9,0.5l-0.1,0l0.1,0l3,1.7
									l0,0l0,0l0.9-0.5l0.1,0l-0.1,0L72.5,106.9L72.5,106.9L72.5,106.9z"/>
							</g>
							<polygon id="XMLID_16907_" opacity="4.000000e-002" clip-path="url(#XMLID_43_)" points="73.7,107.6 75.5,108.7 74.6,109.2 
								73.3,108.5 							"/>
							<g id="XMLID_16847_" clip-path="url(#XMLID_43_)">
								<polygon fill="#CBD7D8" points="72.5,107 75.5,105.2 78.5,106.9 75.5,108.7 								"/>
								<g>
									<path fill="#556063" d="M75.5,105.2l3,1.7l-3,1.7l-3-1.7L75.5,105.2 M75.5,105.1L75.5,105.1l-3,1.8l-0.1,0l0.1,0l3,1.7l0,0
										l0,0l3-1.7l0.1,0l-0.1,0L75.5,105.1L75.5,105.1L75.5,105.1z"/>
								</g>
							</g>
							<g id="XMLID_16202_" clip-path="url(#XMLID_43_)">
								<path id="XMLID_16207_" fill="#C6C6C6" d="M69.6,92.2L69.6,92.2l0,6.1h0c0.1,0.3,0.2,0.4,0.4,0.6c0.2,0.1,0.4,0.2,0.6,0.2
									v-7.5c-0.2,0-0.4,0-0.6,0.1C69.8,91.7,69.6,92,69.6,92.2z"/>
								<path id="XMLID_16206_" fill="#AFAFAF" d="M70.6,91.5V99c0.4,0.1,0.8,0,1.2-0.1v-7.1C71.5,91.6,71,91.5,70.6,91.5z"/>
								<path id="XMLID_16205_" fill="#AFAFAF" d="M72.3,92.5c0-0.2,0-0.3-0.1-0.5c0-0.1-0.4-0.2-0.5-0.2v7.1c0.1,0,0.1-0.1,0.2-0.1
									c0.2-0.2,0.3-0.4,0.3-0.6V92.5z"/>
								<path id="XMLID_16204_" opacity="0.2" d="M72.3,92.5c0-0.2,0-0.3-0.1-0.5c0-0.1-0.4-0.2-0.5-0.2v7.1c0.1,0,0.1-0.1,0.2-0.1
									c0.2-0.2,0.3-0.4,0.3-0.6V92.5z"/>
								<path id="XMLID_16203_" fill="#C6C6C6" d="M70.9,92.6c1,0,1.4-0.3,1.4-0.6c-0.2-0.4-0.8-0.6-1.5-0.6c-0.7,0-1.1,0.3-1.2,0.6
									C69.7,92.4,70,92.6,70.9,92.6z"/>
							</g>
							<g id="XMLID_16201_" clip-path="url(#XMLID_43_)">
								<g id="XMLID_16834_">
									<g id="XMLID_16844_">
										<polygon fill="#D6D6D6" points="69.2,92.8 66.4,94.4 67.8,95.2 70.6,93.6 										"/>
									</g>
									<g id="XMLID_16840_">
										<polygon fill="#AFAFAF" points="70.6,99.2 67.8,100.8 67.8,95.2 70.6,93.6 										"/>
									</g>
									<g id="XMLID_16836_">
										<polygon fill="#C6C6C6" points="66.4,100 67.8,100.8 67.8,95.2 66.4,94.4 										"/>
									</g>
								</g>
								<g id="XMLID_16823_" opacity="0.2">
									<polygon points="69.4,98.3 68.9,98.6 68.4,98.9 68.4,99.5 68.9,99.2 69.4,98.9 69.9,98.6 69.9,98 									"/>
								</g>
							</g>
						</g>
						<g id="XMLID_16818_">
							<polygon id="XMLID_16821_" fill="#AD856A" points="61.9,96.8 62.8,96.3 62.8,87.1 61.9,86.6 							"/>
							<polygon id="XMLID_16820_" fill="#E2BDA8" points="62.8,96.3 61.9,96.8 62.9,97.4 63.8,96.9 							"/>
							<polygon id="XMLID_16819_" fill="#AD856A" points="62.9,103.5 62.9,97.4 63.8,96.9 63.8,103 							"/>
						</g>
						<polygon id="XMLID_16817_" opacity="4.000000e-002" points="73.7,97.1 74.3,98.9 72.5,100 						"/>
						<polygon id="XMLID_16816_" opacity="4.000000e-002" points="70.6,98.9 72.5,100 69.5,101.7 						"/>
						<polygon id="XMLID_16815_" opacity="4.000000e-002" points="67.6,100.6 69.5,101.7 66.4,103.5 						"/>
						<polygon id="XMLID_16814_" opacity="4.000000e-002" points="73.7,100.6 74.3,100.9 74.3,102.4 72.5,103.5 						"/>
						<polygon id="XMLID_16813_" opacity="4.000000e-002" points="70.6,102.4 72.5,103.5 69.5,105.2 						"/>
						<polygon id="XMLID_16812_" opacity="4.000000e-002" points="73.7,104.1 74.2,104.5 74.2,105.9 72.5,106.9 						"/>
						<polygon id="XMLID_16811_" opacity="0.1" points="72.8,92.9 72.8,92.9 62.8,87.1 62.8,88.3 62.8,96.3 63.2,96.5 63.2,88.5 
							72.8,94.2 72.8,98.3 74,99 74,108.9 74.9,109.3 74.9,94.1 						"/>
					</g>
				</g>
				<polygon id="XMLID_16594_" fill="#D4AB90" points="61.9,86.6 60.7,85.9 60.7,102.3 62.9,103.5 62.9,97.4 61.9,96.8 				"/>
				<polygon id="XMLID_16593_" fill="#D4AB90" points="74.2,110.1 74.9,110.5 74.9,94.1 73.1,93 73.1,98.2 74.2,98.8 				"/>
				<line id="XMLID_16592_" fill="none" x1="68.9" y1="101.4" x2="71.4" y2="100"/>
			</g>
		</g>
	</g>
	<g id="XMLID_16196_">
		<path id="XMLID_16200_" fill="#383838" d="M71.4,97.6c0,0.3,0.2,0.5,0.4,0.4s0.4-0.4,0.4-0.8c0-0.3-0.2-0.5-0.4-0.4
			S71.4,97.3,71.4,97.6z"/>
		<g id="XMLID_16197_">
			<path id="XMLID_16199_" fill="#383838" d="M71.7,95.4c0,0.1,0.1,0.2,0.2,0.2c0.1,0,0.2-0.2,0.2-0.3c0-0.1-0.1-0.2-0.2-0.2
				C71.7,95.1,71.7,95.2,71.7,95.4z"/>
			<path id="XMLID_16198_" fill="#AFAFAF" d="M71.8,95.3C71.8,95.4,71.8,95.4,71.8,95.3c0.1,0.1,0.2,0,0.2-0.1c0-0.1,0-0.1-0.1-0.1
				C71.8,95.2,71.8,95.3,71.8,95.3z"/>
		</g>
	</g>
	<polygon id="XMLID_16195_" fill="#383838" points="68.4,93.3 67.9,93 67,93.6 67.5,93.8 	"/>
	<polygon id="XMLID_16194_" fill="#212121" points="68.4,93.3 67,94.1 67,93.6 67.5,93.8 	"/>
	<polygon id="XMLID_16830_" fill="#383838" points="70.2,91.5 70.1,91.4 69.8,91.6 69.9,91.7 	"/>
	<polygon id="XMLID_16091_" fill="#212121" points="70.2,91.5 69.8,91.8 69.8,91.6 69.9,91.7 	"/>
</g>
</svg>
