<?xml version="1.0" encoding="utf-8"?>
<!-- Generator: Adobe Illustrator 16.0.0, SVG Export Plug-In . SVG Version: 6.00 Build 0)  -->
<!DOCTYPE svg PUBLIC "-//W3C//DTD SVG 1.1//EN" "http://www.w3.org/Graphics/SVG/1.1/DTD/svg11.dtd">
<svg version="1.1" id="Layer_1" xmlns="http://www.w3.org/2000/svg" xmlns:xlink="http://www.w3.org/1999/xlink" x="0px" y="0px"
	 width="164px" height="164px" viewBox="0 0 164 164" enable-background="new 0 0 164 164" xml:space="preserve">
<polyline id="XMLID_15579_" fill="none" points="89.1,102.3 89.1,102.3 74.9,94.1 74.9,110.5 74.9,110.5 "/>
<polyline id="XMLID_15578_" fill="none" points="74.9,110.5 89.1,118.6 89.1,102.3 "/>
<g id="XMLID_15506_">
	<g id="XMLID_15509_">
		<g id="XMLID_15524_">
			<g id="XMLID_15531_">
				<defs>
					<polygon id="XMLID_16300_" points="74.3,110.1 74.3,98.8 73.1,98.2 73.1,93 60.7,85.9 61.9,86.6 61.9,96.8 62.9,97.4 
						62.9,103.5 					"/>
				</defs>
				<clipPath id="XMLID_39_">
					<use xlink:href="#XMLID_16300_"  overflow="visible"/>
				</clipPath>
				<g id="XMLID_15577_" clip-path="url(#XMLID_39_)">
					<polygon fill="#CBD7D8" points="66.2,96.4 69.4,94.5 72.6,96.4 69.5,98.2 					"/>
					<path fill="#556063" d="M69.4,94.5l3.2,1.9l-3.1,1.8l-3.2-1.9L69.4,94.5 M69.4,94.5L69.4,94.5l-3.2,1.8l-0.1,0l0.1,0l3.2,1.9
						l0,0l0,0l3.1-1.8l0.1,0l-0.1,0L69.4,94.5L69.4,94.5L69.4,94.5z"/>
				</g>
				<polygon id="XMLID_15576_" opacity="4.000000e-002" clip-path="url(#XMLID_39_)" points="70.6,95.2 72.6,96.4 69.5,98.2 				"/>
				<g id="XMLID_15575_" clip-path="url(#XMLID_39_)">
					<polygon fill="#CBD7D8" points="72.7,93.5 75.7,91.8 78.8,93.5 75.8,95.3 					"/>
					<g>
						<path fill="#556063" d="M75.8,91.8l3,1.7l-3,1.7l-3-1.7L75.8,91.8 M75.8,91.7L75.8,91.7l-3,1.8l-0.1,0l0.1,0l3,1.7l0,0l0,0
							l3-1.7l0.1,0l-0.1,0L75.8,91.7L75.8,91.7L75.8,91.7z"/>
					</g>
				</g>
				<g id="XMLID_15564_" clip-path="url(#XMLID_39_)">
					<g id="XMLID_15574_">
						<polygon fill="#CBD7D8" points="66.7,93.5 69.7,91.8 72.7,93.5 69.7,95.3 						"/>
						<path fill="#556063" d="M69.7,91.8l3,1.7l-3,1.7l-3-1.7L69.7,91.8 M69.7,91.7L69.7,91.7l-3,1.8l-0.1,0l0.1,0l3,1.7l0,0l0,0
							l3-1.7l0.1,0l-0.1,0L69.7,91.7L69.7,91.7L69.7,91.7z"/>
					</g>
					<g id="XMLID_15573_">
						<polygon fill="#9EB2B7" points="63.7,91.8 66.7,90 69.7,91.8 66.7,93.5 						"/>
						<path fill="#556063" d="M66.7,90l3,1.7l-3,1.7l-3-1.7L66.7,90 M66.7,90L66.7,90l-3,1.8l-0.1,0l0.1,0l3,1.7l0,0l0,0l3-1.7
							l0.1,0l-0.1,0L66.7,90L66.7,90L66.7,90z"/>
					</g>
					<g id="XMLID_15572_">
						<polygon fill="#9EB2B7" points="69.7,91.8 72.7,90 75.8,91.8 72.7,93.5 						"/>
						<path fill="#556063" d="M72.7,90l3,1.7l-3,1.7l-3-1.7L72.7,90 M72.7,90L72.7,90l-3,1.8l-0.1,0l0.1,0l3,1.7l0,0l0,0l3-1.7
							l0.1,0l-0.1,0L72.7,90L72.7,90L72.7,90z"/>
					</g>
					<g id="XMLID_15571_">
						<polygon fill="#CBD7D8" points="66.7,90.1 69.7,88.3 72.7,90 69.7,91.8 						"/>
						<g>
							<path fill="#556063" d="M69.7,88.3l3,1.7l-3,1.7l-3-1.7L69.7,88.3 M69.7,88.2L69.7,88.2l-3,1.8l-0.1,0l0.1,0l3,1.7l0,0l0,0
								l3-1.7l0.1,0l-0.1,0L69.7,88.2L69.7,88.2L69.7,88.2z"/>
						</g>
					</g>
					<g id="XMLID_15570_">
						<polygon fill="#9EB2B7" points="63.7,88.3 66.7,86.5 69.7,88.3 66.7,90.1 						"/>
						<path fill="#556063" d="M66.7,86.6l3,1.7l-3,1.7l-3-1.7L66.7,86.6 M66.7,86.5L66.7,86.5l-3,1.8l-0.1,0l0.1,0l3,1.7l0,0l0,0
							l3-1.7l0.1,0l-0.1,0L66.7,86.5L66.7,86.5L66.7,86.5z"/>
					</g>
					<polygon id="XMLID_15569_" opacity="4.000000e-002" points="70.9,92.4 72.7,93.5 69.7,95.3 					"/>
					<polygon id="XMLID_15568_" opacity="8.000000e-002" points="73.9,90.7 75.8,91.8 72.7,93.5 					"/>
					<polygon id="XMLID_15567_" opacity="8.000000e-002" points="70.9,89 72.7,90 69.7,91.8 					"/>
					<polygon id="XMLID_15566_" opacity="4.000000e-002" points="67.9,90.7 69.7,91.8 66.7,93.5 					"/>
					<polygon id="XMLID_15565_" opacity="4.000000e-002" points="67.9,87.2 69.7,88.3 66.7,90 					"/>
				</g>
				<g id="XMLID_16302_" clip-path="url(#XMLID_39_)">
					<g id="XMLID_16354_">
						<polygon fill="#CBD7D8" points="60.6,97 63.6,95.3 66.6,97 63.6,98.8 						"/>
						<path fill="#556063" d="M63.6,95.3l3,1.7l-3,1.7h0l-3-1.7L63.6,95.3 M63.6,95.2L63.6,95.2l-3,1.8l-0.1,0l0.1,0l3,1.7l0,0h0h0
							l0,0l3-1.7l0.1,0l-0.1,0L63.6,95.2L63.6,95.2L63.6,95.2z"/>
					</g>
					<g id="XMLID_16348_">
						<polygon fill="#CBD7D8" points="60.6,93.6 63.6,91.8 66.6,93.5 63.6,95.3 						"/>
						<path fill="#556063" d="M63.6,91.8l3,1.7l-3,1.7l-3-1.7L63.6,91.8 M63.6,91.7L63.6,91.7l-3,1.8l-0.1,0l0.1,0l3,1.7l0,0l0,0
							l3-1.7l0.1,0l-0.1,0L63.6,91.7L63.6,91.7L63.6,91.7z"/>
					</g>
					<g id="XMLID_16342_">
						<polygon fill="#9EB2B7" points="57.6,91.8 60.6,90 63.6,91.8 60.6,93.6 						"/>
						<path fill="#556063" d="M60.6,90.1l3,1.7l-3,1.7l-3-1.7L60.6,90.1 M60.6,90L60.6,90l-3,1.8l-0.1,0l0.1,0l3,1.7l0,0l0,0l3-1.7
							l0.1,0l-0.1,0L60.6,90L60.6,90L60.6,90z"/>
					</g>
					<g id="XMLID_15563_">
						<polygon fill="#CBD7D8" points="60.6,90.1 63.7,88.3 66.7,90 63.7,91.8 						"/>
						<path fill="#556063" d="M63.7,88.3l3,1.7l-3,1.7l-3-1.7L63.7,88.3 M63.7,88.2L63.7,88.2l-3,1.8l-0.1,0l0.1,0l3,1.7l0,0l0,0
							l3-1.7l0.1,0l-0.1,0L63.7,88.2L63.7,88.2L63.7,88.2z"/>
					</g>
					<g id="XMLID_16330_">
						<polygon fill="#9EB2B7" points="57.6,88.3 60.6,86.5 63.7,88.3 60.6,90.1 						"/>
						<path fill="#556063" d="M60.6,86.6l3,1.7l-3,1.7l-3-1.7L60.6,86.6 M60.6,86.5L60.6,86.5l-3,1.8l-0.1,0l0.1,0l3,1.7l0,0l0,0
							l3-1.7l0.1,0l-0.1,0L60.6,86.5L60.6,86.5L60.6,86.5z"/>
					</g>
					<g id="XMLID_16323_">
						<polygon fill="#CBD7D8" points="60.6,86.6 63.7,84.8 66.7,86.5 63.7,88.3 						"/>
						<g>
							<path fill="#556063" d="M63.7,84.8l3,1.7l-3,1.7v0v0l-3-1.7L63.7,84.8 M63.7,84.8L63.7,84.8l-3,1.8l-0.1,0l0.1,0l3,1.7v0.1
								l0,0l0.1,0v-0.1l3-1.7l0.1,0l-0.1,0L63.7,84.8L63.7,84.8L63.7,84.8z"/>
						</g>
					</g>
					<g id="XMLID_16317_">
						<polygon fill="#9EB2B7" points="57.5,98.8 60.5,97 63.6,98.8 60.5,100.5 						"/>
						<path fill="#556063" d="M60.5,97l3,1.7l-3,1.7h0l-3-1.7L60.5,97 M60.5,97L60.5,97l-3,1.8l-0.1,0l0.1,0l3,1.7l0,0h0h0l0,0
							l3-1.7l0.1,0l-0.1,0L60.5,97L60.5,97L60.5,97z"/>
					</g>
					<g id="XMLID_16311_">
						<polygon fill="#9EB2B7" points="57.6,95.3 60.6,93.5 63.6,95.3 60.6,97 						"/>
						<path fill="#556063" d="M60.6,93.5l3,1.7l-3,1.7l-3-1.7L60.6,93.5 M60.6,93.5L60.6,93.5l-3,1.8l-0.1,0l0.1,0l3,1.7l0,0l0,0
							l3-1.7l0.1,0l-0.1,0L60.6,93.5L60.6,93.5L60.6,93.5z"/>
					</g>
					<polygon id="XMLID_16310_" opacity="4.000000e-002" points="64.8,95.9 66.6,97 63.6,98.8 					"/>
					<polygon id="XMLID_16309_" opacity="4.000000e-002" points="64.8,92.5 66.6,93.5 63.6,95.3 					"/>
					<polygon id="XMLID_16308_" opacity="4.000000e-002" points="64.8,89 66.6,90.1 63.6,91.8 					"/>
					<polygon id="XMLID_16307_" opacity="8.000000e-002" points="64.8,85.5 66.6,86.6 63.6,88.3 					"/>
					<polygon id="XMLID_16306_" opacity="8.000000e-002" points="61.8,97.7 63.6,98.8 60.6,100.5 					"/>
					<polygon id="XMLID_16305_" opacity="4.000000e-002" points="61.8,94.2 63.6,95.3 60.6,97 					"/>
					<polygon id="XMLID_16304_" opacity="4.000000e-002" points="61.8,90.7 63.6,91.8 60.6,93.5 					"/>
					<polygon id="XMLID_16303_" opacity="8.000000e-002" points="61.8,87.2 63.6,88.3 60.6,90.1 					"/>
				</g>
				<polygon id="XMLID_16301_" clip-path="url(#XMLID_39_)" fill="#968677" points="63.8,103 62.9,103.5 75.4,110.7 75.4,109.7 				
					"/>
				<g id="XMLID_15548_" clip-path="url(#XMLID_39_)">
					<g id="XMLID_15551_">
						<g id="XMLID_15561_">
							<g id="XMLID_15562_">
								<polygon fill="#CBD7D8" points="72.5,100 74.3,99 74.3,101.1 								"/>
								<g>
									<path fill="#556063" d="M74.3,99v2.1l-1.8-1L74.3,99 M74.3,98.9L74.3,98.9l-1.9,1.1l-0.1,0l0.1,0l1.8,1l0.1,0V101V98.9
										L74.3,98.9L74.3,98.9z"/>
								</g>
							</g>
						</g>
						<g id="XMLID_16235_">
							<g id="XMLID_15560_">
								<polygon fill="#D1BE6F" points="71.2,101.9 73.5,100.5 81.6,105.2 79.2,106.5 								"/>
								<path fill="#918243" d="M73.5,100.6l8,4.6l-2.3,1.3l-8-4.6L73.5,100.6 M73.5,100.5l-2.4,1.4l8.1,4.6l2.4-1.4L73.5,100.5
									L73.5,100.5z"/>
							</g>
							<polygon id="XMLID_15559_" fill="#D1BE6F" stroke="#918243" stroke-width="0.1" stroke-miterlimit="10" points="68.8,103.2 
								71.2,101.9 79.2,106.5 76.9,107.9 							"/>
							<g id="XMLID_15558_">
								<polygon fill="#D1BE6F" points="64.8,100.9 67.2,99.6 75.2,104.2 72.8,105.5 								"/>
								<path fill="#918243" d="M67.1,99.6l8,4.6l-2.3,1.3l-8-4.6L67.1,99.6 M67.1,99.6l-2.4,1.4l8.1,4.6l2.4-1.4L67.1,99.6
									L67.1,99.6z"/>
							</g>
							<g id="XMLID_15557_">
								<polygon fill="#D1BE6F" points="72.8,105.6 75.2,104.2 83.2,108.9 80.9,110.2 								"/>
								<path fill="#918243" d="M75.2,104.3l8,4.6l-2.3,1.3l-8-4.6L75.2,104.3 M75.2,104.2l-2.4,1.4l8.1,4.6l2.4-1.4L75.2,104.2
									L75.2,104.2z"/>
							</g>
							<g id="XMLID_16248_">
								<polygon fill="#D1BE6F" points="79.2,106.5 81.6,105.2 89.6,109.8 87.3,111.2 								"/>
								<path fill="#918243" d="M81.6,105.2l8,4.6l-2.3,1.3l-8-4.6L81.6,105.2 M81.6,105.2l-2.4,1.4l8.1,4.7l2.4-1.4L81.6,105.2
									L81.6,105.2z"/>
							</g>
							<g id="XMLID_16242_">
								<polygon fill="#D1BE6F" points="66.5,104.6 68.8,103.3 76.8,107.9 74.5,109.2 								"/>
								<path fill="#918243" d="M68.8,103.3l8,4.6l-2.3,1.3l-8-4.6L68.8,103.3 M68.8,103.2l-2.4,1.4l8.1,4.6l2.4-1.4L68.8,103.2
									L68.8,103.2z"/>
							</g>
							<g id="XMLID_16236_">
								<polygon fill="#D1BE6F" points="74.5,109.2 76.9,107.9 84.9,112.6 82.5,113.9 								"/>
								<path fill="#918243" d="M76.9,108l8,4.6l-2.3,1.3l-8-4.6L76.9,108 M76.9,107.9l-2.4,1.4l8.1,4.7l2.4-1.4L76.9,107.9
									L76.9,107.9z"/>
							</g>
						</g>
						<g id="XMLID_15556_">
							<polygon fill="#D1BE6F" points="80.9,110.2 83.3,108.9 87.3,111.2 84.9,112.5 							"/>
							<path fill="#918243" d="M83.2,108.9l3.9,2.3l-2.3,1.3l-3.9-2.3L83.2,108.9 M83.2,108.9l-2.4,1.4l4,2.3l2.4-1.4L83.2,108.9
								L83.2,108.9z"/>
						</g>
						<g id="XMLID_15555_">
							<polygon fill="#D1BE6F" points="62.4,102.3 64.8,100.9 68.8,103.3 66.4,104.6 							"/>
							<path fill="#918243" d="M64.8,101l3.9,2.3l-2.3,1.3l-3.9-2.3L64.8,101 M64.8,100.9l-2.4,1.4l4,2.3l2.4-1.4L64.8,100.9
								L64.8,100.9z"/>
						</g>
						<g id="XMLID_15554_">
							<polygon fill="#D1BE6F" points="67.2,99.5 69.5,98.2 73.5,100.5 71.2,101.9 							"/>
							<path fill="#918243" d="M69.5,98.3l3.9,2.3l-2.3,1.3l-3.9-2.3L69.5,98.3 M69.5,98.2l-2.3,1.4l4,2.3l2.4-1.4L69.5,98.2
								L69.5,98.2z"/>
						</g>
						<polygon id="XMLID_15553_" opacity="0.2" points="70,98.5 70,98.5 69.5,98.2 69,98.5 69,98.5 62.4,102.3 63,102.6 69.5,98.8 
							89.1,110.2 89.6,109.9 						"/>
						<polygon id="XMLID_15552_" opacity="0.2" points="69.5,98.8 69.5,98.2 62.4,102.3 63,102.6 						"/>
					</g>
					<g id="XMLID_15550_">
						<polygon fill="#556063" points="63.3,101.7 69.5,98.1 69.5,98.2 63.3,101.8 						"/>
						<path fill="#556063" d="M69.4,98.2L69.4,98.2l-6.2,3.6v0L69.4,98.2 M69.5,98.1l-6.3,3.6v0.1l6.3-3.6V98.1L69.5,98.1z"/>
					</g>
					<g id="XMLID_15549_">
						<polygon fill="#D1E0E5" points="69.6,106.3 75.5,102.9 99.5,116.8 93.6,120.1 						"/>
					</g>
				</g>
				<g id="XMLID_15547_" clip-path="url(#XMLID_39_)">
					<polygon fill="#CBD7D8" points="59.9,100 63,98.2 66.2,100 63,101.8 					"/>
					<path fill="#556063" d="M63,98.2l3.1,1.8l-3.1,1.8l-3.1-1.8L63,98.2 M63,98.1L63,98.1l-3.2,1.8l-0.1,0l0.1,0l3.1,1.8l0,0l0,0
						l3.1-1.8l0.1,0l-0.1,0L63,98.1L63,98.1L63,98.1z"/>
				</g>
				<polygon id="XMLID_15546_" opacity="4.000000e-002" clip-path="url(#XMLID_39_)" points="64.3,98.8 66.2,100 63,101.8 				"/>
				<g id="XMLID_15545_" clip-path="url(#XMLID_39_)">
					<polygon fill="#9EB2B7" points="69.5,94.6 72.7,92.7 75.8,94.5 72.7,96.4 					"/>
					<path fill="#556063" d="M72.7,92.8l3.1,1.8l-3.1,1.8l-3.1-1.8L72.7,92.8 M72.7,92.7L72.7,92.7l-3.2,1.8l-0.1,0l0.1,0l3.1,1.8
						l0,0l0,0l3.1-1.8l0.1,0l-0.1,0L72.7,92.7L72.7,92.7L72.7,92.7z"/>
				</g>
				<polygon id="XMLID_15544_" opacity="8.000000e-002" clip-path="url(#XMLID_39_)" points="73.9,93.4 75.8,94.6 72.7,96.4 				"/>
				<g id="XMLID_15543_" clip-path="url(#XMLID_39_)">
					<polygon fill="#9EB2B7" points="63.1,98.2 66.2,96.4 69.4,98.2 66.2,100 					"/>
					<path fill="#556063" d="M66.2,96.4l3.1,1.8l-3.1,1.8l-3.1-1.8L66.2,96.4 M66.2,96.3L66.2,96.3L63,98.1l-0.1,0l0.1,0l3.1,1.8
						l0,0l0,0l3.1-1.8l0.1,0l-0.1,0L66.2,96.3L66.2,96.3L66.2,96.3z"/>
				</g>
				<polygon id="XMLID_15542_" opacity="8.000000e-002" clip-path="url(#XMLID_39_)" points="67.4,97 69.3,98.2 66.2,100 				"/>
				<g id="XMLID_15541_" clip-path="url(#XMLID_39_)">
					<polygon fill="#9EB2B7" points="63.6,95.3 66.6,93.5 69.7,95.3 66.6,97 					"/>
					<path fill="#556063" d="M66.6,93.5l3,1.7l-3,1.7l-3-1.7L66.6,93.5 M66.6,93.5L66.6,93.5l-3,1.8l-0.1,0l0.1,0l3,1.7l0,0l0,0
						l3-1.7l0.1,0l-0.1,0L66.6,93.5L66.6,93.5L66.6,93.5z"/>
				</g>
				<polygon id="XMLID_15540_" opacity="4.000000e-002" clip-path="url(#XMLID_39_)" points="67.8,94.2 69.7,95.3 66.6,97 				"/>
				<g id="XMLID_15539_" clip-path="url(#XMLID_39_)">
					<polygon fill="#556063" points="69.4,98.3 69.4,98.2 74.2,101 74.2,101.1 					"/>
					<path fill="#687E82" d="M73.1,100.4l1.1,0.6v0L73.1,100.4 M69.4,98.2v0.1l4.8,2.8V101L69.4,98.2L69.4,98.2z"/>
				</g>
				<g id="XMLID_15537_" clip-path="url(#XMLID_39_)">
					<polygon id="XMLID_15538_" opacity="0.1" points="62.8,96.2 62.1,95.8 62.1,95.8 					"/>
				</g>
				<g id="XMLID_15536_" clip-path="url(#XMLID_39_)">
					<polygon fill="#9EB2B7" points="54.5,97.1 57.5,95.3 60.6,97 57.5,98.8 					"/>
					<path fill="#556063" d="M57.5,95.3l3,1.7l-3,1.7l-3-1.7L57.5,95.3 M57.5,95.2L57.5,95.2l-3,1.8l-0.1,0l0.1,0l3,1.7l0,0l0,0
						l3-1.7l0.1,0l-0.1,0L57.5,95.2L57.5,95.2L57.5,95.2z"/>
				</g>
				<g id="XMLID_16166_" clip-path="url(#XMLID_39_)">
					<polygon fill="#9EB2B7" points="51.5,95.3 54.5,93.5 57.5,95.3 54.5,97.1 					"/>
					<path fill="#556063" d="M54.5,93.6l3,1.7l-3,1.7l-3-1.7L54.5,93.6 M54.5,93.5L54.5,93.5l-3,1.8l-0.1,0l0.1,0l3,1.7l0,0l0,0
						l3-1.7l0.1,0l-0.1,0L54.5,93.5L54.5,93.5L54.5,93.5z"/>
				</g>
				<g id="XMLID_15535_" clip-path="url(#XMLID_39_)">
					<polygon fill="#9EB2B7" points="54.5,93.6 57.6,91.8 60.6,93.5 57.6,95.3 					"/>
					<path fill="#556063" d="M57.6,91.8l3,1.7l-3,1.7l-3-1.7L57.6,91.8 M57.6,91.7L57.6,91.7l-3,1.8l-0.1,0l0.1,0l3,1.7l0,0l0,0
						l3-1.7l0.1,0l-0.1,0L57.6,91.7L57.6,91.7L57.6,91.7z"/>
				</g>
				<g id="XMLID_15534_" clip-path="url(#XMLID_39_)">
					<polygon fill="#9EB2B7" points="69.5,98.3 72.5,96.5 74.4,97.6 74.3,99 72.5,100 					"/>
					<path fill="#556063" d="M72.5,96.5l1.9,1.1l-0.1,1.4l-1.7,1l-3-1.7L72.5,96.5 M72.5,96.4L72.5,96.4l-3,1.8l-0.1,0l0.1,0l3,1.7
						l0,0l0,0l1.7-1l0,0l0,0l0.1-1.4l0,0l0,0L72.5,96.4L72.5,96.4L72.5,96.4z"/>
				</g>
				<g id="XMLID_15533_" clip-path="url(#XMLID_39_)">
					<polygon fill="#6D513E" points="61.2,102 61.2,86.2 72.7,81.7 73.9,95.2 61.6,102.2 					"/>
					<path fill="#5B433C" d="M72.2,82.4L73.4,95l-11.6,6.6v-15L72.2,82.4 M73.1,81l-12.4,4.9v16.4l0.8,0.5l12.8-7.3L73.1,81L73.1,81
						z"/>
				</g>
				<polygon id="XMLID_15532_" opacity="0.1" clip-path="url(#XMLID_39_)" points="62.9,102.5 63.2,102.7 63.2,96.5 61.8,95.7 
					62.9,96.3 				"/>
			</g>
			<g id="XMLID_15527_">
				<polygon id="XMLID_15530_" fill="#AD856A" points="61.9,96.8 62.9,96.3 62.9,87.1 61.9,86.6 				"/>
				<polygon id="XMLID_15529_" fill="#E2BDA8" points="62.9,96.3 61.9,96.8 62.9,97.4 63.8,96.9 				"/>
				<polygon id="XMLID_15528_" fill="#AD856A" points="62.9,103.5 62.9,97.4 63.8,96.9 63.8,103 				"/>
			</g>
			<polygon id="XMLID_15526_" opacity="4.000000e-002" points="73.7,97.1 74.3,98.9 72.5,100 			"/>
			<polygon id="XMLID_15525_" opacity="0.1" points="72.8,92.9 72.8,92.9 62.9,87.1 62.9,88.3 62.8,96.3 63.3,96.5 63.3,88.5 
				72.8,94.2 72.8,98.3 74,99 74,108.9 74.9,109.3 74.9,94.1 			"/>
		</g>
		<g id="XMLID_15510_">
			<path id="XMLID_15523_" opacity="0.4" fill="#2B2927" d="M70.6,109.7c0,0,2.6,1.7,4.3,0.8l-0.7-0.4V109l-0.5-0.3L70.6,109.7z"/>
			<polygon id="XMLID_15522_" opacity="0.2" fill="#2B2927" points="73.7,103.4 74.2,103.8 74.2,109 73.7,108.7 			"/>
			<g id="XMLID_15511_">
				<g id="XMLID_15514_">
					<path id="XMLID_15521_" fill="#B5C5C9" d="M70.8,109.8c-0.6-0.3-0.8-0.7-0.8-1.1h0l0-5.4c0,0,0,0,0,0v0h0
						c0-0.2,0.1-0.4,0.3-0.5c0.5-0.4,1.6-0.4,2.5-0.1c0.6,0.3,0.9,0.7,0.8,1l0,0l0,5.1c0,0.4-0.1,0.5-0.2,0.7v0l0,0
						c-0.1,0.1-0.1,0.2-0.2,0.2C72.8,110.1,71.6,110.2,70.8,109.8z"/>
					<path id="XMLID_15520_" opacity="0.2" fill="#FFFFFF" d="M73.4,104.1c0.6-0.5,0.3-1.1-0.6-1.5c-0.9-0.4-2-0.4-2.5,0.1
						c-0.5,0.4-0.3,1.1,0.5,1.6C71.7,104.7,72.8,104.6,73.4,104.1z"/>
					<path id="XMLID_15519_" opacity="0.1" fill="#FFFFFF" d="M70.5,104.1l0,5.5c-0.4-0.3-0.5-0.6-0.5-0.9h0l0-5.4
						C70.1,103.5,70.2,103.8,70.5,104.1z"/>
					<path id="XMLID_15518_" opacity="0.4" fill="#2B2927" d="M73.1,109.8l0-5.5c0.1,0,0.2-0.1,0.2-0.2c0.2-0.1,0.3-0.3,0.3-0.5l0,0
						l0,5.1c0,0,0,0.5-0.2,0.7v0l0,0c-0.1,0.1-0.1,0.2-0.2,0.2C73.3,109.7,73.2,109.8,73.1,109.8z"/>
					<path id="XMLID_15517_" opacity="0.4" fill="#3A3735" stroke="#FFFFFF" stroke-width="0.1" stroke-miterlimit="10" d="
						M72.8,103.7c0.2-0.2,0-0.5-0.4-0.7c-0.4-0.2-0.9-0.1-1.1,0.1c-0.2,0.2,0,0.5,0.4,0.7C72.1,104,72.6,103.9,72.8,103.7z"/>
					<path id="XMLID_15516_" opacity="0.2" fill="none" stroke="#FFFFFF" stroke-width="0.1" stroke-miterlimit="10" d="M73.4,103.8
						c0.3-0.4-0.1-1-0.9-1.2c-0.8-0.2-1.8-0.1-2.1,0.3c-0.3,0.4,0.1,1,0.9,1.2C72.1,104.4,73.1,104.3,73.4,103.8z"/>
					<path id="XMLID_15515_" opacity="0.2" fill="#3A3735" stroke="#FFFFFF" stroke-width="0.1" stroke-miterlimit="10" d="
						M73.1,103.8c0.3-0.3-0.1-0.8-0.8-0.9c-0.7-0.2-1.4-0.1-1.6,0.2c-0.2,0.3,0.1,0.8,0.8,1C72.1,104.2,72.9,104.1,73.1,103.8z"/>
				</g>
				<path id="XMLID_15513_" opacity="0.2" fill="#2B2927" d="M72.3,110c0.4,0,0.6-0.1,0.9-0.2l0-5.5c-0.3,0.1-0.5,0.2-0.9,0.2
					L72.3,110z"/>
				<path id="XMLID_15512_" fill="#D1E0E5" d="M70.1,103.5c0,0-0.2-0.6-0.2-0.9v5.4c0,0,0.1,0.7,0.2,0.9L70.1,103.5z"/>
			</g>
		</g>
	</g>
	<polygon id="XMLID_15508_" fill="#D4AB90" points="61.9,86.6 60.7,85.9 60.7,102.3 62.9,103.5 62.9,97.4 61.9,96.8 	"/>
	<polygon id="XMLID_15507_" fill="#D4AB90" points="74.3,110.1 74.9,110.5 74.9,94.1 73.1,93 73.1,98.2 74.3,98.8 	"/>
</g>
<polygon id="XMLID_15505_" opacity="0.2" fill="#2B2927" points="74.2,103.8 74.9,104.3 74.9,110.5 74.3,110.1 "/>
</svg>
