<?xml version="1.0" encoding="utf-8"?>
<!-- Generator: Adobe Illustrator 16.0.0, SVG Export Plug-In . SVG Version: 6.00 Build 0)  -->
<!DOCTYPE svg PUBLIC "-//W3C//DTD SVG 1.1//EN" "http://www.w3.org/Graphics/SVG/1.1/DTD/svg11.dtd">
<svg version="1.1" id="Layer_1" xmlns="http://www.w3.org/2000/svg" xmlns:xlink="http://www.w3.org/1999/xlink" x="0px" y="0px"
	 width="164px" height="164px" viewBox="0 0 164 164" enable-background="new 0 0 164 164" xml:space="preserve">
<polyline id="XMLID_15578_" fill="none" points="74.9,110.5 89.1,118.6 89.1,102.3 "/>
<polygon id="XMLID_15505_" opacity="0.2" fill="#2B2927" points="74.2,103.8 74.9,104.3 74.9,110.5 74.3,110.1 "/>
<polyline id="XMLID_15504_" fill="none" points="89.1,102.3 89.1,102.3 74.9,94.1 74.9,110.5 74.9,110.5 "/>
<polyline id="XMLID_15503_" fill="none" points="74.9,110.5 89.1,118.6 89.1,102.3 "/>
<g id="XMLID_15394_">
	<g id="XMLID_15405_">
		<g id="XMLID_15422_">
			<g id="XMLID_15428_">
				<defs>
					<polygon id="XMLID_15429_" points="74.3,110.1 74.3,98.8 73.1,98.2 73.1,93 60.7,85.9 61.9,86.6 61.9,96.8 62.9,97.4 
						62.9,103.5 					"/>
				</defs>
				<clipPath id="XMLID_2_">
					<use xlink:href="#XMLID_15429_"  overflow="visible"/>
				</clipPath>
				<polygon id="XMLID_16160_" clip-path="url(#XMLID_2_)" fill="#968677" points="63.8,103 62.9,103.5 75.4,110.7 75.4,109.7 				
					"/>
				<g id="XMLID_15434_" clip-path="url(#XMLID_2_)">
					<g id="XMLID_16141_">
						<g id="XMLID_16156_">
							<polygon id="XMLID_16159_" fill="#7C4723" points="45.8,75.6 45.8,93.3 46.9,92.7 46.9,76.3 							"/>
							<polygon id="XMLID_16158_" fill="#A06137" points="44.8,76.3 44.8,92.7 44.8,92.7 44.8,92.7 45.8,93.3 45.8,75.6 							"/>
							<polygon id="XMLID_16157_" fill="#BF855E" points="45.8,75.6 44.8,76.3 45.8,76.9 46.9,76.3 							"/>
						</g>
						<g id="XMLID_16143_">
							<g id="XMLID_16148_">
								<g id="XMLID_16150_">
									<polygon id="XMLID_16155_" fill="#D1BE6F" stroke="#918243" stroke-width="0.1" stroke-miterlimit="10" points="46.2,76.7 
										46.2,84.9 50,87.1 50,78.9 									"/>
									<polygon id="XMLID_16154_" fill="#D1BE6F" stroke="#918243" stroke-width="0.1" stroke-miterlimit="10" points="46.2,93.1 
										50,95.4 50,87.1 46.2,84.9 									"/>
									<polygon id="XMLID_16153_" fill="#E8D891" stroke="#AA9A57" stroke-width="0.1" stroke-miterlimit="10" points="50,78.9 
										46.2,76.7 46.6,76.4 50.4,78.7 									"/>
									<polygon id="XMLID_16152_" fill="#D1BE6F" stroke="#918243" stroke-width="0.1" stroke-miterlimit="10" points="48.1,77.8 
										48.1,81.9 48.1,86 50,87.1 50,83 50,83 50,78.9 									"/>
									<polygon id="XMLID_16151_" fill="#D1BE6F" stroke="#918243" stroke-width="0.1" stroke-miterlimit="10" points="48.1,86 
										48.1,90.1 48.1,94.3 50,95.4 50,91.3 50,91.3 50,87.1 									"/>
								</g>
								<polygon id="XMLID_16149_" fill="#D1BE6F" stroke="#918243" stroke-width="0.1" stroke-miterlimit="10" points="46.2,80.8 
									46.2,84.9 46.2,89 48.1,90.1 48.1,86 48.1,86 48.1,81.9 								"/>
							</g>
							<g id="XMLID_16144_">
								<polygon id="XMLID_16147_" fill="#7C4723" points="50.8,78.5 50.8,96.2 51.8,95.5 51.8,79.1 								"/>
								<polygon id="XMLID_16146_" fill="#A06137" points="49.7,79.1 49.7,95.5 49.7,95.5 49.7,95.5 50.8,96.2 50.8,78.5 								
									"/>
								<polygon id="XMLID_16145_" fill="#BF855E" points="50.8,78.5 49.7,79.1 50.8,79.7 51.8,79.1 								"/>
							</g>
						</g>
						<polygon id="XMLID_16142_" opacity="0.1" points="46.2,76.7 47,77.2 46.9,93.6 46.2,93.1 						"/>
					</g>
					<g id="XMLID_16122_">
						<g id="XMLID_16137_">
							<polygon id="XMLID_16140_" fill="#7C4723" points="50.8,78.5 50.8,96.2 51.8,95.5 51.8,79.1 							"/>
							<polygon id="XMLID_16139_" fill="#A06137" points="49.7,79.1 49.7,95.5 49.7,95.5 49.7,95.5 50.8,96.2 50.8,78.5 							"/>
							<polygon id="XMLID_16138_" fill="#BF855E" points="50.8,78.5 49.7,79.1 50.8,79.7 51.8,79.1 							"/>
						</g>
						<g id="XMLID_16124_">
							<g id="XMLID_16129_">
								<g id="XMLID_16131_">
									<polygon id="XMLID_16136_" fill="#D1BE6F" stroke="#918243" stroke-width="0.1" stroke-miterlimit="10" points="51.1,79.5 
										51.1,87.8 54.9,90 54.9,81.8 									"/>
									<polygon id="XMLID_16135_" fill="#D1BE6F" stroke="#918243" stroke-width="0.1" stroke-miterlimit="10" points="51.1,96 
										54.9,98.2 54.9,90 51.1,87.8 									"/>
									<polygon id="XMLID_16134_" fill="#E8D891" stroke="#AA9A57" stroke-width="0.1" stroke-miterlimit="10" points="54.9,81.8 
										51.1,79.5 51.5,79.3 55.4,81.5 									"/>
									<polygon id="XMLID_16133_" fill="#D1BE6F" stroke="#918243" stroke-width="0.1" stroke-miterlimit="10" points="53,80.6 
										53,84.8 53,88.9 54.9,90 54.9,85.9 54.9,85.9 54.9,81.8 									"/>
									<polygon id="XMLID_16132_" fill="#D1BE6F" stroke="#918243" stroke-width="0.1" stroke-miterlimit="10" points="53,88.9 
										53,93 53,97.1 54.9,98.2 54.9,94.1 54.9,94.1 54.9,90 									"/>
								</g>
								<polygon id="XMLID_16130_" fill="#D1BE6F" stroke="#918243" stroke-width="0.1" stroke-miterlimit="10" points="51.1,83.6 
									51.1,87.7 51.1,91.9 53,93 53,88.9 53,88.9 53,84.8 								"/>
							</g>
							<g id="XMLID_16125_">
								<polygon id="XMLID_16128_" fill="#7C4723" points="55.7,81.3 55.7,99 56.8,98.4 56.8,81.9 								"/>
								<polygon id="XMLID_16127_" fill="#A06137" points="54.6,81.9 54.6,98.4 54.6,98.4 54.6,98.4 55.7,99 55.7,81.3 								"/>
								<polygon id="XMLID_16126_" fill="#BF855E" points="55.7,81.3 54.6,81.9 55.7,82.6 56.8,81.9 								"/>
							</g>
						</g>
						<polygon id="XMLID_16123_" opacity="0.1" points="51.1,79.5 51.9,80 51.8,96.4 51.1,96 						"/>
					</g>
					<g id="XMLID_15500_">
						<g id="XMLID_16118_">
							<polygon id="XMLID_16121_" fill="#7C4723" points="55.7,81.3 55.7,99 56.8,98.4 56.8,81.9 							"/>
							<polygon id="XMLID_16120_" fill="#A06137" points="54.6,81.9 54.6,98.4 54.6,98.4 54.6,98.4 55.7,99 55.7,81.3 							"/>
							<polygon id="XMLID_16119_" fill="#BF855E" points="55.7,81.3 54.6,81.9 55.7,82.6 56.8,81.9 							"/>
						</g>
						<g id="XMLID_15502_">
							<g id="XMLID_16110_">
								<g id="XMLID_16112_">
									<polygon id="XMLID_16117_" fill="#D1BE6F" stroke="#918243" stroke-width="0.1" stroke-miterlimit="10" points="56,82.4 
										56,90.6 59.9,92.8 59.9,84.6 									"/>
									<polygon id="XMLID_16116_" fill="#D1BE6F" stroke="#918243" stroke-width="0.1" stroke-miterlimit="10" points="56,98.8 
										59.9,101.1 59.9,92.8 56,90.6 									"/>
									<polygon id="XMLID_16115_" fill="#E8D891" stroke="#AA9A57" stroke-width="0.1" stroke-miterlimit="10" points="59.9,84.6 
										56,82.4 56.4,82.1 60.3,84.4 									"/>
									<polygon id="XMLID_16114_" fill="#D1BE6F" stroke="#918243" stroke-width="0.1" stroke-miterlimit="10" points="57.9,83.5 
										57.9,87.6 57.9,91.7 59.9,92.8 59.9,88.7 59.9,88.7 59.9,84.6 									"/>
									<polygon id="XMLID_16113_" fill="#D1BE6F" stroke="#918243" stroke-width="0.1" stroke-miterlimit="10" points="57.9,91.7 
										57.9,95.8 57.9,99.9 59.9,101.1 59.9,96.9 59.9,96.9 59.9,92.8 									"/>
								</g>
								<polygon id="XMLID_16111_" fill="#D1BE6F" stroke="#918243" stroke-width="0.1" stroke-miterlimit="10" points="56,86.5 
									56,90.6 56,94.7 57.9,95.8 57.9,91.7 57.9,91.7 57.9,87.6 								"/>
							</g>
							<g id="XMLID_16097_">
								<polygon id="XMLID_16109_" fill="#7C4723" points="60.6,84.2 60.6,101.8 61.7,101.2 61.7,84.8 								"/>
								<polygon id="XMLID_16107_" fill="#A06137" points="59.5,84.8 59.5,101.2 59.5,101.2 59.5,101.2 60.6,101.8 60.6,84.2 
																	"/>
								<polygon id="XMLID_16105_" fill="#BF855E" points="60.6,84.2 59.5,84.8 60.6,85.4 61.7,84.8 								"/>
							</g>
						</g>
						<polygon id="XMLID_15501_" opacity="0.1" points="56,82.4 56.9,82.9 56.8,99.3 56,98.8 						"/>
					</g>
					<g id="XMLID_15481_">
						<polygon id="XMLID_15499_" fill="#2D2723" points="60.9,85.2 60.9,93.4 64.8,95.7 64.8,87.4 						"/>
						<g id="XMLID_15495_">
							<polygon id="XMLID_15498_" fill="#7C4723" points="60.6,84.2 60.6,101.8 61.7,101.2 61.7,84.8 							"/>
							<polygon id="XMLID_15497_" fill="#A06137" points="59.5,84.8 59.5,101.2 59.5,101.2 59.5,101.2 60.6,101.8 60.6,84.2 							
								"/>
							<polygon id="XMLID_15496_" fill="#BF855E" points="60.6,84.2 59.5,84.8 60.6,85.4 61.7,84.8 							"/>
						</g>
						<g id="XMLID_15487_">
							<g id="XMLID_15490_">
								<g id="XMLID_15491_">
									<polygon id="XMLID_15494_" fill="#D1BE6F" stroke="#918243" stroke-width="0.1" stroke-miterlimit="10" points="60.9,100 
										62.9,101.2 62.9,93.4 60.9,92.3 									"/>
									<polygon id="XMLID_15493_" fill="#E8D891" stroke="#AA9A57" stroke-width="0.1" stroke-miterlimit="10" points="64.8,87.4 
										60.9,85.2 61.4,85 65.2,87.2 									"/>
									<polygon id="XMLID_15492_" fill="#D1BE6F" stroke="#918243" stroke-width="0.1" stroke-miterlimit="10" points="62.9,94.6 
										62.9,98.7 62.9,102.4 64.8,103.5 64.8,99.8 64.8,99.8 64.8,95.7 									"/>
								</g>
							</g>
							<g id="XMLID_15488_">
								<polygon id="XMLID_15489_" fill="#7C4723" points="65.5,87 65.5,104.7 66.6,104.1 66.6,87.6 								"/>
							</g>
						</g>
						<g id="XMLID_15484_">
							
								<polygon id="XMLID_15486_" fill="#E2D28D" stroke="#918243" stroke-width="0.1" stroke-linejoin="round" stroke-miterlimit="10" points="
								61,92 60.7,92.1 62.9,93.4 63.1,93.2 							"/>
							
								<polygon id="XMLID_15485_" fill="#E2D28D" stroke="#918243" stroke-width="0.1" stroke-linejoin="round" stroke-miterlimit="10" points="
								63.1,94.4 62.9,94.6 65,95.8 65.3,95.7 							"/>
						</g>
						<polygon id="XMLID_15483_" fill="#A06137" points="64.5,87.6 64.5,104.1 64.5,104.1 64.5,104.1 65.5,104.7 65.5,87 						"/>
						<polygon id="XMLID_15482_" fill="#BF855E" points="65.5,87 64.5,87.6 65.5,88.2 66.6,87.6 						"/>
					</g>
					<g id="XMLID_15464_">
						<g id="XMLID_15478_">
							<polygon id="XMLID_15480_" fill="#7C4723" points="65.5,87 65.5,104.7 66.6,104.1 66.6,87.6 							"/>
							<polygon id="XMLID_15479_" fill="#BF855E" points="65.5,87 64.5,87.6 65.5,88.2 66.6,87.6 							"/>
						</g>
						<g id="XMLID_15465_">
							<g id="XMLID_15470_">
								<g id="XMLID_15472_">
									<polygon id="XMLID_15477_" fill="#D1BE6F" stroke="#918243" stroke-width="0.1" stroke-miterlimit="10" points="65.9,88.1 
										65.9,96.3 69.7,98.5 69.7,90.3 									"/>
									<polygon id="XMLID_15476_" fill="#D1BE6F" stroke="#918243" stroke-width="0.1" stroke-miterlimit="10" points="65.9,104 
										69.7,106.3 69.7,98.5 65.9,96.3 									"/>
									<polygon id="XMLID_15475_" fill="#E8D891" stroke="#AA9A57" stroke-width="0.1" stroke-miterlimit="10" points="69.7,90.3 
										65.9,88.1 66.3,87.8 70.1,90 									"/>
									<polygon id="XMLID_15474_" fill="#D1BE6F" stroke="#918243" stroke-width="0.1" stroke-miterlimit="10" points="67.8,89.2 
										67.8,93.3 67.8,97.4 69.7,98.5 69.7,94.4 69.7,94.4 69.7,90.3 									"/>
									<polygon id="XMLID_15473_" fill="#D1BE6F" stroke="#918243" stroke-width="0.1" stroke-miterlimit="10" points="67.8,97.4 
										67.8,101.5 67.8,105.2 69.7,106.3 69.7,102.6 69.7,102.6 69.7,98.5 									"/>
								</g>
								<polygon id="XMLID_15471_" fill="#D1BE6F" stroke="#918243" stroke-width="0.1" stroke-miterlimit="10" points="65.9,92.2 
									65.9,96.3 65.9,100.4 67.8,101.5 67.8,97.4 67.8,97.4 67.8,93.3 								"/>
							</g>
							<g id="XMLID_15466_">
								<polygon id="XMLID_15469_" fill="#7C4723" points="70.5,89.9 70.5,107.5 71.5,106.9 71.5,90.5 								"/>
								<polygon id="XMLID_15468_" fill="#A06137" points="69.4,90.5 69.4,106.9 69.4,106.9 69.4,106.9 70.5,107.5 70.5,89.9 
																	"/>
								<polygon id="XMLID_15467_" fill="#BF855E" points="70.5,89.9 69.4,90.5 70.5,91.1 71.5,90.5 								"/>
							</g>
						</g>
					</g>
					<g id="XMLID_15445_">
						<g id="XMLID_15460_">
							<polygon id="XMLID_15463_" fill="#7C4723" points="70.5,89.9 70.5,107.5 71.5,106.9 71.5,90.5 							"/>
							<polygon id="XMLID_15462_" fill="#A06137" points="69.4,90.5 69.4,106.9 69.4,106.9 69.4,106.9 70.5,107.5 70.5,89.9 							
								"/>
							<polygon id="XMLID_15461_" fill="#BF855E" points="70.5,89.9 69.4,90.5 70.5,91.1 71.5,90.5 							"/>
						</g>
						<g id="XMLID_15447_">
							<g id="XMLID_15452_">
								<g id="XMLID_15454_">
									<polygon id="XMLID_15459_" fill="#D1BE6F" stroke="#918243" stroke-width="0.1" stroke-miterlimit="10" points="70.8,90.9 
										70.8,99.1 74.6,101.4 74.6,93.1 									"/>
									<polygon id="XMLID_15458_" fill="#D1BE6F" stroke="#918243" stroke-width="0.1" stroke-miterlimit="10" points="
										70.8,106.8 74.6,109.1 74.6,101.4 70.8,99.1 									"/>
									<polygon id="XMLID_15457_" fill="#E8D891" stroke="#AA9A57" stroke-width="0.1" stroke-miterlimit="10" points="74.6,93.1 
										70.8,90.9 71.2,90.7 75.1,92.9 									"/>
									<polygon id="XMLID_15456_" fill="#D1BE6F" stroke="#918243" stroke-width="0.1" stroke-miterlimit="10" points="72.7,92 
										72.7,96.1 72.7,100.2 74.6,101.4 74.6,97.2 74.6,97.2 74.6,93.1 									"/>
									<polygon id="XMLID_15455_" fill="#D1BE6F" stroke="#918243" stroke-width="0.1" stroke-miterlimit="10" points="
										72.7,100.2 72.7,104.4 72.7,108 74.6,109.2 74.6,105.5 74.6,105.5 74.6,101.4 									"/>
								</g>
								<polygon id="XMLID_15453_" fill="#D1BE6F" stroke="#918243" stroke-width="0.1" stroke-miterlimit="10" points="70.8,95 
									70.8,99.1 70.8,103.2 72.7,104.4 72.7,100.2 72.7,100.2 72.7,96.1 								"/>
							</g>
							<g id="XMLID_15448_">
								<polygon id="XMLID_15451_" fill="#7C4723" points="75.4,92.7 75.4,110.4 76.4,109.8 76.4,93.3 								"/>
								<polygon id="XMLID_15450_" fill="#A06137" points="74.3,93.3 74.3,109.8 74.3,109.8 74.3,109.8 75.4,110.4 75.4,92.7 
																	"/>
								<polygon id="XMLID_15449_" fill="#BF855E" points="75.4,92.7 74.3,93.3 75.4,93.9 76.4,93.3 								"/>
							</g>
						</g>
						<polygon id="XMLID_15446_" fill="#D1E0E5" points="70.8,98 70.8,107 74.3,109 74.3,100 						"/>
					</g>
					<g id="XMLID_15443_">
						<polygon id="XMLID_15444_" fill="#D1E0E5" points="67.6,96.2 67.6,105.2 69.4,106.2 69.4,97.2 						"/>
					</g>
					<polygon id="XMLID_15442_" opacity="0.1" points="60.9,85.2 61.8,85.7 61.7,102.1 60.9,101.7 					"/>
					<polygon id="XMLID_15441_" opacity="0.1" points="65.9,88.1 66.6,88.5 66.5,95.5 66.5,95.5 66.5,104.5 65.9,104.2 					"/>
					<polygon id="XMLID_15440_" opacity="0.1" points="70.8,90.9 71.5,91.3 71.5,98.4 71.4,98.4 71.4,107.4 70.8,107 					"/>
					<polygon id="XMLID_15439_" opacity="0.1" points="71.1,107.2 70.5,107.5 70.8,107.7 71.4,107.3 					"/>
					
						<polygon id="XMLID_15438_" fill="#D1BE6F" stroke="#918243" stroke-width="0.1" stroke-linejoin="round" stroke-miterlimit="10" points="
						62.9,98.5 64.8,99.6 64.8,91.8 62.9,90.7 					"/>
					
						<polygon id="XMLID_15437_" fill="#E2D28D" stroke="#918243" stroke-width="0.1" stroke-linejoin="round" stroke-miterlimit="10" points="
						63.1,90.5 62.9,90.7 65,91.9 65.3,91.8 					"/>
					
						<polygon id="XMLID_15436_" fill="#E2D28D" stroke="#918243" stroke-width="0.1" stroke-linejoin="round" stroke-miterlimit="10" points="
						61,89.3 60.7,89.4 62.9,90.7 63.1,90.5 					"/>
					<polygon id="XMLID_15435_" fill="#A06137" points="64.5,87.6 64.5,104.1 64.5,104.1 64.5,104.1 65.5,104.7 65.5,87 					"/>
				</g>
				<g id="XMLID_15430_" clip-path="url(#XMLID_2_)">
					<polygon id="XMLID_15433_" opacity="0.2" points="72.9,92.9 72.9,92.9 61.7,86.4 61.7,87.6 61.7,95.6 62.1,95.8 62.1,87.8 
						64.5,89.2 64.5,89.5 65.6,90.2 65.8,90 69.4,92.1 69.4,92.5 70.5,93.1 70.7,92.9 72.9,94.2 72.9,98.3 74,99 74,108.9 
						75.2,109.5 75.2,94.2 					"/>
					<polygon id="XMLID_15432_" opacity="0.1" points="63.8,103 64.2,103.2 64.2,97.1 62.8,96.2 63.8,96.9 					"/>
					<polygon id="XMLID_15431_" opacity="0.1" points="62.8,96.2 62.1,95.8 62.1,95.8 					"/>
				</g>
			</g>
			<g id="XMLID_15423_">
				<polygon id="XMLID_15427_" fill="#AD856A" points="61.9,96.8 62.9,96.3 62.9,87.1 61.9,86.6 				"/>
				<polygon id="XMLID_15426_" fill="#E2BDA8" points="62.9,96.3 61.9,96.8 62.9,97.4 63.8,96.9 				"/>
				<polygon id="XMLID_15425_" fill="#AD856A" points="62.9,103.5 62.9,97.4 63.8,96.9 63.8,103 				"/>
				<polygon id="XMLID_15424_" fill="#D4AB90" points="74.3,110.1 74.9,110.5 74.9,94.1 73.1,93 73.1,98.2 74.3,98.8 				"/>
			</g>
		</g>
		<polygon id="XMLID_15421_" opacity="0.1" points="66.2,104.3 65.5,104.7 65.8,104.9 66.5,104.5 		"/>
		<g id="XMLID_15406_">
			<path id="XMLID_15420_" opacity="0.4" fill="#2B2927" d="M70.6,109.7c0,0,3.1,2,4.8,1l-1.2-0.7V109l-0.5-0.3L70.6,109.7z"/>
			<path id="XMLID_15419_" opacity="0.2" fill="#2B2927" d="M75.4,105.1c0-0.6-1.2-1.5-1.2-1.5v5.4v1.1l1.2,0.7
				C75.4,110.7,75.4,105.7,75.4,105.1z"/>
			<polygon id="XMLID_15418_" opacity="0.2" fill="#2B2927" points="73.7,103.4 74.2,103.8 74.2,109 73.7,108.7 			"/>
			<g id="XMLID_15407_">
				<g id="XMLID_15410_">
					<path id="XMLID_15417_" fill="#B5C5C9" d="M70.8,109.8c-0.6-0.3-0.8-0.7-0.8-1.1l0,0l0-5.4c0,0,0,0,0,0v0h0
						c0-0.2,0.1-0.4,0.3-0.5c0.5-0.4,1.6-0.5,2.5-0.1c0.6,0.3,0.9,0.7,0.8,1l0,0l0,5.1c0,0.4-0.1,0.5-0.2,0.7v0l0,0
						c-0.1,0.1-0.1,0.2-0.2,0.2C72.8,110.1,71.6,110.2,70.8,109.8z"/>
					<path id="XMLID_15416_" opacity="0.2" fill="#FFFFFF" d="M73.4,104.1c0.6-0.5,0.3-1.1-0.6-1.5c-0.9-0.4-2-0.4-2.5,0.1
						s-0.3,1.1,0.5,1.6C71.7,104.7,72.8,104.6,73.4,104.1z"/>
					<path id="XMLID_15415_" opacity="0.1" fill="#FFFFFF" d="M70.5,104.1l0,5.5c-0.4-0.3-0.5-0.6-0.5-0.9l0,0l0-5.4
						C70.1,103.5,70.2,103.8,70.5,104.1z"/>
					<path id="XMLID_15414_" opacity="0.4" fill="#2B2927" d="M73.1,109.8l0-5.5c0.1,0,0.2-0.1,0.2-0.2c0.2-0.1,0.3-0.3,0.3-0.5l0,0
						l0,5.1c0,0,0,0.5-0.2,0.7v0l0,0c-0.1,0.1-0.1,0.2-0.2,0.2C73.3,109.7,73.2,109.8,73.1,109.8z"/>
					<path id="XMLID_15413_" opacity="0.4" fill="#3A3735" stroke="#FFFFFF" stroke-width="0.1" stroke-miterlimit="10" d="
						M72.8,103.7c0.2-0.2,0-0.5-0.4-0.7c-0.4-0.2-0.9-0.1-1.1,0.1c-0.2,0.2,0,0.5,0.4,0.7C72.1,104,72.6,103.9,72.8,103.7z"/>
					<path id="XMLID_15412_" opacity="0.2" fill="none" stroke="#FFFFFF" stroke-width="0.1" stroke-miterlimit="10" d="M73.4,103.8
						c0.3-0.4-0.1-1-0.9-1.2c-0.8-0.2-1.8-0.1-2.1,0.3c-0.3,0.4,0.1,1,0.9,1.2C72.1,104.4,73.1,104.3,73.4,103.8z"/>
					<path id="XMLID_15411_" opacity="0.2" fill="#3A3735" stroke="#FFFFFF" stroke-width="0.1" stroke-miterlimit="10" d="
						M73.1,103.8c0.3-0.3-0.1-0.8-0.8-0.9c-0.7-0.2-1.4-0.1-1.6,0.2c-0.2,0.3,0.1,0.8,0.8,1C72.1,104.2,72.9,104.1,73.1,103.8z"/>
				</g>
				<path id="XMLID_15409_" opacity="0.2" fill="#2B2927" d="M72.3,110c0.4,0,0.6-0.1,0.9-0.2l0-5.5c-0.3,0.1-0.5,0.2-0.9,0.2
					L72.3,110z"/>
				<path id="XMLID_15408_" fill="#D1E0E5" d="M70.1,103.5c0,0-0.2-0.6-0.2-0.9v5.4c0,0,0.1,0.7,0.2,0.9L70.1,103.5z"/>
			</g>
		</g>
	</g>
	<polygon id="XMLID_15395_" fill="#D4AB90" points="61.9,86.6 60.7,85.9 60.7,102.3 62.9,103.5 62.9,97.4 61.9,96.8 	"/>
</g>
</svg>
