<?xml version="1.0" encoding="utf-8"?>
<!-- Generator: Adobe Illustrator 16.0.0, SVG Export Plug-In . SVG Version: 6.00 Build 0)  -->
<!DOCTYPE svg PUBLIC "-//W3C//DTD SVG 1.1//EN" "http://www.w3.org/Graphics/SVG/1.1/DTD/svg11.dtd">
<svg version="1.1" id="Layer_1" xmlns="http://www.w3.org/2000/svg" xmlns:xlink="http://www.w3.org/1999/xlink" x="0px" y="0px"
	 width="164px" height="164px" viewBox="0 0 164 164" enable-background="new 0 0 164 164" xml:space="preserve">
<g id="XMLID_18881_">
	<g id="XMLID_18892_">
		<polygon id="XMLID_18905_" fill="#3F2816" points="58.8,92.6 58.8,104.6 59.7,104 59.7,93.2 		"/>
		<polygon id="XMLID_18904_" fill="#5D3D24" points="57.8,93.2 57.8,104 57.8,104 57.8,104 58.8,104.6 58.8,92.6 		"/>
		<g id="XMLID_18902_">
			<polygon id="XMLID_18903_" fill="#B4B4B4" points="52.8,97.2 52.8,97.2 52.8,97.2 			"/>
		</g>
		<polygon id="XMLID_18901_" fill="#BC5E00" points="54.3,98.2 54.3,102.6 58.3,100.3 58.3,96 58.3,96 		"/>
		<polygon id="XMLID_18900_" fill="#E07710" points="53.8,98 53.8,102.3 53.8,102.3 53.8,102.3 54.3,102.6 54.3,98.3 		"/>
		<polygon id="XMLID_18899_" fill="#3F2816" points="53.8,97.7 53.8,98.9 58.8,96 58.8,94.9 58.8,94.9 		"/>
		<polygon id="XMLID_18898_" fill="#5D3D24" points="52.8,97.2 52.8,98.3 52.8,98.3 52.8,98.3 53.8,98.9 53.8,97.7 		"/>
		<polygon id="XMLID_18897_" fill="#856147" points="57.8,94.3 52.8,97.2 52.8,97.2 53.8,97.7 58.8,94.9 58.8,94.9 		"/>
		<polygon id="XMLID_18896_" fill="#BFBFBF" points="54.8,101.1 54.8,101.7 57.8,100 57.8,99.5 		"/>
		<polygon id="XMLID_18895_" fill="#BFBFBF" points="54.8,98.8 54.8,100.9 57.8,99.2 57.8,97.2 		"/>
		<polygon id="XMLID_18894_" fill="#856147" points="59.7,93.2 58.8,93.7 57.8,93.2 58.8,92.6 		"/>
		<polygon id="XMLID_18893_" fill="#76523E" points="58.8,92.6 58.8,93.7 59.7,93.2 		"/>
	</g>
	<polygon id="XMLID_18891_" opacity="0.2" points="61.5,107.3 59.7,104 58.8,104.6 57.8,104 59.6,107.2 59.1,107.5 58.3,105.9 
		55.2,107.5 56,109.2 56.2,109.6 59.9,107.8 60.9,108 	"/>
</g>
</svg>
