<?xml version="1.0" encoding="utf-8"?>
<!-- Generator: Adobe Illustrator 16.0.0, SVG Export Plug-In . SVG Version: 6.00 Build 0)  -->
<!DOCTYPE svg PUBLIC "-//W3C//DTD SVG 1.1//EN" "http://www.w3.org/Graphics/SVG/1.1/DTD/svg11.dtd">
<svg version="1.1" id="Layer_1" xmlns="http://www.w3.org/2000/svg" xmlns:xlink="http://www.w3.org/1999/xlink" x="0px" y="0px"
	 width="164px" height="164px" viewBox="0 0 164 164" enable-background="new 0 0 164 164" xml:space="preserve">
<g id="XMLID_20364_">
	<polyline id="XMLID_20535_" fill="none" points="89.1,102.3 89.1,102.3 74.9,94.1 74.9,110.5 74.9,110.5 	"/>
	<polyline id="XMLID_20534_" fill="none" points="74.9,110.5 89.1,118.6 89.1,102.3 	"/>
	<g id="XMLID_20493_">
		<g id="XMLID_20531_">
			<path id="XMLID_20533_" fill="#E8AC70" d="M60.1,115.9c0,0.4-0.2,0.7-0.4,0.7s-0.3-0.4-0.2-0.8c0-0.4,0.2-0.7,0.4-0.7
				S60.1,115.5,60.1,115.9z"/>
			<path id="XMLID_20532_" fill="#CC9860" d="M60.2,115.5c0,0.2,0,0.5-0.1,0.5s-0.2-0.1-0.2-0.3c0-0.2,0-0.5,0.1-0.5
				C60.1,115.2,60.2,115.3,60.2,115.5z"/>
		</g>
		<g id="XMLID_20527_">
			<polygon id="XMLID_20530_" fill="#4C4C4C" points="60.6,115.5 59.7,115.9 60.1,112.7 61,112.3 			"/>
			<polygon id="XMLID_20529_" fill="#636363" points="59.2,115.5 59.7,115.9 60.1,112.7 59.6,112.3 			"/>
			<polygon id="XMLID_20528_" fill="#757575" points="60.5,111.9 61,112.3 60.1,112.7 59.6,112.3 			"/>
		</g>
		<g id="XMLID_20523_">
			<polygon id="XMLID_20526_" fill="#282828" points="60.5,120.8 60.5,121.1 61.8,120.4 61.8,120 			"/>
			<polygon id="XMLID_20525_" fill="#5E5E5E" points="59.6,120.3 60.5,120.8 61.8,120 61,119.5 			"/>
			<polygon id="XMLID_20524_" fill="#494949" points="59.6,120.6 60.5,121.1 60.5,120.8 59.6,120.3 			"/>
		</g>
		<g id="XMLID_20520_">
			<polygon id="XMLID_20522_" fill="#292954" points="60.2,119.8 61.3,120.4 61.3,116.2 60.2,115.5 			"/>
			<polygon id="XMLID_20521_" fill="#161635" points="62.1,120 61.3,120.4 61.3,116.2 62.1,115.8 			"/>
		</g>
		<g id="XMLID_20514_">
			<polygon id="XMLID_20519_" fill="#282828" points="62.3,121.8 62.3,122.2 63.7,121.4 63.7,121.1 			"/>
			<polygon id="XMLID_20518_" fill="#5E5E5E" points="61.5,121.3 62.3,121.8 63.7,121.1 62.8,120.5 			"/>
			<polygon id="XMLID_20517_" fill="#494949" points="61.5,121.7 62.3,122.2 62.3,121.8 61.5,121.3 			"/>
			<polygon id="XMLID_20516_" fill="#292954" points="62.1,120.8 63.1,121.5 63.1,117.2 62.1,116.6 			"/>
			<polygon id="XMLID_20515_" fill="#161635" points="63.9,121 63.1,121.5 63.1,117.2 63.9,116.8 			"/>
		</g>
		<polygon id="XMLID_20513_" fill="#F2F2F2" points="59.9,112.5 61,111.8 63.9,113.4 62.8,114.1 		"/>
		<polygon id="XMLID_20512_" fill="#9FA3A3" points="63,118.2 63.9,117.6 63.9,113.4 62.8,114.1 		"/>
		<polygon id="XMLID_20511_" fill="#D4D8D8" points="60.1,116.6 63,118.2 62.8,114.1 59.9,112.5 		"/>
		<g id="XMLID_20507_">
			<polygon id="XMLID_20510_" fill="#C42D1E" points="61,111.1 61.5,110.8 62.8,111.5 62.3,111.8 			"/>
			<polygon id="XMLID_20509_" fill="#9B6E42" points="62.3,113.5 62.8,113.2 62.8,111.5 62.3,111.8 			"/>
			<polygon id="XMLID_20508_" fill="#CC9860" points="61,112.8 62.3,113.5 62.3,111.8 61,111.1 			"/>
		</g>
		<g id="XMLID_20503_">
			<polygon id="XMLID_20506_" fill="#F2BC81" points="60.5,109.5 61.3,109 63.3,110.2 62.6,110.7 			"/>
			<polygon id="XMLID_20505_" fill="#CC9860" points="62.6,113.4 63.3,112.9 63.3,110.2 62.6,110.7 			"/>
			<polygon id="XMLID_20504_" fill="#E8AC70" points="60.5,112.2 62.6,113.4 62.6,110.7 60.5,109.5 			"/>
		</g>
		<path id="XMLID_20502_" fill="#552D00" d="M60.5,110.6c0,0,0-0.8,0.7-0.4c0.7,0.4,1.4,0.7,1.4,1.3c0,0,0.5,0.3,0.8,0
			c0.1-0.2,0.2-1.1,0-1.3c-0.4-0.4-1.7-1.2-2.1-1.2C60.5,109,60.3,109.2,60.5,110.6z"/>
		<g id="XMLID_20494_">
			<g id="XMLID_20499_">
				<path id="XMLID_20501_" fill="#E8AC70" d="M64,117.5c0,0.4,0.1,0.7,0.3,0.7c0.2,0,0.3-0.4,0.3-0.8s-0.1-0.7-0.3-0.7
					C64.1,116.8,64,117.1,64,117.5z"/>
				<path id="XMLID_20500_" fill="#CC9860" d="M63.8,117.2c-0.1,0.2-0.1,0.5,0,0.5c0.1,0.1,0.2-0.1,0.3-0.3c0.1-0.2,0.1-0.5,0-0.5
					C64,116.8,63.9,117,63.8,117.2z"/>
			</g>
			<g id="XMLID_20495_">
				<polygon id="XMLID_20498_" fill="#4C4C4C" points="64.9,117 64.2,117.6 63.6,114.5 64.3,113.8 				"/>
				<polygon id="XMLID_20497_" fill="#636363" points="63.6,117.4 64.2,117.6 63.6,114.5 63,114.2 				"/>
				<polygon id="XMLID_20496_" fill="#757575" points="63.7,113.6 64.3,113.8 63.6,114.5 63,114.2 				"/>
			</g>
		</g>
	</g>
	<g id="XMLID_20450_">
		<g id="XMLID_20453_">
			<g id="XMLID_20490_">
				<path id="XMLID_20492_" fill="#3F2915" d="M65.8,119.2c0,0.4-0.2,0.7-0.4,0.7c-0.2,0-0.3-0.4-0.2-0.8s0.2-0.7,0.4-0.7
					C65.7,118.5,65.8,118.8,65.8,119.2z"/>
				<path id="XMLID_20491_" fill="#1E130B" d="M66,118.9c0,0.2,0,0.5-0.1,0.5c-0.1,0.1-0.2-0.1-0.2-0.3c0-0.2,0-0.5,0.1-0.5
					S65.9,118.7,66,118.9z"/>
			</g>
			<g id="XMLID_20486_">
				<polygon id="XMLID_20489_" fill="#4C4C4C" points="66.3,118.8 65.4,119.2 65.8,116 66.7,115.7 				"/>
				<polygon id="XMLID_20488_" fill="#636363" points="64.9,118.8 65.4,119.2 65.8,116 65.3,115.7 				"/>
				<polygon id="XMLID_20487_" fill="#757575" points="66.2,115.3 66.7,115.7 65.8,116 65.3,115.7 				"/>
			</g>
			<g id="XMLID_20482_">
				<polygon id="XMLID_20485_" fill="#282828" points="66.3,124.1 66.3,124.5 67.6,123.7 67.6,123.4 				"/>
				<polygon id="XMLID_20484_" fill="#5E5E5E" points="65.4,123.6 66.3,124.1 67.6,123.4 66.7,122.8 				"/>
				<polygon id="XMLID_20483_" fill="#494949" points="65.4,123.9 66.3,124.5 66.3,124.1 65.4,123.6 				"/>
			</g>
			<g id="XMLID_20479_">
				<polygon id="XMLID_20481_" fill="#C6A000" points="66,123.1 67.1,123.8 67.1,119.5 66,118.9 				"/>
				<polygon id="XMLID_20480_" fill="#937702" points="67.8,123.3 67.1,123.8 67.1,119.5 67.8,119.1 				"/>
			</g>
			<g id="XMLID_20473_">
				<polygon id="XMLID_20478_" fill="#282828" points="68.1,125.2 68.1,125.5 69.4,124.8 69.4,124.4 				"/>
				<polygon id="XMLID_20477_" fill="#5E5E5E" points="67.2,124.7 68.1,125.2 69.4,124.4 68.5,123.9 				"/>
				<polygon id="XMLID_20476_" fill="#494949" points="67.2,125 68.1,125.5 68.1,125.2 67.2,124.7 				"/>
				<polygon id="XMLID_20475_" fill="#C6A000" points="67.8,124.2 68.9,124.8 68.9,120.6 67.8,119.9 				"/>
				<polygon id="XMLID_20474_" fill="#937702" points="69.6,124.4 68.9,124.8 68.9,120.6 69.6,120.2 				"/>
			</g>
			<polygon id="XMLID_20472_" fill="#F2F2F2" points="65.6,115.8 66.7,115.1 69.6,116.7 68.5,117.4 			"/>
			<polygon id="XMLID_20471_" fill="#9FA3A3" points="68.7,121.6 69.6,121 69.6,116.7 68.5,117.4 			"/>
			<polygon id="XMLID_20470_" fill="#D4D8D8" points="65.8,119.9 68.7,121.6 68.5,117.4 65.6,115.8 			"/>
			<g id="XMLID_20466_">
				<polygon id="XMLID_20469_" fill="#C42D1E" points="66.8,114.4 67.2,114.1 68.5,114.9 68,115.2 				"/>
				<polygon id="XMLID_20468_" fill="#1E130B" points="68,116.8 68.5,116.5 68.5,114.9 68,115.2 				"/>
				<polygon id="XMLID_20467_" fill="#301F11" points="66.8,116.1 68,116.8 68,115.2 66.8,114.4 				"/>
			</g>
			<g id="XMLID_20462_">
				<polygon id="XMLID_20465_" fill="#F2BC81" points="66.2,112.9 67,112.4 69.1,113.5 68.3,114 				"/>
				<polygon id="XMLID_20464_" fill="#301F11" points="68.3,116.7 69.1,116.2 69.1,113.5 68.3,114 				"/>
				<polygon id="XMLID_20463_" fill="#3F2915" points="66.2,115.6 68.3,116.7 68.3,114 66.2,112.9 				"/>
			</g>
			<g id="XMLID_20454_">
				<g id="XMLID_20459_">
					<path id="XMLID_20461_" fill="#3F2915" d="M69.7,120.9c0,0.4,0.1,0.7,0.3,0.7c0.2,0,0.3-0.4,0.3-0.8c0-0.4-0.1-0.7-0.3-0.7
						C69.9,120.1,69.7,120.5,69.7,120.9z"/>
					<path id="XMLID_20460_" fill="#1E130B" d="M69.6,120.5c-0.1,0.2-0.1,0.5,0,0.5c0.1,0.1,0.2-0.1,0.3-0.3s0.1-0.5,0-0.5
						C69.8,120.2,69.6,120.3,69.6,120.5z"/>
				</g>
				<g id="XMLID_20455_">
					<polygon id="XMLID_20458_" fill="#4C4C4C" points="70.6,120.3 69.9,120.9 69.3,117.8 70,117.2 					"/>
					<polygon id="XMLID_20457_" fill="#636363" points="69.3,120.7 69.9,120.9 69.3,117.8 68.7,117.6 					"/>
					<polygon id="XMLID_20456_" fill="#757575" points="69.4,116.9 70,117.2 69.3,117.8 68.7,117.6 					"/>
				</g>
			</g>
		</g>
		<path id="XMLID_20452_" d="M69.4,115.3c-0.1-0.5-0.1-0.6-0.2-1c0,0,0,0,0,0c0-0.3-0.1-0.7-0.2-0.9c-0.5-0.8-1.6-1-2-1
			c-0.7,0-1,0.2-0.8,1.6c0,0,0-0.8,0.7-0.4s1.5,0.7,1.3,1.3c0,0-0.2,0.5,0.2,0.8c0.3,0.3,0.2,0.7,0.2,0.9s0.5,0.1,0.6,0
			c0,0,0.1-0.1,0-0.2C69.1,116.2,69.4,115.8,69.4,115.3z"/>
		<path id="XMLID_20451_" d="M66.8,115.9l-0.6-0.3V115c0,0,0,0.2-0.1,0.3c-0.4,0.1-0.4,0.6-0.1,0.7c0.1,0.1,0.4,0.3,0.4,0.6
			c0,0.3,0.3-0.2,0.4-0.4V115.9z"/>
	</g>
	<g id="XMLID_20407_">
		<g id="XMLID_20410_">
			<g id="XMLID_20447_">
				<path id="XMLID_20449_" fill="#E8AC70" d="M55,117.2c0,0.3-0.1,0.5-0.3,0.5c-0.1,0-0.2-0.3-0.2-0.6c0-0.3,0.1-0.5,0.3-0.5
					C54.9,116.6,55,116.9,55,117.2z"/>
				<path id="XMLID_20448_" fill="#CC9860" d="M55.1,116.9c0,0.2,0,0.4-0.1,0.4c-0.1,0-0.2-0.1-0.2-0.2c0-0.2,0-0.4,0.1-0.4
					C55,116.7,55.1,116.8,55.1,116.9z"/>
			</g>
			<g id="XMLID_20443_">
				<polygon id="XMLID_20446_" fill="#4C4C4C" points="55.4,116.9 54.7,117.2 55,114.7 55.7,114.4 				"/>
				<polygon id="XMLID_20445_" fill="#636363" points="54.3,116.9 54.7,117.2 55,114.7 54.6,114.4 				"/>
				<polygon id="XMLID_20444_" fill="#757575" points="55.3,114.1 55.7,114.4 55,114.7 54.6,114.4 				"/>
			</g>
			<g id="XMLID_20439_">
				<polygon id="XMLID_20442_" fill="#282828" points="55.3,121 55.3,121.3 56.4,120.7 56.4,120.4 				"/>
				<polygon id="XMLID_20441_" fill="#5E5E5E" points="54.6,120.6 55.3,121 56.4,120.4 55.7,120 				"/>
				<polygon id="XMLID_20440_" fill="#494949" points="54.6,120.9 55.3,121.3 55.3,121 54.6,120.6 				"/>
			</g>
			<g id="XMLID_20436_">
				<polygon id="XMLID_20438_" fill="#C6A000" points="55.1,120.2 55.9,120.7 55.9,117.4 55.1,116.9 				"/>
				<polygon id="XMLID_20437_" fill="#937702" points="56.5,120.4 55.9,120.7 55.9,117.4 56.5,117.1 				"/>
			</g>
			<g id="XMLID_20430_">
				<polygon id="XMLID_20435_" fill="#282828" points="56.7,121.9 56.7,122.1 57.8,121.5 57.8,121.3 				"/>
				<polygon id="XMLID_20434_" fill="#5E5E5E" points="56.1,121.4 56.7,121.9 57.8,121.3 57.1,120.8 				"/>
				<polygon id="XMLID_20433_" fill="#494949" points="56.1,121.7 56.7,122.1 56.7,121.9 56.1,121.4 				"/>
				<polygon id="XMLID_20432_" fill="#C6A000" points="56.5,121.1 57.4,121.6 57.4,118.3 56.5,117.8 				"/>
				<polygon id="XMLID_20431_" fill="#937702" points="57.9,121.2 57.4,121.6 57.4,118.3 57.9,117.9 				"/>
			</g>
			<polygon id="XMLID_20429_" fill="#F2F2F2" points="54.8,114.5 55.7,114 58,115.3 57.1,115.8 			"/>
			<polygon id="XMLID_20428_" fill="#9FA3A3" points="57.2,119 58,118.6 58,115.3 57.1,115.8 			"/>
			<polygon id="XMLID_20427_" fill="#D4D8D8" points="55,117.8 57.2,119 57.1,115.8 54.8,114.5 			"/>
			<g id="XMLID_20423_">
				<polygon id="XMLID_20426_" fill="#C42D1E" points="55.7,113.5 56.1,113.2 57.1,113.8 56.7,114 				"/>
				<polygon id="XMLID_20425_" fill="#9B6E42" points="56.7,115.3 57.1,115.1 57.1,113.8 56.7,114 				"/>
				<polygon id="XMLID_20424_" fill="#CC9860" points="55.7,114.8 56.7,115.3 56.7,114 55.7,113.5 				"/>
			</g>
			<g id="XMLID_20419_">
				<polygon id="XMLID_20422_" fill="#F2BC81" points="55.3,112.2 55.9,111.9 57.5,112.8 56.9,113.2 				"/>
				<polygon id="XMLID_20421_" fill="#CC9860" points="56.9,115.3 57.5,114.9 57.5,112.8 56.9,113.2 				"/>
				<polygon id="XMLID_20420_" fill="#E8AC70" points="55.3,114.4 56.9,115.3 56.9,113.2 55.3,112.2 				"/>
			</g>
			<g id="XMLID_20411_">
				<g id="XMLID_20416_">
					<path id="XMLID_20418_" fill="#E8AC70" d="M58,118.5c0,0.3,0.1,0.6,0.2,0.5c0.1,0,0.2-0.3,0.2-0.6c0-0.3-0.1-0.6-0.2-0.5
						C58.1,117.9,58,118.2,58,118.5z"/>
					<path id="XMLID_20417_" fill="#CC9860" d="M57.9,118.2c-0.1,0.2,0,0.4,0,0.4c0.1,0.1,0.2,0,0.2-0.2s0-0.4,0-0.4
						S58,118,57.9,118.2z"/>
				</g>
				<g id="XMLID_20412_">
					<polygon id="XMLID_20415_" fill="#4C4C4C" points="58.7,118 58.2,118.5 57.7,116.1 58.3,115.6 					"/>
					<polygon id="XMLID_20414_" fill="#636363" points="57.7,118.4 58.2,118.5 57.7,116.1 57.2,115.9 					"/>
					<polygon id="XMLID_20413_" fill="#757575" points="57.8,115.4 58.3,115.6 57.7,116.1 57.2,115.9 					"/>
				</g>
			</g>
		</g>
		<path id="XMLID_20409_" fill="#552D00" d="M57.8,114.1c-0.1-0.4-0.1-0.5-0.1-0.8c0,0,0,0,0,0c0-0.2,0-0.5-0.2-0.7
			c-0.4-0.6-1.2-0.8-1.6-0.8c-0.6,0-0.8,0.1-0.6,1.2c0,0,0-0.6,0.6-0.3c0.6,0.3,1.1,0.5,1,1c0,0-0.2,0.4,0.1,0.7
			c0.3,0.2,0.1,0.5,0.2,0.7s0.4,0.1,0.5,0c0,0,0.1-0.1,0-0.1S57.8,114.5,57.8,114.1z"/>
		<path id="XMLID_20408_" fill="#552D00" d="M55.7,114.6l-0.4-0.2v-0.4c0,0,0,0.2-0.1,0.2c-0.3,0.1-0.3,0.5-0.1,0.6
			c0.1,0,0.3,0.2,0.3,0.4c0,0.2,0.3-0.2,0.3-0.3V114.6z"/>
	</g>
	<g id="XMLID_20365_">
		<g id="XMLID_20366_">
			<g id="XMLID_20404_">
				<path id="XMLID_20406_" fill="#3F2915" d="M59.7,119.9c0,0.3-0.1,0.5-0.3,0.5c-0.1,0-0.2-0.3-0.2-0.6c0-0.3,0.1-0.5,0.3-0.5
					C59.6,119.3,59.7,119.6,59.7,119.9z"/>
				<path id="XMLID_20405_" fill="#1E130B" d="M59.8,119.7c0,0.2,0,0.4-0.1,0.4c-0.1,0-0.2-0.1-0.2-0.2c0-0.2,0-0.4,0.1-0.4
					C59.7,119.4,59.8,119.5,59.8,119.7z"/>
			</g>
			<g id="XMLID_20400_">
				<polygon id="XMLID_20403_" fill="#4C4C4C" points="60.1,119.6 59.4,119.9 59.7,117.5 60.4,117.2 				"/>
				<polygon id="XMLID_20402_" fill="#636363" points="59,119.6 59.4,119.9 59.7,117.5 59.3,117.2 				"/>
				<polygon id="XMLID_20401_" fill="#757575" points="60,116.9 60.4,117.2 59.7,117.5 59.3,117.2 				"/>
			</g>
			<g id="XMLID_20396_">
				<polygon id="XMLID_20399_" fill="#282828" points="60.1,123.7 60.1,124 61.1,123.4 61.1,123.1 				"/>
				<polygon id="XMLID_20398_" fill="#5E5E5E" points="59.4,123.3 60.1,123.7 61.1,123.1 60.4,122.7 				"/>
				<polygon id="XMLID_20397_" fill="#494949" points="59.4,123.6 60.1,124 60.1,123.7 59.4,123.3 				"/>
			</g>
			<g id="XMLID_20393_">
				<polygon id="XMLID_20395_" fill="#1C1C7F" points="59.8,122.9 60.7,123.4 60.7,120.2 59.8,119.7 				"/>
				<polygon id="XMLID_20394_" fill="#0B0B56" points="61.3,123.1 60.7,123.4 60.7,120.2 61.3,119.8 				"/>
			</g>
			<g id="XMLID_20387_">
				<polygon id="XMLID_20392_" fill="#282828" points="61.5,124.5 61.5,124.8 62.5,124.2 62.5,124 				"/>
				<polygon id="XMLID_20391_" fill="#5E5E5E" points="60.8,124.1 61.5,124.5 62.5,124 61.8,123.6 				"/>
				<polygon id="XMLID_20390_" fill="#494949" points="60.8,124.4 61.5,124.8 61.5,124.5 60.8,124.1 				"/>
				<polygon id="XMLID_20389_" fill="#1C1C7F" points="61.3,123.8 62.1,124.3 62.1,121 61.3,120.5 				"/>
				<polygon id="XMLID_20388_" fill="#0B0B56" points="62.7,123.9 62.1,124.3 62.1,121 62.7,120.7 				"/>
			</g>
			<polygon id="XMLID_20386_" fill="#F2F2F2" points="59.6,117.3 60.4,116.7 62.7,118 61.8,118.5 			"/>
			<polygon id="XMLID_20385_" fill="#9FA3A3" points="62,121.7 62.7,121.3 62.7,118 61.8,118.5 			"/>
			<polygon id="XMLID_20384_" fill="#D4D8D8" points="59.7,120.5 62,121.7 61.8,118.5 59.6,117.3 			"/>
			<g id="XMLID_20380_">
				<polygon id="XMLID_20383_" fill="#C42D1E" points="60.5,116.2 60.8,116 61.8,116.5 61.4,116.8 				"/>
				<polygon id="XMLID_20382_" fill="#1E130B" points="61.4,118.1 61.8,117.8 61.8,116.5 61.4,116.8 				"/>
				<polygon id="XMLID_20381_" fill="#301F11" points="60.5,117.5 61.4,118.1 61.4,116.8 60.5,116.2 				"/>
			</g>
			<g id="XMLID_20376_">
				<polygon id="XMLID_20379_" fill="#F2BC81" points="60,115 60.6,114.6 62.3,115.5 61.6,115.9 				"/>
				<polygon id="XMLID_20378_" fill="#301F11" points="61.6,118 62.3,117.6 62.3,115.5 61.6,115.9 				"/>
				<polygon id="XMLID_20377_" fill="#3F2915" points="60,117.1 61.6,118 61.6,115.9 60,115 				"/>
			</g>
			<path id="XMLID_20375_" d="M60,115.8c0,0,0-0.6,0.5-0.3s1.1,0.5,1.1,1c0,0,0.4,0.2,0.6,0c0.1-0.1,0.1-0.9,0-1
				c-0.3-0.3-1.3-0.9-1.6-0.9C60.1,114.6,59.9,114.7,60,115.8z"/>
			<g id="XMLID_20367_">
				<g id="XMLID_20372_">
					<path id="XMLID_20374_" fill="#3F2915" d="M62.8,121.2c0,0.3,0.1,0.5,0.2,0.5c0.1,0,0.2-0.3,0.2-0.6c0-0.3-0.1-0.5-0.2-0.5
						S62.8,120.9,62.8,121.2z"/>
					<path id="XMLID_20373_" fill="#1E130B" d="M62.6,120.9c-0.1,0.2,0,0.4,0,0.4c0.1,0.1,0.2,0,0.2-0.2c0.1-0.2,0-0.4,0-0.4
						C62.8,120.7,62.7,120.8,62.6,120.9z"/>
				</g>
				<g id="XMLID_20368_">
					<polygon id="XMLID_20371_" fill="#4C4C4C" points="63.5,120.8 62.9,121.3 62.4,118.8 63,118.3 					"/>
					<polygon id="XMLID_20370_" fill="#636363" points="62.4,121.1 62.9,121.3 62.4,118.8 62,118.7 					"/>
					<polygon id="XMLID_20369_" fill="#757575" points="62.5,118.2 63,118.3 62.4,118.8 62,118.7 					"/>
				</g>
			</g>
		</g>
	</g>
</g>
</svg>
