<?xml version="1.0" encoding="utf-8"?>
<!-- Generator: Adobe Illustrator 16.0.0, SVG Export Plug-In . SVG Version: 6.00 Build 0)  -->
<!DOCTYPE svg PUBLIC "-//W3C//DTD SVG 1.1//EN" "http://www.w3.org/Graphics/SVG/1.1/DTD/svg11.dtd">
<svg version="1.1" id="Layer_1" xmlns="http://www.w3.org/2000/svg" xmlns:xlink="http://www.w3.org/1999/xlink" x="0px" y="0px"
	 width="164px" height="164px" viewBox="0 0 164 164" enable-background="new 0 0 164 164" xml:space="preserve">
<g id="XMLID_19897_">
	<polyline id="XMLID_20363_" fill="none" points="89.1,102.3 89.1,102.3 74.9,94.1 74.9,110.5 74.9,110.5 	"/>
	<polyline id="XMLID_20362_" fill="none" points="74.9,110.5 89.1,118.6 89.1,102.3 	"/>
	<g id="XMLID_20321_">
		<g id="XMLID_20359_">
			<path id="XMLID_20361_" fill="#BA8556" d="M54.3,112.5c0,0.4-0.2,0.7-0.4,0.7s-0.3-0.4-0.2-0.8c0-0.4,0.2-0.7,0.4-0.7
				S54.3,112.1,54.3,112.5z"/>
			<path id="XMLID_20360_" fill="#5B3A24" d="M54.5,112.2c0,0.2,0,0.5-0.1,0.5s-0.2-0.1-0.2-0.3c0-0.2,0-0.5,0.1-0.5
				C54.3,111.8,54.4,112,54.5,112.2z"/>
		</g>
		<g id="XMLID_20355_">
			<polygon id="XMLID_20358_" fill="#4C4C4C" points="54.8,112.1 53.9,112.5 54.3,109.3 55.2,109 			"/>
			<polygon id="XMLID_20357_" fill="#636363" points="53.4,112.1 53.9,112.5 54.3,109.3 53.8,109 			"/>
			<polygon id="XMLID_20356_" fill="#757575" points="54.7,108.6 55.2,109 54.3,109.3 53.8,109 			"/>
		</g>
		<g id="XMLID_20351_">
			<polygon id="XMLID_20354_" fill="#282828" points="54.8,117.4 54.8,117.8 56.1,117 56.1,116.7 			"/>
			<polygon id="XMLID_20353_" fill="#5E5E5E" points="53.9,116.9 54.8,117.4 56.1,116.7 55.2,116.1 			"/>
			<polygon id="XMLID_20352_" fill="#494949" points="53.9,117.2 54.8,117.8 54.8,117.4 53.9,116.9 			"/>
		</g>
		<g id="XMLID_20348_">
			<polygon id="XMLID_20350_" fill="#6A0078" points="54.5,116.4 55.6,117.1 55.6,112.8 54.5,112.2 			"/>
			<polygon id="XMLID_20349_" fill="#3D0149" points="56.3,116.6 55.6,117.1 55.6,112.8 56.3,112.4 			"/>
		</g>
		<g id="XMLID_20342_">
			<polygon id="XMLID_20347_" fill="#282828" points="56.6,118.5 56.6,118.8 57.9,118.1 57.9,117.7 			"/>
			<polygon id="XMLID_20346_" fill="#5E5E5E" points="55.7,118 56.6,118.5 57.9,117.7 57,117.2 			"/>
			<polygon id="XMLID_20345_" fill="#494949" points="55.7,118.3 56.6,118.8 56.6,118.5 55.7,118 			"/>
			<polygon id="XMLID_20344_" fill="#6A0078" points="56.3,117.5 57.4,118.1 57.4,113.9 56.3,113.2 			"/>
			<polygon id="XMLID_20343_" fill="#3D0149" points="58.1,117.7 57.4,118.1 57.4,113.9 58.1,113.5 			"/>
		</g>
		<polygon id="XMLID_20341_" fill="#F2F2F2" points="54.2,109.1 55.3,108.4 58.1,110 57,110.7 		"/>
		<polygon id="XMLID_20340_" fill="#9FA3A3" points="57.2,114.9 58.1,114.3 58.1,110 57,110.7 		"/>
		<polygon id="XMLID_20339_" fill="#D4D8D8" points="54.3,113.2 57.2,114.9 57,110.7 54.2,109.1 		"/>
		<g id="XMLID_20335_">
			<polygon id="XMLID_20338_" fill="#C42D1E" points="55.3,107.7 55.8,107.4 57,108.2 56.5,108.5 			"/>
			<polygon id="XMLID_20337_" fill="#5B3A24" points="56.5,110.1 57,109.8 57,108.2 56.5,108.5 			"/>
			<polygon id="XMLID_20336_" fill="#845939" points="55.3,109.4 56.5,110.1 56.5,108.5 55.3,107.7 			"/>
		</g>
		<g id="XMLID_20331_">
			<polygon id="XMLID_20334_" fill="#F2BC81" points="54.7,106.2 55.5,105.7 57.6,106.8 56.8,107.3 			"/>
			<polygon id="XMLID_20333_" fill="#845939" points="56.8,110 57.6,109.5 57.6,106.8 56.8,107.3 			"/>
			<polygon id="XMLID_20332_" fill="#BA8556" points="54.7,108.9 56.8,110 56.8,107.3 54.7,106.2 			"/>
		</g>
		<path id="XMLID_20330_" fill="#552D00" d="M54.7,107.2c0,0,0-0.8,0.7-0.4c0.7,0.4,1.4,0.7,1.4,1.3c0,0,0.5,0.3,0.8,0
			c0.2-0.2,0.2-1.1,0-1.3c-0.4-0.4-1.7-1.2-2.1-1.2C54.8,105.7,54.5,105.8,54.7,107.2z"/>
		<g id="XMLID_20322_">
			<g id="XMLID_20327_">
				<path id="XMLID_20329_" fill="#BA8556" d="M58.2,114.2c0,0.4,0.1,0.7,0.3,0.7c0.2,0,0.3-0.4,0.3-0.8c0-0.4-0.1-0.7-0.3-0.7
					C58.4,113.4,58.2,113.8,58.2,114.2z"/>
				<path id="XMLID_20328_" fill="#5B3A24" d="M58.1,113.8c-0.1,0.2-0.1,0.5,0,0.5c0.1,0.1,0.2-0.1,0.3-0.3c0.1-0.2,0.1-0.5,0-0.5
					C58.3,113.5,58.1,113.6,58.1,113.8z"/>
			</g>
			<g id="XMLID_20323_">
				<polygon id="XMLID_20326_" fill="#4C4C4C" points="59.1,113.6 58.4,114.2 57.8,111.1 58.5,110.5 				"/>
				<polygon id="XMLID_20325_" fill="#636363" points="57.8,114 58.4,114.2 57.8,111.1 57.2,110.9 				"/>
				<polygon id="XMLID_20324_" fill="#757575" points="57.9,110.2 58.5,110.5 57.8,111.1 57.2,110.9 				"/>
			</g>
		</g>
	</g>
	<g id="XMLID_20280_">
		<g id="XMLID_20318_">
			<path id="XMLID_20320_" fill="#E8AC70" d="M60.1,115.9c0,0.4-0.2,0.7-0.4,0.7s-0.3-0.4-0.2-0.8c0-0.4,0.2-0.7,0.4-0.7
				S60.1,115.5,60.1,115.9z"/>
			<path id="XMLID_20319_" fill="#CC9860" d="M60.2,115.5c0,0.2,0,0.5-0.1,0.5s-0.2-0.1-0.2-0.3c0-0.2,0-0.5,0.1-0.5
				C60.1,115.2,60.2,115.3,60.2,115.5z"/>
		</g>
		<g id="XMLID_20314_">
			<polygon id="XMLID_20317_" fill="#4C4C4C" points="60.6,115.5 59.7,115.9 60.1,112.7 61,112.3 			"/>
			<polygon id="XMLID_20316_" fill="#636363" points="59.2,115.5 59.7,115.9 60.1,112.7 59.6,112.3 			"/>
			<polygon id="XMLID_20315_" fill="#757575" points="60.5,111.9 61,112.3 60.1,112.7 59.6,112.3 			"/>
		</g>
		<g id="XMLID_20310_">
			<polygon id="XMLID_20313_" fill="#282828" points="60.5,120.8 60.5,121.1 61.8,120.4 61.8,120 			"/>
			<polygon id="XMLID_20312_" fill="#5E5E5E" points="59.6,120.3 60.5,120.8 61.8,120 61,119.5 			"/>
			<polygon id="XMLID_20311_" fill="#494949" points="59.6,120.6 60.5,121.1 60.5,120.8 59.6,120.3 			"/>
		</g>
		<g id="XMLID_20307_">
			<polygon id="XMLID_20309_" fill="#292954" points="60.2,119.8 61.3,120.4 61.3,116.2 60.2,115.5 			"/>
			<polygon id="XMLID_20308_" fill="#161635" points="62.1,120 61.3,120.4 61.3,116.2 62.1,115.8 			"/>
		</g>
		<g id="XMLID_20301_">
			<polygon id="XMLID_20306_" fill="#282828" points="62.3,121.8 62.3,122.2 63.7,121.4 63.7,121.1 			"/>
			<polygon id="XMLID_20305_" fill="#5E5E5E" points="61.5,121.3 62.3,121.8 63.7,121.1 62.8,120.5 			"/>
			<polygon id="XMLID_20304_" fill="#494949" points="61.5,121.6 62.3,122.2 62.3,121.8 61.5,121.3 			"/>
			<polygon id="XMLID_20303_" fill="#292954" points="62.1,120.8 63.1,121.5 63.1,117.2 62.1,116.6 			"/>
			<polygon id="XMLID_20302_" fill="#161635" points="63.9,121 63.1,121.5 63.1,117.2 63.9,116.8 			"/>
		</g>
		<polygon id="XMLID_20300_" fill="#F2F2F2" points="59.9,112.5 61,111.8 63.9,113.4 62.8,114.1 		"/>
		<polygon id="XMLID_20299_" fill="#9FA3A3" points="63,118.2 63.9,117.6 63.9,113.4 62.8,114.1 		"/>
		<polygon id="XMLID_20298_" fill="#D4D8D8" points="60.1,116.6 63,118.2 62.8,114.1 59.9,112.5 		"/>
		<g id="XMLID_20294_">
			<polygon id="XMLID_20297_" fill="#C42D1E" points="61,111.1 61.5,110.8 62.8,111.5 62.3,111.8 			"/>
			<polygon id="XMLID_20296_" fill="#9B6E42" points="62.3,113.5 62.8,113.2 62.8,111.5 62.3,111.8 			"/>
			<polygon id="XMLID_20295_" fill="#CC9860" points="61,112.8 62.3,113.5 62.3,111.8 61,111.1 			"/>
		</g>
		<g id="XMLID_20290_">
			<polygon id="XMLID_20293_" fill="#F2BC81" points="60.5,109.5 61.3,109 63.3,110.2 62.6,110.7 			"/>
			<polygon id="XMLID_20292_" fill="#CC9860" points="62.6,113.4 63.3,112.9 63.3,110.2 62.6,110.7 			"/>
			<polygon id="XMLID_20291_" fill="#E8AC70" points="60.5,112.2 62.6,113.4 62.6,110.7 60.5,109.5 			"/>
		</g>
		<path id="XMLID_20289_" fill="#552D00" d="M60.5,110.6c0,0,0-0.8,0.7-0.4c0.7,0.4,1.4,0.7,1.4,1.3c0,0,0.5,0.3,0.8,0
			c0.2-0.2,0.2-1.1,0-1.3c-0.4-0.4-1.7-1.2-2.1-1.2C60.5,109,60.3,109.2,60.5,110.6z"/>
		<g id="XMLID_20281_">
			<g id="XMLID_20286_">
				<path id="XMLID_20288_" fill="#E8AC70" d="M64,117.5c0,0.4,0.1,0.7,0.3,0.7c0.2,0,0.3-0.4,0.3-0.8c0-0.4-0.1-0.7-0.3-0.7
					C64.1,116.8,64,117.1,64,117.5z"/>
				<path id="XMLID_20287_" fill="#CC9860" d="M63.8,117.2c-0.1,0.2-0.1,0.5,0,0.5c0.1,0.1,0.2-0.1,0.3-0.3c0.1-0.2,0.1-0.5,0-0.5
					C64,116.8,63.9,117,63.8,117.2z"/>
			</g>
			<g id="XMLID_20282_">
				<polygon id="XMLID_20285_" fill="#4C4C4C" points="64.9,117 64.2,117.6 63.6,114.5 64.3,113.8 				"/>
				<polygon id="XMLID_20284_" fill="#636363" points="63.6,117.4 64.2,117.6 63.6,114.5 63,114.2 				"/>
				<polygon id="XMLID_20283_" fill="#757575" points="63.7,113.6 64.3,113.8 63.6,114.5 63,114.2 				"/>
			</g>
		</g>
	</g>
	<g id="XMLID_20237_">
		<g id="XMLID_20240_">
			<g id="XMLID_20277_">
				<path id="XMLID_20279_" fill="#3F2915" d="M65.8,119.2c0,0.4-0.2,0.7-0.4,0.7c-0.2,0-0.3-0.4-0.2-0.8c0-0.4,0.2-0.7,0.4-0.7
					C65.7,118.5,65.8,118.8,65.8,119.2z"/>
				<path id="XMLID_20278_" fill="#1E130B" d="M66,118.9c0,0.2,0,0.5-0.1,0.5s-0.2-0.1-0.2-0.3c0-0.2,0-0.5,0.1-0.5
					S65.9,118.7,66,118.9z"/>
			</g>
			<g id="XMLID_20273_">
				<polygon id="XMLID_20276_" fill="#4C4C4C" points="66.3,118.8 65.4,119.2 65.8,116 66.7,115.7 				"/>
				<polygon id="XMLID_20275_" fill="#636363" points="64.9,118.8 65.4,119.2 65.8,116 65.3,115.7 				"/>
				<polygon id="XMLID_20274_" fill="#757575" points="66.2,115.3 66.7,115.7 65.8,116 65.3,115.7 				"/>
			</g>
			<g id="XMLID_20269_">
				<polygon id="XMLID_20272_" fill="#282828" points="66.3,124.1 66.3,124.5 67.6,123.7 67.6,123.4 				"/>
				<polygon id="XMLID_20271_" fill="#5E5E5E" points="65.4,123.6 66.3,124.1 67.6,123.4 66.7,122.8 				"/>
				<polygon id="XMLID_20270_" fill="#494949" points="65.4,123.9 66.3,124.5 66.3,124.1 65.4,123.6 				"/>
			</g>
			<g id="XMLID_20266_">
				<polygon id="XMLID_20268_" fill="#C6A000" points="66,123.1 67.1,123.8 67.1,119.5 66,118.9 				"/>
				<polygon id="XMLID_20267_" fill="#937702" points="67.8,123.3 67.1,123.8 67.1,119.5 67.8,119.1 				"/>
			</g>
			<g id="XMLID_20260_">
				<polygon id="XMLID_20265_" fill="#282828" points="68.1,125.2 68.1,125.5 69.4,124.8 69.4,124.4 				"/>
				<polygon id="XMLID_20264_" fill="#5E5E5E" points="67.2,124.6 68.1,125.2 69.4,124.4 68.5,123.9 				"/>
				<polygon id="XMLID_20263_" fill="#494949" points="67.2,125 68.1,125.5 68.1,125.2 67.2,124.6 				"/>
				<polygon id="XMLID_20262_" fill="#C6A000" points="67.8,124.2 68.9,124.8 68.9,120.6 67.8,119.9 				"/>
				<polygon id="XMLID_20261_" fill="#937702" points="69.6,124.4 68.9,124.8 68.9,120.6 69.6,120.2 				"/>
			</g>
			<polygon id="XMLID_20259_" fill="#F2F2F2" points="65.6,115.8 66.7,115.1 69.6,116.7 68.5,117.4 			"/>
			<polygon id="XMLID_20258_" fill="#9FA3A3" points="68.7,121.6 69.6,121 69.6,116.7 68.5,117.4 			"/>
			<polygon id="XMLID_20257_" fill="#D4D8D8" points="65.8,119.9 68.7,121.6 68.5,117.4 65.6,115.8 			"/>
			<g id="XMLID_20253_">
				<polygon id="XMLID_20256_" fill="#C42D1E" points="66.8,114.4 67.2,114.1 68.5,114.9 68,115.2 				"/>
				<polygon id="XMLID_20255_" fill="#1E130B" points="68,116.8 68.5,116.5 68.5,114.9 68,115.2 				"/>
				<polygon id="XMLID_20254_" fill="#301F11" points="66.8,116.1 68,116.8 68,115.2 66.8,114.4 				"/>
			</g>
			<g id="XMLID_20249_">
				<polygon id="XMLID_20252_" fill="#F2BC81" points="66.2,112.9 67,112.4 69.1,113.5 68.3,114 				"/>
				<polygon id="XMLID_20251_" fill="#301F11" points="68.3,116.7 69.1,116.2 69.1,113.5 68.3,114 				"/>
				<polygon id="XMLID_20250_" fill="#3F2915" points="66.2,115.6 68.3,116.7 68.3,114 66.2,112.9 				"/>
			</g>
			<g id="XMLID_20241_">
				<g id="XMLID_20246_">
					<path id="XMLID_20248_" fill="#3F2915" d="M69.7,120.9c0,0.4,0.1,0.7,0.3,0.7c0.2,0,0.3-0.4,0.3-0.8c0-0.4-0.1-0.7-0.3-0.7
						C69.9,120.1,69.7,120.5,69.7,120.9z"/>
					<path id="XMLID_20247_" fill="#1E130B" d="M69.6,120.5c-0.1,0.2-0.1,0.5,0,0.5s0.2-0.1,0.3-0.3c0.1-0.2,0.1-0.5,0-0.5
						C69.8,120.2,69.6,120.3,69.6,120.5z"/>
				</g>
				<g id="XMLID_20242_">
					<polygon id="XMLID_20245_" fill="#4C4C4C" points="70.6,120.3 69.9,120.9 69.3,117.8 70,117.2 					"/>
					<polygon id="XMLID_20244_" fill="#636363" points="69.3,120.7 69.9,120.9 69.3,117.8 68.7,117.6 					"/>
					<polygon id="XMLID_20243_" fill="#757575" points="69.4,116.9 70,117.2 69.3,117.8 68.7,117.6 					"/>
				</g>
			</g>
		</g>
		<path id="XMLID_20239_" d="M69.4,115.3c-0.1-0.5-0.1-0.6-0.2-1c0,0,0,0,0,0c0-0.3-0.1-0.7-0.2-0.9c-0.5-0.8-1.6-1-2-1
			c-0.7,0-1,0.2-0.8,1.6c0,0,0-0.8,0.7-0.4s1.5,0.7,1.3,1.3c0,0-0.2,0.5,0.2,0.8c0.3,0.3,0.2,0.7,0.2,0.9c0.1,0.2,0.5,0.1,0.6,0
			c0,0,0.1-0.1,0-0.2C69.1,116.2,69.4,115.8,69.4,115.3z"/>
		<path id="XMLID_20238_" d="M66.8,115.9l-0.5-0.3V115c0,0,0,0.2-0.1,0.3c-0.4,0.1-0.4,0.6-0.1,0.7c0.1,0.1,0.4,0.3,0.4,0.6
			c0,0.3,0.3-0.2,0.4-0.4V115.9z"/>
	</g>
	<g id="XMLID_20194_">
		<g id="XMLID_20197_">
			<g id="XMLID_20234_">
				<path id="XMLID_20236_" fill="#E8AC70" d="M55,117.2c0,0.3-0.1,0.5-0.3,0.5c-0.1,0-0.2-0.3-0.2-0.6c0-0.3,0.1-0.5,0.3-0.5
					C54.9,116.6,55,116.9,55,117.2z"/>
				<path id="XMLID_20235_" fill="#CC9860" d="M55.1,116.9c0,0.2,0,0.4-0.1,0.4c-0.1,0-0.2-0.1-0.2-0.2c0-0.2,0-0.4,0.1-0.4
					C55,116.7,55.1,116.8,55.1,116.9z"/>
			</g>
			<g id="XMLID_20230_">
				<polygon id="XMLID_20233_" fill="#4C4C4C" points="55.4,116.9 54.7,117.2 55,114.7 55.7,114.4 				"/>
				<polygon id="XMLID_20232_" fill="#636363" points="54.3,116.9 54.7,117.2 55,114.7 54.6,114.4 				"/>
				<polygon id="XMLID_20231_" fill="#757575" points="55.3,114.1 55.7,114.4 55,114.7 54.6,114.4 				"/>
			</g>
			<g id="XMLID_20226_">
				<polygon id="XMLID_20229_" fill="#282828" points="55.3,121 55.3,121.3 56.4,120.7 56.4,120.4 				"/>
				<polygon id="XMLID_20228_" fill="#5E5E5E" points="54.6,120.6 55.3,121 56.4,120.4 55.7,120 				"/>
				<polygon id="XMLID_20227_" fill="#494949" points="54.6,120.9 55.3,121.3 55.3,121 54.6,120.6 				"/>
			</g>
			<g id="XMLID_20223_">
				<polygon id="XMLID_20225_" fill="#C6A000" points="55.1,120.2 55.9,120.7 55.9,117.4 55.1,116.9 				"/>
				<polygon id="XMLID_20224_" fill="#937702" points="56.5,120.4 55.9,120.7 55.9,117.4 56.5,117.1 				"/>
			</g>
			<g id="XMLID_20217_">
				<polygon id="XMLID_20222_" fill="#282828" points="56.7,121.9 56.7,122.1 57.8,121.5 57.8,121.3 				"/>
				<polygon id="XMLID_20221_" fill="#5E5E5E" points="56.1,121.4 56.7,121.9 57.8,121.3 57.1,120.9 				"/>
				<polygon id="XMLID_20220_" fill="#494949" points="56.1,121.7 56.7,122.1 56.7,121.9 56.1,121.4 				"/>
				<polygon id="XMLID_20219_" fill="#C6A000" points="56.5,121.1 57.4,121.6 57.4,118.3 56.5,117.8 				"/>
				<polygon id="XMLID_20218_" fill="#937702" points="57.9,121.2 57.4,121.6 57.4,118.3 57.9,117.9 				"/>
			</g>
			<polygon id="XMLID_20216_" fill="#F2F2F2" points="54.8,114.5 55.7,114 58,115.3 57.1,115.8 			"/>
			<polygon id="XMLID_20215_" fill="#9FA3A3" points="57.2,119 58,118.6 58,115.3 57.1,115.8 			"/>
			<polygon id="XMLID_20214_" fill="#D4D8D8" points="55,117.8 57.2,119 57.1,115.8 54.8,114.5 			"/>
			<g id="XMLID_20210_">
				<polygon id="XMLID_20213_" fill="#C42D1E" points="55.7,113.5 56.1,113.2 57.1,113.8 56.7,114 				"/>
				<polygon id="XMLID_20212_" fill="#9B6E42" points="56.7,115.3 57.1,115.1 57.1,113.8 56.7,114 				"/>
				<polygon id="XMLID_20211_" fill="#CC9860" points="55.7,114.8 56.7,115.3 56.7,114 55.7,113.5 				"/>
			</g>
			<g id="XMLID_20206_">
				<polygon id="XMLID_20209_" fill="#F2BC81" points="55.3,112.2 55.9,111.9 57.5,112.8 56.9,113.2 				"/>
				<polygon id="XMLID_20208_" fill="#CC9860" points="56.9,115.3 57.5,114.9 57.5,112.8 56.9,113.2 				"/>
				<polygon id="XMLID_20207_" fill="#E8AC70" points="55.3,114.4 56.9,115.3 56.9,113.2 55.3,112.2 				"/>
			</g>
			<g id="XMLID_20198_">
				<g id="XMLID_20203_">
					<path id="XMLID_20205_" fill="#E8AC70" d="M58,118.5c0,0.3,0.1,0.5,0.2,0.5c0.1,0,0.2-0.3,0.2-0.6c0-0.3-0.1-0.6-0.2-0.5
						C58.1,117.9,58,118.2,58,118.5z"/>
					<path id="XMLID_20204_" fill="#CC9860" d="M57.9,118.2c-0.1,0.2,0,0.4,0,0.4c0.1,0.1,0.2,0,0.2-0.2s0-0.4,0-0.4
						S58,118,57.9,118.2z"/>
				</g>
				<g id="XMLID_20199_">
					<polygon id="XMLID_20202_" fill="#4C4C4C" points="58.7,118 58.2,118.5 57.7,116.1 58.3,115.6 					"/>
					<polygon id="XMLID_20201_" fill="#636363" points="57.7,118.4 58.2,118.5 57.7,116.1 57.2,115.9 					"/>
					<polygon id="XMLID_20200_" fill="#757575" points="57.8,115.4 58.3,115.6 57.7,116.1 57.2,115.9 					"/>
				</g>
			</g>
		</g>
		<path id="XMLID_20196_" fill="#552D00" d="M57.8,114.1c-0.1-0.4-0.1-0.5-0.1-0.8c0,0,0,0,0,0c0-0.2,0-0.5-0.2-0.7
			c-0.4-0.6-1.2-0.8-1.6-0.8c-0.6,0-0.8,0.1-0.6,1.2c0,0,0-0.6,0.6-0.3c0.6,0.3,1.1,0.5,1,1c0,0-0.2,0.4,0.1,0.7
			c0.3,0.2,0.1,0.5,0.2,0.7s0.4,0.1,0.5,0c0,0,0.1-0.1,0-0.1C57.5,114.9,57.8,114.5,57.8,114.1z"/>
		<path id="XMLID_20195_" fill="#552D00" d="M55.7,114.6l-0.4-0.2v-0.4c0,0,0,0.2-0.1,0.2c-0.3,0.1-0.3,0.5-0.1,0.6
			c0.1,0,0.3,0.2,0.3,0.4c0,0.2,0.3-0.2,0.3-0.3L55.7,114.6z"/>
	</g>
	<g id="XMLID_20152_">
		<g id="XMLID_20153_">
			<g id="XMLID_20191_">
				<path id="XMLID_20193_" fill="#3F2915" d="M59.7,119.9c0,0.3-0.1,0.5-0.3,0.5c-0.1,0-0.2-0.3-0.2-0.6c0-0.3,0.1-0.5,0.3-0.5
					C59.6,119.3,59.7,119.6,59.7,119.9z"/>
				<path id="XMLID_20192_" fill="#1E130B" d="M59.8,119.7c0,0.2,0,0.4-0.1,0.4c-0.1,0.1-0.2-0.1-0.2-0.2c0-0.2,0-0.4,0.1-0.4
					S59.8,119.5,59.8,119.7z"/>
			</g>
			<g id="XMLID_20187_">
				<polygon id="XMLID_20190_" fill="#4C4C4C" points="60.1,119.6 59.4,119.9 59.7,117.5 60.4,117.2 				"/>
				<polygon id="XMLID_20189_" fill="#636363" points="59,119.6 59.4,119.9 59.7,117.5 59.3,117.2 				"/>
				<polygon id="XMLID_20188_" fill="#757575" points="60,116.9 60.4,117.2 59.7,117.5 59.3,117.2 				"/>
			</g>
			<g id="XMLID_20183_">
				<polygon id="XMLID_20186_" fill="#282828" points="60.1,123.7 60.1,124 61.1,123.4 61.1,123.1 				"/>
				<polygon id="XMLID_20185_" fill="#5E5E5E" points="59.4,123.3 60.1,123.7 61.1,123.1 60.4,122.7 				"/>
				<polygon id="XMLID_20184_" fill="#494949" points="59.4,123.6 60.1,124 60.1,123.7 59.4,123.3 				"/>
			</g>
			<g id="XMLID_20180_">
				<polygon id="XMLID_20182_" fill="#1C1C7F" points="59.8,122.9 60.7,123.4 60.7,120.2 59.8,119.7 				"/>
				<polygon id="XMLID_20181_" fill="#0B0B56" points="61.3,123.1 60.7,123.4 60.7,120.2 61.3,119.8 				"/>
			</g>
			<g id="XMLID_20174_">
				<polygon id="XMLID_20179_" fill="#282828" points="61.5,124.5 61.5,124.8 62.5,124.2 62.5,124 				"/>
				<polygon id="XMLID_20178_" fill="#5E5E5E" points="60.8,124.1 61.5,124.5 62.5,124 61.8,123.6 				"/>
				<polygon id="XMLID_20177_" fill="#494949" points="60.8,124.4 61.5,124.8 61.5,124.5 60.8,124.1 				"/>
				<polygon id="XMLID_20176_" fill="#1C1C7F" points="61.3,123.8 62.1,124.3 62.1,121 61.3,120.5 				"/>
				<polygon id="XMLID_20175_" fill="#0B0B56" points="62.7,123.9 62.1,124.3 62.1,121 62.7,120.7 				"/>
			</g>
			<polygon id="XMLID_20173_" fill="#F2F2F2" points="59.6,117.3 60.4,116.7 62.7,118 61.8,118.5 			"/>
			<polygon id="XMLID_20172_" fill="#9FA3A3" points="62,121.7 62.7,121.3 62.7,118 61.8,118.5 			"/>
			<polygon id="XMLID_20171_" fill="#D4D8D8" points="59.7,120.5 62,121.7 61.8,118.5 59.6,117.3 			"/>
			<g id="XMLID_20167_">
				<polygon id="XMLID_20170_" fill="#C42D1E" points="60.5,116.2 60.8,116 61.8,116.5 61.4,116.8 				"/>
				<polygon id="XMLID_20169_" fill="#1E130B" points="61.4,118.1 61.8,117.8 61.8,116.5 61.4,116.8 				"/>
				<polygon id="XMLID_20168_" fill="#301F11" points="60.5,117.5 61.4,118.1 61.4,116.8 60.5,116.2 				"/>
			</g>
			<g id="XMLID_20163_">
				<polygon id="XMLID_20166_" fill="#F2BC81" points="60,115 60.6,114.6 62.3,115.5 61.6,115.9 				"/>
				<polygon id="XMLID_20165_" fill="#301F11" points="61.6,118 62.3,117.6 62.3,115.5 61.6,115.9 				"/>
				<polygon id="XMLID_20164_" fill="#3F2915" points="60,117.1 61.6,118 61.6,115.9 60,115 				"/>
			</g>
			<path id="XMLID_20162_" d="M60,115.8c0,0,0-0.6,0.5-0.3s1.1,0.5,1.1,1c0,0,0.4,0.2,0.6,0c0.1-0.1,0.1-0.9,0-1
				c-0.3-0.3-1.3-0.9-1.6-0.9C60.1,114.6,59.9,114.7,60,115.8z"/>
			<g id="XMLID_20154_">
				<g id="XMLID_20159_">
					<path id="XMLID_20161_" fill="#3F2915" d="M62.8,121.2c0,0.3,0.1,0.5,0.2,0.5c0.1,0,0.2-0.3,0.2-0.6c0-0.3-0.1-0.5-0.2-0.5
						C62.9,120.6,62.8,120.9,62.8,121.2z"/>
					<path id="XMLID_20160_" fill="#1E130B" d="M62.6,120.9c-0.1,0.2,0,0.4,0,0.4c0.1,0.1,0.2,0,0.2-0.2c0.1-0.2,0-0.4,0-0.4
						C62.8,120.7,62.7,120.8,62.6,120.9z"/>
				</g>
				<g id="XMLID_20155_">
					<polygon id="XMLID_20158_" fill="#4C4C4C" points="63.5,120.8 62.9,121.3 62.4,118.8 63,118.3 					"/>
					<polygon id="XMLID_20157_" fill="#636363" points="62.4,121.1 62.9,121.3 62.4,118.8 62,118.7 					"/>
					<polygon id="XMLID_20156_" fill="#757575" points="62.5,118.2 63,118.3 62.4,118.8 62,118.7 					"/>
				</g>
			</g>
		</g>
	</g>
</g>
</svg>
