<?xml version="1.0" encoding="utf-8"?>
<!-- Generator: Adobe Illustrator 16.0.0, SVG Export Plug-In . SVG Version: 6.00 Build 0)  -->
<!DOCTYPE svg PUBLIC "-//W3C//DTD SVG 1.1//EN" "http://www.w3.org/Graphics/SVG/1.1/DTD/svg11.dtd">
<svg version="1.1" id="Layer_1" xmlns="http://www.w3.org/2000/svg" xmlns:xlink="http://www.w3.org/1999/xlink" x="0px" y="0px"
	 width="164px" height="164px" viewBox="0 0 164 164" enable-background="new 0 0 164 164" xml:space="preserve">
<g id="XMLID_18880_">
	<polyline id="XMLID_19506_" fill="none" points="89.1,102.3 89.1,102.3 74.9,94.1 74.9,110.5 74.9,110.5 	"/>
	<polyline id="XMLID_19505_" fill="none" points="74.9,110.5 89.1,118.6 89.1,102.3 	"/>
	<g id="XMLID_19462_">
		<g id="XMLID_19502_">
			<path id="XMLID_19504_" fill="#BA8556" d="M54.3,112.5c0,0.4-0.2,0.7-0.4,0.7s-0.3-0.4-0.2-0.8c0-0.4,0.2-0.7,0.4-0.7
				S54.3,112.1,54.3,112.5z"/>
			<path id="XMLID_19503_" fill="#5B3A24" d="M54.5,112.2c0,0.2,0,0.5-0.1,0.5s-0.2-0.1-0.2-0.3c0-0.2,0-0.5,0.1-0.5
				C54.3,111.8,54.4,112,54.5,112.2z"/>
		</g>
		<g id="XMLID_19498_">
			<polygon id="XMLID_19501_" fill="#4C4C4C" points="54.8,112.1 53.9,112.5 54.3,109.3 55.2,109 			"/>
			<polygon id="XMLID_19500_" fill="#636363" points="53.4,112.1 53.9,112.5 54.3,109.3 53.8,109 			"/>
			<polygon id="XMLID_19499_" fill="#757575" points="54.7,108.6 55.2,109 54.3,109.3 53.8,109 			"/>
		</g>
		<g id="XMLID_19494_">
			<polygon id="XMLID_19497_" fill="#282828" points="54.8,117.4 54.8,117.8 56.1,117 56.1,116.7 			"/>
			<polygon id="XMLID_19496_" fill="#5E5E5E" points="53.9,116.9 54.8,117.4 56.1,116.7 55.2,116.1 			"/>
			<polygon id="XMLID_19495_" fill="#494949" points="53.9,117.2 54.8,117.8 54.8,117.4 53.9,116.9 			"/>
		</g>
		<g id="XMLID_19491_">
			<polygon id="XMLID_19493_" fill="#6A0078" points="54.5,116.4 55.6,117.1 55.6,112.8 54.5,112.2 			"/>
			<polygon id="XMLID_19492_" fill="#3D0149" points="56.3,116.6 55.6,117.1 55.6,112.8 56.3,112.4 			"/>
		</g>
		<g id="XMLID_19485_">
			<polygon id="XMLID_19490_" fill="#282828" points="56.6,118.5 56.6,118.8 57.9,118.1 57.9,117.7 			"/>
			<polygon id="XMLID_19489_" fill="#5E5E5E" points="55.7,118 56.6,118.5 57.9,117.7 57,117.2 			"/>
			<polygon id="XMLID_19488_" fill="#494949" points="55.7,118.3 56.6,118.8 56.6,118.5 55.7,118 			"/>
			<polygon id="XMLID_19487_" fill="#6A0078" points="56.3,117.5 57.4,118.1 57.4,113.9 56.3,113.2 			"/>
			<polygon id="XMLID_19486_" fill="#3D0149" points="58.1,117.7 57.4,118.1 57.4,113.9 58.1,113.5 			"/>
		</g>
		<polygon id="XMLID_19484_" fill="#F2F2F2" points="54.2,109.1 55.3,108.4 58.1,110 57,110.7 		"/>
		<polygon id="XMLID_19483_" fill="#9FA3A3" points="57.2,114.9 58.1,114.3 58.1,110 57,110.7 		"/>
		<polygon id="XMLID_19482_" fill="#D4D8D8" points="54.3,113.2 57.2,114.9 57,110.7 54.2,109.1 		"/>
		<g id="XMLID_19478_">
			<polygon id="XMLID_19481_" fill="#C42D1E" points="55.3,107.7 55.8,107.4 57,108.2 56.5,108.5 			"/>
			<polygon id="XMLID_19480_" fill="#5B3A24" points="56.5,110.1 57,109.8 57,108.2 56.5,108.5 			"/>
			<polygon id="XMLID_19479_" fill="#845939" points="55.3,109.4 56.5,110.1 56.5,108.5 55.3,107.7 			"/>
		</g>
		<g id="XMLID_19474_">
			<polygon id="XMLID_19477_" fill="#F2BC81" points="54.7,106.2 55.5,105.7 57.6,106.8 56.8,107.3 			"/>
			<polygon id="XMLID_19476_" fill="#845939" points="56.8,110 57.6,109.5 57.6,106.8 56.8,107.3 			"/>
			<polygon id="XMLID_19475_" fill="#BA8556" points="54.7,108.9 56.8,110 56.8,107.3 54.7,106.2 			"/>
		</g>
		<path id="XMLID_19471_" fill="#552D00" d="M54.7,107.2c0,0,0-0.8,0.7-0.4c0.7,0.4,1.4,0.7,1.4,1.3c0,0,0.5,0.3,0.8,0
			c0.2-0.1,0.2-1.1,0-1.3c-0.4-0.4-1.7-1.2-2.1-1.2C54.8,105.7,54.5,105.8,54.7,107.2z"/>
		<g id="XMLID_19463_">
			<g id="XMLID_19468_">
				<path id="XMLID_19470_" fill="#BA8556" d="M58.2,114.2c0,0.4,0.1,0.7,0.3,0.7c0.2,0,0.3-0.4,0.3-0.8c0-0.4-0.1-0.7-0.3-0.7
					C58.4,113.4,58.2,113.8,58.2,114.2z"/>
				<path id="XMLID_19469_" fill="#5B3A24" d="M58.1,113.8c-0.1,0.2-0.1,0.5,0,0.5c0.1,0.1,0.2-0.1,0.3-0.3c0.1-0.2,0.1-0.5,0-0.5
					C58.3,113.5,58.1,113.6,58.1,113.8z"/>
			</g>
			<g id="XMLID_19464_">
				<polygon id="XMLID_19467_" fill="#4C4C4C" points="59.1,113.6 58.4,114.2 57.8,111.1 58.5,110.5 				"/>
				<polygon id="XMLID_19466_" fill="#636363" points="57.8,114 58.4,114.2 57.8,111.1 57.2,110.9 				"/>
				<polygon id="XMLID_19465_" fill="#757575" points="57.9,110.2 58.5,110.5 57.8,111.1 57.2,110.9 				"/>
			</g>
		</g>
	</g>
	<g id="XMLID_19421_">
		<g id="XMLID_19459_">
			<path id="XMLID_19461_" fill="#E8AC70" d="M60.1,115.9c0,0.4-0.2,0.7-0.4,0.7s-0.3-0.4-0.2-0.8c0-0.4,0.2-0.7,0.4-0.7
				S60.1,115.5,60.1,115.9z"/>
			<path id="XMLID_19460_" fill="#CC9860" d="M60.2,115.5c0,0.2,0,0.5-0.1,0.5s-0.2-0.1-0.2-0.3c0-0.2,0-0.5,0.1-0.5
				C60.1,115.2,60.2,115.3,60.2,115.5z"/>
		</g>
		<g id="XMLID_19455_">
			<polygon id="XMLID_19458_" fill="#4C4C4C" points="60.6,115.5 59.7,115.9 60.1,112.7 61,112.3 			"/>
			<polygon id="XMLID_19457_" fill="#636363" points="59.2,115.5 59.7,115.9 60.1,112.7 59.6,112.3 			"/>
			<polygon id="XMLID_19456_" fill="#757575" points="60.5,111.9 61,112.3 60.1,112.7 59.6,112.3 			"/>
		</g>
		<g id="XMLID_19451_">
			<polygon id="XMLID_19454_" fill="#282828" points="60.5,120.8 60.5,121.1 61.8,120.4 61.8,120 			"/>
			<polygon id="XMLID_19453_" fill="#5E5E5E" points="59.6,120.3 60.5,120.8 61.8,120 61,119.5 			"/>
			<polygon id="XMLID_19452_" fill="#494949" points="59.6,120.6 60.5,121.1 60.5,120.8 59.6,120.3 			"/>
		</g>
		<g id="XMLID_19448_">
			<polygon id="XMLID_19450_" fill="#292954" points="60.2,119.8 61.3,120.4 61.3,116.2 60.2,115.5 			"/>
			<polygon id="XMLID_19449_" fill="#161635" points="62.1,120 61.3,120.4 61.3,116.2 62.1,115.8 			"/>
		</g>
		<g id="XMLID_19442_">
			<polygon id="XMLID_19447_" fill="#282828" points="62.3,121.8 62.3,122.2 63.7,121.4 63.7,121.1 			"/>
			<polygon id="XMLID_19446_" fill="#5E5E5E" points="61.5,121.3 62.3,121.8 63.7,121.1 62.8,120.5 			"/>
			<polygon id="XMLID_19445_" fill="#494949" points="61.5,121.7 62.3,122.2 62.3,121.8 61.5,121.3 			"/>
			<polygon id="XMLID_19444_" fill="#292954" points="62.1,120.8 63.1,121.5 63.1,117.2 62.1,116.6 			"/>
			<polygon id="XMLID_19443_" fill="#161635" points="63.9,121 63.1,121.5 63.1,117.2 63.9,116.8 			"/>
		</g>
		<polygon id="XMLID_19441_" fill="#F2F2F2" points="59.9,112.5 61,111.8 63.9,113.4 62.8,114.1 		"/>
		<polygon id="XMLID_19440_" fill="#9FA3A3" points="63,118.2 63.9,117.6 63.9,113.4 62.8,114.1 		"/>
		<polygon id="XMLID_19439_" fill="#D4D8D8" points="60.1,116.6 63,118.2 62.8,114.1 59.9,112.5 		"/>
		<g id="XMLID_19435_">
			<polygon id="XMLID_19438_" fill="#C42D1E" points="61,111.1 61.5,110.8 62.8,111.5 62.3,111.8 			"/>
			<polygon id="XMLID_19437_" fill="#9B6E42" points="62.3,113.5 62.8,113.2 62.8,111.5 62.3,111.8 			"/>
			<polygon id="XMLID_19436_" fill="#CC9860" points="61,112.8 62.3,113.5 62.3,111.8 61,111.1 			"/>
		</g>
		<g id="XMLID_19431_">
			<polygon id="XMLID_19434_" fill="#F2BC81" points="60.5,109.5 61.3,109 63.3,110.2 62.6,110.7 			"/>
			<polygon id="XMLID_19433_" fill="#CC9860" points="62.6,113.4 63.3,112.9 63.3,110.2 62.6,110.7 			"/>
			<polygon id="XMLID_19432_" fill="#E8AC70" points="60.5,112.2 62.6,113.4 62.6,110.7 60.5,109.5 			"/>
		</g>
		<path id="XMLID_19430_" fill="#552D00" d="M60.5,110.6c0,0,0-0.8,0.7-0.4c0.7,0.4,1.4,0.7,1.4,1.3c0,0,0.5,0.3,0.8,0
			c0.2-0.1,0.2-1.1,0-1.3c-0.4-0.4-1.7-1.2-2.1-1.2C60.5,109,60.3,109.2,60.5,110.6z"/>
		<g id="XMLID_19422_">
			<g id="XMLID_19427_">
				<path id="XMLID_19429_" fill="#E8AC70" d="M64,117.5c0,0.4,0.1,0.7,0.3,0.7c0.2,0,0.3-0.4,0.3-0.8c0-0.4-0.1-0.7-0.3-0.7
					C64.1,116.8,64,117.1,64,117.5z"/>
				<path id="XMLID_19428_" fill="#CC9860" d="M63.8,117.2c-0.1,0.2-0.1,0.5,0,0.5c0.1,0.1,0.2-0.1,0.3-0.3c0.1-0.2,0.1-0.5,0-0.5
					C64,116.8,63.9,117,63.8,117.2z"/>
			</g>
			<g id="XMLID_19423_">
				<polygon id="XMLID_19426_" fill="#4C4C4C" points="64.9,117 64.2,117.6 63.6,114.5 64.3,113.8 				"/>
				<polygon id="XMLID_19425_" fill="#636363" points="63.6,117.4 64.2,117.6 63.6,114.5 63,114.2 				"/>
				<polygon id="XMLID_19424_" fill="#757575" points="63.7,113.6 64.3,113.8 63.6,114.5 63,114.2 				"/>
			</g>
		</g>
	</g>
	<g id="XMLID_19378_">
		<g id="XMLID_19381_">
			<g id="XMLID_19418_">
				<path id="XMLID_19420_" fill="#3F2915" d="M65.8,119.2c0,0.4-0.2,0.7-0.4,0.7c-0.2,0-0.3-0.4-0.2-0.8c0-0.4,0.2-0.7,0.4-0.7
					C65.7,118.5,65.8,118.8,65.8,119.2z"/>
				<path id="XMLID_19419_" fill="#1E130B" d="M66,118.9c0,0.2,0,0.5-0.1,0.5c-0.1,0.1-0.2-0.1-0.2-0.3s0-0.5,0.1-0.5
					S65.9,118.7,66,118.9z"/>
			</g>
			<g id="XMLID_19414_">
				<polygon id="XMLID_19417_" fill="#4C4C4C" points="66.3,118.8 65.4,119.2 65.8,116 66.7,115.7 				"/>
				<polygon id="XMLID_19416_" fill="#636363" points="64.9,118.8 65.4,119.2 65.8,116 65.3,115.7 				"/>
				<polygon id="XMLID_19415_" fill="#757575" points="66.2,115.3 66.7,115.7 65.8,116 65.3,115.7 				"/>
			</g>
			<g id="XMLID_19410_">
				<polygon id="XMLID_19413_" fill="#282828" points="66.3,124.1 66.3,124.5 67.6,123.7 67.6,123.4 				"/>
				<polygon id="XMLID_19412_" fill="#5E5E5E" points="65.4,123.6 66.3,124.1 67.6,123.4 66.7,122.8 				"/>
				<polygon id="XMLID_19411_" fill="#494949" points="65.4,123.9 66.3,124.5 66.3,124.1 65.4,123.6 				"/>
			</g>
			<g id="XMLID_19407_">
				<polygon id="XMLID_19409_" fill="#C6A000" points="66,123.1 67.1,123.8 67.1,119.5 66,118.9 				"/>
				<polygon id="XMLID_19408_" fill="#937702" points="67.8,123.3 67.1,123.8 67.1,119.5 67.8,119.1 				"/>
			</g>
			<g id="XMLID_19401_">
				<polygon id="XMLID_19406_" fill="#282828" points="68.1,125.2 68.1,125.5 69.4,124.8 69.4,124.4 				"/>
				<polygon id="XMLID_19405_" fill="#5E5E5E" points="67.2,124.7 68.1,125.2 69.4,124.4 68.5,123.9 				"/>
				<polygon id="XMLID_19404_" fill="#494949" points="67.2,125 68.1,125.5 68.1,125.2 67.2,124.7 				"/>
				<polygon id="XMLID_19403_" fill="#C6A000" points="67.8,124.2 68.9,124.8 68.9,120.6 67.8,119.9 				"/>
				<polygon id="XMLID_19402_" fill="#937702" points="69.6,124.4 68.9,124.8 68.9,120.6 69.6,120.2 				"/>
			</g>
			<polygon id="XMLID_19400_" fill="#F2F2F2" points="65.6,115.8 66.7,115.1 69.6,116.7 68.5,117.4 			"/>
			<polygon id="XMLID_19399_" fill="#9FA3A3" points="68.7,121.6 69.6,121 69.6,116.7 68.5,117.4 			"/>
			<polygon id="XMLID_19398_" fill="#D4D8D8" points="65.8,119.9 68.7,121.6 68.5,117.4 65.6,115.8 			"/>
			<g id="XMLID_19394_">
				<polygon id="XMLID_19397_" fill="#C42D1E" points="66.8,114.4 67.2,114.1 68.5,114.9 68,115.2 				"/>
				<polygon id="XMLID_19396_" fill="#1E130B" points="68,116.8 68.5,116.5 68.5,114.9 68,115.2 				"/>
				<polygon id="XMLID_19395_" fill="#301F11" points="66.8,116.1 68,116.8 68,115.2 66.8,114.4 				"/>
			</g>
			<g id="XMLID_19390_">
				<polygon id="XMLID_19393_" fill="#F2BC81" points="66.2,112.9 67,112.4 69.1,113.5 68.3,114 				"/>
				<polygon id="XMLID_19392_" fill="#301F11" points="68.3,116.7 69.1,116.2 69.1,113.5 68.3,114 				"/>
				<polygon id="XMLID_19391_" fill="#3F2915" points="66.2,115.6 68.3,116.7 68.3,114 66.2,112.9 				"/>
			</g>
			<g id="XMLID_19382_">
				<g id="XMLID_19387_">
					<path id="XMLID_19389_" fill="#3F2915" d="M69.7,120.9c0,0.4,0.1,0.7,0.3,0.7s0.3-0.4,0.3-0.8c0-0.4-0.1-0.7-0.3-0.7
						S69.7,120.5,69.7,120.9z"/>
					<path id="XMLID_19388_" fill="#1E130B" d="M69.6,120.5c-0.1,0.2-0.1,0.5,0,0.5c0.1,0.1,0.2-0.1,0.3-0.3s0.1-0.5,0-0.5
						C69.8,120.2,69.6,120.3,69.6,120.5z"/>
				</g>
				<g id="XMLID_19383_">
					<polygon id="XMLID_19386_" fill="#4C4C4C" points="70.6,120.3 69.9,120.9 69.3,117.8 70,117.2 					"/>
					<polygon id="XMLID_19385_" fill="#636363" points="69.3,120.7 69.9,120.9 69.3,117.8 68.7,117.6 					"/>
					<polygon id="XMLID_19384_" fill="#757575" points="69.4,116.9 70,117.2 69.3,117.8 68.7,117.6 					"/>
				</g>
			</g>
		</g>
		<path id="XMLID_19380_" d="M69.4,115.3c-0.1-0.5-0.1-0.6-0.2-1c0,0,0,0,0,0c0-0.3-0.1-0.7-0.2-0.9c-0.5-0.8-1.6-1-2-1
			c-0.7,0-1,0.2-0.8,1.6c0,0,0-0.8,0.7-0.4s1.5,0.7,1.3,1.3c0,0-0.2,0.5,0.2,0.8c0.3,0.3,0.2,0.7,0.2,0.9c0.1,0.2,0.5,0.1,0.6,0
			c0,0,0.1-0.1,0-0.2C69.1,116.2,69.4,115.8,69.4,115.3z"/>
		<path id="XMLID_19379_" d="M66.8,115.9l-0.5-0.3V115c0,0,0,0.2-0.1,0.3c-0.4,0.1-0.4,0.6-0.1,0.7c0.1,0.1,0.4,0.3,0.4,0.6
			s0.3-0.2,0.4-0.4V115.9z"/>
	</g>
	<g id="XMLID_19335_">
		<g id="XMLID_19338_">
			<g id="XMLID_19375_">
				<path id="XMLID_19377_" fill="#E8AC70" d="M55,117.2c0,0.3-0.1,0.5-0.3,0.5c-0.1,0-0.2-0.3-0.2-0.6c0-0.3,0.1-0.5,0.3-0.5
					C54.9,116.6,55,116.9,55,117.2z"/>
				<path id="XMLID_19376_" fill="#CC9860" d="M55.1,116.9c0,0.2,0,0.4-0.1,0.4c-0.1,0-0.2-0.1-0.2-0.2c0-0.2,0-0.4,0.1-0.4
					C55,116.7,55.1,116.8,55.1,116.9z"/>
			</g>
			<g id="XMLID_19371_">
				<polygon id="XMLID_19374_" fill="#4C4C4C" points="55.4,116.9 54.7,117.2 55,114.7 55.7,114.4 				"/>
				<polygon id="XMLID_19373_" fill="#636363" points="54.3,116.9 54.7,117.2 55,114.7 54.6,114.4 				"/>
				<polygon id="XMLID_19372_" fill="#757575" points="55.3,114.1 55.7,114.4 55,114.7 54.6,114.4 				"/>
			</g>
			<g id="XMLID_19367_">
				<polygon id="XMLID_19370_" fill="#282828" points="55.3,121 55.3,121.3 56.4,120.7 56.4,120.4 				"/>
				<polygon id="XMLID_19369_" fill="#5E5E5E" points="54.6,120.6 55.3,121 56.4,120.4 55.7,120 				"/>
				<polygon id="XMLID_19368_" fill="#494949" points="54.6,120.9 55.3,121.3 55.3,121 54.6,120.6 				"/>
			</g>
			<g id="XMLID_19364_">
				<polygon id="XMLID_19366_" fill="#C6A000" points="55.1,120.2 55.9,120.7 55.9,117.4 55.1,116.9 				"/>
				<polygon id="XMLID_19365_" fill="#937702" points="56.5,120.4 55.9,120.7 55.9,117.4 56.5,117.1 				"/>
			</g>
			<g id="XMLID_19358_">
				<polygon id="XMLID_19363_" fill="#282828" points="56.7,121.9 56.7,122.1 57.8,121.5 57.8,121.3 				"/>
				<polygon id="XMLID_19362_" fill="#5E5E5E" points="56.1,121.4 56.7,121.9 57.8,121.3 57.1,120.9 				"/>
				<polygon id="XMLID_19361_" fill="#494949" points="56.1,121.7 56.7,122.1 56.7,121.9 56.1,121.4 				"/>
				<polygon id="XMLID_19360_" fill="#C6A000" points="56.5,121.1 57.4,121.6 57.4,118.3 56.5,117.8 				"/>
				<polygon id="XMLID_19359_" fill="#937702" points="57.9,121.2 57.4,121.6 57.4,118.3 57.9,117.9 				"/>
			</g>
			<polygon id="XMLID_19357_" fill="#F2F2F2" points="54.8,114.5 55.7,114 58,115.3 57.1,115.8 			"/>
			<polygon id="XMLID_19356_" fill="#9FA3A3" points="57.2,119 58,118.6 58,115.3 57.1,115.8 			"/>
			<polygon id="XMLID_19355_" fill="#D4D8D8" points="55,117.8 57.2,119 57.1,115.8 54.8,114.5 			"/>
			<g id="XMLID_19351_">
				<polygon id="XMLID_19354_" fill="#C42D1E" points="55.7,113.5 56.1,113.2 57.1,113.8 56.7,114 				"/>
				<polygon id="XMLID_19353_" fill="#9B6E42" points="56.7,115.3 57.1,115.1 57.1,113.8 56.7,114 				"/>
				<polygon id="XMLID_19352_" fill="#CC9860" points="55.7,114.8 56.7,115.3 56.7,114 55.7,113.5 				"/>
			</g>
			<g id="XMLID_19347_">
				<polygon id="XMLID_19350_" fill="#F2BC81" points="55.3,112.2 55.9,111.9 57.5,112.8 56.9,113.2 				"/>
				<polygon id="XMLID_19349_" fill="#CC9860" points="56.9,115.3 57.5,114.9 57.5,112.8 56.9,113.2 				"/>
				<polygon id="XMLID_19348_" fill="#E8AC70" points="55.3,114.4 56.9,115.3 56.9,113.2 55.3,112.2 				"/>
			</g>
			<g id="XMLID_19339_">
				<g id="XMLID_19344_">
					<path id="XMLID_19346_" fill="#E8AC70" d="M58,118.5c0,0.3,0.1,0.5,0.2,0.5c0.1,0,0.2-0.3,0.2-0.6c0-0.3-0.1-0.6-0.2-0.5
						C58.1,117.9,58,118.2,58,118.5z"/>
					<path id="XMLID_19345_" fill="#CC9860" d="M57.9,118.2c-0.1,0.2,0,0.4,0,0.4c0.1,0.1,0.2,0,0.2-0.2s0-0.4,0-0.4
						C58.1,117.9,58,118,57.9,118.2z"/>
				</g>
				<g id="XMLID_19340_">
					<polygon id="XMLID_19343_" fill="#4C4C4C" points="58.7,118 58.2,118.5 57.7,116.1 58.3,115.6 					"/>
					<polygon id="XMLID_19342_" fill="#636363" points="57.7,118.4 58.2,118.5 57.7,116.1 57.2,115.9 					"/>
					<polygon id="XMLID_19341_" fill="#757575" points="57.8,115.4 58.3,115.6 57.7,116.1 57.2,115.9 					"/>
				</g>
			</g>
		</g>
		<path id="XMLID_19337_" fill="#552D00" d="M57.8,114.1c-0.1-0.4-0.1-0.5-0.1-0.8c0,0,0,0,0,0c0-0.2,0-0.5-0.2-0.7
			c-0.4-0.6-1.2-0.8-1.6-0.8c-0.6,0-0.8,0.1-0.6,1.2c0,0,0-0.6,0.6-0.3c0.6,0.3,1.1,0.5,1,1c0,0-0.2,0.4,0.1,0.7
			c0.3,0.2,0.1,0.5,0.2,0.7s0.4,0.1,0.5,0c0,0,0.1-0.1,0-0.1C57.5,114.9,57.8,114.5,57.8,114.1z"/>
		<path id="XMLID_19336_" fill="#552D00" d="M55.7,114.6l-0.4-0.2v-0.4c0,0,0,0.2-0.1,0.2c-0.3,0.1-0.3,0.5-0.1,0.6
			c0.1,0,0.3,0.2,0.3,0.4c0,0.2,0.3-0.2,0.3-0.3L55.7,114.6z"/>
	</g>
	<g id="XMLID_19292_">
		<g id="XMLID_19295_">
			<g id="XMLID_19332_">
				<path id="XMLID_19334_" fill="#3F2915" d="M50.2,114.5c0,0.3-0.1,0.5-0.3,0.5s-0.2-0.3-0.2-0.6c0-0.3,0.1-0.5,0.3-0.5
					S50.3,114.2,50.2,114.5z"/>
				<path id="XMLID_19333_" fill="#1E130B" d="M50.4,114.2c0,0.2,0,0.4-0.1,0.4c-0.1,0.1-0.2-0.1-0.2-0.2c0-0.2,0-0.4,0.1-0.4
					S50.3,114,50.4,114.2z"/>
			</g>
			<g id="XMLID_19328_">
				<polygon id="XMLID_19331_" fill="#4C4C4C" points="50.6,114.2 50,114.5 50.3,112 51,111.7 				"/>
				<polygon id="XMLID_19330_" fill="#636363" points="49.6,114.2 50,114.5 50.3,112 49.9,111.7 				"/>
				<polygon id="XMLID_19329_" fill="#757575" points="50.6,111.4 51,111.7 50.3,112 49.9,111.7 				"/>
			</g>
			<g id="XMLID_19324_">
				<polygon id="XMLID_19327_" fill="#282828" points="50.6,118.3 50.6,118.6 51.6,118 51.6,117.7 				"/>
				<polygon id="XMLID_19326_" fill="#5E5E5E" points="49.9,117.9 50.6,118.3 51.6,117.7 50.9,117.3 				"/>
				<polygon id="XMLID_19325_" fill="#494949" points="49.9,118.2 50.6,118.6 50.6,118.3 49.9,117.9 				"/>
			</g>
			<g id="XMLID_19321_">
				<polygon id="XMLID_19323_" fill="#8D3B00" points="50.4,117.5 51.2,118 51.2,114.7 50.4,114.2 				"/>
				<polygon id="XMLID_19322_" fill="#632800" points="51.8,117.7 51.2,118 51.2,114.7 51.8,114.4 				"/>
			</g>
			<g id="XMLID_19315_">
				<polygon id="XMLID_19320_" fill="#282828" points="52,119.1 52,119.4 53.1,118.8 53.1,118.5 				"/>
				<polygon id="XMLID_19319_" fill="#5E5E5E" points="51.3,118.7 52,119.1 53.1,118.5 52.4,118.1 				"/>
				<polygon id="XMLID_19318_" fill="#494949" points="51.3,119 52,119.4 52,119.1 51.3,118.7 				"/>
				<polygon id="XMLID_19317_" fill="#8D3B00" points="51.8,118.3 52.6,118.8 52.6,115.5 51.8,115 				"/>
				<polygon id="XMLID_19316_" fill="#632800" points="53.2,118.5 52.6,118.8 52.6,115.5 53.2,115.2 				"/>
			</g>
			<polygon id="XMLID_19314_" fill="#F2F2F2" points="50.1,111.8 51,111.3 53.2,112.5 52.4,113.1 			"/>
			<polygon id="XMLID_19313_" fill="#9FA3A3" points="52.5,116.3 53.2,115.8 53.2,112.5 52.4,113.1 			"/>
			<polygon id="XMLID_19312_" fill="#D4D8D8" points="50.2,115 52.5,116.3 52.4,113.1 50.1,111.8 			"/>
			<g id="XMLID_19308_">
				<polygon id="XMLID_19311_" fill="#C42D1E" points="51,110.7 51.4,110.5 52.4,111.1 52,111.3 				"/>
				<polygon id="XMLID_19310_" fill="#1E130B" points="52,112.6 52.4,112.4 52.4,111.1 52,111.3 				"/>
				<polygon id="XMLID_19309_" fill="#301F11" points="51,112 52,112.6 52,111.3 51,110.7 				"/>
			</g>
			<g id="XMLID_19304_">
				<polygon id="XMLID_19307_" fill="#F2BC81" points="50.6,109.5 51.2,109.1 52.8,110 52.2,110.4 				"/>
				<polygon id="XMLID_19306_" fill="#301F11" points="52.2,112.5 52.8,112.1 52.8,110 52.2,110.4 				"/>
				<polygon id="XMLID_19305_" fill="#3F2915" points="50.6,111.6 52.2,112.5 52.2,110.4 50.6,109.5 				"/>
			</g>
			<g id="XMLID_19296_">
				<g id="XMLID_19301_">
					<path id="XMLID_19303_" fill="#3F2915" d="M53.3,115.8c0,0.3,0.1,0.5,0.2,0.5c0.1,0,0.2-0.3,0.2-0.6c0-0.3-0.1-0.6-0.2-0.5
						C53.4,115.2,53.3,115.4,53.3,115.8z"/>
					<path id="XMLID_19302_" fill="#1E130B" d="M53.2,115.5c-0.1,0.2,0,0.4,0,0.4c0.1,0.1,0.2,0,0.2-0.2c0.1-0.2,0-0.4,0-0.4
						C53.3,115.2,53.2,115.3,53.2,115.5z"/>
				</g>
				<g id="XMLID_19297_">
					<polygon id="XMLID_19300_" fill="#4C4C4C" points="54,115.3 53.4,115.8 53,113.4 53.5,112.9 					"/>
					<polygon id="XMLID_19299_" fill="#636363" points="53,115.6 53.4,115.8 53,113.4 52.5,113.2 					"/>
					<polygon id="XMLID_19298_" fill="#757575" points="53.1,112.7 53.5,112.9 53,113.4 52.5,113.2 					"/>
				</g>
			</g>
		</g>
		<path id="XMLID_19294_" d="M53,111.4c-0.1-0.4-0.1-0.5-0.1-0.8c0,0,0,0,0,0c0-0.2,0-0.5-0.2-0.7c-0.4-0.6-1.2-0.8-1.6-0.8
			c-0.6,0-0.8,0.1-0.6,1.2c0,0,0-0.6,0.6-0.3c0.6,0.3,1.2,0.5,1,1c0,0-0.2,0.4,0.1,0.7c0.3,0.2,0.1,0.5,0.2,0.7
			c0.1,0.1,0.4,0.1,0.5,0c0,0,0.1-0.1,0-0.1C52.8,112.1,53.1,111.8,53,111.4z"/>
		<path id="XMLID_19293_" d="M51,111.9l-0.4-0.2v-0.4c0,0,0,0.2-0.1,0.2c-0.3,0.1-0.3,0.5-0.1,0.6c0.1,0,0.3,0.2,0.3,0.4
			c0,0.2,0.3-0.2,0.3-0.3V111.9z"/>
	</g>
	<g id="XMLID_19247_">
		<g id="XMLID_19250_">
			<g id="XMLID_19289_">
				<path id="XMLID_19291_" fill="#E8AC70" d="M71.5,122.6c0,0.4-0.2,0.7-0.4,0.7c-0.2,0-0.3-0.4-0.2-0.8c0-0.4,0.2-0.7,0.4-0.7
					C71.5,121.8,71.6,122.2,71.5,122.6z"/>
				<path id="XMLID_19290_" fill="#CC9860" d="M71.7,122.2c0,0.2,0,0.5-0.1,0.5s-0.2-0.1-0.2-0.3c0-0.2,0-0.5,0.1-0.5
					S71.7,122,71.7,122.2z"/>
			</g>
			<g id="XMLID_19285_">
				<polygon id="XMLID_19288_" fill="#4C4C4C" points="72,122.2 71.2,122.6 71.6,119.4 72.4,119 				"/>
				<polygon id="XMLID_19287_" fill="#636363" points="70.7,122.2 71.2,122.6 71.6,119.4 71,119 				"/>
				<polygon id="XMLID_19286_" fill="#757575" points="71.9,118.6 72.4,119 71.6,119.4 71,119 				"/>
			</g>
			<g id="XMLID_19281_">
				<polygon id="XMLID_19284_" fill="#282828" points="72,127.5 72,127.8 73.3,127 73.3,126.7 				"/>
				<polygon id="XMLID_19283_" fill="#5E5E5E" points="71.1,126.9 72,127.5 73.3,126.7 72.4,126.2 				"/>
				<polygon id="XMLID_19282_" fill="#494949" points="71.1,127.3 72,127.8 72,127.5 71.1,126.9 				"/>
			</g>
			<g id="XMLID_19278_">
				<polygon id="XMLID_19280_" fill="#8D3B00" points="71.7,126.4 72.8,127.1 72.8,122.9 71.7,122.2 				"/>
				<polygon id="XMLID_19279_" fill="#632800" points="73.5,126.7 72.8,127.1 72.8,122.9 73.5,122.5 				"/>
			</g>
			<g id="XMLID_19272_">
				<polygon id="XMLID_19277_" fill="#282828" points="73.8,128.5 73.8,128.9 75.1,128.1 75.1,127.8 				"/>
				<polygon id="XMLID_19276_" fill="#5E5E5E" points="72.9,128 73.8,128.5 75.1,127.8 74.3,127.2 				"/>
				<polygon id="XMLID_19275_" fill="#494949" points="72.9,128.3 73.8,128.9 73.8,128.5 72.9,128 				"/>
				<polygon id="XMLID_19274_" fill="#8D3B00" points="73.5,127.5 74.6,128.1 74.6,123.9 73.5,123.3 				"/>
				<polygon id="XMLID_19273_" fill="#632800" points="75.3,127.7 74.6,128.1 74.6,123.9 75.3,123.5 				"/>
			</g>
			<polygon id="XMLID_19271_" fill="#F2F2F2" points="71.4,119.2 72.5,118.5 75.4,120.1 74.3,120.8 			"/>
			<polygon id="XMLID_19270_" fill="#9FA3A3" points="74.4,124.9 75.4,124.3 75.4,120.1 74.3,120.8 			"/>
			<polygon id="XMLID_19267_" fill="#D4D8D8" points="71.5,123.3 74.4,124.9 74.3,120.8 71.4,119.2 			"/>
			<g id="XMLID_19263_">
				<polygon id="XMLID_19266_" fill="#C42D1E" points="72.6,117.7 73.1,117.4 74.4,118.1 73.9,118.4 				"/>
				<polygon id="XMLID_19265_" fill="#9B6E42" points="73.9,120.1 74.4,119.8 74.4,118.1 73.9,118.4 				"/>
				<polygon id="XMLID_19264_" fill="#CC9860" points="72.6,119.4 73.9,120.1 73.9,118.4 72.6,117.7 				"/>
			</g>
			<g id="XMLID_19259_">
				<polygon id="XMLID_19262_" fill="#F2BC81" points="72.1,116.1 72.9,115.6 74.9,116.8 74.2,117.3 				"/>
				<polygon id="XMLID_19261_" fill="#CC9860" points="74.2,120 74.9,119.5 74.9,116.8 74.2,117.3 				"/>
				<polygon id="XMLID_19260_" fill="#E8AC70" points="72.1,118.8 74.2,120 74.2,117.3 72.1,116.1 				"/>
			</g>
			<g id="XMLID_19251_">
				<g id="XMLID_19256_">
					<path id="XMLID_19258_" fill="#E8AC70" d="M75.5,124.2c0,0.4,0.1,0.7,0.3,0.7c0.2,0,0.3-0.4,0.3-0.8c0-0.4-0.1-0.7-0.3-0.7
						C75.6,123.5,75.5,123.8,75.5,124.2z"/>
					<path id="XMLID_19257_" fill="#CC9860" d="M75.3,123.9c-0.1,0.2-0.1,0.5,0,0.5c0.1,0.1,0.2-0.1,0.3-0.3c0.1-0.2,0.1-0.5,0-0.5
						C75.5,123.5,75.4,123.6,75.3,123.9z"/>
				</g>
				<g id="XMLID_19252_">
					<polygon id="XMLID_19255_" fill="#4C4C4C" points="76.4,123.6 75.6,124.3 75,121.1 75.8,120.5 					"/>
					<polygon id="XMLID_19254_" fill="#636363" points="75,124.1 75.6,124.3 75,121.1 74.4,120.9 					"/>
					<polygon id="XMLID_19253_" fill="#757575" points="75.2,120.3 75.8,120.5 75,121.1 74.4,120.9 					"/>
				</g>
			</g>
		</g>
		<path id="XMLID_19249_" fill="#552D00" d="M75.2,118.5c-0.1-0.5-0.1-0.6-0.2-1c0,0,0,0,0,0c0-0.3-0.1-0.7-0.2-0.9
			c-0.5-0.8-1.6-1-2-1c-0.7,0-1,0.2-0.8,1.6c0,0,0-0.8,0.7-0.4c0.7,0.4,1.5,0.7,1.3,1.3c0,0-0.2,0.5,0.2,0.8
			c0.3,0.3,0.2,0.7,0.2,0.9s0.5,0.1,0.6,0c0,0,0.1-0.1,0-0.2C74.9,119.5,75.3,119,75.2,118.5z"/>
		<path id="XMLID_19248_" fill="#552D00" d="M72.6,119.1l-0.6-0.3v-0.6c0,0,0,0.2-0.1,0.3c-0.4,0.1-0.4,0.6-0.1,0.7
			c0.1,0.1,0.4,0.3,0.4,0.6s0.3-0.2,0.4-0.4V119.1z"/>
	</g>
	<g id="XMLID_19164_">
		<g id="XMLID_19206_">
			<g id="XMLID_19244_">
				<path id="XMLID_19246_" fill="#3F2915" d="M59.7,119.9c0,0.3-0.1,0.5-0.3,0.5c-0.1,0-0.2-0.3-0.2-0.6c0-0.3,0.1-0.5,0.3-0.5
					C59.6,119.3,59.7,119.6,59.7,119.9z"/>
				<path id="XMLID_19245_" fill="#1E130B" d="M59.8,119.7c0,0.2,0,0.4-0.1,0.4c-0.1,0-0.2-0.1-0.2-0.2c0-0.2,0-0.4,0.1-0.4
					C59.7,119.4,59.8,119.5,59.8,119.7z"/>
			</g>
			<g id="XMLID_19240_">
				<polygon id="XMLID_19243_" fill="#4C4C4C" points="60.1,119.6 59.4,119.9 59.7,117.5 60.4,117.2 				"/>
				<polygon id="XMLID_19242_" fill="#636363" points="59,119.6 59.4,119.9 59.7,117.5 59.3,117.2 				"/>
				<polygon id="XMLID_19241_" fill="#757575" points="60,116.9 60.4,117.2 59.7,117.5 59.3,117.2 				"/>
			</g>
			<g id="XMLID_19236_">
				<polygon id="XMLID_19239_" fill="#282828" points="60.1,123.7 60.1,124 61.1,123.4 61.1,123.1 				"/>
				<polygon id="XMLID_19238_" fill="#5E5E5E" points="59.4,123.3 60.1,123.7 61.1,123.1 60.4,122.7 				"/>
				<polygon id="XMLID_19237_" fill="#494949" points="59.4,123.6 60.1,124 60.1,123.7 59.4,123.3 				"/>
			</g>
			<g id="XMLID_19233_">
				<polygon id="XMLID_19235_" fill="#1C1C7F" points="59.8,122.9 60.7,123.4 60.7,120.2 59.8,119.7 				"/>
				<polygon id="XMLID_19234_" fill="#0B0B56" points="61.3,123.1 60.7,123.4 60.7,120.2 61.3,119.8 				"/>
			</g>
			<g id="XMLID_19227_">
				<polygon id="XMLID_19232_" fill="#282828" points="61.5,124.5 61.5,124.8 62.5,124.2 62.5,124 				"/>
				<polygon id="XMLID_19231_" fill="#5E5E5E" points="60.8,124.1 61.5,124.5 62.5,124 61.8,123.6 				"/>
				<polygon id="XMLID_19230_" fill="#494949" points="60.8,124.4 61.5,124.8 61.5,124.5 60.8,124.1 				"/>
				<polygon id="XMLID_19229_" fill="#1C1C7F" points="61.3,123.8 62.1,124.3 62.1,121 61.3,120.5 				"/>
				<polygon id="XMLID_19228_" fill="#0B0B56" points="62.7,123.9 62.1,124.3 62.1,121 62.7,120.7 				"/>
			</g>
			<polygon id="XMLID_19226_" fill="#F2F2F2" points="59.6,117.3 60.4,116.7 62.7,118 61.8,118.5 			"/>
			<polygon id="XMLID_19225_" fill="#9FA3A3" points="62,121.7 62.7,121.3 62.7,118 61.8,118.5 			"/>
			<polygon id="XMLID_19224_" fill="#D4D8D8" points="59.7,120.5 62,121.7 61.8,118.5 59.6,117.3 			"/>
			<g id="XMLID_19220_">
				<polygon id="XMLID_19223_" fill="#C42D1E" points="60.5,116.2 60.8,116 61.8,116.5 61.4,116.8 				"/>
				<polygon id="XMLID_19222_" fill="#1E130B" points="61.4,118.1 61.8,117.8 61.8,116.5 61.4,116.8 				"/>
				<polygon id="XMLID_19221_" fill="#301F11" points="60.5,117.5 61.4,118.1 61.4,116.8 60.5,116.2 				"/>
			</g>
			<g id="XMLID_19216_">
				<polygon id="XMLID_19219_" fill="#F2BC81" points="60,115 60.6,114.6 62.3,115.5 61.6,115.9 				"/>
				<polygon id="XMLID_19218_" fill="#301F11" points="61.6,118 62.3,117.6 62.3,115.5 61.6,115.9 				"/>
				<polygon id="XMLID_19217_" fill="#3F2915" points="60,117.1 61.6,118 61.6,115.9 60,115 				"/>
			</g>
			<path id="XMLID_19215_" d="M60,115.8c0,0,0-0.6,0.5-0.3s1.1,0.5,1.1,1c0,0,0.4,0.2,0.6,0c0.1-0.1,0.1-0.9,0-1
				c-0.3-0.3-1.3-0.9-1.6-0.9C60.1,114.6,59.9,114.7,60,115.8z"/>
			<g id="XMLID_19207_">
				<g id="XMLID_19212_">
					<path id="XMLID_19214_" fill="#3F2915" d="M62.8,121.2c0,0.3,0.1,0.5,0.2,0.5c0.1,0,0.2-0.3,0.2-0.6c0-0.3-0.1-0.5-0.2-0.5
						C62.9,120.6,62.8,120.9,62.8,121.2z"/>
					<path id="XMLID_19213_" fill="#1E130B" d="M62.6,120.9c-0.1,0.2,0,0.4,0,0.4c0.1,0.1,0.2,0,0.2-0.2c0.1-0.2,0-0.4,0-0.4
						C62.8,120.7,62.7,120.8,62.6,120.9z"/>
				</g>
				<g id="XMLID_19208_">
					<polygon id="XMLID_19211_" fill="#4C4C4C" points="63.5,120.8 62.9,121.3 62.4,118.8 63,118.3 					"/>
					<polygon id="XMLID_19210_" fill="#636363" points="62.4,121.1 62.9,121.3 62.4,118.8 62,118.7 					"/>
					<polygon id="XMLID_19209_" fill="#757575" points="62.5,118.2 63,118.3 62.4,118.8 62,118.7 					"/>
				</g>
			</g>
		</g>
		<g id="XMLID_19165_">
			<g id="XMLID_19203_">
				<path id="XMLID_19205_" fill="#BA8556" d="M64.4,122.7c0,0.3-0.1,0.5-0.3,0.5c-0.1,0-0.2-0.3-0.2-0.6c0-0.3,0.1-0.5,0.3-0.5
					C64.4,122.1,64.5,122.3,64.4,122.7z"/>
				<path id="XMLID_19204_" fill="#845939" d="M64.6,122.4c0,0.2,0,0.4-0.1,0.4c-0.1,0.1-0.2-0.1-0.2-0.2c0-0.2,0-0.4,0.1-0.4
					C64.4,122.1,64.5,122.2,64.6,122.4z"/>
			</g>
			<g id="XMLID_19199_">
				<polygon id="XMLID_19202_" fill="#4C4C4C" points="64.8,122.4 64.2,122.7 64.5,120.2 65.1,119.9 				"/>
				<polygon id="XMLID_19201_" fill="#636363" points="63.8,122.3 64.2,122.7 64.5,120.2 64.1,119.9 				"/>
				<polygon id="XMLID_19200_" fill="#757575" points="64.7,119.6 65.1,119.9 64.5,120.2 64.1,119.9 				"/>
			</g>
			<g id="XMLID_19195_">
				<polygon id="XMLID_19198_" fill="#282828" points="64.8,126.5 64.8,126.7 65.8,126.1 65.8,125.9 				"/>
				<polygon id="XMLID_19197_" fill="#5E5E5E" points="64.1,126.1 64.8,126.5 65.8,125.9 65.1,125.5 				"/>
				<polygon id="XMLID_19196_" fill="#494949" points="64.1,126.3 64.8,126.7 64.8,126.5 64.1,126.1 				"/>
			</g>
			<g id="XMLID_19192_">
				<polygon id="XMLID_19194_" fill="#6A0078" points="64.6,125.7 65.4,126.2 65.4,122.9 64.6,122.4 				"/>
				<polygon id="XMLID_19193_" fill="#3D0149" points="66,125.8 65.4,126.2 65.4,122.9 66,122.6 				"/>
			</g>
			<g id="XMLID_19186_">
				<polygon id="XMLID_19191_" fill="#282828" points="66.2,127.3 66.2,127.5 67.2,127 67.2,126.7 				"/>
				<polygon id="XMLID_19190_" fill="#5E5E5E" points="65.5,126.9 66.2,127.3 67.2,126.7 66.6,126.3 				"/>
				<polygon id="XMLID_19189_" fill="#494949" points="65.5,127.1 66.2,127.5 66.2,127.3 65.5,126.9 				"/>
				<polygon id="XMLID_19188_" fill="#6A0078" points="66,126.5 66.8,127 66.8,123.7 66,123.2 				"/>
				<polygon id="XMLID_19187_" fill="#3D0149" points="67.4,126.7 66.8,127 66.8,123.7 67.4,123.4 				"/>
			</g>
			<polygon id="XMLID_19185_" fill="#F2F2F2" points="64.3,120 65.2,119.5 67.4,120.7 66.6,121.3 			"/>
			<polygon id="XMLID_19184_" fill="#9FA3A3" points="66.7,124.5 67.4,124 67.4,120.7 66.6,121.3 			"/>
			<polygon id="XMLID_19183_" fill="#D4D8D8" points="64.4,123.2 66.7,124.5 66.6,121.3 64.3,120 			"/>
			<g id="XMLID_19179_">
				<polygon id="XMLID_19182_" fill="#C42D1E" points="65.2,118.9 65.6,118.7 66.6,119.3 66.2,119.5 				"/>
				<polygon id="XMLID_19181_" fill="#5B3A24" points="66.2,120.8 66.6,120.6 66.6,119.3 66.2,119.5 				"/>
				<polygon id="XMLID_19180_" fill="#845939" points="65.2,120.2 66.2,120.8 66.2,119.5 65.2,118.9 				"/>
			</g>
			<g id="XMLID_19175_">
				<polygon id="XMLID_19178_" fill="#F2BC81" points="64.8,117.7 65.4,117.3 67,118.2 66.4,118.6 				"/>
				<polygon id="XMLID_19177_" fill="#845939" points="66.4,120.7 67,120.3 67,118.2 66.4,118.6 				"/>
				<polygon id="XMLID_19176_" fill="#BA8556" points="64.8,119.8 66.4,120.7 66.4,118.6 64.8,117.7 				"/>
			</g>
			<path id="XMLID_19174_" fill="#552D00" d="M64.8,118.6c0,0,0-0.6,0.6-0.3c0.6,0.3,1.1,0.5,1.1,1c0,0,0.4,0.2,0.6,0
				c0.1-0.1,0.1-0.9,0-1c-0.3-0.3-1.3-0.9-1.6-0.9C64.8,117.3,64.6,117.5,64.8,118.6z"/>
			<g id="XMLID_19166_">
				<g id="XMLID_19171_">
					<path id="XMLID_19173_" fill="#BA8556" d="M67.5,123.9c0,0.3,0.1,0.5,0.2,0.5c0.1,0,0.2-0.3,0.2-0.6c0-0.3-0.1-0.5-0.2-0.5
						C67.6,123.3,67.5,123.6,67.5,123.9z"/>
					<path id="XMLID_19172_" fill="#845939" d="M67.4,123.7c-0.1,0.2,0,0.4,0,0.4c0.1,0.1,0.2,0,0.2-0.2s0-0.4,0-0.4
						S67.4,123.5,67.4,123.7z"/>
				</g>
				<g id="XMLID_19167_">
					<polygon id="XMLID_19170_" fill="#4C4C4C" points="68.2,123.5 67.6,124 67.2,121.5 67.7,121.1 					"/>
					<polygon id="XMLID_19169_" fill="#636363" points="67.1,123.8 67.6,124 67.2,121.5 66.7,121.4 					"/>
					<polygon id="XMLID_19168_" fill="#757575" points="67.2,120.9 67.7,121.1 67.2,121.5 66.7,121.4 					"/>
				</g>
			</g>
		</g>
	</g>
</g>
</svg>
