<?xml version="1.0" encoding="utf-8"?>
<!-- Generator: Adobe Illustrator 16.0.0, SVG Export Plug-In . SVG Version: 6.00 Build 0)  -->
<!DOCTYPE svg PUBLIC "-//W3C//DTD SVG 1.1//EN" "http://www.w3.org/Graphics/SVG/1.1/DTD/svg11.dtd">
<svg version="1.1" id="Layer_1" xmlns="http://www.w3.org/2000/svg" xmlns:xlink="http://www.w3.org/1999/xlink" x="0px" y="0px"
	 width="164px" height="164px" viewBox="0 0 164 164" enable-background="new 0 0 164 164" xml:space="preserve">
<polyline id="XMLID_19034_" fill="none" points="89.1,102.3 89.1,102.3 74.9,94.1 74.9,110.5 74.9,110.5 "/>
<polyline id="XMLID_19033_" fill="none" points="74.9,110.5 89.1,118.6 89.1,102.3 "/>
<g id="XMLID_18992_">
	<g id="XMLID_19030_">
		<path id="XMLID_19032_" fill="#E8AC70" d="M60.1,115.9c0,0.4-0.2,0.7-0.4,0.7s-0.3-0.4-0.2-0.8s0.2-0.7,0.4-0.7
			S60.1,115.5,60.1,115.9z"/>
		<path id="XMLID_19031_" fill="#CC9860" d="M60.2,115.5c0,0.2,0,0.5-0.1,0.5s-0.2-0.1-0.2-0.3c0-0.2,0-0.5,0.1-0.5
			S60.2,115.3,60.2,115.5z"/>
	</g>
	<g id="XMLID_19026_">
		<polygon id="XMLID_19029_" fill="#4C4C4C" points="60.6,115.5 59.7,115.9 60.1,112.7 61,112.3 		"/>
		<polygon id="XMLID_19028_" fill="#636363" points="59.2,115.5 59.7,115.9 60.1,112.7 59.6,112.3 		"/>
		<polygon id="XMLID_19027_" fill="#757575" points="60.5,111.9 61,112.3 60.1,112.7 59.6,112.3 		"/>
	</g>
	<g id="XMLID_19022_">
		<polygon id="XMLID_19025_" fill="#282828" points="60.5,120.8 60.5,121.1 61.8,120.3 61.8,120 		"/>
		<polygon id="XMLID_19024_" fill="#5E5E5E" points="59.6,120.2 60.5,120.8 61.8,120 61,119.5 		"/>
		<polygon id="XMLID_19023_" fill="#494949" points="59.6,120.6 60.5,121.1 60.5,120.8 59.6,120.2 		"/>
	</g>
	<g id="XMLID_19019_">
		<polygon id="XMLID_19021_" fill="#292954" points="60.2,119.8 61.3,120.4 61.3,116.2 60.2,115.5 		"/>
		<polygon id="XMLID_19020_" fill="#161635" points="62.1,120 61.3,120.4 61.3,116.2 62.1,115.8 		"/>
	</g>
	<g id="XMLID_19013_">
		<polygon id="XMLID_19018_" fill="#282828" points="62.3,121.8 62.3,122.2 63.7,121.4 63.7,121.1 		"/>
		<polygon id="XMLID_19017_" fill="#5E5E5E" points="61.5,121.3 62.3,121.8 63.7,121.1 62.8,120.5 		"/>
		<polygon id="XMLID_19016_" fill="#494949" points="61.5,121.6 62.3,122.2 62.3,121.8 61.5,121.3 		"/>
		<polygon id="XMLID_19015_" fill="#292954" points="62.1,120.8 63.1,121.5 63.1,117.2 62.1,116.6 		"/>
		<polygon id="XMLID_19014_" fill="#161635" points="63.9,121 63.1,121.5 63.1,117.2 63.9,116.8 		"/>
	</g>
	<polygon id="XMLID_19012_" fill="#F2F2F2" points="59.9,112.5 61,111.8 63.9,113.4 62.8,114.1 	"/>
	<polygon id="XMLID_19011_" fill="#9FA3A3" points="63,118.2 63.9,117.6 63.9,113.4 62.8,114.1 	"/>
	<polygon id="XMLID_19010_" fill="#D4D8D8" points="60.1,116.6 63,118.2 62.8,114.1 59.9,112.5 	"/>
	<g id="XMLID_19006_">
		<polygon id="XMLID_19009_" fill="#C42D1E" points="61,111.1 61.5,110.8 62.8,111.5 62.3,111.8 		"/>
		<polygon id="XMLID_19008_" fill="#9B6E42" points="62.3,113.5 62.8,113.2 62.8,111.5 62.3,111.8 		"/>
		<polygon id="XMLID_19007_" fill="#CC9860" points="61,112.8 62.3,113.5 62.3,111.8 61,111.1 		"/>
	</g>
	<g id="XMLID_19002_">
		<polygon id="XMLID_19005_" fill="#F2BC81" points="60.5,109.5 61.3,109 63.3,110.2 62.6,110.7 		"/>
		<polygon id="XMLID_19004_" fill="#CC9860" points="62.6,113.4 63.3,112.9 63.3,110.2 62.6,110.7 		"/>
		<polygon id="XMLID_19003_" fill="#E8AC70" points="60.5,112.2 62.6,113.4 62.6,110.7 60.5,109.5 		"/>
	</g>
	<path id="XMLID_19001_" fill="#552D00" d="M60.5,110.6c0,0,0-0.8,0.7-0.4c0.7,0.4,1.4,0.7,1.4,1.3c0,0,0.5,0.3,0.8,0
		c0.2-0.2,0.2-1.1,0-1.3c-0.4-0.4-1.7-1.2-2.1-1.2C60.5,109,60.3,109.2,60.5,110.6z"/>
	<g id="XMLID_18993_">
		<g id="XMLID_18998_">
			<path id="XMLID_19000_" fill="#E8AC70" d="M64,117.5c0,0.4,0.1,0.7,0.3,0.7c0.2,0,0.3-0.4,0.3-0.8c0-0.4-0.1-0.7-0.3-0.7
				C64.1,116.8,64,117.1,64,117.5z"/>
			<path id="XMLID_18999_" fill="#CC9860" d="M63.8,117.2c-0.1,0.2-0.1,0.5,0,0.5c0.1,0.1,0.2-0.1,0.3-0.3s0.1-0.5,0-0.5
				C64,116.8,63.9,116.9,63.8,117.2z"/>
		</g>
		<g id="XMLID_18994_">
			<polygon id="XMLID_18997_" fill="#4C4C4C" points="64.9,117 64.2,117.6 63.6,114.4 64.3,113.8 			"/>
			<polygon id="XMLID_18996_" fill="#636363" points="63.6,117.4 64.2,117.6 63.6,114.4 63,114.2 			"/>
			<polygon id="XMLID_18995_" fill="#757575" points="63.7,113.6 64.3,113.8 63.6,114.4 63,114.2 			"/>
		</g>
	</g>
</g>
<g id="XMLID_18906_">
	<g id="XMLID_18952_">
		<g id="XMLID_18989_">
			<path id="XMLID_18991_" fill="#3F2915" d="M65.8,119.2c0,0.4-0.2,0.7-0.4,0.7c-0.2,0-0.3-0.4-0.2-0.8c0-0.4,0.2-0.7,0.4-0.7
				S65.8,118.8,65.8,119.2z"/>
			<path id="XMLID_18990_" fill="#1E130B" d="M66,118.9c0,0.2,0,0.5-0.1,0.5s-0.2-0.1-0.2-0.3c0-0.2,0-0.5,0.1-0.5
				S65.9,118.7,66,118.9z"/>
		</g>
		<g id="XMLID_18985_">
			<polygon id="XMLID_18988_" fill="#4C4C4C" points="66.3,118.8 65.4,119.2 65.8,116 66.7,115.6 			"/>
			<polygon id="XMLID_18987_" fill="#636363" points="64.9,118.8 65.4,119.2 65.8,116 65.3,115.6 			"/>
			<polygon id="XMLID_18986_" fill="#757575" points="66.2,115.3 66.7,115.6 65.8,116 65.3,115.6 			"/>
		</g>
		<g id="XMLID_18981_">
			<polygon id="XMLID_18984_" fill="#282828" points="66.3,124.1 66.3,124.5 67.6,123.7 67.6,123.3 			"/>
			<polygon id="XMLID_18983_" fill="#5E5E5E" points="65.4,123.6 66.3,124.1 67.6,123.3 66.7,122.8 			"/>
			<polygon id="XMLID_18982_" fill="#494949" points="65.4,123.9 66.3,124.5 66.3,124.1 65.4,123.6 			"/>
		</g>
		<g id="XMLID_18978_">
			<polygon id="XMLID_18980_" fill="#C6A000" points="66,123.1 67.1,123.7 67.1,119.5 66,118.9 			"/>
			<polygon id="XMLID_18979_" fill="#937702" points="67.8,123.3 67.1,123.7 67.1,119.5 67.8,119.1 			"/>
		</g>
		<g id="XMLID_18972_">
			<polygon id="XMLID_18977_" fill="#282828" points="68.1,125.2 68.1,125.5 69.4,124.7 69.4,124.4 			"/>
			<polygon id="XMLID_18976_" fill="#5E5E5E" points="67.2,124.6 68.1,125.2 69.4,124.4 68.5,123.9 			"/>
			<polygon id="XMLID_18975_" fill="#494949" points="67.2,125 68.1,125.5 68.1,125.2 67.2,124.6 			"/>
			<polygon id="XMLID_18974_" fill="#C6A000" points="67.8,124.2 68.9,124.8 68.9,120.6 67.8,119.9 			"/>
			<polygon id="XMLID_18973_" fill="#937702" points="69.6,124.4 68.9,124.8 68.9,120.6 69.6,120.2 			"/>
		</g>
		<polygon id="XMLID_18971_" fill="#F2F2F2" points="65.6,115.8 66.7,115.1 69.6,116.7 68.5,117.4 		"/>
		<polygon id="XMLID_18970_" fill="#9FA3A3" points="68.7,121.5 69.6,121 69.6,116.7 68.5,117.4 		"/>
		<polygon id="XMLID_18969_" fill="#D4D8D8" points="65.8,119.9 68.7,121.5 68.5,117.4 65.6,115.8 		"/>
		<g id="XMLID_18965_">
			<polygon id="XMLID_18968_" fill="#C42D1E" points="66.8,114.4 67.2,114.1 68.5,114.8 68,115.2 			"/>
			<polygon id="XMLID_18967_" fill="#1E130B" points="68,116.8 68.5,116.5 68.5,114.8 68,115.2 			"/>
			<polygon id="XMLID_18966_" fill="#301F11" points="66.8,116.1 68,116.8 68,115.2 66.8,114.4 			"/>
		</g>
		<g id="XMLID_18961_">
			<polygon id="XMLID_18964_" fill="#F2BC81" points="66.2,112.9 67,112.4 69.1,113.5 68.3,114 			"/>
			<polygon id="XMLID_18963_" fill="#301F11" points="68.3,116.7 69.1,116.2 69.1,113.5 68.3,114 			"/>
			<polygon id="XMLID_18962_" fill="#3F2915" points="66.2,115.6 68.3,116.7 68.3,114 66.2,112.9 			"/>
		</g>
		<g id="XMLID_18953_">
			<g id="XMLID_18958_">
				<path id="XMLID_18960_" fill="#3F2915" d="M69.7,120.8c0,0.4,0.1,0.7,0.3,0.7c0.2,0,0.3-0.4,0.3-0.8c0-0.4-0.1-0.7-0.3-0.7
					C69.9,120.1,69.7,120.4,69.7,120.8z"/>
				<path id="XMLID_18959_" fill="#1E130B" d="M69.6,120.5c-0.1,0.2-0.1,0.5,0,0.5c0.1,0.1,0.2-0.1,0.3-0.3c0.1-0.2,0.1-0.5,0-0.5
					C69.8,120.2,69.6,120.3,69.6,120.5z"/>
			</g>
			<g id="XMLID_18954_">
				<polygon id="XMLID_18957_" fill="#4C4C4C" points="70.6,120.3 69.9,120.9 69.3,117.8 70,117.2 				"/>
				<polygon id="XMLID_18956_" fill="#636363" points="69.3,120.7 69.9,120.9 69.3,117.8 68.7,117.6 				"/>
				<polygon id="XMLID_18955_" fill="#757575" points="69.4,116.9 70,117.2 69.3,117.8 68.7,117.6 				"/>
			</g>
		</g>
	</g>
	<path id="XMLID_18951_" d="M69.4,115.3c-0.1-0.5-0.1-0.6-0.2-1c0,0,0,0,0,0c0-0.3-0.1-0.7-0.2-0.9c-0.5-0.8-1.6-1-2-1
		c-0.7,0-1,0.2-0.8,1.6c0,0,0-0.8,0.7-0.4c0.7,0.4,1.5,0.7,1.3,1.3c0,0-0.2,0.5,0.2,0.8c0.3,0.3,0.2,0.7,0.2,0.9
		c0.1,0.2,0.5,0.1,0.6,0c0,0,0.1-0.1,0-0.2C69.1,116.2,69.4,115.8,69.4,115.3z"/>
	<path id="XMLID_18950_" d="M66.8,115.9l-0.5-0.3V115c0,0,0,0.2-0.1,0.3c-0.4,0.1-0.4,0.6-0.1,0.7c0.1,0.1,0.4,0.3,0.4,0.6
		c0,0.3,0.3-0.2,0.4-0.4V115.9z"/>
</g>
</svg>
