<?xml version="1.0" encoding="utf-8"?>
<!-- Generator: Adobe Illustrator 16.0.0, SVG Export Plug-In . SVG Version: 6.00 Build 0)  -->
<!DOCTYPE svg PUBLIC "-//W3C//DTD SVG 1.1//EN" "http://www.w3.org/Graphics/SVG/1.1/DTD/svg11.dtd">
<svg version="1.1" id="Layer_1" xmlns="http://www.w3.org/2000/svg" xmlns:xlink="http://www.w3.org/1999/xlink" x="0px" y="0px"
	 width="164px" height="164px" viewBox="0 0 164 164" enable-background="new 0 0 164 164" xml:space="preserve">
<polyline id="XMLID_19163_" fill="none" points="89.1,102.3 89.1,102.3 74.9,94.1 74.9,110.5 74.9,110.5 "/>
<polyline id="XMLID_19162_" fill="none" points="74.9,110.5 89.1,118.6 89.1,102.3 "/>
<g id="XMLID_19121_">
	<g id="XMLID_19159_">
		<path id="XMLID_19161_" fill="#E8AC70" d="M60.1,115.9c0,0.4-0.2,0.7-0.4,0.7s-0.3-0.4-0.2-0.8s0.2-0.7,0.4-0.7
			S60.1,115.5,60.1,115.9z"/>
		<path id="XMLID_19160_" fill="#CC9860" d="M60.2,115.5c0,0.2,0,0.5-0.1,0.5s-0.2-0.1-0.2-0.3c0-0.2,0-0.5,0.1-0.5
			C60.1,115.2,60.2,115.3,60.2,115.5z"/>
	</g>
	<g id="XMLID_19155_">
		<polygon id="XMLID_19158_" fill="#4C4C4C" points="60.6,115.5 59.7,115.9 60.1,112.7 61,112.3 		"/>
		<polygon id="XMLID_19157_" fill="#636363" points="59.2,115.5 59.7,115.9 60.1,112.7 59.6,112.3 		"/>
		<polygon id="XMLID_19156_" fill="#757575" points="60.5,111.9 61,112.3 60.1,112.7 59.6,112.3 		"/>
	</g>
	<g id="XMLID_19151_">
		<polygon id="XMLID_19154_" fill="#282828" points="60.5,120.8 60.5,121.1 61.8,120.3 61.8,120 		"/>
		<polygon id="XMLID_19153_" fill="#5E5E5E" points="59.6,120.2 60.5,120.8 61.8,120 61,119.5 		"/>
		<polygon id="XMLID_19152_" fill="#494949" points="59.6,120.6 60.5,121.1 60.5,120.8 59.6,120.2 		"/>
	</g>
	<g id="XMLID_19148_">
		<polygon id="XMLID_19150_" fill="#292954" points="60.2,119.8 61.3,120.4 61.3,116.2 60.2,115.5 		"/>
		<polygon id="XMLID_19149_" fill="#161635" points="62.1,120 61.3,120.4 61.3,116.2 62.1,115.8 		"/>
	</g>
	<g id="XMLID_19142_">
		<polygon id="XMLID_19147_" fill="#282828" points="62.3,121.8 62.3,122.2 63.7,121.4 63.7,121.1 		"/>
		<polygon id="XMLID_19146_" fill="#5E5E5E" points="61.5,121.3 62.3,121.8 63.7,121.1 62.8,120.5 		"/>
		<polygon id="XMLID_19145_" fill="#494949" points="61.5,121.6 62.3,122.2 62.3,121.8 61.5,121.3 		"/>
		<polygon id="XMLID_19144_" fill="#292954" points="62.1,120.8 63.1,121.5 63.1,117.2 62.1,116.6 		"/>
		<polygon id="XMLID_19143_" fill="#161635" points="63.9,121 63.1,121.5 63.1,117.2 63.9,116.8 		"/>
	</g>
	<polygon id="XMLID_19141_" fill="#F2F2F2" points="59.9,112.5 61,111.8 63.9,113.4 62.8,114.1 	"/>
	<polygon id="XMLID_19140_" fill="#9FA3A3" points="63,118.2 63.9,117.6 63.9,113.4 62.8,114.1 	"/>
	<polygon id="XMLID_19139_" fill="#D4D8D8" points="60.1,116.6 63,118.2 62.8,114.1 59.9,112.5 	"/>
	<g id="XMLID_19135_">
		<polygon id="XMLID_19138_" fill="#C42D1E" points="61,111.1 61.5,110.8 62.8,111.5 62.3,111.8 		"/>
		<polygon id="XMLID_19137_" fill="#9B6E42" points="62.3,113.5 62.8,113.2 62.8,111.5 62.3,111.8 		"/>
		<polygon id="XMLID_19136_" fill="#CC9860" points="61,112.8 62.3,113.5 62.3,111.8 61,111.1 		"/>
	</g>
	<g id="XMLID_19131_">
		<polygon id="XMLID_19134_" fill="#F2BC81" points="60.5,109.5 61.3,109 63.3,110.2 62.6,110.7 		"/>
		<polygon id="XMLID_19133_" fill="#CC9860" points="62.6,113.4 63.3,112.9 63.3,110.2 62.6,110.7 		"/>
		<polygon id="XMLID_19132_" fill="#E8AC70" points="60.5,112.2 62.6,113.4 62.6,110.7 60.5,109.5 		"/>
	</g>
	<path id="XMLID_19130_" fill="#552D00" d="M60.5,110.6c0,0,0-0.8,0.7-0.4s1.4,0.7,1.4,1.3c0,0,0.5,0.3,0.8,0c0.2-0.2,0.2-1.1,0-1.3
		c-0.4-0.4-1.7-1.2-2.1-1.2C60.5,109,60.3,109.2,60.5,110.6z"/>
	<g id="XMLID_19122_">
		<g id="XMLID_19127_">
			<path id="XMLID_19129_" fill="#E8AC70" d="M64,117.5c0,0.4,0.1,0.7,0.3,0.7c0.2,0,0.3-0.4,0.3-0.8c0-0.4-0.1-0.7-0.3-0.7
				C64.1,116.8,64,117.1,64,117.5z"/>
			<path id="XMLID_19128_" fill="#CC9860" d="M63.8,117.2c-0.1,0.2-0.1,0.5,0,0.5c0.1,0.1,0.2-0.1,0.3-0.3s0.1-0.5,0-0.5
				C64,116.8,63.9,116.9,63.8,117.2z"/>
		</g>
		<g id="XMLID_19123_">
			<polygon id="XMLID_19126_" fill="#4C4C4C" points="64.9,117 64.2,117.6 63.6,114.4 64.3,113.8 			"/>
			<polygon id="XMLID_19125_" fill="#636363" points="63.6,117.4 64.2,117.6 63.6,114.4 63,114.2 			"/>
			<polygon id="XMLID_19124_" fill="#757575" points="63.7,113.6 64.3,113.8 63.6,114.4 63,114.2 			"/>
		</g>
	</g>
</g>
<g id="XMLID_19078_">
	<g id="XMLID_19081_">
		<g id="XMLID_19118_">
			<path id="XMLID_19120_" fill="#3F2915" d="M65.8,119.2c0,0.4-0.2,0.7-0.4,0.7s-0.3-0.4-0.2-0.8c0-0.4,0.2-0.7,0.4-0.7
				S65.8,118.8,65.8,119.2z"/>
			<path id="XMLID_19119_" fill="#1E130B" d="M66,118.9c0,0.2,0,0.5-0.1,0.5s-0.2-0.1-0.2-0.3c0-0.2,0-0.5,0.1-0.5
				S65.9,118.7,66,118.9z"/>
		</g>
		<g id="XMLID_19114_">
			<polygon id="XMLID_19117_" fill="#4C4C4C" points="66.3,118.8 65.4,119.2 65.8,116 66.7,115.6 			"/>
			<polygon id="XMLID_19116_" fill="#636363" points="64.9,118.8 65.4,119.2 65.8,116 65.3,115.6 			"/>
			<polygon id="XMLID_19115_" fill="#757575" points="66.2,115.3 66.7,115.6 65.8,116 65.3,115.6 			"/>
		</g>
		<g id="XMLID_19110_">
			<polygon id="XMLID_19113_" fill="#282828" points="66.3,124.1 66.3,124.5 67.6,123.7 67.6,123.3 			"/>
			<polygon id="XMLID_19112_" fill="#5E5E5E" points="65.4,123.6 66.3,124.1 67.6,123.3 66.7,122.8 			"/>
			<polygon id="XMLID_19111_" fill="#494949" points="65.4,123.9 66.3,124.5 66.3,124.1 65.4,123.6 			"/>
		</g>
		<g id="XMLID_19107_">
			<polygon id="XMLID_19109_" fill="#C6A000" points="66,123.1 67.1,123.7 67.1,119.5 66,118.9 			"/>
			<polygon id="XMLID_19108_" fill="#937702" points="67.8,123.3 67.1,123.7 67.1,119.5 67.8,119.1 			"/>
		</g>
		<g id="XMLID_19101_">
			<polygon id="XMLID_19106_" fill="#282828" points="68.1,125.2 68.1,125.5 69.4,124.7 69.4,124.4 			"/>
			<polygon id="XMLID_19105_" fill="#5E5E5E" points="67.2,124.6 68.1,125.2 69.4,124.4 68.5,123.9 			"/>
			<polygon id="XMLID_19104_" fill="#494949" points="67.2,125 68.1,125.5 68.1,125.2 67.2,124.6 			"/>
			<polygon id="XMLID_19103_" fill="#C6A000" points="67.8,124.2 68.9,124.8 68.9,120.6 67.8,119.9 			"/>
			<polygon id="XMLID_19102_" fill="#937702" points="69.6,124.4 68.9,124.8 68.9,120.6 69.6,120.2 			"/>
		</g>
		<polygon id="XMLID_19100_" fill="#F2F2F2" points="65.6,115.8 66.7,115.1 69.6,116.7 68.5,117.4 		"/>
		<polygon id="XMLID_19099_" fill="#9FA3A3" points="68.7,121.5 69.6,121 69.6,116.7 68.5,117.4 		"/>
		<polygon id="XMLID_19098_" fill="#D4D8D8" points="65.8,119.9 68.7,121.5 68.5,117.4 65.6,115.8 		"/>
		<g id="XMLID_19094_">
			<polygon id="XMLID_19097_" fill="#C42D1E" points="66.8,114.4 67.2,114.1 68.5,114.8 68,115.2 			"/>
			<polygon id="XMLID_19096_" fill="#1E130B" points="68,116.8 68.5,116.5 68.5,114.8 68,115.2 			"/>
			<polygon id="XMLID_19095_" fill="#301F11" points="66.8,116.1 68,116.8 68,115.2 66.8,114.4 			"/>
		</g>
		<g id="XMLID_19090_">
			<polygon id="XMLID_19093_" fill="#F2BC81" points="66.2,112.9 67,112.4 69.1,113.5 68.3,114 			"/>
			<polygon id="XMLID_19092_" fill="#301F11" points="68.3,116.7 69.1,116.2 69.1,113.5 68.3,114 			"/>
			<polygon id="XMLID_19091_" fill="#3F2915" points="66.2,115.6 68.3,116.7 68.3,114 66.2,112.9 			"/>
		</g>
		<g id="XMLID_19082_">
			<g id="XMLID_19087_">
				<path id="XMLID_19089_" fill="#3F2915" d="M69.7,120.8c0,0.4,0.1,0.7,0.3,0.7c0.2,0,0.3-0.4,0.3-0.8c0-0.4-0.1-0.7-0.3-0.7
					C69.9,120.1,69.7,120.4,69.7,120.8z"/>
				<path id="XMLID_19088_" fill="#1E130B" d="M69.6,120.5c-0.1,0.2-0.1,0.5,0,0.5c0.1,0.1,0.2-0.1,0.3-0.3c0.1-0.2,0.1-0.5,0-0.5
					C69.8,120.2,69.6,120.3,69.6,120.5z"/>
			</g>
			<g id="XMLID_19083_">
				<polygon id="XMLID_19086_" fill="#4C4C4C" points="70.6,120.3 69.9,120.9 69.3,117.8 70,117.2 				"/>
				<polygon id="XMLID_19085_" fill="#636363" points="69.3,120.7 69.9,120.9 69.3,117.8 68.7,117.6 				"/>
				<polygon id="XMLID_19084_" fill="#757575" points="69.4,116.9 70,117.2 69.3,117.8 68.7,117.6 				"/>
			</g>
		</g>
	</g>
	<path id="XMLID_19080_" d="M69.4,115.3c-0.1-0.5-0.1-0.6-0.2-1c0,0,0,0,0,0c0-0.3-0.1-0.7-0.2-0.9c-0.5-0.8-1.6-1-2-1
		c-0.7,0-1,0.2-0.8,1.6c0,0,0-0.8,0.7-0.4c0.7,0.4,1.5,0.7,1.3,1.3c0,0-0.2,0.5,0.2,0.8c0.3,0.3,0.2,0.7,0.2,0.9
		c0.1,0.2,0.5,0.1,0.6,0c0,0,0.1-0.1,0-0.2C69.1,116.2,69.4,115.8,69.4,115.3z"/>
	<path id="XMLID_19079_" d="M66.8,115.9l-0.5-0.3V115c0,0,0,0.2-0.1,0.3c-0.4,0.1-0.4,0.6-0.1,0.7c0.1,0.1,0.4,0.3,0.4,0.6
		c0,0.3,0.3-0.2,0.4-0.4V115.9z"/>
</g>
<g id="XMLID_19035_">
	<g id="XMLID_19038_">
		<g id="XMLID_19075_">
			<path id="XMLID_19077_" fill="#E8AC70" d="M55,117.2c0,0.3-0.1,0.5-0.3,0.5c-0.1,0-0.2-0.3-0.2-0.6c0-0.3,0.1-0.5,0.3-0.5
				C54.9,116.6,55,116.9,55,117.2z"/>
			<path id="XMLID_19076_" fill="#CC9860" d="M55.1,116.9c0,0.2,0,0.4-0.1,0.4s-0.2-0.1-0.2-0.2c0-0.2,0-0.4,0.1-0.4
				C55,116.7,55.1,116.8,55.1,116.9z"/>
		</g>
		<g id="XMLID_19071_">
			<polygon id="XMLID_19074_" fill="#4C4C4C" points="55.4,116.9 54.7,117.2 55,114.7 55.7,114.4 			"/>
			<polygon id="XMLID_19073_" fill="#636363" points="54.3,116.9 54.7,117.2 55,114.7 54.6,114.4 			"/>
			<polygon id="XMLID_19072_" fill="#757575" points="55.3,114.1 55.7,114.4 55,114.7 54.6,114.4 			"/>
		</g>
		<g id="XMLID_19067_">
			<polygon id="XMLID_19070_" fill="#282828" points="55.3,121 55.3,121.3 56.4,120.7 56.4,120.4 			"/>
			<polygon id="XMLID_19069_" fill="#5E5E5E" points="54.6,120.6 55.3,121 56.4,120.4 55.7,120 			"/>
			<polygon id="XMLID_19068_" fill="#494949" points="54.6,120.9 55.3,121.3 55.3,121 54.6,120.6 			"/>
		</g>
		<g id="XMLID_19064_">
			<polygon id="XMLID_19066_" fill="#C6A000" points="55.1,120.2 55.9,120.7 55.9,117.4 55.1,116.9 			"/>
			<polygon id="XMLID_19065_" fill="#937702" points="56.5,120.4 55.9,120.7 55.9,117.4 56.5,117.1 			"/>
		</g>
		<g id="XMLID_19058_">
			<polygon id="XMLID_19063_" fill="#282828" points="56.8,121.8 56.8,122.1 57.8,121.5 57.8,121.3 			"/>
			<polygon id="XMLID_19062_" fill="#5E5E5E" points="56.1,121.4 56.8,121.8 57.8,121.3 57.1,120.8 			"/>
			<polygon id="XMLID_19061_" fill="#494949" points="56.1,121.7 56.8,122.1 56.8,121.8 56.1,121.4 			"/>
			<polygon id="XMLID_19060_" fill="#C6A000" points="56.5,121.1 57.4,121.6 57.4,118.3 56.5,117.8 			"/>
			<polygon id="XMLID_19059_" fill="#937702" points="58,121.2 57.4,121.6 57.4,118.3 58,117.9 			"/>
		</g>
		<polygon id="XMLID_19057_" fill="#F2F2F2" points="54.8,114.5 55.7,114 58,115.3 57.1,115.8 		"/>
		<polygon id="XMLID_19056_" fill="#9FA3A3" points="57.2,119 58,118.6 58,115.3 57.1,115.8 		"/>
		<polygon id="XMLID_19055_" fill="#D4D8D8" points="55,117.8 57.2,119 57.1,115.8 54.8,114.5 		"/>
		<g id="XMLID_19051_">
			<polygon id="XMLID_19054_" fill="#C42D1E" points="55.7,113.5 56.1,113.2 57.1,113.8 56.7,114 			"/>
			<polygon id="XMLID_19053_" fill="#9B6E42" points="56.7,115.3 57.1,115.1 57.1,113.8 56.7,114 			"/>
			<polygon id="XMLID_19052_" fill="#CC9860" points="55.7,114.8 56.7,115.3 56.7,114 55.7,113.5 			"/>
		</g>
		<g id="XMLID_19047_">
			<polygon id="XMLID_19050_" fill="#F2BC81" points="55.3,112.2 55.9,111.9 57.5,112.8 56.9,113.1 			"/>
			<polygon id="XMLID_19049_" fill="#CC9860" points="56.9,115.3 57.5,114.9 57.5,112.8 56.9,113.1 			"/>
			<polygon id="XMLID_19048_" fill="#E8AC70" points="55.3,114.3 56.9,115.3 56.9,113.1 55.3,112.2 			"/>
		</g>
		<g id="XMLID_19039_">
			<g id="XMLID_19044_">
				<path id="XMLID_19046_" fill="#E8AC70" d="M58,118.5c0,0.3,0.1,0.5,0.2,0.5c0.1,0,0.2-0.3,0.2-0.6c0-0.3-0.1-0.5-0.2-0.5
					C58.1,117.9,58,118.2,58,118.5z"/>
				<path id="XMLID_19045_" fill="#CC9860" d="M57.9,118.2c-0.1,0.2,0,0.4,0,0.4s0.2,0,0.2-0.2c0.1-0.2,0-0.4,0-0.4
					C58.1,117.9,58,118,57.9,118.2z"/>
			</g>
			<g id="XMLID_19040_">
				<polygon id="XMLID_19043_" fill="#4C4C4C" points="58.7,118 58.2,118.5 57.7,116.1 58.3,115.6 				"/>
				<polygon id="XMLID_19042_" fill="#636363" points="57.7,118.4 58.2,118.5 57.7,116.1 57.2,115.9 				"/>
				<polygon id="XMLID_19041_" fill="#757575" points="57.8,115.4 58.3,115.6 57.7,116.1 57.2,115.9 				"/>
			</g>
		</g>
	</g>
	<path id="XMLID_19037_" fill="#552D00" d="M57.8,114.1c-0.1-0.4-0.1-0.5-0.1-0.8c0,0,0,0,0,0c0-0.2,0-0.5-0.2-0.7
		c-0.4-0.6-1.2-0.8-1.6-0.8c-0.6,0-0.8,0.1-0.6,1.2c0,0,0-0.6,0.6-0.3c0.6,0.3,1.1,0.5,1,1c0,0-0.2,0.4,0.1,0.7
		c0.3,0.2,0.1,0.5,0.2,0.7s0.4,0.1,0.5,0c0,0,0.1-0.1,0-0.1C57.5,114.9,57.8,114.5,57.8,114.1z"/>
	<path id="XMLID_19036_" fill="#552D00" d="M55.7,114.6l-0.4-0.2v-0.4c0,0,0,0.2-0.1,0.2c-0.3,0.1-0.3,0.5-0.1,0.6
		c0.1,0,0.3,0.2,0.3,0.4c0,0.2,0.3-0.2,0.3-0.3V114.6z"/>
</g>
</svg>
