<?xml version="1.0" encoding="utf-8"?>
<!-- Generator: Adobe Illustrator 16.0.0, SVG Export Plug-In . SVG Version: 6.00 Build 0)  -->
<!DOCTYPE svg PUBLIC "-//W3C//DTD SVG 1.1//EN" "http://www.w3.org/Graphics/SVG/1.1/DTD/svg11.dtd">
<svg version="1.1" id="Layer_1" xmlns="http://www.w3.org/2000/svg" xmlns:xlink="http://www.w3.org/1999/xlink" x="0px" y="0px"
	 width="164px" height="164px" viewBox="0 0 164 164" enable-background="new 0 0 164 164" xml:space="preserve">
<g id="XMLID_19507_">
	<polyline id="XMLID_19896_" fill="none" points="89.1,102.3 89.1,102.3 74.9,94.1 74.9,110.5 74.9,110.5 	"/>
	<polyline id="XMLID_19893_" fill="none" points="74.9,110.5 89.1,118.6 89.1,102.3 	"/>
	<g id="XMLID_19839_">
		<g id="XMLID_19890_">
			<path id="XMLID_19892_" fill="#BA8556" d="M54.3,112.5c0,0.4-0.2,0.7-0.4,0.7s-0.3-0.4-0.2-0.8c0-0.4,0.2-0.7,0.4-0.7
				S54.3,112.1,54.3,112.5z"/>
			<path id="XMLID_19891_" fill="#5B3A24" d="M54.5,112.2c0,0.2,0,0.5-0.1,0.5s-0.2-0.1-0.2-0.3c0-0.2,0-0.5,0.1-0.5
				C54.3,111.8,54.4,112,54.5,112.2z"/>
		</g>
		<g id="XMLID_19885_">
			<polygon id="XMLID_19889_" fill="#4C4C4C" points="54.8,112.1 53.9,112.5 54.3,109.3 55.2,109 			"/>
			<polygon id="XMLID_19888_" fill="#636363" points="53.4,112.1 53.9,112.5 54.3,109.3 53.8,109 			"/>
			<polygon id="XMLID_19886_" fill="#757575" points="54.7,108.6 55.2,109 54.3,109.3 53.8,109 			"/>
		</g>
		<g id="XMLID_19880_">
			<polygon id="XMLID_19884_" fill="#282828" points="54.8,117.4 54.8,117.8 56.1,117 56.1,116.7 			"/>
			<polygon id="XMLID_19883_" fill="#5E5E5E" points="53.9,116.9 54.8,117.4 56.1,116.7 55.2,116.1 			"/>
			<polygon id="XMLID_19882_" fill="#494949" points="53.9,117.2 54.8,117.8 54.8,117.4 53.9,116.9 			"/>
		</g>
		<g id="XMLID_19877_">
			<polygon id="XMLID_19879_" fill="#6A0078" points="54.5,116.4 55.6,117.1 55.6,112.8 54.5,112.2 			"/>
			<polygon id="XMLID_19878_" fill="#3D0149" points="56.3,116.6 55.6,117.1 55.6,112.8 56.3,112.4 			"/>
		</g>
		<g id="XMLID_19870_">
			<polygon id="XMLID_19876_" fill="#282828" points="56.6,118.5 56.6,118.8 57.9,118.1 57.9,117.7 			"/>
			<polygon id="XMLID_19874_" fill="#5E5E5E" points="55.7,118 56.6,118.5 57.9,117.7 57,117.2 			"/>
			<polygon id="XMLID_19873_" fill="#494949" points="55.7,118.3 56.6,118.8 56.6,118.5 55.7,118 			"/>
			<polygon id="XMLID_19872_" fill="#6A0078" points="56.3,117.5 57.4,118.1 57.4,113.9 56.3,113.2 			"/>
			<polygon id="XMLID_19871_" fill="#3D0149" points="58.1,117.7 57.4,118.1 57.4,113.9 58.1,113.5 			"/>
		</g>
		<polygon id="XMLID_19868_" fill="#F2F2F2" points="54.2,109.1 55.3,108.4 58.1,110 57,110.7 		"/>
		<polygon id="XMLID_19867_" fill="#9FA3A3" points="57.2,114.9 58.1,114.3 58.1,110 57,110.7 		"/>
		<polygon id="XMLID_19866_" fill="#D4D8D8" points="54.3,113.2 57.2,114.9 57,110.7 54.2,109.1 		"/>
		<g id="XMLID_19861_">
			<polygon id="XMLID_19865_" fill="#C42D1E" points="55.3,107.7 55.8,107.4 57,108.2 56.5,108.5 			"/>
			<polygon id="XMLID_19864_" fill="#5B3A24" points="56.5,110.1 57,109.8 57,108.2 56.5,108.5 			"/>
			<polygon id="XMLID_19863_" fill="#845939" points="55.3,109.4 56.5,110.1 56.5,108.5 55.3,107.7 			"/>
		</g>
		<g id="XMLID_19857_">
			<polygon id="XMLID_19860_" fill="#F2BC81" points="54.7,106.2 55.5,105.7 57.6,106.8 56.8,107.3 			"/>
			<polygon id="XMLID_19859_" fill="#845939" points="56.8,110 57.6,109.5 57.6,106.8 56.8,107.3 			"/>
			<polygon id="XMLID_19858_" fill="#BA8556" points="54.7,108.9 56.8,110 56.8,107.3 54.7,106.2 			"/>
		</g>
		<path id="XMLID_19849_" fill="#552D00" d="M54.7,107.2c0,0,0-0.8,0.7-0.4c0.7,0.4,1.4,0.7,1.4,1.3c0,0,0.5,0.3,0.8,0
			c0.1-0.1,0.2-1.1,0-1.3c-0.4-0.4-1.7-1.2-2.1-1.2C54.8,105.7,54.5,105.8,54.7,107.2z"/>
		<g id="XMLID_19840_">
			<g id="XMLID_19846_">
				<path id="XMLID_19848_" fill="#BA8556" d="M58.2,114.2c0,0.4,0.1,0.7,0.3,0.7c0.2,0,0.3-0.4,0.3-0.8c0-0.4-0.1-0.7-0.3-0.7
					C58.4,113.4,58.2,113.8,58.2,114.2z"/>
				<path id="XMLID_19847_" fill="#5B3A24" d="M58.1,113.8c-0.1,0.2-0.1,0.5,0,0.5c0.1,0.1,0.2-0.1,0.3-0.3c0.1-0.2,0.1-0.5,0-0.5
					C58.3,113.5,58.1,113.6,58.1,113.8z"/>
			</g>
			<g id="XMLID_19841_">
				<polygon id="XMLID_19845_" fill="#4C4C4C" points="59.1,113.6 58.4,114.2 57.8,111.1 58.5,110.5 				"/>
				<polygon id="XMLID_19843_" fill="#636363" points="57.8,114 58.4,114.2 57.8,111.1 57.2,110.9 				"/>
				<polygon id="XMLID_19842_" fill="#757575" points="57.9,110.2 58.5,110.5 57.8,111.1 57.2,110.9 				"/>
			</g>
		</g>
	</g>
	<g id="XMLID_19779_">
		<g id="XMLID_19835_">
			<path id="XMLID_19837_" fill="#E8AC70" d="M60.1,115.9c0,0.4-0.2,0.7-0.4,0.7s-0.3-0.4-0.2-0.8c0-0.4,0.2-0.7,0.4-0.7
				S60.1,115.5,60.1,115.9z"/>
			<path id="XMLID_19836_" fill="#CC9860" d="M60.2,115.5c0,0.2,0,0.5-0.1,0.5s-0.2-0.1-0.2-0.3c0-0.2,0-0.5,0.1-0.5
				C60.1,115.2,60.2,115.3,60.2,115.5z"/>
		</g>
		<g id="XMLID_19830_">
			<polygon id="XMLID_19834_" fill="#4C4C4C" points="60.6,115.5 59.7,115.9 60.1,112.7 61,112.3 			"/>
			<polygon id="XMLID_19833_" fill="#636363" points="59.2,115.5 59.7,115.9 60.1,112.7 59.6,112.3 			"/>
			<polygon id="XMLID_19831_" fill="#757575" points="60.5,111.9 61,112.3 60.1,112.7 59.6,112.3 			"/>
		</g>
		<g id="XMLID_19825_">
			<polygon id="XMLID_19829_" fill="#282828" points="60.5,120.8 60.5,121.1 61.8,120.4 61.8,120 			"/>
			<polygon id="XMLID_19828_" fill="#5E5E5E" points="59.6,120.3 60.5,120.8 61.8,120 61,119.5 			"/>
			<polygon id="XMLID_19827_" fill="#494949" points="59.6,120.6 60.5,121.1 60.5,120.8 59.6,120.3 			"/>
		</g>
		<g id="XMLID_19822_">
			<polygon id="XMLID_19824_" fill="#292954" points="60.2,119.8 61.3,120.4 61.3,116.2 60.2,115.5 			"/>
			<polygon id="XMLID_19823_" fill="#161635" points="62.1,120 61.3,120.4 61.3,116.2 62.1,115.8 			"/>
		</g>
		<g id="XMLID_19815_">
			<polygon id="XMLID_19821_" fill="#282828" points="62.3,121.8 62.3,122.2 63.7,121.4 63.7,121.1 			"/>
			<polygon id="XMLID_19819_" fill="#5E5E5E" points="61.5,121.3 62.3,121.8 63.7,121.1 62.8,120.5 			"/>
			<polygon id="XMLID_19818_" fill="#494949" points="61.5,121.7 62.3,122.2 62.3,121.8 61.5,121.3 			"/>
			<polygon id="XMLID_19817_" fill="#292954" points="62.1,120.8 63.1,121.5 63.1,117.2 62.1,116.6 			"/>
			<polygon id="XMLID_19816_" fill="#161635" points="63.9,121 63.1,121.5 63.1,117.2 63.9,116.8 			"/>
		</g>
		<polygon id="XMLID_19814_" fill="#F2F2F2" points="59.9,112.5 61,111.8 63.9,113.4 62.8,114.1 		"/>
		<polygon id="XMLID_19812_" fill="#9FA3A3" points="63,118.2 63.9,117.6 63.9,113.4 62.8,114.1 		"/>
		<polygon id="XMLID_19811_" fill="#D4D8D8" points="60.1,116.6 63,118.2 62.8,114.1 59.9,112.5 		"/>
		<g id="XMLID_19806_">
			<polygon id="XMLID_19810_" fill="#C42D1E" points="61,111.1 61.5,110.8 62.8,111.5 62.3,111.8 			"/>
			<polygon id="XMLID_19809_" fill="#9B6E42" points="62.3,113.5 62.8,113.2 62.8,111.5 62.3,111.8 			"/>
			<polygon id="XMLID_19808_" fill="#CC9860" points="61,112.8 62.3,113.5 62.3,111.8 61,111.1 			"/>
		</g>
		<g id="XMLID_19802_">
			<polygon id="XMLID_19805_" fill="#F2BC81" points="60.5,109.5 61.3,109 63.3,110.2 62.6,110.7 			"/>
			<polygon id="XMLID_19804_" fill="#CC9860" points="62.6,113.4 63.3,112.9 63.3,110.2 62.6,110.7 			"/>
			<polygon id="XMLID_19803_" fill="#E8AC70" points="60.5,112.2 62.6,113.4 62.6,110.7 60.5,109.5 			"/>
		</g>
		<path id="XMLID_19789_" fill="#552D00" d="M60.5,110.6c0,0,0-0.8,0.7-0.4c0.7,0.4,1.4,0.7,1.4,1.3c0,0,0.5,0.3,0.8,0
			c0.1-0.1,0.2-1.1,0-1.3c-0.4-0.4-1.7-1.2-2.1-1.2C60.5,109,60.3,109.2,60.5,110.6z"/>
		<g id="XMLID_19780_">
			<g id="XMLID_19786_">
				<path id="XMLID_19788_" fill="#E8AC70" d="M64,117.5c0,0.4,0.1,0.7,0.3,0.7c0.2,0,0.3-0.4,0.3-0.8s-0.1-0.7-0.3-0.7
					C64.1,116.8,64,117.1,64,117.5z"/>
				<path id="XMLID_19787_" fill="#CC9860" d="M63.8,117.2c-0.1,0.2-0.1,0.5,0,0.5c0.1,0.1,0.2-0.1,0.3-0.3c0.1-0.2,0.1-0.5,0-0.5
					C64,116.8,63.9,117,63.8,117.2z"/>
			</g>
			<g id="XMLID_19781_">
				<polygon id="XMLID_19785_" fill="#4C4C4C" points="64.9,117 64.2,117.6 63.6,114.5 64.3,113.8 				"/>
				<polygon id="XMLID_19783_" fill="#636363" points="63.6,117.4 64.2,117.6 63.6,114.5 63,114.2 				"/>
				<polygon id="XMLID_19782_" fill="#757575" points="63.7,113.6 64.3,113.8 63.6,114.5 63,114.2 				"/>
			</g>
		</g>
	</g>
	<g id="XMLID_19717_">
		<g id="XMLID_19721_">
			<g id="XMLID_19775_">
				<path id="XMLID_19778_" fill="#3F2915" d="M65.8,119.2c0,0.4-0.2,0.7-0.4,0.7c-0.2,0-0.3-0.4-0.2-0.8s0.2-0.7,0.4-0.7
					C65.7,118.5,65.8,118.8,65.8,119.2z"/>
				<path id="XMLID_19776_" fill="#1E130B" d="M66,118.9c0,0.2,0,0.5-0.1,0.5c-0.1,0.1-0.2-0.1-0.2-0.3s0-0.5,0.1-0.5
					S65.9,118.7,66,118.9z"/>
			</g>
			<g id="XMLID_19770_">
				<polygon id="XMLID_19774_" fill="#4C4C4C" points="66.3,118.8 65.4,119.2 65.8,116 66.7,115.7 				"/>
				<polygon id="XMLID_19773_" fill="#636363" points="64.9,118.8 65.4,119.2 65.8,116 65.3,115.7 				"/>
				<polygon id="XMLID_19772_" fill="#757575" points="66.2,115.3 66.7,115.7 65.8,116 65.3,115.7 				"/>
			</g>
			<g id="XMLID_19766_">
				<polygon id="XMLID_19769_" fill="#282828" points="66.3,124.1 66.3,124.5 67.6,123.7 67.6,123.4 				"/>
				<polygon id="XMLID_19768_" fill="#5E5E5E" points="65.4,123.6 66.3,124.1 67.6,123.4 66.7,122.8 				"/>
				<polygon id="XMLID_19767_" fill="#494949" points="65.4,123.9 66.3,124.5 66.3,124.1 65.4,123.6 				"/>
			</g>
			<g id="XMLID_19758_">
				<polygon id="XMLID_19765_" fill="#C6A000" points="66,123.1 67.1,123.8 67.1,119.5 66,118.9 				"/>
				<polygon id="XMLID_19759_" fill="#937702" points="67.8,123.3 67.1,123.8 67.1,119.5 67.8,119.1 				"/>
			</g>
			<g id="XMLID_19750_">
				<polygon id="XMLID_19757_" fill="#282828" points="68.1,125.2 68.1,125.5 69.4,124.8 69.4,124.4 				"/>
				<polygon id="XMLID_19756_" fill="#5E5E5E" points="67.2,124.7 68.1,125.2 69.4,124.4 68.5,123.9 				"/>
				<polygon id="XMLID_19755_" fill="#494949" points="67.2,125 68.1,125.5 68.1,125.2 67.2,124.7 				"/>
				<polygon id="XMLID_19752_" fill="#C6A000" points="67.8,124.2 68.9,124.8 68.9,120.6 67.8,119.9 				"/>
				<polygon id="XMLID_19751_" fill="#937702" points="69.6,124.4 68.9,124.8 68.9,120.6 69.6,120.2 				"/>
			</g>
			<polygon id="XMLID_19749_" fill="#F2F2F2" points="65.6,115.8 66.7,115.1 69.6,116.7 68.5,117.4 			"/>
			<polygon id="XMLID_19748_" fill="#9FA3A3" points="68.7,121.6 69.6,121 69.6,116.7 68.5,117.4 			"/>
			<polygon id="XMLID_19745_" fill="#D4D8D8" points="65.8,119.9 68.7,121.6 68.5,117.4 65.6,115.8 			"/>
			<g id="XMLID_19741_">
				<polygon id="XMLID_19744_" fill="#C42D1E" points="66.8,114.4 67.2,114.1 68.5,114.9 68,115.2 				"/>
				<polygon id="XMLID_19743_" fill="#1E130B" points="68,116.8 68.5,116.5 68.5,114.9 68,115.2 				"/>
				<polygon id="XMLID_19742_" fill="#301F11" points="66.8,116.1 68,116.8 68,115.2 66.8,114.4 				"/>
			</g>
			<g id="XMLID_19735_">
				<polygon id="XMLID_19738_" fill="#F2BC81" points="66.2,112.9 67,112.4 69.1,113.5 68.3,114 				"/>
				<polygon id="XMLID_19737_" fill="#301F11" points="68.3,116.7 69.1,116.2 69.1,113.5 68.3,114 				"/>
				<polygon id="XMLID_19736_" fill="#3F2915" points="66.2,115.6 68.3,116.7 68.3,114 66.2,112.9 				"/>
			</g>
			<g id="XMLID_19722_">
				<g id="XMLID_19728_">
					<path id="XMLID_19734_" fill="#3F2915" d="M69.7,120.9c0,0.4,0.1,0.7,0.3,0.7c0.2,0,0.3-0.4,0.3-0.8c0-0.4-0.1-0.7-0.3-0.7
						S69.7,120.5,69.7,120.9z"/>
					<path id="XMLID_19729_" fill="#1E130B" d="M69.6,120.5c-0.1,0.2-0.1,0.5,0,0.5c0.1,0.1,0.2-0.1,0.3-0.3s0.1-0.5,0-0.5
						C69.8,120.2,69.6,120.3,69.6,120.5z"/>
				</g>
				<g id="XMLID_19723_">
					<polygon id="XMLID_19727_" fill="#4C4C4C" points="70.6,120.3 69.9,120.9 69.3,117.8 70,117.2 					"/>
					<polygon id="XMLID_19726_" fill="#636363" points="69.3,120.7 69.9,120.9 69.3,117.8 68.7,117.6 					"/>
					<polygon id="XMLID_19725_" fill="#757575" points="69.4,116.9 70,117.2 69.3,117.8 68.7,117.6 					"/>
				</g>
			</g>
		</g>
		<path id="XMLID_19720_" d="M69.4,115.3c-0.1-0.5-0.1-0.6-0.2-1c0,0,0,0,0,0c0-0.3-0.1-0.7-0.2-0.9c-0.5-0.8-1.6-1-2-1
			c-0.7,0-1,0.2-0.8,1.6c0,0,0-0.8,0.7-0.4s1.5,0.7,1.3,1.3c0,0-0.2,0.5,0.2,0.8c0.3,0.3,0.2,0.7,0.2,0.9s0.5,0.1,0.6,0
			c0,0,0.1-0.1,0-0.2C69.1,116.2,69.4,115.8,69.4,115.3z"/>
		<path id="XMLID_19719_" d="M66.8,115.9l-0.6-0.3V115c0,0,0,0.2-0.1,0.3c-0.4,0.1-0.4,0.6-0.1,0.7c0.1,0.1,0.4,0.3,0.4,0.6
			s0.3-0.2,0.4-0.4V115.9z"/>
	</g>
	<g id="XMLID_19667_">
		<g id="XMLID_19670_">
			<g id="XMLID_19714_">
				<path id="XMLID_19716_" fill="#E8AC70" d="M55,117.2c0,0.3-0.1,0.5-0.3,0.5c-0.1,0-0.2-0.3-0.2-0.6c0-0.3,0.1-0.5,0.3-0.5
					C54.9,116.6,55,116.9,55,117.2z"/>
				<path id="XMLID_19715_" fill="#CC9860" d="M55.1,116.9c0,0.2,0,0.4-0.1,0.4c-0.1,0-0.2-0.1-0.2-0.2c0-0.2,0-0.4,0.1-0.4
					C55,116.7,55.1,116.8,55.1,116.9z"/>
			</g>
			<g id="XMLID_19709_">
				<polygon id="XMLID_19713_" fill="#4C4C4C" points="55.4,116.9 54.7,117.2 55,114.7 55.7,114.4 				"/>
				<polygon id="XMLID_19711_" fill="#636363" points="54.3,116.9 54.7,117.2 55,114.7 54.6,114.4 				"/>
				<polygon id="XMLID_19710_" fill="#757575" points="55.3,114.1 55.7,114.4 55,114.7 54.6,114.4 				"/>
			</g>
			<g id="XMLID_19704_">
				<polygon id="XMLID_19708_" fill="#282828" points="55.3,121 55.3,121.3 56.4,120.7 56.4,120.4 				"/>
				<polygon id="XMLID_19707_" fill="#5E5E5E" points="54.6,120.6 55.3,121 56.4,120.4 55.7,120 				"/>
				<polygon id="XMLID_19706_" fill="#494949" points="54.6,120.9 55.3,121.3 55.3,121 54.6,120.6 				"/>
			</g>
			<g id="XMLID_19701_">
				<polygon id="XMLID_19703_" fill="#C6A000" points="55.1,120.2 55.9,120.7 55.9,117.4 55.1,116.9 				"/>
				<polygon id="XMLID_19702_" fill="#937702" points="56.5,120.4 55.9,120.7 55.9,117.4 56.5,117.1 				"/>
			</g>
			<g id="XMLID_19694_">
				<polygon id="XMLID_19700_" fill="#282828" points="56.7,121.9 56.7,122.1 57.8,121.5 57.8,121.3 				"/>
				<polygon id="XMLID_19698_" fill="#5E5E5E" points="56.1,121.4 56.7,121.9 57.8,121.3 57.1,120.9 				"/>
				<polygon id="XMLID_19697_" fill="#494949" points="56.1,121.7 56.7,122.1 56.7,121.9 56.1,121.4 				"/>
				<polygon id="XMLID_19696_" fill="#C6A000" points="56.5,121.1 57.4,121.6 57.4,118.3 56.5,117.8 				"/>
				<polygon id="XMLID_19695_" fill="#937702" points="57.9,121.2 57.4,121.6 57.4,118.3 57.9,117.9 				"/>
			</g>
			<polygon id="XMLID_19692_" fill="#F2F2F2" points="54.8,114.5 55.7,114 58,115.3 57.1,115.8 			"/>
			<polygon id="XMLID_19691_" fill="#9FA3A3" points="57.2,119 58,118.6 58,115.3 57.1,115.8 			"/>
			<polygon id="XMLID_19690_" fill="#D4D8D8" points="55,117.8 57.2,119 57.1,115.8 54.8,114.5 			"/>
			<g id="XMLID_19685_">
				<polygon id="XMLID_19689_" fill="#C42D1E" points="55.7,113.5 56.1,113.2 57.1,113.8 56.7,114 				"/>
				<polygon id="XMLID_19688_" fill="#9B6E42" points="56.7,115.3 57.1,115.1 57.1,113.8 56.7,114 				"/>
				<polygon id="XMLID_19687_" fill="#CC9860" points="55.7,114.8 56.7,115.3 56.7,114 55.7,113.5 				"/>
			</g>
			<g id="XMLID_19681_">
				<polygon id="XMLID_19684_" fill="#F2BC81" points="55.3,112.2 55.9,111.9 57.5,112.8 56.9,113.2 				"/>
				<polygon id="XMLID_19683_" fill="#CC9860" points="56.9,115.3 57.5,114.9 57.5,112.8 56.9,113.2 				"/>
				<polygon id="XMLID_19682_" fill="#E8AC70" points="55.3,114.4 56.9,115.3 56.9,113.2 55.3,112.2 				"/>
			</g>
			<g id="XMLID_19671_">
				<g id="XMLID_19677_">
					<path id="XMLID_19680_" fill="#E8AC70" d="M58,118.5c0,0.3,0.1,0.5,0.2,0.5c0.1,0,0.2-0.3,0.2-0.6c0-0.3-0.1-0.6-0.2-0.5
						C58.1,117.9,58,118.2,58,118.5z"/>
					<path id="XMLID_19678_" fill="#CC9860" d="M57.9,118.2c-0.1,0.2,0,0.4,0,0.4c0.1,0.1,0.2,0,0.2-0.2s0-0.4,0-0.4
						C58.1,117.9,58,118,57.9,118.2z"/>
				</g>
				<g id="XMLID_19673_">
					<polygon id="XMLID_19676_" fill="#4C4C4C" points="58.7,118 58.2,118.5 57.7,116.1 58.3,115.6 					"/>
					<polygon id="XMLID_19675_" fill="#636363" points="57.7,118.4 58.2,118.5 57.7,116.1 57.2,115.9 					"/>
					<polygon id="XMLID_19674_" fill="#757575" points="57.8,115.4 58.3,115.6 57.7,116.1 57.2,115.9 					"/>
				</g>
			</g>
		</g>
		<path id="XMLID_19669_" fill="#552D00" d="M57.8,114.1c-0.1-0.4-0.1-0.5-0.1-0.8c0,0,0,0,0,0c0-0.2,0-0.5-0.2-0.7
			c-0.4-0.6-1.2-0.8-1.6-0.8c-0.6,0-0.8,0.1-0.6,1.2c0,0,0-0.6,0.6-0.3c0.6,0.3,1.1,0.5,1,1c0,0-0.2,0.4,0.1,0.7
			c0.3,0.2,0.1,0.5,0.2,0.7s0.4,0.1,0.5,0c0,0,0.1-0.1,0-0.1S57.8,114.5,57.8,114.1z"/>
		<path id="XMLID_19668_" fill="#552D00" d="M55.7,114.6l-0.4-0.2v-0.4c0,0,0,0.2-0.1,0.2c-0.3,0.1-0.3,0.5-0.1,0.6
			c0.1,0,0.3,0.2,0.3,0.4c0,0.2,0.3-0.2,0.3-0.3V114.6z"/>
	</g>
	<g id="XMLID_19593_">
		<g id="XMLID_19596_">
			<g id="XMLID_19663_">
				<path id="XMLID_19665_" fill="#E8AC70" d="M71.5,122.6c0,0.4-0.2,0.7-0.4,0.7s-0.3-0.4-0.2-0.8c0-0.4,0.2-0.7,0.4-0.7
					C71.5,121.8,71.6,122.2,71.5,122.6z"/>
				<path id="XMLID_19664_" fill="#CC9860" d="M71.7,122.2c0,0.2,0,0.5-0.1,0.5s-0.2-0.1-0.2-0.3c0-0.2,0-0.5,0.1-0.5
					S71.7,122,71.7,122.2z"/>
			</g>
			<g id="XMLID_19658_">
				<polygon id="XMLID_19662_" fill="#4C4C4C" points="72,122.2 71.2,122.6 71.6,119.4 72.4,119 				"/>
				<polygon id="XMLID_19661_" fill="#636363" points="70.7,122.2 71.2,122.6 71.6,119.4 71,119 				"/>
				<polygon id="XMLID_19659_" fill="#757575" points="71.9,118.6 72.4,119 71.6,119.4 71,119 				"/>
			</g>
			<g id="XMLID_19654_">
				<polygon id="XMLID_19657_" fill="#282828" points="72,127.5 72,127.8 73.3,127 73.3,126.7 				"/>
				<polygon id="XMLID_19656_" fill="#5E5E5E" points="71.1,126.9 72,127.5 73.3,126.7 72.4,126.2 				"/>
				<polygon id="XMLID_19655_" fill="#494949" points="71.1,127.3 72,127.8 72,127.5 71.1,126.9 				"/>
			</g>
			<g id="XMLID_19649_">
				<polygon id="XMLID_19651_" fill="#8D3B00" points="71.7,126.4 72.8,127.1 72.8,122.9 71.7,122.2 				"/>
				<polygon id="XMLID_19650_" fill="#632800" points="73.5,126.7 72.8,127.1 72.8,122.9 73.5,122.5 				"/>
			</g>
			<g id="XMLID_19641_">
				<polygon id="XMLID_19648_" fill="#282828" points="73.8,128.5 73.8,128.9 75.1,128.1 75.1,127.8 				"/>
				<polygon id="XMLID_19647_" fill="#5E5E5E" points="72.9,128 73.8,128.5 75.1,127.8 74.3,127.2 				"/>
				<polygon id="XMLID_19644_" fill="#494949" points="72.9,128.3 73.8,128.9 73.8,128.5 72.9,128 				"/>
				<polygon id="XMLID_19643_" fill="#8D3B00" points="73.5,127.5 74.6,128.1 74.6,123.9 73.5,123.3 				"/>
				<polygon id="XMLID_19642_" fill="#632800" points="75.3,127.7 74.6,128.1 74.6,123.9 75.3,123.5 				"/>
			</g>
			<polygon id="XMLID_19640_" fill="#F2F2F2" points="71.4,119.2 72.5,118.5 75.4,120.1 74.3,120.8 			"/>
			<polygon id="XMLID_19639_" fill="#9FA3A3" points="74.4,124.9 75.4,124.3 75.4,120.1 74.3,120.8 			"/>
			<polygon id="XMLID_19637_" fill="#D4D8D8" points="71.5,123.3 74.4,124.9 74.3,120.8 71.4,119.2 			"/>
			<g id="XMLID_19631_">
				<polygon id="XMLID_19636_" fill="#C42D1E" points="72.6,117.7 73.1,117.4 74.4,118.1 73.9,118.4 				"/>
				<polygon id="XMLID_19634_" fill="#9B6E42" points="73.9,120.1 74.4,119.8 74.4,118.1 73.9,118.4 				"/>
				<polygon id="XMLID_19633_" fill="#CC9860" points="72.6,119.4 73.9,120.1 73.9,118.4 72.6,117.7 				"/>
			</g>
			<g id="XMLID_19623_">
				<polygon id="XMLID_19630_" fill="#F2BC81" points="72.1,116.1 72.9,115.6 74.9,116.8 74.2,117.3 				"/>
				<polygon id="XMLID_19625_" fill="#CC9860" points="74.2,120 74.9,119.5 74.9,116.8 74.2,117.3 				"/>
				<polygon id="XMLID_19624_" fill="#E8AC70" points="72.1,118.8 74.2,120 74.2,117.3 72.1,116.1 				"/>
			</g>
			<g id="XMLID_19597_">
				<g id="XMLID_19603_">
					<path id="XMLID_19622_" fill="#E8AC70" d="M75.5,124.2c0,0.4,0.1,0.7,0.3,0.7c0.2,0,0.3-0.4,0.3-0.8c0-0.4-0.1-0.7-0.3-0.7
						C75.6,123.5,75.5,123.8,75.5,124.2z"/>
					<path id="XMLID_19621_" fill="#CC9860" d="M75.3,123.9c-0.1,0.2-0.1,0.5,0,0.5c0.1,0.1,0.2-0.1,0.3-0.3c0.1-0.2,0.1-0.5,0-0.5
						C75.5,123.5,75.4,123.6,75.3,123.9z"/>
				</g>
				<g id="XMLID_19598_">
					<polygon id="XMLID_19602_" fill="#4C4C4C" points="76.4,123.6 75.6,124.3 75,121.1 75.8,120.5 					"/>
					<polygon id="XMLID_19601_" fill="#636363" points="75,124.1 75.6,124.3 75,121.1 74.4,120.9 					"/>
					<polygon id="XMLID_19600_" fill="#757575" points="75.2,120.3 75.8,120.5 75,121.1 74.4,120.9 					"/>
				</g>
			</g>
		</g>
		<path id="XMLID_19595_" fill="#552D00" d="M75.2,118.5c-0.1-0.5-0.1-0.6-0.2-1c0,0,0,0,0,0c0-0.3-0.1-0.7-0.2-0.9
			c-0.5-0.8-1.6-1-2-1c-0.7,0-1,0.2-0.8,1.6c0,0,0-0.8,0.7-0.4c0.7,0.4,1.5,0.7,1.3,1.3c0,0-0.2,0.5,0.2,0.8
			c0.3,0.3,0.2,0.7,0.2,0.9c0.1,0.2,0.5,0.1,0.6,0c0,0,0.1-0.1,0-0.2C74.9,119.5,75.3,119,75.2,118.5z"/>
		<path id="XMLID_19594_" fill="#552D00" d="M72.6,119.1l-0.6-0.3v-0.6c0,0,0,0.2-0.1,0.3c-0.4,0.1-0.4,0.6-0.1,0.7
			c0.1,0.1,0.4,0.3,0.4,0.6s0.3-0.2,0.4-0.4V119.1z"/>
	</g>
	<g id="XMLID_19508_">
		<g id="XMLID_19550_">
			<g id="XMLID_19590_">
				<path id="XMLID_19592_" fill="#3F2915" d="M59.7,119.9c0,0.3-0.1,0.5-0.3,0.5c-0.1,0-0.2-0.3-0.2-0.6c0-0.3,0.1-0.5,0.3-0.5
					C59.6,119.3,59.7,119.6,59.7,119.9z"/>
				<path id="XMLID_19591_" fill="#1E130B" d="M59.8,119.7c0,0.2,0,0.4-0.1,0.4c-0.1,0-0.2-0.1-0.2-0.2c0-0.2,0-0.4,0.1-0.4
					C59.7,119.4,59.8,119.5,59.8,119.7z"/>
			</g>
			<g id="XMLID_19585_">
				<polygon id="XMLID_19589_" fill="#4C4C4C" points="60.1,119.6 59.4,119.9 59.7,117.5 60.4,117.2 				"/>
				<polygon id="XMLID_19587_" fill="#636363" points="59,119.6 59.4,119.9 59.7,117.5 59.3,117.2 				"/>
				<polygon id="XMLID_19586_" fill="#757575" points="60,116.9 60.4,117.2 59.7,117.5 59.3,117.2 				"/>
			</g>
			<g id="XMLID_19580_">
				<polygon id="XMLID_19584_" fill="#282828" points="60.1,123.7 60.1,124 61.1,123.4 61.1,123.1 				"/>
				<polygon id="XMLID_19582_" fill="#5E5E5E" points="59.4,123.3 60.1,123.7 61.1,123.1 60.4,122.7 				"/>
				<polygon id="XMLID_19581_" fill="#494949" points="59.4,123.6 60.1,124 60.1,123.7 59.4,123.3 				"/>
			</g>
			<g id="XMLID_19577_">
				<polygon id="XMLID_19579_" fill="#1C1C7F" points="59.8,122.9 60.7,123.4 60.7,120.2 59.8,119.7 				"/>
				<polygon id="XMLID_19578_" fill="#0B0B56" points="61.3,123.1 60.7,123.4 60.7,120.2 61.3,119.8 				"/>
			</g>
			<g id="XMLID_19571_">
				<polygon id="XMLID_19576_" fill="#282828" points="61.5,124.5 61.5,124.8 62.5,124.2 62.5,124 				"/>
				<polygon id="XMLID_19575_" fill="#5E5E5E" points="60.8,124.1 61.5,124.5 62.5,124 61.8,123.6 				"/>
				<polygon id="XMLID_19574_" fill="#494949" points="60.8,124.4 61.5,124.8 61.5,124.5 60.8,124.1 				"/>
				<polygon id="XMLID_19573_" fill="#1C1C7F" points="61.3,123.8 62.1,124.3 62.1,121 61.3,120.5 				"/>
				<polygon id="XMLID_19572_" fill="#0B0B56" points="62.7,123.9 62.1,124.3 62.1,121 62.7,120.7 				"/>
			</g>
			<polygon id="XMLID_19570_" fill="#F2F2F2" points="59.6,117.3 60.4,116.7 62.7,118 61.8,118.5 			"/>
			<polygon id="XMLID_19569_" fill="#9FA3A3" points="62,121.7 62.7,121.3 62.7,118 61.8,118.5 			"/>
			<polygon id="XMLID_19568_" fill="#D4D8D8" points="59.7,120.5 62,121.7 61.8,118.5 59.6,117.3 			"/>
			<g id="XMLID_19564_">
				<polygon id="XMLID_19567_" fill="#C42D1E" points="60.5,116.2 60.8,116 61.8,116.5 61.4,116.8 				"/>
				<polygon id="XMLID_19566_" fill="#1E130B" points="61.4,118.1 61.8,117.8 61.8,116.5 61.4,116.8 				"/>
				<polygon id="XMLID_19565_" fill="#301F11" points="60.5,117.5 61.4,118.1 61.4,116.8 60.5,116.2 				"/>
			</g>
			<g id="XMLID_19560_">
				<polygon id="XMLID_19563_" fill="#F2BC81" points="60,115 60.6,114.6 62.3,115.5 61.6,115.9 				"/>
				<polygon id="XMLID_19562_" fill="#301F11" points="61.6,118 62.3,117.6 62.3,115.5 61.6,115.9 				"/>
				<polygon id="XMLID_19561_" fill="#3F2915" points="60,117.1 61.6,118 61.6,115.9 60,115 				"/>
			</g>
			<path id="XMLID_19559_" d="M60,115.8c0,0,0-0.6,0.5-0.3s1.1,0.5,1.1,1c0,0,0.4,0.2,0.6,0c0.1-0.1,0.1-0.9,0-1
				c-0.3-0.3-1.3-0.9-1.6-0.9C60.1,114.6,59.9,114.7,60,115.8z"/>
			<g id="XMLID_19551_">
				<g id="XMLID_19556_">
					<path id="XMLID_19558_" fill="#3F2915" d="M62.8,121.2c0,0.3,0.1,0.5,0.2,0.5c0.1,0,0.2-0.3,0.2-0.6c0-0.3-0.1-0.5-0.2-0.5
						S62.8,120.9,62.8,121.2z"/>
					<path id="XMLID_19557_" fill="#1E130B" d="M62.6,120.9c-0.1,0.2,0,0.4,0,0.4c0.1,0.1,0.2,0,0.2-0.2c0.1-0.2,0-0.4,0-0.4
						C62.8,120.7,62.7,120.8,62.6,120.9z"/>
				</g>
				<g id="XMLID_19552_">
					<polygon id="XMLID_19555_" fill="#4C4C4C" points="63.5,120.8 62.9,121.3 62.4,118.8 63,118.3 					"/>
					<polygon id="XMLID_19554_" fill="#636363" points="62.4,121.1 62.9,121.3 62.4,118.8 62,118.7 					"/>
					<polygon id="XMLID_19553_" fill="#757575" points="62.5,118.2 63,118.3 62.4,118.8 62,118.7 					"/>
				</g>
			</g>
		</g>
		<g id="XMLID_19509_">
			<g id="XMLID_19547_">
				<path id="XMLID_19549_" fill="#BA8556" d="M64.4,122.7c0,0.3-0.1,0.5-0.3,0.5c-0.1,0-0.2-0.3-0.2-0.6c0-0.3,0.1-0.5,0.3-0.5
					C64.4,122.1,64.5,122.3,64.4,122.7z"/>
				<path id="XMLID_19548_" fill="#845939" d="M64.6,122.4c0,0.2,0,0.4-0.1,0.4c-0.1,0.1-0.2-0.1-0.2-0.2c0-0.2,0-0.4,0.1-0.4
					C64.4,122.1,64.5,122.2,64.6,122.4z"/>
			</g>
			<g id="XMLID_19543_">
				<polygon id="XMLID_19546_" fill="#4C4C4C" points="64.8,122.4 64.2,122.7 64.5,120.2 65.1,119.9 				"/>
				<polygon id="XMLID_19545_" fill="#636363" points="63.8,122.3 64.2,122.7 64.5,120.2 64.1,119.9 				"/>
				<polygon id="XMLID_19544_" fill="#757575" points="64.7,119.6 65.1,119.9 64.5,120.2 64.1,119.9 				"/>
			</g>
			<g id="XMLID_19539_">
				<polygon id="XMLID_19542_" fill="#282828" points="64.8,126.5 64.8,126.7 65.8,126.1 65.8,125.9 				"/>
				<polygon id="XMLID_19541_" fill="#5E5E5E" points="64.1,126.1 64.8,126.5 65.8,125.9 65.1,125.5 				"/>
				<polygon id="XMLID_19540_" fill="#494949" points="64.1,126.3 64.8,126.7 64.8,126.5 64.1,126.1 				"/>
			</g>
			<g id="XMLID_19536_">
				<polygon id="XMLID_19538_" fill="#6A0078" points="64.6,125.7 65.4,126.2 65.4,122.9 64.6,122.4 				"/>
				<polygon id="XMLID_19537_" fill="#3D0149" points="66,125.8 65.4,126.2 65.4,122.9 66,122.6 				"/>
			</g>
			<g id="XMLID_19530_">
				<polygon id="XMLID_19535_" fill="#282828" points="66.2,127.3 66.2,127.5 67.2,127 67.2,126.7 				"/>
				<polygon id="XMLID_19534_" fill="#5E5E5E" points="65.5,126.9 66.2,127.3 67.2,126.7 66.6,126.3 				"/>
				<polygon id="XMLID_19533_" fill="#494949" points="65.5,127.1 66.2,127.5 66.2,127.3 65.5,126.9 				"/>
				<polygon id="XMLID_19532_" fill="#6A0078" points="66,126.5 66.8,127 66.8,123.7 66,123.2 				"/>
				<polygon id="XMLID_19531_" fill="#3D0149" points="67.4,126.7 66.8,127 66.8,123.7 67.4,123.4 				"/>
			</g>
			<polygon id="XMLID_19529_" fill="#F2F2F2" points="64.3,120 65.2,119.5 67.4,120.7 66.6,121.3 			"/>
			<polygon id="XMLID_19528_" fill="#9FA3A3" points="66.7,124.5 67.4,124 67.4,120.7 66.6,121.3 			"/>
			<polygon id="XMLID_19527_" fill="#D4D8D8" points="64.4,123.2 66.7,124.5 66.6,121.3 64.3,120 			"/>
			<g id="XMLID_19523_">
				<polygon id="XMLID_19526_" fill="#C42D1E" points="65.2,118.9 65.6,118.7 66.6,119.3 66.2,119.5 				"/>
				<polygon id="XMLID_19525_" fill="#5B3A24" points="66.2,120.8 66.6,120.6 66.6,119.3 66.2,119.5 				"/>
				<polygon id="XMLID_19524_" fill="#845939" points="65.2,120.2 66.2,120.8 66.2,119.5 65.2,118.9 				"/>
			</g>
			<g id="XMLID_19519_">
				<polygon id="XMLID_19522_" fill="#F2BC81" points="64.8,117.7 65.4,117.3 67,118.2 66.4,118.6 				"/>
				<polygon id="XMLID_19521_" fill="#845939" points="66.4,120.7 67,120.3 67,118.2 66.4,118.6 				"/>
				<polygon id="XMLID_19520_" fill="#BA8556" points="64.8,119.8 66.4,120.7 66.4,118.6 64.8,117.7 				"/>
			</g>
			<path id="XMLID_19518_" fill="#552D00" d="M64.8,118.6c0,0,0-0.6,0.5-0.3s1.1,0.5,1.1,1c0,0,0.4,0.2,0.6,0c0.1-0.1,0.1-0.9,0-1
				c-0.3-0.3-1.3-0.9-1.6-0.9C64.8,117.3,64.6,117.5,64.8,118.6z"/>
			<g id="XMLID_19510_">
				<g id="XMLID_19515_">
					<path id="XMLID_19517_" fill="#BA8556" d="M67.5,123.9c0,0.3,0.1,0.5,0.2,0.5c0.1,0,0.2-0.3,0.2-0.6c0-0.3-0.1-0.5-0.2-0.5
						C67.6,123.3,67.5,123.6,67.5,123.9z"/>
					<path id="XMLID_19516_" fill="#845939" d="M67.4,123.7c-0.1,0.2,0,0.4,0,0.4c0.1,0.1,0.2,0,0.2-0.2s0-0.4,0-0.4
						S67.4,123.5,67.4,123.7z"/>
				</g>
				<g id="XMLID_19511_">
					<polygon id="XMLID_19514_" fill="#4C4C4C" points="68.2,123.5 67.6,124 67.2,121.5 67.7,121.1 					"/>
					<polygon id="XMLID_19513_" fill="#636363" points="67.1,123.8 67.6,124 67.2,121.5 66.7,121.4 					"/>
					<polygon id="XMLID_19512_" fill="#757575" points="67.2,120.9 67.7,121.1 67.2,121.5 66.7,121.4 					"/>
				</g>
			</g>
		</g>
	</g>
</g>
</svg>
