<?xml version="1.0" encoding="utf-8"?>
<!-- Generator: Adobe Illustrator 16.0.0, SVG Export Plug-In . SVG Version: 6.00 Build 0)  -->
<!DOCTYPE svg PUBLIC "-//W3C//DTD SVG 1.1//EN" "http://www.w3.org/Graphics/SVG/1.1/DTD/svg11.dtd">
<svg version="1.1" id="Layer_1" xmlns="http://www.w3.org/2000/svg" xmlns:xlink="http://www.w3.org/1999/xlink" x="0px" y="0px"
	 width="164px" height="164px" viewBox="0 0 164 164" enable-background="new 0 0 164 164" xml:space="preserve">
<polyline id="XMLID_18949_" fill="none" points="89.1,102.3 89.1,102.3 74.9,94.1 74.9,110.5 74.9,110.5 "/>
<polyline id="XMLID_18948_" fill="none" points="74.9,110.5 89.1,118.6 89.1,102.3 "/>
<g id="XMLID_18907_">
	<g id="XMLID_18945_">
		<path id="XMLID_18947_" fill="#E8AC70" d="M60.1,115.9c0,0.4-0.2,0.7-0.4,0.7s-0.3-0.4-0.2-0.8s0.2-0.7,0.4-0.7
			S60.1,115.5,60.1,115.9z"/>
		<path id="XMLID_18946_" fill="#CC9860" d="M60.2,115.5c0,0.2,0,0.5-0.1,0.5s-0.2-0.1-0.2-0.3c0-0.2,0-0.5,0.1-0.5
			S60.2,115.3,60.2,115.5z"/>
	</g>
	<g id="XMLID_18941_">
		<polygon id="XMLID_18944_" fill="#4C4C4C" points="60.6,115.5 59.7,115.9 60.1,112.7 61,112.3 		"/>
		<polygon id="XMLID_18943_" fill="#636363" points="59.2,115.5 59.7,115.9 60.1,112.7 59.6,112.3 		"/>
		<polygon id="XMLID_18942_" fill="#757575" points="60.5,111.9 61,112.3 60.1,112.7 59.6,112.3 		"/>
	</g>
	<g id="XMLID_18937_">
		<polygon id="XMLID_18940_" fill="#282828" points="60.5,120.8 60.5,121.1 61.8,120.3 61.8,120 		"/>
		<polygon id="XMLID_18939_" fill="#5E5E5E" points="59.6,120.2 60.5,120.8 61.8,120 61,119.5 		"/>
		<polygon id="XMLID_18938_" fill="#494949" points="59.6,120.6 60.5,121.1 60.5,120.8 59.6,120.2 		"/>
	</g>
	<g id="XMLID_18934_">
		<polygon id="XMLID_18936_" fill="#292954" points="60.2,119.8 61.3,120.4 61.3,116.2 60.2,115.5 		"/>
		<polygon id="XMLID_18935_" fill="#161635" points="62.1,120 61.3,120.4 61.3,116.2 62.1,115.8 		"/>
	</g>
	<g id="XMLID_18928_">
		<polygon id="XMLID_18933_" fill="#282828" points="62.3,121.8 62.3,122.2 63.7,121.4 63.7,121.1 		"/>
		<polygon id="XMLID_18932_" fill="#5E5E5E" points="61.5,121.3 62.3,121.8 63.7,121.1 62.8,120.5 		"/>
		<polygon id="XMLID_18931_" fill="#494949" points="61.5,121.6 62.3,122.2 62.3,121.8 61.5,121.3 		"/>
		<polygon id="XMLID_18930_" fill="#292954" points="62.1,120.8 63.1,121.5 63.1,117.2 62.1,116.6 		"/>
		<polygon id="XMLID_18929_" fill="#161635" points="63.9,121 63.1,121.5 63.1,117.2 63.9,116.8 		"/>
	</g>
	<polygon id="XMLID_18927_" fill="#F2F2F2" points="59.9,112.5 61,111.8 63.9,113.4 62.8,114.1 	"/>
	<polygon id="XMLID_18926_" fill="#9FA3A3" points="63,118.2 63.9,117.6 63.9,113.4 62.8,114.1 	"/>
	<polygon id="XMLID_18925_" fill="#D4D8D8" points="60.1,116.6 63,118.2 62.8,114.1 59.9,112.5 	"/>
	<g id="XMLID_18921_">
		<polygon id="XMLID_18924_" fill="#C42D1E" points="61,111.1 61.5,110.8 62.8,111.5 62.3,111.8 		"/>
		<polygon id="XMLID_18923_" fill="#9B6E42" points="62.3,113.5 62.8,113.2 62.8,111.5 62.3,111.8 		"/>
		<polygon id="XMLID_18922_" fill="#CC9860" points="61,112.8 62.3,113.5 62.3,111.8 61,111.1 		"/>
	</g>
	<g id="XMLID_18917_">
		<polygon id="XMLID_18920_" fill="#F2BC81" points="60.5,109.5 61.3,109 63.3,110.2 62.6,110.7 		"/>
		<polygon id="XMLID_18919_" fill="#CC9860" points="62.6,113.4 63.3,112.9 63.3,110.2 62.6,110.7 		"/>
		<polygon id="XMLID_18918_" fill="#E8AC70" points="60.5,112.2 62.6,113.4 62.6,110.7 60.5,109.5 		"/>
	</g>
	<path id="XMLID_18916_" fill="#552D00" d="M60.5,110.6c0,0,0-0.8,0.7-0.4c0.7,0.4,1.4,0.7,1.4,1.3c0,0,0.5,0.3,0.8,0
		c0.1-0.2,0.2-1.1,0-1.3c-0.4-0.4-1.7-1.2-2.1-1.2C60.5,109,60.3,109.2,60.5,110.6z"/>
	<g id="XMLID_18908_">
		<g id="XMLID_18913_">
			<path id="XMLID_18915_" fill="#E8AC70" d="M64,117.5c0,0.4,0.1,0.7,0.3,0.7c0.2,0,0.3-0.4,0.3-0.8c0-0.4-0.1-0.7-0.3-0.7
				C64.1,116.8,64,117.1,64,117.5z"/>
			<path id="XMLID_18914_" fill="#CC9860" d="M63.8,117.2c-0.1,0.2-0.1,0.5,0,0.5s0.2-0.1,0.3-0.3s0.1-0.5,0-0.5
				S63.9,116.9,63.8,117.2z"/>
		</g>
		<g id="XMLID_18909_">
			<polygon id="XMLID_18912_" fill="#4C4C4C" points="64.9,117 64.2,117.6 63.6,114.4 64.3,113.8 			"/>
			<polygon id="XMLID_18911_" fill="#636363" points="63.6,117.4 64.2,117.6 63.6,114.4 63,114.2 			"/>
			<polygon id="XMLID_18910_" fill="#757575" points="63.7,113.6 64.3,113.8 63.6,114.4 63,114.2 			"/>
		</g>
	</g>
</g>
</svg>
