<?xml version="1.0" encoding="utf-8"?>
<!-- Generator: Adobe Illustrator 16.0.0, SVG Export Plug-In . SVG Version: 6.00 Build 0)  -->
<!DOCTYPE svg PUBLIC "-//W3C//DTD SVG 1.1//EN" "http://www.w3.org/Graphics/SVG/1.1/DTD/svg11.dtd">
<svg version="1.1" id="Layer_1" xmlns="http://www.w3.org/2000/svg" xmlns:xlink="http://www.w3.org/1999/xlink" x="0px" y="0px"
	 width="164px" height="164px" viewBox="0 0 164 164" enable-background="new 0 0 164 164" xml:space="preserve">
<g id="XMLID_16209_">
	<g id="XMLID_17398_">
		<polyline id="XMLID_18161_" fill="none" points="89.1,102.3 89.1,102.3 74.9,94.1 74.9,110.5 74.9,110.5 		"/>
		<polyline id="XMLID_18160_" fill="none" points="74.9,110.5 89.1,118.6 89.1,102.3 		"/>
		<g id="XMLID_18028_">
			<polyline id="XMLID_18159_" fill="none" points="89.1,102.3 89.1,102.3 74.9,94.1 74.9,110.5 74.9,110.5 			"/>
			<polyline id="XMLID_18158_" fill="none" points="74.9,110.5 89.1,118.6 89.1,102.3 			"/>
			<g id="XMLID_18029_">
				<g id="XMLID_18031_">
					<g id="XMLID_18037_">
						<g id="XMLID_18038_">
							<g id="XMLID_18053_">
								<defs>
									<polygon id="XMLID_18110_" points="74.2,110.1 74.2,98.8 73.1,98.2 73.1,93 60.7,85.9 61.9,86.6 61.9,96.8 62.9,97.4 
										62.9,103.5 									"/>
								</defs>
								<clipPath id="XMLID_51_">
									<use xlink:href="#XMLID_18110_"  overflow="visible"/>
								</clipPath>
								<g id="XMLID_18156_" clip-path="url(#XMLID_51_)">
									<polygon fill="#9EB2B7" points="69.5,98.3 72.5,96.5 74.4,97.6 74.3,99 72.5,100 									"/>
									<path fill="#556063" d="M72.5,96.5l1.9,1.1L74.2,99l-1.7,1l-3-1.7L72.5,96.5 M72.5,96.4L72.5,96.4l-3,1.8l-0.1,0l0.1,0
										l3,1.7l0,0l0,0l1.7-1l0,0l0,0l0.1-1.4l0,0l0,0L72.5,96.4L72.5,96.4L72.5,96.4z"/>
								</g>
								<g id="XMLID_18155_" clip-path="url(#XMLID_51_)">
									<polygon fill="#CBD7D8" points="66.2,96.4 69.4,94.5 72.6,96.4 69.5,98.2 									"/>
									<path fill="#556063" d="M69.4,94.5l3.2,1.9l-3.1,1.8l-3.2-1.9L69.4,94.5 M69.4,94.5L69.4,94.5l-3.2,1.8l-0.1,0l0.1,0
										l3.2,1.9l0,0l0,0l3.1-1.8l0.1,0l-0.1,0L69.4,94.5L69.4,94.5L69.4,94.5z"/>
								</g>
								<polygon id="XMLID_18154_" opacity="4.000000e-002" clip-path="url(#XMLID_51_)" points="70.6,95.2 72.6,96.4 69.5,98.2 
																	"/>
								<g id="XMLID_18153_" clip-path="url(#XMLID_51_)">
									<polygon fill="#CBD7D8" points="72.7,93.6 75.7,91.8 78.8,93.5 75.7,95.3 									"/>
									<g>
										<path fill="#556063" d="M75.7,91.8l3,1.7l-3,1.7l-3-1.7L75.7,91.8 M75.7,91.7L75.7,91.7l-3,1.8l-0.1,0l0.1,0l3,1.7l0,0
											l0,0l3-1.7l0.1,0l-0.1,0L75.7,91.7L75.7,91.7L75.7,91.7z"/>
									</g>
								</g>
								<g id="XMLID_18140_" clip-path="url(#XMLID_51_)">
									<g id="XMLID_18152_">
										<polygon fill="#CBD7D8" points="66.7,93.6 69.7,91.8 72.7,93.5 69.7,95.3 										"/>
										<path fill="#556063" d="M69.7,91.8l3,1.7l-3,1.7v0l0,0l-3-1.7L69.7,91.8 M69.7,91.7L69.7,91.7l-3,1.8l-0.1,0l0.1,0l3,1.7
											v0.1l0,0l0,0l0,0l3-1.7l0.1,0l-0.1,0L69.7,91.7L69.7,91.7L69.7,91.7z"/>
									</g>
									<g id="XMLID_18151_">
										<polygon fill="#9EB2B7" points="63.6,91.8 66.7,90 69.7,91.8 66.7,93.6 										"/>
										<path fill="#556063" d="M66.7,90.1l3,1.7l-3,1.7l-3-1.7L66.7,90.1 M66.7,90L66.7,90l-3,1.8l-0.1,0l0.1,0l3,1.7l0,0l0,0
											l3-1.7l0.1,0l-0.1,0L66.7,90L66.7,90L66.7,90z"/>
									</g>
									<g id="XMLID_18149_">
										<polygon fill="#9EB2B7" points="69.7,91.8 72.7,90 75.7,91.8 72.7,93.6 										"/>
										<path fill="#556063" d="M72.7,90.1l3,1.7l-3,1.7l-3-1.7L72.7,90.1 M72.7,90L72.7,90l-3,1.8l-0.1,0l0.1,0l3,1.7l0,0l0,0
											l3-1.7l0.1,0l-0.1,0L72.7,90L72.7,90L72.7,90z"/>
									</g>
									<g id="XMLID_18148_">
										<polygon fill="#CBD7D8" points="66.7,90.1 69.7,88.3 72.7,90 69.7,91.8 										"/>
										<g>
											<path fill="#556063" d="M69.7,88.3l3,1.7l-3,1.7h0l-3-1.7L69.7,88.3 M69.7,88.3L69.7,88.3l-3,1.8l-0.1,0l0.1,0l3,1.7l0,0
												h0h0l0,0l3-1.7l0.1,0l-0.1,0L69.7,88.3L69.7,88.3L69.7,88.3z"/>
										</g>
									</g>
									<g id="XMLID_18147_">
										<polygon fill="#9EB2B7" points="63.6,88.3 66.7,86.6 69.7,88.3 66.7,90.1 										"/>
										<path fill="#556063" d="M66.7,86.6l3,1.7l-3,1.7l-3-1.7L66.7,86.6 M66.7,86.5L66.7,86.5l-3,1.8l-0.1,0l0.1,0l3,1.7l0,0
											l0,0l3-1.7l0.1,0l-0.1,0L66.7,86.5L66.7,86.5L66.7,86.5z"/>
									</g>
									<polygon id="XMLID_18146_" opacity="4.000000e-002" points="70.9,92.4 72.7,93.5 69.7,95.3 									"/>
									<polygon id="XMLID_18145_" opacity="8.000000e-002" points="73.9,90.7 75.7,91.8 72.7,93.5 									"/>
									<polygon id="XMLID_18143_" opacity="8.000000e-002" points="70.9,89 72.7,90.1 69.7,91.8 									"/>
									<polygon id="XMLID_18142_" opacity="4.000000e-002" points="67.9,90.7 69.7,91.8 66.7,93.5 									"/>
									<polygon id="XMLID_18141_" opacity="4.000000e-002" points="67.9,87.2 69.7,88.3 66.7,90.1 									"/>
								</g>
								<g id="XMLID_18114_" clip-path="url(#XMLID_51_)">
									<g id="XMLID_18139_">
										<polygon fill="#CBD7D8" points="60.6,97.1 63.6,95.3 66.6,97 63.6,98.8 										"/>
										<path fill="#556063" d="M63.6,95.3l3,1.7l-3,1.7h0l-3-1.7L63.6,95.3 M63.6,95.2L63.6,95.2l-3,1.8l-0.1,0l0.1,0l3,1.7l0,0
											h0h0l0,0l3-1.7l0.1,0l-0.1,0L63.6,95.2L63.6,95.2L63.6,95.2z"/>
									</g>
									<g id="XMLID_18138_">
										<polygon fill="#CBD7D8" points="60.6,93.6 63.6,91.8 66.6,93.5 63.6,95.3 										"/>
										<path fill="#556063" d="M63.6,91.8l3,1.7l-3,1.7l-3-1.7L63.6,91.8 M63.6,91.8L63.6,91.8l-3,1.8l-0.1,0l0.1,0l3,1.7l0,0
											l0,0l3-1.7l0.1,0l-0.1,0L63.6,91.8L63.6,91.8L63.6,91.8z"/>
									</g>
									<g id="XMLID_18132_">
										<polygon fill="#9EB2B7" points="57.5,91.8 60.6,90.1 63.6,91.8 60.6,93.6 										"/>
										<path fill="#556063" d="M60.6,90.1l3,1.7l-3,1.7l-3-1.7L60.6,90.1 M60.6,90L60.6,90l-3,1.8l-0.1,0l0.1,0l3,1.7l0,0l0,0
											l3-1.7l0.1,0l-0.1,0L60.6,90L60.6,90L60.6,90z"/>
									</g>
									<g id="XMLID_18131_">
										<polygon fill="#CBD7D8" points="60.6,90.1 63.6,88.3 66.7,90 63.7,91.8 										"/>
										<path fill="#556063" d="M63.7,88.3l3,1.7l-3,1.7l-3-1.7L63.7,88.3 M63.7,88.3L63.7,88.3l-3,1.8l-0.1,0l0.1,0l3,1.7l0,0
											l0,0l3-1.7l0.1,0l-0.1,0L63.7,88.3L63.7,88.3L63.7,88.3z"/>
									</g>
									<g id="XMLID_18130_">
										<polygon fill="#9EB2B7" points="57.6,88.3 60.6,86.6 63.7,88.3 60.6,90.1 										"/>
										<path fill="#556063" d="M60.6,86.6l3,1.7l-3,1.7l-3-1.7L60.6,86.6 M60.6,86.5L60.6,86.5l-3,1.8l-0.1,0l0.1,0l3,1.7l0,0
											l0,0l3-1.7l0.1,0l-0.1,0L60.6,86.5L60.6,86.5L60.6,86.5z"/>
									</g>
									<g id="XMLID_18129_">
										<polygon fill="#CBD7D8" points="60.6,86.6 63.6,84.8 66.7,86.6 63.7,88.3 										"/>
										<g>
											<path fill="#556063" d="M63.7,84.8l3,1.7l-3,1.7l-3-1.7L63.7,84.8 M63.7,84.8L63.7,84.8l-3,1.8l-0.1,0l0.1,0l3,1.7l0,0
												l0,0l3-1.7l0.1,0l-0.1,0L63.7,84.8L63.7,84.8L63.7,84.8z"/>
										</g>
									</g>
									<g id="XMLID_18128_">
										<polygon fill="#9EB2B7" points="57.5,98.8 60.5,97 63.6,98.8 60.5,100.6 										"/>
										<path fill="#556063" d="M60.5,97.1l3,1.7l-3,1.7h0l-3-1.7L60.5,97.1 M60.5,97L60.5,97l-3,1.8l-0.1,0l0.1,0l3,1.7l0,0h0h0
											l0,0l3-1.7l0.1,0l-0.1,0L60.5,97L60.5,97L60.5,97z"/>
									</g>
									<g id="XMLID_18125_">
										<polygon fill="#9EB2B7" points="57.5,95.3 60.6,93.5 63.6,95.3 60.6,97.1 										"/>
										<path fill="#556063" d="M60.6,93.6l3,1.7l-3,1.7l-3-1.7L60.6,93.6 M60.6,93.5L60.6,93.5l-3,1.8l-0.1,0l0.1,0l3,1.7l0,0
											l0,0l3-1.7l0.1,0l-0.1,0L60.6,93.5L60.6,93.5L60.6,93.5z"/>
									</g>
									<polygon id="XMLID_18124_" opacity="4.000000e-002" points="64.8,95.9 66.6,97 63.6,98.8 									"/>
									<polygon id="XMLID_18123_" opacity="4.000000e-002" points="64.8,92.5 66.6,93.6 63.6,95.3 									"/>
									<polygon id="XMLID_18122_" opacity="4.000000e-002" points="64.8,89 66.6,90.1 63.6,91.8 									"/>
									<polygon id="XMLID_18121_" opacity="8.000000e-002" points="64.8,85.5 66.6,86.6 63.6,88.3 									"/>
									<polygon id="XMLID_18118_" opacity="8.000000e-002" points="61.8,97.7 63.6,98.8 60.6,100.5 									"/>
									<polygon id="XMLID_18117_" opacity="4.000000e-002" points="61.8,94.2 63.6,95.3 60.6,97 									"/>
									<polygon id="XMLID_18116_" opacity="4.000000e-002" points="61.8,90.7 63.6,91.8 60.6,93.6 									"/>
									<polygon id="XMLID_18115_" opacity="8.000000e-002" points="61.8,87.2 63.6,88.3 60.6,90.1 									"/>
								</g>
								<polygon id="XMLID_18111_" clip-path="url(#XMLID_51_)" fill="#968677" points="63.8,103 62.9,103.5 75.4,110.8 75.4,109.7 
																	"/>
								<g id="XMLID_18098_" clip-path="url(#XMLID_51_)">
									<g id="XMLID_18109_">
										<polygon fill="#556063" points="63.2,101.7 69.5,98.2 69.5,98.2 63.2,101.8 										"/>
										<path fill="#556063" d="M69.4,98.2L69.4,98.2l-6.2,3.6v0L69.4,98.2 M69.5,98.1l-6.3,3.6v0.1l6.3-3.6V98.1L69.5,98.1z"/>
									</g>
									<g id="XMLID_18108_">
										<polygon fill="#CBD7D8" points="62.5,102.2 63.4,101.7 66.5,103.4 65.6,104 										"/>
										<g>
											<path fill="#556063" d="M63.4,101.7l3,1.7l-0.9,0.5l-3-1.7L63.4,101.7 M63.4,101.7L63.4,101.7l-0.9,0.5l-0.1,0l0.1,0
												l3,1.7l0,0l0,0l0.9-0.5l0.1,0l-0.1,0L63.4,101.7L63.4,101.7L63.4,101.7z"/>
										</g>
									</g>
									<g id="XMLID_18107_">
										<polygon fill="#9EB2B7" points="65.5,104 66.4,103.4 69.5,105.2 68.6,105.7 										"/>
										<path fill="#556063" d="M66.4,103.5l3,1.7l-0.9,0.5l-3-1.7L66.4,103.5 M66.4,103.4L66.4,103.4l-0.9,0.5l-0.1,0l0.1,0
											l3,1.7l0,0l0,0l0.9-0.5l0.1,0l-0.1,0L66.4,103.4L66.4,103.4L66.4,103.4z"/>
									</g>
									<g id="XMLID_18102_">
										<polygon fill="#CBD7D8" points="68.6,105.7 69.5,105.2 72.5,106.9 71.6,107.5 										"/>
										<g>
											<path fill="#556063" d="M69.5,105.2l3,1.7l-0.9,0.5l-3-1.7L69.5,105.2 M69.5,105.1L69.5,105.1l-0.9,0.5l-0.1,0l0.1,0
												l3,1.7l0,0l0,0l0.9-0.5l0.1,0l-0.1,0L69.5,105.1L69.5,105.1L69.5,105.1z"/>
										</g>
									</g>
									<polygon id="XMLID_18101_" opacity="4.000000e-002" points="64.6,102.4 66.4,103.5 65.5,104 64.3,103.2 									"/>
									<polygon id="XMLID_18100_" opacity="4.000000e-002" points="67.6,104.2 69.5,105.2 68.6,105.7 67.3,105 									"/>
									<polygon id="XMLID_18099_" opacity="4.000000e-002" points="70.6,105.8 72.5,106.9 69.5,108.7 									"/>
								</g>
								<g id="XMLID_18096_" clip-path="url(#XMLID_51_)">
									<polygon fill="#CBD7D8" points="59.9,100 63,98.2 66.2,100 63,101.8 									"/>
									<path fill="#556063" d="M63,98.2l3.1,1.8l-3.1,1.8l-3.1-1.8L63,98.2 M63,98.1L63,98.1l-3.2,1.8l-0.1,0l0.1,0l3.1,1.8l0,0
										l0,0l3.1-1.8l0.1,0l-0.1,0L63,98.1L63,98.1L63,98.1z"/>
								</g>
								<polygon id="XMLID_18095_" opacity="4.000000e-002" clip-path="url(#XMLID_51_)" points="64.3,98.9 66.2,100 63,101.8 
																	"/>
								<g id="XMLID_18094_" clip-path="url(#XMLID_51_)">
									<polygon fill="#9EB2B7" points="69.5,94.6 72.6,92.7 75.8,94.6 72.7,96.4 									"/>
									<path fill="#556063" d="M72.7,92.8l3.1,1.8l-3.1,1.8l-3.1-1.8L72.7,92.8 M72.7,92.7L72.7,92.7l-3.2,1.8l-0.1,0l0.1,0
										l3.1,1.8l0,0l0,0l3.1-1.8l0.1,0l-0.1,0L72.7,92.7L72.7,92.7L72.7,92.7z"/>
								</g>
								<polygon id="XMLID_18093_" opacity="8.000000e-002" clip-path="url(#XMLID_51_)" points="73.9,93.4 75.8,94.6 72.7,96.4 
																	"/>
								<g id="XMLID_18092_" clip-path="url(#XMLID_51_)">
									<polygon fill="#9EB2B7" points="63,98.2 66.2,96.4 69.3,98.2 66.2,100 									"/>
									<path fill="#556063" d="M66.2,96.4l3.1,1.8l-3.1,1.8l-3.1-1.8L66.2,96.4 M66.2,96.3L66.2,96.3L63,98.1l-0.1,0l0.1,0
										l3.1,1.8l0,0l0,0l3.1-1.8l0.1,0l-0.1,0L66.2,96.3L66.2,96.3L66.2,96.3z"/>
								</g>
								<polygon id="XMLID_18090_" opacity="8.000000e-002" clip-path="url(#XMLID_51_)" points="67.4,97.1 69.3,98.2 66.2,100 
																	"/>
								<g id="XMLID_18089_" clip-path="url(#XMLID_51_)">
									<polygon fill="#9EB2B7" points="63.6,95.3 66.6,93.5 69.6,95.3 66.6,97.1 									"/>
									<path fill="#556063" d="M66.6,93.6l3,1.7l-3,1.7h0l-3-1.7L66.6,93.6 M66.6,93.5L66.6,93.5l-3,1.8l-0.1,0l0.1,0l3,1.7l0,0h0
										h0l0,0l3-1.7l0.1,0l-0.1,0L66.6,93.5L66.6,93.5L66.6,93.5z"/>
								</g>
								<polygon id="XMLID_18088_" opacity="4.000000e-002" clip-path="url(#XMLID_51_)" points="67.8,94.2 69.6,95.3 66.6,97 
																	"/>
								<g id="XMLID_18086_" clip-path="url(#XMLID_51_)">
									<polygon id="XMLID_18087_" opacity="0.1" points="62.7,96.2 62.1,95.9 62.1,95.9 									"/>
								</g>
								<g id="XMLID_18084_" clip-path="url(#XMLID_51_)">
									<polygon fill="#9EB2B7" points="54.5,97.1 57.5,95.3 60.5,97 57.5,98.8 									"/>
									<path fill="#556063" d="M57.5,95.3l3,1.7l-3,1.7l-3-1.7L57.5,95.3 M57.5,95.3L57.5,95.3l-3,1.8l-0.1,0l0.1,0l3,1.7l0,0l0,0
										l3-1.7l0.1,0l-0.1,0L57.5,95.3L57.5,95.3L57.5,95.3z"/>
								</g>
								<g id="XMLID_18083_" clip-path="url(#XMLID_51_)">
									<polygon fill="#9EB2B7" points="51.4,95.3 54.5,93.6 57.5,95.3 54.5,97.1 									"/>
									<path fill="#556063" d="M54.5,93.6l3,1.7l-3,1.7l-3-1.7L54.5,93.6 M54.5,93.5L54.5,93.5l-3,1.8l-0.1,0l0.1,0l3,1.7l0,0l0,0
										l3-1.7l0.1,0l-0.1,0L54.5,93.5L54.5,93.5L54.5,93.5z"/>
								</g>
								<g id="XMLID_18082_" clip-path="url(#XMLID_51_)">
									<polygon fill="#9EB2B7" points="54.5,93.6 57.5,91.8 60.6,93.5 57.6,95.3 									"/>
									<path fill="#556063" d="M57.6,91.8l3,1.7l-3,1.7l-3-1.7L57.6,91.8 M57.6,91.8L57.6,91.8l-3,1.8l-0.1,0l0.1,0l3,1.7l0,0l0,0
										l3-1.7l0.1,0l-0.1,0L57.6,91.8L57.6,91.8L57.6,91.8z"/>
								</g>
								<g id="XMLID_18081_" clip-path="url(#XMLID_51_)">
									<polygon fill="#CBD7D8" points="66.4,100 69.5,98.2 72.5,100 69.5,101.7 									"/>
									<g>
										<path fill="#556063" d="M69.5,98.2l3,1.7l-3,1.7l-3-1.7L69.5,98.2 M69.5,98.2L69.5,98.2l-3,1.8l-0.1,0l0.1,0l3,1.7l0,0
											l0,0l3-1.7l0.1,0l-0.1,0L69.5,98.2L69.5,98.2L69.5,98.2z"/>
									</g>
								</g>
								<g id="XMLID_18080_" clip-path="url(#XMLID_51_)">
									<polygon fill="#9EB2B7" points="63.4,101.7 66.4,100 69.5,101.7 66.4,103.5 									"/>
									<path fill="#556063" d="M66.4,100l3,1.7l-3,1.7l-3-1.7L66.4,100 M66.4,99.9L66.4,99.9l-3,1.8l-0.1,0l0.1,0l3,1.7l0,0l0,0
										l3-1.7l0.1,0l-0.1,0L66.4,99.9L66.4,99.9L66.4,99.9z"/>
								</g>
								<g id="XMLID_18079_" clip-path="url(#XMLID_51_)">
									<polygon fill="#9EB2B7" points="69.5,101.7 72.5,100 75.5,101.7 72.5,103.5 									"/>
									<path fill="#556063" d="M72.5,100l3,1.7l-3,1.7l-3-1.7L72.5,100 M72.5,99.9L72.5,99.9l-3,1.8l-0.1,0l0.1,0l3,1.7l0,0l0,0
										l3-1.7l0.1,0l-0.1,0L72.5,99.9L72.5,99.9L72.5,99.9z"/>
								</g>
								<g id="XMLID_18077_" clip-path="url(#XMLID_51_)">
									<polygon fill="#CBD7D8" points="66.4,103.5 69.5,101.7 72.5,103.4 69.5,105.2 									"/>
									<g>
										<path fill="#556063" d="M69.5,101.7l3,1.7l-3,1.7l-3-1.7L69.5,101.7 M69.5,101.7L69.5,101.7l-3,1.8l-0.1,0l0.1,0l3,1.7
											l0,0l0,0l3-1.7l0.1,0l-0.1,0L69.5,101.7L69.5,101.7L69.5,101.7z"/>
									</g>
								</g>
								<g id="XMLID_18076_" clip-path="url(#XMLID_51_)">
									<polygon fill="#CBD7D8" points="72.5,100 75.5,98.2 78.6,99.9 75.6,101.7 									"/>
									<g>
										<path fill="#556063" d="M75.6,98.2l3,1.7l-3,1.7l-3-1.7L75.6,98.2 M75.6,98.2L75.6,98.2l-3,1.8l-0.1,0l0.1,0l3,1.7l0,0
											l0,0l3-1.7l0.1,0l-0.1,0L75.6,98.2L75.6,98.2L75.6,98.2z"/>
									</g>
								</g>
								<g id="XMLID_18075_" clip-path="url(#XMLID_51_)">
									<polygon fill="#CBD7D8" points="72.5,103.5 75.5,101.7 78.5,103.4 75.5,105.2 									"/>
									<g>
										<path fill="#556063" d="M75.5,101.7l3,1.7l-3,1.7l-3-1.7L75.5,101.7 M75.5,101.7L75.5,101.7l-3,1.8l-0.1,0l0.1,0l3,1.7
											l0,0l0,0l3-1.7l0.1,0l-0.1,0L75.5,101.7L75.5,101.7L75.5,101.7z"/>
									</g>
								</g>
								<g id="XMLID_18074_" clip-path="url(#XMLID_51_)">
									<polygon fill="#9EB2B7" points="69.5,105.2 72.5,103.4 75.5,105.2 72.5,107 									"/>
									<path fill="#556063" d="M72.5,103.5l3,1.7l-3,1.7l-3-1.7L72.5,103.5 M72.5,103.4L72.5,103.4l-3,1.8l-0.1,0l0.1,0l3,1.7l0,0
										l0,0l3-1.7l0.1,0l-0.1,0L72.5,103.4L72.5,103.4L72.5,103.4z"/>
								</g>
								<g id="XMLID_18073_" clip-path="url(#XMLID_51_)">
									<polygon fill="#6D513E" points="61.2,102 61.2,86.3 72.7,81.7 73.9,95.3 61.6,102.2 									"/>
									<path fill="#5B433C" d="M72.2,82.4L73.3,95l-11.6,6.6v-15L72.2,82.4 M73.1,81l-12.4,4.9v16.4l0.8,0.5l12.8-7.3L73.1,81
										L73.1,81z"/>
								</g>
								<polygon id="XMLID_18071_" opacity="5.000000e-002" clip-path="url(#XMLID_51_)" points="63.8,94.4 63.1,94 63.1,89.8 
									66.9,87.7 67.7,92 								"/>
								<polygon id="XMLID_18070_" opacity="0.1" clip-path="url(#XMLID_51_)" points="62.9,102.5 63.2,102.7 63.2,96.5 61.8,95.7 
									62.9,96.3 								"/>
								<g id="XMLID_18069_" clip-path="url(#XMLID_51_)">
									<polygon fill="#9EB2B7" points="71.6,107.4 72.5,106.9 75.5,108.6 74.6,109.2 									"/>
									<path fill="#556063" d="M72.5,106.9l3,1.7l-0.9,0.5l-3-1.7L72.5,106.9 M72.5,106.9L72.5,106.9l-0.9,0.5l-0.1,0l0.1,0l3,1.7
										l0,0l0,0l0.9-0.5l0.1,0l-0.1,0L72.5,106.9L72.5,106.9L72.5,106.9z"/>
								</g>
								<polygon id="XMLID_18068_" opacity="4.000000e-002" clip-path="url(#XMLID_51_)" points="73.7,107.6 75.5,108.7 74.6,109.2 
									73.3,108.5 								"/>
								<g id="XMLID_18067_" clip-path="url(#XMLID_51_)">
									<polygon fill="#CBD7D8" points="72.5,107 75.5,105.2 78.5,106.9 75.5,108.7 									"/>
									<g>
										<path fill="#556063" d="M75.5,105.2l3,1.7l-3,1.7l-3-1.7L75.5,105.2 M75.5,105.1L75.5,105.1l-3,1.8l-0.1,0l0.1,0l3,1.7
											l0,0l0,0l3-1.7l0.1,0l-0.1,0L75.5,105.1L75.5,105.1L75.5,105.1z"/>
									</g>
								</g>
								<g id="XMLID_18054_" clip-path="url(#XMLID_51_)">
									<g id="XMLID_18058_">
										<g id="XMLID_18060_">
											<g id="XMLID_18065_">
												<polygon fill="#D6D6D6" points="67.5,88.5 63.8,90.6 65.3,91.4 69,89.3 												"/>
											</g>
											<g id="XMLID_18064_">
												<polygon fill="#545454" points="66,89.1 65.1,89.6 65.3,89.7 66.2,89.2 												"/>
											</g>
											<g id="XMLID_18063_">
												<polygon fill="#AFAFAF" points="69,89.3 65.3,91.4 64.8,93.4 65.2,93.2 65.3,92.5 68.4,90.7 68.3,91.4 68.5,91.2 
																									"/>
											</g>
											<g id="XMLID_18062_">
												<polygon fill="#878787" points="65.3,92.5 65.2,93.2 68.3,91.4 68.4,90.7 												"/>
											</g>
											<g id="XMLID_18061_">
												<polygon fill="#C6C6C6" points="63.8,92.9 64.8,93.4 65.3,91.4 63.8,90.6 												"/>
											</g>
										</g>
									</g>
									<polygon id="XMLID_18057_" fill="#353535" points="65.1,89.9 65.1,89.6 65.3,89.7 									"/>
									<path id="XMLID_18056_" fill="#CD1300" d="M68.4,90.5c0,0.1-0.1,0.2-0.2,0.1c0,0-0.1-0.1,0-0.2c0-0.1,0.1-0.2,0.2-0.1
										C68.4,90.3,68.5,90.4,68.4,90.5z"/>
									<path id="XMLID_18055_" fill="#00629B" d="M68.1,90.7c0,0.1-0.1,0.2-0.2,0.1c0,0-0.1-0.1,0-0.2c0-0.1,0.1-0.2,0.2-0.1
										C68.1,90.5,68.1,90.6,68.1,90.7z"/>
								</g>
							</g>
							<g id="XMLID_18048_">
								<polygon id="XMLID_18051_" fill="#AD856A" points="61.9,96.8 62.8,96.3 62.8,87.1 61.9,86.6 								"/>
								<polygon id="XMLID_18050_" fill="#E2BDA8" points="62.8,96.3 61.9,96.8 67.7,100.2 68.6,99.6 								"/>
								<polygon id="XMLID_18049_" fill="#AD856A" points="67.7,106.3 67.7,100.2 68.6,99.6 68.6,105.8 								"/>
							</g>
							<polygon id="XMLID_18047_" opacity="4.000000e-002" points="73.7,97.1 74.3,98.9 72.5,100 							"/>
							<polygon id="XMLID_18046_" opacity="4.000000e-002" points="70.6,98.9 72.5,100 69.5,101.7 							"/>
							<polygon id="XMLID_18044_" opacity="4.000000e-002" points="67.6,100.6 69.5,101.7 66.4,103.5 							"/>
							<polygon id="XMLID_18043_" opacity="4.000000e-002" points="73.7,100.6 74.3,100.9 74.3,102.4 72.5,103.5 							"/>
							<polygon id="XMLID_18042_" opacity="4.000000e-002" points="70.6,102.4 72.5,103.5 69.5,105.2 							"/>
							<polygon id="XMLID_18041_" opacity="4.000000e-002" points="73.7,104.1 74.2,104.5 74.2,105.9 72.5,106.9 							"/>
							<polygon id="XMLID_18040_" opacity="0.1" points="72.8,92.9 72.8,92.9 62.8,87.1 62.8,88.3 62.8,96.3 63.2,96.5 63.2,88.5 
								72.8,94.2 72.8,98.3 74,99 74,108.9 74.9,109.3 74.9,94.1 							"/>
						</g>
					</g>
					<polygon id="XMLID_18036_" fill="#D4AB90" points="61.9,86.6 60.7,85.9 60.7,102.3 67.7,106.3 67.7,100.2 61.9,96.8 					"/>
					<polygon id="XMLID_18035_" fill="#D4AB90" points="74.2,110.1 74.9,110.5 74.9,94.1 73.1,93 73.1,98.2 74.2,98.8 					"/>
					<line id="XMLID_18034_" fill="none" x1="68.9" y1="101.4" x2="71.4" y2="100"/>
				</g>
			</g>
		</g>
		<polygon id="XMLID_18027_" fill="#B68E72" points="64.8,102 60.7,99.6 60.7,101.6 64.8,104 		"/>
		<polygon id="XMLID_18026_" fill="#B68E72" points="67.1,100.6 63.1,98.3 63.1,100.2 67.1,102.6 		"/>
		<polygon id="XMLID_18025_" fill="#B68E72" points="67.1,103.3 65.4,102.3 65.4,104.3 67.1,105.3 		"/>
		<g id="XMLID_18022_" opacity="0.2">
			<polygon points="66.7,104.3 65.8,104.8 61.4,102.3 66.5,99.9 66.7,100.5 			"/>
		</g>
	</g>
	<g id="XMLID_16210_">
		<g id="XMLID_17372_">
			<g id="XMLID_17373_">
				<g id="XMLID_17376_">
					<polygon fill="#D6D6D6" points="66.5,99.9 66.5,99.9 66,99.6 64.4,98.6 62.8,97.7 61.4,98.5 63,99.4 63,99.4 64.6,100.3 
						64.6,100.3 65.2,100.6 65.2,100.6 65.2,100.6 					"/>
				</g>
				<polygon id="XMLID_17375_" opacity="0.2" points="66.5,105.5 66.5,105.5 66,105.2 64.4,104.3 62.8,103.3 61.4,104.1 63,105 
					63,105 64.6,105.9 64.6,105.9 65.2,106.2 65.2,106.2 65.2,106.2 				"/>
				<g id="XMLID_17374_">
					<polygon fill="#B2B2B2" points="66.5,103.7 65.2,104.4 65.2,100.6 66.5,99.9 					"/>
				</g>
			</g>
		</g>
		<g id="XMLID_17370_">
			<polygon fill="#C6C6C6" points="65.2,100.6 64.6,100.3 63,99.4 61.4,98.5 61.4,102.3 63,103.2 63,103.2 64.6,104.1 64.6,104.1 
				65.2,104.4 65.2,104.4 65.2,104.4 65.2,100.6 			"/>
		</g>
		<g id="XMLID_17369_">
			<polygon fill="#8E8E8E" points="64.2,100.5 63,99.8 61.8,99.1 61.8,102.1 63,102.8 63,102.8 64.2,103.5 64.2,103.5 			"/>
		</g>
		<g id="XMLID_16262_">
			<g id="XMLID_16265_">
				<defs>
					<path id="XMLID_16267_" d="M64,101.7c0,0.7-0.5,1.1-1.1,0.9c-0.6-0.2-1.1-1-1.1-1.7c0-0.7,0.5-1.1,1.1-0.9
						C63.5,100.2,64,100.9,64,101.7z"/>
				</defs>
				<clipPath id="XMLID_52_">
					<use xlink:href="#XMLID_16267_"  overflow="visible"/>
				</clipPath>
				<g id="XMLID_17351_" clip-path="url(#XMLID_52_)">
					<path id="XMLID_17368_" fill="#383838" d="M64,101.7c0,0.7-0.5,1.1-1.1,0.9c-0.6-0.2-1.1-1-1.1-1.7c0-0.7,0.5-1.1,1.1-0.9
						C63.5,100.2,64,100.9,64,101.7z"/>
				</g>
				<g id="XMLID_17164_" clip-path="url(#XMLID_52_)">
					<path fill="#565656" d="M62.4,99.6l0.5,1.4l0-1.2l0.1,0l0,1.2l0.4-1l0.1,0l-0.4,1.1l0.7-0.8l0.1,0.1l-0.7,0.7l0.9-0.4l0,0.1
						l-0.9,0.4l1,0l0,0.1l-1,0l1.3,0.6l0,0.1l-1.2-0.5l1,1.2l-0.1,0.1l-1-1.2l0.2,1.2l-0.1,0l-0.2-1.2l-0.3,0.9l-0.1,0l0.3-1
						l-0.7,0.9l-0.1,0l0.7-1l-1,0.6l-0.1-0.1l1-0.6l-1.1,0.1l0-0.1l1.1-0.1l-1-0.2l0-0.1l1,0.2l-1.2-0.8l0-0.1l1.2,0.8l-1-1.2
						l0.1-0.1l1,1.2L62.4,99.6L62.4,99.6 M62.4,99.6L62.4,99.6l-0.1,0.1l0,0l0,0l0.4,1.1l-0.8-1l0,0l0,0l-0.1,0.1l0,0l0,0l0.8,1
						l-0.9-0.6l0,0l0,0l0,0.1l0,0l0,0l1,0.6l-0.8-0.2l-0.1,0l0,0.1l0,0.1l0,0l0,0l0.7,0.1l-0.8,0.1l-0.1,0l0,0.1l0,0.1l0,0l0,0
						l0.9-0.1l-0.8,0.5l-0.1,0l0,0l0.1,0.1l0,0l0,0l0.8-0.5l-0.6,0.8l0,0.1l0.1,0l0.1,0l0,0l0,0l0.6-0.7l-0.2,0.8l0,0.1l0.1,0l0.1,0
						l0,0l0,0l0.2-0.7l0.2,1l0,0.1l0.1,0l0.1,0l0,0l0,0l-0.2-1l0.9,1.1l0,0l0,0l0.1-0.1l0,0l0,0l-0.8-1l1,0.4l0,0l0,0l0-0.1l0,0l0,0
						l-1-0.5l0.8,0h0l0,0l0-0.1l0-0.1l-0.1,0l-0.8,0l0.7-0.3l0,0l0,0l0-0.1l0-0.1l-0.1,0l-0.7,0.3l0.6-0.6l0,0l0,0l-0.1-0.1l0,0l0,0
						l-0.6,0.6l0.3-0.9l0,0l0,0l-0.1,0l0,0l0,0l-0.3,0.8l0-0.9l0-0.1l-0.1,0l-0.1,0l0,0l0,0l0,0.8L62.4,99.6L62.4,99.6L62.4,99.6z"
						/>
				</g>
				<g id="XMLID_17158_" clip-path="url(#XMLID_52_)">
					<path fill="#565656" d="M62.4,99.6l0.5,1.4l0-1.2l0.1,0l0,1.2l0.4-1l0.1,0l-0.4,1.1l0.7-0.8l0.1,0.1l-0.7,0.7l0.9-0.4l0,0.1
						l-0.9,0.4l1,0l0,0.1l-1,0l1.3,0.6l0,0.1l-1.2-0.5l1,1.2l-0.1,0.1l-1-1.2l0.2,1.2l-0.1,0l-0.2-1.2l-0.3,0.9l-0.1,0l0.3-1
						l-0.7,0.9l-0.1,0l0.7-1l-1,0.6l-0.1-0.1l1-0.6l-1.1,0.1l0-0.1l1.1-0.1l-1-0.2l0-0.1l1,0.2l-1.2-0.8l0-0.1l1.2,0.8l-1-1.2
						l0.1-0.1l1,1.2L62.4,99.6L62.4,99.6 M62.4,99.6L62.4,99.6l-0.1,0.1l0,0l0,0l0.4,1.1l-0.8-1l0,0l0,0l-0.1,0.1l0,0l0,0l0.8,1
						l-0.9-0.6l0,0l0,0l0,0.1l0,0l0,0l1,0.6l-0.8-0.2l-0.1,0l0,0.1l0,0.1l0,0l0,0l0.7,0.1l-0.8,0.1l-0.1,0l0,0.1l0,0.1l0,0l0,0
						l0.9-0.1l-0.8,0.5l-0.1,0l0,0l0.1,0.1l0,0l0,0l0.8-0.5l-0.6,0.8l0,0.1l0.1,0l0.1,0l0,0l0,0l0.6-0.7l-0.2,0.8l0,0.1l0.1,0l0.1,0
						l0,0l0,0l0.2-0.7l0.2,1l0,0.1l0.1,0l0.1,0l0,0l0,0l-0.2-1l0.9,1.1l0,0l0,0l0.1-0.1l0,0l0,0l-0.8-1l1,0.4l0,0l0,0l0-0.1l0,0l0,0
						l-1-0.5l0.8,0h0l0,0l0-0.1l0-0.1l-0.1,0l-0.8,0l0.7-0.3l0,0l0,0l0-0.1l0-0.1l-0.1,0l-0.7,0.3l0.6-0.6l0,0l0,0l-0.1-0.1l0,0l0,0
						l-0.6,0.6l0.3-0.9l0,0l0,0l-0.1,0l0,0l0,0l-0.3,0.8l0-0.9l0-0.1l-0.1,0l-0.1,0l0,0l0,0l0,0.8L62.4,99.6L62.4,99.6L62.4,99.6z"
						/>
				</g>
			</g>
			<g id="XMLID_16263_">
				<path id="XMLID_16264_" fill="#C6C6C6" d="M63.2,101.4c0,0.2-0.1,0.3-0.3,0.2c-0.1-0.1-0.3-0.2-0.3-0.4c0-0.2,0.1-0.3,0.3-0.2
					C63.1,101.1,63.2,101.2,63.2,101.4z"/>
			</g>
		</g>
	</g>
</g>
</svg>
