<?xml version="1.0" encoding="utf-8"?>
<!-- Generator: Adobe Illustrator 16.0.0, SVG Export Plug-In . SVG Version: 6.00 Build 0)  -->
<!DOCTYPE svg PUBLIC "-//W3C//DTD SVG 1.1//EN" "http://www.w3.org/Graphics/SVG/1.1/DTD/svg11.dtd">
<svg version="1.1" id="Layer_1" xmlns="http://www.w3.org/2000/svg" xmlns:xlink="http://www.w3.org/1999/xlink" x="0px" y="0px"
	 width="164px" height="164px" viewBox="0 0 164 164" enable-background="new 0 0 164 164" xml:space="preserve">
<g id="XMLID_15227_">
	<defs>
		<path id="XMLID_15248_" d="M70.8,89.9c-0.7-0.3-1.4-0.8-2-1.1c0-0.1,0.1-0.1,0.1-0.2l1.8-3c0.1-0.1,0.1-0.2,0.1-0.3l1.8-3
			c0.1-0.1,0.1-0.2,0.1-0.3l1.8-3c0.1-0.1,0.1-0.2,0.1-0.3l1.8-3c0.1-0.1,0.1-0.2,0.1-0.3l1.8-3c0.1-0.1,0.1-0.2,0.1-0.3l1.4-2.4
			c0.2,0.1,0.5,0.1,0.8,0.3c0.7,0.3,1.6,1,2.2,1.2c-0.3,0.6,0.2,0.3,1.3,0.8c0.7,0.3,1.6,0.9,2.2,1.2l-1.9,3.2
			c-0.1,0.1-0.1,0.2-0.1,0.3l-1.7,2.9c-0.1,0-0.1,0.1-0.2,0.2l-1.9,3.2c-0.1,0.1-0.1,0.2-0.1,0.3l-1.8,3c-0.1,0.1-0.1,0.2-0.1,0.3
			l-1.8,3c-0.1,0.1-0.1,0.2-0.1,0.3l-1.4,2.4c-0.2-0.1-0.5-0.1-0.8-0.3c-0.7-0.3-1.6-1-2.2-1.2C72.4,90.2,71.9,90.5,70.8,89.9z"/>
	</defs>
	<clipPath id="XMLID_2_">
		<use xlink:href="#XMLID_15248_"  overflow="visible"/>
	</clipPath>
	<g id="XMLID_15250_" clip-path="url(#XMLID_2_)">
		<g id="XMLID_15306_">
			<defs>
				<polygon id="XMLID_15307_" points="75.4,62.5 60.6,88.1 65.6,91 80.4,65.4 				"/>
			</defs>
			<clipPath id="XMLID_3_">
				<use xlink:href="#XMLID_15307_"  overflow="visible"/>
			</clipPath>
			<polygon id="XMLID_15316_" clip-path="url(#XMLID_3_)" fill="#D1BE6F" points="75.4,62.5 60.4,88.5 65.4,91.4 80.4,65.4 			"/>
			
				<polygon id="XMLID_15315_" clip-path="url(#XMLID_3_)" fill="#D1BE6F" stroke="#918243" stroke-width="0.1" stroke-miterlimit="10" points="
				73.1,66.5 69.3,73 71.8,74.5 75.6,67.9 			"/>
			
				<polygon id="XMLID_15314_" clip-path="url(#XMLID_3_)" fill="#D1BE6F" stroke="#918243" stroke-width="0.1" stroke-miterlimit="10" points="
				69.3,73 65.5,79.6 68.1,81 71.8,74.5 			"/>
			
				<polygon id="XMLID_15313_" clip-path="url(#XMLID_3_)" fill="#D1BE6F" stroke="#918243" stroke-width="0.1" stroke-miterlimit="10" points="
				77.9,63.9 74.1,70.5 76.6,72 80.4,65.4 			"/>
			
				<polygon id="XMLID_15312_" clip-path="url(#XMLID_3_)" fill="#D1BE6F" stroke="#918243" stroke-width="0.1" stroke-miterlimit="10" points="
				74.1,70.5 70.3,77 72.8,78.5 76.6,72 			"/>
			
				<polygon id="XMLID_15311_" clip-path="url(#XMLID_3_)" fill="#D1BE6F" stroke="#918243" stroke-width="0.1" stroke-miterlimit="10" points="
				65.5,79.6 61.8,86.1 64.3,87.6 68.1,81 			"/>
			
				<polygon id="XMLID_15310_" clip-path="url(#XMLID_3_)" fill="#D1BE6F" stroke="#918243" stroke-width="0.1" stroke-miterlimit="10" points="
				61.8,86.1 58,92.7 60.5,94.1 64.3,87.6 			"/>
			
				<polygon id="XMLID_15309_" clip-path="url(#XMLID_3_)" fill="#D1BE6F" stroke="#918243" stroke-width="0.1" stroke-miterlimit="10" points="
				70.3,77 66.5,83.6 69,85.1 72.8,78.5 			"/>
			
				<polygon id="XMLID_15308_" clip-path="url(#XMLID_3_)" fill="#D1BE6F" stroke="#918243" stroke-width="0.1" stroke-miterlimit="10" points="
				66.5,83.6 62.7,90.1 65.3,91.6 69,85.1 			"/>
		</g>
		<g id="XMLID_15288_">
			<g id="XMLID_15303_">
				<polygon id="XMLID_15305_" fill="#A06137" points="97.5,74.4 80.8,64.7 65.4,91.4 66.7,92.2 81.3,66.9 95.9,75.3 				"/>
				<polygon id="XMLID_15304_" fill="#7C4723" points="98.9,75.2 82.2,65.5 66.7,92.2 68.1,93 82.7,67.7 97.2,76.1 				"/>
			</g>
			<g id="XMLID_15289_">
				<g id="XMLID_15292_">
					<defs>
						<polygon id="XMLID_15293_" points="82.5,66.6 67.7,92.2 72.7,95.1 87.4,69.5 						"/>
					</defs>
					<clipPath id="XMLID_4_">
						<use xlink:href="#XMLID_15293_"  overflow="visible"/>
					</clipPath>
					<polygon id="XMLID_15302_" clip-path="url(#XMLID_4_)" fill="#D1BE6F" points="82.4,66.6 67.4,92.6 72.4,95.5 87.4,69.5 					
						"/>
					
						<polygon id="XMLID_15301_" clip-path="url(#XMLID_4_)" fill="#D1BE6F" stroke="#918243" stroke-width="0.1" stroke-miterlimit="10" points="
						80.1,70.5 76.4,77.1 78.9,78.5 82.7,72 					"/>
					
						<polygon id="XMLID_15300_" clip-path="url(#XMLID_4_)" fill="#D1BE6F" stroke="#918243" stroke-width="0.1" stroke-miterlimit="10" points="
						76.4,77.1 72.6,83.6 75.1,85.1 78.9,78.5 					"/>
					
						<polygon id="XMLID_15299_" clip-path="url(#XMLID_4_)" fill="#D1BE6F" stroke="#918243" stroke-width="0.1" stroke-miterlimit="10" points="
						84.9,68 81.1,74.6 83.6,76 87.4,69.5 					"/>
					
						<polygon id="XMLID_15298_" clip-path="url(#XMLID_4_)" fill="#D1BE6F" stroke="#918243" stroke-width="0.1" stroke-miterlimit="10" points="
						81.1,74.6 77.3,81.1 79.9,82.6 83.6,76 					"/>
					
						<polygon id="XMLID_15297_" clip-path="url(#XMLID_4_)" fill="#D1BE6F" stroke="#918243" stroke-width="0.1" stroke-miterlimit="10" points="
						72.6,83.6 68.8,90.2 71.3,91.7 75.1,85.1 					"/>
					
						<polygon id="XMLID_15296_" clip-path="url(#XMLID_4_)" fill="#D1BE6F" stroke="#918243" stroke-width="0.1" stroke-miterlimit="10" points="
						68.8,90.2 65,96.7 67.5,98.2 71.3,91.7 					"/>
					
						<polygon id="XMLID_15295_" clip-path="url(#XMLID_4_)" fill="#D1BE6F" stroke="#918243" stroke-width="0.1" stroke-miterlimit="10" points="
						77.3,81.1 73.6,87.7 76.1,89.1 79.9,82.6 					"/>
					
						<polygon id="XMLID_15294_" clip-path="url(#XMLID_4_)" fill="#D1BE6F" stroke="#918243" stroke-width="0.1" stroke-miterlimit="10" points="
						73.6,87.7 69.8,94.2 72.3,95.7 76.1,89.1 					"/>
				</g>
				
					<rect id="XMLID_15291_" x="61" y="79" transform="matrix(0.5 -0.866 0.866 0.5 -31.2054 105.4706)" opacity="0.2" width="29.5" height="1.6"/>
				
					<rect id="XMLID_15290_" x="53.9" y="74.9" transform="matrix(0.5 -0.866 0.866 0.5 -31.2127 97.337)" opacity="0.2" width="29.5" height="1.6"/>
			</g>
		</g>
		<g id="XMLID_15271_">
			<g id="XMLID_15285_">
				<polygon id="XMLID_15287_" fill="#A06137" points="104.6,78.5 87.8,68.8 72.4,95.5 73.8,96.3 88.4,71 102.9,79.4 				"/>
				<polygon id="XMLID_15286_" fill="#7C4723" points="105.9,79.2 89.2,69.6 73.8,96.3 75.1,97.1 89.7,71.8 104.3,80.2 				"/>
			</g>
			<g id="XMLID_15272_">
				<g id="XMLID_15274_">
					<defs>
						<polygon id="XMLID_15275_" points="89.5,70.7 74.7,96.2 79.7,99.1 94.5,73.6 						"/>
					</defs>
					<clipPath id="XMLID_5_">
						<use xlink:href="#XMLID_15275_"  overflow="visible"/>
					</clipPath>
					<polygon id="XMLID_15284_" clip-path="url(#XMLID_5_)" fill="#D1BE6F" points="89.5,70.7 74.5,96.7 79.5,99.6 94.5,73.5 					
						"/>
					
						<polygon id="XMLID_15283_" clip-path="url(#XMLID_5_)" fill="#D1BE6F" stroke="#918243" stroke-width="0.1" stroke-miterlimit="10" points="
						87.2,74.6 83.4,81.2 85.9,82.6 89.7,76.1 					"/>
					
						<polygon id="XMLID_15282_" clip-path="url(#XMLID_5_)" fill="#D1BE6F" stroke="#918243" stroke-width="0.1" stroke-miterlimit="10" points="
						83.4,81.2 79.6,87.7 82.1,89.2 85.9,82.6 					"/>
					
						<polygon id="XMLID_15281_" clip-path="url(#XMLID_5_)" fill="#D1BE6F" stroke="#918243" stroke-width="0.1" stroke-miterlimit="10" points="
						91.9,72.1 88.2,78.6 90.7,80.1 94.5,73.5 					"/>
					
						<polygon id="XMLID_15280_" clip-path="url(#XMLID_5_)" fill="#D1BE6F" stroke="#918243" stroke-width="0.1" stroke-miterlimit="10" points="
						88.2,78.6 84.4,85.2 86.9,86.7 90.7,80.1 					"/>
					
						<polygon id="XMLID_15279_" clip-path="url(#XMLID_5_)" fill="#D1BE6F" stroke="#918243" stroke-width="0.1" stroke-miterlimit="10" points="
						79.6,87.7 75.8,94.3 78.4,95.7 82.1,89.2 					"/>
					
						<polygon id="XMLID_15278_" clip-path="url(#XMLID_5_)" fill="#D1BE6F" stroke="#918243" stroke-width="0.1" stroke-miterlimit="10" points="
						75.8,94.3 72.1,100.8 74.6,102.3 78.4,95.7 					"/>
					
						<polygon id="XMLID_15277_" clip-path="url(#XMLID_5_)" fill="#D1BE6F" stroke="#918243" stroke-width="0.1" stroke-miterlimit="10" points="
						84.4,85.2 80.6,91.7 83.1,93.2 86.9,86.7 					"/>
					
						<polygon id="XMLID_15276_" clip-path="url(#XMLID_5_)" fill="#D1BE6F" stroke="#918243" stroke-width="0.1" stroke-miterlimit="10" points="
						80.6,91.7 76.8,98.3 79.3,99.8 83.1,93.2 					"/>
				</g>
				
					<rect id="XMLID_15273_" x="68" y="83.1" transform="matrix(0.5 -0.866 0.866 0.5 -31.2242 113.6035)" opacity="0.2" width="29.5" height="1.6"/>
			</g>
		</g>
		<g id="XMLID_15254_">
			<g id="XMLID_15268_">
				<polygon id="XMLID_15270_" fill="#A06137" points="111.6,82.5 94.9,72.9 79.5,99.6 80.8,100.4 95.4,75.1 110,83.5 				"/>
				<polygon id="XMLID_15269_" fill="#7C4723" points="113,83.3 96.2,73.7 80.8,100.4 82.2,101.2 96.8,75.9 111.3,84.3 				"/>
			</g>
			<g id="XMLID_15255_">
				<g id="XMLID_15257_">
					<defs>
						<polygon id="XMLID_15258_" points="96.5,74.7 81.7,100.3 86.7,103.2 101.5,77.6 						"/>
					</defs>
					<clipPath id="XMLID_6_">
						<use xlink:href="#XMLID_15258_"  overflow="visible"/>
					</clipPath>
					<polygon id="XMLID_15267_" clip-path="url(#XMLID_6_)" fill="#D1BE6F" points="96.5,74.7 81.5,100.7 86.5,103.6 101.5,77.6 
											"/>
					
						<polygon id="XMLID_15266_" clip-path="url(#XMLID_6_)" fill="#D1BE6F" stroke="#918243" stroke-width="0.1" stroke-miterlimit="10" points="
						94.2,78.7 90.4,85.3 93,86.7 96.7,80.2 					"/>
					
						<polygon id="XMLID_15265_" clip-path="url(#XMLID_6_)" fill="#D1BE6F" stroke="#918243" stroke-width="0.1" stroke-miterlimit="10" points="
						90.4,85.3 86.7,91.8 89.2,93.3 93,86.7 					"/>
					
						<polygon id="XMLID_15264_" clip-path="url(#XMLID_6_)" fill="#D1BE6F" stroke="#918243" stroke-width="0.1" stroke-miterlimit="10" points="
						99,76.2 95.2,82.7 97.7,84.2 101.5,77.6 					"/>
					
						<polygon id="XMLID_15263_" clip-path="url(#XMLID_6_)" fill="#D1BE6F" stroke="#918243" stroke-width="0.1" stroke-miterlimit="10" points="
						95.2,82.7 91.4,89.3 93.9,90.7 97.7,84.2 					"/>
					
						<polygon id="XMLID_15262_" clip-path="url(#XMLID_6_)" fill="#D1BE6F" stroke="#918243" stroke-width="0.1" stroke-miterlimit="10" points="
						86.7,91.8 82.9,98.4 85.4,99.8 89.2,93.3 					"/>
					
						<polygon id="XMLID_15261_" clip-path="url(#XMLID_6_)" fill="#D1BE6F" stroke="#918243" stroke-width="0.1" stroke-miterlimit="10" points="
						82.9,98.4 79.1,104.9 81.6,106.4 85.4,99.8 					"/>
					
						<polygon id="XMLID_15260_" clip-path="url(#XMLID_6_)" fill="#D1BE6F" stroke="#918243" stroke-width="0.1" stroke-miterlimit="10" points="
						91.4,89.3 87.6,95.8 90.2,97.3 93.9,90.7 					"/>
					
						<polygon id="XMLID_15259_" clip-path="url(#XMLID_6_)" fill="#D1BE6F" stroke="#918243" stroke-width="0.1" stroke-miterlimit="10" points="
						87.6,95.8 83.9,102.4 86.4,103.8 90.2,97.3 					"/>
				</g>
				
					<rect id="XMLID_15256_" x="75" y="87.1" transform="matrix(0.5 -0.866 0.866 0.5 -31.2431 121.7356)" opacity="0.2" width="29.5" height="1.6"/>
			</g>
		</g>
		<g id="XMLID_15251_">
			<polygon id="XMLID_15253_" fill="#A06137" points="118.6,86.6 101.9,77 86.5,103.6 87.8,104.5 102.4,79.2 117,87.6 			"/>
			<polygon id="XMLID_15252_" fill="#7C4723" points="120,87.4 103.3,77.7 87.8,104.4 89.2,105.3 103.8,80 118.3,88.4 			"/>
		</g>
	</g>
</g>
</svg>
