<?xml version="1.0" encoding="utf-8"?>
<!-- Generator: Adobe Illustrator 16.0.0, SVG Export Plug-In . SVG Version: 6.00 Build 0)  -->
<!DOCTYPE svg PUBLIC "-//W3C//DTD SVG 1.1//EN" "http://www.w3.org/Graphics/SVG/1.1/DTD/svg11.dtd">
<svg version="1.1" id="Layer_1" xmlns="http://www.w3.org/2000/svg" xmlns:xlink="http://www.w3.org/1999/xlink" x="0px" y="0px"
	 width="164px" height="164px" viewBox="0 0 164 164" enable-background="new 0 0 164 164" xml:space="preserve">
<g id="XMLID_2_">
	<g id="XMLID_14996_">
		<polygon id="XMLID_15021_" fill="#848484" points="71.9,95.1 73,95.6 73.6,94.5 72.5,94 		"/>
		<path id="XMLID_15020_" opacity="0.3" d="M77.7,87.8l-11.7-6.4c-0.1-0.1-0.2,0-0.3,0.1l-0.3,0.5l0.3,0.2l0,0l-3.3,5.7l-0.3-0.2
			l-0.3,0.5c0,0.1,0,0.2,0.1,0.3l11.7,6.4c0.1,0.1,0.2,0,0.3-0.1l0.3-0.5l-0.3-0.2l3.3-5.7l0.3,0.2l0.3-0.5
			C77.9,88,77.8,87.9,77.7,87.8z"/>
		<polygon id="XMLID_15019_" fill="#002947" points="62.2,87.3 65.6,81.6 77,87.5 77,87.9 73.6,93.6 62.7,88 		"/>
		<g id="XMLID_15002_">
			<g id="XMLID_15003_">
				<polygon id="XMLID_15018_" fill="#001B24" points="77,87.9 76.6,87.6 73.2,93.3 73.6,93.6 				"/>
				<g id="XMLID_15004_">
					<polygon id="XMLID_15017_" fill="#001B24" points="67.2,82.5 66.8,82.2 63.5,88 64.3,88.4 64.3,88.4 63.9,88.2 					"/>
					<polygon id="XMLID_15016_" fill="#001B24" points="69.6,83.8 69.2,83.6 65.9,89.3 66.7,89.8 66.7,89.8 66.3,89.5 					"/>
					<polygon id="XMLID_15015_" fill="#001B24" points="72.1,85.2 71.7,84.9 68.3,90.7 69.2,91.1 69.2,91.1 68.7,90.9 					"/>
					<polygon id="XMLID_15014_" fill="#001B24" points="74.5,86.5 74.1,86.3 70.8,92 71.6,92.4 71.6,92.4 71.2,92.2 					"/>
					<polygon id="XMLID_15013_" fill="#001B24" points="66,81.8 62.6,87.5 63,87.7 66.4,82 					"/>
					<polygon id="XMLID_15012_" fill="#001B24" points="68,82.9 67.2,82.5 67.2,82.5 67.6,82.7 64.3,88.4 64.7,88.6 					"/>
					<polygon id="XMLID_15011_" fill="#001B24" points="68.4,83.1 65.1,88.9 65.5,89.1 68.8,83.4 					"/>
					<polygon id="XMLID_15010_" fill="#001B24" points="70.4,84.3 69.6,83.8 69.6,83.8 70,84 66.7,89.8 67.1,90 					"/>
					<polygon id="XMLID_15009_" fill="#001B24" points="70.9,84.5 67.5,90.2 67.9,90.4 71.3,84.7 					"/>
					<polygon id="XMLID_15008_" fill="#001B24" points="72.9,85.6 72.1,85.2 72.1,85.2 72.5,85.4 69.2,91.1 69.6,91.3 					"/>
					<polygon id="XMLID_15007_" fill="#001B24" points="73.3,85.8 70,91.5 70.4,91.8 73.7,86.1 					"/>
					<polygon id="XMLID_15006_" fill="#001B24" points="75.3,87 74.5,86.5 74.5,86.5 74.9,86.7 71.6,92.4 72,92.7 					"/>
					<polygon id="XMLID_15005_" fill="#001B24" points="75.7,87.2 72.4,92.9 72.8,93.1 76.2,87.4 					"/>
				</g>
			</g>
		</g>
		<path id="XMLID_15001_" fill="#001B24" d="M61.6,87.6c0,0.1,0,0.2,0.1,0.3l11.7,6.4c0.1,0.1,0.2,0,0.3-0.1l0.3-0.5l-12.1-6.6
			L61.6,87.6z"/>
		<path id="XMLID_15000_" fill="#001B24" d="M77.6,87.6c0.1-0.1,0-0.2-0.1-0.3l-11.7-6.4c-0.1-0.1-0.2,0-0.3,0.1l-0.3,0.5l12,6.6
			L77.6,87.6z"/>
		<polygon id="XMLID_14999_" opacity="0.2" points="73,94.7 73.2,95.2 73,95.6 72.7,95.5 72.5,94.8 		"/>
		<path id="XMLID_14998_" fill="#001B24" d="M73.1,93.8l-0.4-0.2l-0.4,0.7c0,0.1,0,0.1,0,0.2h0v0l0.1,0.2c0,0.1,0.1,0.2,0.3,0.2
			c0.2,0,0.3-0.2,0.3-0.2l-0.2-0.4L73.1,93.8z"/>
		<path id="XMLID_14997_" opacity="0.2" d="M72.3,94.5l0.1,0.2c0,0.1,0.1,0.2,0.3,0.2c0.2,0,0.3-0.2,0.3-0.2l-0.2-0.4
			C72.8,94.4,72.6,94.8,72.3,94.5L72.3,94.5L72.3,94.5z"/>
	</g>
	<polygon id="XMLID_7523_" opacity="4.000000e-002" fill="#FFFFFF" points="65.6,81.6 77,87.9 62.2,87.3 	"/>
</g>
</svg>
