<?xml version="1.0" encoding="utf-8"?>
<!-- Generator: Adobe Illustrator 16.0.0, SVG Export Plug-In . SVG Version: 6.00 Build 0)  -->
<!DOCTYPE svg PUBLIC "-//W3C//DTD SVG 1.1//EN" "http://www.w3.org/Graphics/SVG/1.1/DTD/svg11.dtd">
<svg version="1.1" id="Layer_1" xmlns="http://www.w3.org/2000/svg" xmlns:xlink="http://www.w3.org/1999/xlink" x="0px" y="0px"
	 width="164px" height="164px" viewBox="0 0 164 164" enable-background="new 0 0 164 164" xml:space="preserve">
<g id="XMLID_15083_">
	<g id="XMLID_15112_">
		<g id="XMLID_15114_">
			<g id="XMLID_15120_">
				<polygon id="XMLID_15124_" fill="#3A3A3A" points="77.3,74.5 77.3,74.5 77,74.3 77,75.6 77,75.6 77.3,75.8 				"/>
				<polygon id="XMLID_15123_" fill="#2D2D2D" points="77.3,74.5 77.3,74.5 77.7,74.3 77.7,75.6 77.7,75.6 77.3,75.8 				"/>
				<polygon id="XMLID_15122_" fill="#AFA28B" points="77.3,74.5 77.7,74.3 77.3,74 77,74.3 77.3,74.5 77.3,74.5 77.3,74.5 
					77.3,74.5 				"/>
				<line id="XMLID_15121_" fill="#AFA28B" x1="77.3" y1="74" x2="77" y2="74.3"/>
			</g>
			<g id="XMLID_15115_">
				<polygon id="XMLID_15119_" fill="#3A3A3A" points="80.3,77 80.3,77 79.9,76.7 79.9,78 79.9,78 80.3,78.3 				"/>
				<polygon id="XMLID_15118_" fill="#2D2D2D" points="80.3,77 80.3,77 80.7,76.7 80.7,78 80.7,78 80.3,78.3 				"/>
				<polygon id="XMLID_15117_" fill="#AFA28B" points="80.3,77 80.7,76.7 80.3,76.5 79.9,76.7 80.3,77 80.3,77 80.3,77 80.3,77 				
					"/>
				<line id="XMLID_15116_" fill="#AFA28B" x1="80.3" y1="76.5" x2="79.9" y2="76.7"/>
			</g>
		</g>
		<path id="XMLID_15113_" opacity="0.3" d="M74.4,75.4l7.5-4.4c0.1,0,0.2,0,0.3,0l0.4,0.2l-0.2,0.1l0,0l5.1,2.8l0.2-0.1l0.5,0.3
			c0.1,0,0.1,0.1,0,0.2l-7.5,4.4c-0.1,0-0.2,0-0.3,0l-0.5-0.3l0.2-0.1L75,75.7l-0.2,0.1l-0.4-0.2C74.3,75.5,74.3,75.4,74.4,75.4z"/>
	</g>
	<g id="XMLID_15084_">
		<g id="XMLID_15088_">
			<g id="XMLID_15090_">
				<polygon id="XMLID_15111_" fill="#565656" points="81.7,78.9 80.7,79.5 81.7,80 82.7,79.5 				"/>
				<polygon id="XMLID_15110_" fill="#002947" points="89.1,73.2 85,68.7 76.2,73.5 76.3,73.8 80.4,78.2 88.8,73.8 				"/>
				<g id="XMLID_15093_">
					<g id="XMLID_15094_">
						<polygon id="XMLID_15109_" fill="#001B24" points="76.3,73.8 76.6,73.6 80.7,78 80.4,78.2 						"/>
						<g id="XMLID_15095_">
							<polygon id="XMLID_15108_" fill="#001B24" points="83.7,69.4 84,69.3 88.1,73.7 87.5,74.1 87.5,74.1 87.8,73.9 							"/>
							<polygon id="XMLID_15107_" fill="#001B24" points="81.9,70.5 82.2,70.3 86.3,74.8 85.7,75.1 85.7,75.1 86,75 							"/>
							<polygon id="XMLID_15106_" fill="#001B24" points="80,71.6 80.3,71.4 84.4,75.9 83.8,76.2 83.8,76.2 84.1,76 							"/>
							<polygon id="XMLID_15105_" fill="#001B24" points="78.2,72.7 78.5,72.5 82.6,76.9 82,77.3 82,77.3 82.3,77.1 							"/>
							<polygon id="XMLID_15104_" fill="#001B24" points="84.7,68.9 88.8,73.3 88.5,73.5 84.4,69.1 							"/>
							<polygon id="XMLID_15103_" fill="#001B24" points="83.1,69.8 83.7,69.4 83.7,69.4 83.4,69.6 87.5,74.1 87.2,74.2 							"/>
							<polygon id="XMLID_15102_" fill="#001B24" points="82.8,70 86.9,74.4 86.6,74.6 82.5,70.2 							"/>
							<polygon id="XMLID_15101_" fill="#001B24" points="81.3,70.9 81.9,70.5 81.9,70.5 81.6,70.7 85.7,75.1 85.4,75.3 							"/>
							<polygon id="XMLID_15100_" fill="#001B24" points="81,71.1 85.1,75.5 84.8,75.7 80.7,71.2 							"/>
							<polygon id="XMLID_15099_" fill="#001B24" points="79.4,72 80,71.6 80,71.6 79.7,71.8 83.8,76.2 83.5,76.4 							"/>
							<polygon id="XMLID_15098_" fill="#001B24" points="79.1,72.1 83.2,76.6 82.9,76.8 78.8,72.3 							"/>
							<polygon id="XMLID_15097_" fill="#001B24" points="77.6,73 78.2,72.7 78.2,72.7 77.9,72.9 82,77.3 81.7,77.5 							"/>
							<polygon id="XMLID_15096_" fill="#001B24" points="77.3,73.2 81.4,77.7 81.1,77.8 77,73.4 							"/>
						</g>
					</g>
				</g>
				<path id="XMLID_15092_" fill="#001B24" d="M89.7,73.4c0.1,0.1,0,0.2,0,0.2l-8.8,5.2c-0.1,0-0.2,0-0.2,0l-0.4-0.4l9.1-5.3
					L89.7,73.4z"/>
				<path id="XMLID_15091_" fill="#001B24" d="M75.8,73.5c-0.1-0.1-0.1-0.2,0-0.2l8.8-5.1c0.1,0,0.2,0,0.3,0.1l0.3,0.4l-9.1,5.3
					L75.8,73.5z"/>
			</g>
			<polygon id="XMLID_15089_" opacity="4.000000e-002" fill="#FFFFFF" points="85,68.7 76.3,73.8 89.1,73.2 			"/>
		</g>
		<g id="XMLID_15085_">
			<path id="XMLID_15087_" fill="#001B24" d="M81.9,78.7c0-0.2-0.8-0.4-0.8-0.4l-0.3,0.3c0,0,0.7,0.2,0.7,0.3v0.6
				c0,0.1,0.1,0.1,0.2,0.1c0.1,0,0.2-0.1,0.2-0.1V78.7C81.9,78.7,81.9,78.7,81.9,78.7z"/>
			<path id="XMLID_15086_" opacity="0.2" d="M81.7,79.6c0.1,0,0.2-0.1,0.2-0.1v-0.7c0,0,0,0,0,0c0,0,0,0,0,0c0,0,0,0.1-0.4,0.2v0.6
				C81.5,79.5,81.6,79.6,81.7,79.6z"/>
		</g>
	</g>
</g>
</svg>
