<?xml version="1.0" encoding="utf-8"?>
<!-- Generator: Adobe Illustrator 19.1.0, SVG Export Plug-In . SVG Version: 6.00 Build 0)  -->
<!DOCTYPE svg PUBLIC "-//W3C//DTD SVG 1.1//EN" "http://www.w3.org/Graphics/SVG/1.1/DTD/svg11.dtd">
<svg version="1.1" id="Layer_1" xmlns="http://www.w3.org/2000/svg" xmlns:xlink="http://www.w3.org/1999/xlink" x="0px" y="0px"
	 viewBox="25 -25.6 164 164" style="enable-background:new 25 -25.6 164 164;" xml:space="preserve">
<style type="text/css">
	.st0{fill:#D2C7B0;}
	.st1{fill:#AD856A;}
	.st2{clip-path:url(#SVGID_2_);}
	.st3{fill:none;}
	.st4{fill:#544129;}
	.st5{fill:#60462F;}
	.st6{opacity:0.1;enable-background:new    ;}
	.st7{opacity:0.3;enable-background:new    ;}
	.st8{fill:#D4AB90;}
	.st9{fill:#B68E72;}
	.st10{fill:#90674C;}
	.st11{fill:#78D5FB;}
	.st12{opacity:0.2;enable-background:new    ;}
	.st13{opacity:0.6;}
	.st14{fill:#C6C6C6;}
	.st15{fill:#FFFFFF;}
	.st16{opacity:8.000000e-02;enable-background:new    ;}
</style>
<g id="A1-building">
	<polygon id="XMLID_5993_" class="st0" points="114,76.7 142.3,60.3 114,44 85.6,60.3 	"/>
	<g id="XMLID_3_">
		<polygon id="XMLID_5992_" class="st1" points="114,93.1 114,76.7 114,76.7 128.1,68.5 142.3,60.3 142.3,76.7 142.3,76.7 
			128.1,84.9 		"/>
		<g id="Door_11_">
			<g>
				<defs>
					<polygon id="SVGID_1_" points="99.8,84.9 114,93.1 114,76.7 99.8,68.5 					"/>
				</defs>
				<clipPath id="SVGID_2_">
					<use xlink:href="#SVGID_1_"  style="overflow:visible;"/>
				</clipPath>
				<g id="XMLID_5964_" class="st2">
					<g id="XMLID_5981_">
						<g id="XMLID_5984_">
							<g id="XMLID_5985_">
								<g id="XMLID_5986_">
									<g id="XMLID_5987_">
										<g id="XMLID_5988_">
											<g id="XMLID_5989_">
												<polygon id="XMLID_5991_" class="st3" points="104.1,75 104.1,87.3 109.6,90.5 109.6,78.2 												"/>
												<polygon id="XMLID_5990_" class="st4" points="104.1,74.1 103.1,73.5 103.1,86.8 103.7,87.1 104.1,87.3 104.1,75 
													109.6,78.2 109.6,90.5 110,90.8 110.6,91.1 110.6,89.8 110.7,77.8 												"/>
											</g>
										</g>
									</g>
								</g>
							</g>
						</g>
						<g id="XMLID_5982_">
							<polygon id="XMLID_5983_" class="st3" points="104.1,75 104.1,87.3 109.6,90.5 109.6,78.2 							"/>
						</g>
					</g>
					<g id="XMLID_5965_">
						<g id="XMLID_5968_">
							<polygon id="XMLID_5980_" class="st5" points="109.6,90.5 104.1,87.3 104.1,74.9 109.6,78.2 							"/>
							<polygon id="XMLID_5979_" class="st6" points="109.6,90.5 104.1,87.3 104.1,75 109.6,78.2 							"/>
							<g id="XMLID_5969_">
								<g id="XMLID_5972_">
									<g id="XMLID_5973_">
										<g id="XMLID_5974_">
											<g id="XMLID_5975_">
												<g id="XMLID_5976_">
													<g id="XMLID_5977_">
														<polygon id="XMLID_5978_" class="st3" points="104.1,75 104.1,87.3 109.6,90.5 109.6,78.2 														"/>
													</g>
												</g>
											</g>
										</g>
									</g>
								</g>
								<g id="XMLID_5970_">
									<polygon id="XMLID_5971_" class="st3" points="104.1,75 104.1,87.3 109.6,90.5 109.6,78.2 									"/>
								</g>
							</g>
						</g>
						<polygon id="XMLID_5967_" class="st6" points="104.1,74.1 103.1,73.5 103.1,86.8 104.1,87.3 104.1,75 109.6,78.2 109.6,90.5 
							110.6,91.1 110.6,89.8 110.7,77.8 						"/>
						<polygon id="XMLID_5966_" class="st7" points="104.1,75 104.1,87.3 104.5,87.6 104.5,75.2 						"/>
					</g>
				</g>
			</g>
		</g>
		<polygon id="XMLID_5962_" class="st8" points="85.6,76.7 114,93.1 114,76.7 85.6,60.3 		"/>
		<polygon id="XMLID_5961_" class="st1" points="114,93.1 114,76.7 114,76.7 128.1,68.5 142.3,60.3 142.3,76.7 142.3,76.7 
			128.1,84.9 		"/>
		<g id="XMLID_5950_">
			<polygon id="XMLID_5960_" class="st3" points="99.8,68.5 99.8,84.9 99.8,84.9 114,93.1 114,76.7 114,76.7 			"/>
			<polygon id="XMLID_5959_" class="st9" points="111.6,75.3 111.6,77.3 114,78.7 114,76.7 			"/>
			<polygon id="XMLID_5958_" class="st9" points="109.3,78.7 113.3,81.1 113.3,79.1 109.3,76.7 			"/>
			<polygon id="XMLID_5957_" class="st9" points="109.3,89.7 113.3,92 113.3,90 109.3,87.7 			"/>
			<polygon id="XMLID_5956_" class="st9" points="104.5,86.9 108.6,89.3 108.6,87.3 104.5,84.9 			"/>
			<polyline id="XMLID_5955_" class="st9" points="103.8,86.6 103.8,84.6 99.8,82.2 99.8,84.2 			"/>
			<polygon id="XMLID_5954_" class="st9" points="104.5,81.5 108.6,83.8 108.6,81.8 104.5,79.5 			"/>
			<polygon id="XMLID_5953_" class="st9" points="103.8,79.1 99.8,76.7 99.8,78.7 103.8,81.1 			"/>
			<polygon id="XMLID_5952_" class="st9" points="111.6,88.3 114,89.7 114,87.7 111.6,86.3 			"/>
			<polygon id="XMLID_5951_" class="st9" points="111.6,82.9 114,84.2 114,82.2 111.6,80.9 			"/>
		</g>
		<g id="XMLID_5923_">
			<g id="XMLID_5927_">
				<polygon id="XMLID_5949_" class="st10" points="117,75 121,72.7 121.1,72.6 121.1,74.6 117,77 				"/>
				<polygon id="XMLID_5948_" class="st10" points="116.3,75.3 116.3,77.3 114,78.7 114,76.7 				"/>
				<polygon id="XMLID_5947_" class="st10" points="118.7,78.7 114.6,81.1 114.6,79.1 118.7,76.7 				"/>
				<polygon id="XMLID_5946_" class="st10" points="118.7,89.7 114.6,92 114.6,90 118.7,87.7 				"/>
				<polygon id="XMLID_5945_" class="st10" points="124.1,84.5 128.1,82.2 128.1,84.2 124.1,86.5 				"/>
				<polygon id="XMLID_5944_" class="st10" points="118.7,84.2 114.6,86.5 114.6,84.5 118.7,82.2 				"/>
				<polygon id="XMLID_5940_" class="st10" points="116.3,88.3 114,89.7 114,87.7 116.3,86.3 				"/>
				<polygon id="XMLID_5939_" class="st10" points="126.5,80.5 128.1,79.5 128.1,81.5 126.5,82.5 				"/>
				<polygon id="XMLID_5928_" class="st10" points="116.3,82.9 114,84.2 114,82.2 116.3,80.9 				"/>
			</g>
		</g>
		<g id="XMLID_5912_">
			<g id="XMLID_5913_">
				<polygon id="XMLID_5921_" class="st10" points="140.6,61.3 142.3,60.3 142.3,62.3 140.6,63.3 				"/>
				<polygon id="XMLID_5920_" class="st10" points="135.9,64 138.9,62.3 140,61.7 140,63.7 135.9,66 				"/>
				<polygon id="XMLID_5919_" class="st10" points="137.6,67.8 133.5,70.1 133.5,68.1 137.6,65.8 				"/>
				<polygon id="XMLID_5918_" class="st10" points="138.3,65.4 142.3,63.1 142.3,65.1 138.3,67.4 				"/>
				<polygon id="XMLID_5917_" class="st10" points="132.9,81.5 128.8,83.8 128.8,81.8 132.9,79.5 				"/>
				<polygon id="XMLID_5916_" class="st10" points="138.3,70.9 142.3,68.6 142.3,70.6 138.3,72.9 				"/>
				<polygon id="XMLID_5915_" class="st10" points="140.7,72.3 142.3,71.3 142.3,73.3 140.7,74.3 				"/>
				<polygon id="XMLID_5914_" class="st10" points="140.7,66.8 142.3,65.8 142.3,67.8 140.7,68.8 				"/>
			</g>
		</g>
		<g id="XMLID_5903_">
			<polygon id="XMLID_5911_" class="st9" points="87.3,61.3 85.6,60.3 85.6,62.3 87.3,63.3 			"/>
			<polygon id="XMLID_5910_" class="st9" points="92,64 89.1,62.3 88,61.7 88,63.7 92,66 			"/>
			<polygon id="XMLID_5909_" class="st9" points="90.3,67.8 94.4,70.1 94.4,68.1 90.3,65.8 			"/>
			<polygon id="XMLID_5908_" class="st9" points="95.1,70.5 99.2,72.9 99.2,70.9 95.1,68.5 			"/>
			<polygon id="XMLID_5907_" class="st9" points="89.7,65.4 85.6,63.1 85.6,65.1 89.7,67.4 			"/>
			<polygon id="XMLID_5906_" class="st9" points="89.7,76.4 85.6,74 85.6,76 89.7,78.4 			"/>
			<polygon id="XMLID_5905_" class="st9" points="87.3,72.3 85.6,71.3 85.6,73.3 87.3,74.3 			"/>
			<polygon id="XMLID_5904_" class="st9" points="87.3,66.8 85.6,65.8 85.6,67.8 87.3,68.8 			"/>
		</g>
		<polyline id="XMLID_5902_" class="st9" points="101.5,82.5 101.5,80.5 97.5,78.2 97.5,80.2 		"/>
		<polygon id="XMLID_5901_" class="st9" points="101.5,69.5 97.5,67.2 97.5,67.2 97.5,69.2 101.5,71.5 		"/>
		<g id="Door_10_">
			<g id="XMLID_5_">
				<g id="XMLID_5890_">
					<g id="XMLID_5893_">
						<g id="XMLID_5894_">
							<g id="XMLID_5895_">
								<g id="XMLID_5896_">
									<g id="XMLID_5897_">
										<g id="XMLID_5898_">
											<polygon id="XMLID_5900_" class="st3" points="89.9,66.8 89.9,79.1 95.4,82.3 95.5,70 											"/>
											<polygon id="XMLID_5899_" class="st4" points="89.9,65.9 88.9,65.3 88.9,78.6 89.5,78.9 89.9,79.1 89.9,66.8 95.5,70 
												95.4,82.3 95.8,82.6 96.4,82.9 96.4,81.6 96.5,69.6 											"/>
										</g>
									</g>
								</g>
							</g>
						</g>
					</g>
					<g id="XMLID_5891_">
						<polygon id="XMLID_5892_" class="st3" points="89.9,66.8 89.9,79.1 95.4,82.3 95.5,70 						"/>
					</g>
				</g>
				<g id="XMLID_6_">
					<g id="XMLID_9_">
						<polygon id="XMLID_5889_" class="st5" points="95.4,82.3 89.9,79.1 89.9,66.7 95.5,70 						"/>
						<polygon id="XMLID_5888_" class="st6" points="95.4,82.3 89.9,79.1 89.9,66.8 95.5,70 						"/>
						<g id="XMLID_5878_">
							<g id="XMLID_5881_">
								<g id="XMLID_5882_">
									<g id="XMLID_5883_">
										<g id="XMLID_5884_">
											<g id="XMLID_5885_">
												<g id="XMLID_5886_">
													<polygon id="XMLID_5887_" class="st3" points="89.9,66.8 89.9,79.1 95.4,82.3 95.5,70 													"/>
												</g>
											</g>
										</g>
									</g>
								</g>
							</g>
							<g id="XMLID_5879_">
								<polygon id="XMLID_5880_" class="st3" points="89.9,66.8 89.9,79.1 95.4,82.3 95.5,70 								"/>
							</g>
						</g>
					</g>
					<polygon id="XMLID_7_" class="st6" points="89.9,65.9 88.9,65.3 88.9,78.6 89.9,79.1 89.9,66.8 95.5,70 95.4,82.3 96.4,82.9 
						96.4,81.6 96.5,69.6 					"/>
					<polygon id="XMLID_5994_" class="st7" points="89.9,66.8 89.9,79.1 90.3,79.4 90.3,67 					"/>
				</g>
			</g>
		</g>
	</g>
</g>
<g id="A1-windows">
	<g id="XMLID_7734_">
		<g id="XMLID_7735_">
			<g id="XMLID_7772_">
				<g id="XMLID_7802_">
					<g id="XMLID_7807_">
						<g id="XMLID_7808_">
							<g id="XMLID_7809_">
								<g id="XMLID_7810_">
									<g id="XMLID_7813_">
										<g id="XMLID_7819_">
											<g id="XMLID_7828_">
												<polygon class="st11" points="128.1,80.1 135.2,75.8 135.2,67.5 128.1,71.8 												"/>
											</g>
											<g id="XMLID_7822_">
												<polygon id="XMLID_7827_" class="st11" points="131.7,77.7 134.5,76.1 134.5,68.2 131.7,69.8 												"/>
												<path id="XMLID_7826_" class="st12" d="M131.7,69.8l2.7-1.6v7.9l-1.7,1c0-2,0.7-3.5,0.7-3.5
													C132,73.7,131.7,69.8,131.7,69.8z"/>
												<g id="XMLID_7823_" class="st13">
													<path id="XMLID_7825_" class="st14" d="M132.4,69.4l2.1-1.2v7.9l-1.3,0.7c0-2,0.5-3.4,0.5-3.4
														C132.6,73.4,132.4,69.4,132.4,69.4z"/>
													<path id="XMLID_7824_" class="st15" d="M132.5,69.3l1.9-1.1v7.9l-1.2,0.7c0-2,0.5-3.4,0.5-3.4
														C132.7,73.3,132.5,69.3,132.5,69.3z"/>
												</g>
											</g>
											<g id="XMLID_7820_">
												<polygon id="XMLID_7821_" class="st11" points="131.4,77.9 128.3,79.6 128.3,71.8 131.4,70 												"/>
											</g>
										</g>
										<polygon id="XMLID_7818_" class="st16" points="134.9,68 134.9,76 128.3,71.8 										"/>
										<polygon id="XMLID_7817_" class="st3" points="134.9,76.3 128.3,80 128.3,71.8 134.9,68 										"/>
										<path id="XMLID_7814_" class="st4" d="M127.3,71.4l0.1,9.2v1.3l0.6-0.3l7.3-4.2l0.3-0.2V66.7l-0.8,0.4L127.3,71.4z
											 M128.3,71.8l6.6-3.8v8.2l-6.5,3.8L128.3,71.8z"/>
									</g>
									<polygon id="XMLID_7812_" class="st4" points="128.3,79.6 134.5,76 134.9,76.3 128.3,80 									"/>
									<polygon id="XMLID_7811_" class="st4" points="134.5,68.2 134.5,76 134.9,76.3 134.9,68 									"/>
								</g>
							</g>
						</g>
					</g>
					<polygon id="XMLID_7806_" class="st7" points="134.5,68.2 134.5,76 134.9,76.3 134.9,68 					"/>
					<path id="XMLID_7803_" class="st6" d="M127.3,71.4l0.1,9.2v1.3l0.6-0.3l7.3-4.2l0.3-0.2V66.7l-0.8,0.4L127.3,71.4z M128.3,71.8
						l6.6-3.8v8.2l-6.5,3.8L128.3,71.8z"/>
				</g>
				<g id="XMLID_7775_">
					<g id="XMLID_7780_">
						<g id="XMLID_7781_">
							<g id="XMLID_7782_">
								<g id="XMLID_7783_">
									<g id="XMLID_7786_">
										<g id="XMLID_7792_">
											<g id="XMLID_7801_">
												<polygon class="st11" points="121.5,83.8 128.7,79.5 128.6,71.3 121.5,75.6 												"/>
											</g>
											<g id="XMLID_7799_">
												<polygon id="XMLID_7800_" class="st11" points="125.2,81.4 127.9,79.9 127.9,72 125.2,73.5 												"/>
											</g>
											<g id="XMLID_7793_">
												<polygon id="XMLID_7798_" class="st11" points="124.8,81.6 121.8,83.4 121.8,75.5 124.8,73.7 												"/>
												<path id="XMLID_7797_" class="st12" d="M124.8,73.7l-3.1,1.8v7.9l1.9-1.1c0-2-0.8-2.6-0.8-2.6
													C124.5,78,124.8,73.7,124.8,73.7z"/>
												<g id="XMLID_7794_" class="st13">
													<path id="XMLID_7796_" class="st14" d="M124.1,74.2l-2.4,1.4v7.9l1.5-0.8c0-2-0.6-2.7-0.6-2.7
														C123.9,78.4,124.1,74.2,124.1,74.2z"/>
													<path id="XMLID_7795_" class="st15" d="M123.9,74.3l-2.2,1.3v7.9l1.3-0.8c0-2-0.5-2.8-0.5-2.8
														C123.7,78.5,123.9,74.3,123.9,74.3z"/>
												</g>
											</g>
										</g>
										<polygon id="XMLID_7791_" class="st16" points="128.3,71.8 127.9,79.8 121.8,75.5 										"/>
										<polygon id="XMLID_7790_" class="st3" points="128.3,80 121.8,83.8 121.8,75.5 128.3,71.8 										"/>
										<path id="XMLID_7787_" class="st4" d="M120.7,75.2l0.1,9.2v1.3l0.6-0.3l7.3-4.2l0,0V70.8l-0.4,0.2L120.7,75.2z
											 M121.8,75.5l6.6-3.8v8.2l-6.5,3.8L121.8,75.5z"/>
									</g>
									<polygon id="XMLID_7785_" class="st4" points="121.8,83.3 127.9,79.8 128.3,80 121.8,83.8 									"/>
									<polygon id="XMLID_7784_" class="st4" points="127.9,72 127.9,79.8 128.3,80 128.3,71.8 									"/>
								</g>
							</g>
						</g>
					</g>
					<polygon id="XMLID_7779_" class="st7" points="127.9,72 127.9,79.8 128.3,80 128.3,71.8 					"/>
					<path id="XMLID_7776_" class="st6" d="M120.7,75.2l0.1,9.2v1.3l0.6-0.3l7.3-4.2l0,0V70.8l-0.4,0.2L120.7,75.2z M121.8,75.5
						l6.6-3.8v8.2l-6.5,3.8L121.8,75.5z"/>
				</g>
				<polygon id="XMLID_7774_" class="st6" points="135.6,77.1 120.8,85.6 120.7,75.2 135.6,66.7 				"/>
				<polygon id="XMLID_7773_" class="st3" points="142.3,60.3 142.3,76.7 142.3,76.7 114,93.1 114,76.7 				"/>
			</g>
			<g id="Window_2_">
				<g id="XMLID_7737_">
					<g id="XMLID_7746_">
						<g id="XMLID_7747_">
							<g id="XMLID_7748_">
								<g id="XMLID_7749_">
									<g id="XMLID_7752_">
										<g id="XMLID_7758_">
											<g id="XMLID_7771_">
												<polygon class="st11" points="110.2,86.1 103.1,81.8 103.1,73.5 110.3,77.8 												"/>
											</g>
											<g id="XMLID_7765_">
												<polygon id="XMLID_7770_" class="st11" points="106.6,83.7 103.9,82.1 103.9,74.2 106.6,75.8 												"/>
												<path id="XMLID_7769_" class="st12" d="M106.6,75.8l-2.7-1.6v7.9l1.7,1c0-2-0.7-3.5-0.7-3.5
													C106.3,79.7,106.6,75.8,106.6,75.8z"/>
												<g id="XMLID_7766_" class="st13">
													<path id="XMLID_7768_" class="st14" d="M106,75.4l-2.1-1.2v7.9l1.3,0.7c0-2-0.5-3.4-0.5-3.4
														C105.7,79.4,106,75.4,106,75.4z"/>
													<path id="XMLID_7767_" class="st15" d="M105.8,75.3l-1.9-1.1v7.9l1.2,0.7c0-2-0.5-3.4-0.5-3.4
														C105.6,79.3,105.8,75.3,105.8,75.3z"/>
												</g>
											</g>
											<g id="XMLID_7759_">
												<polygon id="XMLID_7764_" class="st11" points="106.9,83.9 110,85.6 110,77.8 106.9,76 												"/>
												<path id="XMLID_7763_" class="st12" d="M106.9,76l3.1,1.8v7.9l-1.9-1.1c0-2,0.8-2.6,0.8-2.6
													C107.3,80.3,106.9,76,106.9,76z"/>
												<g id="XMLID_7760_" class="st13">
													<path id="XMLID_7762_" class="st14" d="M107.7,76.4l2.4,1.4v7.9l-1.5-0.8c0-2,0.6-2.7,0.6-2.7
														C107.9,80.6,107.7,76.4,107.7,76.4z"/>
													<path id="XMLID_7761_" class="st15" d="M107.8,76.5l2.2,1.3v7.9l-1.3-0.8c0-2,0.5-2.8,0.5-2.8
														C108.1,80.7,107.8,76.5,107.8,76.5z"/>
												</g>
											</g>
										</g>
										<polygon id="XMLID_7757_" class="st16" points="103.5,74 110,85.6 110,77.8 										"/>
										<polygon id="XMLID_7756_" class="st3" points="103.5,82.3 110,86 110,77.8 103.5,74 										"/>
										<path id="XMLID_7753_" class="st4" d="M103.5,73.1l-0.8-0.4v10.4l0.3,0.2l7.3,4.2l0.6,0.3v-1.3l0.1-9.2L103.5,73.1z
											 M110,86l-6.5-3.8V74l6.6,3.8L110,86z"/>
									</g>
									<polygon id="XMLID_7751_" class="st4" points="110,85.6 103.8,82 103.5,82.3 110,86 									"/>
									<polygon id="XMLID_7750_" class="st4" points="103.9,74.2 103.8,82 103.5,82.3 103.5,74 									"/>
								</g>
							</g>
						</g>
					</g>
					<g id="XMLID_7743_">
						<polygon id="XMLID_7745_" class="st4" points="106.3,75.6 106.3,83.9 106.6,84.1 106.6,75.8 						"/>
						<polygon id="XMLID_7744_" class="st4" points="106.6,75.8 106.6,75.8 106.6,84.1 106.9,83.9 106.9,76 						"/>
					</g>
					<polygon id="XMLID_7742_" class="st7" points="103.9,74.2 103.8,82 103.5,82.3 103.5,74 					"/>
					<polygon id="XMLID_7741_" class="st7" points="106.6,75.8 106.6,75.8 106.6,84.1 106.9,83.9 106.9,76 					"/>
					<path id="XMLID_7738_" class="st6" d="M103.5,73.1l-0.8-0.4v10.4l0.3,0.2l7.3,4.2l0.6,0.3v-1.3l0.1-9.2L103.5,73.1z M110,86
						l-6.5-3.8V74l6.6,3.8L110,86z"/>
				</g>
			</g>
			<polygon id="XMLID_7736_" class="st3" points="85.6,76.7 114,93.1 114,76.7 85.6,60.3 			"/>
		</g>
	</g>
</g>
</svg>
