<?xml version="1.0" encoding="utf-8"?>
<!-- Generator: Adobe Illustrator 16.0.0, SVG Export Plug-In . SVG Version: 6.00 Build 0)  -->
<!DOCTYPE svg PUBLIC "-//W3C//DTD SVG 1.1//EN" "http://www.w3.org/Graphics/SVG/1.1/DTD/svg11.dtd">
<svg version="1.1" id="Layer_1" xmlns="http://www.w3.org/2000/svg" xmlns:xlink="http://www.w3.org/1999/xlink" x="0px" y="0px"
	 width="164px" height="164px" viewBox="0 0 164 164" enable-background="new 0 0 164 164" xml:space="preserve">
<g id="XMLID_15352_">
	<g id="XMLID_15392_">
		<polygon id="XMLID_15393_" fill="#2B2927" points="95.9,90.7 89.4,94.6 91.3,95.7 97.9,91.9 		"/>
	</g>
	<g id="XMLID_15384_">
		<g id="XMLID_15390_">
			<g id="XMLID_15391_">
				<polygon fill="#D1BE6F" points="87.8,91.2 90,90 93.7,92.1 91.5,93.3 				"/>
				<path fill="#918243" d="M90,90l3.6,2.1l-2.1,1.2l-3.6-2.1L90,90 M90,89.9l-2.2,1.2l3.7,2.1l2.2-1.2L90,89.9L90,89.9z"/>
			</g>
		</g>
		<g id="XMLID_15389_">
			<polygon fill="#D1BE6F" points="85.7,92.4 87.8,91.2 91.5,93.3 89.4,94.5 			"/>
			<path fill="#918243" d="M87.8,91.2l3.6,2.1l-2.1,1.2l-3.6-2.1L87.8,91.2 M87.8,91.2l-2.2,1.2l3.7,2.1l2.2-1.2L87.8,91.2
				L87.8,91.2z"/>
		</g>
		<g id="XMLID_15388_">
			<polygon fill="#D1BE6F" points="90,89.9 92.2,88.7 95.8,90.8 93.7,92 			"/>
			<path fill="#918243" d="M92.2,88.7l3.6,2.1L93.7,92l-3.6-2.1L92.2,88.7 M92.2,88.7L90,89.9l3.7,2.1l2.2-1.2L92.2,88.7L92.2,88.7z
				"/>
		</g>
		<polygon id="XMLID_15387_" opacity="0.2" points="92.2,89.3 92.2,88.7 85.6,92.4 86.2,92.7 		"/>
		<g id="XMLID_15386_">
			<polygon fill="#D1BE6F" points="87.5,93.5 89.7,92.3 91.5,93.3 89.4,94.5 			"/>
			<path fill="#918243" d="M89.7,92.3l1.7,1l-2.1,1.2l-1.7-1L89.7,92.3 M89.7,92.2l-2.2,1.2l1.8,1.1l2.2-1.2L89.7,92.2L89.7,92.2z"
				/>
		</g>
		<g id="XMLID_15385_">
			<polygon fill="#D1BE6F" points="91.8,91 94,89.8 95.8,90.8 93.7,92 			"/>
			<path fill="#918243" d="M94,89.8l1.7,1L93.7,92l-1.7-1L94,89.8 M94,89.7L91.8,91l1.8,1.1l2.2-1.2L94,89.7L94,89.7z"/>
		</g>
	</g>
	<path id="XMLID_15383_" opacity="0.8" fill="#1C1C1C" d="M90,86.6l-8,3.3c0.8,0.8,2.1,1.7,3.6,2.5l6.5-3.7
		C91.2,87.9,90.1,86.9,90,86.6z"/>
	<g id="XMLID_15375_">
		<path id="XMLID_15382_" fill="#3A3735" d="M89.5,84c-0.7-0.3-1.3-0.2-1.7,0.1l0,0l-6.2,3.4c0,0,0,0,0,0l0,0l0,0
			c-0.2,0.1-0.4,0.3-0.5,0.6c-0.2,0.7,0.4,1.6,1.4,2.1c0.6,0.3,1.3,0.3,1.7,0.1l0,0l5.8-3.3c0.3,0,0.6-0.2,0.7-0.4l0,0l0,0
			c0.1-0.1,0.1-0.2,0.1-0.3C91.1,85.4,90.5,84.4,89.5,84z"/>
		<path id="XMLID_15381_" opacity="0.2" fill="#FFFFFF" d="M84.6,89.7c-0.2,0.8-1.1,1-2.1,0.5c-1-0.5-1.6-1.4-1.4-2.1
			c0.2-0.7,1.1-1,2.1-0.6C84.2,87.9,84.8,88.9,84.6,89.7z"/>
		<path id="XMLID_15380_" opacity="0.1" fill="#FFFFFF" d="M82.8,87.4l6.3-3.5c-0.5-0.1-1-0.1-1.3,0.2l0,0l-6.2,3.4
			C81.9,87.3,82.4,87.3,82.8,87.4z"/>
		<path id="XMLID_15379_" fill="#2B2927" d="M90.9,85.9l-6.3,3.5c0,0.1,0,0.2,0,0.3c-0.1,0.2-0.2,0.4-0.4,0.6l0,0l5.9-3.2
			c0,0,0.5-0.3,0.7-0.6l0,0l0,0c0.1-0.1,0.1-0.2,0.1-0.3C90.9,86.1,90.9,86,90.9,85.9z"/>
		<path id="XMLID_15378_" opacity="0.4" fill="#3A3735" stroke="#FFFFFF" stroke-width="0.1" stroke-miterlimit="10" d="M83.7,89.5
			c-0.1,0.3-0.6,0.3-1,0.1c-0.4-0.2-0.7-0.7-0.6-0.9c0.1-0.3,0.6-0.3,1-0.1C83.6,88.7,83.9,89.2,83.7,89.5z"/>
		<path id="XMLID_15377_" opacity="0.2" fill="none" stroke="#FFFFFF" stroke-width="0.1" stroke-miterlimit="10" d="M84.2,89.9
			c-0.3,0.6-1.2,0.5-1.9,0c-0.7-0.5-1.1-1.4-0.8-1.9c0.3-0.5,1.2-0.5,1.9,0C84.2,88.4,84.5,89.3,84.2,89.9z"/>
		<path id="XMLID_15376_" opacity="0.2" fill="#3A3735" stroke="#FFFFFF" stroke-width="0.1" stroke-miterlimit="10" d="M84,89.7
			c-0.3,0.4-0.9,0.4-1.6-0.1c-0.6-0.4-0.9-1.1-0.7-1.5s0.9-0.4,1.6,0C84,88.6,84.3,89.3,84,89.7z"/>
	</g>
	<path id="XMLID_15374_" opacity="4.000000e-002" fill="#FFFFFF" d="M89.2,84.1c0,0,0.8,0.2,1,0.7c0,0-1.9,0.3-6.1,2.1L89.2,84.1z"
		/>
	<g id="XMLID_15370_">
		<g id="XMLID_15373_">
			<polygon fill="#918243" points="89.4,90.9 89.2,90.6 97,84.3 97.1,84.7 91.8,91.3 			"/>
			<path fill="#918243" d="M97,84.4l0.1,0.3l-5.3,6.6l-2.4-0.4l-0.1-0.3L97,84.4 M97,84.3l-7.8,6.2l0.1,0.4l2.5,0.4l5.4-6.6L97,84.3
				L97,84.3z"/>
		</g>
		<g id="XMLID_15372_">
			<polygon fill="#D1BE6F" points="89.2,90.5 94.6,83.9 97,84.3 91.7,90.9 			"/>
			<path fill="#918243" d="M94.6,84l2.4,0.4l-5.3,6.5l-2.4-0.4L94.6,84 M94.6,83.9l-5.3,6.6l2.5,0.4l5.4-6.6L94.6,83.9L94.6,83.9z"
				/>
		</g>
		<polygon id="XMLID_15371_" fill="#665B2B" stroke="#665B2B" stroke-width="5.000000e-002" stroke-miterlimit="10" points="
			97,84.3 97.2,84.7 91.8,91.3 91.7,90.9 		"/>
	</g>
	<g id="XMLID_15353_">
		<g id="XMLID_15369_">
			<polygon fill="#918243" points="90.5,90.4 90.5,90 99.8,86.3 99.8,86.7 92.7,91.5 			"/>
			<path fill="#918243" d="M99.7,86.4l0,0.3l-7,4.8l-2.2-1.1l0-0.3L99.7,86.4 M99.8,86.3L90.5,90l0,0.4l2.3,1.1l7-4.8L99.8,86.3
				L99.8,86.3z"/>
		</g>
		<g id="XMLID_15368_">
			<polygon fill="#D1BE6F" points="90.5,90 97.5,85.3 99.7,86.3 92.7,91.1 			"/>
			<path fill="#918243" d="M97.5,85.3l2.1,1l-6.9,4.7l-2.1-1L97.5,85.3 M97.5,85.2l-7,4.8l2.2,1.1l7-4.8L97.5,85.2L97.5,85.2z"/>
		</g>
		<polygon id="XMLID_15354_" fill="#665B2B" stroke="#665B2B" stroke-width="5.000000e-002" stroke-miterlimit="10" points="
			99.8,86.3 99.8,86.7 92.8,91.5 92.7,91.1 		"/>
	</g>
</g>
</svg>
