<?xml version="1.0" encoding="utf-8"?>
<!-- Generator: Adobe Illustrator 16.0.0, SVG Export Plug-In . SVG Version: 6.00 Build 0)  -->
<!DOCTYPE svg PUBLIC "-//W3C//DTD SVG 1.1//EN" "http://www.w3.org/Graphics/SVG/1.1/DTD/svg11.dtd">
<svg version="1.1" id="Layer_1" xmlns="http://www.w3.org/2000/svg" xmlns:xlink="http://www.w3.org/1999/xlink" x="0px" y="0px"
	 width="164px" height="164px" viewBox="0 0 164 164" enable-background="new 0 0 164 164" xml:space="preserve">
<g id="XMLID_15022_">
	<g id="XMLID_15026_">
		<path id="XMLID_15045_" fill="#FFFFFF" d="M77.7,86.5l-11.2-6.2c-0.2-0.1-0.3-0.4-0.2-0.6l8.4-14.5c0.1-0.2,0.4-0.3,0.6-0.1
			l11.2,6.2c0.2,0.1,0.3,0.4,0.2,0.6l-8.4,14.5C78.1,86.6,77.9,86.6,77.7,86.5z"/>
		<path id="XMLID_15044_" fill="#CECECE" d="M77.6,86.5l-11.2-6.2c-0.2-0.1-0.3-0.4-0.2-0.6l8.4-14.5c0.1-0.2,0.4-0.3,0.6-0.1
			l11.2,6.2c0.2,0.1,0.3,0.4,0.2,0.6l-8.4,14.5C78.1,86.5,77.8,86.6,77.6,86.5z"/>
		<path id="XMLID_15043_" fill="#003B70" stroke="#9CDDF7" stroke-width="0.2" stroke-miterlimit="10" d="M76,65.9l1.9,1
			c0.5,0.3,0.7,0.9,0.5,1.4l-1.9,3.2c-0.3,0.5-1,0.6-1.5,0.3l-1.9-1c-0.5-0.3-0.8-0.9-0.5-1.4l1.9-3.2C74.8,65.7,75.5,65.6,76,65.9z
			"/>
		<path id="XMLID_15042_" fill="#003B70" stroke="#9CDDF7" stroke-width="0.2" stroke-miterlimit="10" d="M79.9,68l1.8,1
			c0.5,0.3,0.7,0.9,0.4,1.4l-1.9,3.2c-0.3,0.5-1,0.6-1.5,0.3l-1.8-1c-0.5-0.3-0.8-0.9-0.5-1.4l1.9-3.2C78.6,67.8,79.3,67.7,79.9,68z
			"/>
		<path id="XMLID_15041_" fill="#003B70" stroke="#9CDDF7" stroke-width="0.2" stroke-miterlimit="10" d="M83.7,70l1.8,1
			c0.5,0.3,0.7,0.9,0.4,1.4L84,75.7c-0.3,0.5-0.9,0.6-1.5,0.3l-1.8-1c-0.5-0.3-0.7-0.9-0.5-1.4l1.9-3.2C82.4,69.9,83.1,69.8,83.7,70
			z"/>
		<path id="XMLID_15040_" fill="#003B70" stroke="#9CDDF7" stroke-width="0.2" stroke-miterlimit="10" d="M73.1,70.8l1.9,1
			c0.5,0.3,0.8,0.9,0.5,1.4l-1.8,3.1c-0.3,0.5-0.9,0.6-1.5,0.3l-1.9-1c-0.6-0.3-0.8-0.9-0.5-1.4l1.8-3.1
			C71.8,70.7,72.5,70.5,73.1,70.8z"/>
		<path id="XMLID_15039_" fill="#003B70" stroke="#9CDDF7" stroke-width="0.2" stroke-miterlimit="10" d="M76.9,73l1.8,1
			c0.5,0.3,0.7,0.9,0.5,1.4l-1.8,3.1c-0.3,0.5-0.9,0.6-1.5,0.3l-1.8-1c-0.5-0.3-0.8-0.9-0.5-1.4l1.8-3.1
			C75.7,72.8,76.4,72.7,76.9,73z"/>
		<path id="XMLID_15038_" fill="#003B70" stroke="#9CDDF7" stroke-width="0.2" stroke-miterlimit="10" d="M80.7,75l1.8,1
			c0.5,0.3,0.7,0.9,0.4,1.4l-1.8,3.2c-0.3,0.5-0.9,0.6-1.5,0.3l-1.8-1c-0.5-0.3-0.7-0.9-0.5-1.4l1.8-3.1
			C79.5,74.9,80.2,74.7,80.7,75z"/>
		<path id="XMLID_15037_" fill="#003B70" stroke="#9CDDF7" stroke-width="0.2" stroke-miterlimit="10" d="M70.2,75.7l1.9,1
			c0.5,0.3,0.8,0.9,0.5,1.4l-1.8,3.1c-0.3,0.5-0.9,0.6-1.5,0.3l-1.9-1c-0.6-0.3-0.8-0.9-0.5-1.4l1.8-3.1
			C69,75.6,69.7,75.4,70.2,75.7z"/>
		<path id="XMLID_15036_" fill="#003B70" stroke="#9CDDF7" stroke-width="0.2" stroke-miterlimit="10" d="M74,77.8l1.8,1
			c0.5,0.3,0.8,0.9,0.5,1.4l-1.8,3.1c-0.3,0.5-0.9,0.6-1.5,0.3l-1.9-1c-0.5-0.3-0.8-0.9-0.5-1.4l1.8-3.1
			C72.8,77.7,73.5,77.5,74,77.8z"/>
		<path id="XMLID_15035_" fill="#003B70" stroke="#9CDDF7" stroke-width="0.2" stroke-miterlimit="10" d="M77.8,79.9l1.8,1
			c0.5,0.3,0.7,0.9,0.5,1.4l-1.8,3.1c-0.3,0.5-0.9,0.6-1.4,0.3l-1.8-1c-0.5-0.3-0.8-0.9-0.5-1.4l1.8-3.1
			C76.6,79.8,77.3,79.6,77.8,79.9z"/>
		
			<line id="XMLID_15034_" opacity="0.5" fill="none" stroke="#9CDDF7" stroke-width="0.2" stroke-miterlimit="10" x1="66.9" y1="79.1" x2="78.2" y2="85.3"/>
		
			<line id="XMLID_15033_" opacity="0.5" fill="none" stroke="#9CDDF7" stroke-width="0.2" stroke-miterlimit="10" x1="79.9" y1="68" x2="71.3" y2="82.6"/>
		
			<line id="XMLID_15032_" opacity="0.5" fill="none" stroke="#9CDDF7" stroke-width="0.2" stroke-miterlimit="10" x1="77.9" y1="66.9" x2="69.3" y2="81.5"/>
		
			<line id="XMLID_15031_" opacity="0.5" fill="none" stroke="#9CDDF7" stroke-width="0.2" stroke-miterlimit="10" x1="83.7" y1="70" x2="75.1" y2="84.7"/>
		
			<line id="XMLID_15030_" opacity="0.5" fill="none" stroke="#9CDDF7" stroke-width="0.2" stroke-miterlimit="10" x1="81.7" y1="69" x2="73.1" y2="83.6"/>
		
			<line id="XMLID_15029_" opacity="0.5" fill="none" stroke="#9CDDF7" stroke-width="0.2" stroke-miterlimit="10" x1="76" y1="65.9" x2="67.4" y2="80.5"/>
		<polyline id="XMLID_15028_" opacity="0.5" fill="none" stroke="#9CDDF7" stroke-width="0.2" stroke-miterlimit="10" points="
			82.8,77.4 71.6,71.2 69.7,74.3 81,80.5 		"/>
		<polyline id="XMLID_15027_" opacity="0.5" fill="none" stroke="#9CDDF7" stroke-width="0.2" stroke-miterlimit="10" points="
			85.8,72.4 74.5,66.2 72.6,69.4 83.9,75.6 		"/>
	</g>
	
		<line id="XMLID_15025_" opacity="0.5" fill="none" stroke="#9CDDF7" stroke-width="0.2" stroke-miterlimit="10" x1="69.7" y1="74.3" x2="81" y2="80.5"/>
	
		<line id="XMLID_15024_" opacity="0.5" fill="none" stroke="#9CDDF7" stroke-width="0.2" stroke-miterlimit="10" x1="76.9" y1="85.7" x2="85.5" y2="71.1"/>
	
		<line id="XMLID_15023_" opacity="0.5" fill="none" stroke="#9CDDF7" stroke-width="0.2" stroke-miterlimit="10" x1="68.8" y1="76.1" x2="80.1" y2="82.3"/>
</g>
</svg>
