<?xml version="1.0" encoding="utf-8"?>
<!-- Generator: Adobe Illustrator 16.0.0, SVG Export Plug-In . SVG Version: 6.00 Build 0)  -->
<!DOCTYPE svg PUBLIC "-//W3C//DTD SVG 1.1//EN" "http://www.w3.org/Graphics/SVG/1.1/DTD/svg11.dtd">
<svg version="1.1" id="Layer_1" xmlns="http://www.w3.org/2000/svg" xmlns:xlink="http://www.w3.org/1999/xlink" x="0px" y="0px"
	 width="164px" height="164px" viewBox="0 0 164 164" enable-background="new 0 0 164 164" xml:space="preserve">
<g id="XMLID_15125_">
	<g id="XMLID_15127_">
		<polygon id="XMLID_15152_" fill="#848484" points="72.1,95.1 73.1,95.7 73.8,94.6 72.7,94 		"/>
		<path id="XMLID_15151_" opacity="0.3" d="M77.9,87.9l-11.7-6.4c-0.1-0.1-0.2,0-0.3,0.1L65.7,82l0.3,0.2l0,0l-3.3,5.7l-0.3-0.2
			l-0.3,0.5c0,0.1,0,0.2,0.1,0.3l11.7,6.4c0.1,0.1,0.2,0,0.3-0.1l0.3-0.5l-0.3-0.2l3.3-5.7l0.3,0.2l0.3-0.5C78,88,78,87.9,77.9,87.9
			z"/>
		<polygon id="XMLID_15150_" fill="#002947" points="62.4,87.3 65.7,81.6 77.2,87.6 77.1,87.9 73.8,93.6 62.9,88.1 		"/>
		<g id="XMLID_15133_">
			<g id="XMLID_15134_">
				<polygon id="XMLID_15149_" fill="#001B24" points="77.1,87.9 76.7,87.7 73.4,93.4 73.8,93.6 				"/>
				<g id="XMLID_15135_">
					<polygon id="XMLID_15148_" fill="#001B24" points="67.4,82.5 67,82.3 63.6,88 64.4,88.5 64.4,88.5 64,88.2 					"/>
					<polygon id="XMLID_15147_" fill="#001B24" points="69.8,83.9 69.4,83.7 66.1,89.4 66.9,89.8 66.9,89.8 66.5,89.6 					"/>
					<polygon id="XMLID_15146_" fill="#001B24" points="72.2,85.2 71.8,85 68.5,90.7 69.3,91.2 69.3,91.2 68.9,90.9 					"/>
					<polygon id="XMLID_15145_" fill="#001B24" points="74.7,86.6 74.3,86.3 71,92.1 71.8,92.5 71.8,92.5 71.4,92.3 					"/>
					<polygon id="XMLID_15144_" fill="#001B24" points="66.1,81.8 62.8,87.6 63.2,87.8 66.5,82.1 					"/>
					<polygon id="XMLID_15143_" fill="#001B24" points="68.2,83 67.4,82.5 67.4,82.5 67.8,82.8 64.4,88.5 64.8,88.7 					"/>
					<polygon id="XMLID_15142_" fill="#001B24" points="68.6,83.2 65.3,88.9 65.7,89.1 69,83.4 					"/>
					<polygon id="XMLID_15141_" fill="#001B24" points="70.6,84.3 69.8,83.9 69.8,83.9 70.2,84.1 66.9,89.8 67.3,90 					"/>
					<polygon id="XMLID_15140_" fill="#001B24" points="71,84.5 67.7,90.3 68.1,90.5 71.4,84.8 					"/>
					<polygon id="XMLID_15139_" fill="#001B24" points="73.1,85.7 72.2,85.2 72.2,85.2 72.7,85.4 69.3,91.2 69.7,91.4 					"/>
					<polygon id="XMLID_15138_" fill="#001B24" points="73.5,85.9 70.1,91.6 70.6,91.8 73.9,86.1 					"/>
					<polygon id="XMLID_15137_" fill="#001B24" points="75.5,87 74.7,86.6 74.7,86.6 75.1,86.8 71.8,92.5 72.2,92.7 					"/>
					<polygon id="XMLID_15136_" fill="#001B24" points="75.9,87.2 72.6,92.9 73,93.2 76.3,87.5 					"/>
				</g>
			</g>
		</g>
		<path id="XMLID_15132_" fill="#001B24" d="M61.8,87.6c0,0.1,0,0.2,0.1,0.3l11.7,6.4c0.1,0.1,0.2,0,0.3-0.1l0.3-0.5l-12.1-6.6
			L61.8,87.6z"/>
		<path id="XMLID_15131_" fill="#001B24" d="M77.7,87.6c0.1-0.1,0-0.2-0.1-0.3L66,80.9c-0.1-0.1-0.2,0-0.3,0.1l-0.3,0.5l12,6.6
			L77.7,87.6z"/>
		<polygon id="XMLID_15130_" opacity="0.2" points="73.2,94.8 73.4,95.2 73.1,95.7 72.9,95.5 72.7,94.9 		"/>
		<path id="XMLID_15129_" fill="#001B24" d="M73.3,93.9l-0.4-0.2l-0.4,0.7c0,0.1,0,0.1,0,0.2l0,0v0l0.1,0.2c0,0.1,0.1,0.2,0.3,0.2
			c0.2,0,0.3-0.2,0.3-0.2L73,94.4L73.3,93.9z"/>
		<path id="XMLID_15128_" opacity="0.2" d="M72.5,94.6l0.1,0.2c0,0.1,0.1,0.2,0.3,0.2c0.2,0,0.3-0.2,0.3-0.2L73,94.4
			C73,94.4,72.8,94.8,72.5,94.6L72.5,94.6L72.5,94.6z"/>
	</g>
	<polygon id="XMLID_15126_" opacity="4.000000e-002" fill="#FFFFFF" points="65.7,81.6 77.1,87.9 62.4,87.3 	"/>
</g>
</svg>
