<?xml version="1.0" encoding="utf-8"?>
<!-- Generator: Adobe Illustrator 16.0.0, SVG Export Plug-In . SVG Version: 6.00 Build 0)  -->
<!DOCTYPE svg PUBLIC "-//W3C//DTD SVG 1.1//EN" "http://www.w3.org/Graphics/SVG/1.1/DTD/svg11.dtd">
<svg version="1.1" id="Layer_1" xmlns="http://www.w3.org/2000/svg" xmlns:xlink="http://www.w3.org/1999/xlink" x="0px" y="0px"
	 width="164px" height="164px" viewBox="0 0 164 164" enable-background="new 0 0 164 164" xml:space="preserve">
<g id="XMLID_15190_">
	<path id="XMLID_15226_" opacity="0.2" d="M88.3,83.7L82,87.3l2.3,1.4l0.4,1.1l2.9,1.8c0.1,0.1,0.9,0.5,1,0.5l6.5-3.7
		c0.1-0.1,0.2-0.2,0.1-0.3L88.3,83.7z"/>
	<g id="XMLID_15215_">
		<g id="XMLID_15221_">
			<polygon id="XMLID_15225_" fill="#66574C" points="83.4,86.4 83.4,86.4 82.9,86.1 82.9,87.8 82.9,87.8 83.4,88.1 			"/>
			<polygon id="XMLID_15224_" fill="#493E36" points="83.4,86.4 83.4,86.4 83.9,86.1 83.9,87.8 83.9,87.8 83.4,88.1 			"/>
			<polygon id="XMLID_15223_" fill="#AFA28B" points="83.4,86.4 83.9,86.1 83.4,85.8 82.9,86.1 83.4,86.4 83.4,86.4 83.4,86.4 
				83.4,86.4 			"/>
			<line id="XMLID_15222_" fill="#AFA28B" x1="83.4" y1="85.8" x2="82.9" y2="86.1"/>
		</g>
		<g id="XMLID_15216_">
			<polygon id="XMLID_15220_" fill="#66574C" points="87.3,89.7 87.3,89.7 86.8,89.4 86.8,91.1 86.8,91.1 87.3,91.5 			"/>
			<polygon id="XMLID_15219_" fill="#493E36" points="87.3,89.7 87.3,89.7 87.9,89.4 87.9,91.1 87.9,91.1 87.3,91.5 			"/>
			<polygon id="XMLID_15218_" fill="#AFA28B" points="87.3,89.7 87.9,89.4 87.3,89.1 86.8,89.4 87.3,89.7 87.3,89.7 87.3,89.7 
				87.3,89.7 			"/>
			<line id="XMLID_15217_" fill="#AFA28B" x1="87.3" y1="89.1" x2="86.8" y2="89.4"/>
		</g>
	</g>
	<g id="XMLID_15191_">
		<g id="XMLID_15195_">
			<path id="XMLID_15214_" fill="#FFFFFF" d="M88.7,92.1l6.4-3.6c0.1-0.1,0.2-0.2,0.1-0.3l-6.4-6.7c-0.1-0.1-0.3-0.1-0.4,0L82,85
				c-0.1,0.1-0.1,0.2-0.1,0.3l6.3,6.7C88.4,92.1,88.6,92.1,88.7,92.1z"/>
			<path id="XMLID_15213_" fill="#CECECE" d="M88.7,92.1l6.4-3.6c0.1-0.1,0.2-0.2,0.1-0.3l-6.4-6.7c-0.1-0.1-0.3-0.1-0.4,0L82.1,85
				c-0.1,0.1-0.1,0.2-0.1,0.3l6.3,6.7C88.4,92.1,88.6,92.1,88.7,92.1z"/>
			<path id="XMLID_15212_" fill="#003B70" stroke="#9CDDF7" stroke-width="0.2" stroke-miterlimit="10" d="M88,81.8l-1.1,0.6
				c-0.3,0.2-0.4,0.5-0.2,0.7l1.4,1.5c0.2,0.2,0.6,0.3,1,0.1l1.1-0.6c0.3-0.2,0.4-0.5,0.2-0.7L89,81.9C88.8,81.6,88.3,81.6,88,81.8z
				"/>
			<path id="XMLID_15211_" fill="#003B70" stroke="#9CDDF7" stroke-width="0.2" stroke-miterlimit="10" d="M85.8,83l-1.1,0.6
				c-0.3,0.2-0.4,0.5-0.2,0.7l1.4,1.5c0.2,0.2,0.6,0.3,0.9,0.1l1.1-0.6c0.3-0.2,0.4-0.5,0.2-0.7l-1.4-1.5
				C86.6,82.9,86.1,82.8,85.8,83z"/>
			<path id="XMLID_15210_" fill="#003B70" stroke="#9CDDF7" stroke-width="0.2" stroke-miterlimit="10" d="M83.7,84.2l-1,0.6
				c-0.3,0.2-0.4,0.5-0.1,0.7l1.4,1.5c0.2,0.2,0.6,0.3,0.9,0.1l1-0.6c0.3-0.2,0.4-0.5,0.2-0.7l-1.4-1.5C84.4,84.1,84,84.1,83.7,84.2
				z"/>
			<path id="XMLID_15209_" fill="#003B70" stroke="#9CDDF7" stroke-width="0.2" stroke-miterlimit="10" d="M90.2,84.1l-1.1,0.6
				c-0.3,0.2-0.4,0.5-0.2,0.7l1.4,1.5c0.2,0.2,0.6,0.3,0.9,0.1l1.1-0.6c0.3-0.2,0.4-0.5,0.2-0.7l-1.4-1.5C91,84,90.5,83.9,90.2,84.1
				z"/>
			<path id="XMLID_15208_" fill="#003B70" stroke="#9CDDF7" stroke-width="0.2" stroke-miterlimit="10" d="M88,85.3L87,85.9
				c-0.3,0.2-0.4,0.5-0.2,0.7l1.4,1.5c0.2,0.2,0.6,0.3,0.9,0.1l1.1-0.6c0.3-0.2,0.4-0.5,0.2-0.7L89,85.4
				C88.8,85.2,88.3,85.2,88,85.3z"/>
			<path id="XMLID_15207_" fill="#003B70" stroke="#9CDDF7" stroke-width="0.2" stroke-miterlimit="10" d="M85.9,86.5l-1,0.6
				c-0.3,0.2-0.4,0.5-0.2,0.7l1.4,1.5c0.2,0.2,0.6,0.3,0.9,0.1l1-0.6c0.3-0.2,0.4-0.5,0.2-0.7l-1.4-1.5
				C86.6,86.4,86.2,86.4,85.9,86.5z"/>
			<path id="XMLID_15206_" fill="#003B70" stroke="#9CDDF7" stroke-width="0.2" stroke-miterlimit="10" d="M92.4,86.4L91.3,87
				c-0.3,0.2-0.4,0.5-0.2,0.7l1.4,1.4c0.2,0.2,0.6,0.3,0.9,0.1l1.1-0.6c0.3-0.2,0.4-0.5,0.2-0.7l-1.4-1.4
				C93.1,86.2,92.7,86.2,92.4,86.4z"/>
			<path id="XMLID_15205_" fill="#003B70" stroke="#9CDDF7" stroke-width="0.2" stroke-miterlimit="10" d="M90.2,87.6l-1.1,0.6
				c-0.3,0.2-0.4,0.5-0.2,0.7l1.4,1.4c0.2,0.2,0.6,0.3,0.9,0.1l1.1-0.6c0.3-0.2,0.4-0.5,0.2-0.7l-1.4-1.4
				C90.9,87.5,90.5,87.4,90.2,87.6z"/>
			<path id="XMLID_15204_" fill="#003B70" stroke="#9CDDF7" stroke-width="0.2" stroke-miterlimit="10" d="M88,88.8l-1,0.6
				c-0.3,0.2-0.4,0.5-0.2,0.7l1.4,1.4c0.2,0.2,0.6,0.3,0.9,0.1l1-0.6c0.3-0.2,0.4-0.5,0.2-0.7L89,88.9C88.8,88.7,88.3,88.6,88,88.8z
				"/>
			
				<line id="XMLID_15203_" opacity="0.5" fill="none" stroke="#9CDDF7" stroke-width="0.2" stroke-miterlimit="10" x1="94.7" y1="87.9" x2="88.2" y2="91.5"/>
			
				<line id="XMLID_15202_" opacity="0.5" fill="none" stroke="#9CDDF7" stroke-width="0.2" stroke-miterlimit="10" x1="85.8" y1="83" x2="92.3" y2="89.8"/>
			
				<line id="XMLID_15201_" opacity="0.5" fill="none" stroke="#9CDDF7" stroke-width="0.2" stroke-miterlimit="10" x1="86.9" y1="82.4" x2="93.4" y2="89.2"/>
			
				<line id="XMLID_15200_" opacity="0.5" fill="none" stroke="#9CDDF7" stroke-width="0.2" stroke-miterlimit="10" x1="83.7" y1="84.2" x2="90.1" y2="91"/>
			
				<line id="XMLID_15199_" opacity="0.5" fill="none" stroke="#9CDDF7" stroke-width="0.2" stroke-miterlimit="10" x1="84.8" y1="83.6" x2="91.2" y2="90.4"/>
			
				<line id="XMLID_15198_" opacity="0.5" fill="none" stroke="#9CDDF7" stroke-width="0.2" stroke-miterlimit="10" x1="88" y1="81.8" x2="94.5" y2="88.6"/>
			<polyline id="XMLID_15197_" opacity="0.5" fill="none" stroke="#9CDDF7" stroke-width="0.2" stroke-miterlimit="10" points="
				84.8,87.8 91.2,84.2 92.6,85.6 86.1,89.3 			"/>
			<polyline id="XMLID_15196_" opacity="0.5" fill="none" stroke="#9CDDF7" stroke-width="0.2" stroke-miterlimit="10" points="
				82.5,85.5 89,81.9 90.4,83.4 84,87 			"/>
		</g>
		
			<line id="XMLID_15194_" opacity="0.5" fill="none" stroke="#9CDDF7" stroke-width="0.2" stroke-miterlimit="10" x1="92.6" y1="85.6" x2="86.1" y2="89.3"/>
		
			<line id="XMLID_15193_" opacity="0.5" fill="none" stroke="#9CDDF7" stroke-width="0.2" stroke-miterlimit="10" x1="89.1" y1="91.6" x2="82.6" y2="84.8"/>
		
			<line id="XMLID_15192_" opacity="0.5" fill="none" stroke="#9CDDF7" stroke-width="0.2" stroke-miterlimit="10" x1="93.2" y1="86.5" x2="86.8" y2="90.1"/>
	</g>
</g>
<g id="XMLID_15153_">
	<path id="XMLID_15189_" opacity="0.2" d="M96.5,79l-6.3,3.6l2.3,1.4l0.4,1.1l2.9,1.8c0.1,0.1,0.9,0.5,1,0.5l6.5-3.7
		c0.1-0.1,0.2-0.2,0-0.3L96.5,79z"/>
	<g id="XMLID_15178_">
		<g id="XMLID_15184_">
			<polygon id="XMLID_15188_" fill="#66574C" points="91.6,81.7 91.6,81.7 91.1,81.4 91.1,83.1 91.1,83.1 91.6,83.4 			"/>
			<polygon id="XMLID_15187_" fill="#493E36" points="91.6,81.7 91.6,81.7 92.1,81.4 92.1,83.1 92.1,83.1 91.6,83.4 			"/>
			<polygon id="XMLID_15186_" fill="#AFA28B" points="91.6,81.7 92.1,81.4 91.6,81.1 91.1,81.4 91.6,81.7 91.6,81.7 91.6,81.7 
				91.6,81.7 			"/>
			<line id="XMLID_15185_" fill="#AFA28B" x1="91.6" y1="81.1" x2="91.1" y2="81.4"/>
		</g>
		<g id="XMLID_15179_">
			<polygon id="XMLID_15183_" fill="#66574C" points="95.5,85 95.5,85 95,84.7 95,86.4 95,86.4 95.5,86.7 			"/>
			<polygon id="XMLID_15182_" fill="#493E36" points="95.5,85 95.5,85 96,84.7 96,86.4 96,86.4 95.5,86.7 			"/>
			<polygon id="XMLID_15181_" fill="#AFA28B" points="95.5,85 96,84.7 95.5,84.4 95,84.7 95.5,85 95.5,85 95.5,85 95.5,85 			"/>
			<line id="XMLID_15180_" fill="#AFA28B" x1="95.5" y1="84.4" x2="95" y2="84.7"/>
		</g>
	</g>
	<g id="XMLID_15154_">
		<g id="XMLID_15158_">
			<path id="XMLID_15177_" fill="#FFFFFF" d="M96.8,87.4l6.4-3.6c0.1-0.1,0.2-0.2,0.1-0.3L97,76.7c-0.1-0.1-0.3-0.1-0.4,0l-6.4,3.6
				c-0.1,0.1-0.1,0.2-0.1,0.3l6.3,6.7C96.6,87.4,96.7,87.4,96.8,87.4z"/>
			<path id="XMLID_15176_" fill="#CECECE" d="M96.9,87.3l6.4-3.6c0.1-0.1,0.2-0.2,0.1-0.3L97,76.7c-0.1-0.1-0.3-0.1-0.4,0l-6.4,3.6
				c-0.1,0.1-0.1,0.2-0.1,0.3l6.3,6.7C96.6,87.4,96.7,87.4,96.9,87.3z"/>
			<path id="XMLID_15175_" fill="#003B70" stroke="#9CDDF7" stroke-width="0.2" stroke-miterlimit="10" d="M96.2,77.1l-1.1,0.6
				c-0.3,0.2-0.4,0.5-0.2,0.7l1.4,1.5c0.2,0.2,0.6,0.3,1,0.1l1.1-0.6c0.3-0.2,0.4-0.5,0.2-0.7l-1.4-1.5
				C96.9,76.9,96.5,76.9,96.2,77.1z"/>
			<path id="XMLID_15174_" fill="#003B70" stroke="#9CDDF7" stroke-width="0.2" stroke-miterlimit="10" d="M94,78.3l-1.1,0.6
				c-0.3,0.2-0.4,0.5-0.2,0.7l1.4,1.5c0.2,0.2,0.6,0.3,0.9,0.1l1.1-0.6c0.3-0.2,0.4-0.5,0.2-0.7l-1.4-1.5
				C94.7,78.2,94.3,78.1,94,78.3z"/>
			<path id="XMLID_15173_" fill="#003B70" stroke="#9CDDF7" stroke-width="0.2" stroke-miterlimit="10" d="M91.8,79.5l-1,0.6
				c-0.3,0.2-0.4,0.5-0.1,0.7l1.4,1.5c0.2,0.2,0.6,0.3,0.9,0.1l1-0.6c0.3-0.2,0.4-0.5,0.2-0.7l-1.4-1.5
				C92.5,79.4,92.1,79.3,91.8,79.5z"/>
			<path id="XMLID_15172_" fill="#003B70" stroke="#9CDDF7" stroke-width="0.2" stroke-miterlimit="10" d="M98.4,79.4L97.3,80
				c-0.3,0.2-0.4,0.5-0.2,0.7l1.4,1.5c0.2,0.2,0.6,0.3,0.9,0.1l1.1-0.6c0.3-0.2,0.4-0.5,0.2-0.7l-1.4-1.5
				C99.1,79.2,98.7,79.2,98.4,79.4z"/>
			<path id="XMLID_15171_" fill="#003B70" stroke="#9CDDF7" stroke-width="0.2" stroke-miterlimit="10" d="M96.2,80.6l-1.1,0.6
				c-0.3,0.2-0.4,0.5-0.2,0.7l1.4,1.5c0.2,0.2,0.6,0.3,0.9,0.1l1.1-0.6c0.3-0.2,0.4-0.5,0.2-0.7l-1.4-1.5
				C96.9,80.5,96.5,80.4,96.2,80.6z"/>
			<path id="XMLID_15170_" fill="#003B70" stroke="#9CDDF7" stroke-width="0.2" stroke-miterlimit="10" d="M94,81.8l-1,0.6
				c-0.3,0.2-0.4,0.5-0.2,0.7l1.4,1.5c0.2,0.2,0.6,0.3,0.9,0.1l1-0.6c0.3-0.2,0.4-0.5,0.2-0.7L95,81.9C94.8,81.7,94.3,81.7,94,81.8z
				"/>
			<path id="XMLID_15169_" fill="#003B70" stroke="#9CDDF7" stroke-width="0.2" stroke-miterlimit="10" d="M100.5,81.6l-1.1,0.6
				c-0.3,0.2-0.4,0.5-0.2,0.7l1.4,1.4c0.2,0.2,0.6,0.2,0.9,0.1l1.1-0.6c0.3-0.2,0.4-0.5,0.2-0.7l-1.4-1.4
				C101.3,81.5,100.9,81.5,100.5,81.6z"/>
			<path id="XMLID_15168_" fill="#003B70" stroke="#9CDDF7" stroke-width="0.2" stroke-miterlimit="10" d="M98.4,82.9l-1.1,0.6
				c-0.3,0.2-0.4,0.5-0.2,0.7l1.4,1.4c0.2,0.2,0.6,0.3,0.9,0.1l1.1-0.6c0.3-0.2,0.4-0.5,0.2-0.7L99.3,83
				C99.1,82.7,98.7,82.7,98.4,82.9z"/>
			<path id="XMLID_15167_" fill="#003B70" stroke="#9CDDF7" stroke-width="0.2" stroke-miterlimit="10" d="M96.2,84.1l-1,0.6
				c-0.3,0.2-0.4,0.5-0.2,0.7l1.4,1.4c0.2,0.2,0.6,0.3,0.9,0.1l1-0.6c0.3-0.2,0.4-0.5,0.2-0.7l-1.4-1.4C96.9,84,96.5,83.9,96.2,84.1
				z"/>
			
				<line id="XMLID_15166_" opacity="0.5" fill="none" stroke="#9CDDF7" stroke-width="0.2" stroke-miterlimit="10" x1="102.8" y1="83.2" x2="96.4" y2="86.8"/>
			
				<line id="XMLID_15165_" opacity="0.5" fill="none" stroke="#9CDDF7" stroke-width="0.2" stroke-miterlimit="10" x1="94" y1="78.3" x2="100.4" y2="85.1"/>
			
				<line id="XMLID_15164_" opacity="0.5" fill="none" stroke="#9CDDF7" stroke-width="0.2" stroke-miterlimit="10" x1="95.1" y1="77.7" x2="101.6" y2="84.5"/>
			
				<line id="XMLID_15163_" opacity="0.5" fill="none" stroke="#9CDDF7" stroke-width="0.2" stroke-miterlimit="10" x1="91.8" y1="79.5" x2="98.3" y2="86.3"/>
			
				<line id="XMLID_15162_" opacity="0.5" fill="none" stroke="#9CDDF7" stroke-width="0.2" stroke-miterlimit="10" x1="92.9" y1="78.9" x2="99.4" y2="85.7"/>
			
				<line id="XMLID_15161_" opacity="0.5" fill="none" stroke="#9CDDF7" stroke-width="0.2" stroke-miterlimit="10" x1="96.2" y1="77.1" x2="102.6" y2="83.9"/>
			<polyline id="XMLID_15160_" opacity="0.5" fill="none" stroke="#9CDDF7" stroke-width="0.2" stroke-miterlimit="10" points="
				92.9,83.1 99.3,79.5 100.7,80.9 94.3,84.6 			"/>
			<polyline id="XMLID_15159_" opacity="0.5" fill="none" stroke="#9CDDF7" stroke-width="0.2" stroke-miterlimit="10" points="
				90.7,80.8 97.1,77.2 98.6,78.7 92.1,82.3 			"/>
		</g>
		
			<line id="XMLID_15157_" opacity="0.5" fill="none" stroke="#9CDDF7" stroke-width="0.2" stroke-miterlimit="10" x1="100.7" y1="80.9" x2="94.3" y2="84.6"/>
		
			<line id="XMLID_15156_" opacity="0.5" fill="none" stroke="#9CDDF7" stroke-width="0.2" stroke-miterlimit="10" x1="97.2" y1="86.9" x2="90.8" y2="80.1"/>
		
			<line id="XMLID_15155_" opacity="0.5" fill="none" stroke="#9CDDF7" stroke-width="0.2" stroke-miterlimit="10" x1="101.4" y1="81.8" x2="95" y2="85.4"/>
	</g>
</g>
</svg>
