<?xml version="1.0" encoding="utf-8"?>
<!-- Generator: Adobe Illustrator 16.0.0, SVG Export Plug-In . SVG Version: 6.00 Build 0)  -->
<!DOCTYPE svg PUBLIC "-//W3C//DTD SVG 1.1//EN" "http://www.w3.org/Graphics/SVG/1.1/DTD/svg11.dtd">
<svg version="1.1" id="Layer_1" xmlns="http://www.w3.org/2000/svg" xmlns:xlink="http://www.w3.org/1999/xlink" x="0px" y="0px"
	 width="164px" height="164px" viewBox="0 0 164 164" enable-background="new 0 0 164 164" xml:space="preserve">
<g id="XMLID_15046_">
	<path id="XMLID_15082_" opacity="0.2" d="M72.9,76.2l-6.3,3.6l2.3,1.4l0.4,1.1l2.9,1.8c0.1,0.1,0.9,0.5,1,0.5l6.5-3.7
		c0.1-0.1,0.2-0.2,0-0.3L72.9,76.2z"/>
	<g id="XMLID_15071_">
		<g id="XMLID_15077_">
			<polygon id="XMLID_15081_" fill="#66574C" points="68,78.9 68,78.9 67.5,78.6 67.5,80.3 67.5,80.3 68,80.6 			"/>
			<polygon id="XMLID_15080_" fill="#493E36" points="68,78.9 68,78.9 68.5,78.6 68.5,80.3 68.5,80.3 68,80.6 			"/>
			<polygon id="XMLID_15079_" fill="#AFA28B" points="68,78.9 68.5,78.6 68,78.3 67.5,78.6 68,78.9 68,78.9 68,78.9 68,78.9 			"/>
			<line id="XMLID_15078_" fill="#AFA28B" x1="68" y1="78.3" x2="67.5" y2="78.6"/>
		</g>
		<g id="XMLID_15072_">
			<polygon id="XMLID_15076_" fill="#66574C" points="72,82.2 72,82.2 71.5,81.9 71.5,83.7 71.5,83.7 72,84 			"/>
			<polygon id="XMLID_15075_" fill="#493E36" points="72,82.2 72,82.2 72.5,81.9 72.5,83.7 72.5,83.7 72,84 			"/>
			<polygon id="XMLID_15074_" fill="#AFA28B" points="72,82.2 72.5,81.9 72,81.6 71.5,81.9 72,82.2 72,82.2 72,82.2 72,82.2 			"/>
			<line id="XMLID_15073_" fill="#AFA28B" x1="72" y1="81.6" x2="71.5" y2="81.9"/>
		</g>
	</g>
	<g id="XMLID_15047_">
		<g id="XMLID_15051_">
			<path id="XMLID_15070_" fill="#FFFFFF" d="M73.3,84.6l6.4-3.6c0.1-0.1,0.2-0.2,0.1-0.3l-6.4-6.7c-0.1-0.1-0.3-0.1-0.4,0l-6.4,3.6
				c-0.1,0.1-0.1,0.2-0.1,0.3l6.3,6.7C73,84.6,73.2,84.7,73.3,84.6z"/>
			<path id="XMLID_15069_" fill="#CECECE" d="M73.3,84.6l6.4-3.6c0.1-0.1,0.2-0.2,0.1-0.3l-6.4-6.7c-0.1-0.1-0.3-0.1-0.4,0l-6.4,3.6
				c-0.1,0.1-0.1,0.2-0.1,0.3l6.3,6.7C73,84.6,73.2,84.6,73.3,84.6z"/>
			<path id="XMLID_15068_" fill="#003B70" stroke="#9CDDF7" stroke-width="0.2" stroke-miterlimit="10" d="M72.6,74.3l-1.1,0.6
				c-0.3,0.2-0.4,0.5-0.2,0.7l1.4,1.5c0.2,0.2,0.6,0.3,1,0.1l1.1-0.6c0.3-0.2,0.4-0.5,0.2-0.7l-1.4-1.5
				C73.4,74.1,72.9,74.1,72.6,74.3z"/>
			<path id="XMLID_15067_" fill="#003B70" stroke="#9CDDF7" stroke-width="0.2" stroke-miterlimit="10" d="M70.4,75.5l-1.1,0.6
				c-0.3,0.2-0.4,0.5-0.2,0.7l1.4,1.5c0.2,0.2,0.6,0.3,0.9,0.1l1.1-0.6c0.3-0.2,0.4-0.5,0.2-0.7l-1.4-1.5
				C71.2,75.4,70.8,75.3,70.4,75.5z"/>
			<path id="XMLID_15066_" fill="#003B70" stroke="#9CDDF7" stroke-width="0.2" stroke-miterlimit="10" d="M68.3,76.7l-1,0.6
				c-0.3,0.2-0.4,0.5-0.1,0.7l1.4,1.5c0.2,0.2,0.6,0.3,0.9,0.1l1-0.6c0.3-0.2,0.4-0.5,0.2-0.7l-1.4-1.5C69,76.6,68.6,76.6,68.3,76.7
				z"/>
			<path id="XMLID_15065_" fill="#003B70" stroke="#9CDDF7" stroke-width="0.2" stroke-miterlimit="10" d="M74.9,76.6l-1.1,0.6
				c-0.3,0.2-0.4,0.5-0.2,0.7l1.4,1.5c0.2,0.2,0.6,0.3,0.9,0.1l1.1-0.6c0.3-0.2,0.4-0.5,0.2-0.7l-1.4-1.5
				C75.6,76.5,75.2,76.4,74.9,76.6z"/>
			<path id="XMLID_15064_" fill="#003B70" stroke="#9CDDF7" stroke-width="0.2" stroke-miterlimit="10" d="M72.7,77.8l-1.1,0.6
				c-0.3,0.2-0.4,0.5-0.2,0.7l1.4,1.5c0.2,0.2,0.6,0.3,0.9,0.1l1.1-0.6c0.3-0.2,0.4-0.5,0.2-0.7l-1.4-1.5
				C73.4,77.7,73,77.7,72.7,77.8z"/>
			<path id="XMLID_15063_" fill="#003B70" stroke="#9CDDF7" stroke-width="0.2" stroke-miterlimit="10" d="M70.5,79.1l-1,0.6
				c-0.3,0.2-0.4,0.5-0.2,0.7l1.4,1.5c0.2,0.2,0.6,0.3,0.9,0.1l1-0.6c0.3-0.2,0.4-0.5,0.2-0.7l-1.4-1.5
				C71.2,78.9,70.8,78.9,70.5,79.1z"/>
			<path id="XMLID_15062_" fill="#003B70" stroke="#9CDDF7" stroke-width="0.2" stroke-miterlimit="10" d="M77,78.9l-1.1,0.6
				c-0.3,0.2-0.4,0.5-0.2,0.7l1.4,1.4c0.2,0.2,0.6,0.3,0.9,0.1l1.1-0.6c0.3-0.2,0.4-0.5,0.2-0.7L78,78.9
				C77.7,78.7,77.3,78.7,77,78.9z"/>
			<path id="XMLID_15061_" fill="#003B70" stroke="#9CDDF7" stroke-width="0.2" stroke-miterlimit="10" d="M74.8,80.1l-1.1,0.6
				c-0.3,0.2-0.4,0.5-0.2,0.7l1.4,1.4c0.2,0.2,0.6,0.3,0.9,0.1l1.1-0.6c0.3-0.2,0.4-0.5,0.2-0.7l-1.4-1.4
				C75.5,80,75.1,79.9,74.8,80.1z"/>
			<path id="XMLID_15060_" fill="#003B70" stroke="#9CDDF7" stroke-width="0.2" stroke-miterlimit="10" d="M72.7,81.3l-1,0.6
				c-0.3,0.2-0.4,0.5-0.2,0.7l1.4,1.4c0.2,0.2,0.6,0.3,0.9,0.1l1-0.6c0.3-0.2,0.4-0.5,0.2-0.7l-1.4-1.4C73.4,81.2,73,81.2,72.7,81.3
				z"/>
			
				<line id="XMLID_15059_" opacity="0.5" fill="none" stroke="#9CDDF7" stroke-width="0.2" stroke-miterlimit="10" x1="79.3" y1="80.4" x2="72.9" y2="84"/>
			
				<line id="XMLID_15058_" opacity="0.5" fill="none" stroke="#9CDDF7" stroke-width="0.2" stroke-miterlimit="10" x1="70.4" y1="75.5" x2="76.9" y2="82.3"/>
			
				<line id="XMLID_15057_" opacity="0.5" fill="none" stroke="#9CDDF7" stroke-width="0.2" stroke-miterlimit="10" x1="71.6" y1="74.9" x2="78" y2="81.7"/>
			
				<line id="XMLID_15056_" opacity="0.5" fill="none" stroke="#9CDDF7" stroke-width="0.2" stroke-miterlimit="10" x1="68.3" y1="76.7" x2="74.8" y2="83.6"/>
			
				<line id="XMLID_15055_" opacity="0.5" fill="none" stroke="#9CDDF7" stroke-width="0.2" stroke-miterlimit="10" x1="69.4" y1="76.1" x2="75.9" y2="82.9"/>
			
				<line id="XMLID_15054_" opacity="0.5" fill="none" stroke="#9CDDF7" stroke-width="0.2" stroke-miterlimit="10" x1="72.6" y1="74.3" x2="79.1" y2="81.1"/>
			<polyline id="XMLID_15053_" opacity="0.5" fill="none" stroke="#9CDDF7" stroke-width="0.2" stroke-miterlimit="10" points="
				69.4,80.3 75.8,76.7 77.2,78.1 70.8,81.8 			"/>
			<polyline id="XMLID_15052_" opacity="0.5" fill="none" stroke="#9CDDF7" stroke-width="0.2" stroke-miterlimit="10" points="
				67.2,78 73.6,74.4 75,75.9 68.6,79.5 			"/>
		</g>
		
			<line id="XMLID_15050_" opacity="0.5" fill="none" stroke="#9CDDF7" stroke-width="0.2" stroke-miterlimit="10" x1="77.2" y1="78.1" x2="70.8" y2="81.8"/>
		
			<line id="XMLID_15049_" opacity="0.5" fill="none" stroke="#9CDDF7" stroke-width="0.2" stroke-miterlimit="10" x1="73.7" y1="84.1" x2="67.2" y2="77.3"/>
		
			<line id="XMLID_15048_" opacity="0.5" fill="none" stroke="#9CDDF7" stroke-width="0.2" stroke-miterlimit="10" x1="77.9" y1="79" x2="71.4" y2="82.6"/>
	</g>
</g>
</svg>
