<?xml version="1.0" encoding="utf-8"?>
<!-- Generator: Adobe Illustrator 16.0.0, SVG Export Plug-In . SVG Version: 6.00 Build 0)  -->
<!DOCTYPE svg PUBLIC "-//W3C//DTD SVG 1.1//EN" "http://www.w3.org/Graphics/SVG/1.1/DTD/svg11.dtd">
<svg version="1.1" id="Layer_1" xmlns="http://www.w3.org/2000/svg" xmlns:xlink="http://www.w3.org/1999/xlink" x="0px" y="0px"
	 width="164px" height="164px" viewBox="0 0 164 164" enable-background="new 0 0 164 164" xml:space="preserve">
<g id="XMLID_15317_">
	<g id="XMLID_15326_">
		<g id="XMLID_15338_">
			<g id="XMLID_15344_">
				<g id="XMLID_15351_">
					<polygon fill="#D1BE6F" points="80.9,84.5 83.1,83.3 90.4,87.6 88.3,88.8 					"/>
					<path fill="#918243" d="M83,83.4l7.3,4.2l-2.1,1.2L81,84.6L83,83.4 M83,83.3l-2.2,1.2l7.4,4.3l2.2-1.2L83,83.3L83,83.3z"/>
				</g>
				<polygon id="XMLID_15350_" fill="#D1BE6F" stroke="#918243" stroke-width="0.1" stroke-miterlimit="10" points="78.7,85.8 
					80.9,84.6 88.3,88.8 86.1,90.1 				"/>
				<g id="XMLID_15349_">
					<polygon fill="#D1BE6F" points="75,83.6 77.2,82.4 84.6,86.7 82.4,87.9 					"/>
					<path fill="#918243" d="M77.2,82.5l7.3,4.2l-2.1,1.2l-7.3-4.2L77.2,82.5 M77.2,82.4L75,83.7l7.4,4.3l2.2-1.2L77.2,82.4
						L77.2,82.4z"/>
				</g>
				<g id="XMLID_15348_">
					<polygon fill="#D1BE6F" points="82.4,87.9 84.6,86.7 91.9,91 89.8,92.2 					"/>
					<path fill="#918243" d="M84.6,86.7l7.3,4.2l-2.1,1.2l-7.3-4.2L84.6,86.7 M84.6,86.7l-2.2,1.2l7.4,4.3l2.2-1.2L84.6,86.7
						L84.6,86.7z"/>
				</g>
				<g id="XMLID_15347_">
					<polygon fill="#D1BE6F" points="88.3,88.8 90.4,87.6 97.8,91.8 95.6,93 					"/>
					<path fill="#918243" d="M90.4,87.6l7.3,4.2L95.6,93l-7.3-4.2L90.4,87.6 M90.4,87.6l-2.2,1.2l7.4,4.3l2.2-1.2L90.4,87.6
						L90.4,87.6z"/>
				</g>
				<g id="XMLID_15346_">
					<polygon fill="#D1BE6F" points="76.6,87 78.7,85.8 86.1,90.1 83.9,91.3 					"/>
					<path fill="#918243" d="M78.7,85.9l7.3,4.2l-2.1,1.2L76.7,87L78.7,85.9 M78.7,85.8L76.6,87l7.4,4.3l2.2-1.2L78.7,85.8
						L78.7,85.8z"/>
				</g>
				<g id="XMLID_15345_">
					<polygon fill="#D1BE6F" points="83.9,91.3 86.1,90.1 93.5,94.3 91.3,95.5 					"/>
					<path fill="#918243" d="M86.1,90.1l7.3,4.2l-2.1,1.2L84,91.3L86.1,90.1 M86.1,90.1l-2.2,1.2l7.4,4.3l2.2-1.2L86.1,90.1
						L86.1,90.1z"/>
				</g>
			</g>
			<g id="XMLID_15343_">
				<polygon fill="#D1BE6F" points="89.8,92.2 92,91 95.6,93.1 93.5,94.3 				"/>
				<path fill="#918243" d="M91.9,91l3.6,2.1l-2.1,1.2l-3.6-2.1L91.9,91 M91.9,90.9l-2.2,1.2l3.7,2.1l2.2-1.2L91.9,90.9L91.9,90.9z"
					/>
			</g>
			<g id="XMLID_15342_">
				<polygon fill="#D1BE6F" points="72.9,84.9 75,83.7 78.7,85.8 76.5,87 				"/>
				<path fill="#918243" d="M75,83.7l3.6,2.1L76.5,87L73,84.9L75,83.7 M75,83.7l-2.2,1.2l3.7,2.1l2.2-1.2L75,83.7L75,83.7z"/>
			</g>
			<g id="XMLID_15341_">
				<polygon fill="#D1BE6F" points="77.2,82.4 79.4,81.2 83,83.3 80.9,84.5 				"/>
				<path fill="#918243" d="M79.4,81.2l3.6,2.1l-2.1,1.2l-3.6-2.1L79.4,81.2 M79.4,81.2l-2.1,1.3l3.7,2.1l2.2-1.2L79.4,81.2
					L79.4,81.2z"/>
			</g>
			<polygon id="XMLID_15340_" opacity="0.2" points="79.8,81.5 79.8,81.5 79.4,81.2 78.9,81.5 78.9,81.5 72.9,84.9 73.4,85.2 
				79.4,81.7 97.3,92.1 97.8,91.9 			"/>
			<polygon id="XMLID_15339_" opacity="0.2" points="79.4,81.7 79.4,81.2 72.8,84.9 73.4,85.2 			"/>
		</g>
		<polygon id="XMLID_15337_" fill="#2B2927" points="95.9,90.7 89.3,94.5 91.3,95.6 97.9,91.8 		"/>
		<path id="XMLID_15336_" opacity="0.8" fill="#1C1C1C" d="M77.2,79l-8,3.3c0.8,0.8,2.1,1.7,3.6,2.5l6.5-3.7
			C78.4,80.4,77.3,79.4,77.2,79z"/>
		<g id="XMLID_15328_">
			<path id="XMLID_15335_" fill="#3A3735" d="M76.7,76.5c-0.7-0.3-1.3-0.2-1.7,0.1l0,0L68.8,80c0,0,0,0,0,0l0,0l0,0
				c-0.2,0.1-0.4,0.3-0.5,0.6c-0.2,0.7,0.4,1.6,1.4,2.1c0.6,0.3,1.3,0.3,1.7,0.1l0,0l5.8-3.3c0.3,0,0.6-0.2,0.7-0.4l0,0l0,0
				c0.1-0.1,0.1-0.2,0.1-0.3C78.3,77.9,77.7,76.9,76.7,76.5z"/>
			<path id="XMLID_15334_" opacity="0.2" fill="#FFFFFF" d="M71.8,82.2c-0.2,0.8-1.1,1-2.1,0.5c-1-0.5-1.6-1.4-1.4-2.1
				s1.1-1,2.1-0.6C71.3,80.4,72,81.4,71.8,82.2z"/>
			<path id="XMLID_15333_" opacity="0.1" fill="#FFFFFF" d="M70,79.9l6.3-3.5c-0.5-0.1-1-0.1-1.3,0.2l0,0L68.8,80
				C69.1,79.8,69.6,79.8,70,79.9z"/>
			<path id="XMLID_15332_" fill="#2B2927" d="M78.1,78.4l-6.3,3.5c0,0.1,0,0.2,0,0.3c-0.1,0.2-0.2,0.4-0.4,0.6l0,0l5.9-3.2
				c0,0,0.5-0.3,0.7-0.6l0,0l0,0c0.1-0.1,0.1-0.2,0.1-0.3C78.1,78.6,78.1,78.5,78.1,78.4z"/>
			<path id="XMLID_15331_" opacity="0.4" fill="#3A3735" stroke="#FFFFFF" stroke-width="0.1" stroke-miterlimit="10" d="M70.9,82
				c-0.1,0.3-0.6,0.3-1,0.1c-0.4-0.2-0.7-0.7-0.6-0.9c0.1-0.3,0.6-0.3,1-0.1C70.8,81.2,71.1,81.7,70.9,82z"/>
			<path id="XMLID_15330_" opacity="0.2" fill="none" stroke="#FFFFFF" stroke-width="0.1" stroke-miterlimit="10" d="M71.4,82.4
				c-0.3,0.6-1.2,0.5-1.9,0c-0.7-0.5-1.1-1.4-0.8-1.9c0.3-0.5,1.2-0.5,1.9,0C71.4,80.9,71.7,81.8,71.4,82.4z"/>
			<path id="XMLID_15329_" opacity="0.2" fill="#3A3735" stroke="#FFFFFF" stroke-width="0.1" stroke-miterlimit="10" d="M71.2,82.2
				c-0.3,0.4-0.9,0.4-1.6-0.1c-0.6-0.4-0.9-1.1-0.7-1.5s0.9-0.4,1.6,0C71.1,81.1,71.4,81.7,71.2,82.2z"/>
		</g>
		<path id="XMLID_15327_" opacity="4.000000e-002" fill="#FFFFFF" d="M76.4,76.6c0,0,0.8,0.2,1,0.7c0,0-1.9,0.3-6.1,2.1L76.4,76.6z"
			/>
	</g>
	<g id="XMLID_15322_">
		<g id="XMLID_15325_">
			<polygon fill="#918243" points="89.3,90.8 89.2,90.5 97,84.3 97.1,84.6 91.8,91.2 			"/>
			<path fill="#918243" d="M97,84.3l0.1,0.3l-5.3,6.6l-2.4-0.4l-0.1-0.3L97,84.3 M97,84.3l-7.8,6.2l0.1,0.4l2.5,0.4l5.4-6.6L97,84.3
				L97,84.3z"/>
		</g>
		<g id="XMLID_15324_">
			<polygon fill="#D1BE6F" points="89.2,90.5 94.5,83.9 97,84.3 91.6,90.9 			"/>
			<path fill="#918243" d="M94.5,83.9l2.4,0.4l-5.3,6.5l-2.4-0.4L94.5,83.9 M94.5,83.9l-5.3,6.6l2.5,0.4l5.4-6.6L94.5,83.9
				L94.5,83.9z"/>
		</g>
		<polygon id="XMLID_15323_" fill="#665B2B" stroke="#665B2B" stroke-width="5.000000e-002" stroke-miterlimit="10" points="
			97,84.3 97.1,84.6 91.8,91.3 91.6,90.9 		"/>
	</g>
	<g id="XMLID_15318_">
		<g id="XMLID_15321_">
			<polygon fill="#918243" points="90.5,90.4 90.5,90 99.7,86.3 99.7,86.7 92.7,91.4 			"/>
			<path fill="#918243" d="M99.7,86.3l0,0.3l-7,4.8l-2.2-1.1l0-0.3L99.7,86.3 M99.7,86.3L90.4,90l0,0.4l2.2,1.1l7-4.8L99.7,86.3
				L99.7,86.3z"/>
		</g>
		<g id="XMLID_15320_">
			<polygon fill="#D1BE6F" points="90.4,90 97.5,85.2 99.7,86.3 92.7,91 			"/>
			<path fill="#918243" d="M97.5,85.2l2.1,1L92.7,91l-2.1-1L97.5,85.2 M97.5,85.2l-7,4.8l2.3,1.1l7-4.8L97.5,85.2L97.5,85.2z"/>
		</g>
		<polygon id="XMLID_15319_" fill="#665B2B" stroke="#665B2B" stroke-width="5.000000e-002" stroke-miterlimit="10" points="
			99.7,86.3 99.8,86.7 92.7,91.5 92.7,91.1 		"/>
	</g>
</g>
</svg>
