<?xml version="1.0" encoding="utf-8"?>
<!-- Generator: Adobe Illustrator 16.0.0, SVG Export Plug-In . SVG Version: 6.00 Build 0)  -->
<!DOCTYPE svg PUBLIC "-//W3C//DTD SVG 1.1//EN" "http://www.w3.org/Graphics/SVG/1.1/DTD/svg11.dtd">
<svg version="1.1" id="Layer_1" xmlns="http://www.w3.org/2000/svg" xmlns:xlink="http://www.w3.org/1999/xlink" x="0px" y="0px"
	 width="164px" height="164px" viewBox="0 0 164 164" enable-background="new 0 0 164 164" xml:space="preserve">
<g id="XMLID_6231_">
	<g id="XMLID_8732_">
		<g id="XMLID_8827_">
			<g id="XMLID_14778_">
				<g id="XMLID_14802_">
					<defs>
						<polygon id="XMLID_14803_" points="89.1,102.3 103.3,77.7 117.4,85.9 						"/>
					</defs>
					<clipPath id="XMLID_4_">
						<use xlink:href="#XMLID_14803_"  overflow="visible"/>
					</clipPath>
					<g id="XMLID_14839_" clip-path="url(#XMLID_4_)">
						<defs>
							<polygon id="XMLID_14840_" points="89.1,102.3 103.3,77.7 117.4,85.9 							"/>
						</defs>
						<use xlink:href="#XMLID_14840_"  overflow="visible" fill="#AD856A"/>
						<clipPath id="XMLID_5_">
							<use xlink:href="#XMLID_14840_"  overflow="visible"/>
						</clipPath>
					</g>
					<g id="XMLID_14804_" clip-path="url(#XMLID_4_)">
						<polygon id="XMLID_14838_" fill="#90674C" points="103.3,79.7 103.3,79.7 105.6,78.4 105.6,76.4 103.3,77.7 101.6,78.7 
							101.6,80.7 						"/>
						<polygon id="XMLID_14837_" fill="#90674C" points="100.9,81.1 100.9,79.1 99.8,79.7 96.9,81.5 96.9,83.4 						"/>
						<polygon id="XMLID_14836_" fill="#90674C" points="96.2,83.8 96.2,81.8 96.1,81.9 92.1,84.2 92.1,86.2 						"/>
						<polygon id="XMLID_14835_" fill="#90674C" points="91.4,84.6 89.1,85.9 89.1,87.9 91.4,86.6 						"/>
						<polygon id="XMLID_14834_" fill="#90674C" points="94.5,87.5 98.6,85.2 98.6,83.2 94.5,85.5 						"/>
						<polygon id="XMLID_14833_" fill="#90674C" points="89.7,88.3 89.7,90.3 93.8,87.9 93.8,85.9 						"/>
						<polygon id="XMLID_14832_" fill="#90674C" points="103.3,80.5 99.2,82.8 99.2,84.8 103.3,82.5 						"/>
						<polygon id="XMLID_14831_" fill="#90674C" points="89.7,101.2 93.8,98.9 93.8,96.9 89.7,99.2 						"/>
						<polygon id="XMLID_14830_" fill="#90674C" points="94.5,98.5 98.6,96.1 98.6,94.1 94.5,96.5 						"/>
						<polygon id="XMLID_14829_" fill="#90674C" points="89.7,95.7 93.8,93.4 93.8,91.4 89.7,93.8 						"/>
						<polygon id="XMLID_14828_" fill="#90674C" points="98.6,88.7 94.5,91 94.5,93 98.6,90.7 						"/>
						<polygon id="XMLID_14827_" fill="#90674C" points="91.4,95.6 89.1,96.9 89.1,98.9 91.4,97.6 						"/>
						<polygon id="XMLID_14826_" fill="#90674C" points="96.2,94.8 96.2,92.8 92.1,95.1 92.1,97.1 						"/>
						<polygon id="XMLID_14825_" fill="#90674C" points="103.3,90.7 103.3,88.7 101.6,89.7 101.6,91.7 						"/>
						<polygon id="XMLID_14824_" fill="#90674C" points="91.4,90.1 89.1,91.4 89.1,93.4 91.4,92.1 						"/>
						<polygon id="XMLID_14823_" fill="#90674C" points="96.2,89.3 96.2,87.3 92.1,89.7 92.1,91.7 						"/>
						<polygon id="XMLID_14822_" fill="#90674C" points="96.9,88.9 100.9,86.6 100.9,84.6 96.9,86.9 						"/>
						<polygon id="XMLID_14821_" fill="#90674C" points="115.8,70.5 115.8,72.5 117.4,71.5 117.4,69.5 						"/>
						<polygon id="XMLID_14820_" fill="#90674C" points="115.1,72.9 115.1,70.9 114,71.6 111,73.3 111,75.3 						"/>
						<polygon id="XMLID_14819_" fill="#90674C" points="110.4,75.7 110.4,73.7 110.3,73.7 106.3,76 106.3,78 						"/>
						<polygon id="XMLID_14818_" fill="#90674C" points="108.7,79.4 112.7,77 112.7,75 108.7,77.4 						"/>
						<polygon id="XMLID_14817_" fill="#90674C" points="103.9,82.1 108,79.7 108,77.7 103.9,80.1 						"/>
						<polygon id="XMLID_14816_" fill="#90674C" points="113.4,76.6 117.4,74.3 117.4,72.3 113.4,74.6 						"/>
						<polygon id="XMLID_14815_" fill="#90674C" points="113.4,87.6 117.4,85.3 117.4,83.3 113.4,85.6 						"/>
						<polygon id="XMLID_14814_" fill="#90674C" points="108,85.2 108,83.2 103.9,85.6 103.9,87.6 						"/>
						<polygon id="XMLID_14813_" fill="#90674C" points="108.7,84.8 112.7,82.5 112.7,80.5 108.7,82.8 						"/>
						<polygon id="XMLID_14812_" fill="#90674C" points="113.4,82.1 117.4,79.8 117.4,77.8 113.4,80.1 						"/>
						<polygon id="XMLID_14811_" fill="#90674C" points="105.6,87.4 103.3,88.7 103.3,90.7 105.6,89.4 						"/>
						<polygon id="XMLID_14810_" fill="#90674C" points="110.4,86.6 110.4,84.6 106.3,87 106.3,89 						"/>
						<polygon id="XMLID_14809_" fill="#90674C" points="115.8,83.5 117.4,82.5 117.4,80.5 115.8,81.5 						"/>
						<polygon id="XMLID_14808_" fill="#90674C" points="111,86.2 115.1,83.9 115.1,81.9 111,84.2 						"/>
						<polygon id="XMLID_14807_" fill="#90674C" points="106.3,83.5 110.4,81.1 110.4,79.1 106.3,81.5 						"/>
						<polygon id="XMLID_14806_" fill="#90674C" points="115.8,78 117.4,77.1 117.4,75.1 115.8,76 						"/>
						<polygon id="XMLID_14805_" fill="#90674C" points="115.1,76.4 111,78.8 111,80.8 115.1,78.4 						"/>
					</g>
				</g>
				<g id="XMLID_14779_">
					<path id="XMLID_14801_" fill="#544129" d="M107.5,86.7c0,2.3-1.5,4.9-3.5,5.8c-1.9,0.9-3.5-0.2-3.5-2.5s1.5-4.9,3.5-5.8
						C106,83.3,107.5,84.4,107.5,86.7z"/>
					<g id="XMLID_14800_" opacity="0.1">
						<path d="M105.4,83.9c-0.4,0-0.8,0.1-1.3,0.3c-1.9,0.9-3.5,3.5-3.5,5.8c0,1.7,0.9,2.8,2.2,2.8c0.4,0,0.8-0.1,1.3-0.3
							c1.9-0.9,3.5-3.5,3.5-5.8C107.5,85,106.6,83.9,105.4,83.9L105.4,83.9z"/>
					</g>
					<path id="XMLID_14799_" fill="#78D5FB" d="M105.4,84.8c-0.3,0-0.6,0.1-0.9,0.2c-1.6,0.8-3,3.1-3,5c0,0.9,0.3,1.9,1.3,1.9
						c0.3,0,0.6-0.1,0.9-0.2c1.6-0.8,3-3.1,3-5C106.7,85.8,106.3,84.8,105.4,84.8z"/>
					<path id="XMLID_14798_" fill="#78D5FB" d="M106.1,86.7c0-0.8-0.3-1.7-1-1.9c-0.2,0-0.4,0.1-0.6,0.2c-1.6,0.8-3,3.1-3,5
						c0,0.8,0.3,1.7,1,1.9c0.2,0,0.4-0.1,0.6-0.2C104.7,91,106.1,88.7,106.1,86.7z"/>
					<g id="XMLID_14782_">
						<defs>
							<path id="XMLID_14783_" d="M105.4,84.8c-0.1,0-0.2,0-0.3,0c-0.2,0-0.4,0.1-0.6,0.2c-1.6,0.8-3,3.1-3,5c0,0.8,0.3,1.7,1,1.9
								c0.1,0,0.2,0,0.3,0c0.3,0,0.6-0.1,0.9-0.2c1.6-0.8,3-3.1,3-5C106.7,85.8,106.3,84.8,105.4,84.8z"/>
						</defs>
						<clipPath id="XMLID_6_">
							<use xlink:href="#XMLID_14783_"  overflow="visible"/>
						</clipPath>
						<g id="XMLID_14784_" clip-path="url(#XMLID_6_)">
							<g id="XMLID_14797_">
								<polygon fill="#78D5FB" points="101.4,93.3 107.2,89.8 107.2,83.1 101.4,86.6 								"/>
							</g>
							<g id="XMLID_14792_">
								<polygon id="XMLID_14796_" fill="#78D5FB" points="104.3,91.4 106.5,90.1 106.5,83.7 104.3,85 								"/>
								<path id="XMLID_14795_" opacity="0.2" d="M104.3,85l2.2-1.3v6.4l-1.4,0.8c0-1.6,0.6-2.8,0.6-2.8
									C104.5,88.2,104.3,85,104.3,85z"/>
								<g id="XMLID_14793_" opacity="0.6">
									<path id="XMLID_14794_" fill="#C6C6C6" d="M104.8,84.7l2.5-1.8l1,7.1l-2.8,0.6c0-1.6,0.4-2.7,0.4-2.7
										C105,87.9,104.8,84.7,104.8,84.7z"/>
								</g>
							</g>
							<g id="XMLID_14787_">
								<polygon id="XMLID_14791_" fill="#78D5FB" points="104,91.5 101.6,92.9 101.6,86.6 104,85.2 								"/>
								<path id="XMLID_14790_" opacity="0.2" d="M104,85.2l-2.5,1.4v6.4l1.5-0.9c0-1.6-0.6-2.1-0.6-2.1
									C103.8,88.6,104,85.2,104,85.2z"/>
								<g id="XMLID_14788_" opacity="0.6">
									<path id="XMLID_14789_" fill="#C6C6C6" d="M103.5,85.5l-2.5,1.7v6.4l1.8-1.2c0-1.6-0.5-2.2-0.5-2.2
										C103.3,88.9,103.5,85.5,103.5,85.5z"/>
								</g>
							</g>
							<path id="XMLID_14786_" opacity="0.6" fill="#FFFFFF" d="M105,84.6l1.8-1.1v6.4l-1.2,0.8c0-1.6,0.4-2.7,0.4-2.7
								C105.1,87.8,105,84.6,105,84.6z"/>
							<path id="XMLID_14785_" opacity="0.6" fill="#FFFFFF" d="M103.3,85.6l-1.8,1v6.4l1.1-0.6c0-1.6-0.4-2.2-0.4-2.2
								C103.1,89,103.3,85.6,103.3,85.6z"/>
						</g>
					</g>
					<path id="XMLID_14781_" opacity="8.000000e-002" d="M105.1,84.8c-0.2,0-0.4,0.1-0.6,0.2c-0.8,0.4-1.5,1.1-2,1.9
						c1.7,0.4,2.6,1.2,3,2.1c0.4-0.8,0.6-1.6,0.6-2.4C106.1,85.9,105.8,85,105.1,84.8z"/>
					<path id="XMLID_14780_" opacity="0.3" d="M105.4,84.8c-0.1,0-0.2,0-0.3,0c0.7,0.2,1,1.1,1,1.9c0,1.9-1.4,4.3-3,5
						c-0.2,0.1-0.4,0.2-0.6,0.2c0.1,0,0.2,0,0.3,0c0.3,0,0.6-0.1,0.9-0.2c1.6-0.8,3-3.1,3-5C106.7,85.8,106.3,84.8,105.4,84.8z"/>
				</g>
			</g>
			<g id="XMLID_8828_">
				<polygon id="XMLID_14777_" fill="#7C4723" points="120,87.4 103.2,77.7 103.2,77.8 90.4,70.4 75,97.1 89.2,105.2 103.8,80 
					118.3,88.4 				"/>
				<g id="XMLID_8829_">
					<g id="XMLID_14760_">
						<g id="XMLID_14773_">
							<path id="XMLID_14776_" fill="#B26028" d="M88.4,100.1c1.2,0.6,1.6,0.2,1.2,1l-1.9,3.2c-0.4,0.7-1.9-0.5-3.1-1.1
								c-1.2-0.6-1.6-0.2-1.2-1l1.9-3.2C85.7,98.3,87.2,99.6,88.4,100.1z"/>
							<path id="XMLID_14775_" opacity="0.2" fill="#272525" d="M84.8,102.8c1.2,0.6,2.7,1.8,3.1,1.1l-0.3,0.5
								c-0.4,0.7-1.9-0.5-3.1-1.1c-1.2-0.6-1.6-0.2-1.2-1l0.3-0.5C83.2,102.6,83.6,102.2,84.8,102.8z"/>
							<path id="XMLID_14774_" opacity="0.1" fill="#272525" d="M87.8,100.3c-1-0.5-2.3-1.6-2.7-0.9l0.2-0.3
								c0.4-0.7,1.9,0.5,3.1,1.1c1.2,0.6,1.6,0.2,1.2,1l-1.6,2.8c-0.2,0.3-0.5,0.3-0.8,0.2l1.7-2.8
								C89.2,100.4,88.8,100.8,87.8,100.3z"/>
						</g>
						<g id="XMLID_14769_">
							<path id="XMLID_14772_" fill="#B26028" d="M84.9,98.1c1.2,0.6,1.6,0.2,1.2,1l-1.9,3.2c-0.4,0.7-1.9-0.5-3.1-1.1
								c-1.2-0.6-1.6-0.2-1.2-1l1.9-3.2C82.2,96.3,83.7,97.5,84.9,98.1z"/>
							<path id="XMLID_14771_" opacity="0.2" fill="#272525" d="M81.3,100.8c1.2,0.6,2.7,1.8,3.1,1.1l-0.3,0.5
								c-0.4,0.7-1.9-0.5-3.1-1.1c-1.2-0.6-1.6-0.2-1.2-1l0.3-0.5C79.7,100.5,80.1,100.2,81.3,100.8z"/>
							<path id="XMLID_14770_" opacity="0.1" fill="#272525" d="M84.3,98.2c-1-0.5-2.3-1.6-2.7-0.9l0.2-0.3c0.4-0.7,1.9,0.5,3.1,1.1
								c1.2,0.6,1.6,0.2,1.2,1l-1.6,2.8c-0.2,0.3-0.5,0.3-0.8,0.2l1.7-2.8C85.7,98.4,85.3,98.7,84.3,98.2z"/>
						</g>
						<g id="XMLID_14765_">
							<path id="XMLID_14768_" fill="#B26028" d="M81.4,96c1.2,0.6,1.6,0.2,1.2,1l-1.9,3.2c-0.4,0.7-1.9-0.5-3.1-1.1
								c-1.2-0.6-1.6-0.2-1.2-1l1.9-3.2C78.7,94.2,80.2,95.5,81.4,96z"/>
							<path id="XMLID_14767_" opacity="0.2" fill="#272525" d="M77.8,98.7c1.2,0.6,2.7,1.8,3.1,1.1l-0.3,0.5
								c-0.4,0.7-1.9-0.5-3.1-1.1c-1.2-0.6-1.6-0.2-1.2-1l0.3-0.5C76.2,98.5,76.6,98.2,77.8,98.7z"/>
							<path id="XMLID_14766_" opacity="0.1" fill="#272525" d="M80.8,96.2c-1-0.5-2.3-1.6-2.7-0.9l0.2-0.3c0.4-0.7,1.9,0.5,3.1,1.1
								c1.2,0.6,1.6,0.2,1.2,1L81,99.8c-0.2,0.3-0.5,0.3-0.8,0.2l1.7-2.8C82.2,96.3,81.8,96.7,80.8,96.2z"/>
						</g>
						<g id="XMLID_14761_">
							<path id="XMLID_14764_" fill="#B26028" d="M77.9,94c1.2,0.6,1.6,0.2,1.2,1l-1.9,3.2c-0.4,0.7-1.9-0.5-3.1-1.1
								c-1.2-0.6-1.6-0.2-1.2-1l1.9-3.2C75.2,92.2,76.7,93.4,77.9,94z"/>
							<path id="XMLID_14763_" opacity="0.2" fill="#272525" d="M74.3,96.7c1.2,0.6,2.7,1.8,3.1,1.1l-0.3,0.5
								c-0.4,0.7-1.9-0.5-3.1-1.1c-1.2-0.6-1.6-0.2-1.2-1l0.3-0.5C72.7,96.5,73.2,96.1,74.3,96.7z"/>
							<path id="XMLID_14762_" opacity="0.1" fill="#272525" d="M77.3,94.2c-1-0.5-2.3-1.6-2.7-0.9l0.2-0.3c0.4-0.7,1.9,0.5,3.1,1.1
								s1.6,0.2,1.2,1l-1.6,2.8C77.3,98,77,98,76.6,97.9l1.7-2.8C78.7,94.3,78.3,94.7,77.3,94.2z"/>
						</g>
					</g>
					<g id="XMLID_14743_">
						<g id="XMLID_14756_">
							<path id="XMLID_14759_" fill="#B26028" d="M90.3,96.8c1.2,0.6,1.6,0.2,1.2,1l-1.9,3.2c-0.4,0.7-1.9-0.5-3.1-1.1
								s-1.6-0.2-1.2-1l1.9-3.2C87.6,95,89.1,96.2,90.3,96.8z"/>
							<path id="XMLID_14758_" opacity="0.2" fill="#272525" d="M86.8,99.5c1.2,0.6,2.7,1.8,3.1,1.1l-0.3,0.5
								c-0.4,0.7-1.9-0.5-3.1-1.1s-1.6-0.2-1.2-1l0.3-0.5C85.1,99.2,85.6,98.9,86.8,99.5z"/>
							<path id="XMLID_14757_" opacity="0.1" fill="#272525" d="M89.7,96.9c-1-0.5-2.3-1.6-2.7-0.9l0.2-0.3c0.4-0.7,1.9,0.5,3.1,1.1
								s1.6,0.2,1.2,1l-1.6,2.8c-0.2,0.3-0.5,0.3-0.8,0.2l1.7-2.8C91.2,97.1,90.7,97.4,89.7,96.9z"/>
						</g>
						<g id="XMLID_14752_">
							<path id="XMLID_14755_" fill="#B26028" d="M86.8,94.7c1.2,0.6,1.6,0.2,1.2,1l-1.9,3.2c-0.4,0.7-1.9-0.5-3.1-1.1
								s-1.6-0.2-1.2-1l1.9-3.2C84.1,92.9,85.6,94.2,86.8,94.7z"/>
							<path id="XMLID_14754_" opacity="0.2" fill="#272525" d="M83.3,97.4c1.2,0.6,2.7,1.8,3.1,1.1l-0.3,0.5
								c-0.4,0.7-1.9-0.5-3.1-1.1s-1.6-0.2-1.2-1l0.3-0.5C81.6,97.2,82.1,96.9,83.3,97.4z"/>
							<path id="XMLID_14753_" opacity="0.1" fill="#272525" d="M86.2,94.9c-1-0.5-2.3-1.6-2.7-0.9l0.2-0.3c0.4-0.7,1.9,0.5,3.1,1.1
								c1.2,0.6,1.6,0.2,1.2,1l-1.6,2.8c-0.2,0.3-0.5,0.3-0.8,0.2l1.7-2.8C87.7,95,87.2,95.4,86.2,94.9z"/>
						</g>
						<g id="XMLID_14748_">
							<path id="XMLID_14751_" fill="#B26028" d="M83.3,92.7c1.2,0.6,1.6,0.2,1.2,1l-1.9,3.2c-0.4,0.7-1.9-0.5-3.1-1.1
								c-1.2-0.6-1.6-0.2-1.2-1l1.9-3.2C80.6,90.9,82.1,92.1,83.3,92.7z"/>
							<path id="XMLID_14750_" opacity="0.2" fill="#272525" d="M79.8,95.4c1.2,0.6,2.7,1.8,3.1,1.1l-0.3,0.5
								c-0.4,0.7-1.9-0.5-3.1-1.1c-1.2-0.6-1.6-0.2-1.2-1l0.3-0.5C78.1,95.2,78.6,94.8,79.8,95.4z"/>
							<path id="XMLID_14749_" opacity="0.1" fill="#272525" d="M82.7,92.9c-1-0.5-2.3-1.6-2.7-0.9l0.2-0.3c0.4-0.7,1.9,0.5,3.1,1.1
								c1.2,0.6,1.6,0.2,1.2,1l-1.6,2.8c-0.2,0.3-0.5,0.3-0.8,0.2l1.7-2.8C84.2,93,83.7,93.3,82.7,92.9z"/>
						</g>
						<g id="XMLID_14744_">
							<path id="XMLID_14747_" fill="#B26028" d="M79.8,90.7c1.2,0.6,1.6,0.2,1.2,1l-1.9,3.2c-0.4,0.7-1.9-0.5-3.1-1.1
								c-1.2-0.6-1.6-0.2-1.2-1l1.9-3.2C77.1,88.9,78.6,90.1,79.8,90.7z"/>
							<path id="XMLID_14746_" opacity="0.2" fill="#272525" d="M76.3,93.3c1.2,0.6,2.7,1.8,3.1,1.1l-0.3,0.5
								c-0.4,0.7-1.9-0.5-3.1-1.1c-1.2-0.6-1.6-0.2-1.2-1l0.3-0.5C74.6,93.1,75.1,92.8,76.3,93.3z"/>
							<path id="XMLID_14745_" opacity="0.1" fill="#272525" d="M79.2,90.8c-1-0.5-2.3-1.6-2.7-0.9l0.2-0.3c0.4-0.7,1.9,0.5,3.1,1.1
								c1.2,0.6,1.6,0.2,1.2,1l-1.6,2.8c-0.2,0.3-0.5,0.3-0.8,0.2l1.7-2.8C80.7,91,80.2,91.3,79.2,90.8z"/>
						</g>
					</g>
					<g id="XMLID_8883_">
						<g id="XMLID_14726_">
							<g id="XMLID_14739_">
								<path id="XMLID_14742_" fill="#B26028" d="M92.2,93.4c1.2,0.6,1.6,0.2,1.2,1l-1.9,3.2c-0.4,0.7-1.9-0.5-3.1-1.1
									s-1.6-0.2-1.2-1l1.9-3.2C89.5,91.6,91,92.9,92.2,93.4z"/>
								<path id="XMLID_14741_" opacity="0.2" fill="#272525" d="M88.7,96.1c1.2,0.6,2.7,1.8,3.1,1.1l-0.3,0.5
									c-0.4,0.7-1.9-0.5-3.1-1.1s-1.6-0.2-1.2-1l0.3-0.5C87,95.9,87.5,95.6,88.7,96.1z"/>
								<path id="XMLID_14740_" opacity="0.1" fill="#272525" d="M91.6,93.6c-1-0.5-2.3-1.6-2.7-0.9l0.2-0.3
									c0.4-0.7,1.9,0.5,3.1,1.1s1.6,0.2,1.2,1l-1.6,2.8c-0.2,0.3-0.5,0.3-0.8,0.2l1.7-2.8C93.1,93.7,92.6,94.1,91.6,93.6z"/>
							</g>
							<g id="XMLID_14735_">
								<path id="XMLID_14738_" fill="#B26028" d="M88.7,91.4c1.2,0.6,1.6,0.2,1.2,1L88,95.6c-0.4,0.7-1.9-0.5-3.1-1.1
									s-1.6-0.2-1.2-1l1.9-3.2C86,89.6,87.5,90.8,88.7,91.4z"/>
								<path id="XMLID_14737_" opacity="0.2" fill="#272525" d="M85.2,94.1c1.2,0.6,2.7,1.8,3.1,1.1L88,95.6
									c-0.4,0.7-1.9-0.5-3.1-1.1s-1.6-0.2-1.2-1l0.3-0.5C83.5,93.9,84,93.5,85.2,94.1z"/>
								<path id="XMLID_14736_" opacity="0.1" fill="#272525" d="M88.1,91.6c-1-0.5-2.3-1.6-2.7-0.9l0.2-0.3
									c0.4-0.7,1.9,0.5,3.1,1.1s1.6,0.2,1.2,1l-1.6,2.8c-0.2,0.3-0.5,0.3-0.8,0.2l1.7-2.8C89.6,91.7,89.2,92,88.1,91.6z"/>
							</g>
							<g id="XMLID_14731_">
								<path id="XMLID_14734_" fill="#B26028" d="M85.2,89.4c1.2,0.6,1.6,0.2,1.2,1l-1.9,3.2c-0.4,0.7-1.9-0.5-3.1-1.1
									c-1.2-0.6-1.6-0.2-1.2-1l1.9-3.2C82.5,87.6,84,88.8,85.2,89.4z"/>
								<path id="XMLID_14733_" opacity="0.2" fill="#272525" d="M81.7,92c1.2,0.6,2.7,1.8,3.1,1.1l-0.3,0.5
									c-0.4,0.7-1.9-0.5-3.1-1.1c-1.2-0.6-1.6-0.2-1.2-1l0.3-0.5C80,91.8,80.5,91.5,81.7,92z"/>
								<path id="XMLID_14732_" opacity="0.1" fill="#272525" d="M84.6,89.5c-1-0.5-2.3-1.6-2.7-0.9l0.2-0.3
									c0.4-0.7,1.9,0.5,3.1,1.1c1.2,0.6,1.6,0.2,1.2,1l-1.6,2.8c-0.2,0.3-0.5,0.3-0.8,0.2l1.7-2.8C86.1,89.7,85.7,90,84.6,89.5z"
									/>
							</g>
							<g id="XMLID_14727_">
								<path id="XMLID_14730_" fill="#B26028" d="M81.7,87.3c1.2,0.6,1.6,0.2,1.2,1L81,91.5c-0.4,0.7-1.9-0.5-3.1-1.1
									c-1.2-0.6-1.6-0.2-1.2-1l1.9-3.2C79,85.5,80.5,86.8,81.7,87.3z"/>
								<path id="XMLID_14729_" opacity="0.2" fill="#272525" d="M78.2,90c1.2,0.6,2.7,1.8,3.1,1.1L81,91.5
									c-0.4,0.7-1.9-0.5-3.1-1.1c-1.2-0.6-1.6-0.2-1.2-1L77,89C76.5,89.8,77,89.4,78.2,90z"/>
								<path id="XMLID_14728_" opacity="0.1" fill="#272525" d="M81.1,87.5c-1-0.5-2.3-1.6-2.7-0.9l0.2-0.3
									c0.4-0.7,1.9,0.5,3.1,1.1c1.2,0.6,1.6,0.2,1.2,1l-1.6,2.8c-0.2,0.3-0.5,0.3-0.8,0.2l1.7-2.8C82.6,87.6,82.2,88,81.1,87.5z"
									/>
							</g>
						</g>
						<g id="XMLID_8901_">
							<g id="XMLID_14722_">
								<path id="XMLID_14725_" fill="#B26028" d="M94.1,90.1c1.2,0.6,1.6,0.2,1.2,1l-1.9,3.2c-0.4,0.7-1.9-0.5-3.1-1.1
									c-1.2-0.6-1.6-0.2-1.2-1L91,89C91.5,88.3,92.9,89.5,94.1,90.1z"/>
								<path id="XMLID_14724_" opacity="0.2" fill="#272525" d="M90.6,92.8c1.2,0.6,2.7,1.8,3.1,1.1l-0.3,0.5
									c-0.4,0.7-1.9-0.5-3.1-1.1c-1.2-0.6-1.6-0.2-1.2-1l0.3-0.5C89,92.5,89.4,92.2,90.6,92.8z"/>
								<path id="XMLID_14723_" opacity="0.1" fill="#272525" d="M93.5,90.2c-1-0.5-2.3-1.6-2.7-0.9L91,89c0.4-0.7,1.9,0.5,3.1,1.1
									c1.2,0.6,1.6,0.2,1.2,1l-1.6,2.8c-0.2,0.3-0.5,0.3-0.8,0.2l1.7-2.8C95,90.4,94.6,90.7,93.5,90.2z"/>
							</g>
							<g id="XMLID_8910_">
								<path id="XMLID_14721_" fill="#B26028" d="M90.6,88.1c1.2,0.6,1.6,0.2,1.2,1l-1.9,3.2c-0.4,0.7-1.9-0.5-3.1-1.1
									s-1.6-0.2-1.2-1l1.9-3.2C88,86.3,89.4,87.5,90.6,88.1z"/>
								<path id="XMLID_14720_" opacity="0.2" fill="#272525" d="M87.1,90.7c1.2,0.6,2.7,1.8,3.1,1.1l-0.3,0.5
									c-0.4,0.7-1.9-0.5-3.1-1.1s-1.6-0.2-1.2-1l0.3-0.5C85.5,90.5,85.9,90.2,87.1,90.7z"/>
								<path id="XMLID_14719_" opacity="0.1" fill="#272525" d="M90,88.2c-1-0.5-2.3-1.6-2.7-0.9l0.2-0.3c0.4-0.7,1.9,0.5,3.1,1.1
									s1.6,0.2,1.2,1l-1.6,2.8c-0.2,0.3-0.5,0.3-0.8,0.2l1.7-2.8C91.5,88.4,91.1,88.7,90,88.2z"/>
							</g>
							<g id="XMLID_8906_">
								<path id="XMLID_8909_" fill="#B26028" d="M87.1,86c1.2,0.6,1.6,0.2,1.2,1l-1.9,3.2c-0.4,0.7-1.9-0.5-3.1-1.1
									c-1.2-0.6-1.6-0.2-1.2-1L84,85C84.5,84.2,85.9,85.5,87.1,86z"/>
								<path id="XMLID_8908_" opacity="0.2" fill="#272525" d="M83.6,88.7c1.2,0.6,2.7,1.8,3.1,1.1l-0.3,0.5
									c-0.4,0.7-1.9-0.5-3.1-1.1c-1.2-0.6-1.6-0.2-1.2-1l0.3-0.5C82,88.5,82.4,88.1,83.6,88.7z"/>
								<path id="XMLID_8907_" opacity="0.1" fill="#272525" d="M86.5,86.2c-1-0.5-2.3-1.6-2.7-0.9L84,85c0.4-0.7,1.9,0.5,3.1,1.1
									c1.2,0.6,1.6,0.2,1.2,1l-1.6,2.8c-0.2,0.3-0.5,0.3-0.8,0.2l1.7-2.8C88,86.3,87.6,86.7,86.5,86.2z"/>
							</g>
							<g id="XMLID_8902_">
								<path id="XMLID_8905_" fill="#B26028" d="M83.6,84c1.2,0.6,1.6,0.2,1.2,1l-1.9,3.2c-0.4,0.7-1.9-0.5-3.1-1.1
									c-1.2-0.6-1.6-0.2-1.2-1l1.9-3.2C81,82.2,82.5,83.4,83.6,84z"/>
								<path id="XMLID_8904_" opacity="0.2" fill="#272525" d="M80.1,86.7c1.2,0.6,2.7,1.8,3.1,1.1l-0.3,0.5
									c-0.4,0.7-1.9-0.5-3.1-1.1c-1.2-0.6-1.6-0.2-1.2-1l0.3-0.5C78.5,86.4,78.9,86.1,80.1,86.7z"/>
								<path id="XMLID_8903_" opacity="0.1" fill="#272525" d="M83.1,84.1c-1-0.5-2.3-1.6-2.7-0.9l0.2-0.3c0.4-0.7,1.9,0.5,3.1,1.1
									c1.2,0.6,1.6,0.2,1.2,1l-1.6,2.8c-0.2,0.3-0.5,0.3-0.8,0.2l1.7-2.8C84.5,84.3,84.1,84.6,83.1,84.1z"/>
							</g>
						</g>
						<g id="XMLID_8884_">
							<g id="XMLID_8897_">
								<path id="XMLID_8900_" fill="#B26028" d="M96.1,86.7c1.2,0.6,1.6,0.2,1.2,1L95.4,91c-0.4,0.7-1.9-0.5-3.1-1.1
									c-1.2-0.6-1.6-0.2-1.2-1l1.9-3.2C93.4,84.9,94.9,86.2,96.1,86.7z"/>
								<path id="XMLID_8899_" opacity="0.2" fill="#272525" d="M92.5,89.4c1.2,0.6,2.7,1.8,3.1,1.1L95.4,91
									c-0.4,0.7-1.9-0.5-3.1-1.1c-1.2-0.6-1.6-0.2-1.2-1l0.3-0.5C90.9,89.2,91.3,88.9,92.5,89.4z"/>
								<path id="XMLID_8898_" opacity="0.1" fill="#272525" d="M95.5,86.9c-1-0.5-2.3-1.6-2.7-0.9l0.2-0.3c0.4-0.7,1.9,0.5,3.1,1.1
									c1.2,0.6,1.6,0.2,1.2,1l-1.6,2.8c-0.2,0.3-0.5,0.3-0.8,0.2l1.7-2.8C96.9,87,96.5,87.4,95.5,86.9z"/>
							</g>
							<g id="XMLID_8893_">
								<path id="XMLID_8896_" fill="#B26028" d="M92.6,84.7c1.2,0.6,1.6,0.2,1.2,1l-1.9,3.2c-0.4,0.7-1.9-0.5-3.1-1.1
									s-1.6-0.2-1.2-1l1.9-3.2C89.9,82.9,91.4,84.1,92.6,84.7z"/>
								<path id="XMLID_8895_" opacity="0.2" fill="#272525" d="M89,87.4c1.2,0.6,2.7,1.8,3.1,1.1l-0.3,0.5
									c-0.4,0.7-1.9-0.5-3.1-1.1s-1.6-0.2-1.2-1l0.3-0.5C87.4,87.2,87.8,86.8,89,87.4z"/>
								<path id="XMLID_8894_" opacity="0.1" fill="#272525" d="M92,84.9c-1-0.5-2.3-1.6-2.7-0.9l0.2-0.3c0.4-0.7,1.9,0.5,3.1,1.1
									c1.2,0.6,1.6,0.2,1.2,1l-1.6,2.8c-0.2,0.3-0.5,0.3-0.8,0.2l1.7-2.8C93.4,85,93,85.4,92,84.9z"/>
							</g>
							<g id="XMLID_8889_">
								<path id="XMLID_8892_" fill="#B26028" d="M89.1,82.7c1.2,0.6,1.6,0.2,1.2,1l-1.9,3.2c-0.4,0.7-1.9-0.5-3.1-1.1
									c-1.2-0.6-1.6-0.2-1.2-1l1.9-3.2C86.4,80.9,87.9,82.1,89.1,82.7z"/>
								<path id="XMLID_8891_" opacity="0.2" fill="#272525" d="M85.5,85.4c1.2,0.6,2.7,1.8,3.1,1.1l-0.3,0.5
									c-0.4,0.7-1.9-0.5-3.1-1.1c-1.2-0.6-1.6-0.2-1.2-1l0.3-0.5C83.9,85.1,84.3,84.8,85.5,85.4z"/>
								<path id="XMLID_8890_" opacity="0.1" fill="#272525" d="M88.5,82.8c-1-0.5-2.3-1.6-2.7-0.9l0.2-0.3c0.4-0.7,1.9,0.5,3.1,1.1
									c1.2,0.6,1.6,0.2,1.2,1l-1.6,2.8c-0.2,0.3-0.5,0.3-0.8,0.2l1.7-2.8C89.9,83,89.5,83.3,88.5,82.8z"/>
							</g>
							<g id="XMLID_8885_">
								<path id="XMLID_8888_" fill="#B26028" d="M85.6,80.6c1.2,0.6,1.6,0.2,1.2,1l-1.9,3.2c-0.4,0.7-1.9-0.5-3.1-1.1
									c-1.2-0.6-1.6-0.2-1.2-1l1.9-3.2C82.9,78.8,84.4,80.1,85.6,80.6z"/>
								<path id="XMLID_8887_" opacity="0.2" fill="#272525" d="M82,83.3c1.2,0.6,2.7,1.8,3.1,1.1l-0.3,0.5
									c-0.4,0.7-1.9-0.5-3.1-1.1c-1.2-0.6-1.6-0.2-1.2-1l0.3-0.5C80.4,83.1,80.8,82.8,82,83.3z"/>
								<path id="XMLID_8886_" opacity="0.1" fill="#272525" d="M85,80.8c-1-0.5-2.3-1.6-2.7-0.9l0.2-0.3c0.4-0.7,1.9,0.5,3.1,1.1
									c1.2,0.6,1.6,0.2,1.2,1l-1.6,2.8c-0.2,0.3-0.5,0.3-0.8,0.2l1.7-2.8C86.4,80.9,86,81.3,85,80.8z"/>
							</g>
						</g>
					</g>
					<g id="XMLID_8848_">
						<g id="XMLID_8866_">
							<g id="XMLID_8879_">
								<path id="XMLID_8882_" fill="#B26028" d="M98.1,83.4c1.2,0.6,1.6,0.2,1.2,1l-1.9,3.2c-0.4,0.7-1.9-0.5-3.1-1.1
									c-1.2-0.6-1.6-0.2-1.2-1l1.9-3.2C95.4,81.6,96.9,82.9,98.1,83.4z"/>
								<path id="XMLID_8881_" opacity="0.2" fill="#272525" d="M94.5,86.1c1.2,0.6,2.7,1.8,3.1,1.1l-0.3,0.5
									c-0.4,0.7-1.9-0.5-3.1-1.1c-1.2-0.6-1.6-0.2-1.2-1l0.3-0.5C92.9,85.9,93.4,85.6,94.5,86.1z"/>
								<path id="XMLID_8880_" opacity="0.1" fill="#272525" d="M97.5,83.6c-1-0.5-2.3-1.6-2.7-0.9l0.2-0.3c0.4-0.7,1.9,0.5,3.1,1.1
									c1.2,0.6,1.6,0.2,1.2,1l-1.6,2.8c-0.2,0.3-0.5,0.3-0.8,0.2l1.7-2.8C98.9,83.7,98.5,84.1,97.5,83.6z"/>
							</g>
							<g id="XMLID_8875_">
								<path id="XMLID_8878_" fill="#B26028" d="M94.6,81.4c1.2,0.6,1.6,0.2,1.2,1l-1.9,3.2c-0.4,0.7-1.9-0.5-3.1-1.1
									c-1.2-0.6-1.6-0.2-1.2-1l1.9-3.2C91.9,79.6,93.4,80.8,94.6,81.4z"/>
								<path id="XMLID_8877_" opacity="0.2" fill="#272525" d="M91,84.1c1.2,0.6,2.7,1.8,3.1,1.1l-0.3,0.5
									c-0.4,0.7-1.9-0.5-3.1-1.1c-1.2-0.6-1.6-0.2-1.2-1l0.3-0.5C89.4,83.9,89.9,83.5,91,84.1z"/>
								<path id="XMLID_8876_" opacity="0.1" fill="#272525" d="M94,81.6c-1-0.5-2.3-1.6-2.7-0.9l0.2-0.3c0.4-0.7,1.9,0.5,3.1,1.1
									c1.2,0.6,1.6,0.2,1.2,1l-1.6,2.8c-0.2,0.3-0.5,0.3-0.8,0.2l1.7-2.8C95.4,81.7,95,82,94,81.6z"/>
							</g>
							<g id="XMLID_8871_">
								<path id="XMLID_8874_" fill="#B26028" d="M91.1,79.4c1.2,0.6,1.6,0.2,1.2,1l-1.9,3.2c-0.4,0.7-1.9-0.5-3.1-1.1
									c-1.2-0.6-1.6-0.2-1.2-1l1.9-3.2C88.4,77.6,89.9,78.8,91.1,79.4z"/>
								<path id="XMLID_8873_" opacity="0.2" fill="#272525" d="M87.6,82c1.2,0.6,2.7,1.8,3.1,1.1l-0.3,0.5
									c-0.4,0.7-1.9-0.5-3.1-1.1c-1.2-0.6-1.6-0.2-1.2-1l0.3-0.5C85.9,81.8,86.4,81.5,87.6,82z"/>
								<path id="XMLID_8872_" opacity="0.1" fill="#272525" d="M90.5,79.5c-1-0.5-2.3-1.6-2.7-0.9l0.2-0.3c0.4-0.7,1.9,0.5,3.1,1.1
									c1.2,0.6,1.6,0.2,1.2,1l-1.6,2.8c-0.2,0.3-0.5,0.3-0.8,0.2l1.7-2.8C91.9,79.7,91.5,80,90.5,79.5z"/>
							</g>
							<g id="XMLID_8867_">
								<path id="XMLID_8870_" fill="#B26028" d="M87.6,77.3c1.2,0.6,1.6,0.2,1.2,1l-1.9,3.2c-0.4,0.7-1.9-0.5-3.1-1.1
									c-1.2-0.6-1.6-0.2-1.2-1l1.9-3.2C84.9,75.5,86.4,76.8,87.6,77.3z"/>
								<path id="XMLID_8869_" opacity="0.2" fill="#272525" d="M84.1,80c1.2,0.6,2.7,1.8,3.1,1.1l-0.3,0.5
									c-0.4,0.7-1.9-0.5-3.1-1.1c-1.2-0.6-1.6-0.2-1.2-1l0.3-0.5C82.4,79.8,82.9,79.4,84.1,80z"/>
								<path id="XMLID_8868_" opacity="0.1" fill="#272525" d="M87,77.5c-1-0.5-2.3-1.6-2.7-0.9l0.2-0.3c0.4-0.7,1.9,0.5,3.1,1.1
									c1.2,0.6,1.6,0.2,1.2,1l-1.6,2.8c-0.2,0.3-0.5,0.3-0.8,0.2l1.7-2.8C88.5,77.6,88,78,87,77.5z"/>
							</g>
						</g>
						<g id="XMLID_8849_">
							<g id="XMLID_8862_">
								<path id="XMLID_8865_" fill="#B26028" d="M100,80.1c1.2,0.6,1.6,0.2,1.2,1l-1.9,3.2c-0.4,0.7-1.9-0.5-3.1-1.1
									c-1.2-0.6-1.6-0.2-1.2-1l1.9-3.2C97.3,78.3,98.8,79.5,100,80.1z"/>
								<path id="XMLID_8864_" opacity="0.2" fill="#272525" d="M96.5,82.8c1.2,0.6,2.7,1.8,3.1,1.1l-0.3,0.5
									c-0.4,0.7-1.9-0.5-3.1-1.1c-1.2-0.6-1.6-0.2-1.2-1l0.3-0.5C94.8,82.6,95.3,82.2,96.5,82.8z"/>
								<path id="XMLID_8863_" opacity="0.1" fill="#272525" d="M99.4,80.3c-1-0.5-2.3-1.6-2.7-0.9l0.2-0.3c0.4-0.7,1.9,0.5,3.1,1.1
									c1.2,0.6,1.6,0.2,1.2,1l-1.6,2.8c-0.2,0.3-0.5,0.3-0.8,0.2l1.7-2.8C100.9,80.4,100.4,80.7,99.4,80.3z"/>
							</g>
							<g id="XMLID_8858_">
								<path id="XMLID_8861_" fill="#B26028" d="M96.5,78.1c1.2,0.6,1.6,0.2,1.2,1l-1.9,3.2c-0.4,0.7-1.9-0.5-3.1-1.1
									c-1.2-0.6-1.6-0.2-1.2-1l1.9-3.2C93.8,76.3,95.3,77.5,96.5,78.1z"/>
								<path id="XMLID_8860_" opacity="0.2" fill="#272525" d="M93,80.7c1.2,0.6,2.7,1.8,3.1,1.1l-0.3,0.5
									c-0.4,0.7-1.9-0.5-3.1-1.1c-1.2-0.6-1.6-0.2-1.2-1l0.3-0.5C91.3,80.5,91.8,80.2,93,80.7z"/>
								<path id="XMLID_8859_" opacity="0.1" fill="#272525" d="M95.9,78.2c-1-0.5-2.3-1.6-2.7-0.9l0.2-0.3c0.4-0.7,1.9,0.5,3.1,1.1
									c1.2,0.6,1.6,0.2,1.2,1l-1.6,2.8c-0.2,0.3-0.5,0.3-0.8,0.2l1.7-2.8C97.4,78.4,96.9,78.7,95.9,78.2z"/>
							</g>
							<g id="XMLID_8854_">
								<path id="XMLID_8857_" fill="#B26028" d="M93,76c1.2,0.6,1.6,0.2,1.2,1l-1.9,3.2c-0.4,0.7-1.9-0.5-3.1-1.1
									c-1.2-0.6-1.6-0.2-1.2-1l1.9-3.2C90.3,74.2,91.8,75.5,93,76z"/>
								<path id="XMLID_8856_" opacity="0.2" fill="#272525" d="M89.5,78.7c1.2,0.6,2.7,1.8,3.1,1.1l-0.3,0.5
									c-0.4,0.7-1.9-0.5-3.1-1.1c-1.2-0.6-1.6-0.2-1.2-1l0.3-0.5C87.8,78.5,88.3,78.1,89.5,78.7z"/>
								<path id="XMLID_8855_" opacity="0.1" fill="#272525" d="M92.4,76.2c-1-0.5-2.3-1.6-2.7-0.9l0.2-0.3c0.4-0.7,1.9,0.5,3.1,1.1
									c1.2,0.6,1.6,0.2,1.2,1l-1.6,2.8c-0.2,0.3-0.5,0.3-0.8,0.2l1.7-2.8C93.9,76.3,93.4,76.7,92.4,76.2z"/>
							</g>
							<g id="XMLID_8850_">
								<path id="XMLID_8853_" fill="#B26028" d="M89.5,74c1.2,0.6,1.6,0.2,1.2,1l-1.9,3.2c-0.4,0.7-1.9-0.5-3.1-1.1
									c-1.2-0.6-1.6-0.2-1.2-1l1.9-3.2C86.8,72.2,88.3,73.4,89.5,74z"/>
								<path id="XMLID_8852_" opacity="0.2" fill="#272525" d="M86,76.7c1.2,0.6,2.7,1.8,3.1,1.1l-0.3,0.5
									c-0.4,0.7-1.9-0.5-3.1-1.1c-1.2-0.6-1.6-0.2-1.2-1l0.3-0.5C84.3,76.4,84.8,76.1,86,76.7z"/>
								<path id="XMLID_8851_" opacity="0.1" fill="#272525" d="M88.9,74.1c-1-0.5-2.3-1.6-2.7-0.9l0.2-0.3c0.4-0.7,1.9,0.5,3.1,1.1
									c1.2,0.6,1.6,0.2,1.2,1l-1.6,2.8c-0.2,0.3-0.5,0.3-0.8,0.2l1.7-2.8C90.4,74.3,90,74.6,88.9,74.1z"/>
							</g>
						</g>
					</g>
					<g id="XMLID_8830_">
						<g id="XMLID_8831_">
							<g id="XMLID_8844_">
								<path id="XMLID_8847_" fill="#B26028" d="M102,76.8c1.2,0.6,1.6,0.2,1.2,1l-1.9,3.2c-0.4,0.7-1.9-0.5-3.1-1.1
									c-1.2-0.6-1.6-0.2-1.2-1l1.9-3.2C99.4,75,100.8,76.3,102,76.8z"/>
								<path id="XMLID_8846_" opacity="0.2" fill="#272525" d="M98.5,79.5c1.2,0.6,2.7,1.8,3.1,1.1l-0.3,0.5
									c-0.4,0.7-1.9-0.5-3.1-1.1c-1.2-0.6-1.6-0.2-1.2-1l0.3-0.5C96.9,79.3,97.3,78.9,98.5,79.5z"/>
								<path id="XMLID_8845_" opacity="0.1" fill="#272525" d="M101.4,77c-1-0.5-2.3-1.6-2.7-0.9l0.2-0.3c0.4-0.7,1.9,0.5,3.1,1.1
									c1.2,0.6,1.6,0.2,1.2,1l-1.6,2.8c-0.2,0.3-0.5,0.3-0.8,0.2l1.7-2.8C102.9,77.1,102.5,77.5,101.4,77z"/>
							</g>
							<g id="XMLID_8840_">
								<path id="XMLID_8843_" fill="#B26028" d="M98.5,74.8c1.2,0.6,1.6,0.2,1.2,1L97.8,79c-0.4,0.7-1.9-0.5-3.1-1.1
									c-1.2-0.6-1.6-0.2-1.2-1l1.9-3.2C95.9,73,97.3,74.2,98.5,74.8z"/>
								<path id="XMLID_8842_" opacity="0.2" fill="#272525" d="M95,77.5c1.2,0.6,2.7,1.8,3.1,1.1L97.8,79c-0.4,0.7-1.9-0.5-3.1-1.1
									c-1.2-0.6-1.6-0.2-1.2-1l0.3-0.5C93.4,77.2,93.8,76.9,95,77.5z"/>
								<path id="XMLID_8841_" opacity="0.1" fill="#272525" d="M97.9,74.9c-1-0.5-2.3-1.6-2.7-0.9l0.2-0.3c0.4-0.7,1.9,0.5,3.1,1.1
									c1.2,0.6,1.6,0.2,1.2,1l-1.6,2.8c-0.2,0.3-0.5,0.3-0.8,0.2l1.7-2.8C99.4,75.1,99,75.4,97.9,74.9z"/>
							</g>
							<g id="XMLID_8836_">
								<path id="XMLID_8839_" fill="#B26028" d="M95,72.7c1.2,0.6,1.6,0.2,1.2,1l-1.9,3.2c-0.4,0.7-1.9-0.5-3.1-1.1
									c-1.2-0.6-1.6-0.2-1.2-1l1.9-3.2C92.4,70.9,93.8,72.2,95,72.7z"/>
								<path id="XMLID_8838_" opacity="0.2" fill="#272525" d="M91.5,75.4c1.2,0.6,2.7,1.8,3.1,1.1l-0.3,0.5
									c-0.4,0.7-1.9-0.5-3.1-1.1c-1.2-0.6-1.6-0.2-1.2-1l0.3-0.5C89.9,75.2,90.3,74.9,91.5,75.4z"/>
								<path id="XMLID_8837_" opacity="0.1" fill="#272525" d="M94.4,72.9c-1-0.5-2.3-1.6-2.7-0.9l0.2-0.3c0.4-0.7,1.9,0.5,3.1,1.1
									s1.6,0.2,1.2,1l-1.6,2.8c-0.2,0.3-0.5,0.3-0.8,0.2l1.7-2.8C95.9,73,95.5,73.4,94.4,72.9z"/>
							</g>
							<g id="XMLID_8832_">
								<path id="XMLID_8835_" fill="#B26028" d="M91.5,70.7c1.2,0.6,1.6,0.2,1.2,1l-1.9,3.2c-0.4,0.7-1.9-0.5-3.1-1.1
									c-1.2-0.6-1.6-0.2-1.2-1l1.9-3.2C88.9,68.9,90.3,70.1,91.5,70.7z"/>
								<path id="XMLID_8834_" opacity="0.2" fill="#272525" d="M88,73.4c1.2,0.6,2.7,1.8,3.1,1.1l-0.3,0.5
									c-0.4,0.7-1.9-0.5-3.1-1.1c-1.2-0.6-1.6-0.2-1.2-1l0.3-0.5C86.4,73.2,86.8,72.8,88,73.4z"/>
								<path id="XMLID_8833_" opacity="0.1" fill="#272525" d="M90.9,70.9c-1-0.5-2.3-1.6-2.7-0.9l0.2-0.3c0.4-0.7,1.9,0.5,3.1,1.1
									c1.2,0.6,1.6,0.2,1.2,1l-1.6,2.8c-0.2,0.3-0.5,0.3-0.8,0.2l1.7-2.8C92.4,71,92,71.3,90.9,70.9z"/>
							</g>
						</g>
					</g>
				</g>
			</g>
		</g>
		<g id="XMLID_8733_">
			<g id="XMLID_8735_">
				<g id="XMLID_8737_">
					<g id="XMLID_8739_">
						<defs>
							<polygon id="XMLID_8740_" points="89.7,81.6 89.7,81.6 89.7,81.6 84.6,78.6 84.6,87 89.7,89.9 94.8,81.1 94.8,78.6 							
								"/>
						</defs>
						<clipPath id="XMLID_7_">
							<use xlink:href="#XMLID_8740_"  overflow="visible"/>
						</clipPath>
						<g id="XMLID_8741_" clip-path="url(#XMLID_7_)">
							<g id="XMLID_8784_">
								<g id="XMLID_8787_">
									<polygon id="XMLID_8826_" fill="#C8C8C8" points="79.5,84 89.7,89.8 89.7,78.1 79.5,72.2 									"/>
									<g id="XMLID_8788_" opacity="0.3">
										<path id="XMLID_8812_" fill="#FFFFFF" d="M82.4,83.7l0,1.4l-2.9-1.7V82L82.4,83.7z M82.9,85.4v-1.4l2.9,1.7l0,1.4
											L82.9,85.4z M85.8,81.7l0,1.4l-2.9-1.7V80L85.8,81.7z M84.6,80.5v-1.4l2.9,1.7l0,1.4L84.6,80.5z M84.1,80.2l-2.9-1.7v-1.4
											l2.9,1.7L84.1,80.2z M84.1,82.7l0,1.4l-2.9-1.7V81L84.1,82.7z M87.5,84.7l0,1.4l-2.9-1.7V83L87.5,84.7z M82.4,79.8l0,1.4
											l-2.9-1.7v-1.4L82.4,79.8z M82.4,75.9l0,1.4l-2.9-1.7v-1.4L82.4,75.9z M85.8,77.8l0,1.4l-2.9-1.7v-1.4L85.8,77.8z
											 M86.3,79.5v-1.4l2.9,1.7l0,1.4L86.3,79.5z M86.3,83.4V82l2.9,1.7l0,1.4L86.3,83.4z M86.3,87.3v-1.4l2.9,1.7l0,1.4
											L86.3,87.3z"/>
										<polygon id="XMLID_8811_" points="81.2,73.2 82,73.7 81.2,73.2 										"/>
										<polygon id="XMLID_8810_" points="84.6,75.2 84.6,75.2 84.6,75.2 										"/>
										<polygon id="XMLID_8809_" points="80.7,72.9 80.7,74.3 79.5,73.6 79.5,72.2 										"/>
										<polygon id="XMLID_8808_" points="84.1,76.3 81.2,74.6 81.2,73.2 82,73.7 84.1,74.9 										"/>
										<polygon id="XMLID_8807_" points="87.5,78.3 84.6,76.6 84.6,75.2 84.6,75.2 87.5,76.8 										"/>
										<polygon id="XMLID_8806_" points="88,78.5 88,77.1 89.7,78.1 89.7,79.5 										"/>
										<polygon id="XMLID_8805_" points="88,86.4 88,84.9 89.7,85.9 89.7,87.3 										"/>
										<polygon id="XMLID_8804_" points="88,82.4 88,81 89.7,82 89.7,83.4 										"/>
										<polygon id="XMLID_8803_" points="86.3,82 89.2,83.7 89.2,85.1 86.3,83.4 										"/>
										<polygon id="XMLID_8802_" points="86.3,85.9 89.2,87.6 89.2,89 86.3,87.3 										"/>
										<polygon id="XMLID_8801_" points="82.9,77.6 82.9,76.1 85.8,77.8 85.8,79.2 										"/>
										<polygon id="XMLID_8800_" points="86.3,78.1 89.2,79.8 89.2,81.2 86.3,79.5 										"/>
										<polygon id="XMLID_8799_" points="79.5,75.6 79.5,74.2 82.4,75.9 82.4,77.3 										"/>
										<polygon id="XMLID_8798_" points="87.5,80.7 87.5,82.2 84.6,80.5 84.6,79.1 										"/>
										<polygon id="XMLID_8797_" points="82.9,81.5 82.9,80 85.8,81.7 85.8,83.1 										"/>
										<polygon id="XMLID_8796_" points="82.9,83.9 85.8,85.6 85.8,87 82.9,85.4 										"/>
										<polygon id="XMLID_8795_" points="87.5,86.1 84.6,84.4 84.6,83 87.5,84.7 										"/>
										<polygon id="XMLID_8794_" points="80.7,82.2 79.5,81.5 79.5,80 80.7,80.8 										"/>
										<polygon id="XMLID_8793_" points="82.4,85.1 79.5,83.4 79.5,82 82.4,83.7 										"/>
										<polygon id="XMLID_8792_" points="80.7,78.3 79.5,77.6 79.5,76.1 80.7,76.8 										"/>
										<polygon id="XMLID_8791_" points="82.4,81.2 79.5,79.5 79.5,78.1 82.4,79.8 										"/>
										<polygon id="XMLID_8790_" points="84.1,84.1 81.2,82.5 81.2,81 84.1,82.7 										"/>
										<polygon id="XMLID_8789_" points="81.2,77.1 84.1,78.8 84.1,80.2 81.2,78.5 										"/>
									</g>
								</g>
								<line id="XMLID_8786_" fill="#C8C8C8" x1="79.5" y1="72.2" x2="89.7" y2="78.1"/>
								<polygon id="XMLID_8785_" opacity="0.5" fill="#E08F58" points="79.5,84 89.7,89.8 89.7,78.1 79.5,72.2 								"/>
							</g>
							<g id="XMLID_8742_">
								<g id="XMLID_8744_">
									<polygon id="XMLID_8783_" fill="#C8C8C8" points="99.8,84 89.7,89.8 89.7,78.1 99.8,72.2 									"/>
									<g id="XMLID_8745_" opacity="0.3">
										<path id="XMLID_8769_" fill="#FFFFFF" d="M99.8,82v1.4l-2.9,1.7l0-1.4L99.8,82z M93.6,87l0-1.4l2.9-1.7v1.4L93.6,87z
											 M96.5,80v1.4l-2.9,1.7l0-1.4L96.5,80z M91.9,82.2l0-1.4l2.9-1.7v1.4L91.9,82.2z M95.2,78.8l2.9-1.7v1.4l-2.9,1.7V78.8z
											 M98.2,81v1.4l-2.9,1.7v-1.4L98.2,81z M94.8,83v1.4l-2.9,1.7l0-1.4L94.8,83z M99.8,78.1v1.4l-2.9,1.7l0-1.4L99.8,78.1z
											 M99.8,74.2v1.4l-2.9,1.7l0-1.4L99.8,74.2z M96.5,76.1v1.4l-2.9,1.7l0-1.4L96.5,76.1z M90.2,81.2l0-1.4l2.9-1.7v1.4
											L90.2,81.2z M90.2,85.1l0-1.4l2.9-1.7v1.4L90.2,85.1z M90.2,89l0-1.4l2.9-1.7v1.4L90.2,89z"/>
										<polygon id="XMLID_8768_" points="98.2,73.2 97.4,73.7 98.2,73.2 										"/>
										<polygon id="XMLID_8767_" points="94.8,75.2 94.7,75.2 94.8,75.2 										"/>
										<polygon id="XMLID_8766_" points="98.6,72.9 98.6,74.3 99.8,73.6 99.8,72.2 										"/>
										<polygon id="XMLID_8765_" points="95.2,76.3 98.2,74.6 98.2,73.2 97.4,73.7 95.2,74.9 										"/>
										<polygon id="XMLID_8764_" points="91.9,78.3 94.8,76.6 94.8,75.2 94.7,75.2 91.9,76.8 										"/>
										<polygon id="XMLID_8763_" points="91.4,78.5 91.4,77.1 89.7,78.1 89.7,79.5 										"/>
										<polygon id="XMLID_8762_" points="91.4,86.4 91.4,84.9 89.7,85.9 89.7,87.3 										"/>
										<polygon id="XMLID_8761_" points="91.4,82.4 91.4,81 89.7,82 89.7,83.4 										"/>
										<polygon id="XMLID_8760_" points="93.1,82 90.2,83.7 90.2,85.1 93.1,83.4 										"/>
										<polygon id="XMLID_8759_" points="93.1,85.9 90.2,87.6 90.2,89 93.1,87.3 										"/>
										<polygon id="XMLID_8758_" points="96.5,77.6 96.5,76.1 93.5,77.8 93.6,79.2 										"/>
										<polygon id="XMLID_8757_" points="93.1,78.1 90.2,79.8 90.2,81.2 93.1,79.5 										"/>
										<polygon id="XMLID_8756_" points="99.8,75.6 99.8,74.2 96.9,75.9 96.9,77.3 										"/>
										<polygon id="XMLID_8755_" points="91.9,80.7 91.9,82.2 94.8,80.5 94.8,79.1 										"/>
										<polygon id="XMLID_8754_" points="96.5,81.5 96.5,80 93.5,81.7 93.6,83.1 										"/>
										<polygon id="XMLID_8753_" points="96.5,83.9 93.5,85.6 93.6,87 96.5,85.4 										"/>
										<polygon id="XMLID_8752_" points="91.9,86.1 94.8,84.4 94.8,83 91.9,84.7 										"/>
										<polygon id="XMLID_8751_" points="98.6,82.2 99.9,81.5 99.9,80 98.6,80.8 										"/>
										<polygon id="XMLID_8750_" points="96.9,85.1 99.8,83.4 99.8,82 96.9,83.7 										"/>
										<polygon id="XMLID_8749_" points="98.6,78.3 99.9,77.6 99.9,76.1 98.6,76.8 										"/>
										<polygon id="XMLID_8748_" points="96.9,81.2 99.8,79.5 99.8,78.1 96.9,79.8 										"/>
										<polygon id="XMLID_8747_" points="95.2,84.1 98.2,82.5 98.2,81 95.2,82.7 										"/>
										<polygon id="XMLID_8746_" points="98.2,77.1 95.2,78.8 95.2,80.2 98.2,78.5 										"/>
									</g>
								</g>
								<polygon id="XMLID_8743_" opacity="0.5" fill="#93430C" points="99.8,84 89.7,89.8 89.7,78.1 99.8,72.2 								"/>
							</g>
						</g>
					</g>
					<polygon id="XMLID_8738_" fill="#FFCFAE" points="94.8,78.6 89.7,75.7 84.6,78.6 84.6,78.6 84.6,78.6 89.7,81.6 94.8,78.6 
						94.8,78.6 					"/>
				</g>
				<polygon id="XMLID_8736_" opacity="0.8" points="93,78.6 89.7,76.7 86.4,78.6 86.4,78.6 86.4,78.6 89.7,80.5 93,78.6 93,78.6 
									"/>
			</g>
			<polygon id="XMLID_8734_" opacity="0.2" fill="#272525" points="89.7,89.8 84.6,86.9 85.2,90.9 90.4,93.9 95.4,85.3 94.8,81.1 
							"/>
		</g>
	</g>
	<g id="XMLID_6232_">
		<polygon id="XMLID_8731_" fill="none" points="89.1,72.7 89.1,69.5 76.3,62.1 60.8,88.8 75,97 		"/>
		<g id="XMLID_6233_">
			<g id="XMLID_8664_">
				<g id="XMLID_8727_">
					<path id="XMLID_8730_" fill="#B26028" d="M74.2,91.9c1.2,0.6,1.6,0.2,1.2,1l-1.9,3.2c-0.4,0.7-1.9-0.5-3.1-1.1
						c-1.2-0.6-1.6-0.2-1.2-1l1.9-3.2C71.5,90.1,73,91.4,74.2,91.9z"/>
					<path id="XMLID_8729_" opacity="0.2" fill="#272525" d="M70.7,94.6c1.2,0.6,2.7,1.8,3.1,1.1l-0.3,0.5c-0.4,0.7-1.9-0.5-3.1-1.1
						c-1.2-0.6-1.6-0.2-1.2-1l0.3-0.5C69,94.4,69.5,94,70.7,94.6z"/>
					<path id="XMLID_8728_" opacity="0.1" fill="#272525" d="M73.6,92.1c-1-0.5-2.3-1.6-2.7-0.9l0.2-0.3c0.4-0.7,1.9,0.5,3.1,1.1
						c1.2,0.6,1.6,0.2,1.2,1l-1.6,2.8c-0.2,0.3-0.5,0.3-0.8,0.2l1.7-2.8C75.1,92.2,74.7,92.6,73.6,92.1z"/>
				</g>
				<g id="XMLID_8722_">
					<path id="XMLID_8725_" fill="#B26028" d="M70.7,89.9c1.2,0.6,1.6,0.2,1.2,1L70,94.1c-0.4,0.7-1.9-0.5-3.1-1.1
						c-1.2-0.6-1.6-0.2-1.2-1l1.9-3.2C68,88.1,69.5,89.3,70.7,89.9z"/>
					<path id="XMLID_8724_" opacity="0.2" fill="#272525" d="M67.2,92.6c1.2,0.6,2.7,1.8,3.1,1.1L70,94.1c-0.4,0.7-1.9-0.5-3.1-1.1
						c-1.2-0.6-1.6-0.2-1.2-1l0.3-0.5C65.5,92.3,66,92,67.2,92.6z"/>
					<path id="XMLID_8723_" opacity="0.1" fill="#272525" d="M70.1,90c-1-0.5-2.3-1.6-2.7-0.9l0.2-0.3c0.4-0.7,1.9,0.5,3.1,1.1
						c1.2,0.6,1.6,0.2,1.2,1l-1.6,2.8c-0.2,0.3-0.5,0.3-0.8,0.2l1.7-2.8C71.6,90.2,71.2,90.5,70.1,90z"/>
				</g>
				<g id="XMLID_8716_">
					<path id="XMLID_8720_" fill="#B26028" d="M67.2,87.8c1.2,0.6,1.6,0.2,1.2,1L66.5,92c-0.4,0.7-1.9-0.5-3.1-1.1
						c-1.2-0.6-1.6-0.2-1.2-1l1.9-3.2C64.5,86,66,87.3,67.2,87.8z"/>
					<path id="XMLID_8719_" opacity="0.2" fill="#272525" d="M63.7,90.5c1.2,0.6,2.7,1.8,3.1,1.1L66.5,92c-0.4,0.7-1.9-0.5-3.1-1.1
						c-1.2-0.6-1.6-0.2-1.2-1l0.3-0.5C62,90.3,62.5,90,63.7,90.5z"/>
					<path id="XMLID_8718_" opacity="0.1" fill="#272525" d="M66.6,88c-1-0.5-2.3-1.6-2.7-0.9l0.2-0.3c0.4-0.7,1.9,0.5,3.1,1.1
						c1.2,0.6,1.6,0.2,1.2,1l-1.6,2.8c-0.2,0.3-0.5,0.3-0.8,0.2l1.7-2.8C68.1,88.1,67.7,88.5,66.6,88z"/>
				</g>
				<g id="XMLID_8665_">
					<path id="XMLID_8714_" fill="#B26028" d="M63.7,85.8c1.2,0.6,1.6,0.2,1.2,1L63,90c-0.4,0.7-1.9-0.5-3.1-1.1
						c-1.2-0.6-1.6-0.2-1.2-1l1.9-3.2C61,84,62.5,85.2,63.7,85.8z"/>
					<path id="XMLID_8713_" opacity="0.2" fill="#272525" d="M60.2,88.5c1.2,0.6,2.7,1.8,3.1,1.1L63,90c-0.4,0.7-1.9-0.5-3.1-1.1
						c-1.2-0.6-1.6-0.2-1.2-1l0.3-0.5C58.5,88.3,59,87.9,60.2,88.5z"/>
					<path id="XMLID_8712_" opacity="0.1" fill="#272525" d="M63.1,86c-1-0.5-2.3-1.6-2.7-0.9l0.2-0.3c0.4-0.7,1.9,0.5,3.1,1.1
						c1.2,0.6,1.6,0.2,1.2,1l-1.6,2.8c-0.2,0.3-0.5,0.3-0.8,0.2l1.7-2.8C64.6,86.1,64.2,86.4,63.1,86z"/>
				</g>
			</g>
			<g id="XMLID_8628_">
				<g id="XMLID_8641_">
					<path id="XMLID_8660_" fill="#B26028" d="M76.1,88.6c1.2,0.6,1.6,0.2,1.2,1l-1.9,3.2c-0.4,0.7-1.9-0.5-3.1-1.1
						c-1.2-0.6-1.6-0.2-1.2-1l1.9-3.2C73.5,86.8,74.9,88,76.1,88.6z"/>
					<path id="XMLID_8659_" opacity="0.2" fill="#272525" d="M72.6,91.3c1.2,0.6,2.7,1.8,3.1,1.1l-0.3,0.5c-0.4,0.7-1.9-0.5-3.1-1.1
						c-1.2-0.6-1.6-0.2-1.2-1l0.3-0.5C71,91,71.4,90.7,72.6,91.3z"/>
					<path id="XMLID_8642_" opacity="0.1" fill="#272525" d="M75.5,88.7c-1-0.5-2.3-1.6-2.7-0.9l0.2-0.3c0.4-0.7,1.9,0.5,3.1,1.1
						c1.2,0.6,1.6,0.2,1.2,1l-1.6,2.8c-0.2,0.3-0.5,0.3-0.8,0.2l1.7-2.8C77,88.9,76.6,89.2,75.5,88.7z"/>
				</g>
				<g id="XMLID_8637_">
					<path id="XMLID_8640_" fill="#B26028" d="M72.6,86.5c1.2,0.6,1.6,0.2,1.2,1l-1.9,3.2c-0.4,0.7-1.9-0.5-3.1-1.1s-1.6-0.2-1.2-1
						l1.9-3.2C70,84.7,71.4,86,72.6,86.5z"/>
					<path id="XMLID_8639_" opacity="0.2" fill="#272525" d="M69.1,89.2c1.2,0.6,2.7,1.8,3.1,1.1l-0.3,0.5c-0.4,0.7-1.9-0.5-3.1-1.1
						s-1.6-0.2-1.2-1l0.3-0.5C67.5,89,67.9,88.7,69.1,89.2z"/>
					<path id="XMLID_8638_" opacity="0.1" fill="#272525" d="M72,86.7c-1-0.5-2.3-1.6-2.7-0.9l0.2-0.3c0.4-0.7,1.9,0.5,3.1,1.1
						s1.6,0.2,1.2,1l-1.6,2.8c-0.2,0.3-0.5,0.3-0.8,0.2l1.7-2.8C73.5,86.8,73.1,87.2,72,86.7z"/>
				</g>
				<g id="XMLID_8633_">
					<path id="XMLID_8636_" fill="#B26028" d="M69.1,84.5c1.2,0.6,1.6,0.2,1.2,1l-1.9,3.2c-0.4,0.7-1.9-0.5-3.1-1.1s-1.6-0.2-1.2-1
						l1.9-3.2C66.5,82.7,67.9,83.9,69.1,84.5z"/>
					<path id="XMLID_8635_" opacity="0.2" fill="#272525" d="M65.6,87.2c1.2,0.6,2.7,1.8,3.1,1.1l-0.3,0.5c-0.4,0.7-1.9-0.5-3.1-1.1
						s-1.6-0.2-1.2-1l0.3-0.5C64,86.9,64.4,86.6,65.6,87.2z"/>
					<path id="XMLID_8634_" opacity="0.1" fill="#272525" d="M68.5,84.7c-1-0.5-2.3-1.6-2.7-0.9l0.2-0.3c0.4-0.7,1.9,0.5,3.1,1.1
						c1.2,0.6,1.6,0.2,1.2,1l-1.6,2.8c-0.2,0.3-0.5,0.3-0.8,0.2l1.7-2.8C70,84.8,69.6,85.1,68.5,84.7z"/>
				</g>
				<g id="XMLID_8629_">
					<path id="XMLID_8632_" fill="#B26028" d="M65.6,82.5c1.2,0.6,1.6,0.2,1.2,1l-1.9,3.2c-0.4,0.7-1.9-0.5-3.1-1.1
						c-1.2-0.6-1.6-0.2-1.2-1l1.9-3.2C63,80.7,64.5,81.9,65.6,82.5z"/>
					<path id="XMLID_8631_" opacity="0.2" fill="#272525" d="M62.1,85.1c1.2,0.6,2.7,1.8,3.1,1.1l-0.3,0.5c-0.4,0.7-1.9-0.5-3.1-1.1
						c-1.2-0.6-1.6-0.2-1.2-1l0.3-0.5C60.5,84.9,60.9,84.6,62.1,85.1z"/>
					<path id="XMLID_8630_" opacity="0.1" fill="#272525" d="M65.1,82.6c-1-0.5-2.3-1.6-2.7-0.9l0.2-0.3c0.4-0.7,1.9,0.5,3.1,1.1
						c1.2,0.6,1.6,0.2,1.2,1l-1.6,2.8c-0.2,0.3-0.5,0.3-0.8,0.2l1.7-2.8C66.5,82.8,66.1,83.1,65.1,82.6z"/>
				</g>
			</g>
			<g id="XMLID_8395_">
				<g id="XMLID_8605_">
					<g id="XMLID_8624_">
						<path id="XMLID_8627_" fill="#B26028" d="M78.1,85.2c1.2,0.6,1.6,0.2,1.2,1l-1.9,3.2c-0.4,0.7-1.9-0.5-3.1-1.1
							c-1.2-0.6-1.6-0.2-1.2-1l1.9-3.2C75.4,83.4,76.9,84.7,78.1,85.2z"/>
						<path id="XMLID_8626_" opacity="0.2" fill="#272525" d="M74.5,87.9c1.2,0.6,2.7,1.8,3.1,1.1l-0.3,0.5
							c-0.4,0.7-1.9-0.5-3.1-1.1c-1.2-0.6-1.6-0.2-1.2-1l0.3-0.5C72.9,87.7,73.3,87.3,74.5,87.9z"/>
						<path id="XMLID_8625_" opacity="0.1" fill="#272525" d="M77.5,85.4c-1-0.5-2.3-1.6-2.7-0.9l0.2-0.3c0.4-0.7,1.9,0.5,3.1,1.1
							c1.2,0.6,1.6,0.2,1.2,1L77.6,89c-0.2,0.3-0.5,0.3-0.8,0.2l1.7-2.8C78.9,85.5,78.5,85.9,77.5,85.4z"/>
					</g>
					<g id="XMLID_8620_">
						<path id="XMLID_8623_" fill="#B26028" d="M74.6,83.2c1.2,0.6,1.6,0.2,1.2,1l-1.9,3.2c-0.4,0.7-1.9-0.5-3.1-1.1s-1.6-0.2-1.2-1
							l1.9-3.2C71.9,81.4,73.4,82.6,74.6,83.2z"/>
						<path id="XMLID_8622_" opacity="0.2" fill="#272525" d="M71,85.9c1.2,0.6,2.7,1.8,3.1,1.1l-0.3,0.5c-0.4,0.7-1.9-0.5-3.1-1.1
							s-1.6-0.2-1.2-1l0.3-0.5C69.4,85.6,69.8,85.3,71,85.9z"/>
						<path id="XMLID_8621_" opacity="0.1" fill="#272525" d="M74,83.3c-1-0.5-2.3-1.6-2.7-0.9l0.2-0.3c0.4-0.7,1.9,0.5,3.1,1.1
							s1.6,0.2,1.2,1l-1.6,2.8c-0.2,0.3-0.5,0.3-0.8,0.2l1.7-2.8C75.4,83.5,75,83.8,74,83.3z"/>
					</g>
					<g id="XMLID_8616_">
						<path id="XMLID_8619_" fill="#B26028" d="M71.1,81.2c1.2,0.6,1.6,0.2,1.2,1l-1.9,3.2c-0.4,0.7-1.9-0.5-3.1-1.1s-1.6-0.2-1.2-1
							l1.9-3.2C68.4,79.3,69.9,80.6,71.1,81.2z"/>
						<path id="XMLID_8618_" opacity="0.2" fill="#272525" d="M67.5,83.8c1.2,0.6,2.7,1.8,3.1,1.1l-0.3,0.5
							c-0.4,0.7-1.9-0.5-3.1-1.1s-1.6-0.2-1.2-1l0.3-0.5C65.9,83.6,66.3,83.3,67.5,83.8z"/>
						<path id="XMLID_8617_" opacity="0.1" fill="#272525" d="M70.5,81.3c-1-0.5-2.3-1.6-2.7-0.9l0.2-0.3c0.4-0.7,1.9,0.5,3.1,1.1
							s1.6,0.2,1.2,1l-1.6,2.8c-0.2,0.3-0.5,0.3-0.8,0.2l1.7-2.8C71.9,81.4,71.5,81.8,70.5,81.3z"/>
					</g>
					<g id="XMLID_8608_">
						<path id="XMLID_8614_" fill="#B26028" d="M67.6,79.1c1.2,0.6,1.6,0.2,1.2,1l-1.9,3.2c-0.4,0.7-1.9-0.5-3.1-1.1
							c-1.2-0.6-1.6-0.2-1.2-1l1.9-3.2C64.9,77.3,66.4,78.6,67.6,79.1z"/>
						<path id="XMLID_8612_" opacity="0.2" fill="#272525" d="M64,81.8c1.2,0.6,2.7,1.8,3.1,1.1l-0.3,0.5c-0.4,0.7-1.9-0.5-3.1-1.1
							c-1.2-0.6-1.6-0.2-1.2-1l0.3-0.5C62.4,81.6,62.8,81.2,64,81.8z"/>
						<path id="XMLID_8610_" opacity="0.1" fill="#272525" d="M67,79.3c-1-0.5-2.3-1.6-2.7-0.9l0.2-0.3c0.4-0.7,1.9,0.5,3.1,1.1
							c1.2,0.6,1.6,0.2,1.2,1l-1.6,2.8c-0.2,0.3-0.5,0.3-0.8,0.2l1.7-2.8C68.4,79.4,68,79.8,67,79.3z"/>
					</g>
				</g>
				<g id="XMLID_8416_">
					<g id="XMLID_8595_">
						<path id="XMLID_8599_" fill="#B26028" d="M80,81.9c1.2,0.6,1.6,0.2,1.2,1l-1.9,3.2c-0.4,0.7-1.9-0.5-3.1-1.1
							c-1.2-0.6-1.6-0.2-1.2-1l1.9-3.2C77.3,80.1,78.8,81.3,80,81.9z"/>
						<path id="XMLID_8597_" opacity="0.2" fill="#272525" d="M76.4,84.6c1.2,0.6,2.7,1.8,3.1,1.1l-0.3,0.5
							c-0.4,0.7-1.9-0.5-3.1-1.1c-1.2-0.6-1.6-0.2-1.2-1l0.3-0.5C74.8,84.3,75.2,84,76.4,84.6z"/>
						<path id="XMLID_8596_" opacity="0.1" fill="#272525" d="M79.4,82c-1-0.5-2.3-1.6-2.7-0.9l0.2-0.3c0.4-0.7,1.9,0.5,3.1,1.1
							c1.2,0.6,1.6,0.2,1.2,1l-1.6,2.8c-0.2,0.3-0.5,0.3-0.8,0.2l1.7-2.8C80.8,82.2,80.4,82.5,79.4,82z"/>
					</g>
					<g id="XMLID_8591_">
						<path id="XMLID_8594_" fill="#B26028" d="M76.5,79.8c1.2,0.6,1.6,0.2,1.2,1L75.8,84c-0.4,0.7-1.9-0.5-3.1-1.1s-1.6-0.2-1.2-1
							l1.9-3.2C73.8,78,75.3,79.3,76.5,79.8z"/>
						<path id="XMLID_8593_" opacity="0.2" fill="#272525" d="M72.9,82.5c1.2,0.6,2.7,1.8,3.1,1.1L75.8,84c-0.4,0.7-1.9-0.5-3.1-1.1
							s-1.6-0.2-1.2-1l0.3-0.5C71.3,82.3,71.8,82,72.9,82.5z"/>
						<path id="XMLID_8592_" opacity="0.1" fill="#272525" d="M75.9,80c-1-0.5-2.3-1.6-2.7-0.9l0.2-0.3c0.4-0.7,1.9,0.5,3.1,1.1
							c1.2,0.6,1.6,0.2,1.2,1l-1.6,2.8c-0.2,0.3-0.5,0.3-0.8,0.2l1.7-2.8C77.3,80.1,76.9,80.5,75.9,80z"/>
					</g>
					<g id="XMLID_8587_">
						<path id="XMLID_8590_" fill="#B26028" d="M73,77.8c1.2,0.6,1.6,0.2,1.2,1L72.3,82c-0.4,0.7-1.9-0.5-3.1-1.1s-1.6-0.2-1.2-1
							l1.9-3.2C70.3,76,71.8,77.2,73,77.8z"/>
						<path id="XMLID_8589_" opacity="0.2" fill="#272525" d="M69.4,80.5c1.2,0.6,2.7,1.8,3.1,1.1L72.3,82c-0.4,0.7-1.9-0.5-3.1-1.1
							s-1.6-0.2-1.2-1l0.3-0.5C67.8,80.3,68.3,79.9,69.4,80.5z"/>
						<path id="XMLID_8588_" opacity="0.1" fill="#272525" d="M72.4,78c-1-0.5-2.3-1.6-2.7-0.9l0.2-0.3c0.4-0.7,1.9,0.5,3.1,1.1
							s1.6,0.2,1.2,1l-1.6,2.8c-0.2,0.3-0.5,0.3-0.8,0.2l1.7-2.8C73.8,78.1,73.4,78.4,72.4,78z"/>
					</g>
					<g id="XMLID_8583_">
						<path id="XMLID_8586_" fill="#B26028" d="M69.5,75.8c1.2,0.6,1.6,0.2,1.2,1L68.8,80c-0.4,0.7-1.9-0.5-3.1-1.1
							c-1.2-0.6-1.6-0.2-1.2-1l1.9-3.2C66.8,74,68.3,75.2,69.5,75.8z"/>
						<path id="XMLID_8585_" opacity="0.2" fill="#272525" d="M66,78.4c1.2,0.6,2.7,1.8,3.1,1.1L68.8,80c-0.4,0.7-1.9-0.5-3.1-1.1
							c-1.2-0.6-1.6-0.2-1.2-1l0.3-0.5C64.3,78.2,64.8,77.9,66,78.4z"/>
						<path id="XMLID_8584_" opacity="0.1" fill="#272525" d="M68.9,75.9c-1-0.5-2.3-1.6-2.7-0.9l0.2-0.3c0.4-0.7,1.9,0.5,3.1,1.1
							c1.2,0.6,1.6,0.2,1.2,1l-1.6,2.8c-0.2,0.3-0.5,0.3-0.8,0.2l1.7-2.8C70.3,76.1,69.9,76.4,68.9,75.9z"/>
					</g>
				</g>
				<g id="XMLID_8397_">
					<g id="XMLID_8412_">
						<path id="XMLID_8415_" fill="#B26028" d="M81.9,78.5c1.2,0.6,1.6,0.2,1.2,1l-1.9,3.2c-0.4,0.7-1.9-0.5-3.1-1.1
							c-1.2-0.6-1.6-0.2-1.2-1l1.9-3.2C79.2,76.7,80.7,78,81.9,78.5z"/>
						<path id="XMLID_8414_" opacity="0.2" fill="#272525" d="M78.4,81.2c1.2,0.6,2.7,1.8,3.1,1.1l-0.3,0.5
							c-0.4,0.7-1.9-0.5-3.1-1.1c-1.2-0.6-1.6-0.2-1.2-1l0.3-0.5C76.7,81,77.2,80.7,78.4,81.2z"/>
						<path id="XMLID_8413_" opacity="0.1" fill="#272525" d="M81.3,78.7c-1-0.5-2.3-1.6-2.7-0.9l0.2-0.3c0.4-0.7,1.9,0.5,3.1,1.1
							c1.2,0.6,1.6,0.2,1.2,1l-1.6,2.8c-0.2,0.3-0.5,0.3-0.8,0.2l1.7-2.8C82.8,78.8,82.3,79.2,81.3,78.7z"/>
					</g>
					<g id="XMLID_8408_">
						<path id="XMLID_8411_" fill="#B26028" d="M78.4,76.5c1.2,0.6,1.6,0.2,1.2,1l-1.9,3.2c-0.4,0.7-1.9-0.5-3.1-1.1
							c-1.2-0.6-1.6-0.2-1.2-1l1.9-3.2C75.7,74.7,77.2,75.9,78.4,76.5z"/>
						<path id="XMLID_8410_" opacity="0.2" fill="#272525" d="M74.9,79.2c1.2,0.6,2.7,1.8,3.1,1.1l-0.3,0.5
							c-0.4,0.7-1.9-0.5-3.1-1.1c-1.2-0.6-1.6-0.2-1.2-1l0.3-0.5C73.2,79,73.7,78.6,74.9,79.2z"/>
						<path id="XMLID_8409_" opacity="0.1" fill="#272525" d="M77.8,76.7c-1-0.5-2.3-1.6-2.7-0.9l0.2-0.3c0.4-0.7,1.9,0.5,3.1,1.1
							c1.2,0.6,1.6,0.2,1.2,1L78,80.2c-0.2,0.3-0.5,0.3-0.8,0.2l1.7-2.8C79.3,76.8,78.8,77.1,77.8,76.7z"/>
					</g>
					<g id="XMLID_8404_">
						<path id="XMLID_8407_" fill="#B26028" d="M74.9,74.5c1.2,0.6,1.6,0.2,1.2,1l-1.9,3.2c-0.4,0.7-1.9-0.5-3.1-1.1s-1.6-0.2-1.2-1
							l1.9-3.2C72.2,72.7,73.7,73.9,74.9,74.5z"/>
						<path id="XMLID_8406_" opacity="0.2" fill="#272525" d="M71.4,77.1c1.2,0.6,2.7,1.8,3.1,1.1l-0.3,0.5
							c-0.4,0.7-1.9-0.5-3.1-1.1s-1.6-0.2-1.2-1l0.3-0.5C69.7,76.9,70.2,76.6,71.4,77.1z"/>
						<path id="XMLID_8405_" opacity="0.1" fill="#272525" d="M74.3,74.6c-1-0.5-2.3-1.6-2.7-0.9l0.2-0.3c0.4-0.7,1.9,0.5,3.1,1.1
							c1.2,0.6,1.6,0.2,1.2,1l-1.6,2.8c-0.2,0.3-0.5,0.3-0.8,0.2l1.7-2.8C75.8,74.8,75.3,75.1,74.3,74.6z"/>
					</g>
					<g id="XMLID_8399_">
						<path id="XMLID_8403_" fill="#B26028" d="M71.4,72.4c1.2,0.6,1.6,0.2,1.2,1l-1.9,3.2c-0.4,0.7-1.9-0.5-3.1-1.1
							c-1.2-0.6-1.6-0.2-1.2-1l1.9-3.2C68.7,70.6,70.2,71.9,71.4,72.4z"/>
						<path id="XMLID_8402_" opacity="0.2" fill="#272525" d="M67.9,75.1c1.2,0.6,2.7,1.8,3.1,1.1l-0.3,0.5
							c-0.4,0.7-1.9-0.5-3.1-1.1c-1.2-0.6-1.6-0.2-1.2-1l0.3-0.5C66.2,74.9,66.7,74.5,67.9,75.1z"/>
						<path id="XMLID_8401_" opacity="0.1" fill="#272525" d="M70.8,72.6c-1-0.5-2.3-1.6-2.7-0.9l0.2-0.3c0.4-0.7,1.9,0.5,3.1,1.1
							c1.2,0.6,1.6,0.2,1.2,1L71,76.2c-0.2,0.3-0.5,0.3-0.8,0.2l1.7-2.8C72.3,72.7,71.8,73.1,70.8,72.6z"/>
					</g>
				</g>
			</g>
			<g id="XMLID_7399_">
				<g id="XMLID_8369_">
					<g id="XMLID_8382_">
						<path id="XMLID_8393_" fill="#B26028" d="M83.9,75.2c1.2,0.6,1.6,0.2,1.2,1l-1.9,3.2c-0.4,0.7-1.9-0.5-3.1-1.1
							c-1.2-0.6-1.6-0.2-1.2-1l1.9-3.2C81.2,73.4,82.7,74.7,83.9,75.2z"/>
						<path id="XMLID_8390_" opacity="0.2" fill="#272525" d="M80.4,77.9c1.2,0.6,2.7,1.8,3.1,1.1l-0.3,0.5
							c-0.4,0.7-1.9-0.5-3.1-1.1c-1.2-0.6-1.6-0.2-1.2-1l0.3-0.5C78.7,77.7,79.2,77.4,80.4,77.9z"/>
						<path id="XMLID_8384_" opacity="0.1" fill="#272525" d="M83.3,75.4c-1-0.5-2.3-1.6-2.7-0.9l0.2-0.3c0.4-0.7,1.9,0.5,3.1,1.1
							c1.2,0.6,1.6,0.2,1.2,1L83.5,79c-0.2,0.3-0.5,0.3-0.8,0.2l1.7-2.8C84.8,75.5,84.4,75.9,83.3,75.4z"/>
					</g>
					<g id="XMLID_8378_">
						<path id="XMLID_8381_" fill="#B26028" d="M80.4,73.2c1.2,0.6,1.6,0.2,1.2,1l-1.9,3.2c-0.4,0.7-1.9-0.5-3.1-1.1
							c-1.2-0.6-1.6-0.2-1.2-1l1.9-3.2C77.8,71.4,79.2,72.6,80.4,73.2z"/>
						<path id="XMLID_8380_" opacity="0.2" fill="#272525" d="M76.9,75.9c1.2,0.6,2.7,1.8,3.1,1.1l-0.3,0.5
							c-0.4,0.7-1.9-0.5-3.1-1.1c-1.2-0.6-1.6-0.2-1.2-1l0.3-0.5C75.3,75.7,75.7,75.3,76.9,75.9z"/>
						<path id="XMLID_8379_" opacity="0.1" fill="#272525" d="M79.8,73.4c-1-0.5-2.3-1.6-2.7-0.9l0.2-0.3c0.4-0.7,1.9,0.5,3.1,1.1
							c1.2,0.6,1.6,0.2,1.2,1L80,76.9c-0.2,0.3-0.5,0.3-0.8,0.2l1.7-2.8C81.3,73.5,80.9,73.8,79.8,73.4z"/>
					</g>
					<g id="XMLID_8374_">
						<path id="XMLID_8377_" fill="#B26028" d="M76.9,71.2c1.2,0.6,1.6,0.2,1.2,1l-1.9,3.2c-0.4,0.7-1.9-0.5-3.1-1.1
							c-1.2-0.6-1.6-0.2-1.2-1l1.9-3.2C74.3,69.4,75.7,70.6,76.9,71.2z"/>
						<path id="XMLID_8376_" opacity="0.2" fill="#272525" d="M73.4,73.8c1.2,0.6,2.7,1.8,3.1,1.1l-0.3,0.5
							c-0.4,0.7-1.9-0.5-3.1-1.1c-1.2-0.6-1.6-0.2-1.2-1l0.3-0.5C71.8,73.6,72.2,73.3,73.4,73.8z"/>
						<path id="XMLID_8375_" opacity="0.1" fill="#272525" d="M76.3,71.3c-1-0.5-2.3-1.6-2.7-0.9l0.2-0.3c0.4-0.7,1.9,0.5,3.1,1.1
							c1.2,0.6,1.6,0.2,1.2,1l-1.6,2.8c-0.2,0.3-0.5,0.3-0.8,0.2l1.7-2.8C77.8,71.5,77.4,71.8,76.3,71.3z"/>
					</g>
					<g id="XMLID_8370_">
						<path id="XMLID_8373_" fill="#B26028" d="M73.4,69.1c1.2,0.6,1.6,0.2,1.2,1l-1.9,3.2c-0.4,0.7-1.9-0.5-3.1-1.1
							c-1.2-0.6-1.6-0.2-1.2-1l1.9-3.2C70.8,67.3,72.2,68.6,73.4,69.1z"/>
						<path id="XMLID_8372_" opacity="0.2" fill="#272525" d="M69.9,71.8c1.2,0.6,2.7,1.8,3.1,1.1l-0.3,0.5
							c-0.4,0.7-1.9-0.5-3.1-1.1c-1.2-0.6-1.6-0.2-1.2-1l0.3-0.5C68.3,71.6,68.7,71.2,69.9,71.8z"/>
						<path id="XMLID_8371_" opacity="0.1" fill="#272525" d="M72.8,69.3c-1-0.5-2.3-1.6-2.7-0.9l0.2-0.3c0.4-0.7,1.9,0.5,3.1,1.1
							c1.2,0.6,1.6,0.2,1.2,1L73,72.9c-0.2,0.3-0.5,0.3-0.8,0.2l1.7-2.8C74.3,69.4,73.9,69.8,72.8,69.3z"/>
					</g>
				</g>
				<g id="XMLID_7400_">
					<g id="XMLID_7519_">
						<path id="XMLID_7522_" fill="#B26028" d="M85.8,71.9c1.2,0.6,1.6,0.2,1.2,1l-1.9,3.2c-0.4,0.7-1.9-0.5-3.1-1.1
							c-1.2-0.6-1.6-0.2-1.2-1l1.9-3.2C83.2,70.1,84.7,71.3,85.8,71.9z"/>
						<path id="XMLID_7521_" opacity="0.2" fill="#272525" d="M82.3,74.6c1.2,0.6,2.7,1.8,3.1,1.1l-0.3,0.5
							c-0.4,0.7-1.9-0.5-3.1-1.1c-1.2-0.6-1.6-0.2-1.2-1l0.3-0.5C80.7,74.3,81.1,74,82.3,74.6z"/>
						<path id="XMLID_7520_" opacity="0.1" fill="#272525" d="M85.3,72c-1-0.5-2.3-1.6-2.7-0.9l0.2-0.3c0.4-0.7,1.9,0.5,3.1,1.1
							c1.2,0.6,1.6,0.2,1.2,1l-1.6,2.8c-0.2,0.3-0.5,0.3-0.8,0.2l1.7-2.8C86.7,72.2,86.3,72.5,85.3,72z"/>
					</g>
					<g id="XMLID_7515_">
						<path id="XMLID_7518_" fill="#B26028" d="M82.3,69.9c1.2,0.6,1.6,0.2,1.2,1l-1.9,3.2c-0.4,0.7-1.9-0.5-3.1-1.1
							c-1.2-0.6-1.6-0.2-1.2-1l1.9-3.2C79.7,68.1,81.2,69.3,82.3,69.9z"/>
						<path id="XMLID_7517_" opacity="0.2" fill="#272525" d="M78.8,72.5c1.2,0.6,2.7,1.8,3.1,1.1l-0.3,0.5
							c-0.4,0.7-1.9-0.5-3.1-1.1c-1.2-0.6-1.6-0.2-1.2-1l0.3-0.5C77.2,72.3,77.6,72,78.8,72.5z"/>
						<path id="XMLID_7516_" opacity="0.1" fill="#272525" d="M81.8,70c-1-0.5-2.3-1.6-2.7-0.9l0.2-0.3c0.4-0.7,1.9,0.5,3.1,1.1
							c1.2,0.6,1.6,0.2,1.2,1l-1.6,2.8c-0.2,0.3-0.5,0.3-0.8,0.2l1.7-2.8C83.2,70.2,82.8,70.5,81.8,70z"/>
					</g>
					<g id="XMLID_7511_">
						<path id="XMLID_7514_" fill="#B26028" d="M78.8,67.8c1.2,0.6,1.6,0.2,1.2,1L78.2,72c-0.4,0.7-1.9-0.5-3.1-1.1
							c-1.2-0.6-1.6-0.2-1.2-1l1.9-3.2C76.2,66,77.7,67.3,78.8,67.8z"/>
						<path id="XMLID_7513_" opacity="0.2" fill="#272525" d="M75.3,70.5c1.2,0.6,2.7,1.8,3.1,1.1L78.2,72c-0.4,0.7-1.9-0.5-3.1-1.1
							c-1.2-0.6-1.6-0.2-1.2-1l0.3-0.5C73.7,70.3,74.1,69.9,75.3,70.5z"/>
						<path id="XMLID_7512_" opacity="0.1" fill="#272525" d="M78.3,68c-1-0.5-2.3-1.6-2.7-0.9l0.2-0.3c0.4-0.7,1.9,0.5,3.1,1.1
							c1.2,0.6,1.6,0.2,1.2,1l-1.6,2.8c-0.2,0.3-0.5,0.3-0.8,0.2l1.7-2.8C79.7,68.1,79.3,68.5,78.3,68z"/>
					</g>
					<g id="XMLID_7401_">
						<path id="XMLID_7510_" fill="#B26028" d="M75.4,65.8c1.2,0.6,1.6,0.2,1.2,1L74.7,70c-0.4,0.7-1.9-0.5-3.1-1.1
							c-1.2-0.6-1.6-0.2-1.2-1l1.9-3.2C72.7,64,74.2,65.2,75.4,65.8z"/>
						<path id="XMLID_7403_" opacity="0.2" fill="#272525" d="M71.8,68.5c1.2,0.6,2.7,1.8,3.1,1.1L74.7,70c-0.4,0.7-1.9-0.5-3.1-1.1
							c-1.2-0.6-1.6-0.2-1.2-1l0.3-0.5C70.2,68.2,70.6,67.9,71.8,68.5z"/>
						<path id="XMLID_7402_" opacity="0.1" fill="#272525" d="M74.8,65.9c-1-0.5-2.3-1.6-2.7-0.9l0.2-0.3c0.4-0.7,1.9,0.5,3.1,1.1
							c1.2,0.6,1.6,0.2,1.2,1l-1.6,2.8c-0.2,0.3-0.5,0.3-0.8,0.2l1.7-2.8C76.2,66.1,75.8,66.4,74.8,65.9z"/>
					</g>
				</g>
			</g>
			<g id="XMLID_6234_">
				<g id="XMLID_6235_">
					<g id="XMLID_7395_">
						<path id="XMLID_7398_" fill="#B26028" d="M87.9,68.6c1.2,0.6,1.6,0.2,1.2,1l-1.9,3.2c-0.4,0.7-1.9-0.5-3.1-1.1
							c-1.2-0.6-1.6-0.2-1.2-1l1.9-3.2C85.2,66.8,86.7,68,87.9,68.6z"/>
						<path id="XMLID_7397_" opacity="0.2" fill="#272525" d="M84.3,71.3c1.2,0.6,2.7,1.8,3.1,1.1l-0.3,0.5
							c-0.4,0.7-1.9-0.5-3.1-1.1c-1.2-0.6-1.6-0.2-1.2-1l0.3-0.5C82.7,71.1,83.1,70.7,84.3,71.3z"/>
						<path id="XMLID_7396_" opacity="0.1" fill="#272525" d="M87.3,68.8c-1-0.5-2.3-1.6-2.7-0.9l0.2-0.3c0.4-0.7,1.9,0.5,3.1,1.1
							c1.2,0.6,1.6,0.2,1.2,1l-1.6,2.8c-0.2,0.3-0.5,0.3-0.8,0.2l1.7-2.8C88.7,68.9,88.3,69.3,87.3,68.8z"/>
					</g>
					<g id="XMLID_7391_">
						<path id="XMLID_7394_" fill="#B26028" d="M84.4,66.6c1.2,0.6,1.6,0.2,1.2,1l-1.9,3.2c-0.4,0.7-1.9-0.5-3.1-1.1
							c-1.2-0.6-1.6-0.2-1.2-1l1.9-3.2C81.7,64.8,83.2,66,84.4,66.6z"/>
						<path id="XMLID_7393_" opacity="0.2" fill="#272525" d="M80.8,69.3c1.2,0.6,2.7,1.8,3.1,1.1l-0.3,0.5
							c-0.4,0.7-1.9-0.5-3.1-1.1c-1.2-0.6-1.6-0.2-1.2-1l0.3-0.5C79.2,69,79.6,68.7,80.8,69.3z"/>
						<path id="XMLID_7392_" opacity="0.1" fill="#272525" d="M83.8,66.7c-1-0.5-2.3-1.6-2.7-0.9l0.2-0.3c0.4-0.7,1.9,0.5,3.1,1.1
							c1.2,0.6,1.6,0.2,1.2,1L84,70.3c-0.2,0.3-0.5,0.3-0.8,0.2l1.7-2.8C85.2,66.9,84.8,67.2,83.8,66.7z"/>
					</g>
					<g id="XMLID_6240_">
						<path id="XMLID_6243_" fill="#B26028" d="M80.9,64.5c1.2,0.6,1.6,0.2,1.2,1l-1.9,3.2c-0.4,0.7-1.9-0.5-3.1-1.1
							c-1.2-0.6-1.6-0.2-1.2-1l1.9-3.2C78.2,62.7,79.7,64,80.9,64.5z"/>
						<path id="XMLID_6242_" opacity="0.2" fill="#272525" d="M77.3,67.2c1.2,0.6,2.7,1.8,3.1,1.1l-0.3,0.5
							c-0.4,0.7-1.9-0.5-3.1-1.1c-1.2-0.6-1.6-0.2-1.2-1l0.3-0.5C75.7,67,76.2,66.7,77.3,67.2z"/>
						<path id="XMLID_6241_" opacity="0.1" fill="#272525" d="M80.3,64.7c-1-0.5-2.3-1.6-2.7-0.9l0.2-0.3c0.4-0.7,1.9,0.5,3.1,1.1
							c1.2,0.6,1.6,0.2,1.2,1l-1.6,2.8c-0.2,0.3-0.5,0.3-0.8,0.2l1.7-2.8C81.7,64.8,81.3,65.2,80.3,64.7z"/>
					</g>
					<g id="XMLID_6236_">
						<path id="XMLID_6239_" fill="#B26028" d="M77.4,62.5c1.2,0.6,1.6,0.2,1.2,1l-1.9,3.2c-0.4,0.7-1.9-0.5-3.1-1.1
							c-1.2-0.6-1.6-0.2-1.2-1l1.9-3.2C74.7,60.7,76.2,61.9,77.4,62.5z"/>
						<path id="XMLID_6238_" opacity="0.2" fill="#272525" d="M73.8,65.2c1.2,0.6,2.7,1.8,3.1,1.1l-0.3,0.5
							c-0.4,0.7-1.9-0.5-3.1-1.1c-1.2-0.6-1.6-0.2-1.2-1l0.3-0.5C72.2,64.9,72.7,64.6,73.8,65.2z"/>
						<path id="XMLID_6237_" opacity="0.1" fill="#272525" d="M76.8,62.6c-1-0.5-2.3-1.6-2.7-0.9l0.2-0.3c0.4-0.7,1.9,0.5,3.1,1.1
							c1.2,0.6,1.6,0.2,1.2,1L77,66.2c-0.2,0.3-0.5,0.3-0.8,0.2l1.7-2.8C78.2,62.8,77.8,63.1,76.8,62.6z"/>
					</g>
				</g>
			</g>
		</g>
	</g>
</g>
</svg>
