<?xml version="1.0" encoding="utf-8"?>
<!-- Generator: Adobe Illustrator 16.0.0, SVG Export Plug-In . SVG Version: 6.00 Build 0)  -->
<!DOCTYPE svg PUBLIC "-//W3C//DTD SVG 1.1//EN" "http://www.w3.org/Graphics/SVG/1.1/DTD/svg11.dtd">
<svg version="1.1" id="Layer_1" xmlns="http://www.w3.org/2000/svg" xmlns:xlink="http://www.w3.org/1999/xlink" x="0px" y="0px"
	 width="164px" height="164px" viewBox="0 0 164 164" enable-background="new 0 0 164 164" xml:space="preserve">
<g id="XMLID_14889_">
	<g id="XMLID_14945_">
		<polygon id="XMLID_14947_" fill="#968677" points="60.7,85.9 89.1,102.3 89.1,99.6 60.7,83.3 		"/>
		<polygon id="XMLID_14946_" fill="#77675A" points="89.1,102.3 89.1,99.6 89.1,99.6 103.2,91.4 117.4,83.3 117.4,85.9 117.4,85.9 
			103.2,94.1 		"/>
	</g>
	<g id="XMLID_14940_">
		<path id="XMLID_14942_" fill="#AFA28B" d="M89.1,66.9L60.7,83.3l28.3,16.4l28.3-16.4L89.1,66.9z M65.4,83.3l23.6-13.6l23.6,13.6
			L89.1,96.9L65.4,83.3z"/>
		<polygon id="XMLID_14941_" fill="#2B2927" points="89.1,69.6 65.4,83.3 89.1,96.9 112.7,83.3 		"/>
	</g>
	<polygon id="XMLID_14939_" fill="#968677" points="89.1,70.9 111.6,83.9 112.7,83.3 89.1,69.6 	"/>
	<polygon id="XMLID_14938_" fill="#77675A" points="89.1,70.9 89.1,69.6 74.9,77.8 65.4,83.3 66.6,83.9 74.9,79.1 	"/>
	<g id="XMLID_14933_" opacity="0.2">
		<polygon id="XMLID_14937_" opacity="0.2" fill="#FFFFFF" points="93,94.7 93.5,94.4 71,81.4 70.5,81.7 		"/>
		<polygon id="XMLID_14936_" opacity="0.2" fill="#FFFFFF" points="100,90.6 100.5,90.3 78,77.3 77.6,77.6 		"/>
		<polygon id="XMLID_14935_" opacity="0.2" fill="#FFFFFF" points="107.6,86.2 85.1,73.2 84.6,73.5 107.1,86.5 		"/>
	</g>
	<g id="XMLID_14893_">
		<g id="XMLID_14905_">
			<g id="XMLID_14928_">
				<polygon id="XMLID_14932_" fill="#938E89" points="82,81.8 89.1,85.9 89.1,85.3 82,81.2 				"/>
				<polygon id="XMLID_14931_" fill="#66625F" points="96.2,81.8 89.1,85.9 89.1,85.3 96.2,81.2 				"/>
				<polygon id="XMLID_14930_" fill="#D2C7B0" points="82,81.2 89.1,85.3 96.2,81.2 89.1,77.1 				"/>
				<polygon id="XMLID_14929_" fill="#CCC5C0" points="82,81.2 89.1,85.3 96.2,81.2 89.1,77.1 				"/>
			</g>
			<g id="XMLID_14916_">
				<g id="XMLID_14919_">
					<path id="XMLID_14926_" fill="#FFFFFF" d="M87.5,83.2c-0.1-0.1-0.3-0.1-0.4-0.1c-0.1,0-0.2,0-0.3,0.1c0,0-0.1,0.1-0.1,0.1
						c0,0,0,0.1,0.1,0.2c0.2,0.1,0.5,0.1,0.7,0c0,0,0.1-0.1,0.1-0.1C87.6,83.3,87.6,83.3,87.5,83.2z"/>
					<path id="XMLID_14925_" fill="#FFFFFF" d="M85.6,82.2c-0.1-0.1-0.3-0.1-0.4-0.1c-0.1,0-0.2,0-0.3,0.1c0,0-0.1,0.1-0.1,0.1
						c0,0,0,0.1,0.1,0.2c0.2,0.1,0.5,0.1,0.7,0c0,0,0.1-0.1,0.1-0.1C85.8,82.3,85.7,82.2,85.6,82.2z"/>
					<path id="XMLID_14924_" fill="#FFFFFF" d="M83.8,81.1C83.7,81,83.5,81,83.4,81c-0.1,0-0.2,0-0.3,0.1c0,0-0.1,0.1-0.1,0.1
						c0,0,0,0.1,0.1,0.2c0.2,0.1,0.5,0.1,0.7,0c0,0,0.1-0.1,0.1-0.1C83.9,81.2,83.9,81.2,83.8,81.1z"/>
					<path id="XMLID_14923_" fill="#FFFFFF" d="M91.4,83.2c-0.1,0-0.2-0.1-0.3-0.1c-0.1,0-0.3,0-0.4,0.1c-0.1,0.1-0.1,0.1-0.1,0.2
						c0,0,0,0.1,0.1,0.1c0.2,0.1,0.5,0.1,0.7,0C91.4,83.4,91.4,83.3,91.4,83.2C91.4,83.2,91.4,83.2,91.4,83.2z"/>
					<path id="XMLID_14922_" fill="#FFFFFF" d="M93.2,82.1c-0.1,0-0.2-0.1-0.3-0.1c-0.1,0-0.3,0-0.4,0.1c-0.1,0.1-0.1,0.1-0.1,0.2
						c0,0,0,0.1,0.1,0.1c0.2,0.1,0.5,0.1,0.7,0C93.2,82.3,93.3,82.3,93.2,82.1C93.3,82.2,93.2,82.1,93.2,82.1z"/>
					<path id="XMLID_14921_" fill="#FFFFFF" d="M95,81.1C95,81,94.9,81,94.7,81c-0.1,0-0.3,0-0.4,0.1c-0.1,0.1-0.1,0.1-0.1,0.2
						c0,0,0,0.1,0.1,0.1c0.2,0.1,0.5,0.1,0.7,0C95.1,81.3,95.1,81.2,95,81.1C95.1,81.1,95.1,81.1,95,81.1z"/>
				</g>
				<ellipse id="XMLID_14918_" fill="#FFFFFF" cx="89.1" cy="84.2" rx="0.5" ry="0.2"/>
				<ellipse id="XMLID_14917_" fill="#FFFFFF" cx="89.1" cy="78.2" rx="0.5" ry="0.2"/>
			</g>
			<g id="XMLID_14906_">
				<g id="XMLID_14914_">
					<path id="XMLID_14915_" fill="#FFFFFF" d="M84.4,81.2l3.6,1.9c0.7,0.3,1.5,0.3,2.2,0l3.6-1.9c0.4-0.4,0.3-1.2-0.3-1.5l-1.1-0.7
						c-2.1-1.6-4.6-1.6-6.7,0l-1.1,0.7C84.1,80,83.9,80.8,84.4,81.2z"/>
				</g>
				<g id="XMLID_14908_">
					<g id="XMLID_14912_">
						<path id="XMLID_14913_" fill="#938E89" d="M84.7,79.7c-0.2,0.2-0.4,0.5-0.4,0.8c0,0.3,0.1,0.5,0.2,0.6l0,0l2.2,1.2l1.2,0.6
							c0.4,0.2,0.8,0.4,1.2,0.4c0.5,0,0.8-0.1,1.3-0.4l1.2-0.6l2.2-1.2l0,0c0.2-0.1,0.3-0.4,0.3-0.7c0-0.3-0.2-0.6-0.4-0.8
							c0.3,0.2,0.5,0.4,0.6,0.8c0.1,0.3,0,0.7-0.2,0.9l0,0l0,0l-2.2,1.2l-1.2,0.6c-0.2,0.1-0.4,0.2-0.7,0.3
							c-0.2,0.1-0.5,0.1-0.7,0.1c-0.2,0-0.5,0-0.7-0.1c-0.2-0.1-0.4-0.2-0.6-0.3l-1.2-0.6l-2.2-1.2l0,0l0,0
							c-0.2-0.2-0.3-0.5-0.2-0.9C84.2,80.1,84.4,79.8,84.7,79.7z"/>
					</g>
					<g id="XMLID_14910_" opacity="0.2">
						<path id="XMLID_14911_" fill="#78D5FB" d="M84.4,81.2l3.6,1.9c0.7,0.3,1.5,0.3,2.2,0l3.6-2c0.4-0.4,0.3-1.1-0.2-1.4l-1.1-0.7
							c-2.1-1.6-4.6-1.6-6.7,0l-1.1,0.7C84.1,80,83.9,80.8,84.4,81.2z"/>
					</g>
					<path id="XMLID_14909_" fill="#FFFFFF" d="M92.4,79.3c-2-1.5-4.3-1.5-6.3-0.3c1.9-0.3,3.9,0.2,5.7,1.5l0.7,0.5
						c0,0,0.7-0.3,1-0.6C93.7,80.1,92.6,79.4,92.4,79.3z"/>
				</g>
			</g>
		</g>
		<path id="XMLID_14896_" opacity="0.3" d="M97.3,82.4l-1.1-0.6l-7.1,4.1l1.1,0.6l0.6-0.3c0,0,0,0,0,0c0.3,0.2,2-0.5,3.6-1.5
			c1.5-0.9,2.5-1.7,2.5-2L97.3,82.4z"/>
	</g>
</g>
</svg>
