<?xml version="1.0" encoding="utf-8"?>
<!-- Generator: Adobe Illustrator 16.0.0, SVG Export Plug-In . SVG Version: 6.00 Build 0)  -->
<!DOCTYPE svg PUBLIC "-//W3C//DTD SVG 1.1//EN" "http://www.w3.org/Graphics/SVG/1.1/DTD/svg11.dtd">
<svg version="1.1" id="Layer_1" xmlns="http://www.w3.org/2000/svg" xmlns:xlink="http://www.w3.org/1999/xlink" x="0px" y="0px"
	 width="164px" height="164px" viewBox="0 0 164 164" enable-background="new 0 0 164 164" xml:space="preserve">
<g id="XMLID_14841_">
	<g id="XMLID_16086_">
		<g id="XMLID_16087_">
			<path id="XMLID_16088_" fill="#B26028" d="M89.1,61.4L67.8,73.6l-4.1,7.1l11.4,5.2l28.3-16.4L89.1,61.4z"/>
		</g>
	</g>
	<g id="XMLID_15995_">
		<g id="XMLID_15996_">
			<g id="XMLID_16071_">
				<g id="XMLID_16082_">
					<defs>
						<polygon id="XMLID_16083_" points="75.1,94.1 81.7,82.8 103.4,70.2 103.4,77.8 						"/>
					</defs>
					<clipPath id="XMLID_2_">
						<use xlink:href="#XMLID_16083_"  overflow="visible"/>
					</clipPath>
					<g id="XMLID_16084_" clip-path="url(#XMLID_2_)">
						<defs>
							<polygon id="XMLID_16085_" points="75.1,94.1 89.3,69.6 103.4,70 103.4,77.8 							"/>
						</defs>
						<use xlink:href="#XMLID_16085_"  overflow="visible" fill="#AD856A"/>
						<clipPath id="XMLID_3_">
							<use xlink:href="#XMLID_16085_"  overflow="visible"/>
						</clipPath>
					</g>
				</g>
				<g id="XMLID_16072_">
					<polygon id="XMLID_16081_" fill="#90674C" points="75.8,93.1 79.8,90.7 79.8,88.7 75.8,91.1 					"/>
					<polygon id="XMLID_16080_" fill="#90674C" points="80.5,90.3 84.6,88 84.6,86 80.5,88.3 					"/>
					<polygon id="XMLID_16079_" fill="#90674C" points="82.2,86.6 82.2,84.6 78.1,87 78.1,89 					"/>
					<polygon id="XMLID_16078_" fill="#90674C" points="89.3,82.6 89.3,80.6 87.6,81.5 87.6,83.5 					"/>
					<polygon id="XMLID_16077_" fill="#90674C" points="99.4,79.4 103.5,77.1 103.5,75.1 99.4,77.4 					"/>
					<polygon id="XMLID_16076_" fill="#90674C" points="91.6,79.2 89.3,80.6 89.3,82.6 91.6,81.2 					"/>
					<polygon id="XMLID_16075_" fill="#90674C" points="96.4,78.5 96.4,76.5 92.3,78.8 92.3,80.8 					"/>
					<polygon id="XMLID_16074_" fill="#90674C" points="101.8,75.3 103.5,74.4 103.5,72.4 101.8,73.3 					"/>
					<polygon id="XMLID_16073_" fill="#90674C" points="97.1,78.1 101.1,75.7 101.1,73.7 97.1,76.1 					"/>
				</g>
			</g>
			<g id="XMLID_15997_">
				<g id="XMLID_16068_">
					<polygon id="XMLID_16069_" fill="#7C4723" points="81.5,85.3 81.4,82.8 75.1,85.9 103.5,69.6 103.5,72.6 103.5,72.6 95.7,77.1 
											"/>
				</g>
			</g>
		</g>
	</g>
	<g id="XMLID_14980_">
		<g id="XMLID_14981_">
			<g id="XMLID_14993_">
				<polygon id="XMLID_14995_" fill="#968677" points="74.9,94.1 89.1,102.3 89.1,99.6 74.9,91.4 				"/>
				<polygon id="XMLID_14994_" fill="#77675A" points="89.1,102.3 89.1,99.6 89.1,99.6 117.4,83.3 117.4,85.9 117.4,85.9 				"/>
			</g>
			<g id="XMLID_14988_">
				<path id="XMLID_14990_" fill="#AFA28B" d="M103.2,75.1L74.9,91.4l14.2,8.2l28.3-16.4L103.2,75.1z M79.6,91.4l23.6-13.6l9.5,5.5
					L89.1,96.9L79.6,91.4z"/>
				<polygon id="XMLID_14989_" fill="#2B2927" points="103.2,77.8 79.6,91.4 89.1,96.9 112.7,83.3 				"/>
			</g>
			<polygon id="XMLID_14987_" fill="#968677" points="103.2,79.1 111.6,83.9 112.7,83.3 103.2,77.8 			"/>
			<polygon id="XMLID_14986_" fill="#77675A" points="103.2,79.1 103.2,77.8 89.1,86 79.6,91.4 80.7,92.1 89.1,87.3 			"/>
			<g id="XMLID_14982_" opacity="0.2">
				<polygon id="XMLID_14985_" opacity="0.2" fill="#FFFFFF" points="93,94.7 93.5,94.4 85.1,89.6 84.6,89.9 				"/>
				<polygon id="XMLID_14984_" opacity="0.2" fill="#FFFFFF" points="100,90.6 100.5,90.3 92.2,85.5 91.7,85.8 				"/>
				<polygon id="XMLID_14983_" opacity="0.2" fill="#FFFFFF" points="107.6,86.2 99.3,81.4 98.8,81.7 107.1,86.5 				"/>
			</g>
		</g>
	</g>
	<polygon id="XMLID_16070_" fill="#7C4723" points="68,76.8 61,88.9 75.2,97.1 83,83.5 	"/>
	<g id="XMLID_15998_">
		<g id="XMLID_16051_">
			<g id="XMLID_16064_">
				<path id="XMLID_16067_" fill="#B26028" d="M74.4,92c1.2,0.6,1.6,0.2,1.2,1l-1.9,3.2c-0.4,0.7-1.9-0.5-3.1-1.1
					c-1.2-0.6-1.6-0.2-1.2-1l1.9-3.2C71.7,90.2,73.2,91.4,74.4,92z"/>
				<path id="XMLID_16066_" opacity="0.2" fill="#272525" d="M70.8,94.7c1.2,0.6,2.7,1.8,3.1,1.1l-0.3,0.5c-0.4,0.7-1.9-0.5-3.1-1.1
					c-1.2-0.6-1.6-0.2-1.2-1l0.3-0.5C69.2,94.4,69.7,94.1,70.8,94.7z"/>
				<path id="XMLID_16065_" opacity="0.1" fill="#272525" d="M73.8,92.1c-1-0.5-2.3-1.6-2.7-0.9l0.2-0.3c0.4-0.7,1.9,0.5,3.1,1.1
					c1.2,0.6,1.6,0.2,1.2,1L74,95.7c-0.2,0.3-0.5,0.3-0.8,0.2l1.7-2.8C75.2,92.3,74.8,92.6,73.8,92.1z"/>
			</g>
			<g id="XMLID_16060_">
				<path id="XMLID_16063_" fill="#B26028" d="M70.9,89.9c1.2,0.6,1.6,0.2,1.2,1l-1.9,3.2c-0.4,0.7-1.9-0.5-3.1-1.1
					c-1.2-0.6-1.6-0.2-1.2-1l1.9-3.2C68.2,88.1,69.7,89.4,70.9,89.9z"/>
				<path id="XMLID_16062_" opacity="0.2" fill="#272525" d="M67.4,92.6c1.2,0.6,2.7,1.8,3.1,1.1l-0.3,0.5c-0.4,0.7-1.9-0.5-3.1-1.1
					c-1.2-0.6-1.6-0.2-1.2-1l0.3-0.5C65.7,92.4,66.2,92.1,67.4,92.6z"/>
				<path id="XMLID_16061_" opacity="0.1" fill="#272525" d="M70.3,90.1c-1-0.5-2.3-1.6-2.7-0.9l0.2-0.3c0.4-0.7,1.9,0.5,3.1,1.1
					c1.2,0.6,1.6,0.2,1.2,1l-1.6,2.8c-0.2,0.3-0.5,0.3-0.8,0.2l1.7-2.8C71.7,90.2,71.3,90.6,70.3,90.1z"/>
			</g>
			<g id="XMLID_16056_">
				<path id="XMLID_16059_" fill="#B26028" d="M67.4,87.9c1.2,0.6,1.6,0.2,1.2,1l-1.9,3.2c-0.4,0.7-1.9-0.5-3.1-1.1
					c-1.2-0.6-1.6-0.2-1.2-1l1.9-3.2C64.7,86.1,66.2,87.3,67.4,87.9z"/>
				<path id="XMLID_16058_" opacity="0.2" fill="#272525" d="M63.9,90.6c1.2,0.6,2.7,1.8,3.1,1.1l-0.3,0.5c-0.4,0.7-1.9-0.5-3.1-1.1
					c-1.2-0.6-1.6-0.2-1.2-1l0.3-0.5C62.2,90.3,62.7,90,63.9,90.6z"/>
				<path id="XMLID_16057_" opacity="0.1" fill="#272525" d="M66.8,88c-1-0.5-2.3-1.6-2.7-0.9l0.2-0.3c0.4-0.7,1.9,0.5,3.1,1.1
					c1.2,0.6,1.6,0.2,1.2,1L67,91.6c-0.2,0.3-0.5,0.3-0.8,0.2l1.7-2.8C68.3,88.2,67.8,88.5,66.8,88z"/>
			</g>
			<g id="XMLID_16052_">
				<path id="XMLID_16055_" fill="#B26028" d="M63.9,85.9c1.2,0.6,1.6,0.2,1.2,1l-1.9,3.2c-0.4,0.7-1.9-0.5-3.1-1.1s-1.6-0.2-1.2-1
					l1.9-3.2C61.2,84.1,62.7,85.3,63.9,85.9z"/>
				<path id="XMLID_16054_" opacity="0.2" fill="#272525" d="M60.4,88.5c1.2,0.6,2.7,1.8,3.1,1.1l-0.3,0.5c-0.4,0.7-1.9-0.5-3.1-1.1
					s-1.6-0.2-1.2-1l0.3-0.5C58.7,88.3,59.2,88,60.4,88.5z"/>
				<path id="XMLID_16053_" opacity="0.1" fill="#272525" d="M63.3,86c-1-0.5-2.3-1.6-2.7-0.9l0.2-0.3c0.4-0.7,1.9,0.5,3.1,1.1
					c1.2,0.6,1.6,0.2,1.2,1l-1.6,2.8c-0.2,0.3-0.5,0.3-0.8,0.2l1.7-2.8C64.8,86.2,64.3,86.5,63.3,86z"/>
			</g>
		</g>
		<g id="XMLID_16034_">
			<g id="XMLID_16047_">
				<path id="XMLID_16050_" fill="#B26028" d="M76.3,88.6c1.2,0.6,1.6,0.2,1.2,1l-1.9,3.2c-0.4,0.7-1.9-0.5-3.1-1.1
					c-1.2-0.6-1.6-0.2-1.2-1l1.9-3.2C73.6,86.8,75.1,88.1,76.3,88.6z"/>
				<path id="XMLID_16049_" opacity="0.2" fill="#272525" d="M72.8,91.3c1.2,0.6,2.7,1.8,3.1,1.1l-0.3,0.5c-0.4,0.7-1.9-0.5-3.1-1.1
					c-1.2-0.6-1.6-0.2-1.2-1l0.3-0.5C71.1,91.1,71.6,90.7,72.8,91.3z"/>
				<path id="XMLID_16048_" opacity="0.1" fill="#272525" d="M75.7,88.8c-1-0.5-2.3-1.6-2.7-0.9l0.2-0.3c0.4-0.7,1.9,0.5,3.1,1.1
					c1.2,0.6,1.6,0.2,1.2,1l-1.6,2.8c-0.2,0.3-0.5,0.3-0.8,0.2l1.7-2.8C77.2,88.9,76.7,89.3,75.7,88.8z"/>
			</g>
			<g id="XMLID_16043_">
				<path id="XMLID_16046_" fill="#B26028" d="M72.8,86.6c1.2,0.6,1.6,0.2,1.2,1l-1.9,3.2c-0.4,0.7-1.9-0.5-3.1-1.1
					c-1.2-0.6-1.6-0.2-1.2-1l1.9-3.2C70.1,84.8,71.6,86,72.8,86.6z"/>
				<path id="XMLID_16045_" opacity="0.2" fill="#272525" d="M69.3,89.3c1.2,0.6,2.7,1.8,3.1,1.1l-0.3,0.5c-0.4,0.7-1.9-0.5-3.1-1.1
					c-1.2-0.6-1.6-0.2-1.2-1l0.3-0.5C67.6,89,68.1,88.7,69.3,89.3z"/>
				<path id="XMLID_16044_" opacity="0.1" fill="#272525" d="M72.2,86.7c-1-0.5-2.3-1.6-2.7-0.9l0.2-0.3c0.4-0.7,1.9,0.5,3.1,1.1
					c1.2,0.6,1.6,0.2,1.2,1l-1.6,2.8c-0.2,0.3-0.5,0.3-0.8,0.2l1.7-2.8C73.7,86.9,73.2,87.2,72.2,86.7z"/>
			</g>
			<g id="XMLID_16039_">
				<path id="XMLID_16042_" fill="#B26028" d="M69.3,84.5c1.2,0.6,1.6,0.2,1.2,1l-1.9,3.2c-0.4,0.7-1.9-0.5-3.1-1.1
					c-1.2-0.6-1.6-0.2-1.2-1l1.9-3.2C66.6,82.7,68.1,84,69.3,84.5z"/>
				<path id="XMLID_16041_" opacity="0.2" fill="#272525" d="M65.8,87.2c1.2,0.6,2.7,1.8,3.1,1.1l-0.3,0.5c-0.4,0.7-1.9-0.5-3.1-1.1
					c-1.2-0.6-1.6-0.2-1.2-1l0.3-0.5C64.1,87,64.6,86.7,65.8,87.2z"/>
				<path id="XMLID_16040_" opacity="0.1" fill="#272525" d="M68.7,84.7c-1-0.5-2.3-1.6-2.7-0.9l0.2-0.3c0.4-0.7,1.9,0.5,3.1,1.1
					c1.2,0.6,1.6,0.2,1.2,1l-1.6,2.8c-0.2,0.3-0.5,0.3-0.8,0.2l1.7-2.8C70.2,84.8,69.8,85.2,68.7,84.7z"/>
			</g>
			<g id="XMLID_16035_">
				<path id="XMLID_16038_" fill="#B26028" d="M65.8,82.5c1.2,0.6,1.6,0.2,1.2,1l-1.9,3.2c-0.4,0.7-1.9-0.5-3.1-1.1s-1.6-0.2-1.2-1
					l1.9-3.2C63.1,80.7,64.6,81.9,65.8,82.5z"/>
				<path id="XMLID_16037_" opacity="0.2" fill="#272525" d="M62.3,85.2c1.2,0.6,2.7,1.8,3.1,1.1l-0.3,0.5c-0.4,0.7-1.9-0.5-3.1-1.1
					s-1.6-0.2-1.2-1l0.3-0.5C60.6,85,61.1,84.6,62.3,85.2z"/>
				<path id="XMLID_16036_" opacity="0.1" fill="#272525" d="M65.2,82.7c-1-0.5-2.3-1.6-2.7-0.9l0.2-0.3c0.4-0.7,1.9,0.5,3.1,1.1
					s1.6,0.2,1.2,1l-1.6,2.8c-0.2,0.3-0.5,0.3-0.8,0.2l1.7-2.8C66.7,82.8,66.3,83.2,65.2,82.7z"/>
			</g>
		</g>
		<g id="XMLID_15999_">
			<g id="XMLID_16017_">
				<g id="XMLID_16030_">
					<path id="XMLID_16033_" fill="#B26028" d="M78.2,85.3c1.2,0.6,1.6,0.2,1.2,1l-1.9,3.2c-0.4,0.7-1.9-0.5-3.1-1.1
						c-1.2-0.6-1.6-0.2-1.2-1l1.9-3.2C75.6,83.5,77,84.7,78.2,85.3z"/>
					<path id="XMLID_16032_" opacity="0.2" fill="#272525" d="M74.7,88c1.2,0.6,2.7,1.8,3.1,1.1l-0.3,0.5c-0.4,0.7-1.9-0.5-3.1-1.1
						c-1.2-0.6-1.6-0.2-1.2-1l0.3-0.5C73,87.7,73.5,87.4,74.7,88z"/>
					<path id="XMLID_16031_" opacity="0.1" fill="#272525" d="M77.6,85.4c-1-0.5-2.3-1.6-2.7-0.9l0.2-0.3c0.4-0.7,1.9,0.5,3.1,1.1
						s1.6,0.2,1.2,1L77.8,89c-0.2,0.3-0.5,0.3-0.8,0.2l1.7-2.8C79.1,85.6,78.7,85.9,77.6,85.4z"/>
				</g>
				<g id="XMLID_16026_">
					<path id="XMLID_16029_" fill="#B26028" d="M74.7,83.2c1.2,0.6,1.6,0.2,1.2,1L74,87.4c-0.4,0.7-1.9-0.5-3.1-1.1
						c-1.2-0.6-1.6-0.2-1.2-1l1.9-3.2C72.1,81.4,73.5,82.7,74.7,83.2z"/>
					<path id="XMLID_16028_" opacity="0.2" fill="#272525" d="M71.2,85.9c1.2,0.6,2.7,1.8,3.1,1.1L74,87.4c-0.4,0.7-1.9-0.5-3.1-1.1
						c-1.2-0.6-1.6-0.2-1.2-1L70,85C69.6,85.7,70,85.4,71.2,85.9z"/>
					<path id="XMLID_16027_" opacity="0.1" fill="#272525" d="M74.1,83.4c-1-0.5-2.3-1.6-2.7-0.9l0.2-0.3c0.4-0.7,1.9,0.5,3.1,1.1
						c1.2,0.6,1.6,0.2,1.2,1L74.3,87c-0.2,0.3-0.5,0.3-0.8,0.2l1.7-2.8C75.6,83.5,75.2,83.9,74.1,83.4z"/>
				</g>
				<g id="XMLID_16022_">
					<path id="XMLID_16025_" fill="#B26028" d="M71.2,81.2c1.2,0.6,1.6,0.2,1.2,1l-1.9,3.2c-0.4,0.7-1.9-0.5-3.1-1.1
						c-1.2-0.6-1.6-0.2-1.2-1l1.9-3.2C68.6,79.4,70,80.6,71.2,81.2z"/>
					<path id="XMLID_16024_" opacity="0.2" fill="#272525" d="M67.7,83.9c1.2,0.6,2.7,1.8,3.1,1.1l-0.3,0.5
						c-0.4,0.7-1.9-0.5-3.1-1.1c-1.2-0.6-1.6-0.2-1.2-1l0.3-0.5C66.1,83.7,66.5,83.3,67.7,83.9z"/>
					<path id="XMLID_16023_" opacity="0.1" fill="#272525" d="M70.6,81.4c-1-0.5-2.3-1.6-2.7-0.9l0.2-0.3c0.4-0.7,1.9,0.5,3.1,1.1
						c1.2,0.6,1.6,0.2,1.2,1l-1.6,2.8c-0.2,0.3-0.5,0.3-0.8,0.2l1.7-2.8C72.1,81.5,71.7,81.8,70.6,81.4z"/>
				</g>
				<g id="XMLID_16018_">
					<path id="XMLID_16021_" fill="#B26028" d="M67.7,79.2c1.2,0.6,1.6,0.2,1.2,1L67,83.4c-0.4,0.7-1.9-0.5-3.1-1.1
						c-1.2-0.6-1.6-0.2-1.2-1l1.9-3.2C65.1,77.4,66.5,78.6,67.7,79.2z"/>
					<path id="XMLID_16020_" opacity="0.2" fill="#272525" d="M64.2,81.8c1.2,0.6,2.7,1.8,3.1,1.1L67,83.4c-0.4,0.7-1.9-0.5-3.1-1.1
						c-1.2-0.6-1.6-0.2-1.2-1l0.3-0.5C62.6,81.6,63,81.3,64.2,81.8z"/>
					<path id="XMLID_16019_" opacity="0.1" fill="#272525" d="M67.1,79.3c-1-0.5-2.3-1.6-2.7-0.9l0.2-0.3c0.4-0.7,1.9,0.5,3.1,1.1
						c1.2,0.6,1.6,0.2,1.2,1l-1.6,2.8c-0.2,0.3-0.5,0.3-0.8,0.2l1.7-2.8C68.6,79.5,68.2,79.8,67.1,79.3z"/>
				</g>
			</g>
			<g id="XMLID_16000_">
				<g id="XMLID_16013_">
					<path id="XMLID_16016_" fill="#B26028" d="M80.1,81.9c1.2,0.6,1.6,0.2,1.2,1l-1.9,3.2c-0.4,0.7-1.9-0.5-3.1-1.1s-1.6-0.2-1.2-1
						l1.9-3.2C77.5,80.1,79,81.4,80.1,81.9z"/>
					<path id="XMLID_16015_" opacity="0.2" fill="#272525" d="M76.6,84.6c1.2,0.6,2.7,1.8,3.1,1.1l-0.3,0.5
						c-0.4,0.7-1.9-0.5-3.1-1.1s-1.6-0.2-1.2-1l0.3-0.5C75,84.4,75.4,84.1,76.6,84.6z"/>
					<path id="XMLID_16014_" opacity="0.1" fill="#272525" d="M79.6,82.1c-1-0.5-2.3-1.6-2.7-0.9l0.2-0.3c0.4-0.7,1.9,0.5,3.1,1.1
						s1.6,0.2,1.2,1l-1.6,2.8c-0.2,0.3-0.5,0.3-0.8,0.2l1.7-2.8C81,82.2,80.6,82.6,79.6,82.1z"/>
				</g>
				<g id="XMLID_16009_">
					<path id="XMLID_16012_" fill="#B26028" d="M76.6,79.9c1.2,0.6,1.6,0.2,1.2,1L76,84.1c-0.4,0.7-1.9-0.5-3.1-1.1
						c-1.2-0.6-1.6-0.2-1.2-1l1.9-3.2C74,78.1,75.5,79.3,76.6,79.9z"/>
					<path id="XMLID_16011_" opacity="0.2" fill="#272525" d="M73.1,82.6c1.2,0.6,2.7,1.8,3.1,1.1L76,84.1c-0.4,0.7-1.9-0.5-3.1-1.1
						c-1.2-0.6-1.6-0.2-1.2-1l0.3-0.5C71.5,82.4,71.9,82,73.1,82.6z"/>
					<path id="XMLID_16010_" opacity="0.1" fill="#272525" d="M76.1,80.1c-1-0.5-2.3-1.6-2.7-0.9l0.2-0.3c0.4-0.7,1.9,0.5,3.1,1.1
						s1.6,0.2,1.2,1l-1.6,2.8c-0.2,0.3-0.5,0.3-0.8,0.2l1.7-2.8C77.5,80.2,77.1,80.5,76.1,80.1z"/>
				</g>
				<g id="XMLID_16005_">
					<path id="XMLID_16008_" fill="#B26028" d="M73.2,77.9c1.2,0.6,1.6,0.2,1.2,1l-1.9,3.2c-0.4,0.7-1.9-0.5-3.1-1.1
						c-1.2-0.6-1.6-0.2-1.2-1l1.9-3.2C70.5,76.1,72,77.3,73.2,77.9z"/>
					<path id="XMLID_16007_" opacity="0.2" fill="#272525" d="M69.6,80.5c1.2,0.6,2.7,1.8,3.1,1.1l-0.3,0.5
						c-0.4,0.7-1.9-0.5-3.1-1.1c-1.2-0.6-1.6-0.2-1.2-1l0.3-0.5C68,80.3,68.4,80,69.6,80.5z"/>
					<path id="XMLID_16006_" opacity="0.1" fill="#272525" d="M72.6,78c-1-0.5-2.3-1.6-2.7-0.9l0.2-0.3c0.4-0.7,1.9,0.5,3.1,1.1
						c1.2,0.6,1.6,0.2,1.2,1l-1.6,2.8c-0.2,0.3-0.5,0.3-0.8,0.2l1.7-2.8C74,78.2,73.6,78.5,72.6,78z"/>
				</g>
				<g id="XMLID_16001_">
					<path id="XMLID_16004_" fill="#B26028" d="M69.7,75.8c1.2,0.6,1.6,0.2,1.2,1L69,80c-0.4,0.7-1.9-0.5-3.1-1.1
						c-1.2-0.6-1.6-0.2-1.2-1l1.9-3.2C67,74,68.5,75.3,69.7,75.8z"/>
					<path id="XMLID_16003_" opacity="0.2" fill="#272525" d="M66.1,78.5c1.2,0.6,2.7,1.8,3.1,1.1L69,80c-0.4,0.7-1.9-0.5-3.1-1.1
						c-1.2-0.6-1.6-0.2-1.2-1l0.3-0.5C64.5,78.3,64.9,77.9,66.1,78.5z"/>
					<path id="XMLID_16002_" opacity="0.1" fill="#272525" d="M69.1,76c-1-0.5-2.3-1.6-2.7-0.9l0.2-0.3c0.4-0.7,1.9,0.5,3.1,1.1
						c1.2,0.6,1.6,0.2,1.2,1l-1.6,2.8c-0.2,0.3-0.5,0.3-0.8,0.2l1.7-2.8C70.5,76.1,70.1,76.5,69.1,76z"/>
				</g>
			</g>
		</g>
	</g>
	<g id="XMLID_14844_">
		<g id="XMLID_14846_">
			<g id="XMLID_14848_">
				<g id="XMLID_14850_">
					<defs>
						<polygon id="XMLID_14851_" points="89.1,64.2 89.1,64.2 89.1,64.2 84,61.2 84,69.6 89.1,72.5 94.2,69.6 94.2,61.2 						"/>
					</defs>
					<clipPath id="XMLID_4_">
						<use xlink:href="#XMLID_14851_"  overflow="visible"/>
					</clipPath>
					<g id="XMLID_14852_" clip-path="url(#XMLID_4_)">
						<g id="XMLID_14898_">
							<g id="XMLID_14901_">
								<polygon id="XMLID_14979_" fill="#C8C8C8" points="78.9,67 89.1,72.9 89.1,60.7 78.9,54.8 								"/>
								<g id="XMLID_14902_" opacity="0.3">
									<path id="XMLID_14965_" fill="#FFFFFF" d="M81.8,66.3l0,1.4L78.9,66v-1.4L81.8,66.3z M82.3,68v-1.4l2.9,1.7l0,1.4L82.3,68z
										 M85.2,64.3l0,1.4l-2.9-1.7v-1.4L85.2,64.3z M84,63.1v-1.4l2.9,1.7l0,1.4L84,63.1z M83.5,62.8l-2.9-1.7v-1.4l2.9,1.7
										L83.5,62.8z M83.5,65.3l0,1.4L80.6,65v-1.4L83.5,65.3z M86.9,67.2l0,1.4L84,67v-1.4L86.9,67.2z M81.8,62.4l0,1.4l-2.9-1.7
										v-1.4L81.8,62.4z M81.8,58.4l0,1.4l-2.9-1.7v-1.4L81.8,58.4z M85.2,60.4l0,1.4l-2.9-1.7v-1.4L85.2,60.4z M85.7,62.1v-1.4
										l2.9,1.7v1.4L85.7,62.1z M85.7,66v-1.4l2.9,1.7v1.4L85.7,66z M85.7,69.9v-1.4l2.9,1.7v1.4L85.7,69.9z"/>
									<polygon id="XMLID_14964_" points="80.6,55.8 81.4,56.2 80.6,55.8 									"/>
									<polygon id="XMLID_14963_" points="84,57.7 84,57.8 84,57.7 									"/>
									<polygon id="XMLID_14962_" points="80.1,55.5 80.1,56.9 78.9,56.2 78.9,54.8 									"/>
									<polygon id="XMLID_14961_" points="83.5,58.9 80.6,57.2 80.6,55.8 81.4,56.2 83.5,57.5 									"/>
									<polygon id="XMLID_14960_" points="86.9,60.8 84,59.2 84,57.7 84,57.8 86.9,59.4 									"/>
									<polygon id="XMLID_14959_" points="87.4,61.1 87.4,59.7 89.1,60.7 89.1,62.1 									"/>
									<polygon id="XMLID_14958_" points="87.4,68.9 87.4,67.5 89.1,68.5 89.1,69.9 									"/>
									<polygon id="XMLID_14957_" points="87.4,65 87.4,63.6 89.1,64.6 89.1,66 									"/>
									<polygon id="XMLID_14956_" points="85.7,64.6 88.6,66.3 88.6,67.7 85.7,66 									"/>
									<polygon id="XMLID_14955_" points="85.7,68.5 88.6,70.2 88.6,71.6 85.7,69.9 									"/>
									<polygon id="XMLID_14954_" points="82.3,60.1 82.3,58.7 85.2,60.4 85.2,61.8 									"/>
									<polygon id="XMLID_14953_" points="85.7,60.7 88.6,62.3 88.6,63.8 85.7,62.1 									"/>
									<polygon id="XMLID_14952_" points="78.9,58.2 78.9,56.8 81.8,58.4 81.8,59.9 									"/>
									<polygon id="XMLID_14951_" points="86.9,63.3 86.9,64.8 84,63.1 84,61.7 									"/>
									<polygon id="XMLID_14950_" points="82.3,64.1 82.3,62.6 85.2,64.3 85.2,65.7 									"/>
									<polygon id="XMLID_14949_" points="82.3,66.5 85.2,68.2 85.2,69.6 82.3,68 									"/>
									<polygon id="XMLID_14948_" points="86.9,68.7 84,67 84,65.6 86.9,67.2 									"/>
									<polygon id="XMLID_14934_" points="80.1,64.8 78.9,64.1 78.9,62.6 80.1,63.4 									"/>
									<polygon id="XMLID_14927_" points="81.8,67.7 78.9,66 78.9,64.6 81.8,66.3 									"/>
									<polygon id="XMLID_14920_" points="80.1,60.9 78.9,60.2 78.9,58.7 80.1,59.4 									"/>
									<polygon id="XMLID_14907_" points="81.8,63.8 78.9,62.1 78.9,60.7 81.8,62.4 									"/>
									<polygon id="XMLID_14904_" points="83.5,66.7 80.6,65 80.6,63.6 83.5,65.3 									"/>
									<polygon id="XMLID_14903_" points="80.6,59.7 83.5,61.4 83.5,62.8 80.6,61.1 									"/>
								</g>
							</g>
							<line id="XMLID_14900_" fill="#C8C8C8" x1="78.9" y1="54.8" x2="89.1" y2="60.7"/>
							<polygon id="XMLID_14899_" opacity="0.5" fill="#E08F58" points="78.9,67 89.1,72.9 89.1,60.7 78.9,54.8 							"/>
						</g>
						<g id="XMLID_14853_">
							<g id="XMLID_14855_">
								<polygon id="XMLID_14897_" fill="#C8C8C8" points="99.2,66.5 89.1,72.9 89.1,60.7 99.2,54.8 								"/>
								<g id="XMLID_14856_" opacity="0.3">
									<path id="XMLID_14880_" fill="#FFFFFF" d="M99.2,64.6V66l-2.9,1.7l0-1.4L99.2,64.6z M93,69.6l0-1.4l2.9-1.7V68L93,69.6z
										 M95.9,62.6v1.4L93,65.7l0-1.4L95.9,62.6z M91.3,64.8l0-1.4l2.9-1.7v1.4L91.3,64.8z M94.6,61.4l2.9-1.7v1.4l-2.9,1.7
										L94.6,61.4z M97.5,63.6V65l-2.9,1.7l0-1.4L97.5,63.6z M94.2,65.6V67l-2.9,1.7l0-1.4L94.2,65.6z M99.2,60.7v1.4l-2.9,1.7
										l0-1.4L99.2,60.7z M99.2,56.8v1.4l-2.9,1.7l0-1.4L99.2,56.8z M95.9,58.7v1.4L93,61.8l0-1.4L95.9,58.7z M89.6,63.8l0-1.4
										l2.9-1.7v1.4L89.6,63.8z M89.6,67.7l0-1.4l2.9-1.7V66L89.6,67.7z M89.6,71.6l0-1.4l2.9-1.7v1.4L89.6,71.6z"/>
									<polygon id="XMLID_14879_" points="97.5,55.8 96.8,56.2 97.5,55.8 									"/>
									<polygon id="XMLID_14878_" points="94.2,57.7 94.1,57.8 94.2,57.7 									"/>
									<polygon id="XMLID_14877_" points="98,55.5 98,56.9 99.2,56.2 99.2,54.8 									"/>
									<polygon id="XMLID_14876_" points="94.6,58.9 97.5,57.2 97.5,55.8 96.8,56.2 94.6,57.5 									"/>
									<polygon id="XMLID_14875_" points="91.3,60.8 94.2,59.2 94.2,57.7 94.1,57.8 91.3,59.4 									"/>
									<polygon id="XMLID_14874_" points="90.8,61.1 90.8,59.7 89.1,60.7 89.1,62.1 									"/>
									<polygon id="XMLID_14873_" points="90.8,68.9 90.8,67.5 89.1,68.5 89.1,69.9 									"/>
									<polygon id="XMLID_14872_" points="90.8,65 90.8,63.6 89.1,64.6 89.1,66 									"/>
									<polygon id="XMLID_14871_" points="92.5,64.6 89.6,66.3 89.6,67.7 92.5,66 									"/>
									<polygon id="XMLID_14870_" points="92.5,68.5 89.6,70.2 89.6,71.6 92.5,69.9 									"/>
									<polygon id="XMLID_14869_" points="95.9,60.1 95.9,58.7 92.9,60.4 93,61.8 									"/>
									<polygon id="XMLID_14868_" points="92.5,60.7 89.6,62.3 89.6,63.8 92.5,62.1 									"/>
									<polygon id="XMLID_14867_" points="99.2,58.2 99.2,56.8 96.3,58.4 96.3,59.9 									"/>
									<polygon id="XMLID_14866_" points="91.3,63.3 91.3,64.8 94.2,63.1 94.2,61.7 									"/>
									<polygon id="XMLID_14865_" points="95.9,64.1 95.9,62.6 92.9,64.3 93,65.7 									"/>
									<polygon id="XMLID_14864_" points="95.9,66.5 92.9,68.2 93,69.6 95.9,68 									"/>
									<polygon id="XMLID_14863_" points="91.3,68.7 94.2,67 94.2,65.6 91.3,67.2 									"/>
									<polygon id="XMLID_14862_" points="98,64.8 99.3,64.1 99.3,62.6 98,63.4 									"/>
									<polygon id="XMLID_14861_" points="96.3,67.7 99.2,66 99.2,64.6 96.3,66.3 									"/>
									<polygon id="XMLID_14860_" points="98,60.9 99.3,60.2 99.3,58.7 98,59.4 									"/>
									<polygon id="XMLID_14859_" points="96.3,63.8 99.2,62.1 99.2,60.7 96.3,62.4 									"/>
									<polygon id="XMLID_14858_" points="94.6,66.7 97.5,65 97.5,63.6 94.6,65.3 									"/>
									<polygon id="XMLID_14857_" points="97.5,59.7 94.6,61.4 94.6,62.8 97.5,61.1 									"/>
								</g>
							</g>
							<polygon id="XMLID_14854_" opacity="0.5" fill="#93430C" points="99.2,66.5 89.1,72.9 89.1,60.7 99.2,54.8 							"/>
						</g>
					</g>
				</g>
				<polygon id="XMLID_14849_" fill="#FFCFAE" points="94.2,61.2 89.1,58.3 84,61.2 84,61.2 84,61.2 89.1,64.2 94.2,61.2 94.2,61.2 
									"/>
			</g>
			<polygon id="XMLID_14847_" opacity="0.8" points="92.4,61.2 89.1,59.3 85.8,61.2 85.8,61.2 85.8,61.2 89.1,63.1 92.4,61.2 
				92.4,61.2 			"/>
		</g>
		<polygon id="XMLID_14845_" opacity="0.2" fill="#272525" points="89.1,72.5 84,69.6 84.6,73.6 89.8,76.5 94.8,73.7 94.2,69.6 		
			"/>
	</g>
</g>
</svg>
