<?xml version="1.0" encoding="utf-8"?>
<!-- Generator: Adobe Illustrator 16.0.0, SVG Export Plug-In . SVG Version: 6.00 Build 0)  -->
<!DOCTYPE svg PUBLIC "-//W3C//DTD SVG 1.1//EN" "http://www.w3.org/Graphics/SVG/1.1/DTD/svg11.dtd">
<svg version="1.1" id="Layer_1" xmlns="http://www.w3.org/2000/svg" xmlns:xlink="http://www.w3.org/1999/xlink" x="0px" y="0px"
	 width="164px" height="164px" viewBox="0 0 164 164" enable-background="new 0 0 164 164" xml:space="preserve">
<g id="XMLID_16879_">
	<g id="XMLID_16883_">
		<path id="XMLID_16921_" fill="#FFFFFF" d="M77.7,70.1l-11.2-6.2c-0.2-0.1-0.3-0.4-0.2-0.6l8.4-14.5c0.1-0.2,0.4-0.3,0.6-0.1
			l11.2,6.2c0.2,0.1,0.3,0.4,0.2,0.6L78.2,70C78.1,70.2,77.9,70.3,77.7,70.1z"/>
		<path id="XMLID_16920_" fill="#CECECE" d="M77.6,70.1l-11.2-6.2c-0.2-0.1-0.3-0.4-0.2-0.6l8.4-14.5c0.1-0.2,0.4-0.3,0.6-0.1
			l11.2,6.2c0.2,0.1,0.3,0.4,0.2,0.6L78.2,70C78.1,70.2,77.8,70.2,77.6,70.1z"/>
		<path id="XMLID_16919_" fill="#003B70" stroke="#9CDDF7" stroke-width="0.2" stroke-miterlimit="10" d="M76,49.5l1.9,1
			c0.5,0.3,0.7,0.9,0.5,1.4l-1.9,3.2c-0.3,0.5-1,0.6-1.5,0.3l-1.9-1c-0.5-0.3-0.8-0.9-0.5-1.4l1.9-3.2C74.8,49.3,75.5,49.2,76,49.5z
			"/>
		<path id="XMLID_16914_" fill="#003B70" stroke="#9CDDF7" stroke-width="0.2" stroke-miterlimit="10" d="M79.9,51.6l1.8,1
			c0.5,0.3,0.7,0.9,0.4,1.4l-1.9,3.2c-0.3,0.5-1,0.6-1.5,0.3l-1.8-1c-0.5-0.3-0.8-0.9-0.5-1.4l1.9-3.2
			C78.6,51.5,79.3,51.3,79.9,51.6z"/>
		<path id="XMLID_16913_" fill="#003B70" stroke="#9CDDF7" stroke-width="0.2" stroke-miterlimit="10" d="M83.7,53.7l1.8,1
			c0.5,0.3,0.7,0.9,0.4,1.4L84,59.3c-0.3,0.5-0.9,0.6-1.5,0.3l-1.8-1c-0.5-0.3-0.7-0.9-0.5-1.4l1.9-3.2
			C82.4,53.5,83.1,53.4,83.7,53.7z"/>
		<path id="XMLID_16912_" fill="#003B70" stroke="#9CDDF7" stroke-width="0.2" stroke-miterlimit="10" d="M73.1,54.5l1.9,1
			c0.5,0.3,0.8,0.9,0.5,1.4l-1.8,3.1c-0.3,0.5-0.9,0.6-1.5,0.3l-1.9-1c-0.6-0.3-0.8-0.9-0.5-1.4l1.8-3.1
			C71.8,54.3,72.5,54.2,73.1,54.5z"/>
		<path id="XMLID_16910_" fill="#003B70" stroke="#9CDDF7" stroke-width="0.2" stroke-miterlimit="10" d="M76.9,56.6l1.8,1
			c0.5,0.3,0.7,0.9,0.5,1.4l-1.8,3.1c-0.3,0.5-0.9,0.6-1.5,0.3l-1.8-1c-0.5-0.3-0.8-0.9-0.5-1.4l1.8-3.1
			C75.7,56.4,76.4,56.3,76.9,56.6z"/>
		<path id="XMLID_16909_" fill="#003B70" stroke="#9CDDF7" stroke-width="0.2" stroke-miterlimit="10" d="M80.7,58.7l1.8,1
			c0.5,0.3,0.7,0.9,0.4,1.4l-1.8,3.2c-0.3,0.5-0.9,0.6-1.5,0.3l-1.8-1c-0.5-0.3-0.7-0.9-0.5-1.4l1.8-3.1
			C79.5,58.5,80.2,58.4,80.7,58.7z"/>
		<path id="XMLID_16906_" fill="#003B70" stroke="#9CDDF7" stroke-width="0.2" stroke-miterlimit="10" d="M70.2,59.4l1.9,1
			c0.5,0.3,0.8,0.9,0.5,1.4l-1.8,3.1c-0.3,0.5-0.9,0.6-1.5,0.3l-1.9-1c-0.6-0.3-0.8-0.9-0.5-1.4l1.8-3.1
			C69,59.2,69.7,59.1,70.2,59.4z"/>
		<path id="XMLID_16893_" fill="#003B70" stroke="#9CDDF7" stroke-width="0.2" stroke-miterlimit="10" d="M74,61.5l1.8,1
			c0.5,0.3,0.8,0.9,0.5,1.4L74.6,67c-0.3,0.5-0.9,0.6-1.5,0.3l-1.9-1c-0.5-0.3-0.8-0.9-0.5-1.4l1.8-3.1C72.8,61.3,73.5,61.2,74,61.5
			z"/>
		<path id="XMLID_16892_" fill="#003B70" stroke="#9CDDF7" stroke-width="0.2" stroke-miterlimit="10" d="M77.8,63.6l1.8,1
			c0.5,0.3,0.7,0.9,0.5,1.4L78.3,69c-0.3,0.5-0.9,0.6-1.4,0.3l-1.8-1c-0.5-0.3-0.8-0.9-0.5-1.4l1.8-3.1
			C76.6,63.4,77.3,63.3,77.8,63.6z"/>
		
			<line id="XMLID_16891_" opacity="0.5" fill="none" stroke="#9CDDF7" stroke-width="0.2" stroke-miterlimit="10" x1="66.9" y1="62.8" x2="78.2" y2="69"/>
		
			<line id="XMLID_16890_" opacity="0.5" fill="none" stroke="#9CDDF7" stroke-width="0.2" stroke-miterlimit="10" x1="79.9" y1="51.6" x2="71.3" y2="66.3"/>
		
			<line id="XMLID_16889_" opacity="0.5" fill="none" stroke="#9CDDF7" stroke-width="0.2" stroke-miterlimit="10" x1="77.9" y1="50.5" x2="69.3" y2="65.2"/>
		
			<line id="XMLID_16888_" opacity="0.5" fill="none" stroke="#9CDDF7" stroke-width="0.2" stroke-miterlimit="10" x1="83.7" y1="53.7" x2="75.1" y2="68.3"/>
		
			<line id="XMLID_16887_" opacity="0.5" fill="none" stroke="#9CDDF7" stroke-width="0.2" stroke-miterlimit="10" x1="81.7" y1="52.6" x2="73.1" y2="67.3"/>
		
			<line id="XMLID_16886_" opacity="0.5" fill="none" stroke="#9CDDF7" stroke-width="0.2" stroke-miterlimit="10" x1="76" y1="49.5" x2="67.4" y2="64.2"/>
		<polyline id="XMLID_16885_" opacity="0.5" fill="none" stroke="#9CDDF7" stroke-width="0.2" stroke-miterlimit="10" points="
			82.8,61 71.6,54.8 69.7,58 81,64.2 		"/>
		<polyline id="XMLID_16884_" opacity="0.5" fill="none" stroke="#9CDDF7" stroke-width="0.2" stroke-miterlimit="10" points="
			85.8,56 74.5,49.8 72.6,53.1 83.9,59.2 		"/>
	</g>
	
		<line id="XMLID_16882_" opacity="0.5" fill="none" stroke="#9CDDF7" stroke-width="0.2" stroke-miterlimit="10" x1="69.7" y1="58" x2="81" y2="64.2"/>
	
		<line id="XMLID_16881_" opacity="0.5" fill="none" stroke="#9CDDF7" stroke-width="0.2" stroke-miterlimit="10" x1="76.9" y1="69.3" x2="85.5" y2="54.7"/>
	
		<line id="XMLID_16880_" opacity="0.5" fill="none" stroke="#9CDDF7" stroke-width="0.2" stroke-miterlimit="10" x1="68.8" y1="59.8" x2="80.1" y2="66"/>
</g>
</svg>
