<?xml version="1.0" encoding="utf-8"?>
<!-- Generator: Adobe Illustrator 16.0.0, SVG Export Plug-In . SVG Version: 6.00 Build 0)  -->
<!DOCTYPE svg PUBLIC "-//W3C//DTD SVG 1.1//EN" "http://www.w3.org/Graphics/SVG/1.1/DTD/svg11.dtd">
<svg version="1.1" id="Layer_1" xmlns="http://www.w3.org/2000/svg" xmlns:xlink="http://www.w3.org/1999/xlink" x="0px" y="0px"
	 width="164px" height="164px" viewBox="0 0 164 164" enable-background="new 0 0 164 164" xml:space="preserve">
<g id="XMLID_17171_">
	<g id="XMLID_17180_">
		<g id="XMLID_17192_">
			<g id="XMLID_17198_">
				<g id="XMLID_17205_">
					<polygon fill="#D1BE6F" points="80.9,68.2 83.1,67 90.4,71.2 88.3,72.4 					"/>
					<path fill="#918243" d="M83.1,67l7.3,4.2l-2.1,1.2L81,68.2L83.1,67 M83.1,66.9l-2.2,1.2l7.4,4.3l2.2-1.2L83.1,66.9L83.1,66.9z"
						/>
				</g>
				<polygon id="XMLID_17204_" fill="#D1BE6F" stroke="#918243" stroke-width="0.1" stroke-miterlimit="10" points="78.7,69.4 
					80.9,68.2 88.3,72.4 86.1,73.7 				"/>
				<g id="XMLID_17203_">
					<polygon fill="#D1BE6F" points="75.1,67.3 77.2,66.1 84.6,70.3 82.4,71.5 					"/>
					<path fill="#918243" d="M77.2,66.1l7.3,4.2l-2.1,1.2l-7.3-4.2L77.2,66.1 M77.2,66.1L75,67.3l7.4,4.3l2.2-1.2L77.2,66.1
						L77.2,66.1z"/>
				</g>
				<g id="XMLID_17202_">
					<polygon fill="#D1BE6F" points="82.4,71.5 84.6,70.3 92,74.6 89.8,75.8 					"/>
					<path fill="#918243" d="M84.6,70.4l7.3,4.2l-2.1,1.2l-7.3-4.2L84.6,70.4 M84.6,70.3l-2.2,1.2l7.4,4.3l2.2-1.2L84.6,70.3
						L84.6,70.3z"/>
				</g>
				<g id="XMLID_17201_">
					<polygon fill="#D1BE6F" points="88.3,72.4 90.4,71.2 97.8,75.5 95.7,76.7 					"/>
					<path fill="#918243" d="M90.4,71.3l7.3,4.2l-2.1,1.2l-7.3-4.2L90.4,71.3 M90.4,71.2l-2.2,1.2l7.4,4.3l2.2-1.2L90.4,71.2
						L90.4,71.2z"/>
				</g>
				<g id="XMLID_17200_">
					<polygon fill="#D1BE6F" points="76.6,70.7 78.7,69.5 86.1,73.7 83.9,74.9 					"/>
					<path fill="#918243" d="M78.7,69.5l7.3,4.2l-2.1,1.2l-7.3-4.2L78.7,69.5 M78.7,69.4l-2.2,1.2l7.4,4.3l2.2-1.2L78.7,69.4
						L78.7,69.4z"/>
				</g>
				<g id="XMLID_17199_">
					<polygon fill="#D1BE6F" points="84,74.9 86.1,73.7 93.5,78 91.3,79.2 					"/>
					<path fill="#918243" d="M86.1,73.8l7.3,4.2l-2.1,1.2L84,74.9L86.1,73.8 M86.1,73.7l-2.2,1.2l7.4,4.3l2.2-1.2L86.1,73.7
						L86.1,73.7z"/>
				</g>
			</g>
			<g id="XMLID_17197_">
				<polygon fill="#D1BE6F" points="89.8,75.8 92,74.6 95.6,76.7 93.5,77.9 				"/>
				<path fill="#918243" d="M92,74.6l3.6,2.1l-2.1,1.2l-3.6-2.1L92,74.6 M92,74.6l-2.2,1.2l3.7,2.1l2.2-1.2L92,74.6L92,74.6z"/>
			</g>
			<g id="XMLID_17196_">
				<polygon fill="#D1BE6F" points="72.9,68.5 75,67.3 78.7,69.5 76.6,70.6 				"/>
				<path fill="#918243" d="M75,67.4l3.6,2.1l-2.1,1.2L73,68.5L75,67.4 M75,67.3l-2.2,1.2l3.7,2.1l2.2-1.2L75,67.3L75,67.3z"/>
			</g>
			<g id="XMLID_17195_">
				<polygon fill="#D1BE6F" points="77.2,66 79.4,64.8 83,67 80.9,68.2 				"/>
				<path fill="#918243" d="M79.4,64.9l3.6,2.1l-2.1,1.2l-3.6-2.1L79.4,64.9 M79.4,64.8l-2.1,1.3l3.7,2.1l2.2-1.2L79.4,64.8
					L79.4,64.8z"/>
			</g>
			<polygon id="XMLID_17194_" opacity="0.2" points="79.9,65.1 79.9,65.1 79.4,64.8 78.9,65.1 78.9,65.1 72.9,68.6 73.4,68.8 
				79.4,65.4 97.3,75.8 97.8,75.5 			"/>
			<polygon id="XMLID_17193_" opacity="0.2" points="79.4,65.4 79.4,64.8 72.9,68.5 73.4,68.8 			"/>
		</g>
		<polygon id="XMLID_17191_" fill="#2B2927" points="95.9,74.3 89.3,78.1 91.3,79.3 97.9,75.5 		"/>
		<path id="XMLID_17190_" opacity="0.8" fill="#1C1C1C" d="M77.2,62.7l-8,3.3c0.8,0.8,2.1,1.7,3.6,2.5l6.5-3.7
			C78.4,64,77.3,63,77.2,62.7z"/>
		<g id="XMLID_17182_">
			<path id="XMLID_17189_" fill="#3A3735" d="M76.8,60.1c-0.7-0.3-1.3-0.2-1.7,0.1l0,0l-6.2,3.4c0,0,0,0,0,0l0,0l0,0
				c-0.2,0.1-0.4,0.3-0.5,0.6c-0.2,0.7,0.4,1.6,1.4,2.1c0.6,0.3,1.3,0.3,1.7,0.1l0,0l5.8-3.3c0.3,0,0.6-0.2,0.7-0.4l0,0l0,0
				c0.1-0.1,0.1-0.2,0.1-0.3C78.3,61.5,77.7,60.5,76.8,60.1z"/>
			<path id="XMLID_17188_" opacity="0.2" fill="#FFFFFF" d="M71.8,65.8c-0.2,0.8-1.1,1-2.1,0.5c-1-0.5-1.6-1.4-1.4-2.1
				s1.1-1,2.1-0.6C71.4,64,72,65,71.8,65.8z"/>
			<path id="XMLID_17187_" opacity="0.1" fill="#FFFFFF" d="M70,63.5l6.3-3.5c-0.5-0.1-1-0.1-1.3,0.2l0,0l-6.2,3.4
				C69.2,63.4,69.6,63.4,70,63.5z"/>
			<path id="XMLID_17186_" fill="#2B2927" d="M78.2,62l-6.3,3.5c0,0.1,0,0.2,0,0.3c-0.1,0.2-0.2,0.4-0.4,0.6l0,0l5.9-3.2
				c0,0,0.5-0.3,0.7-0.6l0,0l0,0c0.1-0.1,0.1-0.2,0.1-0.3C78.1,62.2,78.2,62.1,78.2,62z"/>
			<path id="XMLID_17185_" opacity="0.4" fill="#3A3735" stroke="#FFFFFF" stroke-width="0.1" stroke-miterlimit="10" d="M71,65.6
				c-0.1,0.3-0.6,0.3-1,0.1c-0.4-0.2-0.7-0.7-0.6-0.9c0.1-0.3,0.6-0.3,1-0.1C70.9,64.9,71.1,65.3,71,65.6z"/>
			<path id="XMLID_17184_" opacity="0.2" fill="none" stroke="#FFFFFF" stroke-width="0.1" stroke-miterlimit="10" d="M71.4,66
				c-0.3,0.6-1.2,0.5-1.9,0c-0.7-0.5-1.1-1.4-0.8-1.9c0.3-0.5,1.2-0.5,1.9,0C71.4,64.6,71.8,65.5,71.4,66z"/>
			<path id="XMLID_17183_" opacity="0.2" fill="#3A3735" stroke="#FFFFFF" stroke-width="0.1" stroke-miterlimit="10" d="M71.2,65.8
				c-0.3,0.4-0.9,0.4-1.6-0.1c-0.6-0.4-0.9-1.1-0.7-1.5c0.2-0.4,0.9-0.4,1.6,0C71.2,64.7,71.5,65.4,71.2,65.8z"/>
		</g>
		<path id="XMLID_17181_" opacity="4.000000e-002" fill="#FFFFFF" d="M76.4,60.2c0,0,0.8,0.2,1,0.7c0,0-1.9,0.3-6.1,2.1L76.4,60.2z"
			/>
	</g>
	<g id="XMLID_17176_">
		<g id="XMLID_17179_">
			<polygon fill="#918243" points="89.3,74.5 89.2,74.1 97,67.9 97.1,68.3 91.8,74.9 			"/>
			<path fill="#918243" d="M97,68l0.1,0.3l-5.3,6.6l-2.4-0.4l-0.1-0.3L97,68 M97,67.9l-7.8,6.2l0.1,0.4l2.5,0.4l5.4-6.6L97,67.9
				L97,67.9z"/>
		</g>
		<g id="XMLID_17178_">
			<polygon fill="#D1BE6F" points="89.2,74.1 94.6,67.5 97,67.9 91.6,74.5 			"/>
			<path fill="#918243" d="M94.6,67.6l2.4,0.4l-5.3,6.5l-2.4-0.4L94.6,67.6 M94.5,67.5l-5.3,6.6l2.5,0.4l5.4-6.6L94.5,67.5
				L94.5,67.5z"/>
		</g>
		<polygon id="XMLID_17177_" fill="#665B2B" stroke="#665B2B" stroke-width="5.000000e-002" stroke-miterlimit="10" points="
			97,67.9 97.1,68.3 91.8,74.9 91.7,74.5 		"/>
	</g>
	<g id="XMLID_17172_">
		<g id="XMLID_17175_">
			<polygon fill="#918243" points="90.5,74 90.5,73.6 99.8,69.9 99.7,70.3 92.7,75.1 			"/>
			<path fill="#918243" d="M99.7,70l0,0.3l-7,4.8L90.5,74l0-0.3L99.7,70 M99.7,69.9l-9.3,3.7l0,0.4l2.2,1.1l7-4.8L99.7,69.9
				L99.7,69.9z"/>
		</g>
		<g id="XMLID_17174_">
			<polygon fill="#D1BE6F" points="90.5,73.6 97.5,68.8 99.7,69.9 92.7,74.7 			"/>
			<path fill="#918243" d="M97.5,68.9l2.1,1l-6.9,4.7l-2.1-1L97.5,68.9 M97.5,68.8l-7,4.8l2.3,1.1l7-4.8L97.5,68.8L97.5,68.8z"/>
		</g>
		<polygon id="XMLID_17173_" fill="#665B2B" stroke="#665B2B" stroke-width="5.000000e-002" stroke-miterlimit="10" points="
			99.7,69.9 99.8,70.3 92.7,75.1 92.7,74.7 		"/>
	</g>
</g>
</svg>
