<?xml version="1.0" encoding="utf-8"?>
<!-- Generator: Adobe Illustrator 16.0.0, SVG Export Plug-In . SVG Version: 6.00 Build 0)  -->
<!DOCTYPE svg PUBLIC "-//W3C//DTD SVG 1.1//EN" "http://www.w3.org/Graphics/SVG/1.1/DTD/svg11.dtd">
<svg version="1.1" id="Layer_1" xmlns="http://www.w3.org/2000/svg" xmlns:xlink="http://www.w3.org/1999/xlink" x="0px" y="0px"
	 width="164px" height="164px" viewBox="0 0 164 164" enable-background="new 0 0 164 164" xml:space="preserve">
<g id="XMLID_17537_">
	<path id="XMLID_17574_" opacity="0.2" d="M88.3,67.3L82,71l2.3,1.4l0.4,1.1l2.9,1.8c0.1,0.1,0.9,0.5,1,0.5l6.5-3.7
		c0.1-0.1,0.2-0.2,0.1-0.3L88.3,67.3z"/>
	<g id="XMLID_17563_">
		<g id="XMLID_17569_">
			<polygon id="XMLID_17573_" fill="#66574C" points="83.4,70 83.4,70 82.9,69.7 82.9,71.5 82.9,71.5 83.4,71.8 			"/>
			<polygon id="XMLID_17572_" fill="#493E36" points="83.4,70 83.4,70 83.9,69.7 83.9,71.5 83.9,71.5 83.4,71.8 			"/>
			<polygon id="XMLID_17571_" fill="#AFA28B" points="83.4,70 83.9,69.7 83.4,69.4 82.9,69.7 83.4,70 83.4,70 83.4,70 83.4,70 			
				"/>
			<line id="XMLID_17570_" fill="#AFA28B" x1="83.4" y1="69.4" x2="82.9" y2="69.7"/>
		</g>
		<g id="XMLID_17564_">
			<polygon id="XMLID_17568_" fill="#66574C" points="87.3,73.3 87.3,73.3 86.8,73 86.8,74.8 86.8,74.8 87.3,75.1 			"/>
			<polygon id="XMLID_17567_" fill="#493E36" points="87.3,73.3 87.3,73.3 87.9,73 87.9,74.8 87.9,74.8 87.3,75.1 			"/>
			<polygon id="XMLID_17566_" fill="#AFA28B" points="87.3,73.3 87.9,73 87.3,72.7 86.8,73 87.3,73.3 87.3,73.3 87.3,73.3 
				87.3,73.3 			"/>
			<line id="XMLID_17565_" fill="#AFA28B" x1="87.3" y1="72.7" x2="86.8" y2="73"/>
		</g>
	</g>
	<g id="XMLID_17538_">
		<g id="XMLID_17542_">
			<path id="XMLID_17562_" fill="#FFFFFF" d="M88.7,75.7l6.4-3.6c0.1-0.1,0.2-0.2,0.1-0.3L88.8,65c-0.1-0.1-0.3-0.1-0.4,0L82,68.6
				c-0.1,0.1-0.1,0.2-0.1,0.3l6.3,6.7C88.4,75.8,88.6,75.8,88.7,75.7z"/>
			<path id="XMLID_17561_" fill="#CECECE" d="M88.7,75.7l6.4-3.6c0.1-0.1,0.2-0.2,0.1-0.3L88.8,65c-0.1-0.1-0.3-0.1-0.4,0l-6.4,3.6
				c-0.1,0.1-0.1,0.2-0.1,0.3l6.3,6.7C88.4,75.7,88.6,75.8,88.7,75.7z"/>
			<path id="XMLID_17560_" fill="#003B70" stroke="#9CDDF7" stroke-width="0.2" stroke-miterlimit="10" d="M88,65.4L86.9,66
				c-0.3,0.2-0.4,0.5-0.2,0.7l1.4,1.5c0.2,0.2,0.6,0.3,1,0.1l1.1-0.6c0.3-0.2,0.4-0.5,0.2-0.7L89,65.5C88.8,65.3,88.3,65.2,88,65.4z
				"/>
			<path id="XMLID_17559_" fill="#003B70" stroke="#9CDDF7" stroke-width="0.2" stroke-miterlimit="10" d="M85.8,66.6l-1.1,0.6
				c-0.3,0.2-0.4,0.5-0.2,0.7l1.4,1.5c0.2,0.2,0.6,0.3,0.9,0.1L88,69c0.3-0.2,0.4-0.5,0.2-0.7l-1.4-1.5
				C86.6,66.5,86.1,66.5,85.8,66.6z"/>
			<path id="XMLID_17558_" fill="#003B70" stroke="#9CDDF7" stroke-width="0.2" stroke-miterlimit="10" d="M83.7,67.9l-1,0.6
				c-0.3,0.2-0.4,0.5-0.1,0.7l1.4,1.5c0.2,0.2,0.6,0.3,0.9,0.1l1-0.6c0.3-0.2,0.4-0.5,0.2-0.7L84.6,68C84.4,67.7,84,67.7,83.7,67.9z
				"/>
			<path id="XMLID_17557_" fill="#003B70" stroke="#9CDDF7" stroke-width="0.2" stroke-miterlimit="10" d="M90.2,67.7l-1.1,0.6
				c-0.3,0.2-0.4,0.5-0.2,0.7l1.4,1.5c0.2,0.2,0.6,0.3,0.9,0.1l1.1-0.6c0.3-0.2,0.4-0.5,0.2-0.7l-1.4-1.5
				C91,67.6,90.5,67.5,90.2,67.7z"/>
			<path id="XMLID_17555_" fill="#003B70" stroke="#9CDDF7" stroke-width="0.2" stroke-miterlimit="10" d="M88,69L87,69.6
				c-0.3,0.2-0.4,0.5-0.2,0.7l1.4,1.5c0.2,0.2,0.6,0.3,0.9,0.1l1.1-0.6c0.3-0.2,0.4-0.5,0.2-0.7L89,69.1C88.8,68.8,88.3,68.8,88,69z
				"/>
			<path id="XMLID_17554_" fill="#003B70" stroke="#9CDDF7" stroke-width="0.2" stroke-miterlimit="10" d="M85.9,70.2l-1,0.6
				c-0.3,0.2-0.4,0.5-0.2,0.7l1.4,1.5c0.2,0.2,0.6,0.3,0.9,0.1l1-0.6c0.3-0.2,0.4-0.5,0.2-0.7l-1.4-1.5C86.6,70.1,86.2,70,85.9,70.2
				z"/>
			<path id="XMLID_17553_" fill="#003B70" stroke="#9CDDF7" stroke-width="0.2" stroke-miterlimit="10" d="M92.4,70l-1.1,0.6
				c-0.3,0.2-0.4,0.5-0.2,0.7l1.4,1.4c0.2,0.2,0.6,0.3,0.9,0.1l1.1-0.6c0.3-0.2,0.4-0.5,0.2-0.7l-1.4-1.4
				C93.1,69.9,92.7,69.8,92.4,70z"/>
			<path id="XMLID_17552_" fill="#003B70" stroke="#9CDDF7" stroke-width="0.2" stroke-miterlimit="10" d="M90.2,71.2l-1.1,0.6
				c-0.3,0.2-0.4,0.5-0.2,0.7l1.4,1.4c0.2,0.2,0.6,0.3,0.9,0.1l1.1-0.6c0.3-0.2,0.4-0.5,0.2-0.7l-1.4-1.4
				C90.9,71.1,90.5,71.1,90.2,71.2z"/>
			<path id="XMLID_17551_" fill="#003B70" stroke="#9CDDF7" stroke-width="0.2" stroke-miterlimit="10" d="M88,72.5L87,73
				c-0.3,0.2-0.4,0.5-0.2,0.7l1.4,1.4c0.2,0.2,0.6,0.3,0.9,0.1l1-0.6c0.3-0.2,0.4-0.5,0.2-0.7L89,72.5C88.8,72.3,88.3,72.3,88,72.5z
				"/>
			
				<line id="XMLID_17550_" opacity="0.5" fill="none" stroke="#9CDDF7" stroke-width="0.2" stroke-miterlimit="10" x1="94.7" y1="71.5" x2="88.2" y2="75.1"/>
			
				<line id="XMLID_17549_" opacity="0.5" fill="none" stroke="#9CDDF7" stroke-width="0.2" stroke-miterlimit="10" x1="85.8" y1="66.6" x2="92.3" y2="73.5"/>
			
				<line id="XMLID_17548_" opacity="0.5" fill="none" stroke="#9CDDF7" stroke-width="0.2" stroke-miterlimit="10" x1="86.9" y1="66" x2="93.4" y2="72.8"/>
			
				<line id="XMLID_17547_" opacity="0.5" fill="none" stroke="#9CDDF7" stroke-width="0.2" stroke-miterlimit="10" x1="83.7" y1="67.9" x2="90.1" y2="74.7"/>
			
				<line id="XMLID_17546_" opacity="0.5" fill="none" stroke="#9CDDF7" stroke-width="0.2" stroke-miterlimit="10" x1="84.8" y1="67.2" x2="91.2" y2="74.1"/>
			
				<line id="XMLID_17545_" opacity="0.5" fill="none" stroke="#9CDDF7" stroke-width="0.2" stroke-miterlimit="10" x1="88" y1="65.4" x2="94.5" y2="72.2"/>
			<polyline id="XMLID_17544_" opacity="0.5" fill="none" stroke="#9CDDF7" stroke-width="0.2" stroke-miterlimit="10" points="
				84.8,71.4 91.2,67.8 92.6,69.3 86.1,72.9 			"/>
			<polyline id="XMLID_17543_" opacity="0.5" fill="none" stroke="#9CDDF7" stroke-width="0.2" stroke-miterlimit="10" points="
				82.5,69.1 89,65.5 90.4,67 84,70.6 			"/>
		</g>
		
			<line id="XMLID_17541_" opacity="0.5" fill="none" stroke="#9CDDF7" stroke-width="0.2" stroke-miterlimit="10" x1="92.6" y1="69.3" x2="86.1" y2="72.9"/>
		
			<line id="XMLID_17540_" opacity="0.5" fill="none" stroke="#9CDDF7" stroke-width="0.2" stroke-miterlimit="10" x1="89.1" y1="75.3" x2="82.6" y2="68.5"/>
		
			<line id="XMLID_17539_" opacity="0.5" fill="none" stroke="#9CDDF7" stroke-width="0.2" stroke-miterlimit="10" x1="93.2" y1="70.1" x2="86.8" y2="73.8"/>
	</g>
</g>
<g id="XMLID_17500_">
	<path id="XMLID_17536_" opacity="0.2" d="M96.5,62.6l-6.3,3.6l2.3,1.4l0.4,1.1l2.9,1.8c0.1,0.1,0.9,0.5,1,0.5l6.5-3.7
		c0.1-0.1,0.2-0.2,0-0.3L96.5,62.6z"/>
	<g id="XMLID_17525_">
		<g id="XMLID_17531_">
			<polygon id="XMLID_17535_" fill="#66574C" points="91.6,65.3 91.6,65.3 91.1,65 91.1,66.8 91.1,66.8 91.6,67.1 			"/>
			<polygon id="XMLID_17534_" fill="#493E36" points="91.6,65.3 91.6,65.3 92.1,65 92.1,66.8 92.1,66.8 91.6,67.1 			"/>
			<polygon id="XMLID_17533_" fill="#AFA28B" points="91.6,65.3 92.1,65 91.6,64.7 91.1,65 91.6,65.3 91.6,65.3 91.6,65.3 
				91.6,65.3 			"/>
			<line id="XMLID_17532_" fill="#AFA28B" x1="91.6" y1="64.7" x2="91.1" y2="65"/>
		</g>
		<g id="XMLID_17526_">
			<polygon id="XMLID_17530_" fill="#66574C" points="95.5,68.6 95.5,68.6 95,68.3 95,70.1 95,70.1 95.5,70.4 			"/>
			<polygon id="XMLID_17529_" fill="#493E36" points="95.5,68.6 95.5,68.6 96,68.3 96,70.1 96,70.1 95.5,70.4 			"/>
			<polygon id="XMLID_17528_" fill="#AFA28B" points="95.5,68.6 96,68.3 95.5,68 95,68.3 95.5,68.6 95.5,68.6 95.5,68.6 95.5,68.6 
							"/>
			<line id="XMLID_17527_" fill="#AFA28B" x1="95.5" y1="68" x2="95" y2="68.3"/>
		</g>
	</g>
	<g id="XMLID_17501_">
		<g id="XMLID_17505_">
			<path id="XMLID_17524_" fill="#FFFFFF" d="M96.8,71l6.4-3.6c0.1-0.1,0.2-0.2,0.1-0.3L97,60.3c-0.1-0.1-0.3-0.1-0.4,0l-6.4,3.6
				c-0.1,0.1-0.1,0.2-0.1,0.3l6.3,6.7C96.6,71.1,96.7,71.1,96.8,71z"/>
			<path id="XMLID_17523_" fill="#CECECE" d="M96.9,71l6.4-3.6c0.1-0.1,0.2-0.2,0.1-0.3L97,60.3c-0.1-0.1-0.3-0.1-0.4,0l-6.4,3.6
				c-0.1,0.1-0.1,0.2-0.1,0.3l6.3,6.7C96.6,71,96.7,71,96.9,71z"/>
			<path id="XMLID_17522_" fill="#003B70" stroke="#9CDDF7" stroke-width="0.2" stroke-miterlimit="10" d="M96.2,60.7l-1.1,0.6
				c-0.3,0.2-0.4,0.5-0.2,0.7l1.4,1.5c0.2,0.2,0.6,0.3,1,0.1l1.1-0.6c0.3-0.2,0.4-0.5,0.2-0.7l-1.4-1.5
				C96.9,60.6,96.5,60.5,96.2,60.7z"/>
			<path id="XMLID_17521_" fill="#003B70" stroke="#9CDDF7" stroke-width="0.2" stroke-miterlimit="10" d="M94,61.9l-1.1,0.6
				c-0.3,0.2-0.4,0.5-0.2,0.7l1.4,1.5c0.2,0.2,0.6,0.3,0.9,0.1l1.1-0.6c0.3-0.2,0.4-0.5,0.2-0.7L94.9,62
				C94.7,61.8,94.3,61.8,94,61.9z"/>
			<path id="XMLID_17520_" fill="#003B70" stroke="#9CDDF7" stroke-width="0.2" stroke-miterlimit="10" d="M91.8,63.2l-1,0.6
				c-0.3,0.2-0.4,0.5-0.1,0.7l1.4,1.5c0.2,0.2,0.6,0.3,0.9,0.1l1-0.6c0.3-0.2,0.4-0.5,0.2-0.7l-1.4-1.5C92.5,63,92.1,63,91.8,63.2z"
				/>
			<path id="XMLID_17519_" fill="#003B70" stroke="#9CDDF7" stroke-width="0.2" stroke-miterlimit="10" d="M98.4,63l-1.1,0.6
				c-0.3,0.2-0.4,0.5-0.2,0.7l1.4,1.5c0.2,0.2,0.6,0.3,0.9,0.1l1.1-0.6c0.3-0.2,0.4-0.5,0.2-0.7l-1.4-1.5
				C99.1,62.9,98.7,62.8,98.4,63z"/>
			<path id="XMLID_17518_" fill="#003B70" stroke="#9CDDF7" stroke-width="0.2" stroke-miterlimit="10" d="M96.2,64.2l-1.1,0.6
				c-0.3,0.2-0.4,0.5-0.2,0.7l1.4,1.5c0.2,0.2,0.6,0.3,0.9,0.1l1.1-0.6c0.3-0.2,0.4-0.5,0.2-0.7l-1.4-1.5
				C96.9,64.1,96.5,64.1,96.2,64.2z"/>
			<path id="XMLID_17517_" fill="#003B70" stroke="#9CDDF7" stroke-width="0.2" stroke-miterlimit="10" d="M94,65.5l-1,0.6
				c-0.3,0.2-0.4,0.5-0.2,0.7l1.4,1.5c0.2,0.2,0.6,0.3,0.9,0.1l1-0.6c0.3-0.2,0.4-0.5,0.2-0.7L95,65.6C94.8,65.3,94.3,65.3,94,65.5z
				"/>
			<path id="XMLID_17516_" fill="#003B70" stroke="#9CDDF7" stroke-width="0.2" stroke-miterlimit="10" d="M100.5,65.3l-1.1,0.6
				c-0.3,0.2-0.4,0.5-0.2,0.7l1.4,1.4c0.2,0.2,0.6,0.2,0.9,0.1l1.1-0.6c0.3-0.2,0.4-0.5,0.2-0.7l-1.4-1.4
				C101.3,65.1,100.9,65.1,100.5,65.3z"/>
			<path id="XMLID_17515_" fill="#003B70" stroke="#9CDDF7" stroke-width="0.2" stroke-miterlimit="10" d="M98.4,66.5l-1.1,0.6
				c-0.3,0.2-0.4,0.5-0.2,0.7l1.4,1.4c0.2,0.2,0.6,0.3,0.9,0.1l1.1-0.6c0.3-0.2,0.4-0.5,0.2-0.7l-1.4-1.4
				C99.1,66.4,98.7,66.3,98.4,66.5z"/>
			<path id="XMLID_17514_" fill="#003B70" stroke="#9CDDF7" stroke-width="0.2" stroke-miterlimit="10" d="M96.2,67.7l-1,0.6
				c-0.3,0.2-0.4,0.5-0.2,0.7l1.4,1.4c0.2,0.2,0.6,0.3,0.9,0.1l1-0.6c0.3-0.2,0.4-0.5,0.2-0.7l-1.4-1.4
				C96.9,67.6,96.5,67.6,96.2,67.7z"/>
			
				<line id="XMLID_17513_" opacity="0.5" fill="none" stroke="#9CDDF7" stroke-width="0.2" stroke-miterlimit="10" x1="102.8" y1="66.8" x2="96.4" y2="70.4"/>
			
				<line id="XMLID_17512_" opacity="0.5" fill="none" stroke="#9CDDF7" stroke-width="0.2" stroke-miterlimit="10" x1="94" y1="61.9" x2="100.4" y2="68.7"/>
			
				<line id="XMLID_17511_" opacity="0.5" fill="none" stroke="#9CDDF7" stroke-width="0.2" stroke-miterlimit="10" x1="95.1" y1="61.3" x2="101.6" y2="68.1"/>
			
				<line id="XMLID_17510_" opacity="0.5" fill="none" stroke="#9CDDF7" stroke-width="0.2" stroke-miterlimit="10" x1="91.8" y1="63.2" x2="98.3" y2="70"/>
			
				<line id="XMLID_17509_" opacity="0.5" fill="none" stroke="#9CDDF7" stroke-width="0.2" stroke-miterlimit="10" x1="92.9" y1="62.5" x2="99.4" y2="69.3"/>
			
				<line id="XMLID_17508_" opacity="0.5" fill="none" stroke="#9CDDF7" stroke-width="0.2" stroke-miterlimit="10" x1="96.2" y1="60.7" x2="102.6" y2="67.5"/>
			<polyline id="XMLID_17507_" opacity="0.5" fill="none" stroke="#9CDDF7" stroke-width="0.2" stroke-miterlimit="10" points="
				92.9,66.7 99.3,63.1 100.7,64.6 94.3,68.2 			"/>
			<polyline id="XMLID_17506_" opacity="0.5" fill="none" stroke="#9CDDF7" stroke-width="0.2" stroke-miterlimit="10" points="
				90.7,64.4 97.1,60.8 98.6,62.3 92.1,65.9 			"/>
		</g>
		
			<line id="XMLID_17504_" opacity="0.5" fill="none" stroke="#9CDDF7" stroke-width="0.2" stroke-miterlimit="10" x1="100.7" y1="64.6" x2="94.3" y2="68.2"/>
		
			<line id="XMLID_17503_" opacity="0.5" fill="none" stroke="#9CDDF7" stroke-width="0.2" stroke-miterlimit="10" x1="97.2" y1="70.6" x2="90.8" y2="63.7"/>
		
			<line id="XMLID_17502_" opacity="0.5" fill="none" stroke="#9CDDF7" stroke-width="0.2" stroke-miterlimit="10" x1="101.4" y1="65.4" x2="95" y2="69"/>
	</g>
</g>
</svg>
