<?xml version="1.0" encoding="utf-8"?>
<!-- Generator: Adobe Illustrator 16.0.0, SVG Export Plug-In . SVG Version: 6.00 Build 0)  -->
<!DOCTYPE svg PUBLIC "-//W3C//DTD SVG 1.1//EN" "http://www.w3.org/Graphics/SVG/1.1/DTD/svg11.dtd">
<svg version="1.1" id="Layer_1" xmlns="http://www.w3.org/2000/svg" xmlns:xlink="http://www.w3.org/1999/xlink" x="0px" y="0px"
	 width="164px" height="164px" viewBox="0 0 164 164" enable-background="new 0 0 164 164" xml:space="preserve">
<g id="XMLID_17014_">
	<g id="XMLID_17053_">
		<polygon id="XMLID_17055_" fill="#968677" points="60.7,69.5 89.1,85.9 89.1,83.3 60.7,66.9 		"/>
		<polygon id="XMLID_17054_" fill="#77675A" points="89.1,85.9 89.1,83.3 89.1,83.3 103.2,75.1 117.4,66.9 117.4,69.5 117.4,69.5 
			103.2,77.7 		"/>
	</g>
	<g id="XMLID_17048_">
		<path id="XMLID_17050_" fill="#AFA28B" d="M89.1,50.5L60.7,66.9l28.3,16.4l28.3-16.4L89.1,50.5z M65.4,66.9l23.6-13.6l23.6,13.6
			L89.1,80.5L65.4,66.9z"/>
		<polygon id="XMLID_17049_" fill="#2B2927" points="89.1,53.2 65.4,66.9 89.1,80.5 112.7,66.9 		"/>
	</g>
	<polygon id="XMLID_17047_" fill="#968677" points="89.1,54.6 111.6,67.5 112.7,66.9 89.1,53.2 	"/>
	<polygon id="XMLID_17046_" fill="#77675A" points="89.1,54.6 89.1,53.2 74.9,61.4 65.4,66.9 66.6,67.5 74.9,62.8 	"/>
	<g id="XMLID_17042_" opacity="0.2">
		<polygon id="XMLID_17045_" opacity="0.2" fill="#FFFFFF" points="93,78.3 93.5,78 71,65 70.5,65.3 		"/>
		<polygon id="XMLID_17044_" opacity="0.2" fill="#FFFFFF" points="100,74.2 100.5,73.9 78,60.9 77.6,61.2 		"/>
		<polygon id="XMLID_17043_" opacity="0.2" fill="#FFFFFF" points="107.6,69.8 85.1,56.8 84.6,57.1 107.1,70.1 		"/>
	</g>
	<g id="XMLID_17015_">
		<g id="XMLID_17017_">
			<g id="XMLID_17037_">
				<polygon id="XMLID_17041_" fill="#938E89" points="82,65.5 89.1,69.6 89.1,68.9 82,64.8 				"/>
				<polygon id="XMLID_17040_" fill="#66625F" points="96.2,65.5 89.1,69.6 89.1,68.9 96.2,64.8 				"/>
				<polygon id="XMLID_17039_" fill="#D2C7B0" points="82,64.8 89.1,68.9 96.2,64.8 89.1,60.7 				"/>
				<polygon id="XMLID_17038_" fill="#CCC5C0" points="82,64.8 89.1,68.9 96.2,64.8 89.1,60.7 				"/>
			</g>
			<g id="XMLID_17027_">
				<g id="XMLID_17030_">
					<path id="XMLID_17036_" fill="#FFFFFF" d="M87.5,66.9c-0.1-0.1-0.3-0.1-0.4-0.1c-0.1,0-0.2,0-0.3,0.1c0,0-0.1,0.1-0.1,0.1
						c0,0,0,0.1,0.1,0.2c0.2,0.1,0.5,0.1,0.7,0c0,0,0.1-0.1,0.1-0.1C87.6,67,87.6,66.9,87.5,66.9z"/>
					<path id="XMLID_17035_" fill="#FFFFFF" d="M85.6,65.8c-0.1-0.1-0.3-0.1-0.4-0.1c-0.1,0-0.2,0-0.3,0.1c0,0-0.1,0.1-0.1,0.1
						c0,0,0,0.1,0.1,0.2c0.2,0.1,0.5,0.1,0.7,0c0,0,0.1-0.1,0.1-0.1C85.8,65.9,85.7,65.9,85.6,65.8z"/>
					<path id="XMLID_17034_" fill="#FFFFFF" d="M83.8,64.7c-0.1-0.1-0.3-0.1-0.4-0.1c-0.1,0-0.2,0-0.3,0.1c0,0-0.1,0.1-0.1,0.1
						c0,0,0,0.1,0.1,0.2c0.2,0.1,0.5,0.1,0.7,0c0,0,0.1-0.1,0.1-0.1C83.9,64.9,83.9,64.8,83.8,64.7z"/>
					<path id="XMLID_17033_" fill="#FFFFFF" d="M91.4,66.8c-0.1,0-0.2-0.1-0.3-0.1c-0.1,0-0.3,0-0.4,0.1c-0.1,0.1-0.1,0.1-0.1,0.2
						c0,0,0,0.1,0.1,0.1c0.2,0.1,0.5,0.1,0.7,0C91.4,67,91.4,67,91.4,66.8C91.4,66.9,91.4,66.8,91.4,66.8z"/>
					<path id="XMLID_17032_" fill="#FFFFFF" d="M93.2,65.8c-0.1,0-0.2-0.1-0.3-0.1c-0.1,0-0.3,0-0.4,0.1c-0.1,0.1-0.1,0.1-0.1,0.2
						c0,0,0,0.1,0.1,0.1c0.2,0.1,0.5,0.1,0.7,0C93.2,66,93.3,65.9,93.2,65.8C93.3,65.8,93.2,65.8,93.2,65.8z"/>
					<path id="XMLID_17031_" fill="#FFFFFF" d="M95,64.7c-0.1,0-0.2-0.1-0.3-0.1c-0.1,0-0.3,0-0.4,0.1c-0.1,0.1-0.1,0.1-0.1,0.2
						c0,0,0,0.1,0.1,0.1c0.2,0.1,0.5,0.1,0.7,0C95.1,64.9,95.1,64.8,95,64.7C95.1,64.8,95.1,64.7,95,64.7z"/>
				</g>
				<ellipse id="XMLID_17029_" fill="#FFFFFF" cx="89.1" cy="67.9" rx="0.5" ry="0.2"/>
				<ellipse id="XMLID_17028_" fill="#FFFFFF" cx="89.1" cy="61.8" rx="0.5" ry="0.2"/>
			</g>
			<g id="XMLID_17018_">
				<g id="XMLID_17025_">
					<path id="XMLID_17026_" fill="#FFFFFF" d="M84.4,64.8l3.6,1.9c0.7,0.3,1.5,0.3,2.2,0l3.6-1.9c0.4-0.4,0.3-1.2-0.3-1.5l-1.1-0.7
						c-2.1-1.6-4.6-1.6-6.7,0l-1.1,0.7C84.1,63.6,83.9,64.5,84.4,64.8z"/>
				</g>
				<g id="XMLID_17019_">
					<g id="XMLID_17023_">
						<path id="XMLID_17024_" fill="#938E89" d="M84.7,63.3c-0.2,0.2-0.4,0.5-0.4,0.8c0,0.3,0.1,0.5,0.2,0.6l0,0l2.2,1.2l1.2,0.6
							c0.4,0.2,0.8,0.4,1.2,0.4c0.4,0,0.8-0.1,1.3-0.4l1.2-0.6l2.2-1.2l0,0c0.2-0.1,0.3-0.4,0.3-0.7c0-0.3-0.2-0.6-0.4-0.8
							c0.3,0.2,0.5,0.4,0.6,0.8c0.1,0.3,0,0.7-0.2,0.9l0,0l0,0l-2.2,1.2l-1.2,0.6c-0.2,0.1-0.4,0.2-0.7,0.3
							c-0.2,0.1-0.5,0.1-0.7,0.1c-0.3,0-0.5,0-0.7-0.1c-0.2-0.1-0.4-0.2-0.6-0.3l-1.2-0.6l-2.2-1.2l0,0l0,0
							c-0.2-0.2-0.3-0.5-0.2-0.9C84.2,63.7,84.4,63.4,84.7,63.3z"/>
					</g>
					<g id="XMLID_17021_" opacity="0.2">
						<path id="XMLID_17022_" fill="#78D5FB" d="M84.4,64.8l3.6,1.9c0.7,0.3,1.5,0.3,2.2,0l3.6-2c0.4-0.4,0.3-1.1-0.2-1.4l-1.1-0.7
							c-2.1-1.6-4.6-1.6-6.7,0l-1.1,0.7C84.1,63.6,83.9,64.5,84.4,64.8z"/>
					</g>
					<path id="XMLID_17020_" fill="#FFFFFF" d="M92.4,62.9c-2-1.5-4.3-1.5-6.3-0.3c1.9-0.3,3.9,0.2,5.7,1.5l0.7,0.5
						c0,0,0.7-0.3,1-0.6C93.7,63.8,92.6,63.1,92.4,62.9z"/>
				</g>
			</g>
		</g>
		<path id="XMLID_17016_" opacity="0.3" d="M97.3,66.1l-1.1-0.6l-7.1,4.1l1.1,0.6l0.6-0.3c0,0,0,0,0,0c0.3,0.2,2-0.5,3.6-1.5
			c1.5-0.9,2.5-1.7,2.5-2L97.3,66.1z"/>
	</g>
</g>
</svg>
