<?xml version="1.0" encoding="utf-8"?>
<!-- Generator: Adobe Illustrator 16.0.0, SVG Export Plug-In . SVG Version: 6.00 Build 0)  -->
<!DOCTYPE svg PUBLIC "-//W3C//DTD SVG 1.1//EN" "http://www.w3.org/Graphics/SVG/1.1/DTD/svg11.dtd">
<svg version="1.1" id="Layer_1" xmlns="http://www.w3.org/2000/svg" xmlns:xlink="http://www.w3.org/1999/xlink" x="0px" y="0px"
	 width="164px" height="164px" viewBox="0 0 164 164" enable-background="new 0 0 164 164" xml:space="preserve">
<g id="XMLID_17097_">
	<g id="XMLID_17149_">
		<g id="XMLID_17156_">
			<g id="XMLID_17165_">
				<polygon id="XMLID_17170_" fill="#3A3A3A" points="77.3,58.1 77.3,58.1 77,57.9 77,59.2 77,59.2 77.3,59.4 				"/>
				<polygon id="XMLID_17169_" fill="#2D2D2D" points="77.3,58.1 77.3,58.1 77.7,57.9 77.7,59.2 77.7,59.2 77.3,59.4 				"/>
				<polygon id="XMLID_17168_" fill="#AFA28B" points="77.3,58.1 77.7,57.9 77.3,57.7 77,57.9 77.3,58.1 77.3,58.1 77.3,58.1 
					77.3,58.1 				"/>
				<line id="XMLID_17166_" fill="#AFA28B" x1="77.3" y1="57.7" x2="77" y2="57.9"/>
			</g>
			<g id="XMLID_17157_">
				<polygon id="XMLID_17163_" fill="#3A3A3A" points="80.3,60.6 80.3,60.6 79.9,60.4 79.9,61.7 79.9,61.7 80.3,61.9 				"/>
				<polygon id="XMLID_17162_" fill="#2D2D2D" points="80.3,60.6 80.3,60.6 80.7,60.4 80.7,61.7 80.7,61.7 80.3,61.9 				"/>
				<polygon id="XMLID_17160_" fill="#AFA28B" points="80.3,60.6 80.7,60.4 80.3,60.1 79.9,60.4 80.3,60.6 80.3,60.6 80.3,60.6 
					80.3,60.6 				"/>
				<line id="XMLID_17159_" fill="#AFA28B" x1="80.3" y1="60.1" x2="79.9" y2="60.4"/>
			</g>
		</g>
		<path id="XMLID_17155_" opacity="0.3" d="M74.4,59l7.5-4.4c0.1,0,0.2,0,0.3,0l0.4,0.2L82.4,55l0,0l5.1,2.8l0.2-0.1l0.5,0.3
			c0.1,0,0.1,0.1,0,0.2l-7.5,4.4c-0.1,0-0.2,0-0.3,0l-0.5-0.3l0.2-0.1L75,59.3l-0.2,0.1l-0.4-0.2C74.3,59.1,74.3,59.1,74.4,59z"/>
	</g>
	<g id="XMLID_17110_">
		<g id="XMLID_17115_">
			<g id="XMLID_17117_">
				<polygon id="XMLID_17148_" fill="#565656" points="81.7,62.5 80.7,63.1 81.7,63.7 82.7,63.1 				"/>
				<polygon id="XMLID_17147_" fill="#002947" points="89.1,56.8 85,52.4 76.2,57.1 76.3,57.4 80.4,61.8 88.8,57.4 				"/>
				<g id="XMLID_17124_">
					<g id="XMLID_17125_">
						<polygon id="XMLID_17146_" fill="#001B24" points="76.3,57.4 76.6,57.2 80.7,61.7 80.4,61.8 						"/>
						<g id="XMLID_17126_">
							<polygon id="XMLID_17145_" fill="#001B24" points="83.7,53.1 84,52.9 88.1,57.3 87.5,57.7 87.5,57.7 87.8,57.5 							"/>
							<polygon id="XMLID_17142_" fill="#001B24" points="81.9,54.2 82.2,54 86.3,58.4 85.7,58.8 85.7,58.8 86,58.6 							"/>
							<polygon id="XMLID_17141_" fill="#001B24" points="80,55.2 80.3,55.1 84.4,59.5 83.8,59.9 83.8,59.9 84.1,59.7 							"/>
							<polygon id="XMLID_17140_" fill="#001B24" points="78.2,56.3 78.5,56.1 82.6,60.6 82,60.9 82,60.9 82.3,60.8 							"/>
							<polygon id="XMLID_17139_" fill="#001B24" points="84.7,52.5 88.8,57 88.5,57.2 84.4,52.7 							"/>
							<polygon id="XMLID_17138_" fill="#001B24" points="83.1,53.4 83.7,53.1 83.7,53.1 83.4,53.3 87.5,57.7 87.2,57.9 							"/>
							<polygon id="XMLID_17135_" fill="#001B24" points="82.8,53.6 86.9,58.1 86.6,58.2 82.5,53.8 							"/>
							<polygon id="XMLID_17134_" fill="#001B24" points="81.3,54.5 81.9,54.2 81.9,54.2 81.6,54.3 85.7,58.8 85.4,59 							"/>
							<polygon id="XMLID_17133_" fill="#001B24" points="81,54.7 85.1,59.1 84.8,59.3 80.7,54.9 							"/>
							<polygon id="XMLID_17132_" fill="#001B24" points="79.4,55.6 80,55.2 80,55.2 79.7,55.4 83.8,59.9 83.5,60 							"/>
							<polygon id="XMLID_17131_" fill="#001B24" points="79.1,55.8 83.2,60.2 82.9,60.4 78.8,56 							"/>
							<polygon id="XMLID_17128_" fill="#001B24" points="77.6,56.7 78.2,56.3 78.2,56.3 77.9,56.5 82,60.9 81.7,61.1 							"/>
							<polygon id="XMLID_17127_" fill="#001B24" points="77.3,56.9 81.4,61.3 81.1,61.5 77,57 							"/>
						</g>
					</g>
				</g>
				<path id="XMLID_17119_" fill="#001B24" d="M89.7,57c0.1,0.1,0,0.2,0,0.2l-8.8,5.2c-0.1,0-0.2,0-0.2,0L80.2,62l9.1-5.3L89.7,57z"
					/>
				<path id="XMLID_17118_" fill="#001B24" d="M75.8,57.2c-0.1-0.1-0.1-0.2,0-0.2l8.8-5.1c0.1,0,0.2,0,0.3,0.1l0.3,0.4l-9.1,5.3
					L75.8,57.2z"/>
			</g>
			<polygon id="XMLID_17116_" opacity="4.000000e-002" fill="#FFFFFF" points="85,52.4 76.3,57.4 89.1,56.8 			"/>
		</g>
		<g id="XMLID_17111_">
			<path id="XMLID_17113_" fill="#001B24" d="M81.9,62.3c0-0.2-0.8-0.4-0.8-0.4l-0.3,0.3c0,0,0.7,0.2,0.7,0.3v0.6
				c0,0.1,0.1,0.1,0.2,0.1c0.1,0,0.2-0.1,0.2-0.1V62.3C81.9,62.4,81.9,62.4,81.9,62.3z"/>
			<path id="XMLID_17112_" opacity="0.2" d="M81.7,63.2c0.1,0,0.2-0.1,0.2-0.1v-0.7c0,0,0,0,0,0c0,0,0,0,0,0c0,0,0,0.1-0.4,0.2v0.6
				C81.5,63.1,81.6,63.2,81.7,63.2z"/>
		</g>
	</g>
</g>
</svg>
