<?xml version="1.0" encoding="utf-8"?>
<!-- Generator: Adobe Illustrator 16.0.0, SVG Export Plug-In . SVG Version: 6.00 Build 0)  -->
<!DOCTYPE svg PUBLIC "-//W3C//DTD SVG 1.1//EN" "http://www.w3.org/Graphics/SVG/1.1/DTD/svg11.dtd">
<svg version="1.1" id="Layer_1" xmlns="http://www.w3.org/2000/svg" xmlns:xlink="http://www.w3.org/1999/xlink" x="0px" y="0px"
	 width="164px" height="164px" viewBox="0 0 164 164" enable-background="new 0 0 164 164" xml:space="preserve">
<g id="XMLID_17575_">
	<g id="XMLID_17602_">
		<polygon id="XMLID_17603_" fill="#2B2927" points="95.9,74.3 89.3,78.1 91.3,79.3 97.9,75.5 		"/>
	</g>
	<g id="XMLID_17594_">
		<g id="XMLID_17600_">
			<g id="XMLID_17601_">
				<polygon fill="#D1BE6F" points="87.8,74.7 90,73.5 93.6,75.7 91.5,76.9 				"/>
				<path fill="#918243" d="M90,73.6l3.6,2.1l-2.1,1.2l-3.6-2.1L90,73.6 M90,73.5l-2.2,1.2l3.7,2.1l2.2-1.2L90,73.5L90,73.5z"/>
			</g>
		</g>
		<g id="XMLID_17599_">
			<polygon fill="#D1BE6F" points="85.7,76 87.8,74.8 91.5,76.9 89.3,78.1 			"/>
			<path fill="#918243" d="M87.8,74.8l3.6,2.1l-2.1,1.2L85.7,76L87.8,74.8 M87.8,74.7L85.6,76l3.7,2.1l2.2-1.2L87.8,74.7L87.8,74.7z
				"/>
		</g>
		<g id="XMLID_17598_">
			<polygon fill="#D1BE6F" points="90,73.5 92.2,72.3 95.8,74.4 93.7,75.6 			"/>
			<path fill="#918243" d="M92.1,72.3l3.6,2.1l-2.1,1.2l-3.6-2.1L92.1,72.3 M92.1,72.3L90,73.5l3.7,2.1l2.2-1.2L92.1,72.3L92.1,72.3
				z"/>
		</g>
		<polygon id="XMLID_17597_" opacity="0.2" points="92.1,72.8 92.1,72.3 85.6,76 86.2,76.3 		"/>
		<g id="XMLID_17596_">
			<polygon fill="#D1BE6F" points="87.5,77 89.7,75.8 91.5,76.9 89.3,78.1 			"/>
			<path fill="#918243" d="M89.7,75.9l1.7,1l-2.1,1.2l-1.7-1L89.7,75.9 M89.7,75.8l-2.2,1.2l1.8,1.1l2.2-1.2L89.7,75.8L89.7,75.8z"
				/>
		</g>
		<g id="XMLID_17595_">
			<polygon fill="#D1BE6F" points="91.8,74.5 94,73.3 95.8,74.4 93.7,75.6 			"/>
			<path fill="#918243" d="M94,73.4l1.7,1l-2.1,1.2l-1.7-1L94,73.4 M94,73.3l-2.2,1.2l1.8,1.1l2.2-1.2L94,73.3L94,73.3z"/>
		</g>
	</g>
	<path id="XMLID_17593_" opacity="0.8" fill="#1C1C1C" d="M90,70.1l-8,3.3c0.8,0.8,2.1,1.7,3.6,2.5l6.5-3.7
		C91.2,71.4,90.1,70.5,90,70.1z"/>
	<g id="XMLID_17585_">
		<path id="XMLID_17592_" fill="#3A3735" d="M89.5,67.6c-0.7-0.3-1.3-0.2-1.7,0.1l0,0l-6.2,3.4c0,0,0,0,0,0l0,0l0,0
			c-0.2,0.1-0.4,0.3-0.5,0.6c-0.2,0.7,0.4,1.6,1.4,2.1c0.6,0.3,1.3,0.3,1.7,0.1l0,0l5.8-3.3c0.3,0,0.6-0.2,0.7-0.4l0,0l0,0
			c0.1-0.1,0.1-0.2,0.1-0.3C91.1,69,90.5,68,89.5,67.6z"/>
		<path id="XMLID_17591_" opacity="0.2" fill="#FFFFFF" d="M84.6,73.3c-0.2,0.8-1.1,1-2.1,0.5c-1-0.5-1.6-1.4-1.4-2.1
			c0.2-0.7,1.1-1,2.1-0.6C84.1,71.5,84.7,72.5,84.6,73.3z"/>
		<path id="XMLID_17590_" opacity="0.1" fill="#FFFFFF" d="M82.8,71l6.3-3.5c-0.5-0.1-1-0.1-1.3,0.2l0,0l-6.2,3.4
			C81.9,70.9,82.4,70.9,82.8,71z"/>
		<path id="XMLID_17589_" fill="#2B2927" d="M90.9,69.5L84.6,73c0,0.1,0,0.2,0,0.3c-0.1,0.2-0.2,0.4-0.4,0.6l0,0l5.9-3.2
			c0,0,0.5-0.3,0.7-0.6l0,0l0,0c0.1-0.1,0.1-0.2,0.1-0.3C90.9,69.7,90.9,69.6,90.9,69.5z"/>
		<path id="XMLID_17588_" opacity="0.4" fill="#3A3735" stroke="#FFFFFF" stroke-width="0.1" stroke-miterlimit="10" d="M83.7,73
			c-0.1,0.3-0.6,0.3-1,0.1c-0.4-0.2-0.7-0.7-0.6-0.9c0.1-0.3,0.6-0.3,1-0.1C83.6,72.3,83.9,72.7,83.7,73z"/>
		<path id="XMLID_17587_" opacity="0.2" fill="none" stroke="#FFFFFF" stroke-width="0.1" stroke-miterlimit="10" d="M84.2,73.5
			c-0.3,0.6-1.2,0.5-1.9,0c-0.7-0.5-1.1-1.4-0.8-1.9c0.3-0.5,1.2-0.5,1.9,0C84.2,72,84.5,72.9,84.2,73.5z"/>
		<path id="XMLID_17586_" opacity="0.2" fill="#3A3735" stroke="#FFFFFF" stroke-width="0.1" stroke-miterlimit="10" d="M84,73.3
			c-0.3,0.4-0.9,0.4-1.6-0.1c-0.6-0.4-0.9-1.1-0.7-1.5c0.2-0.4,0.9-0.4,1.6,0C83.9,72.1,84.2,72.8,84,73.3z"/>
	</g>
	<path id="XMLID_17584_" opacity="4.000000e-002" fill="#FFFFFF" d="M89.2,67.7c0,0,0.8,0.2,1,0.7c0,0-1.9,0.3-6.1,2.1L89.2,67.7z"
		/>
	<g id="XMLID_17580_">
		<g id="XMLID_17583_">
			<polygon fill="#918243" points="89.3,74.5 89.2,74.1 97,67.9 97.1,68.3 91.8,74.9 			"/>
			<path fill="#918243" d="M97,68l0.1,0.3l-5.3,6.6l-2.4-0.4l-0.1-0.3L97,68 M97,67.9l-7.8,6.2l0.1,0.4l2.5,0.4l5.4-6.6L97,67.9
				L97,67.9z"/>
		</g>
		<g id="XMLID_17582_">
			<polygon fill="#D1BE6F" points="89.2,74.1 94.6,67.5 97,67.9 91.6,74.5 			"/>
			<path fill="#918243" d="M94.6,67.6l2.4,0.4l-5.3,6.5l-2.4-0.4L94.6,67.6 M94.5,67.5l-5.3,6.6l2.5,0.4l5.4-6.6L94.5,67.5
				L94.5,67.5z"/>
		</g>
		<polygon id="XMLID_17581_" fill="#665B2B" stroke="#665B2B" stroke-width="5.000000e-002" stroke-miterlimit="10" points="
			97,67.9 97.1,68.3 91.8,74.9 91.7,74.5 		"/>
	</g>
	<g id="XMLID_17576_">
		<g id="XMLID_17579_">
			<polygon fill="#918243" points="90.5,74 90.5,73.6 99.8,69.9 99.7,70.3 92.7,75.1 			"/>
			<path fill="#918243" d="M99.7,70l0,0.3l-7,4.8L90.5,74l0-0.3L99.7,70 M99.7,69.9l-9.3,3.7l0,0.4l2.3,1.1l7-4.8L99.7,69.9
				L99.7,69.9z"/>
		</g>
		<g id="XMLID_17578_">
			<polygon fill="#D1BE6F" points="90.5,73.6 97.5,68.8 99.7,69.9 92.7,74.7 			"/>
			<path fill="#918243" d="M97.5,68.9l2.1,1l-6.9,4.7l-2.1-1L97.5,68.9 M97.5,68.8l-7,4.8l2.2,1.1l7-4.8L97.5,68.8L97.5,68.8z"/>
		</g>
		<polygon id="XMLID_17577_" fill="#665B2B" stroke="#665B2B" stroke-width="5.000000e-002" stroke-miterlimit="10" points="
			99.7,69.9 99.8,70.3 92.7,75.1 92.7,74.7 		"/>
	</g>
</g>
</svg>
