<?xml version="1.0" encoding="utf-8"?>
<!-- Generator: Adobe Illustrator 16.0.0, SVG Export Plug-In . SVG Version: 6.00 Build 0)  -->
<!DOCTYPE svg PUBLIC "-//W3C//DTD SVG 1.1//EN" "http://www.w3.org/Graphics/SVG/1.1/DTD/svg11.dtd">
<svg version="1.1" id="Layer_1" xmlns="http://www.w3.org/2000/svg" xmlns:xlink="http://www.w3.org/1999/xlink" x="0px" y="0px"
	 width="164px" height="164px" viewBox="0 0 164 164" enable-background="new 0 0 164 164" xml:space="preserve">
<g id="XMLID_16922_">
	<defs>
		<path id="XMLID_16923_" d="M70.8,73.6c-0.7-0.3-1.4-0.8-2-1.1c0-0.1,0.1-0.1,0.1-0.2l1.8-3c0.1-0.1,0.1-0.2,0.1-0.3l1.8-3
			c0.1-0.1,0.1-0.2,0.1-0.3l1.8-3c0.1-0.1,0.1-0.2,0.1-0.3l1.8-3c0.1-0.1,0.1-0.2,0.1-0.3l1.8-3c0.1-0.1,0.1-0.2,0.1-0.3l1.4-2.4
			c0.2,0.1,0.5,0.1,0.8,0.3c0.7,0.3,1.6,1,2.2,1.2c-0.3,0.6,0.2,0.3,1.3,0.8c0.7,0.3,1.6,0.9,2.2,1.2l-1.9,3.2
			c-0.1,0.1-0.1,0.2-0.1,0.3L82.6,63c-0.1,0-0.1,0.1-0.2,0.2l-1.9,3.2c-0.1,0.1-0.1,0.2-0.1,0.3l-1.8,3c-0.1,0.1-0.1,0.2-0.1,0.3
			l-1.8,3c-0.1,0.1-0.1,0.2-0.1,0.3l-1.4,2.4c-0.2-0.1-0.5-0.1-0.8-0.3c-0.7-0.3-1.6-1-2.2-1.2C72.4,73.8,71.9,74.1,70.8,73.6z"/>
	</defs>
	<clipPath id="XMLID_2_">
		<use xlink:href="#XMLID_16923_"  overflow="visible"/>
	</clipPath>
	<g id="XMLID_16927_" clip-path="url(#XMLID_2_)">
		<g id="XMLID_17002_">
			<defs>
				<polygon id="XMLID_17003_" points="75.4,46.1 60.6,71.7 65.6,74.6 80.4,49 				"/>
			</defs>
			<clipPath id="XMLID_3_">
				<use xlink:href="#XMLID_17003_"  overflow="visible"/>
			</clipPath>
			<polygon id="XMLID_17012_" clip-path="url(#XMLID_3_)" fill="#D1BE6F" points="75.4,46.1 60.3,72.1 65.3,75 80.3,49 			"/>
			
				<polygon id="XMLID_17011_" clip-path="url(#XMLID_3_)" fill="#D1BE6F" stroke="#918243" stroke-width="0.1" stroke-miterlimit="10" points="
				73.1,50.1 69.3,56.6 71.8,58.1 75.6,51.6 			"/>
			
				<polygon id="XMLID_17010_" clip-path="url(#XMLID_3_)" fill="#D1BE6F" stroke="#918243" stroke-width="0.1" stroke-miterlimit="10" points="
				69.3,56.6 65.5,63.2 68,64.7 71.8,58.1 			"/>
			
				<polygon id="XMLID_17009_" clip-path="url(#XMLID_3_)" fill="#D1BE6F" stroke="#918243" stroke-width="0.1" stroke-miterlimit="10" points="
				77.8,47.6 74.1,54.1 76.6,55.6 80.3,49 			"/>
			
				<polygon id="XMLID_17008_" clip-path="url(#XMLID_3_)" fill="#D1BE6F" stroke="#918243" stroke-width="0.1" stroke-miterlimit="10" points="
				74.1,54.1 70.3,60.7 72.8,62.1 76.6,55.6 			"/>
			
				<polygon id="XMLID_17007_" clip-path="url(#XMLID_3_)" fill="#D1BE6F" stroke="#918243" stroke-width="0.1" stroke-miterlimit="10" points="
				65.5,63.2 61.7,69.7 64.2,71.2 68,64.7 			"/>
			
				<polygon id="XMLID_17006_" clip-path="url(#XMLID_3_)" fill="#D1BE6F" stroke="#918243" stroke-width="0.1" stroke-miterlimit="10" points="
				61.7,69.7 57.9,76.3 60.5,77.8 64.2,71.2 			"/>
			
				<polygon id="XMLID_17005_" clip-path="url(#XMLID_3_)" fill="#D1BE6F" stroke="#918243" stroke-width="0.1" stroke-miterlimit="10" points="
				70.3,60.7 66.5,67.2 69,68.7 72.8,62.1 			"/>
			
				<polygon id="XMLID_17004_" clip-path="url(#XMLID_3_)" fill="#D1BE6F" stroke="#918243" stroke-width="0.1" stroke-miterlimit="10" points="
				66.5,67.2 62.7,73.8 65.2,75.2 69,68.7 			"/>
		</g>
		<g id="XMLID_16984_">
			<g id="XMLID_16999_">
				<polygon id="XMLID_17001_" fill="#A06137" points="97.5,58 80.8,48.3 65.3,75 66.7,75.8 81.3,50.5 95.9,58.9 				"/>
				<polygon id="XMLID_17000_" fill="#7C4723" points="98.9,58.8 82.1,49.1 66.7,75.8 68.1,76.6 82.7,51.3 97.2,59.7 				"/>
			</g>
			<g id="XMLID_16985_">
				<g id="XMLID_16988_">
					<defs>
						<polygon id="XMLID_16989_" points="82.4,50.2 67.6,75.8 72.6,78.7 87.4,53.1 						"/>
					</defs>
					<clipPath id="XMLID_4_">
						<use xlink:href="#XMLID_16989_"  overflow="visible"/>
					</clipPath>
					<polygon id="XMLID_16998_" clip-path="url(#XMLID_4_)" fill="#D1BE6F" points="82.4,50.2 67.4,76.2 72.4,79.1 87.4,53.1 					
						"/>
					
						<polygon id="XMLID_16997_" clip-path="url(#XMLID_4_)" fill="#D1BE6F" stroke="#918243" stroke-width="0.1" stroke-miterlimit="10" points="
						80.1,54.2 76.3,60.7 78.9,62.2 82.6,55.6 					"/>
					
						<polygon id="XMLID_16996_" clip-path="url(#XMLID_4_)" fill="#D1BE6F" stroke="#918243" stroke-width="0.1" stroke-miterlimit="10" points="
						76.3,60.7 72.6,67.3 75.1,68.7 78.9,62.2 					"/>
					
						<polygon id="XMLID_16995_" clip-path="url(#XMLID_4_)" fill="#D1BE6F" stroke="#918243" stroke-width="0.1" stroke-miterlimit="10" points="
						84.9,51.6 81.1,58.2 83.6,59.6 87.4,53.1 					"/>
					
						<polygon id="XMLID_16994_" clip-path="url(#XMLID_4_)" fill="#D1BE6F" stroke="#918243" stroke-width="0.1" stroke-miterlimit="10" points="
						81.1,58.2 77.3,64.7 79.8,66.2 83.6,59.6 					"/>
					
						<polygon id="XMLID_16993_" clip-path="url(#XMLID_4_)" fill="#D1BE6F" stroke="#918243" stroke-width="0.1" stroke-miterlimit="10" points="
						72.6,67.3 68.8,73.8 71.3,75.3 75.1,68.7 					"/>
					
						<polygon id="XMLID_16992_" clip-path="url(#XMLID_4_)" fill="#D1BE6F" stroke="#918243" stroke-width="0.1" stroke-miterlimit="10" points="
						68.8,73.8 65,80.4 67.5,81.8 71.3,75.3 					"/>
					
						<polygon id="XMLID_16991_" clip-path="url(#XMLID_4_)" fill="#D1BE6F" stroke="#918243" stroke-width="0.1" stroke-miterlimit="10" points="
						77.3,64.7 73.5,71.3 76.1,72.7 79.8,66.2 					"/>
					
						<polygon id="XMLID_16990_" clip-path="url(#XMLID_4_)" fill="#D1BE6F" stroke="#918243" stroke-width="0.1" stroke-miterlimit="10" points="
						73.5,71.3 69.8,77.8 72.3,79.3 76.1,72.7 					"/>
				</g>
				
					<rect id="XMLID_16987_" x="60.9" y="62.6" transform="matrix(0.5 -0.866 0.866 0.5 -17.0314 97.2531)" opacity="0.2" width="29.5" height="1.6"/>
				
					<rect id="XMLID_16986_" x="53.9" y="58.5" transform="matrix(0.5 -0.866 0.866 0.5 -17.0384 89.1193)" opacity="0.2" width="29.5" height="1.6"/>
			</g>
		</g>
		<g id="XMLID_16955_">
			<g id="XMLID_16981_">
				<polygon id="XMLID_16983_" fill="#A06137" points="104.5,62.1 87.8,52.4 72.4,79.1 73.7,79.9 88.3,54.6 102.9,63 				"/>
				<polygon id="XMLID_16982_" fill="#7C4723" points="105.9,62.9 89.2,53.2 73.7,79.9 75.1,80.7 89.7,55.4 104.2,63.8 				"/>
			</g>
			<g id="XMLID_16963_">
				<g id="XMLID_16966_">
					<defs>
						<polygon id="XMLID_16967_" points="89.5,54.3 74.7,79.9 79.7,82.8 94.4,57.2 						"/>
					</defs>
					<clipPath id="XMLID_5_">
						<use xlink:href="#XMLID_16967_"  overflow="visible"/>
					</clipPath>
					<polygon id="XMLID_16980_" clip-path="url(#XMLID_5_)" fill="#D1BE6F" points="89.4,54.3 74.4,80.3 79.4,83.2 94.4,57.2 					
						"/>
					
						<polygon id="XMLID_16978_" clip-path="url(#XMLID_5_)" fill="#D1BE6F" stroke="#918243" stroke-width="0.1" stroke-miterlimit="10" points="
						87.2,58.2 83.4,64.8 85.9,66.2 89.7,59.7 					"/>
					
						<polygon id="XMLID_16977_" clip-path="url(#XMLID_5_)" fill="#D1BE6F" stroke="#918243" stroke-width="0.1" stroke-miterlimit="10" points="
						83.4,64.8 79.6,71.3 82.1,72.8 85.9,66.2 					"/>
					
						<polygon id="XMLID_16976_" clip-path="url(#XMLID_5_)" fill="#D1BE6F" stroke="#918243" stroke-width="0.1" stroke-miterlimit="10" points="
						91.9,55.7 88.1,62.3 90.7,63.7 94.4,57.2 					"/>
					
						<polygon id="XMLID_16974_" clip-path="url(#XMLID_5_)" fill="#D1BE6F" stroke="#918243" stroke-width="0.1" stroke-miterlimit="10" points="
						88.1,62.3 84.4,68.8 86.9,70.3 90.7,63.7 					"/>
					
						<polygon id="XMLID_16973_" clip-path="url(#XMLID_5_)" fill="#D1BE6F" stroke="#918243" stroke-width="0.1" stroke-miterlimit="10" points="
						79.6,71.3 75.8,77.9 78.3,79.3 82.1,72.8 					"/>
					
						<polygon id="XMLID_16971_" clip-path="url(#XMLID_5_)" fill="#D1BE6F" stroke="#918243" stroke-width="0.1" stroke-miterlimit="10" points="
						75.8,77.9 72,84.4 74.5,85.9 78.3,79.3 					"/>
					
						<polygon id="XMLID_16970_" clip-path="url(#XMLID_5_)" fill="#D1BE6F" stroke="#918243" stroke-width="0.1" stroke-miterlimit="10" points="
						84.4,68.8 80.6,75.4 83.1,76.8 86.9,70.3 					"/>
					
						<polygon id="XMLID_16969_" clip-path="url(#XMLID_5_)" fill="#D1BE6F" stroke="#918243" stroke-width="0.1" stroke-miterlimit="10" points="
						80.6,75.4 76.8,81.9 79.3,83.4 83.1,76.8 					"/>
				</g>
				
					<rect id="XMLID_16964_" x="68" y="66.7" transform="matrix(0.5 -0.866 0.866 0.5 -17.0511 105.3837)" opacity="0.2" width="29.5" height="1.6"/>
			</g>
		</g>
		<g id="XMLID_16932_">
			<g id="XMLID_16952_">
				<polygon id="XMLID_16954_" fill="#A06137" points="111.6,66.2 94.8,56.5 79.4,83.2 80.8,84 95.4,58.7 109.9,67.1 				"/>
				<polygon id="XMLID_16953_" fill="#7C4723" points="113,66.9 96.2,57.3 80.8,84 82.1,84.8 96.7,59.5 111.3,67.9 				"/>
			</g>
			<g id="XMLID_16934_">
				<g id="XMLID_16936_">
					<defs>
						<polygon id="XMLID_16937_" points="96.5,58.4 81.7,83.9 86.7,86.8 101.5,61.3 						"/>
					</defs>
					<clipPath id="XMLID_6_">
						<use xlink:href="#XMLID_16937_"  overflow="visible"/>
					</clipPath>
					<polygon id="XMLID_16949_" clip-path="url(#XMLID_6_)" fill="#D1BE6F" points="96.5,58.4 81.5,84.4 86.5,87.3 101.5,61.2 					
						"/>
					
						<polygon id="XMLID_16948_" clip-path="url(#XMLID_6_)" fill="#D1BE6F" stroke="#918243" stroke-width="0.1" stroke-miterlimit="10" points="
						94.2,62.3 90.4,68.9 92.9,70.3 96.7,63.8 					"/>
					
						<polygon id="XMLID_16947_" clip-path="url(#XMLID_6_)" fill="#D1BE6F" stroke="#918243" stroke-width="0.1" stroke-miterlimit="10" points="
						90.4,68.9 86.6,75.4 89.1,76.9 92.9,70.3 					"/>
					
						<polygon id="XMLID_16946_" clip-path="url(#XMLID_6_)" fill="#D1BE6F" stroke="#918243" stroke-width="0.1" stroke-miterlimit="10" points="
						99,59.8 95.2,66.3 97.7,67.8 101.5,61.2 					"/>
					
						<polygon id="XMLID_16945_" clip-path="url(#XMLID_6_)" fill="#D1BE6F" stroke="#918243" stroke-width="0.1" stroke-miterlimit="10" points="
						95.2,66.3 91.4,72.9 93.9,74.3 97.7,67.8 					"/>
					
						<polygon id="XMLID_16943_" clip-path="url(#XMLID_6_)" fill="#D1BE6F" stroke="#918243" stroke-width="0.1" stroke-miterlimit="10" points="
						86.6,75.4 82.8,82 85.4,83.4 89.1,76.9 					"/>
					
						<polygon id="XMLID_16941_" clip-path="url(#XMLID_6_)" fill="#D1BE6F" stroke="#918243" stroke-width="0.1" stroke-miterlimit="10" points="
						82.8,82 79.1,88.5 81.6,90 85.4,83.4 					"/>
					
						<polygon id="XMLID_16940_" clip-path="url(#XMLID_6_)" fill="#D1BE6F" stroke="#918243" stroke-width="0.1" stroke-miterlimit="10" points="
						91.4,72.9 87.6,79.4 90.1,80.9 93.9,74.3 					"/>
					
						<polygon id="XMLID_16939_" clip-path="url(#XMLID_6_)" fill="#D1BE6F" stroke="#918243" stroke-width="0.1" stroke-miterlimit="10" points="
						87.6,79.4 83.8,86 86.3,87.5 90.1,80.9 					"/>
				</g>
				
					<rect id="XMLID_16935_" x="75" y="70.8" transform="matrix(0.5 -0.866 0.866 0.5 -17.0689 113.5195)" opacity="0.2" width="29.5" height="1.6"/>
			</g>
		</g>
		<g id="XMLID_16928_">
			<polygon id="XMLID_16930_" fill="#A06137" points="118.6,70.2 101.9,60.6 86.5,87.3 87.8,88.1 102.4,62.8 117,71.2 			"/>
			<polygon id="XMLID_16929_" fill="#7C4723" points="120,71 103.2,61.4 87.8,88.1 89.2,88.9 103.8,63.6 118.3,72 			"/>
		</g>
	</g>
</g>
</svg>
