<?xml version="1.0" encoding="utf-8"?>
<!-- Generator: Adobe Illustrator 16.0.0, SVG Export Plug-In . SVG Version: 6.00 Build 0)  -->
<!DOCTYPE svg PUBLIC "-//W3C//DTD SVG 1.1//EN" "http://www.w3.org/Graphics/SVG/1.1/DTD/svg11.dtd">
<svg version="1.1" id="Layer_1" xmlns="http://www.w3.org/2000/svg" xmlns:xlink="http://www.w3.org/1999/xlink" x="0px" y="0px"
	 width="164px" height="164px" viewBox="0 0 164 164" enable-background="new 0 0 164 164" xml:space="preserve">
<g id="XMLID_7404_">
	<polygon id="XMLID_7509_" fill="#D2C7B0" points="89.1,102.3 117.4,85.9 89.1,69.5 60.7,85.9 	"/>
	<g id="XMLID_7405_">
		<polygon id="XMLID_7508_" fill="#AD856A" points="89.1,118.6 89.1,102.3 89.1,102.3 103.2,94.1 117.4,85.9 117.4,102.3 
			117.4,102.3 103.2,110.5 		"/>
		<g id="Door_15_">
			<defs>
				<polygon id="XMLID_7479_" points="74.9,110.5 89.1,118.6 89.1,102.3 74.9,94.1 				"/>
			</defs>
			<clipPath id="XMLID_7_">
				<use xlink:href="#XMLID_7479_"  overflow="visible"/>
			</clipPath>
			<g id="XMLID_7480_" clip-path="url(#XMLID_7_)">
				<g id="XMLID_7497_">
					<g id="XMLID_7500_">
						<g id="XMLID_7501_">
							<g id="XMLID_7502_">
								<g id="XMLID_7503_">
									<g id="XMLID_7504_">
										<g id="XMLID_7505_">
											<polygon id="XMLID_7507_" fill="none" points="79.2,100.6 79.2,112.9 84.7,116.1 84.7,103.8 											"/>
											<polygon id="XMLID_7506_" fill="#544129" points="79.2,99.7 78.2,99.1 78.2,112.4 78.8,112.7 79.2,112.9 79.2,100.6 
												84.7,103.8 84.7,116.1 85.1,116.3 85.7,116.7 85.7,115.4 85.8,103.4 											"/>
										</g>
									</g>
								</g>
							</g>
						</g>
					</g>
					<g id="XMLID_7498_">
						<polygon id="XMLID_7499_" fill="none" points="79.2,100.6 79.2,112.9 84.7,116.1 84.7,103.8 						"/>
					</g>
				</g>
				<g id="XMLID_7481_">
					<g id="XMLID_7484_">
						<polygon id="XMLID_7496_" fill="#60462F" points="84.7,116.1 79.2,112.9 79.2,100.5 84.7,103.8 						"/>
						<polygon id="XMLID_7495_" opacity="0.1" points="84.7,116.1 79.2,112.9 79.2,100.6 84.7,103.8 						"/>
						<g id="XMLID_7485_">
							<g id="XMLID_7488_">
								<g id="XMLID_7489_">
									<g id="XMLID_7490_">
										<g id="XMLID_7491_">
											<g id="XMLID_7492_">
												<g id="XMLID_7493_">
													<polygon id="XMLID_7494_" fill="none" points="79.2,100.6 79.2,112.9 84.7,116.1 84.7,103.8 													"/>
												</g>
											</g>
										</g>
									</g>
								</g>
							</g>
							<g id="XMLID_7486_">
								<polygon id="XMLID_7487_" fill="none" points="79.2,100.6 79.2,112.9 84.7,116.1 84.7,103.8 								"/>
							</g>
						</g>
					</g>
					<polygon id="XMLID_7483_" opacity="0.1" points="79.2,99.7 78.2,99.1 78.2,112.4 79.2,112.9 79.2,100.6 84.7,103.8 84.7,116.1 
						85.7,116.7 85.7,115.4 85.8,103.4 					"/>
					<polygon id="XMLID_7482_" opacity="0.3" points="79.2,100.6 79.2,112.9 79.6,113.2 79.6,100.8 					"/>
				</g>
			</g>
		</g>
		<polygon id="XMLID_7478_" fill="#D4AB90" points="60.7,102.3 89.1,118.6 89.1,102.3 60.7,85.9 		"/>
		<polygon id="XMLID_7477_" fill="#AD856A" points="89.1,118.6 89.1,102.3 89.1,102.3 103.2,94.1 117.4,85.9 117.4,102.3 
			117.4,102.3 103.2,110.5 		"/>
		<g id="XMLID_7466_">
			<polygon id="XMLID_7476_" fill="none" points="74.9,94.1 74.9,110.5 74.9,110.5 89.1,118.7 89.1,102.3 89.1,102.3 			"/>
			<polygon id="XMLID_7475_" fill="#B68E72" points="86.7,100.9 86.7,102.9 89.1,104.3 89.1,102.3 			"/>
			<polygon id="XMLID_7474_" fill="#B68E72" points="84.4,104.3 88.4,106.7 88.4,104.7 84.4,102.3 			"/>
			<polygon id="XMLID_7473_" fill="#B68E72" points="84.4,115.3 88.4,117.6 88.4,115.6 84.4,113.3 			"/>
			<polygon id="XMLID_7472_" fill="#B68E72" points="79.6,112.5 83.7,114.9 83.7,112.9 79.6,110.5 			"/>
			<polyline id="XMLID_7471_" fill="#B68E72" points="78.9,112.1 78.9,110.1 74.9,107.8 74.9,109.8 			"/>
			<polygon id="XMLID_7470_" fill="#B68E72" points="79.6,107 83.7,109.4 83.7,107.4 79.6,105.1 			"/>
			<polygon id="XMLID_7469_" fill="#B68E72" points="78.9,104.7 74.9,102.3 74.9,104.3 78.9,106.7 			"/>
			<polygon id="XMLID_7468_" fill="#B68E72" points="86.7,113.9 89.1,115.3 89.1,113.3 86.7,111.9 			"/>
			<polygon id="XMLID_7467_" fill="#B68E72" points="86.7,108.5 89.1,109.8 89.1,107.8 86.7,106.5 			"/>
		</g>
		<g id="XMLID_7455_">
			<g id="XMLID_7456_">
				<polygon id="XMLID_7465_" fill="#90674C" points="92.1,100.6 96.1,98.2 96.2,98.2 96.2,100.2 92.1,102.6 				"/>
				<polygon id="XMLID_7464_" fill="#90674C" points="91.4,100.9 91.4,102.9 89.1,104.3 89.1,102.3 				"/>
				<polygon id="XMLID_7463_" fill="#90674C" points="93.8,104.3 89.7,106.6 89.7,104.6 93.8,102.3 				"/>
				<polygon id="XMLID_7462_" fill="#90674C" points="93.8,115.2 89.7,117.6 89.7,115.6 93.8,113.2 				"/>
				<polygon id="XMLID_7461_" fill="#90674C" points="99.2,110.1 103.2,107.8 103.2,109.8 99.2,112.1 				"/>
				<polygon id="XMLID_7460_" fill="#90674C" points="93.8,109.8 89.7,112.1 89.7,110.1 93.8,107.8 				"/>
				<polygon id="XMLID_7459_" fill="#90674C" points="91.4,113.9 89.1,115.3 89.1,113.3 91.4,111.9 				"/>
				<polygon id="XMLID_7458_" fill="#90674C" points="101.6,106.1 103.2,105.1 103.2,107.1 101.6,108 				"/>
				<polygon id="XMLID_7457_" fill="#90674C" points="91.4,108.5 89.1,109.8 89.1,107.8 91.4,106.5 				"/>
			</g>
		</g>
		<g id="XMLID_7445_">
			<g id="XMLID_7446_">
				<polygon id="XMLID_7454_" fill="#90674C" points="115.7,86.9 117.4,85.9 117.4,87.9 115.7,88.9 				"/>
				<polygon id="XMLID_7453_" fill="#90674C" points="111,89.6 114,87.9 115.1,87.3 115.1,89.3 111,91.6 				"/>
				<polygon id="XMLID_7452_" fill="#90674C" points="112.7,93.4 108.6,95.7 108.6,93.7 112.7,91.4 				"/>
				<polygon id="XMLID_7451_" fill="#90674C" points="113.4,91 117.4,88.7 117.4,90.7 113.4,93 				"/>
				<polygon id="XMLID_7450_" fill="#90674C" points="108,107.1 103.9,109.4 103.9,107.4 108,105.1 				"/>
				<polygon id="XMLID_7449_" fill="#90674C" points="113.4,96.5 117.4,94.1 117.4,96.1 113.4,98.5 				"/>
				<polygon id="XMLID_7448_" fill="#90674C" points="115.8,97.9 117.4,96.9 117.4,98.9 115.8,99.9 				"/>
				<polygon id="XMLID_7447_" fill="#90674C" points="115.8,92.4 117.4,91.4 117.4,93.4 115.8,94.4 				"/>
			</g>
		</g>
		<g id="XMLID_7436_">
			<polygon id="XMLID_7444_" fill="#B68E72" points="62.4,86.9 60.7,85.9 60.7,87.9 62.4,88.9 			"/>
			<polygon id="XMLID_7443_" fill="#B68E72" points="67.1,89.6 64.2,87.9 63.1,87.3 63.1,89.3 67.1,91.6 			"/>
			<polygon id="XMLID_7442_" fill="#B68E72" points="65.4,93.4 69.5,95.7 69.5,93.7 65.4,91.4 			"/>
			<polygon id="XMLID_7441_" fill="#B68E72" points="70.2,96.1 74.3,98.5 74.3,96.5 70.2,94.1 			"/>
			<polygon id="XMLID_7440_" fill="#B68E72" points="64.8,91 60.7,88.7 60.7,90.7 64.8,93 			"/>
			<polygon id="XMLID_7439_" fill="#B68E72" points="64.8,102 60.7,99.6 60.7,101.6 64.8,104 			"/>
			<polygon id="XMLID_7438_" fill="#B68E72" points="62.4,97.9 60.7,96.9 60.7,98.9 62.4,99.9 			"/>
			<polygon id="XMLID_7437_" fill="#B68E72" points="62.4,92.4 60.7,91.4 60.7,93.4 62.4,94.4 			"/>
		</g>
		<polyline id="XMLID_7435_" fill="#B68E72" points="76.6,108.1 76.6,106.1 72.6,103.7 72.6,105.7 		"/>
		<polygon id="XMLID_7434_" fill="#B68E72" points="76.6,95.1 72.6,92.8 72.6,92.7 72.6,94.7 76.6,97.1 		"/>
		<g id="Door_14_">
			<g id="XMLID_7406_">
				<g id="XMLID_7423_">
					<g id="XMLID_7426_">
						<g id="XMLID_7427_">
							<g id="XMLID_7428_">
								<g id="XMLID_7429_">
									<g id="XMLID_7430_">
										<g id="XMLID_7431_">
											<polygon id="XMLID_7433_" fill="none" points="65,92.4 65,104.7 70.5,107.9 70.6,95.6 											"/>
											<polygon id="XMLID_7432_" fill="#544129" points="65,91.5 64,90.9 64,104.2 64.6,104.5 65,104.7 65,92.4 70.6,95.6 
												70.5,107.9 70.9,108.2 71.5,108.5 71.5,107.2 71.6,95.2 											"/>
										</g>
									</g>
								</g>
							</g>
						</g>
					</g>
					<g id="XMLID_7424_">
						<polygon id="XMLID_7425_" fill="none" points="65,92.4 65,104.7 70.5,107.9 70.6,95.6 						"/>
					</g>
				</g>
				<g id="XMLID_7407_">
					<g id="XMLID_7410_">
						<polygon id="XMLID_7422_" fill="#60462F" points="70.5,107.9 65,104.7 65,92.3 70.6,95.6 						"/>
						<polygon id="XMLID_7421_" opacity="0.1" points="70.5,107.9 65,104.7 65,92.4 70.6,95.6 						"/>
						<g id="XMLID_7411_">
							<g id="XMLID_7414_">
								<g id="XMLID_7415_">
									<g id="XMLID_7416_">
										<g id="XMLID_7417_">
											<g id="XMLID_7418_">
												<g id="XMLID_7419_">
													<polygon id="XMLID_7420_" fill="none" points="65,92.4 65,104.7 70.5,107.9 70.6,95.6 													"/>
												</g>
											</g>
										</g>
									</g>
								</g>
							</g>
							<g id="XMLID_7412_">
								<polygon id="XMLID_7413_" fill="none" points="65,92.4 65,104.7 70.5,107.9 70.6,95.6 								"/>
							</g>
						</g>
					</g>
					<polygon id="XMLID_7409_" opacity="0.1" points="65,91.5 64,90.9 64,104.2 65,104.7 65,92.4 70.6,95.6 70.5,107.9 71.5,108.5 
						71.5,107.2 71.6,95.2 					"/>
					<polygon id="XMLID_7408_" opacity="0.3" points="65,92.4 65,104.7 65.4,105 65.4,92.6 					"/>
				</g>
			</g>
		</g>
	</g>
</g>
<g id="XMLID_6091_">
	<g id="XMLID_6093_">
		<polygon id="XMLID_6177_" fill="#D2C7B0" points="89.1,85.9 117.4,69.5 89.1,53.2 60.7,69.5 		"/>
		<polygon id="XMLID_6176_" fill="#AD856A" points="89.1,102.3 89.1,85.9 89.1,85.9 103.2,77.7 117.4,69.5 117.4,85.9 117.4,85.9 
			103.2,94.1 		"/>
		<g id="Door_9_">
			<defs>
				<polygon id="XMLID_6147_" points="74.9,94.1 89.1,102.3 89.1,85.9 74.9,77.7 				"/>
			</defs>
			<clipPath id="XMLID_8_">
				<use xlink:href="#XMLID_6147_"  overflow="visible"/>
			</clipPath>
			<g id="XMLID_6148_" clip-path="url(#XMLID_8_)">
				<g id="XMLID_6165_">
					<g id="XMLID_6168_">
						<g id="XMLID_6169_">
							<g id="XMLID_6170_">
								<g id="XMLID_6171_">
									<g id="XMLID_6172_">
										<g id="XMLID_6173_">
											<polygon id="XMLID_6175_" fill="none" points="79.2,84.2 79.2,96.6 84.7,99.8 84.7,87.4 											"/>
											<polygon id="XMLID_6174_" fill="#544129" points="79.2,83.3 78.2,82.8 78.2,96 78.8,96.3 79.2,96.6 79.2,84.2 84.7,87.4 
												84.7,99.8 85.1,100 85.7,100.3 85.7,99.1 85.8,87.1 											"/>
										</g>
									</g>
								</g>
							</g>
						</g>
					</g>
					<g id="XMLID_6166_">
						<polygon id="XMLID_6167_" fill="none" points="79.2,84.2 79.2,96.6 84.7,99.8 84.7,87.4 						"/>
					</g>
				</g>
				<g id="XMLID_6149_">
					<g id="XMLID_6152_">
						<polygon id="XMLID_6164_" fill="#60462F" points="84.7,99.8 79.2,96.6 79.2,84.1 84.7,87.4 						"/>
						<polygon id="XMLID_6163_" opacity="0.1" points="84.7,99.8 79.2,96.6 79.2,84.2 84.7,87.4 						"/>
						<g id="XMLID_6153_">
							<g id="XMLID_6156_">
								<g id="XMLID_6157_">
									<g id="XMLID_6158_">
										<g id="XMLID_6159_">
											<g id="XMLID_6160_">
												<g id="XMLID_6161_">
													<polygon id="XMLID_6162_" fill="none" points="79.2,84.2 79.2,96.6 84.7,99.8 84.7,87.4 													"/>
												</g>
											</g>
										</g>
									</g>
								</g>
							</g>
							<g id="XMLID_6154_">
								<polygon id="XMLID_6155_" fill="none" points="79.2,84.2 79.2,96.6 84.7,99.8 84.7,87.4 								"/>
							</g>
						</g>
					</g>
					<polygon id="XMLID_6151_" opacity="0.1" points="79.2,83.3 78.2,82.8 78.2,96 79.2,96.6 79.2,84.2 84.7,87.4 84.7,99.8 
						85.7,100.3 85.7,99.1 85.8,87.1 					"/>
					<polygon id="XMLID_6150_" opacity="0.3" points="79.2,84.2 79.2,96.6 79.6,96.8 79.6,84.5 					"/>
				</g>
			</g>
		</g>
		<polygon id="XMLID_6146_" fill="#D4AB90" points="60.7,85.9 89.1,102.3 89.1,85.9 60.7,69.5 		"/>
		<polygon id="XMLID_6145_" fill="#AD856A" points="89.1,102.3 89.1,85.9 89.1,85.9 103.2,77.7 117.4,69.5 117.4,85.9 117.4,85.9 
			103.2,94.1 		"/>
		<g id="XMLID_6134_">
			<polygon id="XMLID_6144_" fill="none" points="74.9,77.7 74.9,94.1 74.9,94.1 89.1,102.3 89.1,85.9 89.1,85.9 			"/>
			<polygon id="XMLID_6143_" fill="#B68E72" points="86.7,84.6 86.7,86.6 89.1,87.9 89.1,85.9 			"/>
			<polygon id="XMLID_6142_" fill="#B68E72" points="84.4,87.9 88.4,90.3 88.4,88.3 84.4,85.9 			"/>
			<polygon id="XMLID_6141_" fill="#B68E72" points="84.4,98.9 88.4,101.2 88.4,99.2 84.4,96.9 			"/>
			<polygon id="XMLID_6140_" fill="#B68E72" points="79.6,96.2 83.7,98.5 83.7,96.5 79.6,94.2 			"/>
			<polyline id="XMLID_6139_" fill="#B68E72" points="78.9,95.8 78.9,93.8 74.9,91.5 74.9,93.5 			"/>
			<polygon id="XMLID_6138_" fill="#B68E72" points="79.6,90.7 83.7,93 83.7,91 79.6,88.7 			"/>
			<polygon id="XMLID_6137_" fill="#B68E72" points="78.9,88.3 74.9,86 74.9,88 78.9,90.3 			"/>
			<polygon id="XMLID_6136_" fill="#B68E72" points="86.7,97.6 89.1,98.9 89.1,96.9 86.7,95.6 			"/>
			<polygon id="XMLID_6135_" fill="#B68E72" points="86.7,92.1 89.1,93.4 89.1,91.4 86.7,90.1 			"/>
		</g>
		<g id="XMLID_6123_">
			<polygon id="XMLID_6133_" fill="none" points="103.2,77.7 103.2,94.1 103.2,94.1 89.1,102.3 89.1,85.9 89.1,85.9 			"/>
			<g id="XMLID_6124_">
				<polygon id="XMLID_6132_" fill="#90674C" points="92.1,84.2 96.1,81.9 96.2,81.8 96.2,83.8 92.1,86.2 				"/>
				<polygon id="XMLID_6131_" fill="#90674C" points="91.4,84.6 91.4,86.6 89.1,87.9 89.1,85.9 				"/>
				<polygon id="XMLID_6130_" fill="#90674C" points="93.8,87.9 89.7,90.3 89.7,88.3 93.8,85.9 				"/>
				<polygon id="XMLID_6129_" fill="#90674C" points="93.8,98.9 89.7,101.2 89.7,99.2 93.8,96.9 				"/>
				<polygon id="XMLID_6128_" fill="#90674C" points="99.2,93.8 103.2,91.4 103.2,93.4 99.2,95.8 				"/>
				<polygon id="XMLID_6127_" fill="#90674C" points="93.8,93.4 89.7,95.8 89.7,93.8 93.8,91.4 				"/>
				<polygon id="XMLID_6126_" fill="#90674C" points="91.4,97.6 89.1,98.9 89.1,96.9 91.4,95.6 				"/>
				<polygon id="XMLID_6125_" fill="#90674C" points="91.4,92.1 89.1,93.4 89.1,91.4 91.4,90.1 				"/>
			</g>
		</g>
		<g id="XMLID_6112_">
			<polygon id="XMLID_6122_" fill="none" points="117.4,69.5 117.4,85.9 117.4,85.9 103.2,94.1 103.2,77.7 103.2,77.7 			"/>
			<g id="XMLID_6113_">
				<polygon id="XMLID_6121_" fill="#90674C" points="115.7,70.5 117.4,69.5 117.4,71.5 115.7,72.5 				"/>
				<polygon id="XMLID_6120_" fill="#90674C" points="111,73.3 114,71.6 115.1,70.9 115.1,72.9 111,75.3 				"/>
				<polygon id="XMLID_6119_" fill="#90674C" points="112.7,77 108.6,79.4 108.6,77.4 112.7,75 				"/>
				<polygon id="XMLID_6118_" fill="#90674C" points="113.4,74.6 117.4,72.3 117.4,74.3 113.4,76.6 				"/>
				<polygon id="XMLID_6117_" fill="#90674C" points="108,90.7 103.9,93 103.9,91.1 108,88.7 				"/>
				<polygon id="XMLID_6116_" fill="#90674C" points="113.4,80.1 117.4,77.8 117.4,79.8 113.4,82.1 				"/>
				<polygon id="XMLID_6115_" fill="#90674C" points="115.8,81.5 117.4,80.5 117.4,82.5 115.8,83.5 				"/>
				<polygon id="XMLID_6114_" fill="#90674C" points="115.8,76 117.4,75.1 117.4,77.1 115.8,78 				"/>
			</g>
		</g>
		<g id="XMLID_6102_">
			<polygon id="XMLID_6111_" fill="none" points="60.7,69.5 60.7,85.9 60.7,85.9 74.9,94.1 74.9,77.7 74.9,77.7 			"/>
			<polygon id="XMLID_6110_" fill="#B68E72" points="62.4,70.5 60.7,69.5 60.7,71.5 62.4,72.5 			"/>
			<polygon id="XMLID_6109_" fill="#B68E72" points="67.1,73.3 64.2,71.6 63.1,70.9 63.1,72.9 67.1,75.3 			"/>
			<polygon id="XMLID_6108_" fill="#B68E72" points="65.4,77 69.5,79.4 69.5,77.4 65.4,75 			"/>
			<polygon id="XMLID_6107_" fill="#B68E72" points="70.2,79.7 74.3,82.1 74.3,80.1 70.2,77.7 			"/>
			<polygon id="XMLID_6106_" fill="#B68E72" points="64.8,74.6 60.7,72.3 60.7,74.3 64.8,76.6 			"/>
			<polygon id="XMLID_6105_" fill="#B68E72" points="64.8,85.6 60.7,83.3 60.7,85.3 64.8,87.6 			"/>
			<polygon id="XMLID_6104_" fill="#B68E72" points="62.4,81.5 60.7,80.5 60.7,82.5 62.4,83.5 			"/>
			<polygon id="XMLID_6103_" fill="#B68E72" points="62.4,76 60.7,75.1 60.7,77.1 62.4,78 			"/>
		</g>
		<polyline id="XMLID_6101_" fill="#B68E72" points="76.6,91.7 76.6,89.7 72.6,87.4 72.6,89.4 		"/>
		<polygon id="XMLID_6100_" fill="#B68E72" points="76.6,78.7 72.6,76.4 72.6,76.4 72.6,78.4 76.6,80.7 		"/>
		<g id="XMLID_6094_">
			<g id="XMLID_6095_">
				<polygon id="XMLID_6099_" fill="#90674C" points="111,73.3 112.7,72.3 112.7,74.3 111,75.3 				"/>
				<polygon id="XMLID_6098_" fill="#90674C" points="103.2,82.5 99.2,84.8 99.2,82.8 103.2,80.5 				"/>
				<polygon id="XMLID_6097_" fill="#90674C" points="106.3,87 110.4,84.6 110.4,86.6 106.3,89 				"/>
				<polygon id="XMLID_6096_" fill="#90674C" points="101.6,84.2 105.6,81.9 105.6,83.9 101.6,86.2 				"/>
			</g>
		</g>
	</g>
	<polygon id="XMLID_6092_" fill="#90674C" points="105.6,89.4 101.6,91.7 101.6,89.7 105.6,87.4 	"/>
</g>
<g id="XMLID_7657_">
	<g id="XMLID_7658_">
		<g id="XMLID_7660_">
			<g id="XMLID_7661_">
				<g id="Window_51_">
					<g id="XMLID_7698_">
						<g id="XMLID_7707_">
							<g id="XMLID_7708_">
								<g id="XMLID_7709_">
									<g id="XMLID_7710_">
										<g id="XMLID_7713_">
											<g id="XMLID_7719_">
												<g id="XMLID_7732_">
													<polygon fill="#78D5FB" points="85.3,95.3 78.2,91 78.2,82.7 85.4,87 													"/>
												</g>
												<g id="XMLID_7726_">
													<polygon id="XMLID_7731_" fill="#78D5FB" points="81.7,92.9 79,91.3 79,83.5 81.7,85 													"/>
													<path id="XMLID_7730_" opacity="0.2" d="M81.7,85L79,83.5v7.9l1.7,1c0-2-0.7-3.5-0.7-3.5C81.4,88.9,81.7,85,81.7,85z"
														/>
													<g id="XMLID_7727_" opacity="0.6">
														<path id="XMLID_7729_" fill="#C6C6C6" d="M81.1,84.7L79,83.5v7.9l1.3,0.7c0-2-0.5-3.4-0.5-3.4
															C80.8,88.6,81.1,84.7,81.1,84.7z"/>
														<path id="XMLID_7728_" fill="#FFFFFF" d="M80.9,84.6L79,83.5v7.9l1.2,0.7c0-2-0.5-3.4-0.5-3.4
															C80.7,88.5,80.9,84.6,80.9,84.6z"/>
													</g>
												</g>
												<g id="XMLID_7720_">
													<polygon id="XMLID_7725_" fill="#78D5FB" points="82,93.1 85.1,94.9 85.1,87 82,85.2 													"/>
													<path id="XMLID_7724_" opacity="0.2" d="M82,85.2l3.1,1.8v7.9l-1.9-1.1c0-2,0.8-2.6,0.8-2.6C82.4,89.5,82,85.2,82,85.2
														z"/>
													<g id="XMLID_7721_" opacity="0.6">
														<path id="XMLID_7723_" fill="#C6C6C6" d="M82.8,85.6l2.4,1.4v7.9L83.7,94c0-2,0.6-2.7,0.6-2.7
															C83,89.9,82.8,85.6,82.8,85.6z"/>
														<path id="XMLID_7722_" fill="#FFFFFF" d="M82.9,85.7l2.2,1.2v7.9l-1.3-0.8c0-2,0.5-2.8,0.5-2.8
															C83.2,90,82.9,85.7,82.9,85.7z"/>
													</g>
												</g>
											</g>
											<polygon id="XMLID_7718_" opacity="8.000000e-002" points="78.6,83.2 85.1,94.8 85.1,87 											"/>
											<polygon id="XMLID_7717_" fill="none" points="78.6,91.5 85.1,95.2 85.1,87 78.6,83.2 											"/>
											<path id="XMLID_7714_" fill="#544129" d="M78.6,82.3l-0.8-0.4v10.4l0.3,0.2l7.3,4.2l0.6,0.3l0-1.3l0.1-9.2L78.6,82.3z
												 M85.1,95.2l-6.5-3.8v-8.2l6.6,3.8L85.1,95.2z"/>
										</g>
										<polygon id="XMLID_7712_" fill="#544129" points="85.1,94.8 78.9,91.3 78.6,91.5 85.1,95.2 										"/>
										<polygon id="XMLID_7711_" fill="#544129" points="79,83.5 78.9,91.3 78.6,91.5 78.6,83.2 										"/>
									</g>
								</g>
							</g>
						</g>
						<g id="XMLID_7704_">
							<polygon id="XMLID_7706_" fill="#544129" points="81.4,84.8 81.4,93.1 81.7,93.3 81.7,85 							"/>
							<polygon id="XMLID_7705_" fill="#544129" points="81.7,85 81.7,85 81.7,93.3 82,93.1 82,85.2 							"/>
						</g>
						<polygon id="XMLID_7703_" opacity="0.3" points="79,83.5 78.9,91.3 78.6,91.5 78.6,83.2 						"/>
						<polygon id="XMLID_7702_" opacity="0.3" points="81.7,85 81.7,85 81.7,93.3 82,93.1 82,85.2 						"/>
						<path id="XMLID_7699_" opacity="0.1" d="M78.6,82.3l-0.8-0.4v10.4l0.3,0.2l7.3,4.2l0.6,0.3l0-1.3l0.1-9.2L78.6,82.3z
							 M85.1,95.2l-6.5-3.8v-8.2l6.6,3.8L85.1,95.2z"/>
					</g>
				</g>
				<g id="Window_50_">
					<polygon id="XMLID_7697_" opacity="0.5" fill="none" points="60.7,85.9 89.1,102.3 89.1,85.9 60.7,69.5 					"/>
					<g id="XMLID_7662_">
						<g id="XMLID_7671_">
							<g id="XMLID_7672_">
								<g id="XMLID_7673_">
									<g id="XMLID_7674_">
										<g id="XMLID_7677_">
											<g id="XMLID_7683_">
												<g id="XMLID_7696_">
													<polygon fill="#78D5FB" points="71.2,87.1 64,82.8 64,74.5 71.2,78.9 													"/>
												</g>
												<g id="XMLID_7690_">
													<polygon id="XMLID_7695_" fill="#78D5FB" points="67.5,84.7 64.8,83.2 64.8,75.3 67.5,76.8 													"/>
													<path id="XMLID_7694_" opacity="0.2" d="M67.5,76.8l-2.7-1.6v7.9l1.7,1c0-2-0.7-3.5-0.7-3.5
														C67.2,80.8,67.5,76.8,67.5,76.8z"/>
													<g id="XMLID_7691_" opacity="0.6">
														<path id="XMLID_7693_" fill="#C6C6C6" d="M66.9,76.5l-2.1-1.2v7.9l1.3,0.7c0-2-0.5-3.4-0.5-3.4
															C66.7,80.4,66.9,76.5,66.9,76.5z"/>
														<path id="XMLID_7692_" fill="#FFFFFF" d="M66.7,76.4l-1.9-1.1v7.9l1.2,0.7c0-2-0.5-3.4-0.5-3.4
															C66.5,80.3,66.7,76.4,66.7,76.4z"/>
													</g>
												</g>
												<g id="XMLID_7684_">
													<polygon id="XMLID_7689_" fill="#78D5FB" points="67.9,84.9 70.9,86.7 70.9,78.8 67.9,77 													"/>
													<path id="XMLID_7688_" opacity="0.2" d="M67.9,77l3.1,1.8v7.9L69,85.6c0-2,0.8-2.6,0.8-2.6C68.2,81.3,67.9,77,67.9,77z
														"/>
													<g id="XMLID_7685_" opacity="0.6">
														<path id="XMLID_7687_" fill="#C6C6C6" d="M68.6,77.4l2.4,1.4v7.9l-1.5-0.8c0-2,0.6-2.7,0.6-2.7
															C68.8,81.7,68.6,77.4,68.6,77.4z"/>
														<path id="XMLID_7686_" fill="#FFFFFF" d="M68.8,77.5l2.2,1.3v7.9l-1.3-0.8c0-2,0.5-2.8,0.5-2.8
															C69,81.8,68.8,77.5,68.8,77.5z"/>
													</g>
												</g>
											</g>
											<polygon id="XMLID_7682_" opacity="8.000000e-002" points="64.4,75 70.9,86.6 70.9,78.8 											"/>
											<polygon id="XMLID_7681_" fill="none" points="64.4,83.3 70.9,87.1 70.9,78.8 64.4,75 											"/>
											<path id="XMLID_7678_" fill="#544129" d="M64.4,74.1l-0.8-0.4v10.4l0.3,0.2l7.3,4.2l0.6,0.3l0-1.3l0.1-9.2L64.4,74.1z
												 M70.9,87.1l-6.5-3.8V75l6.6,3.8L70.9,87.1z"/>
										</g>
										<polygon id="XMLID_7676_" fill="#544129" points="70.9,86.6 64.8,83.1 64.4,83.3 70.9,87.1 										"/>
										<polygon id="XMLID_7675_" fill="#544129" points="64.8,75.3 64.8,83.1 64.4,83.3 64.4,75 										"/>
									</g>
								</g>
							</g>
						</g>
						<g id="XMLID_7668_">
							<polygon id="XMLID_7670_" fill="#544129" points="67.2,76.6 67.2,84.9 67.5,85.1 67.5,76.8 							"/>
							<polygon id="XMLID_7669_" fill="#544129" points="67.5,76.8 67.5,76.8 67.5,85.1 67.9,84.9 67.9,77 							"/>
						</g>
						<polygon id="XMLID_7667_" opacity="0.3" points="64.8,75.3 64.8,83.1 64.4,83.3 64.4,75 						"/>
						<polygon id="XMLID_7666_" opacity="0.3" points="67.5,76.8 67.5,76.8 67.5,85.1 67.9,84.9 67.9,77 						"/>
						<path id="XMLID_7663_" opacity="0.1" d="M64.4,74.1l-0.8-0.4v10.4l0.3,0.2l7.3,4.2l0.6,0.3l0-1.3l0.1-9.2L64.4,74.1z
							 M70.9,87.1l-6.5-3.8V75l6.6,3.8L70.9,87.1z"/>
					</g>
				</g>
			</g>
		</g>
		<polygon id="XMLID_7659_" fill="none" points="117.4,85.9 117.4,69.5 89.1,85.9 89.1,102.3 		"/>
	</g>
</g>
<g id="XMLID_8021_">
	<g id="XMLID_8022_">
		<g id="XMLID_8023_">
			<g id="XMLID_8066_">
				<g id="XMLID_8096_">
					<g id="XMLID_8101_">
						<g id="XMLID_8102_">
							<g id="XMLID_8103_">
								<g id="XMLID_8104_">
									<g id="XMLID_8107_">
										<g id="XMLID_8113_">
											<g id="XMLID_8122_">
												<polygon fill="#78D5FB" points="103.2,105.7 110.3,101.4 110.3,93.1 103.2,97.4 												"/>
											</g>
											<g id="XMLID_8116_">
												<polygon id="XMLID_8121_" fill="#78D5FB" points="106.8,103.3 109.6,101.7 109.6,93.8 106.8,95.4 												"/>
												<path id="XMLID_8120_" opacity="0.2" d="M106.8,95.4l2.7-1.6v7.9l-1.7,1c0-2,0.7-3.5,0.7-3.5
													C107.1,99.3,106.8,95.4,106.8,95.4z"/>
												<g id="XMLID_8117_" opacity="0.6">
													<path id="XMLID_8119_" fill="#C6C6C6" d="M107.5,95l2.1-1.2v7.9l-1.3,0.7c0-2,0.5-3.4,0.5-3.4
														C107.7,99,107.5,95,107.5,95z"/>
													<path id="XMLID_8118_" fill="#FFFFFF" d="M107.6,94.9l1.9-1.1v7.9l-1.2,0.7c0-2,0.5-3.4,0.5-3.4
														C107.8,98.9,107.6,94.9,107.6,94.9z"/>
												</g>
											</g>
											<g id="XMLID_8114_">
												<polygon id="XMLID_8115_" fill="#78D5FB" points="106.5,103.5 103.4,105.2 103.4,97.4 106.5,95.6 												"/>
											</g>
										</g>
										<polygon id="XMLID_8112_" opacity="8.000000e-002" points="110,93.6 110,101.6 103.4,97.4 										"/>
										<polygon id="XMLID_8111_" fill="none" points="110,101.8 103.4,105.6 103.4,97.4 110,93.6 										"/>
										<path id="XMLID_8108_" fill="#544129" d="M102.4,97l0.1,9.2l0,1.3l0.6-0.3l7.3-4.2l0.3-0.2V92.3l-0.8,0.4L102.4,97z
											 M103.4,97.4l6.6-3.8v8.2l-6.5,3.8L103.4,97.4z"/>
									</g>
									<polygon id="XMLID_8106_" fill="#544129" points="103.4,105.2 109.6,101.6 110,101.8 103.4,105.6 									"/>
									<polygon id="XMLID_8105_" fill="#544129" points="109.6,93.8 109.6,101.6 110,101.8 110,93.6 									"/>
								</g>
							</g>
						</g>
					</g>
					<polygon id="XMLID_8100_" opacity="0.3" points="109.6,93.8 109.6,101.6 110,101.8 110,93.6 					"/>
					<path id="XMLID_8097_" opacity="0.1" d="M102.4,97l0.1,9.2l0,1.3l0.6-0.3l7.3-4.2l0.3-0.2V92.3l-0.8,0.4L102.4,97z M103.4,97.4
						l6.6-3.8v8.2l-6.5,3.8L103.4,97.4z"/>
				</g>
				<g id="XMLID_8069_">
					<g id="XMLID_8074_">
						<g id="XMLID_8075_">
							<g id="XMLID_8076_">
								<g id="XMLID_8077_">
									<g id="XMLID_8080_">
										<g id="XMLID_8086_">
											<g id="XMLID_8095_">
												<polygon fill="#78D5FB" points="96.6,109.4 103.8,105.1 103.7,96.9 96.6,101.2 												"/>
											</g>
											<g id="XMLID_8093_">
												<polygon id="XMLID_8094_" fill="#78D5FB" points="100.3,107 103,105.5 103,97.6 100.3,99.1 												"/>
											</g>
											<g id="XMLID_8087_">
												<polygon id="XMLID_8092_" fill="#78D5FB" points="99.9,107.2 96.8,109 96.8,101.1 99.9,99.3 												"/>
												<path id="XMLID_8091_" opacity="0.2" d="M99.9,99.3l-3.1,1.8v7.9l1.9-1.1c0-2-0.8-2.6-0.8-2.6
													C99.6,103.6,99.9,99.3,99.9,99.3z"/>
												<g id="XMLID_8088_" opacity="0.6">
													<path id="XMLID_8090_" fill="#C6C6C6" d="M99.2,99.7l-2.4,1.4v7.9l1.5-0.8c0-2-0.6-2.7-0.6-2.7
														C99,104,99.2,99.7,99.2,99.7z"/>
													<path id="XMLID_8089_" fill="#FFFFFF" d="M99,99.9l-2.2,1.3v7.9l1.3-0.8c0-2-0.5-2.8-0.5-2.8
														C98.8,104.1,99,99.9,99,99.9z"/>
												</g>
											</g>
										</g>
										<polygon id="XMLID_8085_" opacity="8.000000e-002" points="103.4,97.4 103,105.4 96.8,101.1 										"/>
										<polygon id="XMLID_8084_" fill="none" points="103.4,105.6 96.9,109.4 96.8,101.1 103.4,97.4 										"/>
										<path id="XMLID_8081_" fill="#544129" d="M95.8,100.8l0.1,9.2l0,1.3l0.6-0.3l7.3-4.2l0,0l0-10.4l-0.4,0.2L95.8,100.8z
											 M96.8,101.1l6.6-3.8v8.2l-6.5,3.8L96.8,101.1z"/>
									</g>
									<polygon id="XMLID_8079_" fill="#544129" points="96.9,108.9 103,105.4 103.4,105.6 96.9,109.4 									"/>
									<polygon id="XMLID_8078_" fill="#544129" points="103,97.6 103,105.4 103.4,105.6 103.4,97.4 									"/>
								</g>
							</g>
						</g>
					</g>
					<polygon id="XMLID_8073_" opacity="0.3" points="103,97.6 103,105.4 103.4,105.6 103.4,97.4 					"/>
					<path id="XMLID_8070_" opacity="0.1" d="M95.8,100.8l0.1,9.2l0,1.3l0.6-0.3l7.3-4.2l0,0l0-10.4l-0.4,0.2L95.8,100.8z
						 M96.8,101.1l6.6-3.8v8.2l-6.5,3.8L96.8,101.1z"/>
				</g>
				<polygon id="XMLID_8068_" opacity="0.1" points="110.7,102.7 95.9,111.2 95.8,100.8 110.7,92.3 				"/>
				<polygon id="XMLID_8067_" fill="none" points="117.4,85.9 117.4,102.3 117.4,102.3 89.1,118.6 89.1,102.3 				"/>
			</g>
			<g id="Window_5_">
				<g id="XMLID_8025_">
					<g id="XMLID_8034_">
						<g id="XMLID_8038_">
							<g id="XMLID_8039_">
								<g id="XMLID_8041_">
									<g id="XMLID_8046_">
										<g id="XMLID_8052_">
											<g id="XMLID_8065_">
												<polygon fill="#78D5FB" points="85.3,111.7 78.2,107.4 78.2,99.1 85.4,103.4 												"/>
											</g>
											<g id="XMLID_8059_">
												<polygon id="XMLID_8064_" fill="#78D5FB" points="81.7,109.3 79,107.7 79,99.8 81.7,101.4 												"/>
												<path id="XMLID_8063_" opacity="0.2" d="M81.7,101.4L79,99.8v7.9l1.7,1c0-2-0.7-3.5-0.7-3.5
													C81.4,105.3,81.7,101.4,81.7,101.4z"/>
												<g id="XMLID_8060_" opacity="0.6">
													<path id="XMLID_8062_" fill="#C6C6C6" d="M81.1,101L79,99.8v7.9l1.3,0.7c0-2-0.5-3.4-0.5-3.4
														C80.8,105,81.1,101,81.1,101z"/>
													<path id="XMLID_8061_" fill="#FFFFFF" d="M80.9,100.9L79,99.8v7.9l1.2,0.7c0-2-0.5-3.4-0.5-3.4
														C80.7,104.9,80.9,100.9,80.9,100.9z"/>
												</g>
											</g>
											<g id="XMLID_8053_">
												<polygon id="XMLID_8058_" fill="#78D5FB" points="82,109.5 85.1,111.2 85.1,103.4 82,101.6 												"/>
												<path id="XMLID_8057_" opacity="0.2" d="M82,101.6l3.1,1.8v7.9l-1.9-1.1c0-2,0.8-2.6,0.8-2.6
													C82.4,105.9,82,101.6,82,101.6z"/>
												<g id="XMLID_8054_" opacity="0.6">
													<path id="XMLID_8056_" fill="#C6C6C6" d="M82.8,102l2.4,1.4v7.9l-1.5-0.8c0-2,0.6-2.7,0.6-2.7
														C83,106.2,82.8,102,82.8,102z"/>
													<path id="XMLID_8055_" fill="#FFFFFF" d="M82.9,102.1l2.2,1.3v7.9l-1.3-0.8c0-2,0.5-2.8,0.5-2.8
														C83.2,106.3,82.9,102.1,82.9,102.1z"/>
												</g>
											</g>
										</g>
										<polygon id="XMLID_8051_" opacity="8.000000e-002" points="78.6,99.6 85.1,111.2 85.1,103.4 										"/>
										<polygon id="XMLID_8050_" fill="none" points="78.6,107.9 85.1,111.6 85.1,103.4 78.6,99.6 										"/>
										<path id="XMLID_8047_" fill="#544129" d="M78.6,98.7l-0.8-0.4v10.4l0.3,0.2l7.3,4.2l0.6,0.3l0-1.3l0.1-9.2L78.6,98.7z
											 M85.1,111.6l-6.5-3.8v-8.2l6.6,3.8L85.1,111.6z"/>
									</g>
									<polygon id="XMLID_8045_" fill="#544129" points="85.1,111.2 78.9,107.6 78.6,107.9 85.1,111.6 									"/>
									<polygon id="XMLID_8043_" fill="#544129" points="79,99.8 78.9,107.6 78.6,107.9 78.6,99.6 									"/>
								</g>
							</g>
						</g>
					</g>
					<g id="XMLID_8031_">
						<polygon id="XMLID_8033_" fill="#544129" points="81.4,101.2 81.4,109.5 81.7,109.7 81.7,101.4 						"/>
						<polygon id="XMLID_8032_" fill="#544129" points="81.7,101.4 81.7,101.4 81.7,109.7 82,109.4 82,101.6 						"/>
					</g>
					<polygon id="XMLID_8030_" opacity="0.3" points="79,99.8 78.9,107.6 78.6,107.9 78.6,99.6 					"/>
					<polygon id="XMLID_8029_" opacity="0.3" points="81.7,101.4 81.7,101.4 81.7,109.7 82,109.4 82,101.6 					"/>
					<path id="XMLID_8026_" opacity="0.1" d="M78.6,98.7l-0.8-0.4v10.4l0.3,0.2l7.3,4.2l0.6,0.3l0-1.3l0.1-9.2L78.6,98.7z
						 M85.1,111.6l-6.5-3.8v-8.2l6.6,3.8L85.1,111.6z"/>
				</g>
			</g>
			<polygon id="XMLID_8024_" opacity="0.5" fill="none" points="60.7,102.3 89.1,118.6 89.1,102.3 60.7,85.9 			"/>
		</g>
	</g>
</g>
</svg>
