<?xml version="1.0" encoding="utf-8"?>
<!-- Generator: Adobe Illustrator 16.0.0, SVG Export Plug-In . SVG Version: 6.00 Build 0)  -->
<!DOCTYPE svg PUBLIC "-//W3C//DTD SVG 1.1//EN" "http://www.w3.org/Graphics/SVG/1.1/DTD/svg11.dtd">
<svg version="1.1" id="Layer_1" xmlns="http://www.w3.org/2000/svg" xmlns:xlink="http://www.w3.org/1999/xlink" x="0px" y="0px"
	 width="164px" height="164px" viewBox="0 0 164 164" enable-background="new 0 0 164 164" xml:space="preserve">
<g id="XMLID_17472_">
	<g id="XMLID_17474_">
		<polygon id="XMLID_17499_" fill="#848484" points="72.1,78.8 73.1,79.3 73.8,78.2 72.7,77.7 		"/>
		<path id="XMLID_17498_" opacity="0.3" d="M77.9,71.5l-11.7-6.4c-0.1-0.1-0.2,0-0.3,0.1l-0.3,0.5l0.3,0.2l0,0l-3.3,5.7l-0.3-0.2
			l-0.3,0.5c0,0.1,0,0.2,0.1,0.3l11.7,6.4c0.1,0.1,0.2,0,0.3-0.1l0.3-0.5l-0.3-0.2l3.3-5.7l0.3,0.2l0.3-0.5
			C78,71.7,78,71.6,77.9,71.5z"/>
		<polygon id="XMLID_17497_" fill="#002947" points="62.4,71 65.7,65.3 77.2,71.2 77.1,71.6 73.8,77.3 62.9,71.7 		"/>
		<g id="XMLID_17480_">
			<g id="XMLID_17481_">
				<polygon id="XMLID_17496_" fill="#001B24" points="77.1,71.6 76.7,71.3 73.4,77 73.8,77.3 				"/>
				<g id="XMLID_17482_">
					<polygon id="XMLID_17495_" fill="#001B24" points="67.4,66.2 67,65.9 63.6,71.6 64.4,72.1 64.4,72.1 64,71.9 					"/>
					<polygon id="XMLID_17494_" fill="#001B24" points="69.8,67.5 69.4,67.3 66.1,73 66.9,73.4 66.9,73.4 66.5,73.2 					"/>
					<polygon id="XMLID_17493_" fill="#001B24" points="72.2,68.9 71.8,68.6 68.5,74.3 69.3,74.8 69.3,74.8 68.9,74.6 					"/>
					<polygon id="XMLID_17492_" fill="#001B24" points="74.7,70.2 74.3,70 71,75.7 71.8,76.1 71.8,76.1 71.4,75.9 					"/>
					<polygon id="XMLID_17491_" fill="#001B24" points="66.1,65.5 62.8,71.2 63.2,71.4 66.5,65.7 					"/>
					<polygon id="XMLID_17490_" fill="#001B24" points="68.2,66.6 67.4,66.2 67.4,66.2 67.8,66.4 64.4,72.1 64.8,72.3 					"/>
					<polygon id="XMLID_17489_" fill="#001B24" points="68.6,66.8 65.3,72.5 65.7,72.8 69,67.1 					"/>
					<polygon id="XMLID_17488_" fill="#001B24" points="70.6,68 69.8,67.5 69.8,67.5 70.2,67.7 66.9,73.4 67.3,73.7 					"/>
					<polygon id="XMLID_17487_" fill="#001B24" points="71,68.2 67.7,73.9 68.1,74.1 71.4,68.4 					"/>
					<polygon id="XMLID_17486_" fill="#001B24" points="73.1,69.3 72.2,68.9 72.2,68.9 72.7,69.1 69.3,74.8 69.7,75 					"/>
					<polygon id="XMLID_17485_" fill="#001B24" points="73.5,69.5 70.1,75.2 70.6,75.5 73.9,69.8 					"/>
					<polygon id="XMLID_17484_" fill="#001B24" points="75.5,70.6 74.7,70.2 74.7,70.2 75.1,70.4 71.8,76.1 72.2,76.4 					"/>
					<polygon id="XMLID_17483_" fill="#001B24" points="75.9,70.9 72.6,76.6 73,76.8 76.3,71.1 					"/>
				</g>
			</g>
		</g>
		<path id="XMLID_17479_" fill="#001B24" d="M61.8,71.3c0,0.1,0,0.2,0.1,0.3L73.6,78c0.1,0.1,0.2,0,0.3-0.1l0.3-0.5l-12.1-6.6
			L61.8,71.3z"/>
		<path id="XMLID_17478_" fill="#001B24" d="M77.7,71.2c0.1-0.1,0-0.2-0.1-0.3L66,64.5c-0.1-0.1-0.2,0-0.3,0.1l-0.3,0.5l12,6.6
			L77.7,71.2z"/>
		<polygon id="XMLID_17477_" opacity="0.2" points="73.2,78.4 73.4,78.9 73.1,79.3 72.9,79.2 72.7,78.5 		"/>
		<path id="XMLID_17476_" fill="#001B24" d="M73.3,77.5l-0.4-0.2L72.5,78c0,0.1,0,0.1,0,0.2l0,0v0l0.1,0.2c0,0.1,0.1,0.2,0.3,0.2
			c0.2,0,0.3-0.2,0.3-0.3L73,78L73.3,77.5z"/>
		<path id="XMLID_17475_" opacity="0.2" d="M72.5,78.2l0.1,0.2c0,0.1,0.1,0.2,0.3,0.2c0.2,0,0.3-0.2,0.3-0.3L73,78
			C73,78,72.8,78.5,72.5,78.2L72.5,78.2L72.5,78.2z"/>
	</g>
	<polygon id="XMLID_17473_" opacity="4.000000e-002" fill="#FFFFFF" points="65.7,65.3 77.1,71.6 62.4,71 	"/>
</g>
</svg>
