<?xml version="1.0" encoding="utf-8"?>
<!-- Generator: Adobe Illustrator 16.0.0, SVG Export Plug-In . SVG Version: 6.00 Build 0)  -->
<!DOCTYPE svg PUBLIC "-//W3C//DTD SVG 1.1//EN" "http://www.w3.org/Graphics/SVG/1.1/DTD/svg11.dtd">
<svg version="1.1" id="Layer_1" xmlns="http://www.w3.org/2000/svg" xmlns:xlink="http://www.w3.org/1999/xlink" x="0px" y="0px"
	 width="164px" height="164px" viewBox="0 0 164 164" enable-background="new 0 0 164 164" xml:space="preserve">
<g id="XMLID_16268_">
	<g id="XMLID_16486_">
		<g id="XMLID_16615_">
			<g id="XMLID_16758_">
				<g id="XMLID_16782_">
					<defs>
						<polygon id="XMLID_16783_" points="89.1,85.9 103.3,61.4 117.4,69.5 						"/>
					</defs>
					<clipPath id="XMLID_4_">
						<use xlink:href="#XMLID_16783_"  overflow="visible"/>
					</clipPath>
					<g id="XMLID_16846_" clip-path="url(#XMLID_4_)">
						<defs>
							<polygon id="XMLID_16848_" points="89.1,85.9 103.3,61.4 117.4,69.5 							"/>
						</defs>
						<use xlink:href="#XMLID_16848_"  overflow="visible" fill="#AD856A"/>
						<clipPath id="XMLID_5_">
							<use xlink:href="#XMLID_16848_"  overflow="visible"/>
						</clipPath>
					</g>
					<g id="XMLID_16784_" clip-path="url(#XMLID_4_)">
						<polygon id="XMLID_16845_" fill="#90674C" points="103.3,63.4 103.3,63.4 105.6,62 105.6,60 103.3,61.4 101.6,62.3 
							101.6,64.3 						"/>
						<polygon id="XMLID_16843_" fill="#90674C" points="100.9,64.7 100.9,62.7 99.8,63.4 96.9,65.1 96.9,67.1 						"/>
						<polygon id="XMLID_16841_" fill="#90674C" points="96.2,67.5 96.2,65.5 96.1,65.5 92.1,67.8 92.1,69.8 						"/>
						<polygon id="XMLID_16839_" fill="#90674C" points="91.4,68.2 89.1,69.5 89.1,71.5 91.4,70.2 						"/>
						<polygon id="XMLID_16837_" fill="#90674C" points="94.5,71.2 98.6,68.8 98.6,66.8 94.5,69.2 						"/>
						<polygon id="XMLID_16833_" fill="#90674C" points="89.7,71.9 89.7,73.9 93.8,71.6 93.8,69.6 						"/>
						<polygon id="XMLID_16825_" fill="#90674C" points="103.3,64.1 99.2,66.5 99.2,68.4 103.3,66.1 						"/>
						<polygon id="XMLID_16824_" fill="#90674C" points="89.7,84.9 93.8,82.5 93.8,80.5 89.7,82.9 						"/>
						<polygon id="XMLID_16810_" fill="#90674C" points="94.5,82.1 98.6,79.8 98.6,77.8 94.5,80.1 						"/>
						<polygon id="XMLID_16809_" fill="#90674C" points="89.7,79.4 93.8,77 93.8,75 89.7,77.4 						"/>
						<polygon id="XMLID_16808_" fill="#90674C" points="98.6,72.3 94.5,74.7 94.5,76.7 98.6,74.3 						"/>
						<polygon id="XMLID_16807_" fill="#90674C" points="91.4,79.2 89.1,80.5 89.1,82.5 91.4,81.2 						"/>
						<polygon id="XMLID_16806_" fill="#90674C" points="96.2,78.4 96.2,76.4 92.1,78.8 92.1,80.8 						"/>
						<polygon id="XMLID_16805_" fill="#90674C" points="103.3,74.4 103.3,72.4 101.6,73.3 101.6,75.3 						"/>
						<polygon id="XMLID_16804_" fill="#90674C" points="91.4,73.7 89.1,75.1 89.1,77.1 91.4,75.7 						"/>
						<polygon id="XMLID_16803_" fill="#90674C" points="96.2,72.9 96.2,71 92.1,73.3 92.1,75.3 						"/>
						<polygon id="XMLID_16802_" fill="#90674C" points="96.9,72.6 100.9,70.2 100.9,68.2 96.9,70.6 						"/>
						<polygon id="XMLID_16801_" fill="#90674C" points="115.8,54.1 115.8,56.1 117.5,55.2 117.5,53.2 						"/>
						<polygon id="XMLID_16800_" fill="#90674C" points="115.1,56.5 115.1,54.6 114,55.2 111,56.9 111,58.9 						"/>
						<polygon id="XMLID_16799_" fill="#90674C" points="110.4,59.3 110.4,57.3 110.3,57.3 106.3,59.6 106.3,61.6 						"/>
						<polygon id="XMLID_16798_" fill="#90674C" points="108.7,63 112.7,60.6 112.7,58.6 108.7,61 						"/>
						<polygon id="XMLID_16797_" fill="#90674C" points="103.9,65.7 108,63.4 108,61.4 103.9,63.7 						"/>
						<polygon id="XMLID_16796_" fill="#90674C" points="113.4,60.3 117.5,57.9 117.5,55.9 113.4,58.3 						"/>
						<polygon id="XMLID_16795_" fill="#90674C" points="113.4,71.2 117.5,68.9 117.5,66.9 113.4,69.2 						"/>
						<polygon id="XMLID_16794_" fill="#90674C" points="108,68.9 108,66.9 103.9,69.2 103.9,71.2 						"/>
						<polygon id="XMLID_16793_" fill="#90674C" points="108.7,68.5 112.7,66.1 112.7,64.1 108.7,66.5 						"/>
						<polygon id="XMLID_16792_" fill="#90674C" points="113.4,65.7 117.5,63.4 117.5,61.4 113.4,63.7 						"/>
						<polygon id="XMLID_16791_" fill="#90674C" points="105.6,71 103.3,72.4 103.3,74.4 105.6,73 						"/>
						<polygon id="XMLID_16790_" fill="#90674C" points="110.4,70.2 110.4,68.2 106.3,70.6 106.3,72.6 						"/>
						<polygon id="XMLID_16789_" fill="#90674C" points="115.8,67.1 117.5,66.2 117.5,64.2 115.8,65.1 						"/>
						<polygon id="XMLID_16788_" fill="#90674C" points="111,69.9 115.1,67.5 115.1,65.5 111,67.9 						"/>
						<polygon id="XMLID_16787_" fill="#90674C" points="106.3,67.1 110.4,64.8 110.4,62.8 106.3,65.1 						"/>
						<polygon id="XMLID_16786_" fill="#90674C" points="115.8,61.7 117.5,60.7 117.5,58.7 115.8,59.7 						"/>
						<polygon id="XMLID_16785_" fill="#90674C" points="115.1,60 111,62.4 111,64.4 115.1,62 						"/>
					</g>
				</g>
				<g id="XMLID_16759_">
					<path id="XMLID_16781_" fill="#544129" d="M107.5,70.4c0,2.3-1.6,4.9-3.5,5.8s-3.5-0.2-3.5-2.5c0-2.3,1.6-4.9,3.5-5.8
						C106,67,107.5,68.1,107.5,70.4z"/>
					<g id="XMLID_16780_" opacity="0.1">
						<path d="M105.4,67.6c-0.4,0-0.8,0.1-1.3,0.3c-1.9,0.9-3.5,3.5-3.5,5.8c0,1.7,0.9,2.8,2.2,2.8c0.4,0,0.8-0.1,1.3-0.3
							c1.9-0.9,3.5-3.5,3.5-5.8C107.5,68.6,106.6,67.6,105.4,67.6L105.4,67.6z"/>
					</g>
					<path id="XMLID_16779_" fill="#78D5FB" d="M105.4,68.4c-0.3,0-0.6,0.1-0.9,0.2c-1.6,0.8-3,3.1-3,5c0,0.9,0.3,1.9,1.3,1.9
						c0.3,0,0.6-0.1,0.9-0.2c1.6-0.8,3-3.1,3-5C106.7,69.4,106.3,68.4,105.4,68.4z"/>
					<path id="XMLID_16778_" fill="#78D5FB" d="M106.1,70.4c0-0.8-0.3-1.7-1-1.9c-0.2,0-0.4,0.1-0.6,0.2c-1.6,0.8-3,3.1-3,5
						c0,0.8,0.3,1.7,1,1.9c0.2,0,0.4-0.1,0.6-0.2C104.7,74.6,106.1,72.3,106.1,70.4z"/>
					<g id="XMLID_16762_">
						<defs>
							<path id="XMLID_16763_" d="M105.4,68.4c-0.1,0-0.2,0-0.3,0c-0.2,0-0.4,0.1-0.6,0.2c-1.6,0.8-3,3.1-3,5c0,0.8,0.3,1.7,1,1.9
								c0.1,0,0.2,0,0.3,0c0.3,0,0.6-0.1,0.9-0.2c1.6-0.8,3-3.1,3-5C106.7,69.4,106.3,68.4,105.4,68.4z"/>
						</defs>
						<clipPath id="XMLID_6_">
							<use xlink:href="#XMLID_16763_"  overflow="visible"/>
						</clipPath>
						<g id="XMLID_16764_" clip-path="url(#XMLID_6_)">
							<g id="XMLID_16777_">
								<polygon fill="#78D5FB" points="101.4,76.9 107.2,73.5 107.2,66.8 101.4,70.3 								"/>
							</g>
							<g id="XMLID_16772_">
								<polygon id="XMLID_16776_" fill="#78D5FB" points="104.3,75 106.5,73.7 106.5,67.4 104.3,68.6 								"/>
								<path id="XMLID_16775_" opacity="0.2" d="M104.3,68.6l2.2-1.3v6.4l-1.4,0.8c0-1.6,0.6-2.8,0.6-2.8
									C104.5,71.8,104.3,68.6,104.3,68.6z"/>
								<g id="XMLID_16773_" opacity="0.6">
									<path id="XMLID_16774_" fill="#C6C6C6" d="M104.8,68.3l2.5-1.8l1,7.1l-2.8,0.6c0-1.6,0.4-2.7,0.4-2.7
										C105,71.5,104.8,68.3,104.8,68.3z"/>
								</g>
							</g>
							<g id="XMLID_16767_">
								<polygon id="XMLID_16771_" fill="#78D5FB" points="104,75.2 101.6,76.6 101.6,70.2 104,68.8 								"/>
								<path id="XMLID_16770_" opacity="0.2" d="M104,68.8l-2.5,1.4v6.4l1.5-0.9c0-1.6-0.6-2.1-0.6-2.1
									C103.8,72.2,104,68.8,104,68.8z"/>
								<g id="XMLID_16768_" opacity="0.6">
									<path id="XMLID_16769_" fill="#C6C6C6" d="M103.5,69.1l-2.5,1.7v6.4l1.8-1.2c0-1.6-0.5-2.2-0.5-2.2
										C103.3,72.5,103.5,69.1,103.5,69.1z"/>
								</g>
							</g>
							<path id="XMLID_16766_" opacity="0.6" fill="#FFFFFF" d="M105,68.3l1.8-1.1v6.4l-1.2,0.8c0-1.6,0.4-2.7,0.4-2.7
								C105.1,71.5,105,68.3,105,68.3z"/>
							<path id="XMLID_16765_" opacity="0.6" fill="#FFFFFF" d="M103.3,69.2l-1.8,1v6.4l1.1-0.6c0-1.6-0.4-2.2-0.4-2.2
								C103.1,72.6,103.3,69.2,103.3,69.2z"/>
						</g>
					</g>
					<path id="XMLID_16761_" opacity="8.000000e-002" d="M105.1,68.5c-0.2,0-0.4,0.1-0.6,0.2c-0.8,0.4-1.5,1.1-2,1.9
						c1.7,0.4,2.6,1.2,3,2.1c0.4-0.8,0.6-1.6,0.6-2.4C106.1,69.5,105.8,68.7,105.1,68.5z"/>
					<path id="XMLID_16760_" opacity="0.3" d="M105.4,68.4c-0.1,0-0.2,0-0.3,0c0.7,0.2,1,1.1,1,1.9c0,1.9-1.4,4.3-3,5
						c-0.2,0.1-0.4,0.2-0.6,0.2c0.1,0,0.2,0,0.3,0c0.3,0,0.6-0.1,0.9-0.2c1.6-0.8,3-3.1,3-5C106.7,69.4,106.3,68.4,105.4,68.4z"/>
				</g>
			</g>
			<g id="XMLID_16616_">
				<polygon id="XMLID_16757_" fill="#7C4723" points="120,71 103.2,61.4 103.2,61.4 90.4,54 75,80.7 89.2,88.9 103.8,63.6 
					118.3,72 				"/>
				<g id="XMLID_16617_">
					<g id="XMLID_16740_">
						<g id="XMLID_16753_">
							<path id="XMLID_16756_" fill="#B26028" d="M88.4,83.8c1.2,0.6,1.6,0.2,1.2,1L87.7,88c-0.4,0.7-1.9-0.5-3.1-1.1
								c-1.2-0.6-1.6-0.2-1.2-1l1.9-3.2C85.7,82,87.2,83.2,88.4,83.8z"/>
							<path id="XMLID_16755_" opacity="0.2" fill="#272525" d="M84.8,86.4c1.2,0.6,2.7,1.8,3.1,1.1L87.7,88
								c-0.4,0.7-1.9-0.5-3.1-1.1c-1.2-0.6-1.6-0.2-1.2-1l0.3-0.5C83.2,86.2,83.6,85.9,84.8,86.4z"/>
							<path id="XMLID_16754_" opacity="0.1" fill="#272525" d="M87.8,83.9c-1-0.5-2.3-1.6-2.7-0.9l0.2-0.3c0.4-0.7,1.9,0.5,3.1,1.1
								c1.2,0.6,1.6,0.2,1.2,1l-1.6,2.8c-0.2,0.3-0.5,0.3-0.8,0.2l1.7-2.8C89.2,84.1,88.8,84.4,87.8,83.9z"/>
						</g>
						<g id="XMLID_16749_">
							<path id="XMLID_16752_" fill="#B26028" d="M84.9,81.7c1.2,0.6,1.6,0.2,1.2,1l-1.9,3.2c-0.4,0.7-1.9-0.5-3.1-1.1
								c-1.2-0.6-1.6-0.2-1.2-1l1.9-3.2C82.2,79.9,83.7,81.2,84.9,81.7z"/>
							<path id="XMLID_16751_" opacity="0.2" fill="#272525" d="M81.3,84.4c1.2,0.6,2.7,1.8,3.1,1.1l-0.3,0.5
								c-0.4,0.7-1.9-0.5-3.1-1.1c-1.2-0.6-1.6-0.2-1.2-1l0.3-0.5C79.7,84.2,80.1,83.8,81.3,84.4z"/>
							<path id="XMLID_16750_" opacity="0.1" fill="#272525" d="M84.3,81.9c-1-0.5-2.3-1.6-2.7-0.9l0.2-0.3c0.4-0.7,1.9,0.5,3.1,1.1
								c1.2,0.6,1.6,0.2,1.2,1l-1.6,2.8c-0.2,0.3-0.5,0.3-0.8,0.2l1.7-2.8C85.7,82,85.3,82.4,84.3,81.9z"/>
						</g>
						<g id="XMLID_16745_">
							<path id="XMLID_16748_" fill="#B26028" d="M81.4,79.7c1.2,0.6,1.6,0.2,1.2,1l-1.9,3.2c-0.4,0.7-1.9-0.5-3.1-1.1
								c-1.2-0.6-1.6-0.2-1.2-1l1.9-3.2C78.7,77.9,80.2,79.1,81.4,79.7z"/>
							<path id="XMLID_16747_" opacity="0.2" fill="#272525" d="M77.8,82.4c1.2,0.6,2.7,1.8,3.1,1.1l-0.3,0.5
								c-0.4,0.7-1.9-0.5-3.1-1.1c-1.2-0.6-1.6-0.2-1.2-1l0.3-0.5C76.2,82.1,76.6,81.8,77.8,82.4z"/>
							<path id="XMLID_16746_" opacity="0.1" fill="#272525" d="M80.8,79.8c-1-0.5-2.3-1.6-2.7-0.9l0.2-0.3c0.4-0.7,1.9,0.5,3.1,1.1
								c1.2,0.6,1.6,0.2,1.2,1L81,83.4c-0.2,0.3-0.5,0.3-0.8,0.2l1.7-2.8C82.2,80,81.8,80.3,80.8,79.8z"/>
						</g>
						<g id="XMLID_16741_">
							<path id="XMLID_16744_" fill="#B26028" d="M77.9,77.6c1.2,0.6,1.6,0.2,1.2,1l-1.9,3.2c-0.4,0.7-1.9-0.5-3.1-1.1
								c-1.2-0.6-1.6-0.2-1.2-1l1.9-3.2C75.2,75.8,76.7,77.1,77.9,77.6z"/>
							<path id="XMLID_16743_" opacity="0.2" fill="#272525" d="M74.3,80.3c1.2,0.6,2.7,1.8,3.1,1.1l-0.3,0.5
								c-0.4,0.7-1.9-0.5-3.1-1.1c-1.2-0.6-1.6-0.2-1.2-1l0.3-0.5C72.7,80.1,73.2,79.8,74.3,80.3z"/>
							<path id="XMLID_16742_" opacity="0.1" fill="#272525" d="M77.3,77.8c-1-0.5-2.3-1.6-2.7-0.9l0.2-0.3c0.4-0.7,1.9,0.5,3.1,1.1
								c1.2,0.6,1.6,0.2,1.2,1l-1.6,2.8c-0.2,0.3-0.5,0.3-0.8,0.2l1.7-2.8C78.7,77.9,78.3,78.3,77.3,77.8z"/>
						</g>
					</g>
					<g id="XMLID_16723_">
						<g id="XMLID_16736_">
							<path id="XMLID_16739_" fill="#B26028" d="M90.3,80.4c1.2,0.6,1.6,0.2,1.2,1l-1.9,3.2c-0.4,0.7-1.9-0.5-3.1-1.1
								c-1.2-0.6-1.6-0.2-1.2-1l1.9-3.2C87.6,78.6,89.1,79.9,90.3,80.4z"/>
							<path id="XMLID_16738_" opacity="0.2" fill="#272525" d="M86.8,83.1c1.2,0.6,2.7,1.8,3.1,1.1l-0.3,0.5
								c-0.4,0.7-1.9-0.5-3.1-1.1c-1.2-0.6-1.6-0.2-1.2-1l0.3-0.5C85.1,82.9,85.6,82.5,86.8,83.1z"/>
							<path id="XMLID_16737_" opacity="0.1" fill="#272525" d="M89.7,80.6c-1-0.5-2.3-1.6-2.7-0.9l0.2-0.3c0.4-0.7,1.9,0.5,3.1,1.1
								c1.2,0.6,1.6,0.2,1.2,1l-1.6,2.8c-0.2,0.3-0.5,0.3-0.8,0.2l1.7-2.8C91.1,80.7,90.7,81.1,89.7,80.6z"/>
						</g>
						<g id="XMLID_16732_">
							<path id="XMLID_16735_" fill="#B26028" d="M86.8,78.4c1.2,0.6,1.6,0.2,1.2,1l-1.9,3.2c-0.4,0.7-1.9-0.5-3.1-1.1
								c-1.2-0.6-1.6-0.2-1.2-1l1.9-3.2C84.1,76.6,85.6,77.8,86.8,78.4z"/>
							<path id="XMLID_16734_" opacity="0.2" fill="#272525" d="M83.3,81.1c1.2,0.6,2.7,1.8,3.1,1.1l-0.3,0.5
								c-0.4,0.7-1.9-0.5-3.1-1.1c-1.2-0.6-1.6-0.2-1.2-1l0.3-0.5C81.6,80.8,82.1,80.5,83.3,81.1z"/>
							<path id="XMLID_16733_" opacity="0.1" fill="#272525" d="M86.2,78.5c-1-0.5-2.3-1.6-2.7-0.9l0.2-0.3c0.4-0.7,1.9,0.5,3.1,1.1
								c1.2,0.6,1.6,0.2,1.2,1l-1.6,2.8c-0.2,0.3-0.5,0.3-0.8,0.2l1.7-2.8C87.7,78.7,87.2,79,86.2,78.5z"/>
						</g>
						<g id="XMLID_16728_">
							<path id="XMLID_16731_" fill="#B26028" d="M83.3,76.3c1.2,0.6,1.6,0.2,1.2,1l-1.9,3.2c-0.4,0.7-1.9-0.5-3.1-1.1
								c-1.2-0.6-1.6-0.2-1.2-1l1.9-3.2C80.6,74.5,82.1,75.8,83.3,76.3z"/>
							<path id="XMLID_16730_" opacity="0.2" fill="#272525" d="M79.8,79c1.2,0.6,2.7,1.8,3.1,1.1l-0.3,0.5
								c-0.4,0.7-1.9-0.5-3.1-1.1c-1.2-0.6-1.6-0.2-1.2-1l0.3-0.5C78.1,78.8,78.6,78.5,79.8,79z"/>
							<path id="XMLID_16729_" opacity="0.1" fill="#272525" d="M82.7,76.5c-1-0.5-2.3-1.6-2.7-0.9l0.2-0.3c0.4-0.7,1.9,0.5,3.1,1.1
								c1.2,0.6,1.6,0.2,1.2,1l-1.6,2.8c-0.2,0.3-0.5,0.3-0.8,0.2l1.7-2.8C84.2,76.6,83.7,77,82.7,76.5z"/>
						</g>
						<g id="XMLID_16724_">
							<path id="XMLID_16727_" fill="#B26028" d="M79.8,74.3c1.2,0.6,1.6,0.2,1.2,1l-1.9,3.2c-0.4,0.7-1.9-0.5-3.1-1.1
								c-1.2-0.6-1.6-0.2-1.2-1l1.9-3.2C77.1,72.5,78.6,73.7,79.8,74.3z"/>
							<path id="XMLID_16726_" opacity="0.2" fill="#272525" d="M76.3,77c1.2,0.6,2.7,1.8,3.1,1.1l-0.3,0.5
								c-0.4,0.7-1.9-0.5-3.1-1.1c-1.2-0.6-1.6-0.2-1.2-1l0.3-0.5C74.6,76.8,75.1,76.4,76.3,77z"/>
							<path id="XMLID_16725_" opacity="0.1" fill="#272525" d="M79.2,74.5c-1-0.5-2.3-1.6-2.7-0.9l0.2-0.3c0.4-0.7,1.9,0.5,3.1,1.1
								c1.2,0.6,1.6,0.2,1.2,1L79.4,78c-0.2,0.3-0.5,0.3-0.8,0.2l1.7-2.8C80.7,74.6,80.2,74.9,79.2,74.5z"/>
						</g>
					</g>
					<g id="XMLID_16671_">
						<g id="XMLID_16706_">
							<g id="XMLID_16719_">
								<path id="XMLID_16722_" fill="#B26028" d="M92.2,77.1c1.2,0.6,1.6,0.2,1.2,1l-1.9,3.2c-0.4,0.7-1.9-0.5-3.1-1.1
									c-1.2-0.6-1.6-0.2-1.2-1l1.9-3.2C89.5,75.3,91,76.5,92.2,77.1z"/>
								<path id="XMLID_16721_" opacity="0.2" fill="#272525" d="M88.7,79.8c1.2,0.6,2.7,1.8,3.1,1.1l-0.3,0.5
									c-0.4,0.7-1.9-0.5-3.1-1.1c-1.2-0.6-1.6-0.2-1.2-1l0.3-0.5C87,79.5,87.5,79.2,88.7,79.8z"/>
								<path id="XMLID_16720_" opacity="0.1" fill="#272525" d="M91.6,77.2c-1-0.5-2.3-1.6-2.7-0.9l0.2-0.3
									c0.4-0.7,1.9,0.5,3.1,1.1c1.2,0.6,1.6,0.2,1.2,1l-1.6,2.8c-0.2,0.3-0.5,0.3-0.8,0.2l1.7-2.8C93.1,77.4,92.6,77.7,91.6,77.2z
									"/>
							</g>
							<g id="XMLID_16715_">
								<path id="XMLID_16718_" fill="#B26028" d="M88.7,75c1.2,0.6,1.6,0.2,1.2,1L88,79.2c-0.4,0.7-1.9-0.5-3.1-1.1
									c-1.2-0.6-1.6-0.2-1.2-1l1.9-3.2C86,73.2,87.5,74.5,88.7,75z"/>
								<path id="XMLID_16717_" opacity="0.2" fill="#272525" d="M85.2,77.7c1.2,0.6,2.7,1.8,3.1,1.1L88,79.2
									c-0.4,0.7-1.9-0.5-3.1-1.1c-1.2-0.6-1.6-0.2-1.2-1l0.3-0.5C83.5,77.5,84,77.2,85.2,77.7z"/>
								<path id="XMLID_16716_" opacity="0.1" fill="#272525" d="M88.1,75.2c-1-0.5-2.3-1.6-2.7-0.9l0.2-0.3
									c0.4-0.7,1.9,0.5,3.1,1.1s1.6,0.2,1.2,1l-1.6,2.8c-0.2,0.3-0.5,0.3-0.8,0.2l1.7-2.8C89.6,75.3,89.2,75.7,88.1,75.2z"/>
							</g>
							<g id="XMLID_16711_">
								<path id="XMLID_16714_" fill="#B26028" d="M85.2,73c1.2,0.6,1.6,0.2,1.2,1l-1.9,3.2c-0.4,0.7-1.9-0.5-3.1-1.1
									c-1.2-0.6-1.6-0.2-1.2-1l1.9-3.2C82.5,71.2,84,72.4,85.2,73z"/>
								<path id="XMLID_16713_" opacity="0.2" fill="#272525" d="M81.7,75.7c1.2,0.6,2.7,1.8,3.1,1.1l-0.3,0.5
									c-0.4,0.7-1.9-0.5-3.1-1.1c-1.2-0.6-1.6-0.2-1.2-1l0.3-0.5C80,75.4,80.5,75.1,81.7,75.7z"/>
								<path id="XMLID_16712_" opacity="0.1" fill="#272525" d="M84.6,73.1c-1-0.5-2.3-1.6-2.7-0.9l0.2-0.3
									c0.4-0.7,1.9,0.5,3.1,1.1c1.2,0.6,1.6,0.2,1.2,1l-1.6,2.8C84.6,77,84.3,77,84,76.9l1.7-2.8C86.1,73.3,85.7,73.6,84.6,73.1z"
									/>
							</g>
							<g id="XMLID_16707_">
								<path id="XMLID_16710_" fill="#B26028" d="M81.7,71c1.2,0.6,1.6,0.2,1.2,1L81,75.2c-0.4,0.7-1.9-0.5-3.1-1.1
									c-1.2-0.6-1.6-0.2-1.2-1l1.9-3.2C79,69.2,80.5,70.4,81.7,71z"/>
								<path id="XMLID_16709_" opacity="0.2" fill="#272525" d="M78.2,73.6c1.2,0.6,2.7,1.8,3.1,1.1L81,75.2
									c-0.4,0.7-1.9-0.5-3.1-1.1c-1.2-0.6-1.6-0.2-1.2-1l0.3-0.5C76.5,73.4,77,73.1,78.2,73.6z"/>
								<path id="XMLID_16708_" opacity="0.1" fill="#272525" d="M81.1,71.1c-1-0.5-2.3-1.6-2.7-0.9l0.2-0.3
									c0.4-0.7,1.9,0.5,3.1,1.1c1.2,0.6,1.6,0.2,1.2,1l-1.6,2.8c-0.2,0.3-0.5,0.3-0.8,0.2l1.7-2.8C82.6,71.3,82.2,71.6,81.1,71.1z
									"/>
							</g>
						</g>
						<g id="XMLID_16689_">
							<g id="XMLID_16702_">
								<path id="XMLID_16705_" fill="#B26028" d="M94.1,73.7c1.2,0.6,1.6,0.2,1.2,1l-1.9,3.2c-0.4,0.7-1.9-0.5-3.1-1.1
									c-1.2-0.6-1.6-0.2-1.2-1l1.9-3.2C91.5,71.9,92.9,73.2,94.1,73.7z"/>
								<path id="XMLID_16704_" opacity="0.2" fill="#272525" d="M90.6,76.4c1.2,0.6,2.7,1.8,3.1,1.1l-0.3,0.5
									c-0.4,0.7-1.9-0.5-3.1-1.1c-1.2-0.6-1.6-0.2-1.2-1l0.3-0.5C89,76.2,89.4,75.8,90.6,76.4z"/>
								<path id="XMLID_16703_" opacity="0.1" fill="#272525" d="M93.5,73.9c-1-0.5-2.3-1.6-2.7-0.9l0.2-0.3
									c0.4-0.7,1.9,0.5,3.1,1.1s1.6,0.2,1.2,1l-1.6,2.8c-0.2,0.3-0.5,0.3-0.8,0.2l1.7-2.8C95,74,94.6,74.4,93.5,73.9z"/>
							</g>
							<g id="XMLID_16698_">
								<path id="XMLID_16701_" fill="#B26028" d="M90.6,71.7c1.2,0.6,1.6,0.2,1.2,1l-1.9,3.2c-0.4,0.7-1.9-0.5-3.1-1.1
									s-1.6-0.2-1.2-1l1.9-3.2C88,69.9,89.4,71.1,90.6,71.7z"/>
								<path id="XMLID_16700_" opacity="0.2" fill="#272525" d="M87.1,74.4c1.2,0.6,2.7,1.8,3.1,1.1l-0.3,0.5
									c-0.4,0.7-1.9-0.5-3.1-1.1s-1.6-0.2-1.2-1l0.3-0.5C85.5,74.1,85.9,73.8,87.1,74.4z"/>
								<path id="XMLID_16699_" opacity="0.1" fill="#272525" d="M90,71.8c-1-0.5-2.3-1.6-2.7-0.9l0.2-0.3c0.4-0.7,1.9,0.5,3.1,1.1
									s1.6,0.2,1.2,1l-1.6,2.8c-0.2,0.3-0.5,0.3-0.8,0.2l1.7-2.8C91.5,72,91.1,72.3,90,71.8z"/>
							</g>
							<g id="XMLID_16694_">
								<path id="XMLID_16697_" fill="#B26028" d="M87.1,69.6c1.2,0.6,1.6,0.2,1.2,1l-1.9,3.2c-0.4,0.7-1.9-0.5-3.1-1.1
									s-1.6-0.2-1.2-1l1.9-3.2C84.5,67.8,85.9,69.1,87.1,69.6z"/>
								<path id="XMLID_16696_" opacity="0.2" fill="#272525" d="M83.6,72.3c1.2,0.6,2.7,1.8,3.1,1.1l-0.3,0.5
									c-0.4,0.7-1.9-0.5-3.1-1.1s-1.6-0.2-1.2-1l0.3-0.5C82,72.1,82.4,71.8,83.6,72.3z"/>
								<path id="XMLID_16695_" opacity="0.1" fill="#272525" d="M86.5,69.8c-1-0.5-2.3-1.6-2.7-0.9l0.2-0.3
									c0.4-0.7,1.9,0.5,3.1,1.1s1.6,0.2,1.2,1l-1.6,2.8c-0.2,0.3-0.5,0.3-0.8,0.2l1.7-2.8C88,69.9,87.6,70.3,86.5,69.8z"/>
							</g>
							<g id="XMLID_16690_">
								<path id="XMLID_16693_" fill="#B26028" d="M83.6,67.6c1.2,0.6,1.6,0.2,1.2,1l-1.9,3.2c-0.4,0.7-1.9-0.5-3.1-1.1
									c-1.2-0.6-1.6-0.2-1.2-1l1.9-3.2C81,65.8,82.5,67,83.6,67.6z"/>
								<path id="XMLID_16692_" opacity="0.2" fill="#272525" d="M80.1,70.3c1.2,0.6,2.7,1.8,3.1,1.1l-0.3,0.5
									c-0.4,0.7-1.9-0.5-3.1-1.1c-1.2-0.6-1.6-0.2-1.2-1l0.3-0.5C78.5,70.1,78.9,69.7,80.1,70.3z"/>
								<path id="XMLID_16691_" opacity="0.1" fill="#272525" d="M83.1,67.8c-1-0.5-2.3-1.6-2.7-0.9l0.2-0.3
									c0.4-0.7,1.9,0.5,3.1,1.1c1.2,0.6,1.6,0.2,1.2,1l-1.6,2.8c-0.2,0.3-0.5,0.3-0.8,0.2l1.7-2.8C84.5,67.9,84.1,68.3,83.1,67.8z
									"/>
							</g>
						</g>
						<g id="XMLID_16672_">
							<g id="XMLID_16685_">
								<path id="XMLID_16688_" fill="#B26028" d="M96.1,70.4c1.2,0.6,1.6,0.2,1.2,1l-1.9,3.2c-0.4,0.7-1.9-0.5-3.1-1.1
									c-1.2-0.6-1.6-0.2-1.2-1l1.9-3.2C93.4,68.6,94.9,69.8,96.1,70.4z"/>
								<path id="XMLID_16687_" opacity="0.2" fill="#272525" d="M92.5,73.1c1.2,0.6,2.7,1.8,3.1,1.1l-0.3,0.5
									c-0.4,0.7-1.9-0.5-3.1-1.1c-1.2-0.6-1.6-0.2-1.2-1l0.3-0.5C90.9,72.8,91.3,72.5,92.5,73.1z"/>
								<path id="XMLID_16686_" opacity="0.1" fill="#272525" d="M95.5,70.5c-1-0.5-2.3-1.6-2.7-0.9l0.2-0.3
									c0.4-0.7,1.9,0.5,3.1,1.1c1.2,0.6,1.6,0.2,1.2,1l-1.6,2.8c-0.2,0.3-0.5,0.3-0.8,0.2l1.7-2.8C96.9,70.7,96.5,71,95.5,70.5z"
									/>
							</g>
							<g id="XMLID_16681_">
								<path id="XMLID_16684_" fill="#B26028" d="M92.6,68.3c1.2,0.6,1.6,0.2,1.2,1l-1.9,3.2c-0.4,0.7-1.9-0.5-3.1-1.1
									c-1.2-0.6-1.6-0.2-1.2-1l1.9-3.2C89.9,66.5,91.4,67.8,92.6,68.3z"/>
								<path id="XMLID_16683_" opacity="0.2" fill="#272525" d="M89,71c1.2,0.6,2.7,1.8,3.1,1.1l-0.3,0.5c-0.4,0.7-1.9-0.5-3.1-1.1
									c-1.2-0.6-1.6-0.2-1.2-1l0.3-0.5C87.4,70.8,87.8,70.5,89,71z"/>
								<path id="XMLID_16682_" opacity="0.1" fill="#272525" d="M92,68.5c-1-0.5-2.3-1.6-2.7-0.9l0.2-0.3c0.4-0.7,1.9,0.5,3.1,1.1
									s1.6,0.2,1.2,1l-1.6,2.8c-0.2,0.3-0.5,0.3-0.8,0.2l1.7-2.8C93.4,68.6,93,69,92,68.5z"/>
							</g>
							<g id="XMLID_16677_">
								<path id="XMLID_16680_" fill="#B26028" d="M89.1,66.3c1.2,0.6,1.6,0.2,1.2,1l-1.9,3.2c-0.4,0.7-1.9-0.5-3.1-1.1
									c-1.2-0.6-1.6-0.2-1.2-1l1.9-3.2C86.4,64.5,87.9,65.7,89.1,66.3z"/>
								<path id="XMLID_16679_" opacity="0.2" fill="#272525" d="M85.5,69c1.2,0.6,2.7,1.8,3.1,1.1l-0.3,0.5
									c-0.4,0.7-1.9-0.5-3.1-1.1c-1.2-0.6-1.6-0.2-1.2-1l0.3-0.5C83.9,68.8,84.3,68.4,85.5,69z"/>
								<path id="XMLID_16678_" opacity="0.1" fill="#272525" d="M88.5,66.5c-1-0.5-2.3-1.6-2.7-0.9l0.2-0.3
									c0.4-0.7,1.9,0.5,3.1,1.1c1.2,0.6,1.6,0.2,1.2,1L88.6,70c-0.2,0.3-0.5,0.3-0.8,0.2l1.7-2.8C89.9,66.6,89.5,66.9,88.5,66.5z"
									/>
							</g>
							<g id="XMLID_16673_">
								<path id="XMLID_16676_" fill="#B26028" d="M85.6,64.3c1.2,0.6,1.6,0.2,1.2,1l-1.9,3.2c-0.4,0.7-1.9-0.5-3.1-1.1
									s-1.6-0.2-1.2-1l1.9-3.2C82.9,62.5,84.4,63.7,85.6,64.3z"/>
								<path id="XMLID_16675_" opacity="0.2" fill="#272525" d="M82,66.9c1.2,0.6,2.7,1.8,3.1,1.1l-0.3,0.5
									c-0.4,0.7-1.9-0.5-3.1-1.1s-1.6-0.2-1.2-1l0.3-0.5C80.4,66.7,80.8,66.4,82,66.9z"/>
								<path id="XMLID_16674_" opacity="0.1" fill="#272525" d="M85,64.4c-1-0.5-2.3-1.6-2.7-0.9l0.2-0.3c0.4-0.7,1.9,0.5,3.1,1.1
									s1.6,0.2,1.2,1L85.1,68c-0.2,0.3-0.5,0.3-0.8,0.2l1.7-2.8C86.4,64.6,86,64.9,85,64.4z"/>
							</g>
						</g>
					</g>
					<g id="XMLID_16636_">
						<g id="XMLID_16654_">
							<g id="XMLID_16667_">
								<path id="XMLID_16670_" fill="#B26028" d="M98.1,67.1c1.2,0.6,1.6,0.2,1.2,1l-1.9,3.2c-0.4,0.7-1.9-0.5-3.1-1.1
									c-1.2-0.6-1.6-0.2-1.2-1L95,66C95.4,65.3,96.9,66.5,98.1,67.1z"/>
								<path id="XMLID_16669_" opacity="0.2" fill="#272525" d="M94.5,69.8c1.2,0.6,2.7,1.8,3.1,1.1l-0.3,0.5
									c-0.4,0.7-1.9-0.5-3.1-1.1c-1.2-0.6-1.6-0.2-1.2-1l0.3-0.5C92.9,69.5,93.4,69.2,94.5,69.8z"/>
								<path id="XMLID_16668_" opacity="0.1" fill="#272525" d="M97.5,67.2c-1-0.5-2.3-1.6-2.7-0.9L95,66c0.4-0.7,1.9,0.5,3.1,1.1
									c1.2,0.6,1.6,0.2,1.2,1l-1.6,2.8c-0.2,0.3-0.5,0.3-0.8,0.2l1.7-2.8C98.9,67.4,98.5,67.7,97.5,67.2z"/>
							</g>
							<g id="XMLID_16663_">
								<path id="XMLID_16666_" fill="#B26028" d="M94.6,65c1.2,0.6,1.6,0.2,1.2,1l-1.9,3.2c-0.4,0.7-1.9-0.5-3.1-1.1
									c-1.2-0.6-1.6-0.2-1.2-1l1.9-3.2C91.9,63.2,93.4,64.5,94.6,65z"/>
								<path id="XMLID_16665_" opacity="0.2" fill="#272525" d="M91,67.7c1.2,0.6,2.7,1.8,3.1,1.1l-0.3,0.5
									c-0.4,0.7-1.9-0.5-3.1-1.1c-1.2-0.6-1.6-0.2-1.2-1l0.3-0.5C89.4,67.5,89.9,67.2,91,67.7z"/>
								<path id="XMLID_16664_" opacity="0.1" fill="#272525" d="M94,65.2c-1-0.5-2.3-1.6-2.7-0.9l0.2-0.3c0.4-0.7,1.9,0.5,3.1,1.1
									c1.2,0.6,1.6,0.2,1.2,1l-1.6,2.8c-0.2,0.3-0.5,0.3-0.8,0.2l1.7-2.8C95.4,65.3,95,65.7,94,65.2z"/>
							</g>
							<g id="XMLID_16659_">
								<path id="XMLID_16662_" fill="#B26028" d="M91.1,63c1.2,0.6,1.6,0.2,1.2,1l-1.9,3.2c-0.4,0.7-1.9-0.5-3.1-1.1
									c-1.2-0.6-1.6-0.2-1.2-1l1.9-3.2C88.4,61.2,89.9,62.4,91.1,63z"/>
								<path id="XMLID_16661_" opacity="0.2" fill="#272525" d="M87.6,65.7c1.2,0.6,2.7,1.8,3.1,1.1l-0.3,0.5
									c-0.4,0.7-1.9-0.5-3.1-1.1c-1.2-0.6-1.6-0.2-1.2-1l0.3-0.5C85.9,65.5,86.4,65.1,87.6,65.7z"/>
								<path id="XMLID_16660_" opacity="0.1" fill="#272525" d="M90.5,63.2c-1-0.5-2.3-1.6-2.7-0.9l0.2-0.3
									c0.4-0.7,1.9,0.5,3.1,1.1s1.6,0.2,1.2,1l-1.6,2.8c-0.2,0.3-0.5,0.3-0.8,0.2l1.7-2.8C91.9,63.3,91.5,63.6,90.5,63.2z"/>
							</g>
							<g id="XMLID_16655_">
								<path id="XMLID_16658_" fill="#B26028" d="M87.6,61c1.2,0.6,1.6,0.2,1.2,1l-1.9,3.2c-0.4,0.7-1.9-0.5-3.1-1.1
									s-1.6-0.2-1.2-1l1.9-3.2C84.9,59.2,86.4,60.4,87.6,61z"/>
								<path id="XMLID_16657_" opacity="0.2" fill="#272525" d="M84.1,63.6c1.2,0.6,2.7,1.8,3.1,1.1l-0.3,0.5
									c-0.4,0.7-1.9-0.5-3.1-1.1s-1.6-0.2-1.2-1l0.3-0.5C82.4,63.4,82.9,63.1,84.1,63.6z"/>
								<path id="XMLID_16656_" opacity="0.1" fill="#272525" d="M87,61.1c-1-0.5-2.3-1.6-2.7-0.9l0.2-0.3c0.4-0.7,1.9,0.5,3.1,1.1
									s1.6,0.2,1.2,1l-1.6,2.8C87,65,86.7,65,86.3,64.9L88,62C88.5,61.3,88,61.6,87,61.1z"/>
							</g>
						</g>
						<g id="XMLID_16637_">
							<g id="XMLID_16650_">
								<path id="XMLID_16653_" fill="#B26028" d="M100,63.7c1.2,0.6,1.6,0.2,1.2,1l-1.9,3.2c-0.4,0.7-1.9-0.5-3.1-1.1
									s-1.6-0.2-1.2-1l1.9-3.2C97.3,61.9,98.8,63.2,100,63.7z"/>
								<path id="XMLID_16652_" opacity="0.2" fill="#272525" d="M96.5,66.4c1.2,0.6,2.7,1.8,3.1,1.1l-0.3,0.5
									c-0.4,0.7-1.9-0.5-3.1-1.1s-1.6-0.2-1.2-1l0.3-0.5C94.8,66.2,95.3,65.9,96.5,66.4z"/>
								<path id="XMLID_16651_" opacity="0.1" fill="#272525" d="M99.4,63.9c-1-0.5-2.3-1.6-2.7-0.9l0.2-0.3
									c0.4-0.7,1.9,0.5,3.1,1.1s1.6,0.2,1.2,1l-1.6,2.8c-0.2,0.3-0.5,0.3-0.8,0.2l1.7-2.8C100.9,64,100.4,64.4,99.4,63.9z"/>
							</g>
							<g id="XMLID_16646_">
								<path id="XMLID_16649_" fill="#B26028" d="M96.5,61.7c1.2,0.6,1.6,0.2,1.2,1l-1.9,3.2c-0.4,0.7-1.9-0.5-3.1-1.1
									c-1.2-0.6-1.6-0.2-1.2-1l1.9-3.2C93.8,59.9,95.3,61.1,96.5,61.7z"/>
								<path id="XMLID_16648_" opacity="0.2" fill="#272525" d="M93,64.4c1.2,0.6,2.7,1.8,3.1,1.1l-0.3,0.5
									c-0.4,0.7-1.9-0.5-3.1-1.1c-1.2-0.6-1.6-0.2-1.2-1l0.3-0.5C91.3,64.1,91.8,63.8,93,64.4z"/>
								<path id="XMLID_16647_" opacity="0.1" fill="#272525" d="M95.9,61.9c-1-0.5-2.3-1.6-2.7-0.9l0.2-0.3
									c0.4-0.7,1.9,0.5,3.1,1.1c1.2,0.6,1.6,0.2,1.2,1l-1.6,2.8c-0.2,0.3-0.5,0.3-0.8,0.2l1.7-2.8C97.4,62,96.9,62.3,95.9,61.9z"
									/>
							</g>
							<g id="XMLID_16642_">
								<path id="XMLID_16645_" fill="#B26028" d="M93,59.7c1.2,0.6,1.6,0.2,1.2,1l-1.9,3.2c-0.4,0.7-1.9-0.5-3.1-1.1
									c-1.2-0.6-1.6-0.2-1.2-1l1.9-3.2C90.3,57.9,91.8,59.1,93,59.7z"/>
								<path id="XMLID_16644_" opacity="0.2" fill="#272525" d="M89.5,62.3c1.2,0.6,2.7,1.8,3.1,1.1l-0.3,0.5
									c-0.4,0.7-1.9-0.5-3.1-1.1c-1.2-0.6-1.6-0.2-1.2-1l0.3-0.5C87.8,62.1,88.3,61.8,89.5,62.3z"/>
								<path id="XMLID_16643_" opacity="0.1" fill="#272525" d="M92.4,59.8c-1-0.5-2.3-1.6-2.7-0.9l0.2-0.3
									c0.4-0.7,1.9,0.5,3.1,1.1c1.2,0.6,1.6,0.2,1.2,1l-1.6,2.8c-0.2,0.3-0.5,0.3-0.8,0.2l1.7-2.8C93.9,60,93.4,60.3,92.4,59.8z"
									/>
							</g>
							<g id="XMLID_16638_">
								<path id="XMLID_16641_" fill="#B26028" d="M89.5,57.6c1.2,0.6,1.6,0.2,1.2,1l-1.9,3.2c-0.4,0.7-1.9-0.5-3.1-1.1
									c-1.2-0.6-1.6-0.2-1.2-1l1.9-3.2C86.8,55.8,88.3,57.1,89.5,57.6z"/>
								<path id="XMLID_16640_" opacity="0.2" fill="#272525" d="M86,60.3c1.2,0.6,2.7,1.8,3.1,1.1l-0.3,0.5
									c-0.4,0.7-1.9-0.5-3.1-1.1c-1.2-0.6-1.6-0.2-1.2-1l0.3-0.5C84.3,60.1,84.8,59.7,86,60.3z"/>
								<path id="XMLID_16639_" opacity="0.1" fill="#272525" d="M88.9,57.8c-1-0.5-2.3-1.6-2.7-0.9l0.2-0.3
									c0.4-0.7,1.9,0.5,3.1,1.1s1.6,0.2,1.2,1l-1.6,2.8c-0.2,0.3-0.5,0.3-0.8,0.2l1.7-2.8C90.4,57.9,90,58.3,88.9,57.8z"/>
							</g>
						</g>
					</g>
					<g id="XMLID_16618_">
						<g id="XMLID_16619_">
							<g id="XMLID_16632_">
								<path id="XMLID_16635_" fill="#B26028" d="M102,60.5c1.2,0.6,1.6,0.2,1.2,1l-1.9,3.2c-0.4,0.7-1.9-0.5-3.1-1.1
									s-1.6-0.2-1.2-1l1.9-3.2C99.4,58.6,100.8,59.9,102,60.5z"/>
								<path id="XMLID_16634_" opacity="0.2" fill="#272525" d="M98.5,63.1c1.2,0.6,2.7,1.8,3.1,1.1l-0.3,0.5
									c-0.4,0.7-1.9-0.5-3.1-1.1s-1.6-0.2-1.2-1l0.3-0.5C96.9,62.9,97.3,62.6,98.5,63.1z"/>
								<path id="XMLID_16633_" opacity="0.1" fill="#272525" d="M101.4,60.6c-1-0.5-2.3-1.6-2.7-0.9l0.2-0.3
									c0.4-0.7,1.9,0.5,3.1,1.1c1.2,0.6,1.6,0.2,1.2,1l-1.6,2.8c-0.2,0.3-0.5,0.3-0.8,0.2l1.7-2.8
									C102.9,60.7,102.5,61.1,101.4,60.6z"/>
							</g>
							<g id="XMLID_16628_">
								<path id="XMLID_16631_" fill="#B26028" d="M98.5,58.4c1.2,0.6,1.6,0.2,1.2,1l-1.9,3.2c-0.4,0.7-1.9-0.5-3.1-1.1
									s-1.6-0.2-1.2-1l1.9-3.2C95.9,56.6,97.3,57.9,98.5,58.4z"/>
								<path id="XMLID_16630_" opacity="0.2" fill="#272525" d="M95,61.1c1.2,0.6,2.7,1.8,3.1,1.1l-0.3,0.5
									c-0.4,0.7-1.9-0.5-3.1-1.1s-1.6-0.2-1.2-1l0.3-0.5C93.4,60.9,93.8,60.5,95,61.1z"/>
								<path id="XMLID_16629_" opacity="0.1" fill="#272525" d="M97.9,58.6c-1-0.5-2.3-1.6-2.7-0.9l0.2-0.3
									c0.4-0.7,1.9,0.5,3.1,1.1s1.6,0.2,1.2,1l-1.6,2.8c-0.2,0.3-0.5,0.3-0.8,0.2l1.7-2.8C99.4,58.7,99,59.1,97.9,58.6z"/>
							</g>
							<g id="XMLID_16624_">
								<path id="XMLID_16627_" fill="#B26028" d="M95,56.4c1.2,0.6,1.6,0.2,1.2,1l-1.9,3.2c-0.4,0.7-1.9-0.5-3.1-1.1
									s-1.6-0.2-1.2-1l1.9-3.2C92.4,54.6,93.8,55.8,95,56.4z"/>
								<path id="XMLID_16626_" opacity="0.2" fill="#272525" d="M91.5,59.1c1.2,0.6,2.7,1.8,3.1,1.1l-0.3,0.5
									c-0.4,0.7-1.9-0.5-3.1-1.1s-1.6-0.2-1.2-1l0.3-0.5C89.9,58.8,90.3,58.5,91.5,59.1z"/>
								<path id="XMLID_16625_" opacity="0.1" fill="#272525" d="M94.4,56.5c-1-0.5-2.3-1.6-2.7-0.9l0.2-0.3
									c0.4-0.7,1.9,0.5,3.1,1.1c1.2,0.6,1.6,0.2,1.2,1l-1.6,2.8c-0.2,0.3-0.5,0.3-0.8,0.2l1.7-2.8C95.9,56.7,95.5,57,94.4,56.5z"
									/>
							</g>
							<g id="XMLID_16620_">
								<path id="XMLID_16623_" fill="#B26028" d="M91.5,54.3c1.2,0.6,1.6,0.2,1.2,1l-1.9,3.2c-0.4,0.7-1.9-0.5-3.1-1.1
									c-1.2-0.6-1.6-0.2-1.2-1l1.9-3.2C88.9,52.5,90.3,53.8,91.5,54.3z"/>
								<path id="XMLID_16622_" opacity="0.2" fill="#272525" d="M88,57c1.2,0.6,2.7,1.8,3.1,1.1l-0.3,0.5c-0.4,0.7-1.9-0.5-3.1-1.1
									c-1.2-0.6-1.6-0.2-1.2-1l0.3-0.5C86.4,56.8,86.8,56.5,88,57z"/>
								<path id="XMLID_16621_" opacity="0.1" fill="#272525" d="M90.9,54.5c-1-0.5-2.3-1.6-2.7-0.9l0.2-0.3
									c0.4-0.7,1.9,0.5,3.1,1.1c1.2,0.6,1.6,0.2,1.2,1l-1.6,2.8c-0.2,0.3-0.5,0.3-0.8,0.2l1.7-2.8C92.4,54.6,92,55,90.9,54.5z"/>
							</g>
						</g>
					</g>
				</g>
			</g>
		</g>
		<g id="XMLID_16487_">
			<g id="XMLID_16489_">
				<g id="XMLID_16491_">
					<g id="XMLID_16493_">
						<defs>
							<polygon id="XMLID_16494_" points="89.7,65.2 89.7,65.2 89.7,65.2 84.6,62.3 84.6,70.6 89.7,73.5 94.8,64.8 94.8,62.3 
															"/>
						</defs>
						<clipPath id="XMLID_7_">
							<use xlink:href="#XMLID_16494_"  overflow="visible"/>
						</clipPath>
						<g id="XMLID_16495_" clip-path="url(#XMLID_7_)">
							<g id="XMLID_16544_">
								<g id="XMLID_16547_">
									<polygon id="XMLID_16614_" fill="#C8C8C8" points="79.5,67.6 89.7,73.5 89.7,61.7 79.5,55.8 									"/>
									<g id="XMLID_16548_" opacity="0.3">
										<path id="XMLID_16600_" fill="#FFFFFF" d="M82.4,67.3l0,1.4l-2.9-1.7v-1.4L82.4,67.3z M82.9,69v-1.4l2.9,1.7l0,1.4
											L82.9,69z M85.8,65.3l0,1.4l-2.9-1.7v-1.4L85.8,65.3z M84.6,64.1v-1.4l2.9,1.7l0,1.4L84.6,64.1z M84.1,63.9l-2.9-1.7v-1.4
											l2.9,1.7L84.1,63.9z M84.1,66.3l0,1.4l-2.9-1.7v-1.4L84.1,66.3z M87.5,68.3l0,1.4L84.6,68v-1.4L87.5,68.3z M82.4,63.4
											l0,1.4l-2.9-1.7v-1.4L82.4,63.4z M82.4,59.5l0,1.4l-2.9-1.7v-1.4L82.4,59.5z M85.8,61.4l0,1.4l-2.9-1.7v-1.4L85.8,61.4z
											 M86.3,63.1v-1.4l2.9,1.7l0,1.4L86.3,63.1z M86.3,67v-1.4l2.9,1.7l0,1.4L86.3,67z M86.3,71v-1.4l2.9,1.7l0,1.4L86.3,71z"
											/>
										<polygon id="XMLID_16599_" points="81.2,56.8 82,57.3 81.2,56.8 										"/>
										<polygon id="XMLID_16598_" points="84.6,58.8 84.6,58.8 84.6,58.8 										"/>
										<polygon id="XMLID_16597_" points="80.7,56.6 80.7,58 79.5,57.3 79.5,55.8 										"/>
										<polygon id="XMLID_16588_" points="84.1,59.9 81.2,58.3 81.2,56.8 82,57.3 84.1,58.5 										"/>
										<polygon id="XMLID_16587_" points="87.5,61.9 84.6,60.2 84.6,58.8 84.6,58.8 87.5,60.5 										"/>
										<polygon id="XMLID_16586_" points="88,62.2 88,60.7 89.7,61.7 89.7,63.1 										"/>
										<polygon id="XMLID_16585_" points="88,70 88,68.6 89.7,69.5 89.7,71 										"/>
										<polygon id="XMLID_16574_" points="88,66.1 88,64.7 89.7,65.6 89.7,67.1 										"/>
										<polygon id="XMLID_16573_" points="86.3,65.6 89.2,67.3 89.2,68.7 86.3,67 										"/>
										<polygon id="XMLID_16572_" points="86.3,69.5 89.2,71.2 89.2,72.6 86.3,71 										"/>
										<polygon id="XMLID_16571_" points="82.9,61.2 82.9,59.8 85.8,61.4 85.8,62.9 										"/>
										<polygon id="XMLID_16570_" points="86.3,61.7 89.2,63.4 89.2,64.8 86.3,63.1 										"/>
										<polygon id="XMLID_16569_" points="79.5,59.2 79.5,57.8 82.4,59.5 82.4,60.9 										"/>
										<polygon id="XMLID_16559_" points="87.5,64.4 87.5,65.8 84.6,64.1 84.6,62.7 										"/>
										<polygon id="XMLID_16558_" points="82.9,65.1 82.9,63.7 85.8,65.3 85.8,66.8 										"/>
										<polygon id="XMLID_16557_" points="82.9,67.6 85.8,69.3 85.8,70.7 82.9,69 										"/>
										<polygon id="XMLID_16555_" points="87.5,69.7 84.6,68 84.6,66.6 87.5,68.3 										"/>
										<polygon id="XMLID_16554_" points="80.7,65.8 79.5,65.1 79.5,63.7 80.7,64.4 										"/>
										<polygon id="XMLID_16553_" points="82.4,68.7 79.5,67.1 79.5,65.6 82.4,67.3 										"/>
										<polygon id="XMLID_16552_" points="80.7,61.9 79.5,61.2 79.5,59.8 80.7,60.5 										"/>
										<polygon id="XMLID_16551_" points="82.4,64.8 79.5,63.1 79.5,61.7 82.4,63.4 										"/>
										<polygon id="XMLID_16550_" points="84.1,67.8 81.2,66.1 81.2,64.7 84.1,66.3 										"/>
										<polygon id="XMLID_16549_" points="81.2,60.8 84.1,62.4 84.1,63.9 81.2,62.2 										"/>
									</g>
								</g>
								<line id="XMLID_16546_" fill="#C8C8C8" x1="79.5" y1="55.8" x2="89.7" y2="61.7"/>
								<polygon id="XMLID_16545_" opacity="0.5" fill="#E08F58" points="79.5,67.6 89.7,73.5 89.7,61.7 79.5,55.8 								"/>
							</g>
							<g id="XMLID_16496_">
								<g id="XMLID_16498_">
									<polygon id="XMLID_16543_" fill="#C8C8C8" points="99.8,67.6 89.7,73.5 89.7,61.7 99.8,55.8 									"/>
									<g id="XMLID_16499_" opacity="0.3">
										<path id="XMLID_16525_" fill="#FFFFFF" d="M99.8,65.6v1.4l-2.9,1.7l0-1.4L99.8,65.6z M93.5,70.7l0-1.4l2.9-1.7V69
											L93.5,70.7z M96.5,63.7v1.4l-2.9,1.7l0-1.4L96.5,63.7z M91.9,65.8l0-1.4l2.9-1.7v1.4L91.9,65.8z M95.2,62.4l2.9-1.7v1.4
											l-2.9,1.7L95.2,62.4z M98.1,64.7v1.4l-2.9,1.7l0-1.4L98.1,64.7z M94.8,66.6V68l-2.9,1.7l0-1.4L94.8,66.6z M99.8,61.7v1.4
											l-2.9,1.7l0-1.4L99.8,61.7z M99.8,57.8v1.4l-2.9,1.7l0-1.4L99.8,57.8z M96.5,59.8v1.4l-2.9,1.7l0-1.4L96.5,59.8z
											 M90.2,64.8l0-1.4l2.9-1.7v1.4L90.2,64.8z M90.2,68.7l0-1.4l2.9-1.7V67L90.2,68.7z M90.2,72.6l0-1.4l2.9-1.7V71L90.2,72.6
											z"/>
										<polygon id="XMLID_16524_" points="98.1,56.8 97.4,57.3 98.1,56.8 										"/>
										<polygon id="XMLID_16523_" points="94.8,58.8 94.7,58.8 94.8,58.8 										"/>
										<polygon id="XMLID_16522_" points="98.6,56.6 98.6,58 99.8,57.3 99.8,55.8 										"/>
										<polygon id="XMLID_16521_" points="95.2,59.9 98.1,58.3 98.1,56.8 97.4,57.3 95.2,58.5 										"/>
										<polygon id="XMLID_16518_" points="91.9,61.9 94.8,60.2 94.8,58.8 94.7,58.8 91.9,60.5 										"/>
										<polygon id="XMLID_16517_" points="91.4,62.2 91.4,60.7 89.7,61.7 89.7,63.1 										"/>
										<polygon id="XMLID_16516_" points="91.4,70 91.4,68.6 89.7,69.5 89.7,71 										"/>
										<polygon id="XMLID_16515_" points="91.4,66.1 91.4,64.7 89.7,65.6 89.7,67.1 										"/>
										<polygon id="XMLID_16514_" points="93.1,65.6 90.2,67.3 90.2,68.7 93.1,67 										"/>
										<polygon id="XMLID_16513_" points="93.1,69.5 90.2,71.2 90.2,72.6 93.1,71 										"/>
										<polygon id="XMLID_16512_" points="96.5,61.2 96.5,59.8 93.5,61.4 93.5,62.9 										"/>
										<polygon id="XMLID_16511_" points="93.1,61.7 90.2,63.4 90.2,64.8 93.1,63.1 										"/>
										<polygon id="XMLID_16510_" points="99.8,59.2 99.8,57.8 96.9,59.5 96.9,60.9 										"/>
										<polygon id="XMLID_16509_" points="91.9,64.4 91.9,65.8 94.8,64.1 94.8,62.7 										"/>
										<polygon id="XMLID_16508_" points="96.5,65.1 96.5,63.7 93.5,65.3 93.5,66.8 										"/>
										<polygon id="XMLID_16507_" points="96.5,67.6 93.5,69.3 93.5,70.7 96.5,69 										"/>
										<polygon id="XMLID_16506_" points="91.9,69.7 94.8,68 94.8,66.6 91.9,68.3 										"/>
										<polygon id="XMLID_16505_" points="98.6,65.8 99.9,65.1 99.9,63.7 98.6,64.4 										"/>
										<polygon id="XMLID_16504_" points="96.9,68.7 99.8,67.1 99.8,65.6 96.9,67.3 										"/>
										<polygon id="XMLID_16503_" points="98.6,61.9 99.9,61.2 99.9,59.8 98.6,60.5 										"/>
										<polygon id="XMLID_16502_" points="96.9,64.8 99.8,63.1 99.8,61.7 96.9,63.4 										"/>
										<polygon id="XMLID_16501_" points="95.2,67.8 98.1,66.1 98.1,64.7 95.2,66.3 										"/>
										<polygon id="XMLID_16500_" points="98.1,60.8 95.2,62.4 95.2,63.9 98.1,62.2 										"/>
									</g>
								</g>
								<polygon id="XMLID_16497_" opacity="0.5" fill="#93430C" points="99.8,67.6 89.7,73.5 89.7,61.7 99.8,55.8 								"/>
							</g>
						</g>
					</g>
					<polygon id="XMLID_16492_" fill="#FFCFAE" points="94.8,62.3 89.7,59.3 84.6,62.3 84.6,62.3 84.6,62.3 89.7,65.2 94.8,62.3 
						94.8,62.3 					"/>
				</g>
				<polygon id="XMLID_16490_" opacity="0.8" points="93,62.2 89.7,60.3 86.4,62.2 86.4,62.2 86.4,62.2 89.7,64.1 93,62.2 93,62.2 
									"/>
			</g>
			<polygon id="XMLID_16488_" opacity="0.2" fill="#272525" points="89.7,73.5 84.6,70.5 85.2,74.6 90.4,77.5 95.4,68.9 94.8,64.8 
							"/>
		</g>
	</g>
	<g id="XMLID_16269_">
		<polygon id="XMLID_16485_" fill="none" points="89.1,56.3 89.1,53.2 76.3,45.8 60.8,72.5 75,80.7 		"/>
		<g id="XMLID_16334_">
			<g id="XMLID_16468_">
				<g id="XMLID_16481_">
					<path id="XMLID_16484_" fill="#B26028" d="M74.2,75.6c1.2,0.6,1.6,0.2,1.2,1l-1.9,3.2c-0.4,0.7-1.9-0.5-3.1-1.1s-1.6-0.2-1.2-1
						l1.9-3.2C71.5,73.7,73,75,74.2,75.6z"/>
					<path id="XMLID_16483_" opacity="0.2" fill="#272525" d="M70.7,78.2c1.2,0.6,2.7,1.8,3.1,1.1l-0.3,0.5
						c-0.4,0.7-1.9-0.5-3.1-1.1s-1.6-0.2-1.2-1l0.3-0.5C69,78,69.5,77.7,70.7,78.2z"/>
					<path id="XMLID_16482_" opacity="0.1" fill="#272525" d="M73.6,75.7c-1-0.5-2.3-1.6-2.7-0.9l0.2-0.3c0.4-0.7,1.9,0.5,3.1,1.1
						s1.6,0.2,1.2,1l-1.6,2.8c-0.2,0.3-0.5,0.3-0.8,0.2l1.7-2.8C75.1,75.8,74.6,76.2,73.6,75.7z"/>
				</g>
				<g id="XMLID_16477_">
					<path id="XMLID_16480_" fill="#B26028" d="M70.7,73.5c1.2,0.6,1.6,0.2,1.2,1L70,77.7c-0.4,0.7-1.9-0.5-3.1-1.1
						c-1.2-0.6-1.6-0.2-1.2-1l1.9-3.2C68,71.7,69.5,73,70.7,73.5z"/>
					<path id="XMLID_16479_" opacity="0.2" fill="#272525" d="M67.2,76.2c1.2,0.6,2.7,1.8,3.1,1.1L70,77.7c-0.4,0.7-1.9-0.5-3.1-1.1
						c-1.2-0.6-1.6-0.2-1.2-1l0.3-0.5C65.5,76,66,75.6,67.2,76.2z"/>
					<path id="XMLID_16478_" opacity="0.1" fill="#272525" d="M70.1,73.7c-1-0.5-2.3-1.6-2.7-0.9l0.2-0.3c0.4-0.7,1.9,0.5,3.1,1.1
						c1.2,0.6,1.6,0.2,1.2,1l-1.6,2.8c-0.2,0.3-0.5,0.3-0.8,0.2l1.7-2.8C71.6,73.8,71.2,74.2,70.1,73.7z"/>
				</g>
				<g id="XMLID_16473_">
					<path id="XMLID_16476_" fill="#B26028" d="M67.2,71.5c1.2,0.6,1.6,0.2,1.2,1l-1.9,3.2c-0.4,0.7-1.9-0.5-3.1-1.1
						c-1.2-0.6-1.6-0.2-1.2-1l1.9-3.2C64.5,69.7,66,70.9,67.2,71.5z"/>
					<path id="XMLID_16475_" opacity="0.2" fill="#272525" d="M63.7,74.2c1.2,0.6,2.7,1.8,3.1,1.1l-0.3,0.5
						c-0.4,0.7-1.9-0.5-3.1-1.1c-1.2-0.6-1.6-0.2-1.2-1l0.3-0.5C62,73.9,62.5,73.6,63.7,74.2z"/>
					<path id="XMLID_16474_" opacity="0.1" fill="#272525" d="M66.6,71.6c-1-0.5-2.3-1.6-2.7-0.9l0.2-0.3c0.4-0.7,1.9,0.5,3.1,1.1
						c1.2,0.6,1.6,0.2,1.2,1l-1.6,2.8c-0.2,0.3-0.5,0.3-0.8,0.2l1.7-2.8C68.1,71.8,67.7,72.1,66.6,71.6z"/>
				</g>
				<g id="XMLID_16469_">
					<path id="XMLID_16472_" fill="#B26028" d="M63.7,69.4c1.2,0.6,1.6,0.2,1.2,1L63,73.6c-0.4,0.7-1.9-0.5-3.1-1.1s-1.6-0.2-1.2-1
						l1.9-3.2C61,67.6,62.5,68.9,63.7,69.4z"/>
					<path id="XMLID_16471_" opacity="0.2" fill="#272525" d="M60.2,72.1c1.2,0.6,2.7,1.8,3.1,1.1L63,73.6c-0.4,0.7-1.9-0.5-3.1-1.1
						s-1.6-0.2-1.2-1l0.3-0.5C58.5,71.9,59,71.6,60.2,72.1z"/>
					<path id="XMLID_16470_" opacity="0.1" fill="#272525" d="M63.1,69.6c-1-0.5-2.3-1.6-2.7-0.9l0.2-0.3c0.4-0.7,1.9,0.5,3.1,1.1
						c1.2,0.6,1.6,0.2,1.2,1l-1.6,2.8c-0.2,0.3-0.5,0.3-0.8,0.2l1.7-2.8C64.6,69.7,64.2,70.1,63.1,69.6z"/>
				</g>
			</g>
			<g id="XMLID_16451_">
				<g id="XMLID_16464_">
					<path id="XMLID_16467_" fill="#B26028" d="M76.1,72.2c1.2,0.6,1.6,0.2,1.2,1l-1.9,3.2c-0.4,0.7-1.9-0.5-3.1-1.1s-1.6-0.2-1.2-1
						l1.9-3.2C73.5,70.4,74.9,71.6,76.1,72.2z"/>
					<path id="XMLID_16466_" opacity="0.2" fill="#272525" d="M72.6,74.9c1.2,0.6,2.7,1.8,3.1,1.1l-0.3,0.5
						c-0.4,0.7-1.9-0.5-3.1-1.1s-1.6-0.2-1.2-1l0.3-0.5C71,74.7,71.4,74.3,72.6,74.9z"/>
					<path id="XMLID_16465_" opacity="0.1" fill="#272525" d="M75.5,72.4c-1-0.5-2.3-1.6-2.7-0.9l0.2-0.3c0.4-0.7,1.9,0.5,3.1,1.1
						s1.6,0.2,1.2,1l-1.6,2.8c-0.2,0.3-0.5,0.3-0.8,0.2l1.7-2.8C77,72.5,76.6,72.8,75.5,72.4z"/>
				</g>
				<g id="XMLID_16460_">
					<path id="XMLID_16463_" fill="#B26028" d="M72.6,70.2c1.2,0.6,1.6,0.2,1.2,1l-1.9,3.2c-0.4,0.7-1.9-0.5-3.1-1.1s-1.6-0.2-1.2-1
						l1.9-3.2C70,68.4,71.4,69.6,72.6,70.2z"/>
					<path id="XMLID_16462_" opacity="0.2" fill="#272525" d="M69.1,72.8c1.2,0.6,2.7,1.8,3.1,1.1l-0.3,0.5
						c-0.4,0.7-1.9-0.5-3.1-1.1s-1.6-0.2-1.2-1l0.3-0.5C67.5,72.6,67.9,72.3,69.1,72.8z"/>
					<path id="XMLID_16461_" opacity="0.1" fill="#272525" d="M72,70.3c-1-0.5-2.3-1.6-2.7-0.9l0.2-0.3c0.4-0.7,1.9,0.5,3.1,1.1
						s1.6,0.2,1.2,1l-1.6,2.8c-0.2,0.3-0.5,0.3-0.8,0.2l1.7-2.8C73.5,70.5,73.1,70.8,72,70.3z"/>
				</g>
				<g id="XMLID_16456_">
					<path id="XMLID_16459_" fill="#B26028" d="M69.1,68.1c1.2,0.6,1.6,0.2,1.2,1l-1.9,3.2c-0.4,0.7-1.9-0.5-3.1-1.1
						c-1.2-0.6-1.6-0.2-1.2-1l1.9-3.2C66.5,66.3,67.9,67.6,69.1,68.1z"/>
					<path id="XMLID_16458_" opacity="0.2" fill="#272525" d="M65.6,70.8c1.2,0.6,2.7,1.8,3.1,1.1l-0.3,0.5
						c-0.4,0.7-1.9-0.5-3.1-1.1c-1.2-0.6-1.6-0.2-1.2-1l0.3-0.5C64,70.6,64.4,70.3,65.6,70.8z"/>
					<path id="XMLID_16457_" opacity="0.1" fill="#272525" d="M68.5,68.3c-1-0.5-2.3-1.6-2.7-0.9l0.2-0.3c0.4-0.7,1.9,0.5,3.1,1.1
						c1.2,0.6,1.6,0.2,1.2,1l-1.6,2.8c-0.2,0.3-0.5,0.3-0.8,0.2l1.7-2.8C70,68.4,69.6,68.8,68.5,68.3z"/>
				</g>
				<g id="XMLID_16452_">
					<path id="XMLID_16455_" fill="#B26028" d="M65.6,66.1c1.2,0.6,1.6,0.2,1.2,1l-1.9,3.2c-0.4,0.7-1.9-0.5-3.1-1.1
						c-1.2-0.6-1.6-0.2-1.2-1l1.9-3.2C63,64.3,64.5,65.5,65.6,66.1z"/>
					<path id="XMLID_16454_" opacity="0.2" fill="#272525" d="M62.1,68.8c1.2,0.6,2.7,1.8,3.1,1.1l-0.3,0.5
						c-0.4,0.7-1.9-0.5-3.1-1.1c-1.2-0.6-1.6-0.2-1.2-1l0.3-0.5C60.5,68.5,60.9,68.2,62.1,68.8z"/>
					<path id="XMLID_16453_" opacity="0.1" fill="#272525" d="M65.1,66.2c-1-0.5-2.3-1.6-2.7-0.9l0.2-0.3c0.4-0.7,1.9,0.5,3.1,1.1
						c1.2,0.6,1.6,0.2,1.2,1l-1.6,2.8c-0.2,0.3-0.5,0.3-0.8,0.2l1.7-2.8C66.5,66.4,66.1,66.7,65.1,66.2z"/>
				</g>
			</g>
			<g id="XMLID_16392_">
				<g id="XMLID_16427_">
					<g id="XMLID_16447_">
						<path id="XMLID_16450_" fill="#B26028" d="M78.1,68.9c1.2,0.6,1.6,0.2,1.2,1l-1.9,3.2c-0.4,0.7-1.9-0.5-3.1-1.1
							c-1.2-0.6-1.6-0.2-1.2-1l1.9-3.2C75.4,67.1,76.9,68.3,78.1,68.9z"/>
						<path id="XMLID_16449_" opacity="0.2" fill="#272525" d="M74.5,71.5c1.2,0.6,2.7,1.8,3.1,1.1l-0.3,0.5
							c-0.4,0.7-1.9-0.5-3.1-1.1c-1.2-0.6-1.6-0.2-1.2-1l0.3-0.5C72.9,71.3,73.3,71,74.5,71.5z"/>
						<path id="XMLID_16448_" opacity="0.1" fill="#272525" d="M77.5,69c-1-0.5-2.3-1.6-2.7-0.9l0.2-0.3c0.4-0.7,1.9,0.5,3.1,1.1
							s1.6,0.2,1.2,1l-1.6,2.8c-0.2,0.3-0.5,0.3-0.8,0.2l1.7-2.8C78.9,69.2,78.5,69.5,77.5,69z"/>
					</g>
					<g id="XMLID_16443_">
						<path id="XMLID_16446_" fill="#B26028" d="M74.6,66.8c1.2,0.6,1.6,0.2,1.2,1L73.9,71c-0.4,0.7-1.9-0.5-3.1-1.1s-1.6-0.2-1.2-1
							l1.9-3.2C71.9,65,73.4,66.3,74.6,66.8z"/>
						<path id="XMLID_16445_" opacity="0.2" fill="#272525" d="M71,69.5c1.2,0.6,2.7,1.8,3.1,1.1L73.9,71c-0.4,0.7-1.9-0.5-3.1-1.1
							s-1.6-0.2-1.2-1l0.3-0.5C69.4,69.3,69.8,68.9,71,69.5z"/>
						<path id="XMLID_16444_" opacity="0.1" fill="#272525" d="M74,67c-1-0.5-2.3-1.6-2.7-0.9l0.2-0.3c0.4-0.7,1.9,0.5,3.1,1.1
							s1.6,0.2,1.2,1l-1.6,2.8c-0.2,0.3-0.5,0.3-0.8,0.2l1.7-2.8C75.4,67.1,75,67.5,74,67z"/>
					</g>
					<g id="XMLID_16439_">
						<path id="XMLID_16442_" fill="#B26028" d="M71.1,64.8c1.2,0.6,1.6,0.2,1.2,1L70.4,69c-0.4,0.7-1.9-0.5-3.1-1.1s-1.6-0.2-1.2-1
							l1.9-3.2C68.4,63,69.9,64.2,71.1,64.8z"/>
						<path id="XMLID_16441_" opacity="0.2" fill="#272525" d="M67.5,67.5c1.2,0.6,2.7,1.8,3.1,1.1L70.4,69
							c-0.4,0.7-1.9-0.5-3.1-1.1s-1.6-0.2-1.2-1l0.3-0.5C65.9,67.2,66.3,66.9,67.5,67.5z"/>
						<path id="XMLID_16440_" opacity="0.1" fill="#272525" d="M70.5,64.9c-1-0.5-2.3-1.6-2.7-0.9l0.2-0.3c0.4-0.7,1.9,0.5,3.1,1.1
							s1.6,0.2,1.2,1l-1.6,2.8c-0.2,0.3-0.5,0.3-0.8,0.2l1.7-2.8C71.9,65.1,71.5,65.4,70.5,64.9z"/>
					</g>
					<g id="XMLID_16428_">
						<path id="XMLID_16438_" fill="#B26028" d="M67.6,62.7c1.2,0.6,1.6,0.2,1.2,1L66.9,67c-0.4,0.7-1.9-0.5-3.1-1.1
							c-1.2-0.6-1.6-0.2-1.2-1l1.9-3.2C64.9,60.9,66.4,62.2,67.6,62.7z"/>
						<path id="XMLID_16431_" opacity="0.2" fill="#272525" d="M64,65.4c1.2,0.6,2.7,1.8,3.1,1.1L66.9,67c-0.4,0.7-1.9-0.5-3.1-1.1
							c-1.2-0.6-1.6-0.2-1.2-1l0.3-0.5C62.4,65.2,62.8,64.9,64,65.4z"/>
						<path id="XMLID_16429_" opacity="0.1" fill="#272525" d="M67,62.9c-1-0.5-2.3-1.6-2.7-0.9l0.2-0.3c0.4-0.7,1.9,0.5,3.1,1.1
							c1.2,0.6,1.6,0.2,1.2,1l-1.6,2.8c-0.2,0.3-0.5,0.3-0.8,0.2l1.7-2.8C68.4,63,68,63.4,67,62.9z"/>
					</g>
				</g>
				<g id="XMLID_16410_">
					<g id="XMLID_16423_">
						<path id="XMLID_16426_" fill="#B26028" d="M80,65.5c1.2,0.6,1.6,0.2,1.2,1l-1.9,3.2c-0.4,0.7-1.9-0.5-3.1-1.1
							c-1.2-0.6-1.6-0.2-1.2-1l1.9-3.2C77.3,63.7,78.8,65,80,65.5z"/>
						<path id="XMLID_16425_" opacity="0.2" fill="#272525" d="M76.4,68.2c1.2,0.6,2.7,1.8,3.1,1.1l-0.3,0.5
							c-0.4,0.7-1.9-0.5-3.1-1.1c-1.2-0.6-1.6-0.2-1.2-1l0.3-0.5C74.8,68,75.2,67.6,76.4,68.2z"/>
						<path id="XMLID_16424_" opacity="0.1" fill="#272525" d="M79.4,65.7c-1-0.5-2.3-1.6-2.7-0.9l0.2-0.3c0.4-0.7,1.9,0.5,3.1,1.1
							c1.2,0.6,1.6,0.2,1.2,1l-1.6,2.8c-0.2,0.3-0.5,0.3-0.8,0.2l1.7-2.8C80.8,65.8,80.4,66.2,79.4,65.7z"/>
					</g>
					<g id="XMLID_16419_">
						<path id="XMLID_16422_" fill="#B26028" d="M76.5,63.5c1.2,0.6,1.6,0.2,1.2,1l-1.9,3.2c-0.4,0.7-1.9-0.5-3.1-1.1
							c-1.2-0.6-1.6-0.2-1.2-1l1.9-3.2C73.8,61.7,75.3,62.9,76.5,63.5z"/>
						<path id="XMLID_16421_" opacity="0.2" fill="#272525" d="M72.9,66.2c1.2,0.6,2.7,1.8,3.1,1.1l-0.3,0.5
							c-0.4,0.7-1.9-0.5-3.1-1.1c-1.2-0.6-1.6-0.2-1.2-1l0.3-0.5C71.3,65.9,71.8,65.6,72.9,66.2z"/>
						<path id="XMLID_16420_" opacity="0.1" fill="#272525" d="M75.9,63.6c-1-0.5-2.3-1.6-2.7-0.9l0.2-0.3c0.4-0.7,1.9,0.5,3.1,1.1
							s1.6,0.2,1.2,1l-1.6,2.8c-0.2,0.3-0.5,0.3-0.8,0.2l1.7-2.8C77.3,63.8,76.9,64.1,75.9,63.6z"/>
					</g>
					<g id="XMLID_16415_">
						<path id="XMLID_16418_" fill="#B26028" d="M73,61.4c1.2,0.6,1.6,0.2,1.2,1l-1.9,3.2c-0.4,0.7-1.9-0.5-3.1-1.1s-1.6-0.2-1.2-1
							l1.9-3.2C70.3,59.6,71.8,60.9,73,61.4z"/>
						<path id="XMLID_16417_" opacity="0.2" fill="#272525" d="M69.4,64.1c1.2,0.6,2.7,1.8,3.1,1.1l-0.3,0.5
							c-0.4,0.7-1.9-0.5-3.1-1.1s-1.6-0.2-1.2-1l0.3-0.5C67.8,63.9,68.3,63.6,69.4,64.1z"/>
						<path id="XMLID_16416_" opacity="0.1" fill="#272525" d="M72.4,61.6c-1-0.5-2.3-1.6-2.7-0.9l0.2-0.3c0.4-0.7,1.9,0.5,3.1,1.1
							s1.6,0.2,1.2,1l-1.6,2.8c-0.2,0.3-0.5,0.3-0.8,0.2l1.7-2.8C73.8,61.7,73.4,62.1,72.4,61.6z"/>
					</g>
					<g id="XMLID_16411_">
						<path id="XMLID_16414_" fill="#B26028" d="M69.5,59.4c1.2,0.6,1.6,0.2,1.2,1l-1.9,3.2c-0.4,0.7-1.9-0.5-3.1-1.1
							s-1.6-0.2-1.2-1l1.9-3.2C66.8,57.6,68.3,58.8,69.5,59.4z"/>
						<path id="XMLID_16413_" opacity="0.2" fill="#272525" d="M66,62.1c1.2,0.6,2.7,1.8,3.1,1.1l-0.3,0.5c-0.4,0.7-1.9-0.5-3.1-1.1
							s-1.6-0.2-1.2-1l0.3-0.5C64.3,61.9,64.8,61.5,66,62.1z"/>
						<path id="XMLID_16412_" opacity="0.1" fill="#272525" d="M68.9,59.6c-1-0.5-2.3-1.6-2.7-0.9l0.2-0.3c0.4-0.7,1.9,0.5,3.1,1.1
							s1.6,0.2,1.2,1l-1.6,2.8c-0.2,0.3-0.5,0.3-0.8,0.2l1.7-2.8C70.3,59.7,69.9,60,68.9,59.6z"/>
					</g>
				</g>
				<g id="XMLID_16393_">
					<g id="XMLID_16406_">
						<path id="XMLID_16409_" fill="#B26028" d="M81.9,62.2c1.2,0.6,1.6,0.2,1.2,1l-1.9,3.2c-0.4,0.7-1.9-0.5-3.1-1.1
							c-1.2-0.6-1.6-0.2-1.2-1l1.9-3.2C79.2,60.4,80.7,61.6,81.9,62.2z"/>
						<path id="XMLID_16408_" opacity="0.2" fill="#272525" d="M78.4,64.9c1.2,0.6,2.7,1.8,3.1,1.1l-0.3,0.5
							c-0.4,0.7-1.9-0.5-3.1-1.1c-1.2-0.6-1.6-0.2-1.2-1l0.3-0.5C76.7,64.6,77.2,64.3,78.4,64.9z"/>
						<path id="XMLID_16407_" opacity="0.1" fill="#272525" d="M81.3,62.3c-1-0.5-2.3-1.6-2.7-0.9l0.2-0.3c0.4-0.7,1.9,0.5,3.1,1.1
							c1.2,0.6,1.6,0.2,1.2,1l-1.6,2.8c-0.2,0.3-0.5,0.3-0.8,0.2l1.7-2.8C82.8,62.5,82.3,62.8,81.3,62.3z"/>
					</g>
					<g id="XMLID_16402_">
						<path id="XMLID_16405_" fill="#B26028" d="M78.4,60.1c1.2,0.6,1.6,0.2,1.2,1l-1.9,3.2c-0.4,0.7-1.9-0.5-3.1-1.1
							c-1.2-0.6-1.6-0.2-1.2-1l1.9-3.2C75.7,58.3,77.2,59.6,78.4,60.1z"/>
						<path id="XMLID_16404_" opacity="0.2" fill="#272525" d="M74.9,62.8c1.2,0.6,2.7,1.8,3.1,1.1l-0.3,0.5
							c-0.4,0.7-1.9-0.5-3.1-1.1c-1.2-0.6-1.6-0.2-1.2-1l0.3-0.5C73.2,62.6,73.7,62.3,74.9,62.8z"/>
						<path id="XMLID_16403_" opacity="0.1" fill="#272525" d="M77.8,60.3c-1-0.5-2.3-1.6-2.7-0.9l0.2-0.3c0.4-0.7,1.9,0.5,3.1,1.1
							c1.2,0.6,1.6,0.2,1.2,1L78,63.9c-0.2,0.3-0.5,0.3-0.8,0.2l1.7-2.8C79.3,60.4,78.8,60.8,77.8,60.3z"/>
					</g>
					<g id="XMLID_16398_">
						<path id="XMLID_16401_" fill="#B26028" d="M74.9,58.1c1.2,0.6,1.6,0.2,1.2,1l-1.9,3.2c-0.4,0.7-1.9-0.5-3.1-1.1
							c-1.2-0.6-1.6-0.2-1.2-1l1.9-3.2C72.2,56.3,73.7,57.5,74.9,58.1z"/>
						<path id="XMLID_16400_" opacity="0.2" fill="#272525" d="M71.4,60.8c1.2,0.6,2.7,1.8,3.1,1.1l-0.3,0.5
							c-0.4,0.7-1.9-0.5-3.1-1.1c-1.2-0.6-1.6-0.2-1.2-1l0.3-0.5C69.7,60.5,70.2,60.2,71.4,60.8z"/>
						<path id="XMLID_16399_" opacity="0.1" fill="#272525" d="M74.3,58.3c-1-0.5-2.3-1.6-2.7-0.9l0.2-0.3c0.4-0.7,1.9,0.5,3.1,1.1
							s1.6,0.2,1.2,1l-1.6,2.8c-0.2,0.3-0.5,0.3-0.8,0.2l1.7-2.8C75.8,58.4,75.3,58.7,74.3,58.3z"/>
					</g>
					<g id="XMLID_16394_">
						<path id="XMLID_16397_" fill="#B26028" d="M71.4,56.1c1.2,0.6,1.6,0.2,1.2,1l-1.9,3.2c-0.4,0.7-1.9-0.5-3.1-1.1
							c-1.2-0.6-1.6-0.2-1.2-1l1.9-3.2C68.7,54.3,70.2,55.5,71.4,56.1z"/>
						<path id="XMLID_16396_" opacity="0.2" fill="#272525" d="M67.9,58.7c1.2,0.6,2.7,1.8,3.1,1.1l-0.3,0.5
							c-0.4,0.7-1.9-0.5-3.1-1.1c-1.2-0.6-1.6-0.2-1.2-1l0.3-0.5C66.2,58.5,66.7,58.2,67.9,58.7z"/>
						<path id="XMLID_16395_" opacity="0.1" fill="#272525" d="M70.8,56.2c-1-0.5-2.3-1.6-2.7-0.9l0.2-0.3c0.4-0.7,1.9,0.5,3.1,1.1
							s1.6,0.2,1.2,1L71,59.8c-0.2,0.3-0.5,0.3-0.8,0.2l1.7-2.8C72.3,56.4,71.8,56.7,70.8,56.2z"/>
					</g>
				</g>
			</g>
			<g id="XMLID_16356_">
				<g id="XMLID_16374_">
					<g id="XMLID_16388_">
						<path id="XMLID_16391_" fill="#B26028" d="M83.9,58.9c1.2,0.6,1.6,0.2,1.2,1l-1.9,3.2c-0.4,0.7-1.9-0.5-3.1-1.1
							s-1.6-0.2-1.2-1l1.9-3.2C81.2,57.1,82.7,58.3,83.9,58.9z"/>
						<path id="XMLID_16390_" opacity="0.2" fill="#272525" d="M80.4,61.6c1.2,0.6,2.7,1.8,3.1,1.1l-0.3,0.5
							c-0.4,0.7-1.9-0.5-3.1-1.1s-1.6-0.2-1.2-1l0.3-0.5C78.7,61.3,79.2,61,80.4,61.6z"/>
						<path id="XMLID_16389_" opacity="0.1" fill="#272525" d="M83.3,59c-1-0.5-2.3-1.6-2.7-0.9l0.2-0.3c0.4-0.7,1.9,0.5,3.1,1.1
							s1.6,0.2,1.2,1l-1.6,2.8c-0.2,0.3-0.5,0.3-0.8,0.2l1.7-2.8C84.8,59.2,84.4,59.5,83.3,59z"/>
					</g>
					<g id="XMLID_16384_">
						<path id="XMLID_16387_" fill="#B26028" d="M80.4,56.8c1.2,0.6,1.6,0.2,1.2,1L79.7,61c-0.4,0.7-1.9-0.5-3.1-1.1
							c-1.2-0.6-1.6-0.2-1.2-1l1.9-3.2C77.8,55,79.2,56.3,80.4,56.8z"/>
						<path id="XMLID_16386_" opacity="0.2" fill="#272525" d="M76.9,59.5c1.2,0.6,2.7,1.8,3.1,1.1L79.7,61
							c-0.4,0.7-1.9-0.5-3.1-1.1c-1.2-0.6-1.6-0.2-1.2-1l0.3-0.5C75.3,59.3,75.7,59,76.9,59.5z"/>
						<path id="XMLID_16385_" opacity="0.1" fill="#272525" d="M79.8,57c-1-0.5-2.3-1.6-2.7-0.9l0.2-0.3c0.4-0.7,1.9,0.5,3.1,1.1
							c1.2,0.6,1.6,0.2,1.2,1L80,60.6c-0.2,0.3-0.5,0.3-0.8,0.2l1.7-2.8C81.3,57.1,80.9,57.5,79.8,57z"/>
					</g>
					<g id="XMLID_16380_">
						<path id="XMLID_16383_" fill="#B26028" d="M76.9,54.8c1.2,0.6,1.6,0.2,1.2,1L76.2,59c-0.4,0.7-1.9-0.5-3.1-1.1
							c-1.2-0.6-1.6-0.2-1.2-1l1.9-3.2C74.3,53,75.7,54.2,76.9,54.8z"/>
						<path id="XMLID_16382_" opacity="0.2" fill="#272525" d="M73.4,57.5c1.2,0.6,2.7,1.8,3.1,1.1L76.2,59
							c-0.4,0.7-1.9-0.5-3.1-1.1c-1.2-0.6-1.6-0.2-1.2-1l0.3-0.5C71.8,57.2,72.2,56.9,73.4,57.5z"/>
						<path id="XMLID_16381_" opacity="0.1" fill="#272525" d="M76.3,54.9c-1-0.5-2.3-1.6-2.7-0.9l0.2-0.3c0.4-0.7,1.9,0.5,3.1,1.1
							c1.2,0.6,1.6,0.2,1.2,1l-1.6,2.8c-0.2,0.3-0.5,0.3-0.8,0.2l1.7-2.8C77.8,55.1,77.4,55.4,76.3,54.9z"/>
					</g>
					<g id="XMLID_16375_">
						<path id="XMLID_16379_" fill="#B26028" d="M73.4,52.8c1.2,0.6,1.6,0.2,1.2,1L72.7,57c-0.4,0.7-1.9-0.5-3.1-1.1
							c-1.2-0.6-1.6-0.2-1.2-1l1.9-3.2C70.8,51,72.2,52.2,73.4,52.8z"/>
						<path id="XMLID_16378_" opacity="0.2" fill="#272525" d="M69.9,55.4c1.2,0.6,2.7,1.8,3.1,1.1L72.7,57
							c-0.4,0.7-1.9-0.5-3.1-1.1c-1.2-0.6-1.6-0.2-1.2-1l0.3-0.5C68.3,55.2,68.7,54.9,69.9,55.4z"/>
						<path id="XMLID_16377_" opacity="0.1" fill="#272525" d="M72.8,52.9c-1-0.5-2.3-1.6-2.7-0.9l0.2-0.3c0.4-0.7,1.9,0.5,3.1,1.1
							s1.6,0.2,1.2,1L73,56.5c-0.2,0.3-0.5,0.3-0.8,0.2l1.7-2.8C74.3,53.1,73.9,53.4,72.8,52.9z"/>
					</g>
				</g>
				<g id="XMLID_16357_">
					<g id="XMLID_16370_">
						<path id="XMLID_16373_" fill="#B26028" d="M85.8,55.5c1.2,0.6,1.6,0.2,1.2,1l-1.9,3.2c-0.4,0.7-1.9-0.5-3.1-1.1
							c-1.2-0.6-1.6-0.2-1.2-1l1.9-3.2C83.2,53.7,84.7,55,85.8,55.5z"/>
						<path id="XMLID_16372_" opacity="0.2" fill="#272525" d="M82.3,58.2c1.2,0.6,2.7,1.8,3.1,1.1l-0.3,0.5
							c-0.4,0.7-1.9-0.5-3.1-1.1c-1.2-0.6-1.6-0.2-1.2-1l0.3-0.5C80.7,58,81.1,57.6,82.3,58.2z"/>
						<path id="XMLID_16371_" opacity="0.1" fill="#272525" d="M85.3,55.7c-1-0.5-2.3-1.6-2.7-0.9l0.2-0.3c0.4-0.7,1.9,0.5,3.1,1.1
							s1.6,0.2,1.2,1l-1.6,2.8c-0.2,0.3-0.5,0.3-0.8,0.2l1.7-2.8C86.7,55.8,86.3,56.2,85.3,55.7z"/>
					</g>
					<g id="XMLID_16366_">
						<path id="XMLID_16369_" fill="#B26028" d="M82.3,53.5c1.2,0.6,1.6,0.2,1.2,1l-1.9,3.2c-0.4,0.7-1.9-0.5-3.1-1.1
							s-1.6-0.2-1.2-1l1.9-3.2C79.7,51.7,81.2,52.9,82.3,53.5z"/>
						<path id="XMLID_16368_" opacity="0.2" fill="#272525" d="M78.8,56.2c1.2,0.6,2.7,1.8,3.1,1.1l-0.3,0.5
							c-0.4,0.7-1.9-0.5-3.1-1.1s-1.6-0.2-1.2-1l0.3-0.5C77.2,55.9,77.6,55.6,78.8,56.2z"/>
						<path id="XMLID_16367_" opacity="0.1" fill="#272525" d="M81.8,53.6c-1-0.5-2.3-1.6-2.7-0.9l0.2-0.3c0.4-0.7,1.9,0.5,3.1,1.1
							s1.6,0.2,1.2,1l-1.6,2.8c-0.2,0.3-0.5,0.3-0.8,0.2l1.7-2.8C83.2,53.8,82.8,54.1,81.8,53.6z"/>
					</g>
					<g id="XMLID_16362_">
						<path id="XMLID_16365_" fill="#B26028" d="M78.9,51.4c1.2,0.6,1.6,0.2,1.2,1l-1.9,3.2c-0.4,0.7-1.9-0.5-3.1-1.1
							c-1.2-0.6-1.6-0.2-1.2-1l1.9-3.2C76.2,49.6,77.7,50.9,78.9,51.4z"/>
						<path id="XMLID_16364_" opacity="0.2" fill="#272525" d="M75.3,54.1c1.2,0.6,2.7,1.8,3.1,1.1l-0.3,0.5
							c-0.4,0.7-1.9-0.5-3.1-1.1c-1.2-0.6-1.6-0.2-1.2-1l0.3-0.5C73.7,53.9,74.1,53.6,75.3,54.1z"/>
						<path id="XMLID_16363_" opacity="0.1" fill="#272525" d="M78.3,51.6c-1-0.5-2.3-1.6-2.7-0.9l0.2-0.3c0.4-0.7,1.9,0.5,3.1,1.1
							c1.2,0.6,1.6,0.2,1.2,1l-1.6,2.8c-0.2,0.3-0.5,0.3-0.8,0.2l1.7-2.8C79.7,51.7,79.3,52.1,78.3,51.6z"/>
					</g>
					<g id="XMLID_16358_">
						<path id="XMLID_16361_" fill="#B26028" d="M75.4,49.4c1.2,0.6,1.6,0.2,1.2,1l-1.9,3.2c-0.4,0.7-1.9-0.5-3.1-1.1
							c-1.2-0.6-1.6-0.2-1.2-1l1.9-3.2C72.7,47.6,74.2,48.8,75.4,49.4z"/>
						<path id="XMLID_16360_" opacity="0.2" fill="#272525" d="M71.8,52.1c1.2,0.6,2.7,1.8,3.1,1.1l-0.3,0.5
							c-0.4,0.7-1.9-0.5-3.1-1.1c-1.2-0.6-1.6-0.2-1.2-1l0.3-0.5C70.2,51.9,70.6,51.5,71.8,52.1z"/>
						<path id="XMLID_16359_" opacity="0.1" fill="#272525" d="M74.8,49.6c-1-0.5-2.3-1.6-2.7-0.9l0.2-0.3c0.4-0.7,1.9,0.5,3.1,1.1
							c1.2,0.6,1.6,0.2,1.2,1l-1.6,2.8c-0.2,0.3-0.5,0.3-0.8,0.2l1.7-2.8C76.2,49.7,75.8,50.1,74.8,49.6z"/>
					</g>
				</g>
			</g>
			<g id="XMLID_16335_">
				<g id="XMLID_16336_">
					<g id="XMLID_16351_">
						<path id="XMLID_16355_" fill="#B26028" d="M87.9,52.2c1.2,0.6,1.6,0.2,1.2,1l-1.9,3.2c-0.4,0.7-1.9-0.5-3.1-1.1
							c-1.2-0.6-1.6-0.2-1.2-1l1.9-3.2C85.2,50.4,86.7,51.7,87.9,52.2z"/>
						<path id="XMLID_16353_" opacity="0.2" fill="#272525" d="M84.3,54.9c1.2,0.6,2.7,1.8,3.1,1.1l-0.3,0.5
							c-0.4,0.7-1.9-0.5-3.1-1.1c-1.2-0.6-1.6-0.2-1.2-1l0.3-0.5C82.7,54.7,83.1,54.4,84.3,54.9z"/>
						<path id="XMLID_16352_" opacity="0.1" fill="#272525" d="M87.3,52.4c-1-0.5-2.3-1.6-2.7-0.9l0.2-0.3c0.4-0.7,1.9,0.5,3.1,1.1
							c1.2,0.6,1.6,0.2,1.2,1L87.4,56c-0.2,0.3-0.5,0.3-0.8,0.2l1.7-2.8C88.7,52.5,88.3,52.9,87.3,52.4z"/>
					</g>
					<g id="XMLID_16346_">
						<path id="XMLID_16350_" fill="#B26028" d="M84.4,50.2c1.2,0.6,1.6,0.2,1.2,1l-1.9,3.2c-0.4,0.7-1.9-0.5-3.1-1.1
							s-1.6-0.2-1.2-1l1.9-3.2C81.7,48.4,83.2,49.6,84.4,50.2z"/>
						<path id="XMLID_16349_" opacity="0.2" fill="#272525" d="M80.8,52.9c1.2,0.6,2.7,1.8,3.1,1.1l-0.3,0.5
							c-0.4,0.7-1.9-0.5-3.1-1.1s-1.6-0.2-1.2-1l0.3-0.5C79.2,52.7,79.6,52.3,80.8,52.9z"/>
						<path id="XMLID_16347_" opacity="0.1" fill="#272525" d="M83.8,50.4c-1-0.5-2.3-1.6-2.7-0.9l0.2-0.3c0.4-0.7,1.9,0.5,3.1,1.1
							c1.2,0.6,1.6,0.2,1.2,1L84,53.9c-0.2,0.3-0.5,0.3-0.8,0.2l1.7-2.8C85.2,50.5,84.8,50.8,83.8,50.4z"/>
					</g>
					<g id="XMLID_16341_">
						<path id="XMLID_16345_" fill="#B26028" d="M80.9,48.2c1.2,0.6,1.6,0.2,1.2,1l-1.9,3.2c-0.4,0.7-1.9-0.5-3.1-1.1
							s-1.6-0.2-1.2-1l1.9-3.2C78.2,46.4,79.7,47.6,80.9,48.2z"/>
						<path id="XMLID_16344_" opacity="0.2" fill="#272525" d="M77.3,50.8c1.2,0.6,2.7,1.8,3.1,1.1l-0.3,0.5
							c-0.4,0.7-1.9-0.5-3.1-1.1s-1.6-0.2-1.2-1l0.3-0.5C75.7,50.6,76.2,50.3,77.3,50.8z"/>
						<path id="XMLID_16343_" opacity="0.1" fill="#272525" d="M80.3,48.3c-1-0.5-2.3-1.6-2.7-0.9l0.2-0.3c0.4-0.7,1.9,0.5,3.1,1.1
							s1.6,0.2,1.2,1l-1.6,2.8c-0.2,0.3-0.5,0.3-0.8,0.2l1.7-2.8C81.7,48.5,81.3,48.8,80.3,48.3z"/>
					</g>
					<g id="XMLID_16337_">
						<path id="XMLID_16340_" fill="#B26028" d="M77.4,46.1c1.2,0.6,1.6,0.2,1.2,1l-1.9,3.2c-0.4,0.7-1.9-0.5-3.1-1.1
							s-1.6-0.2-1.2-1l1.9-3.2C74.7,44.3,76.2,45.6,77.4,46.1z"/>
						<path id="XMLID_16339_" opacity="0.2" fill="#272525" d="M73.8,48.8c1.2,0.6,2.7,1.8,3.1,1.1l-0.3,0.5
							c-0.4,0.7-1.9-0.5-3.1-1.1s-1.6-0.2-1.2-1l0.3-0.5C72.2,48.6,72.7,48.2,73.8,48.8z"/>
						<path id="XMLID_16338_" opacity="0.1" fill="#272525" d="M76.8,46.3c-1-0.5-2.3-1.6-2.7-0.9l0.2-0.3c0.4-0.7,1.9,0.5,3.1,1.1
							c1.2,0.6,1.6,0.2,1.2,1L77,49.9c-0.2,0.3-0.5,0.3-0.8,0.2l1.7-2.8C78.2,46.4,77.8,46.8,76.8,46.3z"/>
					</g>
				</g>
			</g>
		</g>
	</g>
</g>
</svg>
