<?xml version="1.0" encoding="utf-8"?>
<!-- Generator: Adobe Illustrator 16.0.0, SVG Export Plug-In . SVG Version: 6.00 Build 0)  -->
<!DOCTYPE svg PUBLIC "-//W3C//DTD SVG 1.1//EN" "http://www.w3.org/Graphics/SVG/1.1/DTD/svg11.dtd">
<svg version="1.1" id="Layer_1" xmlns="http://www.w3.org/2000/svg" xmlns:xlink="http://www.w3.org/1999/xlink" x="0px" y="0px"
	 width="164px" height="164px" viewBox="0 0 164 164" enable-background="new 0 0 164 164" xml:space="preserve">
<g id="XMLID_16849_">
	<g id="XMLID_16853_">
		<polygon id="XMLID_16878_" fill="#848484" points="71.9,78.7 73,79.2 73.6,78.1 72.5,77.6 		"/>
		<path id="XMLID_16877_" opacity="0.3" d="M77.7,71.5L66.1,65c-0.1-0.1-0.2,0-0.3,0.1l-0.3,0.5l0.3,0.2l0,0l-3.3,5.7l-0.3-0.2
			l-0.3,0.5c0,0.1,0,0.2,0.1,0.3l11.7,6.4c0.1,0.1,0.2,0,0.3-0.1l0.3-0.5l-0.3-0.2l3.3-5.7l0.3,0.2l0.3-0.5
			C77.9,71.6,77.8,71.5,77.7,71.5z"/>
		<polygon id="XMLID_16876_" fill="#002947" points="62.2,70.9 65.6,65.2 77,71.1 77,71.5 73.6,77.2 62.8,71.7 		"/>
		<g id="XMLID_16859_">
			<g id="XMLID_16860_">
				<polygon id="XMLID_16875_" fill="#001B24" points="77,71.5 76.6,71.3 73.2,77 73.6,77.2 				"/>
				<g id="XMLID_16861_">
					<polygon id="XMLID_16874_" fill="#001B24" points="67.2,66.1 66.8,65.9 63.5,71.6 64.3,72 64.3,72 63.9,71.8 					"/>
					<polygon id="XMLID_16873_" fill="#001B24" points="69.6,67.5 69.2,67.2 65.9,72.9 66.7,73.4 66.7,73.4 66.3,73.2 					"/>
					<polygon id="XMLID_16872_" fill="#001B24" points="72.1,68.8 71.7,68.6 68.3,74.3 69.2,74.7 69.2,74.7 68.8,74.5 					"/>
					<polygon id="XMLID_16871_" fill="#001B24" points="74.5,70.1 74.1,69.9 70.8,75.6 71.6,76.1 71.6,76.1 71.2,75.9 					"/>
					<polygon id="XMLID_16870_" fill="#001B24" points="66,65.4 62.6,71.1 63,71.4 66.4,65.7 					"/>
					<polygon id="XMLID_16869_" fill="#001B24" points="68,66.6 67.2,66.1 67.2,66.1 67.6,66.3 64.3,72 64.7,72.3 					"/>
					<polygon id="XMLID_16868_" fill="#001B24" points="68.4,66.8 65.1,72.5 65.5,72.7 68.8,67 					"/>
					<polygon id="XMLID_16867_" fill="#001B24" points="70.4,67.9 69.6,67.5 69.6,67.5 70,67.7 66.7,73.4 67.1,73.6 					"/>
					<polygon id="XMLID_16866_" fill="#001B24" points="70.9,68.1 67.5,73.8 67.9,74.1 71.3,68.4 					"/>
					<polygon id="XMLID_16865_" fill="#001B24" points="72.9,69.2 72.1,68.8 72.1,68.8 72.5,69 69.2,74.7 69.6,75 					"/>
					<polygon id="XMLID_16864_" fill="#001B24" points="73.3,69.5 70,75.2 70.4,75.4 73.7,69.7 					"/>
					<polygon id="XMLID_16863_" fill="#001B24" points="75.3,70.6 74.5,70.1 74.5,70.1 74.9,70.4 71.6,76.1 72,76.3 					"/>
					<polygon id="XMLID_16862_" fill="#001B24" points="75.7,70.8 72.4,76.5 72.8,76.8 76.2,71 					"/>
				</g>
			</g>
		</g>
		<path id="XMLID_16858_" fill="#001B24" d="M61.6,71.2c0,0.1,0,0.2,0.1,0.3l11.7,6.4c0.1,0.1,0.2,0,0.3-0.1l0.3-0.5l-12.1-6.6
			L61.6,71.2z"/>
		<path id="XMLID_16857_" fill="#001B24" d="M77.6,71.2c0.1-0.1,0-0.2-0.1-0.3l-11.7-6.4c-0.1-0.1-0.2,0-0.3,0.1L65.2,65l12,6.6
			L77.6,71.2z"/>
		<polygon id="XMLID_16856_" opacity="0.2" points="73,78.4 73.2,78.8 73,79.2 72.7,79.1 72.5,78.5 		"/>
		<path id="XMLID_16855_" fill="#001B24" d="M73.1,77.5l-0.4-0.2L72.3,78c0,0.1,0,0.1,0,0.2h0v0l0.1,0.2c0,0.1,0.1,0.2,0.3,0.2
			c0.2,0,0.3-0.2,0.3-0.2L72.8,78L73.1,77.5z"/>
		<path id="XMLID_16854_" opacity="0.2" d="M72.3,78.1l0.1,0.2c0,0.1,0.1,0.2,0.3,0.2c0.2,0,0.3-0.2,0.3-0.2L72.8,78
			C72.8,78,72.6,78.4,72.3,78.1L72.3,78.1L72.3,78.1z"/>
	</g>
	<polygon id="XMLID_16852_" opacity="4.000000e-002" fill="#FFFFFF" points="65.6,65.2 77,71.5 62.2,70.9 	"/>
</g>
</svg>
