<?xml version="1.0" encoding="utf-8"?>
<!-- Generator: Adobe Illustrator 16.0.0, SVG Export Plug-In . SVG Version: 6.00 Build 0)  -->
<!DOCTYPE svg PUBLIC "-//W3C//DTD SVG 1.1//EN" "http://www.w3.org/Graphics/SVG/1.1/DTD/svg11.dtd">
<svg version="1.1" id="Layer_1" xmlns="http://www.w3.org/2000/svg" xmlns:xlink="http://www.w3.org/1999/xlink" x="0px" y="0px"
	 width="164px" height="164px" viewBox="0 0 164 164" enable-background="new 0 0 164 164" xml:space="preserve">
<g id="XMLID_17013_">
	<path id="XMLID_17095_" opacity="0.2" d="M72.9,59.8l-6.3,3.6l2.3,1.4l0.4,1.1l2.9,1.8c0.1,0.1,0.9,0.5,1,0.5l6.5-3.7
		c0.1-0.1,0.2-0.2,0-0.3L72.9,59.8z"/>
	<g id="XMLID_17080_">
		<g id="XMLID_17087_">
			<polygon id="XMLID_17093_" fill="#66574C" points="68,62.5 68,62.5 67.5,62.2 67.5,64 67.5,64 68,64.3 			"/>
			<polygon id="XMLID_17092_" fill="#493E36" points="68,62.5 68,62.5 68.5,62.2 68.5,64 68.5,64 68,64.3 			"/>
			<polygon id="XMLID_17091_" fill="#AFA28B" points="68,62.5 68.5,62.2 68,61.9 67.5,62.2 68,62.5 68,62.5 68,62.5 68,62.5 			"/>
			<line id="XMLID_17090_" fill="#AFA28B" x1="68" y1="61.9" x2="67.5" y2="62.2"/>
		</g>
		<g id="XMLID_17081_">
			<polygon id="XMLID_17086_" fill="#66574C" points="72,65.8 72,65.8 71.5,65.5 71.5,67.3 71.5,67.3 72,67.6 			"/>
			<polygon id="XMLID_17085_" fill="#493E36" points="72,65.8 72,65.8 72.5,65.5 72.5,67.3 72.5,67.3 72,67.6 			"/>
			<polygon id="XMLID_17084_" fill="#AFA28B" points="72,65.8 72.5,65.5 72,65.3 71.5,65.5 72,65.8 72,65.8 72,65.8 72,65.8 			"/>
			<line id="XMLID_17083_" fill="#AFA28B" x1="72" y1="65.3" x2="71.5" y2="65.5"/>
		</g>
	</g>
	<g id="XMLID_17056_">
		<g id="XMLID_17060_">
			<path id="XMLID_17079_" fill="#FFFFFF" d="M73.3,68.2l6.4-3.6c0.1-0.1,0.2-0.2,0.1-0.3l-6.4-6.7c-0.1-0.1-0.3-0.1-0.4,0l-6.4,3.6
				c-0.1,0.1-0.1,0.2-0.1,0.3l6.3,6.7C73,68.3,73.2,68.3,73.3,68.2z"/>
			<path id="XMLID_17078_" fill="#CECECE" d="M73.3,68.2l6.4-3.6c0.1-0.1,0.2-0.2,0.1-0.3l-6.4-6.7c-0.1-0.1-0.3-0.1-0.4,0l-6.4,3.6
				c-0.1,0.1-0.1,0.2-0.1,0.3l6.3,6.7C73,68.3,73.2,68.3,73.3,68.2z"/>
			<path id="XMLID_17077_" fill="#003B70" stroke="#9CDDF7" stroke-width="0.2" stroke-miterlimit="10" d="M72.6,57.9l-1.1,0.6
				c-0.3,0.2-0.4,0.5-0.2,0.7l1.4,1.5c0.2,0.2,0.6,0.3,1,0.1l1.1-0.6c0.3-0.2,0.4-0.5,0.2-0.7L73.6,58
				C73.4,57.8,72.9,57.7,72.6,57.9z"/>
			<path id="XMLID_17076_" fill="#003B70" stroke="#9CDDF7" stroke-width="0.2" stroke-miterlimit="10" d="M70.4,59.1l-1.1,0.6
				c-0.3,0.2-0.4,0.5-0.2,0.7l1.4,1.5c0.2,0.2,0.6,0.3,0.9,0.1l1.1-0.6c0.3-0.2,0.4-0.5,0.2-0.7l-1.4-1.5C71.2,59,70.8,59,70.4,59.1
				z"/>
			<path id="XMLID_17075_" fill="#003B70" stroke="#9CDDF7" stroke-width="0.2" stroke-miterlimit="10" d="M68.3,60.4l-1,0.6
				c-0.3,0.2-0.4,0.5-0.1,0.7l1.4,1.5c0.2,0.2,0.6,0.3,0.9,0.1l1-0.6c0.3-0.2,0.4-0.5,0.2-0.7l-1.4-1.5C69,60.2,68.6,60.2,68.3,60.4
				z"/>
			<path id="XMLID_17074_" fill="#003B70" stroke="#9CDDF7" stroke-width="0.2" stroke-miterlimit="10" d="M74.9,60.2l-1.1,0.6
				c-0.3,0.2-0.4,0.5-0.2,0.7L75,63c0.2,0.2,0.6,0.3,0.9,0.1l1.1-0.6c0.3-0.2,0.4-0.5,0.2-0.7l-1.4-1.5
				C75.6,60.1,75.2,60.1,74.9,60.2z"/>
			<path id="XMLID_17073_" fill="#003B70" stroke="#9CDDF7" stroke-width="0.2" stroke-miterlimit="10" d="M72.7,61.5l-1.1,0.6
				c-0.3,0.2-0.4,0.5-0.2,0.7l1.4,1.5c0.2,0.2,0.6,0.3,0.9,0.1l1.1-0.6c0.3-0.2,0.4-0.5,0.2-0.7l-1.4-1.5
				C73.4,61.3,73,61.3,72.7,61.5z"/>
			<path id="XMLID_17072_" fill="#003B70" stroke="#9CDDF7" stroke-width="0.2" stroke-miterlimit="10" d="M70.5,62.7l-1,0.6
				c-0.3,0.2-0.4,0.5-0.2,0.7l1.4,1.5c0.2,0.2,0.6,0.3,0.9,0.1l1-0.6c0.3-0.2,0.4-0.5,0.2-0.7l-1.4-1.5
				C71.2,62.6,70.8,62.5,70.5,62.7z"/>
			<path id="XMLID_17071_" fill="#003B70" stroke="#9CDDF7" stroke-width="0.2" stroke-miterlimit="10" d="M77,62.5l-1.1,0.6
				c-0.3,0.2-0.4,0.5-0.2,0.7l1.4,1.4c0.2,0.2,0.6,0.3,0.9,0.1l1.1-0.6c0.3-0.2,0.4-0.5,0.2-0.7L78,62.6
				C77.7,62.4,77.3,62.3,77,62.5z"/>
			<path id="XMLID_17070_" fill="#003B70" stroke="#9CDDF7" stroke-width="0.2" stroke-miterlimit="10" d="M74.8,63.7l-1.1,0.6
				c-0.3,0.2-0.4,0.5-0.2,0.7l1.4,1.4c0.2,0.2,0.6,0.3,0.9,0.1l1.1-0.6c0.3-0.2,0.4-0.5,0.2-0.7l-1.4-1.4
				C75.5,63.6,75.1,63.6,74.8,63.7z"/>
			<path id="XMLID_17069_" fill="#003B70" stroke="#9CDDF7" stroke-width="0.2" stroke-miterlimit="10" d="M72.7,65l-1,0.6
				c-0.3,0.2-0.4,0.5-0.2,0.7l1.4,1.4c0.2,0.2,0.6,0.3,0.9,0.1l1-0.6c0.3-0.2,0.4-0.5,0.2-0.7L73.6,65C73.4,64.8,73,64.8,72.7,65z"
				/>
			
				<line id="XMLID_17068_" opacity="0.5" fill="none" stroke="#9CDDF7" stroke-width="0.2" stroke-miterlimit="10" x1="79.3" y1="64" x2="72.9" y2="67.7"/>
			
				<line id="XMLID_17067_" opacity="0.5" fill="none" stroke="#9CDDF7" stroke-width="0.2" stroke-miterlimit="10" x1="70.4" y1="59.1" x2="76.9" y2="66"/>
			
				<line id="XMLID_17066_" opacity="0.5" fill="none" stroke="#9CDDF7" stroke-width="0.2" stroke-miterlimit="10" x1="71.6" y1="58.5" x2="78" y2="65.3"/>
			
				<line id="XMLID_17065_" opacity="0.5" fill="none" stroke="#9CDDF7" stroke-width="0.2" stroke-miterlimit="10" x1="68.3" y1="60.4" x2="74.8" y2="67.2"/>
			
				<line id="XMLID_17064_" opacity="0.5" fill="none" stroke="#9CDDF7" stroke-width="0.2" stroke-miterlimit="10" x1="69.4" y1="59.7" x2="75.9" y2="66.6"/>
			
				<line id="XMLID_17063_" opacity="0.5" fill="none" stroke="#9CDDF7" stroke-width="0.2" stroke-miterlimit="10" x1="72.6" y1="57.9" x2="79.1" y2="64.7"/>
			<polyline id="XMLID_17062_" opacity="0.5" fill="none" stroke="#9CDDF7" stroke-width="0.2" stroke-miterlimit="10" points="
				69.4,64 75.8,60.3 77.2,61.8 70.8,65.4 			"/>
			<polyline id="XMLID_17061_" opacity="0.5" fill="none" stroke="#9CDDF7" stroke-width="0.2" stroke-miterlimit="10" points="
				67.2,61.6 73.6,58 75,59.5 68.6,63.1 			"/>
		</g>
		
			<line id="XMLID_17059_" opacity="0.5" fill="none" stroke="#9CDDF7" stroke-width="0.2" stroke-miterlimit="10" x1="77.2" y1="61.8" x2="70.8" y2="65.4"/>
		
			<line id="XMLID_17058_" opacity="0.5" fill="none" stroke="#9CDDF7" stroke-width="0.2" stroke-miterlimit="10" x1="73.7" y1="67.8" x2="67.2" y2="61"/>
		
			<line id="XMLID_17057_" opacity="0.5" fill="none" stroke="#9CDDF7" stroke-width="0.2" stroke-miterlimit="10" x1="77.9" y1="62.6" x2="71.4" y2="66.3"/>
	</g>
</g>
</svg>
