<?xml version="1.0" encoding="utf-8"?>
<!-- Generator: Adobe Illustrator 16.0.0, SVG Export Plug-In . SVG Version: 6.00 Build 0)  -->
<!DOCTYPE svg PUBLIC "-//W3C//DTD SVG 1.1//EN" "http://www.w3.org/Graphics/SVG/1.1/DTD/svg11.dtd">
<svg version="1.1" id="Layer_1" xmlns="http://www.w3.org/2000/svg" xmlns:xlink="http://www.w3.org/1999/xlink" x="0px" y="0px"
	 width="164px" height="164px" viewBox="0 0 164 164" enable-background="new 0 0 164 164" xml:space="preserve">
<g id="XMLID_17206_">
	<g id="XMLID_17468_">
		<g id="XMLID_17469_">
			<path id="XMLID_17470_" fill="#B26028" d="M89.1,45L67.8,57.3l-4.1,7.1l11.4,5.2l28.3-16.4L89.1,45z"/>
		</g>
	</g>
	<g id="XMLID_17448_">
		<g id="XMLID_17449_">
			<g id="XMLID_17453_">
				<g id="XMLID_17464_">
					<defs>
						<polygon id="XMLID_17465_" points="75.1,77.8 81.7,66.4 103.4,53.8 103.4,61.4 						"/>
					</defs>
					<clipPath id="XMLID_2_">
						<use xlink:href="#XMLID_17465_"  overflow="visible"/>
					</clipPath>
					<g id="XMLID_17466_" clip-path="url(#XMLID_2_)">
						<defs>
							<polygon id="XMLID_17467_" points="75.1,77.8 89.3,53.2 103.4,53.6 103.4,61.4 							"/>
						</defs>
						<use xlink:href="#XMLID_17467_"  overflow="visible" fill="#AD856A"/>
						<clipPath id="XMLID_3_">
							<use xlink:href="#XMLID_17467_"  overflow="visible"/>
						</clipPath>
					</g>
				</g>
				<g id="XMLID_17454_">
					<polygon id="XMLID_17463_" fill="#90674C" points="75.8,76.7 79.8,74.4 79.8,72.4 75.8,74.7 					"/>
					<polygon id="XMLID_17462_" fill="#90674C" points="80.5,74 84.6,71.6 84.6,69.6 80.5,72 					"/>
					<polygon id="XMLID_17461_" fill="#90674C" points="82.2,70.3 82.2,68.3 78.1,70.6 78.1,72.6 					"/>
					<polygon id="XMLID_17460_" fill="#90674C" points="89.3,66.2 89.3,64.2 87.6,65.2 87.6,67.2 					"/>
					<polygon id="XMLID_17459_" fill="#90674C" points="99.4,63.1 103.5,60.7 103.5,58.7 99.4,61.1 					"/>
					<polygon id="XMLID_17458_" fill="#90674C" points="91.6,62.9 89.3,64.2 89.3,66.2 91.6,64.9 					"/>
					<polygon id="XMLID_17457_" fill="#90674C" points="96.4,62.1 96.4,60.1 92.3,62.4 92.3,64.4 					"/>
					<polygon id="XMLID_17456_" fill="#90674C" points="101.8,59 103.5,58 103.5,56 101.8,57 					"/>
					<polygon id="XMLID_17455_" fill="#90674C" points="97.1,61.7 101.1,59.4 101.1,57.4 97.1,59.7 					"/>
				</g>
			</g>
			<g id="XMLID_17450_">
				<g id="XMLID_17451_">
					<polygon id="XMLID_17452_" fill="#7C4723" points="81.5,69 81.4,66.5 75.1,69.6 103.5,53.2 103.5,56.3 103.5,56.3 95.7,60.8 
											"/>
				</g>
			</g>
		</g>
	</g>
	<g id="XMLID_17432_">
		<g id="XMLID_17433_">
			<g id="XMLID_17445_">
				<polygon id="XMLID_17447_" fill="#968677" points="74.9,77.7 89.1,85.9 89.1,83.3 74.9,75.1 				"/>
				<polygon id="XMLID_17446_" fill="#77675A" points="89.1,85.9 89.1,83.3 89.1,83.3 117.4,66.9 117.4,69.5 117.4,69.5 				"/>
			</g>
			<g id="XMLID_17440_">
				<path id="XMLID_17442_" fill="#AFA28B" d="M103.2,58.7L74.9,75.1l14.2,8.2l28.3-16.4L103.2,58.7z M79.6,75.1l23.6-13.6l9.5,5.5
					L89.1,80.5L79.6,75.1z"/>
				<polygon id="XMLID_17441_" fill="#2B2927" points="103.2,61.4 79.6,75.1 89.1,80.5 112.7,66.9 				"/>
			</g>
			<polygon id="XMLID_17439_" fill="#968677" points="103.2,62.8 111.6,67.5 112.7,66.9 103.2,61.4 			"/>
			<polygon id="XMLID_17438_" fill="#77675A" points="103.2,62.8 103.2,61.4 89.1,69.6 79.6,75.1 80.7,75.7 89.1,70.9 			"/>
			<g id="XMLID_17434_" opacity="0.2">
				<polygon id="XMLID_17437_" opacity="0.2" fill="#FFFFFF" points="93,78.3 93.5,78 85.1,73.2 84.6,73.5 				"/>
				<polygon id="XMLID_17436_" opacity="0.2" fill="#FFFFFF" points="100,74.2 100.5,73.9 92.2,69.1 91.7,69.4 				"/>
				<polygon id="XMLID_17435_" opacity="0.2" fill="#FFFFFF" points="107.6,69.8 99.3,65 98.8,65.3 107.1,70.1 				"/>
			</g>
		</g>
	</g>
	<polygon id="XMLID_17431_" fill="#7C4723" points="68,60.4 61,72.5 75.2,80.7 83,67.2 	"/>
	<g id="XMLID_17314_">
		<g id="XMLID_17414_">
			<g id="XMLID_17427_">
				<path id="XMLID_17430_" fill="#B26028" d="M74.4,75.6c1.2,0.6,1.6,0.2,1.2,1l-1.9,3.2c-0.4,0.7-1.9-0.5-3.1-1.1
					c-1.2-0.6-1.6-0.2-1.2-1l1.9-3.2C71.7,73.8,73.2,75,74.4,75.6z"/>
				<path id="XMLID_17429_" opacity="0.2" fill="#272525" d="M70.8,78.3c1.2,0.6,2.7,1.8,3.1,1.1l-0.3,0.5c-0.4,0.7-1.9-0.5-3.1-1.1
					c-1.2-0.6-1.6-0.2-1.2-1l0.3-0.5C69.2,78.1,69.7,77.7,70.8,78.3z"/>
				<path id="XMLID_17428_" opacity="0.1" fill="#272525" d="M73.8,75.8c-1-0.5-2.3-1.6-2.7-0.9l0.2-0.3c0.4-0.7,1.9,0.5,3.1,1.1
					c1.2,0.6,1.6,0.2,1.2,1L74,79.3c-0.2,0.3-0.5,0.3-0.8,0.2l1.7-2.8C75.2,75.9,74.8,76.2,73.8,75.8z"/>
			</g>
			<g id="XMLID_17423_">
				<path id="XMLID_17426_" fill="#B26028" d="M70.9,73.6c1.2,0.6,1.6,0.2,1.2,1l-1.9,3.2c-0.4,0.7-1.9-0.5-3.1-1.1
					c-1.2-0.6-1.6-0.2-1.2-1l1.9-3.2C68.2,71.8,69.7,73,70.9,73.6z"/>
				<path id="XMLID_17425_" opacity="0.2" fill="#272525" d="M67.4,76.2c1.2,0.6,2.7,1.8,3.1,1.1l-0.3,0.5c-0.4,0.7-1.9-0.5-3.1-1.1
					c-1.2-0.6-1.6-0.2-1.2-1l0.3-0.5C65.7,76,66.2,75.7,67.4,76.2z"/>
				<path id="XMLID_17424_" opacity="0.1" fill="#272525" d="M70.3,73.7c-1-0.5-2.3-1.6-2.7-0.9l0.2-0.3c0.4-0.7,1.9,0.5,3.1,1.1
					s1.6,0.2,1.2,1l-1.6,2.8c-0.2,0.3-0.5,0.3-0.8,0.2l1.7-2.8C71.7,73.9,71.3,74.2,70.3,73.7z"/>
			</g>
			<g id="XMLID_17419_">
				<path id="XMLID_17422_" fill="#B26028" d="M67.4,71.5c1.2,0.6,1.6,0.2,1.2,1l-1.9,3.2c-0.4,0.7-1.9-0.5-3.1-1.1s-1.6-0.2-1.2-1
					l1.9-3.2C64.7,69.7,66.2,71,67.4,71.5z"/>
				<path id="XMLID_17421_" opacity="0.2" fill="#272525" d="M63.9,74.2c1.2,0.6,2.7,1.8,3.1,1.1l-0.3,0.5c-0.4,0.7-1.9-0.5-3.1-1.1
					s-1.6-0.2-1.2-1l0.3-0.5C62.2,74,62.7,73.6,63.9,74.2z"/>
				<path id="XMLID_17420_" opacity="0.1" fill="#272525" d="M66.8,71.7c-1-0.5-2.3-1.6-2.7-0.9l0.2-0.3c0.4-0.7,1.9,0.5,3.1,1.1
					s1.6,0.2,1.2,1L67,75.3c-0.2,0.3-0.5,0.3-0.8,0.2l1.7-2.8C68.3,71.8,67.8,72.2,66.8,71.7z"/>
			</g>
			<g id="XMLID_17415_">
				<path id="XMLID_17418_" fill="#B26028" d="M63.9,69.5c1.2,0.6,1.6,0.2,1.2,1l-1.9,3.2c-0.4,0.7-1.9-0.5-3.1-1.1
					c-1.2-0.6-1.6-0.2-1.2-1l1.9-3.2C61.2,67.7,62.7,68.9,63.9,69.5z"/>
				<path id="XMLID_17417_" opacity="0.2" fill="#272525" d="M60.4,72.2c1.2,0.6,2.7,1.8,3.1,1.1l-0.3,0.5c-0.4,0.7-1.9-0.5-3.1-1.1
					c-1.2-0.6-1.6-0.2-1.2-1l0.3-0.5C58.7,71.9,59.2,71.6,60.4,72.2z"/>
				<path id="XMLID_17416_" opacity="0.1" fill="#272525" d="M63.3,69.6c-1-0.5-2.3-1.6-2.7-0.9l0.2-0.3c0.4-0.7,1.9,0.5,3.1,1.1
					s1.6,0.2,1.2,1l-1.6,2.8c-0.2,0.3-0.5,0.3-0.8,0.2l1.7-2.8C64.8,69.8,64.3,70.1,63.3,69.6z"/>
			</g>
		</g>
		<g id="XMLID_17352_">
			<g id="XMLID_17410_">
				<path id="XMLID_17413_" fill="#B26028" d="M76.3,72.3c1.2,0.6,1.6,0.2,1.2,1l-1.9,3.2c-0.4,0.7-1.9-0.5-3.1-1.1
					c-1.2-0.6-1.6-0.2-1.2-1l1.9-3.2C73.6,70.5,75.1,71.7,76.3,72.3z"/>
				<path id="XMLID_17412_" opacity="0.2" fill="#272525" d="M72.8,74.9c1.2,0.6,2.7,1.8,3.1,1.1l-0.3,0.5c-0.4,0.7-1.9-0.5-3.1-1.1
					c-1.2-0.6-1.6-0.2-1.2-1l0.3-0.5C71.1,74.7,71.6,74.4,72.8,74.9z"/>
				<path id="XMLID_17411_" opacity="0.1" fill="#272525" d="M75.7,72.4c-1-0.5-2.3-1.6-2.7-0.9l0.2-0.3c0.4-0.7,1.9,0.5,3.1,1.1
					c1.2,0.6,1.6,0.2,1.2,1L75.9,76c-0.2,0.3-0.5,0.3-0.8,0.2l1.7-2.8C77.2,72.6,76.7,72.9,75.7,72.4z"/>
			</g>
			<g id="XMLID_17406_">
				<path id="XMLID_17409_" fill="#B26028" d="M72.8,70.2c1.2,0.6,1.6,0.2,1.2,1l-1.9,3.2c-0.4,0.7-1.9-0.5-3.1-1.1
					c-1.2-0.6-1.6-0.2-1.2-1l1.9-3.2C70.1,68.4,71.6,69.7,72.8,70.2z"/>
				<path id="XMLID_17408_" opacity="0.2" fill="#272525" d="M69.3,72.9c1.2,0.6,2.7,1.8,3.1,1.1l-0.3,0.5c-0.4,0.7-1.9-0.5-3.1-1.1
					c-1.2-0.6-1.6-0.2-1.2-1l0.3-0.5C67.6,72.7,68.1,72.3,69.3,72.9z"/>
				<path id="XMLID_17407_" opacity="0.1" fill="#272525" d="M72.2,70.4c-1-0.5-2.3-1.6-2.7-0.9l0.2-0.3c0.4-0.7,1.9,0.5,3.1,1.1
					c1.2,0.6,1.6,0.2,1.2,1L72.4,74c-0.2,0.3-0.5,0.3-0.8,0.2l1.7-2.8C73.7,70.5,73.2,70.9,72.2,70.4z"/>
			</g>
			<g id="XMLID_17402_">
				<path id="XMLID_17405_" fill="#B26028" d="M69.3,68.2c1.2,0.6,1.6,0.2,1.2,1l-1.9,3.2c-0.4,0.7-1.9-0.5-3.1-1.1
					c-1.2-0.6-1.6-0.2-1.2-1l1.9-3.2C66.6,66.4,68.1,67.6,69.3,68.2z"/>
				<path id="XMLID_17404_" opacity="0.2" fill="#272525" d="M65.8,70.9c1.2,0.6,2.7,1.8,3.1,1.1l-0.3,0.5c-0.4,0.7-1.9-0.5-3.1-1.1
					c-1.2-0.6-1.6-0.2-1.2-1l0.3-0.5C64.1,70.6,64.6,70.3,65.8,70.9z"/>
				<path id="XMLID_17403_" opacity="0.1" fill="#272525" d="M68.7,68.3c-1-0.5-2.3-1.6-2.7-0.9l0.2-0.3c0.4-0.7,1.9,0.5,3.1,1.1
					s1.6,0.2,1.2,1l-1.6,2.8c-0.2,0.3-0.5,0.3-0.8,0.2l1.7-2.8C70.2,68.5,69.8,68.8,68.7,68.3z"/>
			</g>
			<g id="XMLID_17353_">
				<path id="XMLID_17401_" fill="#B26028" d="M65.8,66.1c1.2,0.6,1.6,0.2,1.2,1l-1.9,3.2c-0.4,0.7-1.9-0.5-3.1-1.1s-1.6-0.2-1.2-1
					l1.9-3.2C63.1,64.3,64.6,65.6,65.8,66.1z"/>
				<path id="XMLID_17367_" opacity="0.2" fill="#272525" d="M62.3,68.8c1.2,0.6,2.7,1.8,3.1,1.1l-0.3,0.5c-0.4,0.7-1.9-0.5-3.1-1.1
					s-1.6-0.2-1.2-1l0.3-0.5C60.6,68.6,61.1,68.3,62.3,68.8z"/>
				<path id="XMLID_17366_" opacity="0.1" fill="#272525" d="M65.2,66.3c-1-0.5-2.3-1.6-2.7-0.9l0.2-0.3c0.4-0.7,1.9,0.5,3.1,1.1
					s1.6,0.2,1.2,1l-1.6,2.8c-0.2,0.3-0.5,0.3-0.8,0.2l1.7-2.8C66.7,66.4,66.3,66.8,65.2,66.3z"/>
			</g>
		</g>
		<g id="XMLID_17315_">
			<g id="XMLID_17333_">
				<g id="XMLID_17346_">
					<path id="XMLID_17350_" fill="#B26028" d="M78.2,68.9c1.2,0.6,1.6,0.2,1.2,1l-1.9,3.2c-0.4,0.7-1.9-0.5-3.1-1.1s-1.6-0.2-1.2-1
						l1.9-3.2C75.6,67.1,77,68.4,78.2,68.9z"/>
					<path id="XMLID_17349_" opacity="0.2" fill="#272525" d="M74.7,71.6c1.2,0.6,2.7,1.8,3.1,1.1l-0.3,0.5
						c-0.4,0.7-1.9-0.5-3.1-1.1s-1.6-0.2-1.2-1l0.3-0.5C73.1,71.4,73.5,71,74.7,71.6z"/>
					<path id="XMLID_17347_" opacity="0.1" fill="#272525" d="M77.6,69.1c-1-0.5-2.3-1.6-2.7-0.9l0.2-0.3c0.4-0.7,1.9,0.5,3.1,1.1
						s1.6,0.2,1.2,1l-1.6,2.8c-0.2,0.3-0.5,0.3-0.8,0.2l1.7-2.8C79.1,69.2,78.7,69.6,77.6,69.1z"/>
				</g>
				<g id="XMLID_17342_">
					<path id="XMLID_17345_" fill="#B26028" d="M74.7,66.9c1.2,0.6,1.6,0.2,1.2,1L74,71.1c-0.4,0.7-1.9-0.5-3.1-1.1
						c-1.2-0.6-1.6-0.2-1.2-1l1.9-3.2C72.1,65.1,73.5,66.3,74.7,66.9z"/>
					<path id="XMLID_17344_" opacity="0.2" fill="#272525" d="M71.2,69.6c1.2,0.6,2.7,1.8,3.1,1.1L74,71.1c-0.4,0.7-1.9-0.5-3.1-1.1
						c-1.2-0.6-1.6-0.2-1.2-1l0.3-0.5C69.6,69.3,70,69,71.2,69.6z"/>
					<path id="XMLID_17343_" opacity="0.1" fill="#272525" d="M74.1,67c-1-0.5-2.3-1.6-2.7-0.9l0.2-0.3c0.4-0.7,1.9,0.5,3.1,1.1
						c1.2,0.6,1.6,0.2,1.2,1l-1.6,2.8c-0.2,0.3-0.5,0.3-0.8,0.2l1.7-2.8C75.6,67.2,75.2,67.5,74.1,67z"/>
				</g>
				<g id="XMLID_17338_">
					<path id="XMLID_17341_" fill="#B26028" d="M71.2,64.8c1.2,0.6,1.6,0.2,1.2,1L70.5,69c-0.4,0.7-1.9-0.5-3.1-1.1
						c-1.2-0.6-1.6-0.2-1.2-1l1.9-3.2C68.6,63,70,64.3,71.2,64.8z"/>
					<path id="XMLID_17340_" opacity="0.2" fill="#272525" d="M67.7,67.5c1.2,0.6,2.7,1.8,3.1,1.1L70.5,69c-0.4,0.7-1.9-0.5-3.1-1.1
						c-1.2-0.6-1.6-0.2-1.2-1l0.3-0.5C66.1,67.3,66.5,67,67.7,67.5z"/>
					<path id="XMLID_17339_" opacity="0.1" fill="#272525" d="M70.6,65c-1-0.5-2.3-1.6-2.7-0.9l0.2-0.3c0.4-0.7,1.9,0.5,3.1,1.1
						c1.2,0.6,1.6,0.2,1.2,1l-1.6,2.8c-0.2,0.3-0.5,0.3-0.8,0.2l1.7-2.8C72.1,65.1,71.7,65.5,70.6,65z"/>
				</g>
				<g id="XMLID_17334_">
					<path id="XMLID_17337_" fill="#B26028" d="M67.7,62.8c1.2,0.6,1.6,0.2,1.2,1L67,67c-0.4,0.7-1.9-0.5-3.1-1.1
						c-1.2-0.6-1.6-0.2-1.2-1l1.9-3.2C65.1,61,66.5,62.2,67.7,62.8z"/>
					<path id="XMLID_17336_" opacity="0.2" fill="#272525" d="M64.2,65.5c1.2,0.6,2.7,1.8,3.1,1.1L67,67c-0.4,0.7-1.9-0.5-3.1-1.1
						c-1.2-0.6-1.6-0.2-1.2-1l0.3-0.5C62.6,65.3,63,64.9,64.2,65.5z"/>
					<path id="XMLID_17335_" opacity="0.1" fill="#272525" d="M67.1,63c-1-0.5-2.3-1.6-2.7-0.9l0.2-0.3c0.4-0.7,1.9,0.5,3.1,1.1
						s1.6,0.2,1.2,1l-1.6,2.8c-0.2,0.3-0.5,0.3-0.8,0.2l1.7-2.8C68.6,63.1,68.2,63.4,67.1,63z"/>
				</g>
			</g>
			<g id="XMLID_17316_">
				<g id="XMLID_17329_">
					<path id="XMLID_17332_" fill="#B26028" d="M80.1,65.6c1.2,0.6,1.6,0.2,1.2,1l-1.9,3.2c-0.4,0.7-1.9-0.5-3.1-1.1s-1.6-0.2-1.2-1
						l1.9-3.2C77.5,63.8,79,65,80.1,65.6z"/>
					<path id="XMLID_17331_" opacity="0.2" fill="#272525" d="M76.6,68.3c1.2,0.6,2.7,1.8,3.1,1.1l-0.3,0.5
						c-0.4,0.7-1.9-0.5-3.1-1.1s-1.6-0.2-1.2-1l0.3-0.5C75,68,75.4,67.7,76.6,68.3z"/>
					<path id="XMLID_17330_" opacity="0.1" fill="#272525" d="M79.6,65.7c-1-0.5-2.3-1.6-2.7-0.9l0.2-0.3c0.4-0.7,1.9,0.5,3.1,1.1
						s1.6,0.2,1.2,1l-1.6,2.8c-0.2,0.3-0.5,0.3-0.8,0.2l1.7-2.8C81,65.9,80.6,66.2,79.6,65.7z"/>
				</g>
				<g id="XMLID_17325_">
					<path id="XMLID_17328_" fill="#B26028" d="M76.7,63.5c1.2,0.6,1.6,0.2,1.2,1L76,67.7c-0.4,0.7-1.9-0.5-3.1-1.1s-1.6-0.2-1.2-1
						l1.9-3.2C74,61.7,75.5,63,76.7,63.5z"/>
					<path id="XMLID_17327_" opacity="0.2" fill="#272525" d="M73.1,66.2c1.2,0.6,2.7,1.8,3.1,1.1L76,67.7c-0.4,0.7-1.9-0.5-3.1-1.1
						s-1.6-0.2-1.2-1l0.3-0.5C71.5,66,71.9,65.7,73.1,66.2z"/>
					<path id="XMLID_17326_" opacity="0.1" fill="#272525" d="M76.1,63.7c-1-0.5-2.3-1.6-2.7-0.9l0.2-0.3c0.4-0.7,1.9,0.5,3.1,1.1
						c1.2,0.6,1.6,0.2,1.2,1l-1.6,2.8c-0.2,0.3-0.5,0.3-0.8,0.2l1.7-2.8C77.5,63.8,77.1,64.2,76.1,63.7z"/>
				</g>
				<g id="XMLID_17321_">
					<path id="XMLID_17324_" fill="#B26028" d="M73.2,61.5c1.2,0.6,1.6,0.2,1.2,1l-1.9,3.2c-0.4,0.7-1.9-0.5-3.1-1.1
						c-1.2-0.6-1.6-0.2-1.2-1l1.9-3.2C70.5,59.7,72,60.9,73.2,61.5z"/>
					<path id="XMLID_17323_" opacity="0.2" fill="#272525" d="M69.6,64.2c1.2,0.6,2.7,1.8,3.1,1.1l-0.3,0.5
						c-0.4,0.7-1.9-0.5-3.1-1.1c-1.2-0.6-1.6-0.2-1.2-1l0.3-0.5C68,63.9,68.4,63.6,69.6,64.2z"/>
					<path id="XMLID_17322_" opacity="0.1" fill="#272525" d="M72.6,61.6c-1-0.5-2.3-1.6-2.7-0.9l0.2-0.3c0.4-0.7,1.9,0.5,3.1,1.1
						c1.2,0.6,1.6,0.2,1.2,1l-1.6,2.8c-0.2,0.3-0.5,0.3-0.8,0.2l1.7-2.8C74,61.8,73.6,62.1,72.6,61.6z"/>
				</g>
				<g id="XMLID_17317_">
					<path id="XMLID_17320_" fill="#B26028" d="M69.7,59.5c1.2,0.6,1.6,0.2,1.2,1L69,63.7c-0.4,0.7-1.9-0.5-3.1-1.1
						c-1.2-0.6-1.6-0.2-1.2-1l1.9-3.2C67,57.7,68.5,58.9,69.7,59.5z"/>
					<path id="XMLID_17319_" opacity="0.2" fill="#272525" d="M66.1,62.1c1.2,0.6,2.7,1.8,3.1,1.1L69,63.7c-0.4,0.7-1.9-0.5-3.1-1.1
						c-1.2-0.6-1.6-0.2-1.2-1l0.3-0.5C64.5,61.9,64.9,61.6,66.1,62.1z"/>
					<path id="XMLID_17318_" opacity="0.1" fill="#272525" d="M69.1,59.6c-1-0.5-2.3-1.6-2.7-0.9l0.2-0.3c0.4-0.7,1.9,0.5,3.1,1.1
						c1.2,0.6,1.6,0.2,1.2,1l-1.6,2.8c-0.2,0.3-0.5,0.3-0.8,0.2l1.7-2.8C70.5,59.8,70.1,60.1,69.1,59.6z"/>
				</g>
			</g>
		</g>
	</g>
	<g id="XMLID_17207_">
		<g id="XMLID_17222_">
			<g id="XMLID_17224_">
				<g id="XMLID_17226_">
					<defs>
						<polygon id="XMLID_17227_" points="89.1,47.8 89.1,47.8 89.1,47.8 84,44.9 84,53.2 89.1,56.1 94.2,53.2 94.2,44.9 						"/>
					</defs>
					<clipPath id="XMLID_4_">
						<use xlink:href="#XMLID_17227_"  overflow="visible"/>
					</clipPath>
					<g id="XMLID_17228_" clip-path="url(#XMLID_4_)">
						<g id="XMLID_17271_">
							<g id="XMLID_17274_">
								<polygon id="XMLID_17313_" fill="#C8C8C8" points="78.9,50.6 89.1,56.5 89.1,44.3 78.9,38.4 								"/>
								<g id="XMLID_17275_" opacity="0.3">
									<path id="XMLID_17299_" fill="#FFFFFF" d="M81.8,49.9l0,1.4l-2.9-1.7v-1.4L81.8,49.9z M82.3,51.6v-1.4l2.9,1.7l0,1.4
										L82.3,51.6z M85.2,47.9l0,1.4l-2.9-1.7v-1.4L85.2,47.9z M84,46.7v-1.4l2.9,1.7v1.4L84,46.7z M83.5,46.5l-2.9-1.7v-1.4
										l2.9,1.7L83.5,46.5z M83.5,48.9l0,1.4l-2.9-1.7v-1.4L83.5,48.9z M86.9,50.9v1.4L84,50.6v-1.4L86.9,50.9z M81.8,46l0,1.4
										l-2.9-1.7v-1.4L81.8,46z M81.8,42.1l0,1.4l-2.9-1.7v-1.4L81.8,42.1z M85.2,44l0,1.4l-2.9-1.7v-1.4L85.2,44z M85.7,45.7
										v-1.4l2.9,1.7l0,1.4L85.7,45.7z M85.7,49.6v-1.4l2.9,1.7l0,1.4L85.7,49.6z M85.7,53.5v-1.4l2.9,1.7l0,1.4L85.7,53.5z"/>
									<polygon id="XMLID_17298_" points="80.6,39.4 81.4,39.9 80.6,39.4 									"/>
									<polygon id="XMLID_17297_" points="84,41.4 84,41.4 84,41.4 									"/>
									<polygon id="XMLID_17296_" points="80.1,39.1 80.1,40.6 78.9,39.9 78.9,38.4 									"/>
									<polygon id="XMLID_17295_" points="83.5,42.5 80.6,40.9 80.6,39.4 81.4,39.9 83.5,41.1 									"/>
									<polygon id="XMLID_17294_" points="86.9,44.5 84,42.8 84,41.4 84,41.4 86.9,43.1 									"/>
									<polygon id="XMLID_17293_" points="87.4,44.8 87.4,43.3 89.1,44.3 89.1,45.7 									"/>
									<polygon id="XMLID_17292_" points="87.4,52.6 87.4,51.2 89.1,52.1 89.1,53.6 									"/>
									<polygon id="XMLID_17291_" points="87.4,48.7 87.4,47.2 89.1,48.2 89.1,49.6 									"/>
									<polygon id="XMLID_17290_" points="85.7,48.2 88.6,49.9 88.6,51.3 85.7,49.6 									"/>
									<polygon id="XMLID_17289_" points="85.7,52.1 88.6,53.8 88.6,55.2 85.7,53.5 									"/>
									<polygon id="XMLID_17288_" points="82.3,43.8 82.3,42.4 85.2,44 85.2,45.5 									"/>
									<polygon id="XMLID_17287_" points="85.7,44.3 88.6,46 88.6,47.4 85.7,45.7 									"/>
									<polygon id="XMLID_17286_" points="78.9,41.8 78.9,40.4 81.8,42.1 81.8,43.5 									"/>
									<polygon id="XMLID_17285_" points="86.9,47 86.9,48.4 84,46.7 84,45.3 									"/>
									<polygon id="XMLID_17284_" points="82.3,47.7 82.3,46.3 85.2,47.9 85.2,49.4 									"/>
									<polygon id="XMLID_17283_" points="82.3,50.2 85.2,51.8 85.2,53.3 82.3,51.6 									"/>
									<polygon id="XMLID_17282_" points="86.9,52.3 84,50.6 84,49.2 86.9,50.9 									"/>
									<polygon id="XMLID_17281_" points="80.1,48.4 78.9,47.7 78.9,46.3 80.1,47 									"/>
									<polygon id="XMLID_17280_" points="81.8,51.3 78.9,49.6 78.9,48.2 81.8,49.9 									"/>
									<polygon id="XMLID_17279_" points="80.1,44.5 78.9,43.8 78.9,42.4 80.1,43.1 									"/>
									<polygon id="XMLID_17278_" points="81.8,47.4 78.9,45.7 78.9,44.3 81.8,46 									"/>
									<polygon id="XMLID_17277_" points="83.5,50.4 80.6,48.7 80.6,47.3 83.5,48.9 									"/>
									<polygon id="XMLID_17276_" points="80.6,43.3 83.5,45 83.5,46.5 80.6,44.8 									"/>
								</g>
							</g>
							<line id="XMLID_17273_" fill="#C8C8C8" x1="78.9" y1="38.4" x2="89.1" y2="44.3"/>
							<polygon id="XMLID_17272_" opacity="0.5" fill="#E08F58" points="78.9,50.6 89.1,56.5 89.1,44.3 78.9,38.4 							"/>
						</g>
						<g id="XMLID_17229_">
							<g id="XMLID_17231_">
								<polygon id="XMLID_17270_" fill="#C8C8C8" points="99.2,50.2 89.1,56.5 89.1,44.3 99.2,38.4 								"/>
								<g id="XMLID_17232_" opacity="0.3">
									<path id="XMLID_17256_" fill="#FFFFFF" d="M99.2,48.2v1.4l-2.9,1.7l0-1.4L99.2,48.2z M93,53.3l0-1.4l2.9-1.7v1.4L93,53.3z
										 M95.9,46.3v1.4L93,49.4l0-1.4L95.9,46.3z M91.3,48.4l0-1.4l2.9-1.7v1.4L91.3,48.4z M94.6,45l2.9-1.7v1.4l-2.9,1.7L94.6,45
										z M97.6,47.3v1.4l-2.9,1.7l0-1.4L97.6,47.3z M94.2,49.2v1.4l-2.9,1.7l0-1.4L94.2,49.2z M99.2,44.3v1.4l-2.9,1.7l0-1.4
										L99.2,44.3z M99.2,40.4v1.4l-2.9,1.7l0-1.4L99.2,40.4z M95.9,42.4v1.4L93,45.5l0-1.4L95.9,42.4z M89.6,47.4l0-1.4l2.9-1.7
										v1.4L89.6,47.4z M89.6,51.3l0-1.4l2.9-1.7v1.4L89.6,51.3z M89.6,55.2l0-1.4l2.9-1.7v1.4L89.6,55.2z"/>
									<polygon id="XMLID_17255_" points="97.6,39.4 96.8,39.9 97.6,39.4 									"/>
									<polygon id="XMLID_17254_" points="94.2,41.4 94.1,41.4 94.2,41.4 									"/>
									<polygon id="XMLID_17253_" points="98,39.1 98,40.6 99.2,39.9 99.2,38.4 									"/>
									<polygon id="XMLID_17252_" points="94.6,42.5 97.6,40.9 97.6,39.4 96.8,39.9 94.6,41.1 									"/>
									<polygon id="XMLID_17251_" points="91.3,44.5 94.2,42.8 94.2,41.4 94.1,41.4 91.3,43.1 									"/>
									<polygon id="XMLID_17250_" points="90.8,44.8 90.8,43.3 89.1,44.3 89.1,45.7 									"/>
									<polygon id="XMLID_17249_" points="90.8,52.6 90.8,51.2 89.1,52.1 89.1,53.6 									"/>
									<polygon id="XMLID_17248_" points="90.8,48.7 90.8,47.2 89.1,48.2 89.1,49.6 									"/>
									<polygon id="XMLID_17247_" points="92.5,48.2 89.6,49.9 89.6,51.3 92.5,49.6 									"/>
									<polygon id="XMLID_17246_" points="92.5,52.1 89.6,53.8 89.6,55.2 92.5,53.5 									"/>
									<polygon id="XMLID_17245_" points="95.9,43.8 95.9,42.4 93,44 93,45.5 									"/>
									<polygon id="XMLID_17244_" points="92.5,44.3 89.6,46 89.6,47.4 92.5,45.7 									"/>
									<polygon id="XMLID_17243_" points="99.2,41.8 99.2,40.4 96.3,42.1 96.3,43.5 									"/>
									<polygon id="XMLID_17242_" points="91.3,47 91.3,48.4 94.2,46.7 94.2,45.3 									"/>
									<polygon id="XMLID_17241_" points="95.9,47.7 95.9,46.3 93,47.9 93,49.4 									"/>
									<polygon id="XMLID_17240_" points="95.9,50.2 93,51.8 93,53.3 95.9,51.6 									"/>
									<polygon id="XMLID_17239_" points="91.3,52.3 94.2,50.6 94.2,49.2 91.3,50.9 									"/>
									<polygon id="XMLID_17238_" points="98,48.4 99.3,47.7 99.3,46.3 98,47 									"/>
									<polygon id="XMLID_17237_" points="96.3,51.3 99.2,49.6 99.2,48.2 96.3,49.9 									"/>
									<polygon id="XMLID_17236_" points="98,44.5 99.3,43.8 99.3,42.4 98,43.1 									"/>
									<polygon id="XMLID_17235_" points="96.3,47.4 99.2,45.7 99.2,44.3 96.3,46 									"/>
									<polygon id="XMLID_17234_" points="94.6,50.4 97.6,48.7 97.6,47.3 94.6,48.9 									"/>
									<polygon id="XMLID_17233_" points="97.6,43.3 94.6,45 94.6,46.5 97.6,44.8 									"/>
								</g>
							</g>
							<polygon id="XMLID_17230_" opacity="0.5" fill="#93430C" points="99.2,50.2 89.1,56.5 89.1,44.3 99.2,38.4 							"/>
						</g>
					</g>
				</g>
				<polygon id="XMLID_17225_" fill="#FFCFAE" points="94.2,44.9 89.1,41.9 84,44.9 84,44.9 84,44.9 89.1,47.8 94.2,44.9 94.2,44.9 
									"/>
			</g>
			<polygon id="XMLID_17223_" opacity="0.8" points="92.4,44.8 89.1,42.9 85.8,44.8 85.8,44.8 85.8,44.8 89.1,46.7 92.4,44.8 
				92.4,44.8 			"/>
		</g>
		<polygon id="XMLID_17208_" opacity="0.2" fill="#272525" points="89.1,56.1 84,53.2 84.6,57.2 89.8,60.2 94.8,57.3 94.2,53.2 		
			"/>
	</g>
</g>
</svg>
