<?xml version="1.0" encoding="utf-8"?>
<!-- Generator: Adobe Illustrator 16.0.0, SVG Export Plug-In . SVG Version: 6.00 Build 0)  -->
<!DOCTYPE svg PUBLIC "-//W3C//DTD SVG 1.1//EN" "http://www.w3.org/Graphics/SVG/1.1/DTD/svg11.dtd">
<svg version="1.1" id="Layer_1" xmlns="http://www.w3.org/2000/svg" xmlns:xlink="http://www.w3.org/1999/xlink" x="0px" y="0px"
	 width="164px" height="164px" viewBox="0 0 164 164" enable-background="new 0 0 164 164" xml:space="preserve">
<g id="XMLID_18248_">
	<g id="XMLID_18252_">
		<polygon id="XMLID_18279_" fill="#848484" points="71.9,62.4 73,62.9 73.6,61.8 72.5,61.3 		"/>
		<path id="XMLID_18278_" opacity="0.3" d="M77.7,55.1l-11.7-6.4c-0.1-0.1-0.2,0-0.3,0.1l-0.3,0.5l0.3,0.2l0,0l-3.3,5.7l-0.3-0.2
			l-0.3,0.5c0,0.1,0,0.2,0.1,0.3l11.7,6.4c0.1,0.1,0.2,0,0.3-0.1l0.3-0.5l-0.3-0.2l3.3-5.7l0.3,0.2l0.3-0.5
			C77.9,55.3,77.8,55.1,77.7,55.1z"/>
		<polygon id="XMLID_18277_" fill="#002947" points="62.2,54.6 65.6,48.8 77,54.8 77,55.1 73.6,60.8 62.8,55.3 		"/>
		<g id="XMLID_18258_">
			<g id="XMLID_18259_">
				<polygon id="XMLID_18276_" fill="#001B24" points="77,55.1 76.6,54.9 73.2,60.6 73.6,60.8 				"/>
				<g id="XMLID_18260_">
					<polygon id="XMLID_18275_" fill="#001B24" points="67.2,49.7 66.8,49.5 63.5,55.2 64.3,55.7 64.3,55.7 63.9,55.4 					"/>
					<polygon id="XMLID_18274_" fill="#001B24" points="69.6,51.1 69.2,50.9 65.9,56.6 66.7,57 66.7,57 66.3,56.8 					"/>
					<polygon id="XMLID_18273_" fill="#001B24" points="72.1,52.4 71.7,52.2 68.3,57.9 69.2,58.4 69.2,58.4 68.8,58.1 					"/>
					<polygon id="XMLID_18272_" fill="#001B24" points="74.5,53.8 74.1,53.6 70.8,59.3 71.6,59.7 71.6,59.7 71.2,59.5 					"/>
					<polygon id="XMLID_18269_" fill="#001B24" points="66,49.1 62.6,54.8 63,55 66.4,49.3 					"/>
					<polygon id="XMLID_18268_" fill="#001B24" points="68,50.2 67.2,49.7 67.2,49.7 67.6,50 64.3,55.7 64.7,55.9 					"/>
					<polygon id="XMLID_18267_" fill="#001B24" points="68.4,50.4 65.1,56.1 65.5,56.3 68.8,50.6 					"/>
					<polygon id="XMLID_18266_" fill="#001B24" points="70.4,51.5 69.6,51.1 69.6,51.1 70,51.3 66.7,57 67.1,57.2 					"/>
					<polygon id="XMLID_18265_" fill="#001B24" points="70.9,51.8 67.5,57.5 67.9,57.7 71.3,52 					"/>
					<polygon id="XMLID_18264_" fill="#001B24" points="72.9,52.9 72.1,52.4 72.1,52.4 72.5,52.7 69.2,58.4 69.6,58.6 					"/>
					<polygon id="XMLID_18263_" fill="#001B24" points="73.3,53.1 70,58.8 70.4,59 73.7,53.3 					"/>
					<polygon id="XMLID_18262_" fill="#001B24" points="75.3,54.2 74.5,53.8 74.5,53.8 74.9,54 71.6,59.7 72,59.9 					"/>
					<polygon id="XMLID_18261_" fill="#001B24" points="75.7,54.5 72.4,60.2 72.8,60.4 76.2,54.7 					"/>
				</g>
			</g>
		</g>
		<path id="XMLID_18257_" fill="#001B24" d="M61.6,54.9c0,0.1,0,0.2,0.1,0.3l11.7,6.4c0.1,0.1,0.2,0,0.3-0.1L74,61l-12.1-6.6
			L61.6,54.9z"/>
		<path id="XMLID_18256_" fill="#001B24" d="M77.6,54.8c0.1-0.1,0-0.2-0.1-0.3l-11.7-6.4c-0.1-0.1-0.2,0-0.3,0.1l-0.3,0.5l12,6.6
			L77.6,54.8z"/>
		<polygon id="XMLID_18255_" opacity="0.2" points="73,62 73.2,62.5 73,62.9 72.7,62.7 72.5,62.1 		"/>
		<path id="XMLID_18254_" fill="#001B24" d="M73.1,61.1l-0.4-0.2l-0.4,0.7c0,0.1,0,0.1,0,0.2h0v0l0.1,0.2c0,0.1,0.1,0.2,0.3,0.2
			c0.2,0,0.3-0.2,0.3-0.2l-0.2-0.4L73.1,61.1z"/>
		<path id="XMLID_18253_" opacity="0.2" d="M72.3,61.8l0.1,0.2c0,0.1,0.1,0.2,0.3,0.2c0.2,0,0.3-0.2,0.3-0.2l-0.2-0.4
			C72.8,61.6,72.6,62,72.3,61.8L72.3,61.8L72.3,61.8z"/>
	</g>
	<polygon id="XMLID_18251_" opacity="4.000000e-002" fill="#FFFFFF" points="65.6,48.8 77,55.1 62.2,54.6 	"/>
</g>
</svg>
