<?xml version="1.0" encoding="utf-8"?>
<!-- Generator: Adobe Illustrator 16.0.0, SVG Export Plug-In . SVG Version: 6.00 Build 0)  -->
<!DOCTYPE svg PUBLIC "-//W3C//DTD SVG 1.1//EN" "http://www.w3.org/Graphics/SVG/1.1/DTD/svg11.dtd">
<svg version="1.1" id="Layer_1" xmlns="http://www.w3.org/2000/svg" xmlns:xlink="http://www.w3.org/1999/xlink" x="0px" y="0px"
	 width="164px" height="164px" viewBox="0 0 164 164" enable-background="new 0 0 164 164" xml:space="preserve">
<g id="XMLID_18374_">
	<path id="XMLID_18452_" opacity="0.2" d="M72.9,43.5l-6.3,3.6l2.3,1.4l0.4,1.1l2.9,1.8c0.1,0.1,0.9,0.5,1,0.5l6.5-3.7
		c0.1-0.1,0.2-0.2,0-0.3L72.9,43.5z"/>
	<g id="XMLID_18441_">
		<g id="XMLID_18447_">
			<polygon id="XMLID_18451_" fill="#66574C" points="68,46.2 68,46.2 67.5,45.9 67.5,47.6 67.5,47.6 68,47.9 			"/>
			<polygon id="XMLID_18450_" fill="#493E36" points="68,46.2 68,46.2 68.5,45.9 68.5,47.6 68.5,47.6 68,47.9 			"/>
			<polygon id="XMLID_18449_" fill="#AFA28B" points="68,46.2 68.5,45.9 68,45.6 67.5,45.9 68,46.2 68,46.2 68,46.2 68,46.2 			"/>
			<line id="XMLID_18448_" fill="#AFA28B" x1="68" y1="45.6" x2="67.5" y2="45.9"/>
		</g>
		<g id="XMLID_18442_">
			<polygon id="XMLID_18446_" fill="#66574C" points="72,49.5 72,49.5 71.5,49.2 71.5,50.9 71.5,50.9 72,51.2 			"/>
			<polygon id="XMLID_18445_" fill="#493E36" points="72,49.5 72,49.5 72.5,49.2 72.5,50.9 72.5,50.9 72,51.2 			"/>
			<polygon id="XMLID_18444_" fill="#AFA28B" points="72,49.5 72.5,49.2 72,48.9 71.5,49.2 72,49.5 72,49.5 72,49.5 72,49.5 			"/>
			<line id="XMLID_18443_" fill="#AFA28B" x1="72" y1="48.9" x2="71.5" y2="49.2"/>
		</g>
	</g>
	<g id="XMLID_18417_">
		<g id="XMLID_18421_">
			<path id="XMLID_18440_" fill="#FFFFFF" d="M73.3,51.8l6.4-3.6c0.1-0.1,0.2-0.2,0.1-0.3l-6.4-6.7c-0.1-0.1-0.3-0.1-0.4,0l-6.4,3.6
				c-0.1,0.1-0.1,0.2-0.1,0.3l6.3,6.7C73,51.9,73.2,51.9,73.3,51.8z"/>
			<path id="XMLID_18439_" fill="#CECECE" d="M73.3,51.8l6.4-3.6c0.1-0.1,0.2-0.2,0.1-0.3l-6.4-6.7c-0.1-0.1-0.3-0.1-0.4,0l-6.4,3.6
				c-0.1,0.1-0.1,0.2-0.1,0.3l6.3,6.7C73,51.9,73.2,51.9,73.3,51.8z"/>
			<path id="XMLID_18438_" fill="#003B70" stroke="#9CDDF7" stroke-width="0.2" stroke-miterlimit="10" d="M72.6,41.5l-1.1,0.6
				c-0.3,0.2-0.4,0.5-0.2,0.7l1.4,1.5c0.2,0.2,0.6,0.3,1,0.1l1.1-0.6c0.3-0.2,0.4-0.5,0.2-0.7l-1.4-1.5
				C73.4,41.4,72.9,41.4,72.6,41.5z"/>
			<path id="XMLID_18437_" fill="#003B70" stroke="#9CDDF7" stroke-width="0.2" stroke-miterlimit="10" d="M70.4,42.8l-1.1,0.6
				c-0.3,0.2-0.4,0.5-0.2,0.7l1.4,1.5c0.2,0.2,0.6,0.3,0.9,0.1l1.1-0.6c0.3-0.2,0.4-0.5,0.2-0.7l-1.4-1.5
				C71.2,42.7,70.8,42.6,70.4,42.8z"/>
			<path id="XMLID_18436_" fill="#003B70" stroke="#9CDDF7" stroke-width="0.2" stroke-miterlimit="10" d="M68.3,44l-1,0.6
				c-0.3,0.2-0.4,0.5-0.1,0.7l1.4,1.5c0.2,0.2,0.6,0.3,0.9,0.1l1-0.6c0.3-0.2,0.4-0.5,0.2-0.7l-1.4-1.5C69,43.9,68.6,43.8,68.3,44z"
				/>
			<path id="XMLID_18435_" fill="#003B70" stroke="#9CDDF7" stroke-width="0.2" stroke-miterlimit="10" d="M74.9,43.9l-1.1,0.6
				c-0.3,0.2-0.4,0.5-0.2,0.7l1.4,1.5c0.2,0.2,0.6,0.3,0.9,0.1l1.1-0.6c0.3-0.2,0.4-0.5,0.2-0.7L75.8,44
				C75.6,43.7,75.2,43.7,74.9,43.9z"/>
			<path id="XMLID_18434_" fill="#003B70" stroke="#9CDDF7" stroke-width="0.2" stroke-miterlimit="10" d="M72.7,45.1l-1.1,0.6
				c-0.3,0.2-0.4,0.5-0.2,0.7l1.4,1.5c0.2,0.2,0.6,0.3,0.9,0.1l1.1-0.6c0.3-0.2,0.4-0.5,0.2-0.7l-1.4-1.5C73.4,45,73,44.9,72.7,45.1
				z"/>
			<path id="XMLID_18433_" fill="#003B70" stroke="#9CDDF7" stroke-width="0.2" stroke-miterlimit="10" d="M70.5,46.3l-1,0.6
				c-0.3,0.2-0.4,0.5-0.2,0.7l1.4,1.5c0.2,0.2,0.6,0.3,0.9,0.1l1-0.6c0.3-0.2,0.4-0.5,0.2-0.7l-1.4-1.5
				C71.2,46.2,70.8,46.2,70.5,46.3z"/>
			<path id="XMLID_18432_" fill="#003B70" stroke="#9CDDF7" stroke-width="0.2" stroke-miterlimit="10" d="M77,46.1l-1.1,0.6
				c-0.3,0.2-0.4,0.5-0.2,0.7l1.4,1.4c0.2,0.2,0.6,0.3,0.9,0.1l1.1-0.6c0.3-0.2,0.4-0.5,0.2-0.7L78,46.2C77.7,46,77.3,46,77,46.1z"
				/>
			<path id="XMLID_18431_" fill="#003B70" stroke="#9CDDF7" stroke-width="0.2" stroke-miterlimit="10" d="M74.8,47.4L73.8,48
				c-0.3,0.2-0.4,0.5-0.2,0.7l1.4,1.4c0.2,0.2,0.6,0.3,0.9,0.1l1.1-0.6c0.3-0.2,0.4-0.5,0.2-0.7l-1.4-1.4
				C75.5,47.2,75.1,47.2,74.8,47.4z"/>
			<path id="XMLID_18430_" fill="#003B70" stroke="#9CDDF7" stroke-width="0.2" stroke-miterlimit="10" d="M72.7,48.6l-1,0.6
				c-0.3,0.2-0.4,0.5-0.2,0.7l1.4,1.4c0.2,0.2,0.6,0.3,0.9,0.1l1-0.6c0.3-0.2,0.4-0.5,0.2-0.7l-1.4-1.4C73.4,48.5,73,48.4,72.7,48.6
				z"/>
			
				<line id="XMLID_18429_" opacity="0.5" fill="none" stroke="#9CDDF7" stroke-width="0.2" stroke-miterlimit="10" x1="79.3" y1="47.6" x2="72.9" y2="51.3"/>
			
				<line id="XMLID_18428_" opacity="0.5" fill="none" stroke="#9CDDF7" stroke-width="0.2" stroke-miterlimit="10" x1="70.4" y1="42.8" x2="76.9" y2="49.6"/>
			
				<line id="XMLID_18427_" opacity="0.5" fill="none" stroke="#9CDDF7" stroke-width="0.2" stroke-miterlimit="10" x1="71.6" y1="42.1" x2="78" y2="49"/>
			
				<line id="XMLID_18426_" opacity="0.5" fill="none" stroke="#9CDDF7" stroke-width="0.2" stroke-miterlimit="10" x1="68.3" y1="44" x2="74.8" y2="50.8"/>
			
				<line id="XMLID_18425_" opacity="0.5" fill="none" stroke="#9CDDF7" stroke-width="0.2" stroke-miterlimit="10" x1="69.4" y1="43.4" x2="75.9" y2="50.2"/>
			
				<line id="XMLID_18424_" opacity="0.5" fill="none" stroke="#9CDDF7" stroke-width="0.2" stroke-miterlimit="10" x1="72.6" y1="41.5" x2="79.1" y2="48.4"/>
			<polyline id="XMLID_18423_" opacity="0.5" fill="none" stroke="#9CDDF7" stroke-width="0.2" stroke-miterlimit="10" points="
				69.4,47.6 75.8,44 77.2,45.4 70.8,49.1 			"/>
			<polyline id="XMLID_18422_" opacity="0.5" fill="none" stroke="#9CDDF7" stroke-width="0.2" stroke-miterlimit="10" points="
				67.2,45.3 73.6,41.6 75,43.1 68.6,46.8 			"/>
		</g>
		
			<line id="XMLID_18420_" opacity="0.5" fill="none" stroke="#9CDDF7" stroke-width="0.2" stroke-miterlimit="10" x1="77.2" y1="45.4" x2="70.8" y2="49.1"/>
		
			<line id="XMLID_18419_" opacity="0.5" fill="none" stroke="#9CDDF7" stroke-width="0.2" stroke-miterlimit="10" x1="73.7" y1="51.4" x2="67.2" y2="44.6"/>
		
			<line id="XMLID_18418_" opacity="0.5" fill="none" stroke="#9CDDF7" stroke-width="0.2" stroke-miterlimit="10" x1="77.9" y1="46.3" x2="71.4" y2="49.9"/>
	</g>
</g>
</svg>
