<?xml version="1.0" encoding="utf-8"?>
<!-- Generator: Adobe Illustrator 16.0.0, SVG Export Plug-In . SVG Version: 6.00 Build 0)  -->
<!DOCTYPE svg PUBLIC "-//W3C//DTD SVG 1.1//EN" "http://www.w3.org/Graphics/SVG/1.1/DTD/svg11.dtd">
<svg version="1.1" id="Layer_1" xmlns="http://www.w3.org/2000/svg" xmlns:xlink="http://www.w3.org/1999/xlink" x="0px" y="0px"
	 width="164px" height="164px" viewBox="0 0 164 164" enable-background="new 0 0 164 164" xml:space="preserve">
<g id="XMLID_18280_">
	<g id="XMLID_18284_">
		<path id="XMLID_18303_" fill="#FFFFFF" d="M77.7,53.8l-11.2-6.2c-0.2-0.1-0.3-0.4-0.2-0.6l8.4-14.5c0.1-0.2,0.4-0.3,0.6-0.1
			l11.2,6.2c0.2,0.1,0.3,0.4,0.2,0.6l-8.4,14.5C78.1,53.9,77.9,53.9,77.7,53.8z"/>
		<path id="XMLID_18302_" fill="#CECECE" d="M77.6,53.7l-11.2-6.2c-0.2-0.1-0.3-0.4-0.2-0.6l8.4-14.5c0.1-0.2,0.4-0.3,0.6-0.1
			l11.2,6.2c0.2,0.1,0.3,0.4,0.2,0.6l-8.4,14.5C78.1,53.8,77.8,53.9,77.6,53.7z"/>
		<path id="XMLID_18301_" fill="#003B70" stroke="#9CDDF7" stroke-width="0.2" stroke-miterlimit="10" d="M76,33.1l1.9,1
			c0.5,0.3,0.7,0.9,0.5,1.4l-1.9,3.2c-0.3,0.5-1,0.6-1.5,0.3l-1.9-1c-0.5-0.3-0.8-0.9-0.5-1.4l1.9-3.2C74.8,33,75.5,32.8,76,33.1z"
			/>
		<path id="XMLID_18300_" fill="#003B70" stroke="#9CDDF7" stroke-width="0.2" stroke-miterlimit="10" d="M79.9,35.2l1.8,1
			c0.5,0.3,0.7,0.9,0.4,1.4l-1.9,3.2c-0.3,0.5-1,0.6-1.5,0.3l-1.8-1c-0.5-0.3-0.8-0.9-0.5-1.4l1.9-3.2
			C78.6,35.1,79.3,34.9,79.9,35.2z"/>
		<path id="XMLID_18299_" fill="#003B70" stroke="#9CDDF7" stroke-width="0.2" stroke-miterlimit="10" d="M83.7,37.3l1.8,1
			c0.5,0.3,0.7,0.9,0.4,1.4L84,43c-0.3,0.5-0.9,0.6-1.5,0.3l-1.8-1c-0.5-0.3-0.7-0.9-0.5-1.4l1.9-3.2C82.4,37.2,83.1,37,83.7,37.3z"
			/>
		<path id="XMLID_18298_" fill="#003B70" stroke="#9CDDF7" stroke-width="0.2" stroke-miterlimit="10" d="M73.1,38.1l1.9,1
			c0.5,0.3,0.8,0.9,0.5,1.4l-1.8,3.1c-0.3,0.5-0.9,0.6-1.5,0.3l-1.9-1c-0.6-0.3-0.8-0.9-0.5-1.4l1.8-3.1
			C71.8,38,72.5,37.8,73.1,38.1z"/>
		<path id="XMLID_18297_" fill="#003B70" stroke="#9CDDF7" stroke-width="0.2" stroke-miterlimit="10" d="M76.9,40.2l1.8,1
			c0.5,0.3,0.7,0.9,0.5,1.4l-1.8,3.1c-0.3,0.5-0.9,0.6-1.5,0.3l-1.8-1c-0.5-0.3-0.8-0.9-0.5-1.4l1.8-3.1
			C75.7,40.1,76.4,39.9,76.9,40.2z"/>
		<path id="XMLID_18296_" fill="#003B70" stroke="#9CDDF7" stroke-width="0.2" stroke-miterlimit="10" d="M80.7,42.3l1.8,1
			c0.5,0.3,0.7,0.9,0.4,1.4l-1.8,3.2c-0.3,0.5-0.9,0.6-1.5,0.3l-1.8-1c-0.5-0.3-0.7-0.9-0.5-1.4l1.8-3.1
			C79.5,42.2,80.2,42,80.7,42.3z"/>
		<path id="XMLID_18295_" fill="#003B70" stroke="#9CDDF7" stroke-width="0.2" stroke-miterlimit="10" d="M70.2,43l1.9,1
			c0.5,0.3,0.8,0.9,0.5,1.4l-1.8,3.1c-0.3,0.5-0.9,0.6-1.5,0.3l-1.9-1c-0.6-0.3-0.8-0.9-0.5-1.4l1.8-3.1C69,42.8,69.7,42.7,70.2,43z
			"/>
		<path id="XMLID_18294_" fill="#003B70" stroke="#9CDDF7" stroke-width="0.2" stroke-miterlimit="10" d="M74,45.1l1.8,1
			c0.5,0.3,0.8,0.9,0.5,1.4l-1.8,3.1c-0.3,0.5-0.9,0.6-1.5,0.3l-1.9-1c-0.5-0.3-0.8-0.9-0.5-1.4l1.8-3.1
			C72.8,44.9,73.5,44.8,74,45.1z"/>
		<path id="XMLID_18293_" fill="#003B70" stroke="#9CDDF7" stroke-width="0.2" stroke-miterlimit="10" d="M77.8,47.2l1.8,1
			c0.5,0.3,0.7,0.9,0.5,1.4l-1.8,3.1c-0.3,0.5-0.9,0.6-1.4,0.3l-1.8-1c-0.5-0.3-0.8-0.9-0.5-1.4l1.8-3.1
			C76.6,47,77.3,46.9,77.8,47.2z"/>
		
			<line id="XMLID_18292_" opacity="0.5" fill="none" stroke="#9CDDF7" stroke-width="0.2" stroke-miterlimit="10" x1="66.9" y1="46.4" x2="78.2" y2="52.6"/>
		
			<line id="XMLID_18291_" opacity="0.5" fill="none" stroke="#9CDDF7" stroke-width="0.2" stroke-miterlimit="10" x1="79.9" y1="35.2" x2="71.3" y2="49.9"/>
		
			<line id="XMLID_18290_" opacity="0.5" fill="none" stroke="#9CDDF7" stroke-width="0.2" stroke-miterlimit="10" x1="77.9" y1="34.2" x2="69.3" y2="48.8"/>
		
			<line id="XMLID_18289_" opacity="0.5" fill="none" stroke="#9CDDF7" stroke-width="0.2" stroke-miterlimit="10" x1="83.7" y1="37.3" x2="75.1" y2="52"/>
		
			<line id="XMLID_18288_" opacity="0.5" fill="none" stroke="#9CDDF7" stroke-width="0.2" stroke-miterlimit="10" x1="81.7" y1="36.2" x2="73.1" y2="50.9"/>
		
			<line id="XMLID_18287_" opacity="0.5" fill="none" stroke="#9CDDF7" stroke-width="0.2" stroke-miterlimit="10" x1="76" y1="33.1" x2="67.4" y2="47.8"/>
		<polyline id="XMLID_18286_" opacity="0.5" fill="none" stroke="#9CDDF7" stroke-width="0.2" stroke-miterlimit="10" points="
			82.8,44.6 71.6,38.4 69.7,41.6 81,47.8 		"/>
		<polyline id="XMLID_18285_" opacity="0.5" fill="none" stroke="#9CDDF7" stroke-width="0.2" stroke-miterlimit="10" points="
			85.8,39.7 74.5,33.5 72.6,36.7 83.9,42.9 		"/>
	</g>
	
		<line id="XMLID_18283_" opacity="0.5" fill="none" stroke="#9CDDF7" stroke-width="0.2" stroke-miterlimit="10" x1="69.7" y1="41.6" x2="81" y2="47.8"/>
	
		<line id="XMLID_18282_" opacity="0.5" fill="none" stroke="#9CDDF7" stroke-width="0.2" stroke-miterlimit="10" x1="76.9" y1="53" x2="85.5" y2="38.3"/>
	
		<line id="XMLID_18281_" opacity="0.5" fill="none" stroke="#9CDDF7" stroke-width="0.2" stroke-miterlimit="10" x1="68.8" y1="43.4" x2="80.1" y2="49.6"/>
</g>
</svg>
