<?xml version="1.0" encoding="utf-8"?>
<!-- Generator: Adobe Illustrator 16.0.0, SVG Export Plug-In . SVG Version: 6.00 Build 0)  -->
<!DOCTYPE svg PUBLIC "-//W3C//DTD SVG 1.1//EN" "http://www.w3.org/Graphics/SVG/1.1/DTD/svg11.dtd">
<svg version="1.1" id="Layer_1" xmlns="http://www.w3.org/2000/svg" xmlns:xlink="http://www.w3.org/1999/xlink" x="0px" y="0px"
	 width="164px" height="164px" viewBox="0 0 164 164" enable-background="new 0 0 164 164" xml:space="preserve">
<g id="XMLID_18495_">
	<g id="XMLID_18504_">
		<g id="XMLID_18516_">
			<g id="XMLID_18522_">
				<g id="XMLID_18529_">
					<polygon fill="#D1BE6F" points="80.9,51.8 83.1,50.6 90.4,54.9 88.3,56.1 					"/>
					<path fill="#918243" d="M83.1,50.6l7.3,4.2L88.3,56L81,51.8L83.1,50.6 M83.1,50.6l-2.2,1.2l7.4,4.3l2.2-1.2L83.1,50.6
						L83.1,50.6z"/>
				</g>
				<polygon id="XMLID_18528_" fill="#D1BE6F" stroke="#918243" stroke-width="0.1" stroke-miterlimit="10" points="78.7,53.1 
					80.9,51.8 88.3,56.1 86.1,57.3 				"/>
				<g id="XMLID_18527_">
					<polygon fill="#D1BE6F" points="75.1,50.9 77.2,49.7 84.6,54 82.4,55.2 					"/>
					<path fill="#918243" d="M77.2,49.7l7.3,4.2l-2.1,1.2l-7.3-4.2L77.2,49.7 M77.2,49.7L75,50.9l7.4,4.3l2.2-1.2L77.2,49.7
						L77.2,49.7z"/>
				</g>
				<g id="XMLID_18526_">
					<polygon fill="#D1BE6F" points="82.4,55.2 84.6,54 91.9,58.2 89.8,59.4 					"/>
					<path fill="#918243" d="M84.6,54l7.3,4.2l-2.1,1.2l-7.3-4.2L84.6,54 M84.6,54l-2.2,1.2l7.4,4.3l2.2-1.2L84.6,54L84.6,54z"/>
				</g>
				<g id="XMLID_18525_">
					<polygon fill="#D1BE6F" points="88.3,56.1 90.4,54.9 97.8,59.1 95.7,60.3 					"/>
					<path fill="#918243" d="M90.4,54.9l7.3,4.2l-2.1,1.2l-7.3-4.2L90.4,54.9 M90.4,54.8l-2.2,1.2l7.4,4.3l2.2-1.2L90.4,54.8
						L90.4,54.8z"/>
				</g>
				<g id="XMLID_18524_">
					<polygon fill="#D1BE6F" points="76.6,54.3 78.7,53.1 86.1,57.3 83.9,58.5 					"/>
					<path fill="#918243" d="M78.7,53.1l7.3,4.2l-2.1,1.2l-7.3-4.2L78.7,53.1 M78.7,53.1l-2.2,1.2l7.4,4.3l2.2-1.2L78.7,53.1
						L78.7,53.1z"/>
				</g>
				<g id="XMLID_18523_">
					<polygon fill="#D1BE6F" points="84,58.6 86.1,57.3 93.5,61.6 91.3,62.8 					"/>
					<path fill="#918243" d="M86.1,57.4l7.3,4.2l-2.1,1.2L84,58.6L86.1,57.4 M86.1,57.3l-2.2,1.2l7.4,4.3l2.2-1.2L86.1,57.3
						L86.1,57.3z"/>
				</g>
			</g>
			<g id="XMLID_18521_">
				<polygon fill="#D1BE6F" points="89.8,59.4 92,58.2 95.6,60.4 93.5,61.6 				"/>
				<path fill="#918243" d="M92,58.3l3.6,2.1l-2.1,1.2l-3.6-2.1L92,58.3 M92,58.2l-2.2,1.2l3.7,2.1l2.2-1.2L92,58.2L92,58.2z"/>
			</g>
			<g id="XMLID_18520_">
				<polygon fill="#D1BE6F" points="72.9,52.2 75,51 78.7,53.1 76.6,54.3 				"/>
				<path fill="#918243" d="M75,51l3.6,2.1l-2.1,1.2L73,52.2L75,51 M75,50.9l-2.2,1.2l3.7,2.1l2.2-1.2L75,50.9L75,50.9z"/>
			</g>
			<g id="XMLID_18519_">
				<polygon fill="#D1BE6F" points="77.2,49.7 79.4,48.5 83,50.6 80.9,51.8 				"/>
				<path fill="#918243" d="M79.4,48.5l3.6,2.1l-2.1,1.2l-3.6-2.1L79.4,48.5 M79.4,48.4l-2.1,1.3l3.7,2.1l2.2-1.2L79.4,48.4
					L79.4,48.4z"/>
			</g>
			<polygon id="XMLID_18518_" opacity="0.2" points="79.9,48.7 79.9,48.7 79.4,48.4 78.9,48.7 78.9,48.7 72.9,52.2 73.4,52.5 
				79.4,49 97.3,59.4 97.8,59.1 			"/>
			<polygon id="XMLID_18517_" opacity="0.2" points="79.4,49 79.4,48.4 72.9,52.2 73.4,52.5 			"/>
		</g>
		<polygon id="XMLID_18515_" fill="#2B2927" points="95.9,58 89.3,61.8 91.3,62.9 97.9,59.1 		"/>
		<path id="XMLID_18514_" opacity="0.8" fill="#1C1C1C" d="M77.2,46.3l-8,3.3c0.8,0.8,2.1,1.7,3.6,2.5l6.5-3.7
			C78.4,47.6,77.3,46.7,77.2,46.3z"/>
		<g id="XMLID_18506_">
			<path id="XMLID_18513_" fill="#3A3735" d="M76.8,43.8c-0.7-0.3-1.3-0.2-1.7,0.1l0,0l-6.2,3.4c0,0,0,0,0,0l0,0l0,0
				c-0.2,0.1-0.4,0.3-0.5,0.6c-0.2,0.7,0.4,1.6,1.4,2.1c0.6,0.3,1.3,0.3,1.7,0.1l0,0l5.8-3.3c0.3,0,0.6-0.2,0.7-0.4l0,0l0,0
				c0.1-0.1,0.1-0.2,0.1-0.3C78.3,45.2,77.7,44.2,76.8,43.8z"/>
			<path id="XMLID_18512_" opacity="0.2" fill="#FFFFFF" d="M71.8,49.4c-0.2,0.8-1.1,1-2.1,0.5c-1-0.5-1.6-1.4-1.4-2.1
				s1.1-1,2.1-0.6C71.4,47.7,72,48.7,71.8,49.4z"/>
			<path id="XMLID_18511_" opacity="0.1" fill="#FFFFFF" d="M70,47.1l6.3-3.5c-0.5-0.1-1-0.1-1.3,0.2l0,0l-6.2,3.4
				C69.2,47.1,69.6,47,70,47.1z"/>
			<path id="XMLID_18510_" fill="#2B2927" d="M78.2,45.6l-6.3,3.5c0,0.1,0,0.2,0,0.3c-0.1,0.2-0.2,0.4-0.4,0.6l0,0l5.9-3.2
				c0,0,0.5-0.3,0.7-0.6l0,0l0,0c0.1-0.1,0.1-0.2,0.1-0.3C78.1,45.8,78.2,45.7,78.2,45.6z"/>
			<path id="XMLID_18509_" opacity="0.4" fill="#3A3735" stroke="#FFFFFF" stroke-width="0.1" stroke-miterlimit="10" d="M71,49.2
				c-0.1,0.3-0.6,0.3-1,0.1c-0.4-0.2-0.7-0.7-0.6-0.9c0.1-0.3,0.6-0.3,1-0.1C70.9,48.5,71.1,48.9,71,49.2z"/>
			<path id="XMLID_18508_" opacity="0.2" fill="none" stroke="#FFFFFF" stroke-width="0.1" stroke-miterlimit="10" d="M71.4,49.6
				c-0.3,0.6-1.2,0.5-1.9,0c-0.7-0.5-1.1-1.4-0.8-1.9c0.3-0.5,1.2-0.5,1.9,0C71.4,48.2,71.8,49.1,71.4,49.6z"/>
			<path id="XMLID_18507_" opacity="0.2" fill="#3A3735" stroke="#FFFFFF" stroke-width="0.1" stroke-miterlimit="10" d="M71.2,49.4
				c-0.3,0.4-0.9,0.4-1.6-0.1c-0.6-0.4-0.9-1.1-0.7-1.5c0.2-0.4,0.9-0.4,1.6,0C71.2,48.3,71.5,49,71.2,49.4z"/>
		</g>
		<path id="XMLID_18505_" opacity="4.000000e-002" fill="#FFFFFF" d="M76.4,43.8c0,0,0.8,0.2,1,0.7c0,0-1.9,0.3-6.1,2.1L76.4,43.8z"
			/>
	</g>
	<g id="XMLID_18500_">
		<g id="XMLID_18503_">
			<polygon fill="#918243" points="89.3,58.1 89.2,57.8 97,51.5 97.1,51.9 91.8,58.5 			"/>
			<path fill="#918243" d="M97,51.6l0.1,0.3l-5.3,6.6l-2.4-0.4l-0.1-0.3L97,51.6 M97,51.5l-7.8,6.2l0.1,0.4l2.5,0.4l5.4-6.6L97,51.5
				L97,51.5z"/>
		</g>
		<g id="XMLID_18502_">
			<polygon fill="#D1BE6F" points="89.2,57.7 94.6,51.2 97,51.5 91.6,58.1 			"/>
			<path fill="#918243" d="M94.6,51.2l2.4,0.4l-5.3,6.5l-2.4-0.4L94.6,51.2 M94.5,51.1l-5.3,6.6l2.5,0.4l5.4-6.6L94.5,51.1
				L94.5,51.1z"/>
		</g>
		<polygon id="XMLID_18501_" fill="#665B2B" stroke="#665B2B" stroke-width="5.000000e-002" stroke-miterlimit="10" points="
			97,51.5 97.1,51.9 91.8,58.5 91.7,58.2 		"/>
	</g>
	<g id="XMLID_18496_">
		<g id="XMLID_18499_">
			<polygon fill="#918243" points="90.5,57.6 90.5,57.2 99.8,53.5 99.7,53.9 92.7,58.7 			"/>
			<path fill="#918243" d="M99.7,53.6l0,0.3l-7,4.8l-2.2-1.1l0-0.3L99.7,53.6 M99.7,53.5l-9.3,3.7l0,0.4l2.2,1.1l7-4.8L99.7,53.5
				L99.7,53.5z"/>
		</g>
		<g id="XMLID_18498_">
			<polygon fill="#D1BE6F" points="90.5,57.2 97.5,52.5 99.7,53.5 92.7,58.3 			"/>
			<path fill="#918243" d="M97.5,52.5l2.1,1l-6.9,4.7l-2.1-1L97.5,52.5 M97.5,52.4l-7,4.8l2.3,1.1l7-4.8L97.5,52.4L97.5,52.4z"/>
		</g>
		<polygon id="XMLID_18497_" fill="#665B2B" stroke="#665B2B" stroke-width="5.000000e-002" stroke-miterlimit="10" points="
			99.7,53.5 99.8,53.9 92.7,58.7 92.7,58.3 		"/>
	</g>
</g>
</svg>
