<?xml version="1.0" encoding="utf-8"?>
<!-- Generator: Adobe Illustrator 16.0.0, SVG Export Plug-In . SVG Version: 6.00 Build 0)  -->
<!DOCTYPE svg PUBLIC "-//W3C//DTD SVG 1.1//EN" "http://www.w3.org/Graphics/SVG/1.1/DTD/svg11.dtd">
<svg version="1.1" id="Layer_1" xmlns="http://www.w3.org/2000/svg" xmlns:xlink="http://www.w3.org/1999/xlink" x="0px" y="0px"
	 width="164px" height="164px" viewBox="0 0 164 164" enable-background="new 0 0 164 164" xml:space="preserve">
<g id="XMLID_18814_">
	<path id="XMLID_18850_" opacity="0.2" d="M88.3,51L82,54.6l2.3,1.4l0.4,1.1l2.9,1.8c0.1,0.1,0.9,0.5,1,0.5l6.5-3.7
		c0.1-0.1,0.2-0.2,0.1-0.3L88.3,51z"/>
	<g id="XMLID_18839_">
		<g id="XMLID_18845_">
			<polygon id="XMLID_18849_" fill="#66574C" points="83.4,53.7 83.4,53.7 82.9,53.4 82.9,55.1 82.9,55.1 83.4,55.4 			"/>
			<polygon id="XMLID_18848_" fill="#493E36" points="83.4,53.7 83.4,53.7 83.9,53.4 83.9,55.1 83.9,55.1 83.4,55.4 			"/>
			<polygon id="XMLID_18847_" fill="#AFA28B" points="83.4,53.7 83.9,53.4 83.4,53.1 82.9,53.4 83.4,53.7 83.4,53.7 83.4,53.7 
				83.4,53.7 			"/>
			<line id="XMLID_18846_" fill="#AFA28B" x1="83.4" y1="53.1" x2="82.9" y2="53.4"/>
		</g>
		<g id="XMLID_18840_">
			<polygon id="XMLID_18844_" fill="#66574C" points="87.3,57 87.3,57 86.8,56.7 86.8,58.4 86.8,58.4 87.3,58.7 			"/>
			<polygon id="XMLID_18843_" fill="#493E36" points="87.3,57 87.3,57 87.9,56.7 87.9,58.4 87.9,58.4 87.3,58.7 			"/>
			<polygon id="XMLID_18842_" fill="#AFA28B" points="87.3,57 87.9,56.7 87.3,56.4 86.8,56.7 87.3,57 87.3,57 87.3,57 87.3,57 			
				"/>
			<line id="XMLID_18841_" fill="#AFA28B" x1="87.3" y1="56.4" x2="86.8" y2="56.7"/>
		</g>
	</g>
	<g id="XMLID_18815_">
		<g id="XMLID_18819_">
			<path id="XMLID_18838_" fill="#FFFFFF" d="M88.7,59.3l6.4-3.6c0.1-0.1,0.2-0.2,0.1-0.3l-6.4-6.7c-0.1-0.1-0.3-0.1-0.4,0L82,52.3
				c-0.1,0.1-0.1,0.2-0.1,0.3l6.3,6.7C88.4,59.4,88.6,59.4,88.7,59.3z"/>
			<path id="XMLID_18837_" fill="#CECECE" d="M88.7,59.3l6.4-3.6c0.1-0.1,0.2-0.2,0.1-0.3l-6.4-6.7c-0.1-0.1-0.3-0.1-0.4,0l-6.4,3.6
				c-0.1,0.1-0.1,0.2-0.1,0.3l6.3,6.7C88.4,59.4,88.6,59.4,88.7,59.3z"/>
			<path id="XMLID_18836_" fill="#003B70" stroke="#9CDDF7" stroke-width="0.2" stroke-miterlimit="10" d="M88,49l-1.1,0.6
				c-0.3,0.2-0.4,0.5-0.2,0.7l1.4,1.5c0.2,0.2,0.6,0.3,1,0.1l1.1-0.6c0.3-0.2,0.4-0.5,0.2-0.7L89,49.1C88.8,48.9,88.3,48.9,88,49z"
				/>
			<path id="XMLID_18835_" fill="#003B70" stroke="#9CDDF7" stroke-width="0.2" stroke-miterlimit="10" d="M85.8,50.3l-1.1,0.6
				c-0.3,0.2-0.4,0.5-0.2,0.7l1.4,1.5c0.2,0.2,0.6,0.3,0.9,0.1l1.1-0.6c0.3-0.2,0.4-0.5,0.2-0.7l-1.4-1.5
				C86.6,50.1,86.1,50.1,85.8,50.3z"/>
			<path id="XMLID_18834_" fill="#003B70" stroke="#9CDDF7" stroke-width="0.2" stroke-miterlimit="10" d="M83.7,51.5l-1,0.6
				c-0.3,0.2-0.4,0.5-0.1,0.7l1.4,1.5c0.2,0.2,0.6,0.3,0.9,0.1l1-0.6c0.3-0.2,0.4-0.5,0.2-0.7l-1.4-1.5C84.4,51.4,84,51.3,83.7,51.5
				z"/>
			<path id="XMLID_18833_" fill="#003B70" stroke="#9CDDF7" stroke-width="0.2" stroke-miterlimit="10" d="M90.2,51.4L89.2,52
				c-0.3,0.2-0.4,0.5-0.2,0.7l1.4,1.5c0.2,0.2,0.6,0.3,0.9,0.1l1.1-0.6c0.3-0.2,0.4-0.5,0.2-0.7l-1.4-1.5
				C91,51.2,90.5,51.2,90.2,51.4z"/>
			<path id="XMLID_18832_" fill="#003B70" stroke="#9CDDF7" stroke-width="0.2" stroke-miterlimit="10" d="M88,52.6L87,53.2
				c-0.3,0.2-0.4,0.5-0.2,0.7l1.4,1.5c0.2,0.2,0.6,0.3,0.9,0.1l1.1-0.6c0.3-0.2,0.4-0.5,0.2-0.7L89,52.7
				C88.8,52.5,88.3,52.4,88,52.6z"/>
			<path id="XMLID_18831_" fill="#003B70" stroke="#9CDDF7" stroke-width="0.2" stroke-miterlimit="10" d="M85.9,53.8l-1,0.6
				c-0.3,0.2-0.4,0.5-0.2,0.7l1.4,1.5c0.2,0.2,0.6,0.3,0.9,0.1l1-0.6c0.3-0.2,0.4-0.5,0.2-0.7l-1.4-1.5
				C86.6,53.7,86.2,53.6,85.9,53.8z"/>
			<path id="XMLID_18830_" fill="#003B70" stroke="#9CDDF7" stroke-width="0.2" stroke-miterlimit="10" d="M92.4,53.6l-1.1,0.6
				c-0.3,0.2-0.4,0.5-0.2,0.7l1.4,1.4c0.2,0.2,0.6,0.3,0.9,0.1l1.1-0.6c0.3-0.2,0.4-0.5,0.2-0.7l-1.4-1.4
				C93.1,53.5,92.7,53.5,92.4,53.6z"/>
			<path id="XMLID_18829_" fill="#003B70" stroke="#9CDDF7" stroke-width="0.2" stroke-miterlimit="10" d="M90.2,54.9l-1.1,0.6
				c-0.3,0.2-0.4,0.5-0.2,0.7l1.4,1.4c0.2,0.2,0.6,0.3,0.9,0.1l1.1-0.6c0.3-0.2,0.4-0.5,0.2-0.7l-1.4-1.4
				C90.9,54.7,90.5,54.7,90.2,54.9z"/>
			<path id="XMLID_18828_" fill="#003B70" stroke="#9CDDF7" stroke-width="0.2" stroke-miterlimit="10" d="M88,56.1l-1,0.6
				c-0.3,0.2-0.4,0.5-0.2,0.7l1.4,1.4c0.2,0.2,0.6,0.3,0.9,0.1l1-0.6c0.3-0.2,0.4-0.5,0.2-0.7L89,56.2C88.8,56,88.3,55.9,88,56.1z"
				/>
			
				<line id="XMLID_18827_" opacity="0.5" fill="none" stroke="#9CDDF7" stroke-width="0.2" stroke-miterlimit="10" x1="94.7" y1="55.1" x2="88.2" y2="58.8"/>
			
				<line id="XMLID_18826_" opacity="0.5" fill="none" stroke="#9CDDF7" stroke-width="0.2" stroke-miterlimit="10" x1="85.8" y1="50.3" x2="92.3" y2="57.1"/>
			
				<line id="XMLID_18825_" opacity="0.5" fill="none" stroke="#9CDDF7" stroke-width="0.2" stroke-miterlimit="10" x1="86.9" y1="49.6" x2="93.4" y2="56.5"/>
			
				<line id="XMLID_18824_" opacity="0.5" fill="none" stroke="#9CDDF7" stroke-width="0.2" stroke-miterlimit="10" x1="83.7" y1="51.5" x2="90.1" y2="58.3"/>
			
				<line id="XMLID_18823_" opacity="0.5" fill="none" stroke="#9CDDF7" stroke-width="0.2" stroke-miterlimit="10" x1="84.8" y1="50.9" x2="91.2" y2="57.7"/>
			
				<line id="XMLID_18822_" opacity="0.5" fill="none" stroke="#9CDDF7" stroke-width="0.2" stroke-miterlimit="10" x1="88" y1="49" x2="94.5" y2="55.9"/>
			<polyline id="XMLID_18821_" opacity="0.5" fill="none" stroke="#9CDDF7" stroke-width="0.2" stroke-miterlimit="10" points="
				84.8,55.1 91.2,51.4 92.6,52.9 86.1,56.5 			"/>
			<polyline id="XMLID_18820_" opacity="0.5" fill="none" stroke="#9CDDF7" stroke-width="0.2" stroke-miterlimit="10" points="
				82.5,52.8 89,49.1 90.4,50.6 84,54.3 			"/>
		</g>
		
			<line id="XMLID_18818_" opacity="0.5" fill="none" stroke="#9CDDF7" stroke-width="0.2" stroke-miterlimit="10" x1="92.6" y1="52.9" x2="86.1" y2="56.5"/>
		
			<line id="XMLID_18817_" opacity="0.5" fill="none" stroke="#9CDDF7" stroke-width="0.2" stroke-miterlimit="10" x1="89.1" y1="58.9" x2="82.6" y2="52.1"/>
		
			<line id="XMLID_18816_" opacity="0.5" fill="none" stroke="#9CDDF7" stroke-width="0.2" stroke-miterlimit="10" x1="93.2" y1="53.8" x2="86.8" y2="57.4"/>
	</g>
</g>
<g id="XMLID_18777_">
	<path id="XMLID_18813_" opacity="0.2" d="M96.5,46.3l-6.3,3.6l2.3,1.4l0.4,1.1l2.9,1.8c0.1,0.1,0.9,0.5,1,0.5l6.5-3.7
		c0.1-0.1,0.2-0.2,0-0.3L96.5,46.3z"/>
	<g id="XMLID_18802_">
		<g id="XMLID_18808_">
			<polygon id="XMLID_18812_" fill="#66574C" points="91.6,48.9 91.6,48.9 91.1,48.6 91.1,50.4 91.1,50.4 91.6,50.7 			"/>
			<polygon id="XMLID_18811_" fill="#493E36" points="91.6,48.9 91.6,48.9 92.1,48.6 92.1,50.4 92.1,50.4 91.6,50.7 			"/>
			<polygon id="XMLID_18810_" fill="#AFA28B" points="91.6,48.9 92.1,48.6 91.6,48.4 91.1,48.6 91.6,48.9 91.6,48.9 91.6,48.9 
				91.6,48.9 			"/>
			<line id="XMLID_18809_" fill="#AFA28B" x1="91.6" y1="48.4" x2="91.1" y2="48.6"/>
		</g>
		<g id="XMLID_18803_">
			<polygon id="XMLID_18807_" fill="#66574C" points="95.5,52.3 95.5,52.3 95,52 95,53.7 95,53.7 95.5,54 			"/>
			<polygon id="XMLID_18806_" fill="#493E36" points="95.5,52.3 95.5,52.3 96,52 96,53.7 96,53.7 95.5,54 			"/>
			<polygon id="XMLID_18805_" fill="#AFA28B" points="95.5,52.3 96,52 95.5,51.7 95,52 95.5,52.3 95.5,52.3 95.5,52.3 95.5,52.3 			
				"/>
			<line id="XMLID_18804_" fill="#AFA28B" x1="95.5" y1="51.7" x2="95" y2="52"/>
		</g>
	</g>
	<g id="XMLID_18778_">
		<g id="XMLID_18782_">
			<path id="XMLID_18801_" fill="#FFFFFF" d="M96.8,54.6l6.4-3.6c0.1-0.1,0.2-0.2,0.1-0.3L97,44c-0.1-0.1-0.3-0.1-0.4,0l-6.4,3.6
				c-0.1,0.1-0.1,0.2-0.1,0.3l6.3,6.7C96.6,54.7,96.7,54.7,96.8,54.6z"/>
			<path id="XMLID_18800_" fill="#CECECE" d="M96.9,54.6l6.4-3.6c0.1-0.1,0.2-0.2,0.1-0.3L97,44c-0.1-0.1-0.3-0.1-0.4,0l-6.4,3.6
				c-0.1,0.1-0.1,0.2-0.1,0.3l6.3,6.7C96.6,54.7,96.7,54.7,96.9,54.6z"/>
			<path id="XMLID_18799_" fill="#003B70" stroke="#9CDDF7" stroke-width="0.2" stroke-miterlimit="10" d="M96.2,44.3l-1.1,0.6
				c-0.3,0.2-0.4,0.5-0.2,0.7l1.4,1.5c0.2,0.2,0.6,0.3,1,0.1l1.1-0.6c0.3-0.2,0.4-0.5,0.2-0.7l-1.4-1.5
				C96.9,44.2,96.5,44.2,96.2,44.3z"/>
			<path id="XMLID_18798_" fill="#003B70" stroke="#9CDDF7" stroke-width="0.2" stroke-miterlimit="10" d="M94,45.6l-1.1,0.6
				c-0.3,0.2-0.4,0.5-0.2,0.7l1.4,1.5c0.2,0.2,0.6,0.3,0.9,0.1l1.1-0.6c0.3-0.2,0.4-0.5,0.2-0.7l-1.4-1.5
				C94.7,45.4,94.3,45.4,94,45.6z"/>
			<path id="XMLID_18797_" fill="#003B70" stroke="#9CDDF7" stroke-width="0.2" stroke-miterlimit="10" d="M91.8,46.8l-1,0.6
				c-0.3,0.2-0.4,0.5-0.1,0.7l1.4,1.5c0.2,0.2,0.6,0.3,0.9,0.1l1-0.6c0.3-0.2,0.4-0.5,0.2-0.7l-1.4-1.5
				C92.5,46.7,92.1,46.6,91.8,46.8z"/>
			<path id="XMLID_18796_" fill="#003B70" stroke="#9CDDF7" stroke-width="0.2" stroke-miterlimit="10" d="M98.4,46.6l-1.1,0.6
				c-0.3,0.2-0.4,0.5-0.2,0.7l1.4,1.5c0.2,0.2,0.6,0.3,0.9,0.1l1.1-0.6c0.3-0.2,0.4-0.5,0.2-0.7l-1.4-1.5
				C99.1,46.5,98.7,46.5,98.4,46.6z"/>
			<path id="XMLID_18795_" fill="#003B70" stroke="#9CDDF7" stroke-width="0.2" stroke-miterlimit="10" d="M96.2,47.9l-1.1,0.6
				c-0.3,0.2-0.4,0.5-0.2,0.7l1.4,1.5c0.2,0.2,0.6,0.3,0.9,0.1l1.1-0.6c0.3-0.2,0.4-0.5,0.2-0.7L97.1,48
				C96.9,47.7,96.5,47.7,96.2,47.9z"/>
			<path id="XMLID_18794_" fill="#003B70" stroke="#9CDDF7" stroke-width="0.2" stroke-miterlimit="10" d="M94,49.1l-1,0.6
				c-0.3,0.2-0.4,0.5-0.2,0.7l1.4,1.5c0.2,0.2,0.6,0.3,0.9,0.1l1-0.6c0.3-0.2,0.4-0.5,0.2-0.7L95,49.2C94.8,49,94.3,48.9,94,49.1z"
				/>
			<path id="XMLID_18793_" fill="#003B70" stroke="#9CDDF7" stroke-width="0.2" stroke-miterlimit="10" d="M100.5,48.9l-1.1,0.6
				c-0.3,0.2-0.4,0.5-0.2,0.7l1.4,1.4c0.2,0.2,0.6,0.2,0.9,0.1l1.1-0.6c0.3-0.2,0.4-0.5,0.2-0.7l-1.4-1.4
				C101.3,48.8,100.9,48.7,100.5,48.9z"/>
			<path id="XMLID_18792_" fill="#003B70" stroke="#9CDDF7" stroke-width="0.2" stroke-miterlimit="10" d="M98.4,50.2l-1.1,0.6
				c-0.3,0.2-0.4,0.5-0.2,0.7l1.4,1.4c0.2,0.2,0.6,0.3,0.9,0.1l1.1-0.6c0.3-0.2,0.4-0.5,0.2-0.7l-1.4-1.4C99.1,50,98.7,50,98.4,50.2
				z"/>
			<path id="XMLID_18791_" fill="#003B70" stroke="#9CDDF7" stroke-width="0.2" stroke-miterlimit="10" d="M96.2,51.4l-1,0.6
				c-0.3,0.2-0.4,0.5-0.2,0.7l1.4,1.4c0.2,0.2,0.6,0.3,0.9,0.1l1-0.6c0.3-0.2,0.4-0.5,0.2-0.7l-1.4-1.4
				C96.9,51.2,96.5,51.2,96.2,51.4z"/>
			
				<line id="XMLID_18790_" opacity="0.5" fill="none" stroke="#9CDDF7" stroke-width="0.2" stroke-miterlimit="10" x1="102.8" y1="50.4" x2="96.4" y2="54.1"/>
			
				<line id="XMLID_18789_" opacity="0.5" fill="none" stroke="#9CDDF7" stroke-width="0.2" stroke-miterlimit="10" x1="94" y1="45.6" x2="100.4" y2="52.4"/>
			
				<line id="XMLID_18788_" opacity="0.5" fill="none" stroke="#9CDDF7" stroke-width="0.2" stroke-miterlimit="10" x1="95.1" y1="44.9" x2="101.6" y2="51.7"/>
			
				<line id="XMLID_18787_" opacity="0.5" fill="none" stroke="#9CDDF7" stroke-width="0.2" stroke-miterlimit="10" x1="91.8" y1="46.8" x2="98.3" y2="53.6"/>
			
				<line id="XMLID_18786_" opacity="0.5" fill="none" stroke="#9CDDF7" stroke-width="0.2" stroke-miterlimit="10" x1="92.9" y1="46.2" x2="99.4" y2="53"/>
			
				<line id="XMLID_18785_" opacity="0.5" fill="none" stroke="#9CDDF7" stroke-width="0.2" stroke-miterlimit="10" x1="96.2" y1="44.3" x2="102.6" y2="51.1"/>
			<polyline id="XMLID_18784_" opacity="0.5" fill="none" stroke="#9CDDF7" stroke-width="0.2" stroke-miterlimit="10" points="
				92.9,50.4 99.3,46.7 100.7,48.2 94.3,51.8 			"/>
			<polyline id="XMLID_18783_" opacity="0.5" fill="none" stroke="#9CDDF7" stroke-width="0.2" stroke-miterlimit="10" points="
				90.7,48.1 97.1,44.4 98.6,45.9 92.1,49.6 			"/>
		</g>
		
			<line id="XMLID_18781_" opacity="0.5" fill="none" stroke="#9CDDF7" stroke-width="0.2" stroke-miterlimit="10" x1="100.7" y1="48.2" x2="94.3" y2="51.8"/>
		
			<line id="XMLID_18780_" opacity="0.5" fill="none" stroke="#9CDDF7" stroke-width="0.2" stroke-miterlimit="10" x1="97.2" y1="54.2" x2="90.8" y2="47.4"/>
		
			<line id="XMLID_18779_" opacity="0.5" fill="none" stroke="#9CDDF7" stroke-width="0.2" stroke-miterlimit="10" x1="101.4" y1="49" x2="95" y2="52.7"/>
	</g>
</g>
</svg>
