<?xml version="1.0" encoding="utf-8"?>
<!-- Generator: Adobe Illustrator 16.0.0, SVG Export Plug-In . SVG Version: 6.00 Build 0)  -->
<!DOCTYPE svg PUBLIC "-//W3C//DTD SVG 1.1//EN" "http://www.w3.org/Graphics/SVG/1.1/DTD/svg11.dtd">
<svg version="1.1" id="Layer_1" xmlns="http://www.w3.org/2000/svg" xmlns:xlink="http://www.w3.org/1999/xlink" x="0px" y="0px"
	 width="164px" height="164px" viewBox="0 0 164 164" enable-background="new 0 0 164 164" xml:space="preserve">
<g id="XMLID_18375_">
	<g id="XMLID_18414_">
		<polygon id="XMLID_18416_" fill="#968677" points="60.7,53.2 89.1,69.5 89.1,66.9 60.7,50.5 		"/>
		<polygon id="XMLID_18415_" fill="#77675A" points="89.1,69.5 89.1,66.9 89.1,66.9 103.2,58.7 117.4,50.5 117.4,53.2 117.4,53.2 
			103.2,61.4 		"/>
	</g>
	<g id="XMLID_18409_">
		<path id="XMLID_18411_" fill="#AFA28B" d="M89.1,34.2L60.7,50.5l28.3,16.4l28.3-16.4L89.1,34.2z M65.4,50.5l23.6-13.6l23.6,13.6
			L89.1,64.2L65.4,50.5z"/>
		<polygon id="XMLID_18410_" fill="#2B2927" points="89.1,36.9 65.4,50.5 89.1,64.2 112.7,50.5 		"/>
	</g>
	<polygon id="XMLID_18408_" fill="#968677" points="89.1,38.2 111.6,51.2 112.7,50.5 89.1,36.9 	"/>
	<polygon id="XMLID_18407_" fill="#77675A" points="89.1,38.2 89.1,36.9 74.9,45.1 65.4,50.5 66.6,51.2 74.9,46.4 	"/>
	<g id="XMLID_18403_" opacity="0.2">
		<polygon id="XMLID_18406_" opacity="0.2" fill="#FFFFFF" points="93,61.9 93.5,61.6 71,48.7 70.5,48.9 		"/>
		<polygon id="XMLID_18405_" opacity="0.2" fill="#FFFFFF" points="100,57.8 100.5,57.6 78,44.6 77.6,44.8 		"/>
		<polygon id="XMLID_18404_" opacity="0.2" fill="#FFFFFF" points="107.6,53.5 85.1,40.5 84.6,40.8 107.1,53.7 		"/>
	</g>
	<g id="XMLID_18376_">
		<g id="XMLID_18378_">
			<g id="XMLID_18398_">
				<polygon id="XMLID_18402_" fill="#938E89" points="82,49.1 89.1,53.2 89.1,52.5 82,48.4 				"/>
				<polygon id="XMLID_18401_" fill="#66625F" points="96.2,49.1 89.1,53.2 89.1,52.5 96.2,48.4 				"/>
				<polygon id="XMLID_18400_" fill="#D2C7B0" points="82,48.4 89.1,52.5 96.2,48.4 89.1,44.4 				"/>
				<polygon id="XMLID_18399_" fill="#CCC5C0" points="82,48.4 89.1,52.5 96.2,48.4 89.1,44.4 				"/>
			</g>
			<g id="XMLID_18388_">
				<g id="XMLID_18391_">
					<path id="XMLID_18397_" fill="#FFFFFF" d="M87.5,50.5c-0.1-0.1-0.3-0.1-0.4-0.1c-0.1,0-0.2,0-0.3,0.1c0,0-0.1,0.1-0.1,0.1
						c0,0,0,0.1,0.1,0.2c0.2,0.1,0.5,0.1,0.7,0c0,0,0.1-0.1,0.1-0.1C87.6,50.6,87.6,50.5,87.5,50.5z"/>
					<path id="XMLID_18396_" fill="#FFFFFF" d="M85.6,49.4c-0.1-0.1-0.3-0.1-0.4-0.1c-0.1,0-0.2,0-0.3,0.1c0,0-0.1,0.1-0.1,0.1
						c0,0,0,0.1,0.1,0.2c0.2,0.1,0.5,0.1,0.7,0c0,0,0.1-0.1,0.1-0.1C85.8,49.5,85.7,49.5,85.6,49.4z"/>
					<path id="XMLID_18395_" fill="#FFFFFF" d="M83.8,48.4c-0.1-0.1-0.3-0.1-0.4-0.1c-0.1,0-0.2,0-0.3,0.1c0,0-0.1,0.1-0.1,0.1
						c0,0,0,0.1,0.1,0.2c0.2,0.1,0.5,0.1,0.7,0c0,0,0.1-0.1,0.1-0.1C83.9,48.5,83.9,48.4,83.8,48.4z"/>
					<path id="XMLID_18394_" fill="#FFFFFF" d="M91.4,50.5c-0.1,0-0.2-0.1-0.3-0.1c-0.1,0-0.3,0-0.4,0.1c-0.1,0.1-0.1,0.1-0.1,0.2
						c0,0,0,0.1,0.1,0.1c0.2,0.1,0.5,0.1,0.7,0C91.4,50.7,91.4,50.6,91.4,50.5C91.4,50.5,91.4,50.5,91.4,50.5z"/>
					<path id="XMLID_18393_" fill="#FFFFFF" d="M93.2,49.4c-0.1,0-0.2-0.1-0.3-0.1c-0.1,0-0.3,0-0.4,0.1c-0.1,0.1-0.1,0.1-0.1,0.2
						c0,0,0,0.1,0.1,0.1c0.2,0.1,0.5,0.1,0.7,0C93.2,49.6,93.3,49.5,93.2,49.4C93.3,49.4,93.2,49.4,93.2,49.4z"/>
					<path id="XMLID_18392_" fill="#FFFFFF" d="M95,48.3c-0.1,0-0.2-0.1-0.3-0.1c-0.1,0-0.3,0-0.4,0.1c-0.1,0.1-0.1,0.1-0.1,0.2
						c0,0,0,0.1,0.1,0.1c0.2,0.1,0.5,0.1,0.7,0C95.1,48.5,95.1,48.5,95,48.3C95.1,48.4,95.1,48.3,95,48.3z"/>
				</g>
				<ellipse id="XMLID_18390_" fill="#FFFFFF" cx="89.1" cy="51.5" rx="0.5" ry="0.2"/>
				<ellipse id="XMLID_18389_" fill="#FFFFFF" cx="89.1" cy="45.4" rx="0.5" ry="0.2"/>
			</g>
			<g id="XMLID_18379_">
				<g id="XMLID_18386_">
					<path id="XMLID_18387_" fill="#FFFFFF" d="M84.4,48.4l3.6,1.9c0.7,0.3,1.5,0.3,2.2,0l3.6-1.9c0.4-0.4,0.3-1.2-0.3-1.5l-1.1-0.7
						c-2.1-1.6-4.6-1.6-6.7,0l-1.1,0.7C84.1,47.3,83.9,48.1,84.4,48.4z"/>
				</g>
				<g id="XMLID_18380_">
					<g id="XMLID_18384_">
						<path id="XMLID_18385_" fill="#938E89" d="M84.7,46.9c-0.2,0.2-0.4,0.5-0.4,0.8c0,0.3,0.1,0.5,0.2,0.6l0,0l2.2,1.2l1.2,0.6
							c0.4,0.2,0.8,0.4,1.2,0.4c0.4,0,0.8-0.1,1.3-0.4l1.2-0.6l2.2-1.2l0,0c0.2-0.1,0.3-0.4,0.3-0.7c0-0.3-0.2-0.6-0.4-0.8
							c0.3,0.2,0.5,0.4,0.6,0.8c0.1,0.3,0,0.7-0.2,0.9l0,0l0,0l-2.2,1.2l-1.2,0.6c-0.2,0.1-0.4,0.2-0.7,0.3
							c-0.2,0.1-0.5,0.1-0.7,0.1c-0.3,0-0.5,0-0.7-0.1c-0.2-0.1-0.4-0.2-0.6-0.3l-1.2-0.6l-2.2-1.2l0,0l0,0
							c-0.2-0.2-0.3-0.5-0.2-0.9C84.2,47.4,84.4,47.1,84.7,46.9z"/>
					</g>
					<g id="XMLID_18382_" opacity="0.2">
						<path id="XMLID_18383_" fill="#78D5FB" d="M84.4,48.4l3.6,1.9c0.7,0.3,1.5,0.3,2.2,0l3.6-2c0.4-0.4,0.3-1.1-0.2-1.4l-1.1-0.7
							c-2.1-1.6-4.6-1.6-6.7,0l-1.1,0.7C84.1,47.3,83.9,48.1,84.4,48.4z"/>
					</g>
					<path id="XMLID_18381_" fill="#FFFFFF" d="M92.4,46.5c-2-1.5-4.3-1.5-6.3-0.3c1.9-0.3,3.9,0.2,5.7,1.5l0.7,0.5
						c0,0,0.7-0.3,1-0.6C93.7,47.4,92.6,46.7,92.4,46.5z"/>
				</g>
			</g>
		</g>
		<path id="XMLID_18377_" opacity="0.3" d="M97.3,49.7l-1.1-0.6l-7.1,4.1l1.1,0.6l0.6-0.3c0,0,0,0,0,0c0.3,0.2,2-0.5,3.6-1.5
			c1.5-0.9,2.5-1.7,2.5-2L97.3,49.7z"/>
	</g>
</g>
</svg>
