<?xml version="1.0" encoding="utf-8"?>
<!-- Generator: Adobe Illustrator 16.0.0, SVG Export Plug-In . SVG Version: 6.00 Build 0)  -->
<!DOCTYPE svg PUBLIC "-//W3C//DTD SVG 1.1//EN" "http://www.w3.org/Graphics/SVG/1.1/DTD/svg11.dtd">
<svg version="1.1" id="Layer_1" xmlns="http://www.w3.org/2000/svg" xmlns:xlink="http://www.w3.org/1999/xlink" x="0px" y="0px"
	 width="164px" height="164px" viewBox="0 0 164 164" enable-background="new 0 0 164 164" xml:space="preserve">
<g id="XMLID_18530_">
	<g id="XMLID_18745_">
		<g id="XMLID_18746_">
			<path id="XMLID_18747_" fill="#B26028" d="M89.1,28.6L67.8,40.9L63.7,48l11.4,5.2l28.3-16.4L89.1,28.6z"/>
		</g>
	</g>
	<g id="XMLID_18725_">
		<g id="XMLID_18726_">
			<g id="XMLID_18730_">
				<g id="XMLID_18741_">
					<defs>
						<polygon id="XMLID_18742_" points="75.1,61.4 81.7,50 103.4,37.5 103.4,45 						"/>
					</defs>
					<clipPath id="XMLID_2_">
						<use xlink:href="#XMLID_18742_"  overflow="visible"/>
					</clipPath>
					<g id="XMLID_18743_" clip-path="url(#XMLID_2_)">
						<defs>
							<polygon id="XMLID_18744_" points="75.1,61.4 89.3,36.8 103.4,37.3 103.4,45 							"/>
						</defs>
						<use xlink:href="#XMLID_18744_"  overflow="visible" fill="#AD856A"/>
						<clipPath id="XMLID_3_">
							<use xlink:href="#XMLID_18744_"  overflow="visible"/>
						</clipPath>
					</g>
				</g>
				<g id="XMLID_18731_">
					<polygon id="XMLID_18740_" fill="#90674C" points="75.8,60.3 79.8,58 79.8,56 75.8,58.3 					"/>
					<polygon id="XMLID_18739_" fill="#90674C" points="80.5,57.6 84.6,55.3 84.6,53.3 80.5,55.6 					"/>
					<polygon id="XMLID_18738_" fill="#90674C" points="82.2,53.9 82.2,51.9 78.1,54.3 78.1,56.3 					"/>
					<polygon id="XMLID_18737_" fill="#90674C" points="89.3,49.8 89.3,47.8 87.6,48.8 87.6,50.8 					"/>
					<polygon id="XMLID_18736_" fill="#90674C" points="99.4,46.7 103.5,44.4 103.5,42.4 99.4,44.7 					"/>
					<polygon id="XMLID_18735_" fill="#90674C" points="91.6,46.5 89.3,47.8 89.3,49.8 91.6,48.5 					"/>
					<polygon id="XMLID_18734_" fill="#90674C" points="96.4,45.7 96.4,43.7 92.3,46.1 92.3,48.1 					"/>
					<polygon id="XMLID_18733_" fill="#90674C" points="101.8,42.6 103.5,41.7 103.5,39.7 101.8,40.6 					"/>
					<polygon id="XMLID_18732_" fill="#90674C" points="97.1,45.3 101.1,43 101.1,41 97.1,43.3 					"/>
				</g>
			</g>
			<g id="XMLID_18727_">
				<g id="XMLID_18728_">
					<polygon id="XMLID_18729_" fill="#7C4723" points="81.5,52.6 81.4,50.1 75.1,53.2 103.5,36.8 103.5,39.9 103.5,39.9 95.7,44.4 
											"/>
				</g>
			</g>
		</g>
	</g>
	<g id="XMLID_18709_">
		<g id="XMLID_18710_">
			<g id="XMLID_18722_">
				<polygon id="XMLID_18724_" fill="#968677" points="74.9,61.4 89.1,69.5 89.1,66.9 74.9,58.7 				"/>
				<polygon id="XMLID_18723_" fill="#77675A" points="89.1,69.5 89.1,66.9 89.1,66.9 117.4,50.5 117.4,53.2 117.4,53.2 				"/>
			</g>
			<g id="XMLID_18717_">
				<path id="XMLID_18719_" fill="#AFA28B" d="M103.2,42.3L74.9,58.7l14.2,8.2l28.3-16.4L103.2,42.3z M79.6,58.7l23.6-13.6l9.5,5.5
					L89.1,64.2L79.6,58.7z"/>
				<polygon id="XMLID_18718_" fill="#2B2927" points="103.2,45.1 79.6,58.7 89.1,64.2 112.7,50.5 				"/>
			</g>
			<polygon id="XMLID_18716_" fill="#968677" points="103.2,46.4 111.6,51.2 112.7,50.5 103.2,45.1 			"/>
			<polygon id="XMLID_18715_" fill="#77675A" points="103.2,46.4 103.2,45.1 89.1,53.2 79.6,58.7 80.7,59.4 89.1,54.6 			"/>
			<g id="XMLID_18711_" opacity="0.2">
				<polygon id="XMLID_18714_" opacity="0.2" fill="#FFFFFF" points="93,61.9 93.5,61.6 85.1,56.8 84.6,57.1 				"/>
				<polygon id="XMLID_18713_" opacity="0.2" fill="#FFFFFF" points="100,57.8 100.5,57.6 92.2,52.8 91.7,53 				"/>
				<polygon id="XMLID_18712_" opacity="0.2" fill="#FFFFFF" points="107.6,53.5 99.3,48.7 98.8,48.9 107.1,53.7 				"/>
			</g>
		</g>
	</g>
	<polygon id="XMLID_18708_" fill="#7C4723" points="68,44.1 61,56.2 75.2,64.4 83,50.8 	"/>
	<g id="XMLID_18638_">
		<g id="XMLID_18691_">
			<g id="XMLID_18704_">
				<path id="XMLID_18707_" fill="#B26028" d="M74.4,59.2c1.2,0.6,1.6,0.2,1.2,1l-1.9,3.2c-0.4,0.7-1.9-0.5-3.1-1.1
					c-1.2-0.6-1.6-0.2-1.2-1l1.9-3.2C71.7,57.4,73.2,58.7,74.4,59.2z"/>
				<path id="XMLID_18706_" opacity="0.2" fill="#272525" d="M70.8,61.9c1.2,0.6,2.7,1.8,3.1,1.1l-0.3,0.5c-0.4,0.7-1.9-0.5-3.1-1.1
					c-1.2-0.6-1.6-0.2-1.2-1l0.3-0.5C69.2,61.7,69.7,61.4,70.8,61.9z"/>
				<path id="XMLID_18705_" opacity="0.1" fill="#272525" d="M73.8,59.4c-1-0.5-2.3-1.6-2.7-0.9l0.2-0.3c0.4-0.7,1.9,0.5,3.1,1.1
					c1.2,0.6,1.6,0.2,1.2,1L74,63c-0.2,0.3-0.5,0.3-0.8,0.2l1.7-2.8C75.2,59.5,74.8,59.9,73.8,59.4z"/>
			</g>
			<g id="XMLID_18700_">
				<path id="XMLID_18703_" fill="#B26028" d="M70.9,57.2c1.2,0.6,1.6,0.2,1.2,1l-1.9,3.2c-0.4,0.7-1.9-0.5-3.1-1.1
					c-1.2-0.6-1.6-0.2-1.2-1l1.9-3.2C68.2,55.4,69.7,56.6,70.9,57.2z"/>
				<path id="XMLID_18702_" opacity="0.2" fill="#272525" d="M67.4,59.9c1.2,0.6,2.7,1.8,3.1,1.1l-0.3,0.5c-0.4,0.7-1.9-0.5-3.1-1.1
					c-1.2-0.6-1.6-0.2-1.2-1l0.3-0.5C65.7,59.7,66.2,59.3,67.4,59.9z"/>
				<path id="XMLID_18701_" opacity="0.1" fill="#272525" d="M70.3,57.4c-1-0.5-2.3-1.6-2.7-0.9l0.2-0.3c0.4-0.7,1.9,0.5,3.1,1.1
					s1.6,0.2,1.2,1l-1.6,2.8c-0.2,0.3-0.5,0.3-0.8,0.2l1.7-2.8C71.7,57.5,71.3,57.8,70.3,57.4z"/>
			</g>
			<g id="XMLID_18696_">
				<path id="XMLID_18699_" fill="#B26028" d="M67.4,55.2c1.2,0.6,1.6,0.2,1.2,1l-1.9,3.2c-0.4,0.7-1.9-0.5-3.1-1.1s-1.6-0.2-1.2-1
					l1.9-3.2C64.7,53.4,66.2,54.6,67.4,55.2z"/>
				<path id="XMLID_18698_" opacity="0.2" fill="#272525" d="M63.9,57.8c1.2,0.6,2.7,1.8,3.1,1.1l-0.3,0.5c-0.4,0.7-1.9-0.5-3.1-1.1
					s-1.6-0.2-1.2-1l0.3-0.5C62.2,57.6,62.7,57.3,63.9,57.8z"/>
				<path id="XMLID_18697_" opacity="0.1" fill="#272525" d="M66.8,55.3c-1-0.5-2.3-1.6-2.7-0.9l0.2-0.3c0.4-0.7,1.9,0.5,3.1,1.1
					s1.6,0.2,1.2,1L67,58.9c-0.2,0.3-0.5,0.3-0.8,0.2l1.7-2.8C68.3,55.5,67.8,55.8,66.8,55.3z"/>
			</g>
			<g id="XMLID_18692_">
				<path id="XMLID_18695_" fill="#B26028" d="M63.9,53.1c1.2,0.6,1.6,0.2,1.2,1l-1.9,3.2c-0.4,0.7-1.9-0.5-3.1-1.1
					c-1.2-0.6-1.6-0.2-1.2-1l1.9-3.2C61.2,51.3,62.7,52.6,63.9,53.1z"/>
				<path id="XMLID_18694_" opacity="0.2" fill="#272525" d="M60.4,55.8c1.2,0.6,2.7,1.8,3.1,1.1l-0.3,0.5c-0.4,0.7-1.9-0.5-3.1-1.1
					c-1.2-0.6-1.6-0.2-1.2-1l0.3-0.5C58.7,55.6,59.2,55.2,60.4,55.8z"/>
				<path id="XMLID_18693_" opacity="0.1" fill="#272525" d="M63.3,53.3c-1-0.5-2.3-1.6-2.7-0.9l0.2-0.3c0.4-0.7,1.9,0.5,3.1,1.1
					s1.6,0.2,1.2,1l-1.6,2.8c-0.2,0.3-0.5,0.3-0.8,0.2l1.7-2.8C64.8,53.4,64.3,53.8,63.3,53.3z"/>
			</g>
		</g>
		<g id="XMLID_18674_">
			<g id="XMLID_18687_">
				<path id="XMLID_18690_" fill="#B26028" d="M76.3,55.9c1.2,0.6,1.6,0.2,1.2,1l-1.9,3.2c-0.4,0.7-1.9-0.5-3.1-1.1
					c-1.2-0.6-1.6-0.2-1.2-1l1.9-3.2C73.6,54.1,75.1,55.3,76.3,55.9z"/>
				<path id="XMLID_18689_" opacity="0.2" fill="#272525" d="M72.8,58.6c1.2,0.6,2.7,1.8,3.1,1.1l-0.3,0.5c-0.4,0.7-1.9-0.5-3.1-1.1
					c-1.2-0.6-1.6-0.2-1.2-1l0.3-0.5C71.1,58.3,71.6,58,72.8,58.6z"/>
				<path id="XMLID_18688_" opacity="0.1" fill="#272525" d="M75.7,56.1c-1-0.5-2.3-1.6-2.7-0.9l0.2-0.3c0.4-0.7,1.9,0.5,3.1,1.1
					c1.2,0.6,1.6,0.2,1.2,1l-1.6,2.8c-0.2,0.3-0.5,0.3-0.8,0.2l1.7-2.8C77.2,56.2,76.7,56.5,75.7,56.1z"/>
			</g>
			<g id="XMLID_18683_">
				<path id="XMLID_18686_" fill="#B26028" d="M72.8,53.9c1.2,0.6,1.6,0.2,1.2,1l-1.9,3.2c-0.4,0.7-1.9-0.5-3.1-1.1
					c-1.2-0.6-1.6-0.2-1.2-1l1.9-3.2C70.1,52.1,71.6,53.3,72.8,53.9z"/>
				<path id="XMLID_18685_" opacity="0.2" fill="#272525" d="M69.3,56.5c1.2,0.6,2.7,1.8,3.1,1.1l-0.3,0.5c-0.4,0.7-1.9-0.5-3.1-1.1
					c-1.2-0.6-1.6-0.2-1.2-1l0.3-0.5C67.6,56.3,68.1,56,69.3,56.5z"/>
				<path id="XMLID_18684_" opacity="0.1" fill="#272525" d="M72.2,54c-1-0.5-2.3-1.6-2.7-0.9l0.2-0.3c0.4-0.7,1.9,0.5,3.1,1.1
					c1.2,0.6,1.6,0.2,1.2,1l-1.6,2.8c-0.2,0.3-0.5,0.3-0.8,0.2l1.7-2.8C73.7,54.2,73.2,54.5,72.2,54z"/>
			</g>
			<g id="XMLID_18679_">
				<path id="XMLID_18682_" fill="#B26028" d="M69.3,51.8c1.2,0.6,1.6,0.2,1.2,1L68.6,56c-0.4,0.7-1.9-0.5-3.1-1.1
					c-1.2-0.6-1.6-0.2-1.2-1l1.9-3.2C66.6,50,68.1,51.3,69.3,51.8z"/>
				<path id="XMLID_18681_" opacity="0.2" fill="#272525" d="M65.8,54.5c1.2,0.6,2.7,1.8,3.1,1.1L68.6,56c-0.4,0.7-1.9-0.5-3.1-1.1
					c-1.2-0.6-1.6-0.2-1.2-1l0.3-0.5C64.1,54.3,64.6,53.9,65.8,54.5z"/>
				<path id="XMLID_18680_" opacity="0.1" fill="#272525" d="M68.7,52c-1-0.5-2.3-1.6-2.7-0.9l0.2-0.3c0.4-0.7,1.9,0.5,3.1,1.1
					s1.6,0.2,1.2,1l-1.6,2.8c-0.2,0.3-0.5,0.3-0.8,0.2l1.7-2.8C70.2,52.1,69.8,52.5,68.7,52z"/>
			</g>
			<g id="XMLID_18675_">
				<path id="XMLID_18678_" fill="#B26028" d="M65.8,49.8c1.2,0.6,1.6,0.2,1.2,1L65.1,54c-0.4,0.7-1.9-0.5-3.1-1.1s-1.6-0.2-1.2-1
					l1.9-3.2C63.1,48,64.6,49.2,65.8,49.8z"/>
				<path id="XMLID_18677_" opacity="0.2" fill="#272525" d="M62.3,52.5c1.2,0.6,2.7,1.8,3.1,1.1L65.1,54c-0.4,0.7-1.9-0.5-3.1-1.1
					s-1.6-0.2-1.2-1l0.3-0.5C60.6,52.2,61.1,51.9,62.3,52.5z"/>
				<path id="XMLID_18676_" opacity="0.1" fill="#272525" d="M65.2,49.9c-1-0.5-2.3-1.6-2.7-0.9l0.2-0.3c0.4-0.7,1.9,0.5,3.1,1.1
					s1.6,0.2,1.2,1l-1.6,2.8c-0.2,0.3-0.5,0.3-0.8,0.2l1.7-2.8C66.7,50.1,66.3,50.4,65.2,49.9z"/>
			</g>
		</g>
		<g id="XMLID_18639_">
			<g id="XMLID_18657_">
				<g id="XMLID_18670_">
					<path id="XMLID_18673_" fill="#B26028" d="M78.2,52.6c1.2,0.6,1.6,0.2,1.2,1l-1.9,3.2c-0.4,0.7-1.9-0.5-3.1-1.1s-1.6-0.2-1.2-1
						l1.9-3.2C75.6,50.7,77,52,78.2,52.6z"/>
					<path id="XMLID_18672_" opacity="0.2" fill="#272525" d="M74.7,55.2c1.2,0.6,2.7,1.8,3.1,1.1l-0.3,0.5
						c-0.4,0.7-1.9-0.5-3.1-1.1s-1.6-0.2-1.2-1l0.3-0.5C73.1,55,73.5,54.7,74.7,55.2z"/>
					<path id="XMLID_18671_" opacity="0.1" fill="#272525" d="M77.6,52.7c-1-0.5-2.3-1.6-2.7-0.9l0.2-0.3c0.4-0.7,1.9,0.5,3.1,1.1
						s1.6,0.2,1.2,1l-1.6,2.8c-0.2,0.3-0.5,0.3-0.8,0.2l1.7-2.8C79.1,52.8,78.7,53.2,77.6,52.7z"/>
				</g>
				<g id="XMLID_18666_">
					<path id="XMLID_18669_" fill="#B26028" d="M74.7,50.5c1.2,0.6,1.6,0.2,1.2,1L74,54.7c-0.4,0.7-1.9-0.5-3.1-1.1
						c-1.2-0.6-1.6-0.2-1.2-1l1.9-3.2C72.1,48.7,73.5,50,74.7,50.5z"/>
					<path id="XMLID_18668_" opacity="0.2" fill="#272525" d="M71.2,53.2c1.2,0.6,2.7,1.8,3.1,1.1L74,54.7c-0.4,0.7-1.9-0.5-3.1-1.1
						c-1.2-0.6-1.6-0.2-1.2-1l0.3-0.5C69.6,53,70,52.6,71.2,53.2z"/>
					<path id="XMLID_18667_" opacity="0.1" fill="#272525" d="M74.1,50.7c-1-0.5-2.3-1.6-2.7-0.9l0.2-0.3c0.4-0.7,1.9,0.5,3.1,1.1
						c1.2,0.6,1.6,0.2,1.2,1l-1.6,2.8c-0.2,0.3-0.5,0.3-0.8,0.2l1.7-2.8C75.6,50.8,75.2,51.2,74.1,50.7z"/>
				</g>
				<g id="XMLID_18662_">
					<path id="XMLID_18665_" fill="#B26028" d="M71.2,48.5c1.2,0.6,1.6,0.2,1.2,1l-1.9,3.2c-0.4,0.7-1.9-0.5-3.1-1.1
						c-1.2-0.6-1.6-0.2-1.2-1l1.9-3.2C68.6,46.7,70,47.9,71.2,48.5z"/>
					<path id="XMLID_18664_" opacity="0.2" fill="#272525" d="M67.7,51.2c1.2,0.6,2.7,1.8,3.1,1.1l-0.3,0.5
						c-0.4,0.7-1.9-0.5-3.1-1.1c-1.2-0.6-1.6-0.2-1.2-1l0.3-0.5C66.1,50.9,66.5,50.6,67.7,51.2z"/>
					<path id="XMLID_18663_" opacity="0.1" fill="#272525" d="M70.6,48.6c-1-0.5-2.3-1.6-2.7-0.9l0.2-0.3c0.4-0.7,1.9,0.5,3.1,1.1
						c1.2,0.6,1.6,0.2,1.2,1l-1.6,2.8c-0.2,0.3-0.5,0.3-0.8,0.2l1.7-2.8C72.1,48.8,71.7,49.1,70.6,48.6z"/>
				</g>
				<g id="XMLID_18658_">
					<path id="XMLID_18661_" fill="#B26028" d="M67.7,46.4c1.2,0.6,1.6,0.2,1.2,1L67,50.6c-0.4,0.7-1.9-0.5-3.1-1.1
						c-1.2-0.6-1.6-0.2-1.2-1l1.9-3.2C65.1,44.6,66.5,45.9,67.7,46.4z"/>
					<path id="XMLID_18660_" opacity="0.2" fill="#272525" d="M64.2,49.1c1.2,0.6,2.7,1.8,3.1,1.1L67,50.6c-0.4,0.7-1.9-0.5-3.1-1.1
						c-1.2-0.6-1.6-0.2-1.2-1l0.3-0.5C62.6,48.9,63,48.6,64.2,49.1z"/>
					<path id="XMLID_18659_" opacity="0.1" fill="#272525" d="M67.1,46.6c-1-0.5-2.3-1.6-2.7-0.9l0.2-0.3c0.4-0.7,1.9,0.5,3.1,1.1
						s1.6,0.2,1.2,1l-1.6,2.8c-0.2,0.3-0.5,0.3-0.8,0.2l1.7-2.8C68.6,46.7,68.2,47.1,67.1,46.6z"/>
				</g>
			</g>
			<g id="XMLID_18640_">
				<g id="XMLID_18653_">
					<path id="XMLID_18656_" fill="#B26028" d="M80.1,49.2c1.2,0.6,1.6,0.2,1.2,1l-1.9,3.2c-0.4,0.7-1.9-0.5-3.1-1.1s-1.6-0.2-1.2-1
						l1.9-3.2C77.5,47.4,79,48.6,80.1,49.2z"/>
					<path id="XMLID_18655_" opacity="0.2" fill="#272525" d="M76.6,51.9c1.2,0.6,2.7,1.8,3.1,1.1l-0.3,0.5
						c-0.4,0.7-1.9-0.5-3.1-1.1s-1.6-0.2-1.2-1l0.3-0.5C75,51.7,75.4,51.3,76.6,51.9z"/>
					<path id="XMLID_18654_" opacity="0.1" fill="#272525" d="M79.6,49.4c-1-0.5-2.3-1.6-2.7-0.9l0.2-0.3c0.4-0.7,1.9,0.5,3.1,1.1
						s1.6,0.2,1.2,1l-1.6,2.8c-0.2,0.3-0.5,0.3-0.8,0.2l1.7-2.8C81,49.5,80.6,49.8,79.6,49.4z"/>
				</g>
				<g id="XMLID_18649_">
					<path id="XMLID_18652_" fill="#B26028" d="M76.7,47.2c1.2,0.6,1.6,0.2,1.2,1L76,51.4c-0.4,0.7-1.9-0.5-3.1-1.1s-1.6-0.2-1.2-1
						l1.9-3.2C74,45.4,75.5,46.6,76.7,47.2z"/>
					<path id="XMLID_18651_" opacity="0.2" fill="#272525" d="M73.1,49.8c1.2,0.6,2.7,1.8,3.1,1.1L76,51.4c-0.4,0.7-1.9-0.5-3.1-1.1
						s-1.6-0.2-1.2-1l0.3-0.5C71.5,49.6,71.9,49.3,73.1,49.8z"/>
					<path id="XMLID_18650_" opacity="0.1" fill="#272525" d="M76.1,47.3c-1-0.5-2.3-1.6-2.7-0.9l0.2-0.3c0.4-0.7,1.9,0.5,3.1,1.1
						c1.2,0.6,1.6,0.2,1.2,1l-1.6,2.8c-0.2,0.3-0.5,0.3-0.8,0.2l1.7-2.8C77.5,47.5,77.1,47.8,76.1,47.3z"/>
				</g>
				<g id="XMLID_18645_">
					<path id="XMLID_18648_" fill="#B26028" d="M73.2,45.1c1.2,0.6,1.6,0.2,1.2,1l-1.9,3.2c-0.4,0.7-1.9-0.5-3.1-1.1
						c-1.2-0.6-1.6-0.2-1.2-1l1.9-3.2C70.5,43.3,72,44.6,73.2,45.1z"/>
					<path id="XMLID_18647_" opacity="0.2" fill="#272525" d="M69.6,47.8c1.2,0.6,2.7,1.8,3.1,1.1l-0.3,0.5
						c-0.4,0.7-1.9-0.5-3.1-1.1c-1.2-0.6-1.6-0.2-1.2-1l0.3-0.5C68,47.6,68.4,47.2,69.6,47.8z"/>
					<path id="XMLID_18646_" opacity="0.1" fill="#272525" d="M72.6,45.3c-1-0.5-2.3-1.6-2.7-0.9l0.2-0.3c0.4-0.7,1.9,0.5,3.1,1.1
						c1.2,0.6,1.6,0.2,1.2,1l-1.6,2.8c-0.2,0.3-0.5,0.3-0.8,0.2l1.7-2.8C74,45.4,73.6,45.8,72.6,45.3z"/>
				</g>
				<g id="XMLID_18641_">
					<path id="XMLID_18644_" fill="#B26028" d="M69.7,43.1c1.2,0.6,1.6,0.2,1.2,1L69,47.3c-0.4,0.7-1.9-0.5-3.1-1.1
						c-1.2-0.6-1.6-0.2-1.2-1l1.9-3.2C67,41.3,68.5,42.5,69.7,43.1z"/>
					<path id="XMLID_18643_" opacity="0.2" fill="#272525" d="M66.1,45.8c1.2,0.6,2.7,1.8,3.1,1.1L69,47.3c-0.4,0.7-1.9-0.5-3.1-1.1
						c-1.2-0.6-1.6-0.2-1.2-1l0.3-0.5C64.5,45.5,64.9,45.2,66.1,45.8z"/>
					<path id="XMLID_18642_" opacity="0.1" fill="#272525" d="M69.1,43.2c-1-0.5-2.3-1.6-2.7-0.9l0.2-0.3c0.4-0.7,1.9,0.5,3.1,1.1
						c1.2,0.6,1.6,0.2,1.2,1l-1.6,2.8c-0.2,0.3-0.5,0.3-0.8,0.2l1.7-2.8C70.5,43.4,70.1,43.7,69.1,43.2z"/>
				</g>
			</g>
		</g>
	</g>
	<g id="XMLID_18531_">
		<g id="XMLID_18546_">
			<g id="XMLID_18548_">
				<g id="XMLID_18550_">
					<defs>
						<polygon id="XMLID_18551_" points="89.1,31.4 89.1,31.4 89.1,31.4 84,28.5 84,36.8 89.1,39.8 94.2,36.8 94.2,28.5 						"/>
					</defs>
					<clipPath id="XMLID_4_">
						<use xlink:href="#XMLID_18551_"  overflow="visible"/>
					</clipPath>
					<g id="XMLID_18552_" clip-path="url(#XMLID_4_)">
						<g id="XMLID_18595_">
							<g id="XMLID_18598_">
								<polygon id="XMLID_18637_" fill="#C8C8C8" points="78.9,34.3 89.1,40.1 89.1,27.9 78.9,22.1 								"/>
								<g id="XMLID_18599_" opacity="0.3">
									<path id="XMLID_18623_" fill="#FFFFFF" d="M81.8,33.5l0,1.4l-2.9-1.7v-1.4L81.8,33.5z M82.3,35.2v-1.4l2.9,1.7l0,1.4
										L82.3,35.2z M85.2,31.6l0,1.4l-2.9-1.7v-1.4L85.2,31.6z M84,30.4v-1.4l2.9,1.7V32L84,30.4z M83.5,30.1l-2.9-1.7V27l2.9,1.7
										L83.5,30.1z M83.5,32.6l0,1.4l-2.9-1.7v-1.4L83.5,32.6z M86.9,34.5v1.4L84,34.3v-1.4L86.9,34.5z M81.8,29.6l0,1.4l-2.9-1.7
										v-1.4L81.8,29.6z M81.8,25.7l0,1.4l-2.9-1.7V24L81.8,25.7z M85.2,27.7l0,1.4l-2.9-1.7V26L85.2,27.7z M85.7,29.4v-1.4
										l2.9,1.7l0,1.4L85.7,29.4z M85.7,33.3v-1.4l2.9,1.7l0,1.4L85.7,33.3z M85.7,37.2v-1.4l2.9,1.7l0,1.4L85.7,37.2z"/>
									<polygon id="XMLID_18622_" points="80.6,23.1 81.4,23.5 80.6,23.1 									"/>
									<polygon id="XMLID_18621_" points="84,25 84,25 84,25 									"/>
									<polygon id="XMLID_18620_" points="80.1,22.8 80.1,24.2 78.9,23.5 78.9,22.1 									"/>
									<polygon id="XMLID_18619_" points="83.5,26.2 80.6,24.5 80.6,23.1 81.4,23.5 83.5,24.7 									"/>
									<polygon id="XMLID_18618_" points="86.9,28.1 84,26.4 84,25 84,25 86.9,26.7 									"/>
									<polygon id="XMLID_18617_" points="87.4,28.4 87.4,27 89.1,27.9 89.1,29.4 									"/>
									<polygon id="XMLID_18616_" points="87.4,36.2 87.4,34.8 89.1,35.8 89.1,37.2 									"/>
									<polygon id="XMLID_18615_" points="87.4,32.3 87.4,30.9 89.1,31.9 89.1,33.3 									"/>
									<polygon id="XMLID_18614_" points="85.7,31.8 88.6,33.5 88.6,34.9 85.7,33.3 									"/>
									<polygon id="XMLID_18613_" points="85.7,35.8 88.6,37.4 88.6,38.9 85.7,37.2 									"/>
									<polygon id="XMLID_18612_" points="82.3,27.4 82.3,26 85.2,27.7 85.2,29.1 									"/>
									<polygon id="XMLID_18611_" points="85.7,27.9 88.6,29.6 88.6,31 85.7,29.4 									"/>
									<polygon id="XMLID_18610_" points="78.9,25.5 78.9,24 81.8,25.7 81.8,27.1 									"/>
									<polygon id="XMLID_18609_" points="86.9,30.6 86.9,32 84,30.4 84,28.9 									"/>
									<polygon id="XMLID_18608_" points="82.3,31.3 82.3,29.9 85.2,31.6 85.2,33 									"/>
									<polygon id="XMLID_18607_" points="82.3,33.8 85.2,35.5 85.2,36.9 82.3,35.2 									"/>
									<polygon id="XMLID_18606_" points="86.9,35.9 84,34.3 84,32.8 86.9,34.5 									"/>
									<polygon id="XMLID_18605_" points="80.1,32 78.9,31.3 78.9,29.9 80.1,30.6 									"/>
									<polygon id="XMLID_18604_" points="81.8,35 78.9,33.3 78.9,31.9 81.8,33.5 									"/>
									<polygon id="XMLID_18603_" points="80.1,28.1 78.9,27.4 78.9,26 80.1,26.7 									"/>
									<polygon id="XMLID_18602_" points="81.8,31 78.9,29.4 78.9,27.9 81.8,29.6 									"/>
									<polygon id="XMLID_18601_" points="83.5,34 80.6,32.3 80.6,30.9 83.5,32.6 									"/>
									<polygon id="XMLID_18600_" points="80.6,27 83.5,28.7 83.5,30.1 80.6,28.4 									"/>
								</g>
							</g>
							<line id="XMLID_18597_" fill="#C8C8C8" x1="78.9" y1="22.1" x2="89.1" y2="27.9"/>
							<polygon id="XMLID_18596_" opacity="0.5" fill="#E08F58" points="78.9,34.3 89.1,40.1 89.1,27.9 78.9,22.1 							"/>
						</g>
						<g id="XMLID_18553_">
							<g id="XMLID_18555_">
								<polygon id="XMLID_18594_" fill="#C8C8C8" points="99.2,33.8 89.1,40.1 89.1,27.9 99.2,22.1 								"/>
								<g id="XMLID_18556_" opacity="0.3">
									<path id="XMLID_18580_" fill="#FFFFFF" d="M99.2,31.9v1.4L96.3,35l0-1.4L99.2,31.9z M93,36.9l0-1.4l2.9-1.7v1.4L93,36.9z
										 M95.9,29.9v1.4L93,33l0-1.4L95.9,29.9z M91.3,32l0-1.4l2.9-1.7v1.4L91.3,32z M94.6,28.7l2.9-1.7v1.4l-2.9,1.7L94.6,28.7z
										 M97.6,30.9v1.4L94.6,34l0-1.4L97.6,30.9z M94.2,32.8v1.4l-2.9,1.7l0-1.4L94.2,32.8z M99.2,27.9v1.4L96.3,31l0-1.4
										L99.2,27.9z M99.2,24v1.4l-2.9,1.7l0-1.4L99.2,24z M95.9,26v1.4L93,29.1l0-1.4L95.9,26z M89.6,31l0-1.4l2.9-1.7v1.4
										L89.6,31z M89.6,34.9l0-1.4l2.9-1.7v1.4L89.6,34.9z M89.6,38.9l0-1.4l2.9-1.7v1.4L89.6,38.9z"/>
									<polygon id="XMLID_18579_" points="97.6,23.1 96.8,23.5 97.6,23.1 									"/>
									<polygon id="XMLID_18578_" points="94.2,25 94.1,25 94.2,25 									"/>
									<polygon id="XMLID_18577_" points="98,22.8 98,24.2 99.2,23.5 99.2,22.1 									"/>
									<polygon id="XMLID_18576_" points="94.6,26.2 97.6,24.5 97.6,23.1 96.8,23.5 94.6,24.7 									"/>
									<polygon id="XMLID_18575_" points="91.3,28.1 94.2,26.4 94.2,25 94.1,25 91.3,26.7 									"/>
									<polygon id="XMLID_18574_" points="90.8,28.4 90.8,27 89.1,27.9 89.1,29.4 									"/>
									<polygon id="XMLID_18573_" points="90.8,36.2 90.8,34.8 89.1,35.8 89.1,37.2 									"/>
									<polygon id="XMLID_18572_" points="90.8,32.3 90.8,30.9 89.1,31.9 89.1,33.3 									"/>
									<polygon id="XMLID_18571_" points="92.5,31.8 89.6,33.5 89.6,34.9 92.5,33.3 									"/>
									<polygon id="XMLID_18570_" points="92.5,35.8 89.6,37.4 89.6,38.9 92.5,37.2 									"/>
									<polygon id="XMLID_18569_" points="95.9,27.4 95.9,26 93,27.7 93,29.1 									"/>
									<polygon id="XMLID_18568_" points="92.5,27.9 89.6,29.6 89.6,31 92.5,29.4 									"/>
									<polygon id="XMLID_18567_" points="99.2,25.5 99.2,24 96.3,25.7 96.3,27.1 									"/>
									<polygon id="XMLID_18566_" points="91.3,30.6 91.3,32 94.2,30.4 94.2,28.9 									"/>
									<polygon id="XMLID_18565_" points="95.9,31.3 95.9,29.9 93,31.6 93,33 									"/>
									<polygon id="XMLID_18564_" points="95.9,33.8 93,35.5 93,36.9 95.9,35.2 									"/>
									<polygon id="XMLID_18563_" points="91.3,35.9 94.2,34.3 94.2,32.8 91.3,34.5 									"/>
									<polygon id="XMLID_18562_" points="98,32 99.3,31.3 99.3,29.9 98,30.6 									"/>
									<polygon id="XMLID_18561_" points="96.3,35 99.2,33.3 99.2,31.9 96.3,33.5 									"/>
									<polygon id="XMLID_18560_" points="98,28.1 99.3,27.4 99.3,26 98,26.7 									"/>
									<polygon id="XMLID_18559_" points="96.3,31 99.2,29.4 99.2,27.9 96.3,29.6 									"/>
									<polygon id="XMLID_18558_" points="94.6,34 97.6,32.3 97.6,30.9 94.6,32.6 									"/>
									<polygon id="XMLID_18557_" points="97.6,27 94.6,28.7 94.6,30.1 97.6,28.4 									"/>
								</g>
							</g>
							<polygon id="XMLID_18554_" opacity="0.5" fill="#93430C" points="99.2,33.8 89.1,40.1 89.1,27.9 99.2,22.1 							"/>
						</g>
					</g>
				</g>
				<polygon id="XMLID_18549_" fill="#FFCFAE" points="94.2,28.5 89.1,25.6 84,28.5 84,28.5 84,28.5 89.1,31.4 94.2,28.5 94.2,28.5 
									"/>
			</g>
			<polygon id="XMLID_18547_" opacity="0.8" points="92.4,28.4 89.1,26.6 85.8,28.4 85.8,28.4 85.8,28.4 89.1,30.3 92.4,28.4 
				92.4,28.4 			"/>
		</g>
		<polygon id="XMLID_18532_" opacity="0.2" fill="#272525" points="89.1,39.8 84,36.8 84.6,40.9 89.8,43.8 94.8,41 94.2,36.8 		"/>
	</g>
</g>
</svg>
