<?xml version="1.0" encoding="utf-8"?>
<!-- Generator: Adobe Illustrator 16.0.0, SVG Export Plug-In . SVG Version: 6.00 Build 0)  -->
<!DOCTYPE svg PUBLIC "-//W3C//DTD SVG 1.1//EN" "http://www.w3.org/Graphics/SVG/1.1/DTD/svg11.dtd">
<svg version="1.1" id="Layer_1" xmlns="http://www.w3.org/2000/svg" xmlns:xlink="http://www.w3.org/1999/xlink" x="0px" y="0px"
	 width="164px" height="164px" viewBox="0 0 164 164" enable-background="new 0 0 164 164" xml:space="preserve">
<g id="XMLID_18851_">
	<g id="XMLID_18878_">
		<polygon id="XMLID_18879_" fill="#2B2927" points="95.9,58 89.3,61.8 91.3,62.9 97.9,59.1 		"/>
	</g>
	<g id="XMLID_18870_">
		<g id="XMLID_18876_">
			<g id="XMLID_18877_">
				<polygon fill="#D1BE6F" points="87.8,58.4 90,57.2 93.6,59.3 91.5,60.5 				"/>
				<path fill="#918243" d="M90,57.2l3.6,2.1l-2.1,1.2l-3.6-2.1L90,57.2 M90,57.1l-2.2,1.2l3.7,2.1l2.2-1.2L90,57.1L90,57.1z"/>
			</g>
		</g>
		<g id="XMLID_18875_">
			<polygon fill="#D1BE6F" points="85.7,59.6 87.8,58.4 91.5,60.5 89.3,61.7 			"/>
			<path fill="#918243" d="M87.8,58.4l3.6,2.1l-2.1,1.2l-3.6-2.1L87.8,58.4 M87.8,58.4l-2.2,1.2l3.7,2.1l2.2-1.2L87.8,58.4
				L87.8,58.4z"/>
		</g>
		<g id="XMLID_18874_">
			<polygon fill="#D1BE6F" points="90,57.1 92.2,55.9 95.8,58 93.7,59.2 			"/>
			<path fill="#918243" d="M92.1,55.9l3.6,2.1l-2.1,1.2l-3.6-2.1L92.1,55.9 M92.1,55.9L90,57.1l3.7,2.1l2.2-1.2L92.1,55.9L92.1,55.9
				z"/>
		</g>
		<polygon id="XMLID_18873_" opacity="0.2" points="92.1,56.5 92.1,55.9 85.6,59.6 86.2,59.9 		"/>
		<g id="XMLID_18872_">
			<polygon fill="#D1BE6F" points="87.5,60.7 89.7,59.5 91.5,60.5 89.3,61.7 			"/>
			<path fill="#918243" d="M89.7,59.5l1.7,1l-2.1,1.2l-1.7-1L89.7,59.5 M89.7,59.4l-2.2,1.2l1.8,1.1l2.2-1.2L89.7,59.4L89.7,59.4z"
				/>
		</g>
		<g id="XMLID_18871_">
			<polygon fill="#D1BE6F" points="91.8,58.2 94,57 95.8,58 93.7,59.2 			"/>
			<path fill="#918243" d="M94,57l1.7,1l-2.1,1.2l-1.7-1L94,57 M94,57l-2.2,1.2l1.8,1.1l2.2-1.2L94,57L94,57z"/>
		</g>
	</g>
	<path id="XMLID_18869_" opacity="0.8" fill="#1C1C1C" d="M90,53.8l-8,3.3c0.8,0.8,2.1,1.7,3.6,2.5l6.5-3.7
		C91.2,55.1,90.1,54.1,90,53.8z"/>
	<g id="XMLID_18861_">
		<path id="XMLID_18868_" fill="#3A3735" d="M89.5,51.2c-0.7-0.3-1.3-0.2-1.7,0.1l0,0l-6.2,3.4c0,0,0,0,0,0l0,0l0,0
			c-0.2,0.1-0.4,0.3-0.5,0.6c-0.2,0.7,0.4,1.6,1.4,2.1c0.6,0.3,1.3,0.3,1.7,0.1l0,0l5.8-3.3c0.3,0,0.6-0.2,0.7-0.4l0,0l0,0
			c0.1-0.1,0.1-0.2,0.1-0.3C91.1,52.6,90.5,51.6,89.5,51.2z"/>
		<path id="XMLID_18867_" opacity="0.2" fill="#FFFFFF" d="M84.6,56.9c-0.2,0.8-1.1,1-2.1,0.5c-1-0.5-1.6-1.4-1.4-2.1
			c0.2-0.7,1.1-1,2.1-0.6C84.1,55.1,84.7,56.1,84.6,56.9z"/>
		<path id="XMLID_18866_" opacity="0.1" fill="#FFFFFF" d="M82.8,54.6l6.3-3.5c-0.5-0.1-1-0.1-1.3,0.2l0,0l-6.2,3.4
			C81.9,54.5,82.4,54.5,82.8,54.6z"/>
		<path id="XMLID_18865_" fill="#2B2927" d="M90.9,53.1l-6.3,3.5c0,0.1,0,0.2,0,0.3c-0.1,0.2-0.2,0.4-0.4,0.6l0,0l5.9-3.2
			c0,0,0.5-0.3,0.7-0.6l0,0l0,0c0.1-0.1,0.1-0.2,0.1-0.3C90.9,53.3,90.9,53.2,90.9,53.1z"/>
		<path id="XMLID_18864_" opacity="0.4" fill="#3A3735" stroke="#FFFFFF" stroke-width="0.1" stroke-miterlimit="10" d="M83.7,56.7
			c-0.1,0.3-0.6,0.3-1,0.1c-0.4-0.2-0.7-0.7-0.6-0.9c0.1-0.3,0.6-0.3,1-0.1C83.6,55.9,83.9,56.4,83.7,56.7z"/>
		<path id="XMLID_18863_" opacity="0.2" fill="none" stroke="#FFFFFF" stroke-width="0.1" stroke-miterlimit="10" d="M84.2,57.1
			c-0.3,0.6-1.2,0.5-1.9,0c-0.7-0.5-1.1-1.4-0.8-1.9c0.3-0.5,1.2-0.5,1.9,0C84.2,55.7,84.5,56.5,84.2,57.1z"/>
		<path id="XMLID_18862_" opacity="0.2" fill="#3A3735" stroke="#FFFFFF" stroke-width="0.1" stroke-miterlimit="10" d="M84,56.9
			c-0.3,0.4-0.9,0.4-1.6-0.1c-0.6-0.4-0.9-1.1-0.7-1.5c0.2-0.4,0.9-0.4,1.6,0C83.9,55.8,84.2,56.5,84,56.9z"/>
	</g>
	<path id="XMLID_18860_" opacity="4.000000e-002" fill="#FFFFFF" d="M89.2,51.3c0,0,0.8,0.2,1,0.7c0,0-1.9,0.3-6.1,2.1L89.2,51.3z"
		/>
	<g id="XMLID_18856_">
		<g id="XMLID_18859_">
			<polygon fill="#918243" points="89.3,58.1 89.2,57.8 97,51.5 97.1,51.9 91.8,58.5 			"/>
			<path fill="#918243" d="M97,51.6l0.1,0.3l-5.3,6.6l-2.4-0.4l-0.1-0.3L97,51.6 M97,51.5l-7.8,6.2l0.1,0.4l2.5,0.4l5.4-6.6L97,51.5
				L97,51.5z"/>
		</g>
		<g id="XMLID_18858_">
			<polygon fill="#D1BE6F" points="89.2,57.7 94.6,51.2 97,51.5 91.6,58.1 			"/>
			<path fill="#918243" d="M94.6,51.2l2.4,0.4l-5.3,6.5l-2.4-0.4L94.6,51.2 M94.5,51.1l-5.3,6.6l2.5,0.4l5.4-6.6L94.5,51.1
				L94.5,51.1z"/>
		</g>
		<polygon id="XMLID_18857_" fill="#665B2B" stroke="#665B2B" stroke-width="5.000000e-002" stroke-miterlimit="10" points="
			97,51.5 97.1,51.9 91.8,58.5 91.7,58.2 		"/>
	</g>
	<g id="XMLID_18852_">
		<g id="XMLID_18855_">
			<polygon fill="#918243" points="90.5,57.6 90.5,57.2 99.8,53.5 99.7,53.9 92.7,58.7 			"/>
			<path fill="#918243" d="M99.7,53.6l0,0.3l-7,4.8l-2.2-1.1l0-0.3L99.7,53.6 M99.7,53.5l-9.3,3.7l0,0.4l2.3,1.1l7-4.8L99.7,53.5
				L99.7,53.5z"/>
		</g>
		<g id="XMLID_18854_">
			<polygon fill="#D1BE6F" points="90.5,57.2 97.5,52.5 99.7,53.5 92.7,58.3 			"/>
			<path fill="#918243" d="M97.5,52.5l2.1,1l-6.9,4.7l-2.1-1L97.5,52.5 M97.5,52.4l-7,4.8l2.2,1.1l7-4.8L97.5,52.4L97.5,52.4z"/>
		</g>
		<polygon id="XMLID_18853_" fill="#665B2B" stroke="#665B2B" stroke-width="5.000000e-002" stroke-miterlimit="10" points="
			99.7,53.5 99.8,53.9 92.7,58.7 92.7,58.3 		"/>
	</g>
</g>
</svg>
