<?xml version="1.0" encoding="utf-8"?>
<!-- Generator: Adobe Illustrator 16.0.0, SVG Export Plug-In . SVG Version: 6.00 Build 0)  -->
<!DOCTYPE svg PUBLIC "-//W3C//DTD SVG 1.1//EN" "http://www.w3.org/Graphics/SVG/1.1/DTD/svg11.dtd">
<svg version="1.1" id="Layer_1" xmlns="http://www.w3.org/2000/svg" xmlns:xlink="http://www.w3.org/1999/xlink" x="0px" y="0px"
	 width="164px" height="164px" viewBox="0 0 164 164" enable-background="new 0 0 164 164" xml:space="preserve">
<g id="XMLID_17604_">
	<g id="XMLID_17756_">
		<g id="XMLID_17851_">
			<g id="XMLID_18008_">
				<g id="XMLID_18189_">
					<defs>
						<polygon id="XMLID_18190_" points="89.1,69.5 103.3,45 117.4,53.2 						"/>
					</defs>
					<clipPath id="XMLID_4_">
						<use xlink:href="#XMLID_18190_"  overflow="visible"/>
					</clipPath>
					<g id="XMLID_18246_" clip-path="url(#XMLID_4_)">
						<defs>
							<polygon id="XMLID_18247_" points="89.1,69.5 103.3,45 117.4,53.2 							"/>
						</defs>
						<use xlink:href="#XMLID_18247_"  overflow="visible" fill="#AD856A"/>
						<clipPath id="XMLID_5_">
							<use xlink:href="#XMLID_18247_"  overflow="visible"/>
						</clipPath>
					</g>
					<g id="XMLID_18191_" clip-path="url(#XMLID_4_)">
						<polygon id="XMLID_18245_" fill="#90674C" points="103.3,47 103.3,47 105.6,45.6 105.6,43.6 103.3,45 101.6,46 101.6,48 
													"/>
						<polygon id="XMLID_18244_" fill="#90674C" points="100.9,48.4 100.9,46.4 99.8,47 96.9,48.7 96.9,50.7 						"/>
						<polygon id="XMLID_18243_" fill="#90674C" points="96.2,51.1 96.2,49.1 96.1,49.1 92.1,51.5 92.1,53.5 						"/>
						<polygon id="XMLID_18242_" fill="#90674C" points="91.4,51.8 89.1,53.2 89.1,55.2 91.4,53.8 						"/>
						<polygon id="XMLID_18241_" fill="#90674C" points="94.5,54.8 98.6,52.5 98.6,50.5 94.5,52.8 						"/>
						<polygon id="XMLID_18240_" fill="#90674C" points="89.7,55.5 89.7,57.5 93.8,55.2 93.8,53.2 						"/>
						<polygon id="XMLID_18239_" fill="#90674C" points="103.3,47.8 99.2,50.1 99.2,52.1 103.3,49.8 						"/>
						<polygon id="XMLID_18238_" fill="#90674C" points="89.7,68.5 93.8,66.1 93.8,64.1 89.7,66.5 						"/>
						<polygon id="XMLID_18237_" fill="#90674C" points="94.5,65.8 98.6,63.4 98.6,61.4 94.5,63.8 						"/>
						<polygon id="XMLID_18236_" fill="#90674C" points="89.7,63 93.8,60.7 93.8,58.7 89.7,61 						"/>
						<polygon id="XMLID_18235_" fill="#90674C" points="98.6,55.9 94.5,58.3 94.5,60.3 98.6,57.9 						"/>
						<polygon id="XMLID_18234_" fill="#90674C" points="91.4,62.8 89.1,64.2 89.1,66.2 91.4,64.8 						"/>
						<polygon id="XMLID_18233_" fill="#90674C" points="96.2,62.1 96.2,60.1 92.1,62.4 92.1,64.4 						"/>
						<polygon id="XMLID_18216_" fill="#90674C" points="103.3,58 103.3,56 101.6,57 101.6,58.9 						"/>
						<polygon id="XMLID_18215_" fill="#90674C" points="91.4,57.3 89.1,58.7 89.1,60.7 91.4,59.3 						"/>
						<polygon id="XMLID_18214_" fill="#90674C" points="96.2,56.6 96.2,54.6 92.1,56.9 92.1,58.9 						"/>
						<polygon id="XMLID_18213_" fill="#90674C" points="96.9,56.2 100.9,53.9 100.9,51.9 96.9,54.2 						"/>
						<polygon id="XMLID_18212_" fill="#90674C" points="115.8,37.8 115.8,39.8 117.5,38.8 117.5,36.8 						"/>
						<polygon id="XMLID_18210_" fill="#90674C" points="115.1,40.2 115.1,38.2 114,38.8 111,40.5 111,42.5 						"/>
						<polygon id="XMLID_18209_" fill="#90674C" points="110.4,42.9 110.4,40.9 110.3,41 106.3,43.3 106.3,45.3 						"/>
						<polygon id="XMLID_18208_" fill="#90674C" points="108.7,46.6 112.7,44.3 112.7,42.3 108.7,44.6 						"/>
						<polygon id="XMLID_18207_" fill="#90674C" points="103.9,49.4 108,47 108,45 103.9,47.4 						"/>
						<polygon id="XMLID_18206_" fill="#90674C" points="113.4,43.9 117.5,41.6 117.5,39.6 113.4,41.9 						"/>
						<polygon id="XMLID_18204_" fill="#90674C" points="113.4,54.8 117.5,52.5 117.5,50.5 113.4,52.9 						"/>
						<polygon id="XMLID_18203_" fill="#90674C" points="108,52.5 108,50.5 103.9,52.8 103.9,54.8 						"/>
						<polygon id="XMLID_18202_" fill="#90674C" points="108.7,52.1 112.7,49.8 112.7,47.8 108.7,50.1 						"/>
						<polygon id="XMLID_18201_" fill="#90674C" points="113.4,49.4 117.5,47 117.5,45 113.4,47.4 						"/>
						<polygon id="XMLID_18200_" fill="#90674C" points="105.6,54.6 103.3,56 103.3,58 105.6,56.6 						"/>
						<polygon id="XMLID_18198_" fill="#90674C" points="110.4,53.9 110.4,51.9 106.3,54.2 106.3,56.2 						"/>
						<polygon id="XMLID_18197_" fill="#90674C" points="115.8,50.8 117.5,49.8 117.5,47.8 115.8,48.8 						"/>
						<polygon id="XMLID_18196_" fill="#90674C" points="111,53.5 115.1,51.1 115.1,49.1 111,51.5 						"/>
						<polygon id="XMLID_18195_" fill="#90674C" points="106.3,50.8 110.4,48.4 110.4,46.4 106.3,48.8 						"/>
						<polygon id="XMLID_18194_" fill="#90674C" points="115.8,45.3 117.5,44.3 117.5,42.3 115.8,43.3 						"/>
						<polygon id="XMLID_18192_" fill="#90674C" points="115.1,43.7 111,46 111,48 115.1,45.7 						"/>
					</g>
				</g>
				<g id="XMLID_18009_">
					<path id="XMLID_18188_" fill="#544129" d="M107.5,54c0,2.3-1.6,4.9-3.5,5.8c-1.9,0.9-3.5-0.2-3.5-2.5c0-2.3,1.6-4.9,3.5-5.8
						C106,50.6,107.5,51.7,107.5,54z"/>
					<g id="XMLID_18187_" opacity="0.1">
						<path d="M105.4,51.2c-0.4,0-0.8,0.1-1.3,0.3c-1.9,0.9-3.5,3.5-3.5,5.8c0,1.7,0.9,2.8,2.2,2.8c0.4,0,0.8-0.1,1.3-0.3
							c1.9-0.9,3.5-3.5,3.5-5.8C107.5,52.2,106.6,51.2,105.4,51.2L105.4,51.2z"/>
					</g>
					<path id="XMLID_18185_" fill="#78D5FB" d="M105.4,52.1c-0.3,0-0.6,0.1-0.9,0.2c-1.6,0.8-3,3.1-3,5c0,0.9,0.3,1.9,1.3,1.9
						c0.3,0,0.6-0.1,0.9-0.2c1.6-0.8,3-3.1,3-5C106.7,53.1,106.3,52.1,105.4,52.1z"/>
					<path id="XMLID_18184_" fill="#78D5FB" d="M106.1,54c0-0.8-0.3-1.7-1-1.9c-0.2,0-0.4,0.1-0.6,0.2c-1.6,0.8-3,3.1-3,5
						c0,0.8,0.3,1.7,1,1.9c0.2,0,0.4-0.1,0.6-0.2C104.7,58.2,106.1,55.9,106.1,54z"/>
					<g id="XMLID_18014_">
						<defs>
							<path id="XMLID_18015_" d="M105.4,52.1c-0.1,0-0.2,0-0.3,0c-0.2,0-0.4,0.1-0.6,0.2c-1.6,0.8-3,3.1-3,5c0,0.8,0.3,1.7,1,1.9
								c0.1,0,0.2,0,0.3,0c0.3,0,0.6-0.1,0.9-0.2c1.6-0.8,3-3.1,3-5C106.7,53.1,106.3,52.1,105.4,52.1z"/>
						</defs>
						<clipPath id="XMLID_6_">
							<use xlink:href="#XMLID_18015_"  overflow="visible"/>
						</clipPath>
						<g id="XMLID_18017_" clip-path="url(#XMLID_6_)">
							<g id="XMLID_18183_">
								<polygon fill="#78D5FB" points="101.4,60.6 107.2,57.1 107.2,50.4 101.4,53.9 								"/>
							</g>
							<g id="XMLID_18177_">
								<polygon id="XMLID_18182_" fill="#78D5FB" points="104.3,58.6 106.5,57.4 106.5,51 104.3,52.3 								"/>
								<path id="XMLID_18181_" opacity="0.2" d="M104.3,52.3l2.2-1.3v6.4l-1.4,0.8c0-1.6,0.6-2.8,0.6-2.8
									C104.5,55.4,104.3,52.3,104.3,52.3z"/>
								<g id="XMLID_18178_" opacity="0.6">
									<path id="XMLID_18179_" fill="#C6C6C6" d="M104.8,52l2.5-1.8l1,7.1l-2.8,0.6c0-1.6,0.4-2.7,0.4-2.7
										C105,55.2,104.8,52,104.8,52z"/>
								</g>
							</g>
							<g id="XMLID_18020_">
								<polygon id="XMLID_18176_" fill="#78D5FB" points="104,58.8 101.6,60.2 101.6,53.9 104,52.4 								"/>
								<path id="XMLID_18175_" opacity="0.2" d="M104,52.4l-2.5,1.4v6.4l1.5-0.9c0-1.6-0.6-2.1-0.6-2.1
									C103.8,55.9,104,52.4,104,52.4z"/>
								<g id="XMLID_18021_" opacity="0.6">
									<path id="XMLID_18162_" fill="#C6C6C6" d="M103.5,52.8l-2.5,1.7v6.4l1.8-1.2c0-1.6-0.5-2.2-0.5-2.2
										C103.3,56.2,103.5,52.8,103.5,52.8z"/>
								</g>
							</g>
							<path id="XMLID_18019_" opacity="0.6" fill="#FFFFFF" d="M105,51.9l1.8-1.1v6.4l-1.2,0.8c0-1.6,0.4-2.7,0.4-2.7
								C105.1,55.1,105,51.9,105,51.9z"/>
							<path id="XMLID_18018_" opacity="0.6" fill="#FFFFFF" d="M103.3,52.8l-1.8,1v6.4l1.1-0.6c0-1.6-0.4-2.2-0.4-2.2
								C103.1,56.2,103.3,52.8,103.3,52.8z"/>
						</g>
					</g>
					<path id="XMLID_18012_" opacity="8.000000e-002" d="M105.1,52.1c-0.2,0-0.4,0.1-0.6,0.2c-0.8,0.4-1.5,1.1-2,1.9
						c1.7,0.4,2.6,1.2,3,2.1c0.4-0.8,0.6-1.6,0.6-2.4C106.1,53.2,105.8,52.3,105.1,52.1z"/>
					<path id="XMLID_18011_" opacity="0.3" d="M105.4,52.1c-0.1,0-0.2,0-0.3,0c0.7,0.2,1,1.1,1,1.9c0,1.9-1.4,4.3-3,5
						c-0.2,0.1-0.4,0.2-0.6,0.2c0.1,0,0.2,0,0.3,0c0.3,0,0.6-0.1,0.9-0.2c1.6-0.8,3-3.1,3-5C106.7,53.1,106.3,52.1,105.4,52.1z"/>
				</g>
			</g>
			<g id="XMLID_17852_">
				<polygon id="XMLID_18007_" fill="#7C4723" points="120,54.7 103.2,45 103.2,45 90.4,37.6 75,64.3 89.2,72.5 103.8,47.2 
					118.3,55.6 				"/>
				<g id="XMLID_17853_">
					<g id="XMLID_17979_">
						<g id="XMLID_18003_">
							<path id="XMLID_18006_" fill="#B26028" d="M88.4,67.4c1.2,0.6,1.6,0.2,1.2,1l-1.9,3.2c-0.4,0.7-1.9-0.5-3.1-1.1
								c-1.2-0.6-1.6-0.2-1.2-1l1.9-3.2C85.7,65.6,87.2,66.8,88.4,67.4z"/>
							<path id="XMLID_18005_" opacity="0.2" fill="#272525" d="M84.8,70.1c1.2,0.6,2.7,1.8,3.1,1.1l-0.3,0.5
								c-0.4,0.7-1.9-0.5-3.1-1.1c-1.2-0.6-1.6-0.2-1.2-1l0.3-0.5C83.2,69.8,83.6,69.5,84.8,70.1z"/>
							<path id="XMLID_18004_" opacity="0.1" fill="#272525" d="M87.8,67.6c-1-0.5-2.3-1.6-2.7-0.9l0.2-0.3c0.4-0.7,1.9,0.5,3.1,1.1
								s1.6,0.2,1.2,1l-1.6,2.8c-0.2,0.3-0.5,0.3-0.8,0.2l1.7-2.8C89.2,67.7,88.8,68,87.8,67.6z"/>
						</g>
						<g id="XMLID_17999_">
							<path id="XMLID_18002_" fill="#B26028" d="M84.9,65.4c1.2,0.6,1.6,0.2,1.2,1l-1.9,3.2c-0.4,0.7-1.9-0.5-3.1-1.1
								c-1.2-0.6-1.6-0.2-1.2-1l1.9-3.2C82.2,63.6,83.7,64.8,84.9,65.4z"/>
							<path id="XMLID_18001_" opacity="0.2" fill="#272525" d="M81.3,68c1.2,0.6,2.7,1.8,3.1,1.1l-0.3,0.5
								c-0.4,0.7-1.9-0.5-3.1-1.1c-1.2-0.6-1.6-0.2-1.2-1l0.3-0.5C79.7,67.8,80.1,67.5,81.3,68z"/>
							<path id="XMLID_18000_" opacity="0.1" fill="#272525" d="M84.3,65.5c-1-0.5-2.3-1.6-2.7-0.9l0.2-0.3c0.4-0.7,1.9,0.5,3.1,1.1
								c1.2,0.6,1.6,0.2,1.2,1l-1.6,2.8c-0.2,0.3-0.5,0.3-0.8,0.2l1.7-2.8C85.7,65.7,85.3,66,84.3,65.5z"/>
						</g>
						<g id="XMLID_17990_">
							<path id="XMLID_17998_" fill="#B26028" d="M81.4,63.3c1.2,0.6,1.6,0.2,1.2,1l-1.9,3.2c-0.4,0.7-1.9-0.5-3.1-1.1
								c-1.2-0.6-1.6-0.2-1.2-1l1.9-3.2C78.7,61.5,80.2,62.8,81.4,63.3z"/>
							<path id="XMLID_17996_" opacity="0.2" fill="#272525" d="M77.8,66c1.2,0.6,2.7,1.8,3.1,1.1l-0.3,0.5
								c-0.4,0.7-1.9-0.5-3.1-1.1c-1.2-0.6-1.6-0.2-1.2-1l0.3-0.5C76.2,65.8,76.6,65.4,77.8,66z"/>
							<path id="XMLID_17995_" opacity="0.1" fill="#272525" d="M80.8,63.5c-1-0.5-2.3-1.6-2.7-0.9l0.2-0.3c0.4-0.7,1.9,0.5,3.1,1.1
								c1.2,0.6,1.6,0.2,1.2,1L81,67.1c-0.2,0.3-0.5,0.3-0.8,0.2l1.7-2.8C82.2,63.6,81.8,64,80.8,63.5z"/>
						</g>
						<g id="XMLID_17980_">
							<path id="XMLID_17989_" fill="#B26028" d="M77.9,61.3c1.2,0.6,1.6,0.2,1.2,1l-1.9,3.2c-0.4,0.7-1.9-0.5-3.1-1.1
								c-1.2-0.6-1.6-0.2-1.2-1l1.9-3.2C75.2,59.5,76.7,60.7,77.9,61.3z"/>
							<path id="XMLID_17984_" opacity="0.2" fill="#272525" d="M74.3,64c1.2,0.6,2.7,1.8,3.1,1.1l-0.3,0.5
								c-0.4,0.7-1.9-0.5-3.1-1.1c-1.2-0.6-1.6-0.2-1.2-1l0.3-0.5C72.7,63.7,73.2,63.4,74.3,64z"/>
							<path id="XMLID_17983_" opacity="0.1" fill="#272525" d="M77.3,61.4c-1-0.5-2.3-1.6-2.7-0.9l0.2-0.3c0.4-0.7,1.9,0.5,3.1,1.1
								c1.2,0.6,1.6,0.2,1.2,1L77.5,65c-0.2,0.3-0.5,0.3-0.8,0.2l1.7-2.8C78.7,61.6,78.3,61.9,77.3,61.4z"/>
						</g>
					</g>
					<g id="XMLID_17959_">
						<g id="XMLID_17972_">
							<path id="XMLID_17978_" fill="#B26028" d="M90.3,64.1c1.2,0.6,1.6,0.2,1.2,1l-1.9,3.2c-0.4,0.7-1.9-0.5-3.1-1.1
								s-1.6-0.2-1.2-1l1.9-3.2C87.6,62.2,89.1,63.5,90.3,64.1z"/>
							<path id="XMLID_17974_" opacity="0.2" fill="#272525" d="M86.8,66.7c1.2,0.6,2.7,1.8,3.1,1.1l-0.3,0.5
								c-0.4,0.7-1.9-0.5-3.1-1.1s-1.6-0.2-1.2-1l0.3-0.5C85.1,66.5,85.6,66.2,86.8,66.7z"/>
							<path id="XMLID_17973_" opacity="0.1" fill="#272525" d="M89.7,64.2c-1-0.5-2.3-1.6-2.7-0.9l0.2-0.3c0.4-0.7,1.9,0.5,3.1,1.1
								s1.6,0.2,1.2,1l-1.6,2.8c-0.2,0.3-0.5,0.3-0.8,0.2l1.7-2.8C91.1,64.3,90.7,64.7,89.7,64.2z"/>
						</g>
						<g id="XMLID_17968_">
							<path id="XMLID_17971_" fill="#B26028" d="M86.8,62c1.2,0.6,1.6,0.2,1.2,1l-1.9,3.2c-0.4,0.7-1.9-0.5-3.1-1.1
								c-1.2-0.6-1.6-0.2-1.2-1l1.9-3.2C84.1,60.2,85.6,61.5,86.8,62z"/>
							<path id="XMLID_17970_" opacity="0.2" fill="#272525" d="M83.3,64.7c1.2,0.6,2.7,1.8,3.1,1.1l-0.3,0.5
								c-0.4,0.7-1.9-0.5-3.1-1.1c-1.2-0.6-1.6-0.2-1.2-1l0.3-0.5C81.6,64.5,82.1,64.1,83.3,64.7z"/>
							<path id="XMLID_17969_" opacity="0.1" fill="#272525" d="M86.2,62.2c-1-0.5-2.3-1.6-2.7-0.9l0.2-0.3c0.4-0.7,1.9,0.5,3.1,1.1
								c1.2,0.6,1.6,0.2,1.2,1l-1.6,2.8c-0.2,0.3-0.5,0.3-0.8,0.2l1.7-2.8C87.7,62.3,87.2,62.7,86.2,62.2z"/>
						</g>
						<g id="XMLID_17964_">
							<path id="XMLID_17967_" fill="#B26028" d="M83.3,60c1.2,0.6,1.6,0.2,1.2,1l-1.9,3.2c-0.4,0.7-1.9-0.5-3.1-1.1
								c-1.2-0.6-1.6-0.2-1.2-1l1.9-3.2C80.6,58.2,82.1,59.4,83.3,60z"/>
							<path id="XMLID_17966_" opacity="0.2" fill="#272525" d="M79.8,62.7c1.2,0.6,2.7,1.8,3.1,1.1l-0.3,0.5
								c-0.4,0.7-1.9-0.5-3.1-1.1c-1.2-0.6-1.6-0.2-1.2-1l0.3-0.5C78.1,62.4,78.6,62.1,79.8,62.7z"/>
							<path id="XMLID_17965_" opacity="0.1" fill="#272525" d="M82.7,60.1c-1-0.5-2.3-1.6-2.7-0.9l0.2-0.3c0.4-0.7,1.9,0.5,3.1,1.1
								c1.2,0.6,1.6,0.2,1.2,1l-1.6,2.8C82.7,64,82.4,64,82,63.9l1.7-2.8C84.2,60.3,83.7,60.6,82.7,60.1z"/>
						</g>
						<g id="XMLID_17960_">
							<path id="XMLID_17963_" fill="#B26028" d="M79.8,57.9c1.2,0.6,1.6,0.2,1.2,1l-1.9,3.2c-0.4,0.7-1.9-0.5-3.1-1.1
								c-1.2-0.6-1.6-0.2-1.2-1l1.9-3.2C77.1,56.1,78.6,57.4,79.8,57.9z"/>
							<path id="XMLID_17962_" opacity="0.2" fill="#272525" d="M76.3,60.6c1.2,0.6,2.7,1.8,3.1,1.1l-0.3,0.5
								c-0.4,0.7-1.9-0.5-3.1-1.1c-1.2-0.6-1.6-0.2-1.2-1l0.3-0.5C74.6,60.4,75.1,60.1,76.3,60.6z"/>
							<path id="XMLID_17961_" opacity="0.1" fill="#272525" d="M79.2,58.1c-1-0.5-2.3-1.6-2.7-0.9l0.2-0.3c0.4-0.7,1.9,0.5,3.1,1.1
								c1.2,0.6,1.6,0.2,1.2,1l-1.6,2.8c-0.2,0.3-0.5,0.3-0.8,0.2l1.7-2.8C80.7,58.2,80.2,58.6,79.2,58.1z"/>
						</g>
					</g>
					<g id="XMLID_17907_">
						<g id="XMLID_17942_">
							<g id="XMLID_17955_">
								<path id="XMLID_17958_" fill="#B26028" d="M92.2,60.7c1.2,0.6,1.6,0.2,1.2,1l-1.9,3.2c-0.4,0.7-1.9-0.5-3.1-1.1
									s-1.6-0.2-1.2-1l1.9-3.2C89.5,58.9,91,60.1,92.2,60.7z"/>
								<path id="XMLID_17957_" opacity="0.2" fill="#272525" d="M88.7,63.4c1.2,0.6,2.7,1.8,3.1,1.1l-0.3,0.5
									c-0.4,0.7-1.9-0.5-3.1-1.1s-1.6-0.2-1.2-1l0.3-0.5C87,63.2,87.5,62.8,88.7,63.4z"/>
								<path id="XMLID_17956_" opacity="0.1" fill="#272525" d="M91.6,60.9c-1-0.5-2.3-1.6-2.7-0.9l0.2-0.3
									c0.4-0.7,1.9,0.5,3.1,1.1s1.6,0.2,1.2,1l-1.6,2.8c-0.2,0.3-0.5,0.3-0.8,0.2l1.7-2.8C93.1,61,92.6,61.3,91.6,60.9z"/>
							</g>
							<g id="XMLID_17951_">
								<path id="XMLID_17954_" fill="#B26028" d="M88.7,58.7c1.2,0.6,1.6,0.2,1.2,1L88,62.9c-0.4,0.7-1.9-0.5-3.1-1.1
									s-1.6-0.2-1.2-1l1.9-3.2C86,56.9,87.5,58.1,88.7,58.7z"/>
								<path id="XMLID_17953_" opacity="0.2" fill="#272525" d="M85.2,61.3c1.2,0.6,2.7,1.8,3.1,1.1L88,62.9
									c-0.4,0.7-1.9-0.5-3.1-1.1s-1.6-0.2-1.2-1l0.3-0.5C83.5,61.1,84,60.8,85.2,61.3z"/>
								<path id="XMLID_17952_" opacity="0.1" fill="#272525" d="M88.1,58.8c-1-0.5-2.3-1.6-2.7-0.9l0.2-0.3
									c0.4-0.7,1.9,0.5,3.1,1.1s1.6,0.2,1.2,1l-1.6,2.8c-0.2,0.3-0.5,0.3-0.8,0.2l1.7-2.8C89.6,59,89.2,59.3,88.1,58.8z"/>
							</g>
							<g id="XMLID_17947_">
								<path id="XMLID_17950_" fill="#B26028" d="M85.2,56.6c1.2,0.6,1.6,0.2,1.2,1l-1.9,3.2c-0.4,0.7-1.9-0.5-3.1-1.1
									c-1.2-0.6-1.6-0.2-1.2-1l1.9-3.2C82.5,54.8,84,56.1,85.2,56.6z"/>
								<path id="XMLID_17949_" opacity="0.2" fill="#272525" d="M81.7,59.3c1.2,0.6,2.7,1.8,3.1,1.1l-0.3,0.5
									c-0.4,0.7-1.9-0.5-3.1-1.1c-1.2-0.6-1.6-0.2-1.2-1l0.3-0.5C80,59.1,80.5,58.7,81.7,59.3z"/>
								<path id="XMLID_17948_" opacity="0.1" fill="#272525" d="M84.6,56.8c-1-0.5-2.3-1.6-2.7-0.9l0.2-0.3
									c0.4-0.7,1.9,0.5,3.1,1.1c1.2,0.6,1.6,0.2,1.2,1l-1.6,2.8c-0.2,0.3-0.5,0.3-0.8,0.2l1.7-2.8C86.1,56.9,85.7,57.3,84.6,56.8z
									"/>
							</g>
							<g id="XMLID_17943_">
								<path id="XMLID_17946_" fill="#B26028" d="M81.7,54.6c1.2,0.6,1.6,0.2,1.2,1L81,58.8c-0.4,0.7-1.9-0.5-3.1-1.1
									c-1.2-0.6-1.6-0.2-1.2-1l1.9-3.2C79,52.8,80.5,54,81.7,54.6z"/>
								<path id="XMLID_17945_" opacity="0.2" fill="#272525" d="M78.2,57.3c1.2,0.6,2.7,1.8,3.1,1.1L81,58.8
									c-0.4,0.7-1.9-0.5-3.1-1.1c-1.2-0.6-1.6-0.2-1.2-1l0.3-0.5C76.5,57,77,56.7,78.2,57.3z"/>
								<path id="XMLID_17944_" opacity="0.1" fill="#272525" d="M81.1,54.7c-1-0.5-2.3-1.6-2.7-0.9l0.2-0.3
									c0.4-0.7,1.9,0.5,3.1,1.1c1.2,0.6,1.6,0.2,1.2,1l-1.6,2.8c-0.2,0.3-0.5,0.3-0.8,0.2l1.7-2.8C82.6,54.9,82.2,55.2,81.1,54.7z
									"/>
							</g>
						</g>
						<g id="XMLID_17925_">
							<g id="XMLID_17938_">
								<path id="XMLID_17941_" fill="#B26028" d="M94.1,57.4c1.2,0.6,1.6,0.2,1.2,1l-1.9,3.2c-0.4,0.7-1.9-0.5-3.1-1.1
									c-1.2-0.6-1.6-0.2-1.2-1l1.9-3.2C91.5,55.6,92.9,56.8,94.1,57.4z"/>
								<path id="XMLID_17940_" opacity="0.2" fill="#272525" d="M90.6,60c1.2,0.6,2.7,1.8,3.1,1.1l-0.3,0.5
									c-0.4,0.7-1.9-0.5-3.1-1.1c-1.2-0.6-1.6-0.2-1.2-1l0.3-0.5C89,59.8,89.4,59.5,90.6,60z"/>
								<path id="XMLID_17939_" opacity="0.1" fill="#272525" d="M93.5,57.5c-1-0.5-2.3-1.6-2.7-0.9l0.2-0.3
									c0.4-0.7,1.9,0.5,3.1,1.1s1.6,0.2,1.2,1l-1.6,2.8c-0.2,0.3-0.5,0.3-0.8,0.2l1.7-2.8C95,57.7,94.6,58,93.5,57.5z"/>
							</g>
							<g id="XMLID_17934_">
								<path id="XMLID_17937_" fill="#B26028" d="M90.6,55.3c1.2,0.6,1.6,0.2,1.2,1l-1.9,3.2c-0.4,0.7-1.9-0.5-3.1-1.1
									s-1.6-0.2-1.2-1l1.9-3.2C88,53.5,89.4,54.8,90.6,55.3z"/>
								<path id="XMLID_17936_" opacity="0.2" fill="#272525" d="M87.1,58c1.2,0.6,2.7,1.8,3.1,1.1l-0.3,0.5
									c-0.4,0.7-1.9-0.5-3.1-1.1s-1.6-0.2-1.2-1l0.3-0.5C85.5,57.8,85.9,57.4,87.1,58z"/>
								<path id="XMLID_17935_" opacity="0.1" fill="#272525" d="M90,55.5c-1-0.5-2.3-1.6-2.7-0.9l0.2-0.3c0.4-0.7,1.9,0.5,3.1,1.1
									s1.6,0.2,1.2,1l-1.6,2.8c-0.2,0.3-0.5,0.3-0.8,0.2l1.7-2.8C91.5,55.6,91.1,56,90,55.5z"/>
							</g>
							<g id="XMLID_17930_">
								<path id="XMLID_17933_" fill="#B26028" d="M87.1,53.3c1.2,0.6,1.6,0.2,1.2,1l-1.9,3.2c-0.4,0.7-1.9-0.5-3.1-1.1
									s-1.6-0.2-1.2-1l1.9-3.2C84.5,51.5,85.9,52.7,87.1,53.3z"/>
								<path id="XMLID_17932_" opacity="0.2" fill="#272525" d="M83.6,56c1.2,0.6,2.7,1.8,3.1,1.1l-0.3,0.5
									c-0.4,0.7-1.9-0.5-3.1-1.1s-1.6-0.2-1.2-1l0.3-0.5C82,55.7,82.4,55.4,83.6,56z"/>
								<path id="XMLID_17931_" opacity="0.1" fill="#272525" d="M86.5,53.4c-1-0.5-2.3-1.6-2.7-0.9l0.2-0.3
									c0.4-0.7,1.9,0.5,3.1,1.1s1.6,0.2,1.2,1L86.7,57c-0.2,0.3-0.5,0.3-0.8,0.2l1.7-2.8C88,53.6,87.6,53.9,86.5,53.4z"/>
							</g>
							<g id="XMLID_17926_">
								<path id="XMLID_17929_" fill="#B26028" d="M83.6,51.2c1.2,0.6,1.6,0.2,1.2,1l-1.9,3.2c-0.4,0.7-1.9-0.5-3.1-1.1
									c-1.2-0.6-1.6-0.2-1.2-1l1.9-3.2C81,49.4,82.5,50.7,83.6,51.2z"/>
								<path id="XMLID_17928_" opacity="0.2" fill="#272525" d="M80.1,53.9c1.2,0.6,2.7,1.8,3.1,1.1l-0.3,0.5
									c-0.4,0.7-1.9-0.5-3.1-1.1c-1.2-0.6-1.6-0.2-1.2-1l0.3-0.5C78.5,53.7,78.9,53.4,80.1,53.9z"/>
								<path id="XMLID_17927_" opacity="0.1" fill="#272525" d="M83.1,51.4c-1-0.5-2.3-1.6-2.7-0.9l0.2-0.3
									c0.4-0.7,1.9,0.5,3.1,1.1c1.2,0.6,1.6,0.2,1.2,1L83.2,55c-0.2,0.3-0.5,0.3-0.8,0.2l1.7-2.8C84.5,51.5,84.1,51.9,83.1,51.4z"
									/>
							</g>
						</g>
						<g id="XMLID_17908_">
							<g id="XMLID_17921_">
								<path id="XMLID_17924_" fill="#B26028" d="M96.1,54c1.2,0.6,1.6,0.2,1.2,1l-1.9,3.2c-0.4,0.7-1.9-0.5-3.1-1.1
									c-1.2-0.6-1.6-0.2-1.2-1l1.9-3.2C93.4,52.2,94.9,53.5,96.1,54z"/>
								<path id="XMLID_17923_" opacity="0.2" fill="#272525" d="M92.5,56.7c1.2,0.6,2.7,1.8,3.1,1.1l-0.3,0.5
									c-0.4,0.7-1.9-0.5-3.1-1.1c-1.2-0.6-1.6-0.2-1.2-1l0.3-0.5C90.9,56.5,91.3,56.1,92.5,56.7z"/>
								<path id="XMLID_17922_" opacity="0.1" fill="#272525" d="M95.5,54.2c-1-0.5-2.3-1.6-2.7-0.9l0.2-0.3
									c0.4-0.7,1.9,0.5,3.1,1.1c1.2,0.6,1.6,0.2,1.2,1l-1.6,2.8c-0.2,0.3-0.5,0.3-0.8,0.2l1.7-2.8C96.9,54.3,96.5,54.7,95.5,54.2z
									"/>
							</g>
							<g id="XMLID_17917_">
								<path id="XMLID_17920_" fill="#B26028" d="M92.6,52c1.2,0.6,1.6,0.2,1.2,1l-1.9,3.2c-0.4,0.7-1.9-0.5-3.1-1.1
									c-1.2-0.6-1.6-0.2-1.2-1l1.9-3.2C89.9,50.2,91.4,51.4,92.6,52z"/>
								<path id="XMLID_17919_" opacity="0.2" fill="#272525" d="M89,54.7c1.2,0.6,2.7,1.8,3.1,1.1l-0.3,0.5
									c-0.4,0.7-1.9-0.5-3.1-1.1c-1.2-0.6-1.6-0.2-1.2-1l0.3-0.5C87.4,54.4,87.8,54.1,89,54.7z"/>
								<path id="XMLID_17918_" opacity="0.1" fill="#272525" d="M92,52.1c-1-0.5-2.3-1.6-2.7-0.9l0.2-0.3c0.4-0.7,1.9,0.5,3.1,1.1
									s1.6,0.2,1.2,1l-1.6,2.8C92,56,91.7,56,91.3,55.9L93,53C93.4,52.3,93,52.6,92,52.1z"/>
							</g>
							<g id="XMLID_17913_">
								<path id="XMLID_17916_" fill="#B26028" d="M89.1,49.9c1.2,0.6,1.6,0.2,1.2,1l-1.9,3.2c-0.4,0.7-1.9-0.5-3.1-1.1
									c-1.2-0.6-1.6-0.2-1.2-1l1.9-3.2C86.4,48.1,87.9,49.4,89.1,49.9z"/>
								<path id="XMLID_17915_" opacity="0.2" fill="#272525" d="M85.5,52.6c1.2,0.6,2.7,1.8,3.1,1.1l-0.3,0.5
									c-0.4,0.7-1.9-0.5-3.1-1.1c-1.2-0.6-1.6-0.2-1.2-1l0.3-0.5C83.9,52.4,84.3,52.1,85.5,52.6z"/>
								<path id="XMLID_17914_" opacity="0.1" fill="#272525" d="M88.5,50.1c-1-0.5-2.3-1.6-2.7-0.9l0.2-0.3
									c0.4-0.7,1.9,0.5,3.1,1.1c1.2,0.6,1.6,0.2,1.2,1l-1.6,2.8c-0.2,0.3-0.5,0.3-0.8,0.2l1.7-2.8C89.9,50.2,89.5,50.6,88.5,50.1z
									"/>
							</g>
							<g id="XMLID_17909_">
								<path id="XMLID_17912_" fill="#B26028" d="M85.6,47.9c1.2,0.6,1.6,0.2,1.2,1l-1.9,3.2c-0.4,0.7-1.9-0.5-3.1-1.1
									s-1.6-0.2-1.2-1l1.9-3.2C82.9,46.1,84.4,47.3,85.6,47.9z"/>
								<path id="XMLID_17911_" opacity="0.2" fill="#272525" d="M82,50.6c1.2,0.6,2.7,1.8,3.1,1.1l-0.3,0.5
									c-0.4,0.7-1.9-0.5-3.1-1.1s-1.6-0.2-1.2-1l0.3-0.5C80.4,50.4,80.8,50,82,50.6z"/>
								<path id="XMLID_17910_" opacity="0.1" fill="#272525" d="M85,48.1c-1-0.5-2.3-1.6-2.7-0.9l0.2-0.3c0.4-0.7,1.9,0.5,3.1,1.1
									s1.6,0.2,1.2,1l-1.6,2.8c-0.2,0.3-0.5,0.3-0.8,0.2l1.7-2.8C86.4,48.2,86,48.5,85,48.1z"/>
							</g>
						</g>
					</g>
					<g id="XMLID_17872_">
						<g id="XMLID_17890_">
							<g id="XMLID_17903_">
								<path id="XMLID_17906_" fill="#B26028" d="M98.1,50.7c1.2,0.6,1.6,0.2,1.2,1l-1.9,3.2c-0.4,0.7-1.9-0.5-3.1-1.1
									c-1.2-0.6-1.6-0.2-1.2-1l1.9-3.2C95.4,48.9,96.9,50.2,98.1,50.7z"/>
								<path id="XMLID_17905_" opacity="0.2" fill="#272525" d="M94.5,53.4c1.2,0.6,2.7,1.8,3.1,1.1l-0.3,0.5
									c-0.4,0.7-1.9-0.5-3.1-1.1c-1.2-0.6-1.6-0.2-1.2-1l0.3-0.5C92.9,53.2,93.4,52.8,94.5,53.4z"/>
								<path id="XMLID_17904_" opacity="0.1" fill="#272525" d="M97.5,50.9c-1-0.5-2.3-1.6-2.7-0.9l0.2-0.3
									c0.4-0.7,1.9,0.5,3.1,1.1c1.2,0.6,1.6,0.2,1.2,1l-1.6,2.8c-0.2,0.3-0.5,0.3-0.8,0.2l1.7-2.8C98.9,51,98.5,51.4,97.5,50.9z"
									/>
							</g>
							<g id="XMLID_17899_">
								<path id="XMLID_17902_" fill="#B26028" d="M94.6,48.7c1.2,0.6,1.6,0.2,1.2,1l-1.9,3.2c-0.4,0.7-1.9-0.5-3.1-1.1
									c-1.2-0.6-1.6-0.2-1.2-1l1.9-3.2C91.9,46.9,93.4,48.1,94.6,48.7z"/>
								<path id="XMLID_17901_" opacity="0.2" fill="#272525" d="M91,51.4c1.2,0.6,2.7,1.8,3.1,1.1l-0.3,0.5
									c-0.4,0.7-1.9-0.5-3.1-1.1c-1.2-0.6-1.6-0.2-1.2-1l0.3-0.5C89.4,51.1,89.9,50.8,91,51.4z"/>
								<path id="XMLID_17900_" opacity="0.1" fill="#272525" d="M94,48.8c-1-0.5-2.3-1.6-2.7-0.9l0.2-0.3c0.4-0.7,1.9,0.5,3.1,1.1
									c1.2,0.6,1.6,0.2,1.2,1l-1.6,2.8c-0.2,0.3-0.5,0.3-0.8,0.2l1.7-2.8C95.4,49,95,49.3,94,48.8z"/>
							</g>
							<g id="XMLID_17895_">
								<path id="XMLID_17898_" fill="#B26028" d="M91.1,46.6c1.2,0.6,1.6,0.2,1.2,1l-1.9,3.2c-0.4,0.7-1.9-0.5-3.1-1.1
									c-1.2-0.6-1.6-0.2-1.2-1l1.9-3.2C88.4,44.8,89.9,46.1,91.1,46.6z"/>
								<path id="XMLID_17897_" opacity="0.2" fill="#272525" d="M87.6,49.3c1.2,0.6,2.7,1.8,3.1,1.1l-0.3,0.5
									c-0.4,0.7-1.9-0.5-3.1-1.1c-1.2-0.6-1.6-0.2-1.2-1l0.3-0.5C85.9,49.1,86.4,48.8,87.6,49.3z"/>
								<path id="XMLID_17896_" opacity="0.1" fill="#272525" d="M90.5,46.8c-1-0.5-2.3-1.6-2.7-0.9l0.2-0.3
									c0.4-0.7,1.9,0.5,3.1,1.1s1.6,0.2,1.2,1l-1.6,2.8c-0.2,0.3-0.5,0.3-0.8,0.2l1.7-2.8C91.9,46.9,91.5,47.3,90.5,46.8z"/>
							</g>
							<g id="XMLID_17891_">
								<path id="XMLID_17894_" fill="#B26028" d="M87.6,44.6c1.2,0.6,1.6,0.2,1.2,1l-1.9,3.2c-0.4,0.7-1.9-0.5-3.1-1.1
									s-1.6-0.2-1.2-1l1.9-3.2C84.9,42.8,86.4,44,87.6,44.6z"/>
								<path id="XMLID_17893_" opacity="0.2" fill="#272525" d="M84.1,47.3c1.2,0.6,2.7,1.8,3.1,1.1l-0.3,0.5
									c-0.4,0.7-1.9-0.5-3.1-1.1s-1.6-0.2-1.2-1l0.3-0.5C82.4,47.1,82.9,46.7,84.1,47.3z"/>
								<path id="XMLID_17892_" opacity="0.1" fill="#272525" d="M87,44.8c-1-0.5-2.3-1.6-2.7-0.9l0.2-0.3c0.4-0.7,1.9,0.5,3.1,1.1
									s1.6,0.2,1.2,1l-1.6,2.8c-0.2,0.3-0.5,0.3-0.8,0.2l1.7-2.8C88.5,44.9,88,45.2,87,44.8z"/>
							</g>
						</g>
						<g id="XMLID_17873_">
							<g id="XMLID_17886_">
								<path id="XMLID_17889_" fill="#B26028" d="M100,47.4c1.2,0.6,1.6,0.2,1.2,1l-1.9,3.2c-0.4,0.7-1.9-0.5-3.1-1.1
									s-1.6-0.2-1.2-1l1.9-3.2C97.3,45.6,98.8,46.8,100,47.4z"/>
								<path id="XMLID_17888_" opacity="0.2" fill="#272525" d="M96.5,50.1c1.2,0.6,2.7,1.8,3.1,1.1l-0.3,0.5
									c-0.4,0.7-1.9-0.5-3.1-1.1s-1.6-0.2-1.2-1l0.3-0.5C94.8,49.8,95.3,49.5,96.5,50.1z"/>
								<path id="XMLID_17887_" opacity="0.1" fill="#272525" d="M99.4,47.5c-1-0.5-2.3-1.6-2.7-0.9l0.2-0.3
									c0.4-0.7,1.9,0.5,3.1,1.1s1.6,0.2,1.2,1l-1.6,2.8c-0.2,0.3-0.5,0.3-0.8,0.2l1.7-2.8C100.9,47.7,100.4,48,99.4,47.5z"/>
							</g>
							<g id="XMLID_17882_">
								<path id="XMLID_17885_" fill="#B26028" d="M96.5,45.3c1.2,0.6,1.6,0.2,1.2,1l-1.9,3.2c-0.4,0.7-1.9-0.5-3.1-1.1
									c-1.2-0.6-1.6-0.2-1.2-1l1.9-3.2C93.8,43.5,95.3,44.8,96.5,45.3z"/>
								<path id="XMLID_17884_" opacity="0.2" fill="#272525" d="M93,48c1.2,0.6,2.7,1.8,3.1,1.1l-0.3,0.5c-0.4,0.7-1.9-0.5-3.1-1.1
									c-1.2-0.6-1.6-0.2-1.2-1l0.3-0.5C91.3,47.8,91.8,47.5,93,48z"/>
								<path id="XMLID_17883_" opacity="0.1" fill="#272525" d="M95.9,45.5c-1-0.5-2.3-1.6-2.7-0.9l0.2-0.3
									c0.4-0.7,1.9,0.5,3.1,1.1c1.2,0.6,1.6,0.2,1.2,1l-1.6,2.8c-0.2,0.3-0.5,0.3-0.8,0.2l1.7-2.8C97.4,45.6,96.9,46,95.9,45.5z"
									/>
							</g>
							<g id="XMLID_17878_">
								<path id="XMLID_17881_" fill="#B26028" d="M93,43.3c1.2,0.6,1.6,0.2,1.2,1l-1.9,3.2c-0.4,0.7-1.9-0.5-3.1-1.1
									c-1.2-0.6-1.6-0.2-1.2-1l1.9-3.2C90.3,41.5,91.8,42.7,93,43.3z"/>
								<path id="XMLID_17880_" opacity="0.2" fill="#272525" d="M89.5,46c1.2,0.6,2.7,1.8,3.1,1.1l-0.3,0.5
									c-0.4,0.7-1.9-0.5-3.1-1.1c-1.2-0.6-1.6-0.2-1.2-1l0.3-0.5C87.8,45.7,88.3,45.4,89.5,46z"/>
								<path id="XMLID_17879_" opacity="0.1" fill="#272525" d="M92.4,43.4c-1-0.5-2.3-1.6-2.7-0.9l0.2-0.3
									c0.4-0.7,1.9,0.5,3.1,1.1c1.2,0.6,1.6,0.2,1.2,1L92.6,47c-0.2,0.3-0.5,0.3-0.8,0.2l1.7-2.8C93.9,43.6,93.4,43.9,92.4,43.4z"
									/>
							</g>
							<g id="XMLID_17874_">
								<path id="XMLID_17877_" fill="#B26028" d="M89.5,41.3c1.2,0.6,1.6,0.2,1.2,1l-1.9,3.2c-0.4,0.7-1.9-0.5-3.1-1.1
									c-1.2-0.6-1.6-0.2-1.2-1l1.9-3.2C86.8,39.5,88.3,40.7,89.5,41.3z"/>
								<path id="XMLID_17876_" opacity="0.2" fill="#272525" d="M86,43.9c1.2,0.6,2.7,1.8,3.1,1.1l-0.3,0.5
									c-0.4,0.7-1.9-0.5-3.1-1.1c-1.2-0.6-1.6-0.2-1.2-1l0.3-0.5C84.3,43.7,84.8,43.4,86,43.9z"/>
								<path id="XMLID_17875_" opacity="0.1" fill="#272525" d="M88.9,41.4c-1-0.5-2.3-1.6-2.7-0.9l0.2-0.3
									c0.4-0.7,1.9,0.5,3.1,1.1s1.6,0.2,1.2,1L89.1,45c-0.2,0.3-0.5,0.3-0.8,0.2l1.7-2.8C90.4,41.6,90,41.9,88.9,41.4z"/>
							</g>
						</g>
					</g>
					<g id="XMLID_17854_">
						<g id="XMLID_17855_">
							<g id="XMLID_17868_">
								<path id="XMLID_17871_" fill="#B26028" d="M102,44.1c1.2,0.6,1.6,0.2,1.2,1l-1.9,3.2c-0.4,0.7-1.9-0.5-3.1-1.1
									s-1.6-0.2-1.2-1l1.9-3.2C99.4,42.3,100.8,43.5,102,44.1z"/>
								<path id="XMLID_17870_" opacity="0.2" fill="#272525" d="M98.5,46.8c1.2,0.6,2.7,1.8,3.1,1.1l-0.3,0.5
									c-0.4,0.7-1.9-0.5-3.1-1.1s-1.6-0.2-1.2-1l0.3-0.5C96.9,46.5,97.3,46.2,98.5,46.8z"/>
								<path id="XMLID_17869_" opacity="0.1" fill="#272525" d="M101.4,44.2c-1-0.5-2.3-1.6-2.7-0.9l0.2-0.3
									c0.4-0.7,1.9,0.5,3.1,1.1c1.2,0.6,1.6,0.2,1.2,1l-1.6,2.8c-0.2,0.3-0.5,0.3-0.8,0.2l1.7-2.8
									C102.9,44.4,102.5,44.7,101.4,44.2z"/>
							</g>
							<g id="XMLID_17864_">
								<path id="XMLID_17867_" fill="#B26028" d="M98.5,42c1.2,0.6,1.6,0.2,1.2,1l-1.9,3.2c-0.4,0.7-1.9-0.5-3.1-1.1
									s-1.6-0.2-1.2-1l1.9-3.2C95.9,40.2,97.3,41.5,98.5,42z"/>
								<path id="XMLID_17866_" opacity="0.2" fill="#272525" d="M95,44.7c1.2,0.6,2.7,1.8,3.1,1.1l-0.3,0.5
									c-0.4,0.7-1.9-0.5-3.1-1.1s-1.6-0.2-1.2-1l0.3-0.5C93.4,44.5,93.8,44.2,95,44.7z"/>
								<path id="XMLID_17865_" opacity="0.1" fill="#272525" d="M97.9,42.2c-1-0.5-2.3-1.6-2.7-0.9l0.2-0.3
									c0.4-0.7,1.9,0.5,3.1,1.1s1.6,0.2,1.2,1l-1.6,2.8c-0.2,0.3-0.5,0.3-0.8,0.2l1.7-2.8C99.4,42.3,99,42.7,97.9,42.2z"/>
							</g>
							<g id="XMLID_17860_">
								<path id="XMLID_17863_" fill="#B26028" d="M95,40c1.2,0.6,1.6,0.2,1.2,1l-1.9,3.2c-0.4,0.7-1.9-0.5-3.1-1.1s-1.6-0.2-1.2-1
									l1.9-3.2C92.4,38.2,93.8,39.4,95,40z"/>
								<path id="XMLID_17862_" opacity="0.2" fill="#272525" d="M91.5,42.7c1.2,0.6,2.7,1.8,3.1,1.1l-0.3,0.5
									c-0.4,0.7-1.9-0.5-3.1-1.1s-1.6-0.2-1.2-1l0.3-0.5C89.9,42.5,90.3,42.1,91.5,42.7z"/>
								<path id="XMLID_17861_" opacity="0.1" fill="#272525" d="M94.4,40.2c-1-0.5-2.3-1.6-2.7-0.9l0.2-0.3
									c0.4-0.7,1.9,0.5,3.1,1.1c1.2,0.6,1.6,0.2,1.2,1l-1.6,2.8c-0.2,0.3-0.5,0.3-0.8,0.2l1.7-2.8C95.9,40.3,95.5,40.7,94.4,40.2z
									"/>
							</g>
							<g id="XMLID_17856_">
								<path id="XMLID_17859_" fill="#B26028" d="M91.5,38c1.2,0.6,1.6,0.2,1.2,1l-1.9,3.2c-0.4,0.7-1.9-0.5-3.1-1.1
									c-1.2-0.6-1.6-0.2-1.2-1l1.9-3.2C88.9,36.2,90.3,37.4,91.5,38z"/>
								<path id="XMLID_17858_" opacity="0.2" fill="#272525" d="M88,40.7c1.2,0.6,2.7,1.8,3.1,1.1l-0.3,0.5
									c-0.4,0.7-1.9-0.5-3.1-1.1c-1.2-0.6-1.6-0.2-1.2-1l0.3-0.5C86.4,40.4,86.8,40.1,88,40.7z"/>
								<path id="XMLID_17857_" opacity="0.1" fill="#272525" d="M90.9,38.1c-1-0.5-2.3-1.6-2.7-0.9l0.2-0.3
									c0.4-0.7,1.9,0.5,3.1,1.1c1.2,0.6,1.6,0.2,1.2,1l-1.6,2.8C91,42,90.7,42,90.3,41.9L92,39C92.4,38.3,92,38.6,90.9,38.1z"/>
							</g>
						</g>
					</g>
				</g>
			</g>
		</g>
		<g id="XMLID_17757_">
			<g id="XMLID_17759_">
				<g id="XMLID_17761_">
					<g id="XMLID_17763_">
						<defs>
							<polygon id="XMLID_17764_" points="89.7,48.8 89.7,48.8 89.7,48.8 84.6,45.9 84.6,54.2 89.7,57.2 94.8,48.4 94.8,45.9 
															"/>
						</defs>
						<clipPath id="XMLID_7_">
							<use xlink:href="#XMLID_17764_"  overflow="visible"/>
						</clipPath>
						<g id="XMLID_17765_" clip-path="url(#XMLID_7_)">
							<g id="XMLID_17808_">
								<g id="XMLID_17811_">
									<polygon id="XMLID_17850_" fill="#C8C8C8" points="79.5,51.2 89.7,57.1 89.7,45.4 79.5,39.5 									"/>
									<g id="XMLID_17812_" opacity="0.3">
										<path id="XMLID_17836_" fill="#FFFFFF" d="M82.4,50.9l0,1.4l-2.9-1.7v-1.4L82.4,50.9z M82.9,52.6v-1.4l2.9,1.7l0,1.4
											L82.9,52.6z M85.8,49l0,1.4l-2.9-1.7v-1.4L85.8,49z M84.6,47.8v-1.4l2.9,1.7l0,1.4L84.6,47.8z M84.1,47.5l-2.9-1.7v-1.4
											l2.9,1.7L84.1,47.5z M84.1,50l0,1.4l-2.9-1.7v-1.4L84.1,50z M87.5,51.9l0,1.4l-2.9-1.7v-1.4L87.5,51.9z M82.4,47l0,1.4
											l-2.9-1.7v-1.4L82.4,47z M82.4,43.1l0,1.4l-2.9-1.7v-1.4L82.4,43.1z M85.8,45.1l0,1.4l-2.9-1.7v-1.4L85.8,45.1z
											 M86.3,46.8v-1.4l2.9,1.7l0,1.4L86.3,46.8z M86.3,50.7v-1.4l2.9,1.7l0,1.4L86.3,50.7z M86.3,54.6v-1.4l2.9,1.7l0,1.4
											L86.3,54.6z"/>
										<polygon id="XMLID_17835_" points="81.2,40.5 82,40.9 81.2,40.5 										"/>
										<polygon id="XMLID_17834_" points="84.6,42.4 84.6,42.4 84.6,42.4 										"/>
										<polygon id="XMLID_17833_" points="80.7,40.2 80.7,41.6 79.5,40.9 79.5,39.5 										"/>
										<polygon id="XMLID_17832_" points="84.1,43.6 81.2,41.9 81.2,40.5 82,40.9 84.1,42.2 										"/>
										<polygon id="XMLID_17831_" points="87.5,45.5 84.6,43.8 84.6,42.4 84.6,42.4 87.5,44.1 										"/>
										<polygon id="XMLID_17830_" points="88,45.8 88,44.4 89.7,45.4 89.7,46.8 										"/>
										<polygon id="XMLID_17829_" points="88,53.6 88,52.2 89.7,53.2 89.7,54.6 										"/>
										<polygon id="XMLID_17828_" points="88,49.7 88,48.3 89.7,49.3 89.7,50.7 										"/>
										<polygon id="XMLID_17827_" points="86.3,49.3 89.2,50.9 89.2,52.4 86.3,50.7 										"/>
										<polygon id="XMLID_17826_" points="86.3,53.2 89.2,54.8 89.2,56.3 86.3,54.6 										"/>
										<polygon id="XMLID_17825_" points="82.9,44.8 82.9,43.4 85.8,45.1 85.8,46.5 										"/>
										<polygon id="XMLID_17824_" points="86.3,45.3 89.2,47 89.2,48.4 86.3,46.8 										"/>
										<polygon id="XMLID_17823_" points="79.5,42.9 79.5,41.4 82.4,43.1 82.4,44.5 										"/>
										<polygon id="XMLID_17822_" points="87.5,48 87.5,49.4 84.6,47.8 84.6,46.3 										"/>
										<polygon id="XMLID_17821_" points="82.9,48.7 82.9,47.3 85.8,49 85.8,50.4 										"/>
										<polygon id="XMLID_17820_" points="82.9,51.2 85.8,52.9 85.8,54.3 82.9,52.6 										"/>
										<polygon id="XMLID_17819_" points="87.5,53.3 84.6,51.7 84.6,50.2 87.5,51.9 										"/>
										<polygon id="XMLID_17818_" points="80.7,49.5 79.5,48.7 79.5,47.3 80.7,48 										"/>
										<polygon id="XMLID_17817_" points="82.4,52.4 79.5,50.7 79.5,49.3 82.4,50.9 										"/>
										<polygon id="XMLID_17816_" points="80.7,45.5 79.5,44.8 79.5,43.4 80.7,44.1 										"/>
										<polygon id="XMLID_17815_" points="82.4,48.5 79.5,46.8 79.5,45.4 82.4,47 										"/>
										<polygon id="XMLID_17814_" points="84.1,51.4 81.2,49.7 81.2,48.3 84.1,50 										"/>
										<polygon id="XMLID_17813_" points="81.2,44.4 84.1,46.1 84.1,47.5 81.2,45.8 										"/>
									</g>
								</g>
								<line id="XMLID_17810_" fill="#C8C8C8" x1="79.5" y1="39.5" x2="89.7" y2="45.4"/>
								<polygon id="XMLID_17809_" opacity="0.5" fill="#E08F58" points="79.5,51.2 89.7,57.1 89.7,45.4 79.5,39.5 								"/>
							</g>
							<g id="XMLID_17766_">
								<g id="XMLID_17768_">
									<polygon id="XMLID_17807_" fill="#C8C8C8" points="99.8,51.2 89.7,57.1 89.7,45.4 99.8,39.5 									"/>
									<g id="XMLID_17769_" opacity="0.3">
										<path id="XMLID_17793_" fill="#FFFFFF" d="M99.8,49.3v1.4l-2.9,1.7l0-1.4L99.8,49.3z M93.5,54.3l0-1.4l2.9-1.7v1.4
											L93.5,54.3z M96.5,47.3v1.4l-2.9,1.7l0-1.4L96.5,47.3z M91.9,49.4l0-1.4l2.9-1.7v1.4L91.9,49.4z M95.2,46.1l2.9-1.7v1.4
											l-2.9,1.7L95.2,46.1z M98.1,48.3v1.4l-2.9,1.7l0-1.4L98.1,48.3z M94.8,50.2v1.4l-2.9,1.7l0-1.4L94.8,50.2z M99.8,45.4v1.4
											l-2.9,1.7l0-1.4L99.8,45.4z M99.8,41.4v1.4l-2.9,1.7l0-1.4L99.8,41.4z M96.5,43.4v1.4l-2.9,1.7l0-1.4L96.5,43.4z
											 M90.2,48.4l0-1.4l2.9-1.7v1.4L90.2,48.4z M90.2,52.4l0-1.4l2.9-1.7v1.4L90.2,52.4z M90.2,56.3l0-1.4l2.9-1.7v1.4
											L90.2,56.3z"/>
										<polygon id="XMLID_17792_" points="98.1,40.5 97.4,40.9 98.1,40.5 										"/>
										<polygon id="XMLID_17791_" points="94.8,42.4 94.7,42.4 94.8,42.4 										"/>
										<polygon id="XMLID_17790_" points="98.6,40.2 98.6,41.6 99.8,40.9 99.8,39.5 										"/>
										<polygon id="XMLID_17789_" points="95.2,43.6 98.1,41.9 98.1,40.5 97.4,40.9 95.2,42.2 										"/>
										<polygon id="XMLID_17788_" points="91.9,45.5 94.8,43.8 94.8,42.4 94.7,42.4 91.9,44.1 										"/>
										<polygon id="XMLID_17787_" points="91.4,45.8 91.4,44.4 89.7,45.4 89.7,46.8 										"/>
										<polygon id="XMLID_17786_" points="91.4,53.6 91.4,52.2 89.7,53.2 89.7,54.6 										"/>
										<polygon id="XMLID_17785_" points="91.4,49.7 91.4,48.3 89.7,49.3 89.7,50.7 										"/>
										<polygon id="XMLID_17784_" points="93.1,49.3 90.2,50.9 90.2,52.4 93.1,50.7 										"/>
										<polygon id="XMLID_17783_" points="93.1,53.2 90.2,54.8 90.2,56.3 93.1,54.6 										"/>
										<polygon id="XMLID_17782_" points="96.5,44.8 96.5,43.4 93.5,45.1 93.5,46.5 										"/>
										<polygon id="XMLID_17781_" points="93.1,45.3 90.2,47 90.2,48.4 93.1,46.8 										"/>
										<polygon id="XMLID_17780_" points="99.8,42.9 99.8,41.4 96.9,43.1 96.9,44.5 										"/>
										<polygon id="XMLID_17779_" points="91.9,48 91.9,49.4 94.8,47.8 94.8,46.3 										"/>
										<polygon id="XMLID_17778_" points="96.5,48.7 96.5,47.3 93.5,49 93.5,50.4 										"/>
										<polygon id="XMLID_17777_" points="96.5,51.2 93.5,52.9 93.5,54.3 96.5,52.6 										"/>
										<polygon id="XMLID_17776_" points="91.9,53.3 94.8,51.7 94.8,50.2 91.9,51.9 										"/>
										<polygon id="XMLID_17775_" points="98.6,49.5 99.9,48.7 99.9,47.3 98.6,48 										"/>
										<polygon id="XMLID_17774_" points="96.9,52.4 99.8,50.7 99.8,49.3 96.9,50.9 										"/>
										<polygon id="XMLID_17773_" points="98.6,45.5 99.9,44.8 99.9,43.4 98.6,44.1 										"/>
										<polygon id="XMLID_17772_" points="96.9,48.5 99.8,46.8 99.8,45.4 96.9,47 										"/>
										<polygon id="XMLID_17771_" points="95.2,51.4 98.1,49.7 98.1,48.3 95.2,50 										"/>
										<polygon id="XMLID_17770_" points="98.1,44.4 95.2,46.1 95.2,47.5 98.1,45.8 										"/>
									</g>
								</g>
								<polygon id="XMLID_17767_" opacity="0.5" fill="#93430C" points="99.8,51.2 89.7,57.1 89.7,45.4 99.8,39.5 								"/>
							</g>
						</g>
					</g>
					<polygon id="XMLID_17762_" fill="#FFCFAE" points="94.8,45.9 89.7,43 84.6,45.9 84.6,45.9 84.6,45.9 89.7,48.8 94.8,45.9 
						94.8,45.9 					"/>
				</g>
				<polygon id="XMLID_17760_" opacity="0.8" points="93,45.8 89.7,44 86.4,45.8 86.4,45.8 86.4,45.8 89.7,47.7 93,45.8 93,45.8 
									"/>
			</g>
			<polygon id="XMLID_17758_" opacity="0.2" fill="#272525" points="89.7,57.1 84.6,54.2 85.2,58.2 90.4,61.1 95.4,52.5 94.8,48.4 
							"/>
		</g>
	</g>
	<g id="XMLID_17605_">
		<polygon id="XMLID_17755_" fill="none" points="89.1,39.9 89.1,36.8 76.3,29.4 60.8,56.1 75,64.3 		"/>
		<g id="XMLID_17615_">
			<g id="XMLID_17738_">
				<g id="XMLID_17751_">
					<path id="XMLID_17754_" fill="#B26028" d="M74.2,59.2c1.2,0.6,1.6,0.2,1.2,1l-1.9,3.2c-0.4,0.7-1.9-0.5-3.1-1.1s-1.6-0.2-1.2-1
						l1.9-3.2C71.5,57.4,73,58.6,74.2,59.2z"/>
					<path id="XMLID_17753_" opacity="0.2" fill="#272525" d="M70.7,61.9c1.2,0.6,2.7,1.8,3.1,1.1l-0.3,0.5
						c-0.4,0.7-1.9-0.5-3.1-1.1s-1.6-0.2-1.2-1l0.3-0.5C69,61.6,69.5,61.3,70.7,61.9z"/>
					<path id="XMLID_17752_" opacity="0.1" fill="#272525" d="M73.6,59.3c-1-0.5-2.3-1.6-2.7-0.9l0.2-0.3c0.4-0.7,1.9,0.5,3.1,1.1
						s1.6,0.2,1.2,1l-1.6,2.8c-0.2,0.3-0.5,0.3-0.8,0.2l1.7-2.8C75.1,59.5,74.6,59.8,73.6,59.3z"/>
				</g>
				<g id="XMLID_17747_">
					<path id="XMLID_17750_" fill="#B26028" d="M70.7,57.1c1.2,0.6,1.6,0.2,1.2,1L70,61.4c-0.4,0.7-1.9-0.5-3.1-1.1
						c-1.2-0.6-1.6-0.2-1.2-1l1.9-3.2C68,55.3,69.5,56.6,70.7,57.1z"/>
					<path id="XMLID_17749_" opacity="0.2" fill="#272525" d="M67.2,59.8c1.2,0.6,2.7,1.8,3.1,1.1L70,61.4c-0.4,0.7-1.9-0.5-3.1-1.1
						c-1.2-0.6-1.6-0.2-1.2-1l0.3-0.5C65.5,59.6,66,59.3,67.2,59.8z"/>
					<path id="XMLID_17748_" opacity="0.1" fill="#272525" d="M70.1,57.3c-1-0.5-2.3-1.6-2.7-0.9l0.2-0.3c0.4-0.7,1.9,0.5,3.1,1.1
						c1.2,0.6,1.6,0.2,1.2,1l-1.6,2.8c-0.2,0.3-0.5,0.3-0.8,0.2l1.7-2.8C71.6,57.4,71.2,57.8,70.1,57.3z"/>
				</g>
				<g id="XMLID_17743_">
					<path id="XMLID_17746_" fill="#B26028" d="M67.2,55.1c1.2,0.6,1.6,0.2,1.2,1l-1.9,3.2c-0.4,0.7-1.9-0.5-3.1-1.1
						c-1.2-0.6-1.6-0.2-1.2-1l1.9-3.2C64.5,53.3,66,54.5,67.2,55.1z"/>
					<path id="XMLID_17745_" opacity="0.2" fill="#272525" d="M63.7,57.8c1.2,0.6,2.7,1.8,3.1,1.1l-0.3,0.5
						c-0.4,0.7-1.9-0.5-3.1-1.1c-1.2-0.6-1.6-0.2-1.2-1l0.3-0.5C62,57.6,62.5,57.2,63.7,57.8z"/>
					<path id="XMLID_17744_" opacity="0.1" fill="#272525" d="M66.6,55.3c-1-0.5-2.3-1.6-2.7-0.9l0.2-0.3c0.4-0.7,1.9,0.5,3.1,1.1
						c1.2,0.6,1.6,0.2,1.2,1l-1.6,2.8c-0.2,0.3-0.5,0.3-0.8,0.2l1.7-2.8C68.1,55.4,67.7,55.8,66.6,55.3z"/>
				</g>
				<g id="XMLID_17739_">
					<path id="XMLID_17742_" fill="#B26028" d="M63.7,53.1c1.2,0.6,1.6,0.2,1.2,1L63,57.3c-0.4,0.7-1.9-0.5-3.1-1.1s-1.6-0.2-1.2-1
						l1.9-3.2C61,51.3,62.5,52.5,63.7,53.1z"/>
					<path id="XMLID_17741_" opacity="0.2" fill="#272525" d="M60.2,55.8c1.2,0.6,2.7,1.8,3.1,1.1L63,57.3c-0.4,0.7-1.9-0.5-3.1-1.1
						s-1.6-0.2-1.2-1l0.3-0.5C58.5,55.5,59,55.2,60.2,55.8z"/>
					<path id="XMLID_17740_" opacity="0.1" fill="#272525" d="M63.1,53.2c-1-0.5-2.3-1.6-2.7-0.9l0.2-0.3c0.4-0.7,1.9,0.5,3.1,1.1
						c1.2,0.6,1.6,0.2,1.2,1l-1.6,2.8c-0.2,0.3-0.5,0.3-0.8,0.2l1.7-2.8C64.6,53.4,64.2,53.7,63.1,53.2z"/>
				</g>
			</g>
			<g id="XMLID_17721_">
				<g id="XMLID_17734_">
					<path id="XMLID_17737_" fill="#B26028" d="M76.1,55.8c1.2,0.6,1.6,0.2,1.2,1L75.4,60c-0.4,0.7-1.9-0.5-3.1-1.1s-1.6-0.2-1.2-1
						l1.9-3.2C73.5,54,74.9,55.3,76.1,55.8z"/>
					<path id="XMLID_17736_" opacity="0.2" fill="#272525" d="M72.6,58.5c1.2,0.6,2.7,1.8,3.1,1.1L75.4,60c-0.4,0.7-1.9-0.5-3.1-1.1
						s-1.6-0.2-1.2-1l0.3-0.5C71,58.3,71.4,58,72.6,58.5z"/>
					<path id="XMLID_17735_" opacity="0.1" fill="#272525" d="M75.5,56c-1-0.5-2.3-1.6-2.7-0.9l0.2-0.3c0.4-0.7,1.9,0.5,3.1,1.1
						s1.6,0.2,1.2,1l-1.6,2.8c-0.2,0.3-0.5,0.3-0.8,0.2l1.7-2.8C77,56.1,76.6,56.5,75.5,56z"/>
				</g>
				<g id="XMLID_17730_">
					<path id="XMLID_17733_" fill="#B26028" d="M72.6,53.8c1.2,0.6,1.6,0.2,1.2,1L71.9,58c-0.4,0.7-1.9-0.5-3.1-1.1s-1.6-0.2-1.2-1
						l1.9-3.2C70,52,71.4,53.2,72.6,53.8z"/>
					<path id="XMLID_17732_" opacity="0.2" fill="#272525" d="M69.1,56.5c1.2,0.6,2.7,1.8,3.1,1.1L71.9,58c-0.4,0.7-1.9-0.5-3.1-1.1
						s-1.6-0.2-1.2-1l0.3-0.5C67.5,56.3,67.9,55.9,69.1,56.5z"/>
					<path id="XMLID_17731_" opacity="0.1" fill="#272525" d="M72,54c-1-0.5-2.3-1.6-2.7-0.9l0.2-0.3c0.4-0.7,1.9,0.5,3.1,1.1
						s1.6,0.2,1.2,1l-1.6,2.8c-0.2,0.3-0.5,0.3-0.8,0.2l1.7-2.8C73.5,54.1,73.1,54.4,72,54z"/>
				</g>
				<g id="XMLID_17726_">
					<path id="XMLID_17729_" fill="#B26028" d="M69.1,51.8c1.2,0.6,1.6,0.2,1.2,1L68.4,56c-0.4,0.7-1.9-0.5-3.1-1.1
						c-1.2-0.6-1.6-0.2-1.2-1l1.9-3.2C66.5,50,67.9,51.2,69.1,51.8z"/>
					<path id="XMLID_17728_" opacity="0.2" fill="#272525" d="M65.6,54.4c1.2,0.6,2.7,1.8,3.1,1.1L68.4,56c-0.4,0.7-1.9-0.5-3.1-1.1
						c-1.2-0.6-1.6-0.2-1.2-1l0.3-0.5C64,54.2,64.4,53.9,65.6,54.4z"/>
					<path id="XMLID_17727_" opacity="0.1" fill="#272525" d="M68.5,51.9c-1-0.5-2.3-1.6-2.7-0.9l0.2-0.3c0.4-0.7,1.9,0.5,3.1,1.1
						c1.2,0.6,1.6,0.2,1.2,1l-1.6,2.8c-0.2,0.3-0.5,0.3-0.8,0.2l1.7-2.8C70,52.1,69.6,52.4,68.5,51.9z"/>
				</g>
				<g id="XMLID_17722_">
					<path id="XMLID_17725_" fill="#B26028" d="M65.6,49.7c1.2,0.6,1.6,0.2,1.2,1l-1.9,3.2c-0.4,0.7-1.9-0.5-3.1-1.1
						c-1.2-0.6-1.6-0.2-1.2-1l1.9-3.2C63,47.9,64.5,49.2,65.6,49.7z"/>
					<path id="XMLID_17724_" opacity="0.2" fill="#272525" d="M62.1,52.4c1.2,0.6,2.7,1.8,3.1,1.1l-0.3,0.5
						c-0.4,0.7-1.9-0.5-3.1-1.1c-1.2-0.6-1.6-0.2-1.2-1l0.3-0.5C60.5,52.2,60.9,51.8,62.1,52.4z"/>
					<path id="XMLID_17723_" opacity="0.1" fill="#272525" d="M65.1,49.9c-1-0.5-2.3-1.6-2.7-0.9l0.2-0.3c0.4-0.7,1.9,0.5,3.1,1.1
						c1.2,0.6,1.6,0.2,1.2,1l-1.6,2.8c-0.2,0.3-0.5,0.3-0.8,0.2l1.7-2.8C66.5,50,66.1,50.4,65.1,49.9z"/>
				</g>
			</g>
			<g id="XMLID_17669_">
				<g id="XMLID_17704_">
					<g id="XMLID_17717_">
						<path id="XMLID_17720_" fill="#B26028" d="M78.1,52.5c1.2,0.6,1.6,0.2,1.2,1l-1.9,3.2c-0.4,0.7-1.9-0.5-3.1-1.1
							c-1.2-0.6-1.6-0.2-1.2-1l1.9-3.2C75.4,50.7,76.9,51.9,78.1,52.5z"/>
						<path id="XMLID_17719_" opacity="0.2" fill="#272525" d="M74.5,55.2c1.2,0.6,2.7,1.8,3.1,1.1l-0.3,0.5
							c-0.4,0.7-1.9-0.5-3.1-1.1c-1.2-0.6-1.6-0.2-1.2-1l0.3-0.5C72.9,54.9,73.3,54.6,74.5,55.2z"/>
						<path id="XMLID_17718_" opacity="0.1" fill="#272525" d="M77.5,52.7c-1-0.5-2.3-1.6-2.7-0.9l0.2-0.3c0.4-0.7,1.9,0.5,3.1,1.1
							s1.6,0.2,1.2,1l-1.6,2.8c-0.2,0.3-0.5,0.3-0.8,0.2l1.7-2.8C78.9,52.8,78.5,53.1,77.5,52.7z"/>
					</g>
					<g id="XMLID_17713_">
						<path id="XMLID_17716_" fill="#B26028" d="M74.6,50.5c1.2,0.6,1.6,0.2,1.2,1l-1.9,3.2c-0.4,0.7-1.9-0.5-3.1-1.1
							s-1.6-0.2-1.2-1l1.9-3.2C71.9,48.7,73.4,49.9,74.6,50.5z"/>
						<path id="XMLID_17715_" opacity="0.2" fill="#272525" d="M71,53.1c1.2,0.6,2.7,1.8,3.1,1.1l-0.3,0.5c-0.4,0.7-1.9-0.5-3.1-1.1
							s-1.6-0.2-1.2-1l0.3-0.5C69.4,52.9,69.8,52.6,71,53.1z"/>
						<path id="XMLID_17714_" opacity="0.1" fill="#272525" d="M74,50.6c-1-0.5-2.3-1.6-2.7-0.9l0.2-0.3c0.4-0.7,1.9,0.5,3.1,1.1
							s1.6,0.2,1.2,1l-1.6,2.8c-0.2,0.3-0.5,0.3-0.8,0.2l1.7-2.8C75.4,50.8,75,51.1,74,50.6z"/>
					</g>
					<g id="XMLID_17709_">
						<path id="XMLID_17712_" fill="#B26028" d="M71.1,48.4c1.2,0.6,1.6,0.2,1.2,1l-1.9,3.2c-0.4,0.7-1.9-0.5-3.1-1.1
							s-1.6-0.2-1.2-1l1.9-3.2C68.4,46.6,69.9,47.9,71.1,48.4z"/>
						<path id="XMLID_17711_" opacity="0.2" fill="#272525" d="M67.5,51.1c1.2,0.6,2.7,1.8,3.1,1.1l-0.3,0.5
							c-0.4,0.7-1.9-0.5-3.1-1.1s-1.6-0.2-1.2-1l0.3-0.5C65.9,50.9,66.3,50.5,67.5,51.1z"/>
						<path id="XMLID_17710_" opacity="0.1" fill="#272525" d="M70.5,48.6c-1-0.5-2.3-1.6-2.7-0.9l0.2-0.3c0.4-0.7,1.9,0.5,3.1,1.1
							s1.6,0.2,1.2,1l-1.6,2.8c-0.2,0.3-0.5,0.3-0.8,0.2l1.7-2.8C71.9,48.7,71.5,49.1,70.5,48.6z"/>
					</g>
					<g id="XMLID_17705_">
						<path id="XMLID_17708_" fill="#B26028" d="M67.6,46.4c1.2,0.6,1.6,0.2,1.2,1l-1.9,3.2c-0.4,0.7-1.9-0.5-3.1-1.1
							c-1.2-0.6-1.6-0.2-1.2-1l1.9-3.2C64.9,44.6,66.4,45.8,67.6,46.4z"/>
						<path id="XMLID_17707_" opacity="0.2" fill="#272525" d="M64,49.1c1.2,0.6,2.7,1.8,3.1,1.1l-0.3,0.5c-0.4,0.7-1.9-0.5-3.1-1.1
							c-1.2-0.6-1.6-0.2-1.2-1l0.3-0.5C62.4,48.8,62.8,48.5,64,49.1z"/>
						<path id="XMLID_17706_" opacity="0.1" fill="#272525" d="M67,46.5c-1-0.5-2.3-1.6-2.7-0.9l0.2-0.3c0.4-0.7,1.9,0.5,3.1,1.1
							c1.2,0.6,1.6,0.2,1.2,1l-1.6,2.8c-0.2,0.3-0.5,0.3-0.8,0.2l1.7-2.8C68.4,46.7,68,47,67,46.5z"/>
					</g>
				</g>
				<g id="XMLID_17687_">
					<g id="XMLID_17700_">
						<path id="XMLID_17703_" fill="#B26028" d="M80,49.2c1.2,0.6,1.6,0.2,1.2,1l-1.9,3.2c-0.4,0.7-1.9-0.5-3.1-1.1
							c-1.2-0.6-1.6-0.2-1.2-1l1.9-3.2C77.3,47.3,78.8,48.6,80,49.2z"/>
						<path id="XMLID_17702_" opacity="0.2" fill="#272525" d="M76.4,51.8c1.2,0.6,2.7,1.8,3.1,1.1l-0.3,0.5
							c-0.4,0.7-1.9-0.5-3.1-1.1c-1.2-0.6-1.6-0.2-1.2-1l0.3-0.5C74.8,51.6,75.2,51.3,76.4,51.8z"/>
						<path id="XMLID_17701_" opacity="0.1" fill="#272525" d="M79.4,49.3c-1-0.5-2.3-1.6-2.7-0.9l0.2-0.3c0.4-0.7,1.9,0.5,3.1,1.1
							c1.2,0.6,1.6,0.2,1.2,1l-1.6,2.8c-0.2,0.3-0.5,0.3-0.8,0.2l1.7-2.8C80.8,49.4,80.4,49.8,79.4,49.3z"/>
					</g>
					<g id="XMLID_17696_">
						<path id="XMLID_17699_" fill="#B26028" d="M76.5,47.1c1.2,0.6,1.6,0.2,1.2,1l-1.9,3.2c-0.4,0.7-1.9-0.5-3.1-1.1
							c-1.2-0.6-1.6-0.2-1.2-1l1.9-3.2C73.8,45.3,75.3,46.6,76.5,47.1z"/>
						<path id="XMLID_17698_" opacity="0.2" fill="#272525" d="M72.9,49.8c1.2,0.6,2.7,1.8,3.1,1.1l-0.3,0.5
							c-0.4,0.7-1.9-0.5-3.1-1.1c-1.2-0.6-1.6-0.2-1.2-1l0.3-0.5C71.3,49.6,71.8,49.2,72.9,49.8z"/>
						<path id="XMLID_17697_" opacity="0.1" fill="#272525" d="M75.9,47.3c-1-0.5-2.3-1.6-2.7-0.9l0.2-0.3c0.4-0.7,1.9,0.5,3.1,1.1
							s1.6,0.2,1.2,1l-1.6,2.8c-0.2,0.3-0.5,0.3-0.8,0.2l1.7-2.8C77.3,47.4,76.9,47.8,75.9,47.3z"/>
					</g>
					<g id="XMLID_17692_">
						<path id="XMLID_17695_" fill="#B26028" d="M73,45.1c1.2,0.6,1.6,0.2,1.2,1l-1.9,3.2c-0.4,0.7-1.9-0.5-3.1-1.1s-1.6-0.2-1.2-1
							l1.9-3.2C70.3,43.3,71.8,44.5,73,45.1z"/>
						<path id="XMLID_17694_" opacity="0.2" fill="#272525" d="M69.4,47.8c1.2,0.6,2.7,1.8,3.1,1.1l-0.3,0.5
							c-0.4,0.7-1.9-0.5-3.1-1.1s-1.6-0.2-1.2-1l0.3-0.5C67.8,47.5,68.3,47.2,69.4,47.8z"/>
						<path id="XMLID_17693_" opacity="0.1" fill="#272525" d="M72.4,45.2c-1-0.5-2.3-1.6-2.7-0.9l0.2-0.3c0.4-0.7,1.9,0.5,3.1,1.1
							s1.6,0.2,1.2,1l-1.6,2.8c-0.2,0.3-0.5,0.3-0.8,0.2l1.7-2.8C73.8,45.4,73.4,45.7,72.4,45.2z"/>
					</g>
					<g id="XMLID_17688_">
						<path id="XMLID_17691_" fill="#B26028" d="M69.5,43c1.2,0.6,1.6,0.2,1.2,1l-1.9,3.2c-0.4,0.7-1.9-0.5-3.1-1.1s-1.6-0.2-1.2-1
							l1.9-3.2C66.8,41.2,68.3,42.5,69.5,43z"/>
						<path id="XMLID_17690_" opacity="0.2" fill="#272525" d="M66,45.7c1.2,0.6,2.7,1.8,3.1,1.1l-0.3,0.5c-0.4,0.7-1.9-0.5-3.1-1.1
							s-1.6-0.2-1.2-1l0.3-0.5C64.3,45.5,64.8,45.2,66,45.7z"/>
						<path id="XMLID_17689_" opacity="0.1" fill="#272525" d="M68.9,43.2c-1-0.5-2.3-1.6-2.7-0.9l0.2-0.3c0.4-0.7,1.9,0.5,3.1,1.1
							s1.6,0.2,1.2,1l-1.6,2.8c-0.2,0.3-0.5,0.3-0.8,0.2l1.7-2.8C70.3,43.3,69.9,43.7,68.9,43.2z"/>
					</g>
				</g>
				<g id="XMLID_17670_">
					<g id="XMLID_17683_">
						<path id="XMLID_17686_" fill="#B26028" d="M81.9,45.8c1.2,0.6,1.6,0.2,1.2,1L81.2,50c-0.4,0.7-1.9-0.5-3.1-1.1
							c-1.2-0.6-1.6-0.2-1.2-1l1.9-3.2C79.2,44,80.7,45.2,81.9,45.8z"/>
						<path id="XMLID_17685_" opacity="0.2" fill="#272525" d="M78.4,48.5c1.2,0.6,2.7,1.8,3.1,1.1L81.2,50
							c-0.4,0.7-1.9-0.5-3.1-1.1c-1.2-0.6-1.6-0.2-1.2-1l0.3-0.5C76.7,48.3,77.2,47.9,78.4,48.5z"/>
						<path id="XMLID_17684_" opacity="0.1" fill="#272525" d="M81.3,46c-1-0.5-2.3-1.6-2.7-0.9l0.2-0.3c0.4-0.7,1.9,0.5,3.1,1.1
							c1.2,0.6,1.6,0.2,1.2,1l-1.6,2.8c-0.2,0.3-0.5,0.3-0.8,0.2l1.7-2.8C82.8,46.1,82.3,46.4,81.3,46z"/>
					</g>
					<g id="XMLID_17679_">
						<path id="XMLID_17682_" fill="#B26028" d="M78.4,43.8c1.2,0.6,1.6,0.2,1.2,1L77.7,48c-0.4,0.7-1.9-0.5-3.1-1.1
							c-1.2-0.6-1.6-0.2-1.2-1l1.9-3.2C75.7,42,77.2,43.2,78.4,43.8z"/>
						<path id="XMLID_17681_" opacity="0.2" fill="#272525" d="M74.9,46.4c1.2,0.6,2.7,1.8,3.1,1.1L77.7,48
							c-0.4,0.7-1.9-0.5-3.1-1.1c-1.2-0.6-1.6-0.2-1.2-1l0.3-0.5C73.2,46.2,73.7,45.9,74.9,46.4z"/>
						<path id="XMLID_17680_" opacity="0.1" fill="#272525" d="M77.8,43.9c-1-0.5-2.3-1.6-2.7-0.9l0.2-0.3c0.4-0.7,1.9,0.5,3.1,1.1
							c1.2,0.6,1.6,0.2,1.2,1L78,47.5c-0.2,0.3-0.5,0.3-0.8,0.2l1.7-2.8C79.3,44.1,78.8,44.4,77.8,43.9z"/>
					</g>
					<g id="XMLID_17675_">
						<path id="XMLID_17678_" fill="#B26028" d="M74.9,41.7c1.2,0.6,1.6,0.2,1.2,1l-1.9,3.2c-0.4,0.7-1.9-0.5-3.1-1.1
							c-1.2-0.6-1.6-0.2-1.2-1l1.9-3.2C72.2,39.9,73.7,41.2,74.9,41.7z"/>
						<path id="XMLID_17677_" opacity="0.2" fill="#272525" d="M71.4,44.4c1.2,0.6,2.7,1.8,3.1,1.1l-0.3,0.5
							c-0.4,0.7-1.9-0.5-3.1-1.1c-1.2-0.6-1.6-0.2-1.2-1l0.3-0.5C69.7,44.2,70.2,43.9,71.4,44.4z"/>
						<path id="XMLID_17676_" opacity="0.1" fill="#272525" d="M74.3,41.9c-1-0.5-2.3-1.6-2.7-0.9l0.2-0.3c0.4-0.7,1.9,0.5,3.1,1.1
							s1.6,0.2,1.2,1l-1.6,2.8c-0.2,0.3-0.5,0.3-0.8,0.2l1.7-2.8C75.8,42,75.3,42.4,74.3,41.9z"/>
					</g>
					<g id="XMLID_17671_">
						<path id="XMLID_17674_" fill="#B26028" d="M71.4,39.7c1.2,0.6,1.6,0.2,1.2,1l-1.9,3.2c-0.4,0.7-1.9-0.5-3.1-1.1
							c-1.2-0.6-1.6-0.2-1.2-1l1.9-3.2C68.7,37.9,70.2,39.1,71.4,39.7z"/>
						<path id="XMLID_17673_" opacity="0.2" fill="#272525" d="M67.9,42.4c1.2,0.6,2.7,1.8,3.1,1.1l-0.3,0.5
							c-0.4,0.7-1.9-0.5-3.1-1.1c-1.2-0.6-1.6-0.2-1.2-1l0.3-0.5C66.2,42.1,66.7,41.8,67.9,42.4z"/>
						<path id="XMLID_17672_" opacity="0.1" fill="#272525" d="M70.8,39.8c-1-0.5-2.3-1.6-2.7-0.9l0.2-0.3c0.4-0.7,1.9,0.5,3.1,1.1
							s1.6,0.2,1.2,1L71,43.4c-0.2,0.3-0.5,0.3-0.8,0.2l1.7-2.8C72.3,40,71.8,40.3,70.8,39.8z"/>
					</g>
				</g>
			</g>
			<g id="XMLID_17634_">
				<g id="XMLID_17652_">
					<g id="XMLID_17665_">
						<path id="XMLID_17668_" fill="#B26028" d="M83.9,42.5c1.2,0.6,1.6,0.2,1.2,1l-1.9,3.2c-0.4,0.7-1.9-0.5-3.1-1.1
							s-1.6-0.2-1.2-1l1.9-3.2C81.2,40.7,82.7,41.9,83.9,42.5z"/>
						<path id="XMLID_17667_" opacity="0.2" fill="#272525" d="M80.4,45.2c1.2,0.6,2.7,1.8,3.1,1.1l-0.3,0.5
							c-0.4,0.7-1.9-0.5-3.1-1.1s-1.6-0.2-1.2-1l0.3-0.5C78.7,45,79.2,44.6,80.4,45.2z"/>
						<path id="XMLID_17666_" opacity="0.1" fill="#272525" d="M83.3,42.7c-1-0.5-2.3-1.6-2.7-0.9l0.2-0.3c0.4-0.7,1.9,0.5,3.1,1.1
							s1.6,0.2,1.2,1l-1.6,2.8c-0.2,0.3-0.5,0.3-0.8,0.2l1.7-2.8C84.8,42.8,84.4,43.1,83.3,42.7z"/>
					</g>
					<g id="XMLID_17661_">
						<path id="XMLID_17664_" fill="#B26028" d="M80.4,40.5c1.2,0.6,1.6,0.2,1.2,1l-1.9,3.2c-0.4,0.7-1.9-0.5-3.1-1.1
							c-1.2-0.6-1.6-0.2-1.2-1l1.9-3.2C77.8,38.7,79.2,39.9,80.4,40.5z"/>
						<path id="XMLID_17663_" opacity="0.2" fill="#272525" d="M76.9,43.1c1.2,0.6,2.7,1.8,3.1,1.1l-0.3,0.5
							c-0.4,0.7-1.9-0.5-3.1-1.1c-1.2-0.6-1.6-0.2-1.2-1l0.3-0.5C75.3,42.9,75.7,42.6,76.9,43.1z"/>
						<path id="XMLID_17662_" opacity="0.1" fill="#272525" d="M79.8,40.6c-1-0.5-2.3-1.6-2.7-0.9l0.2-0.3c0.4-0.7,1.9,0.5,3.1,1.1
							c1.2,0.6,1.6,0.2,1.2,1L80,44.2c-0.2,0.3-0.5,0.3-0.8,0.2l1.7-2.8C81.3,40.8,80.9,41.1,79.8,40.6z"/>
					</g>
					<g id="XMLID_17657_">
						<path id="XMLID_17660_" fill="#B26028" d="M76.9,38.4c1.2,0.6,1.6,0.2,1.2,1l-1.9,3.2c-0.4,0.7-1.9-0.5-3.1-1.1
							c-1.2-0.6-1.6-0.2-1.2-1l1.9-3.2C74.3,36.6,75.7,37.9,76.9,38.4z"/>
						<path id="XMLID_17659_" opacity="0.2" fill="#272525" d="M73.4,41.1c1.2,0.6,2.7,1.8,3.1,1.1l-0.3,0.5
							c-0.4,0.7-1.9-0.5-3.1-1.1c-1.2-0.6-1.6-0.2-1.2-1l0.3-0.5C71.8,40.9,72.2,40.5,73.4,41.1z"/>
						<path id="XMLID_17658_" opacity="0.1" fill="#272525" d="M76.3,38.6c-1-0.5-2.3-1.6-2.7-0.9l0.2-0.3c0.4-0.7,1.9,0.5,3.1,1.1
							c1.2,0.6,1.6,0.2,1.2,1l-1.6,2.8c-0.2,0.3-0.5,0.3-0.8,0.2l1.7-2.8C77.8,38.7,77.4,39.1,76.3,38.6z"/>
					</g>
					<g id="XMLID_17653_">
						<path id="XMLID_17656_" fill="#B26028" d="M73.4,36.4c1.2,0.6,1.6,0.2,1.2,1l-1.9,3.2c-0.4,0.7-1.9-0.5-3.1-1.1
							c-1.2-0.6-1.6-0.2-1.2-1l1.9-3.2C70.8,34.6,72.2,35.8,73.4,36.4z"/>
						<path id="XMLID_17655_" opacity="0.2" fill="#272525" d="M69.9,39.1c1.2,0.6,2.7,1.8,3.1,1.1l-0.3,0.5
							c-0.4,0.7-1.9-0.5-3.1-1.1c-1.2-0.6-1.6-0.2-1.2-1l0.3-0.5C68.3,38.8,68.7,38.5,69.9,39.1z"/>
						<path id="XMLID_17654_" opacity="0.1" fill="#272525" d="M72.8,36.5c-1-0.5-2.3-1.6-2.7-0.9l0.2-0.3c0.4-0.7,1.9,0.5,3.1,1.1
							s1.6,0.2,1.2,1L73,40.1c-0.2,0.3-0.5,0.3-0.8,0.2l1.7-2.8C74.3,36.7,73.9,37,72.8,36.5z"/>
					</g>
				</g>
				<g id="XMLID_17635_">
					<g id="XMLID_17648_">
						<path id="XMLID_17651_" fill="#B26028" d="M85.8,39.2c1.2,0.6,1.6,0.2,1.2,1l-1.9,3.2c-0.4,0.7-1.9-0.5-3.1-1.1
							c-1.2-0.6-1.6-0.2-1.2-1l1.9-3.2C83.2,37.4,84.7,38.6,85.8,39.2z"/>
						<path id="XMLID_17650_" opacity="0.2" fill="#272525" d="M82.3,41.8c1.2,0.6,2.7,1.8,3.1,1.1l-0.3,0.5
							c-0.4,0.7-1.9-0.5-3.1-1.1c-1.2-0.6-1.6-0.2-1.2-1l0.3-0.5C80.7,41.6,81.1,41.3,82.3,41.8z"/>
						<path id="XMLID_17649_" opacity="0.1" fill="#272525" d="M85.3,39.3c-1-0.5-2.3-1.6-2.7-0.9l0.2-0.3c0.4-0.7,1.9,0.5,3.1,1.1
							s1.6,0.2,1.2,1l-1.6,2.8c-0.2,0.3-0.5,0.3-0.8,0.2l1.7-2.8C86.7,39.5,86.3,39.8,85.3,39.3z"/>
					</g>
					<g id="XMLID_17644_">
						<path id="XMLID_17647_" fill="#B26028" d="M82.3,37.1c1.2,0.6,1.6,0.2,1.2,1l-1.9,3.2c-0.4,0.7-1.9-0.5-3.1-1.1
							s-1.6-0.2-1.2-1l1.9-3.2C79.7,35.3,81.2,36.6,82.3,37.1z"/>
						<path id="XMLID_17646_" opacity="0.2" fill="#272525" d="M78.8,39.8c1.2,0.6,2.7,1.8,3.1,1.1l-0.3,0.5
							c-0.4,0.7-1.9-0.5-3.1-1.1s-1.6-0.2-1.2-1l0.3-0.5C77.2,39.6,77.6,39.2,78.8,39.8z"/>
						<path id="XMLID_17645_" opacity="0.1" fill="#272525" d="M81.8,37.3c-1-0.5-2.3-1.6-2.7-0.9l0.2-0.3c0.4-0.7,1.9,0.5,3.1,1.1
							s1.6,0.2,1.2,1l-1.6,2.8c-0.2,0.3-0.5,0.3-0.8,0.2l1.7-2.8C83.2,37.4,82.8,37.8,81.8,37.3z"/>
					</g>
					<g id="XMLID_17640_">
						<path id="XMLID_17643_" fill="#B26028" d="M78.9,35.1c1.2,0.6,1.6,0.2,1.2,1l-1.9,3.2c-0.4,0.7-1.9-0.5-3.1-1.1
							c-1.2-0.6-1.6-0.2-1.2-1l1.9-3.2C76.2,33.3,77.7,34.5,78.9,35.1z"/>
						<path id="XMLID_17642_" opacity="0.2" fill="#272525" d="M75.3,37.8c1.2,0.6,2.7,1.8,3.1,1.1l-0.3,0.5
							c-0.4,0.7-1.9-0.5-3.1-1.1c-1.2-0.6-1.6-0.2-1.2-1l0.3-0.5C73.7,37.5,74.1,37.2,75.3,37.8z"/>
						<path id="XMLID_17641_" opacity="0.1" fill="#272525" d="M78.3,35.2c-1-0.5-2.3-1.6-2.7-0.9l0.2-0.3c0.4-0.7,1.9,0.5,3.1,1.1
							c1.2,0.6,1.6,0.2,1.2,1l-1.6,2.8c-0.2,0.3-0.5,0.3-0.8,0.2l1.7-2.8C79.7,35.4,79.3,35.7,78.3,35.2z"/>
					</g>
					<g id="XMLID_17636_">
						<path id="XMLID_17639_" fill="#B26028" d="M75.4,33c1.2,0.6,1.6,0.2,1.2,1l-1.9,3.2c-0.4,0.7-1.9-0.5-3.1-1.1
							c-1.2-0.6-1.6-0.2-1.2-1l1.9-3.2C72.7,31.2,74.2,32.5,75.4,33z"/>
						<path id="XMLID_17638_" opacity="0.2" fill="#272525" d="M71.8,35.7c1.2,0.6,2.7,1.8,3.1,1.1l-0.3,0.5
							c-0.4,0.7-1.9-0.5-3.1-1.1c-1.2-0.6-1.6-0.2-1.2-1l0.3-0.5C70.2,35.5,70.6,35.2,71.8,35.7z"/>
						<path id="XMLID_17637_" opacity="0.1" fill="#272525" d="M74.8,33.2c-1-0.5-2.3-1.6-2.7-0.9l0.2-0.3c0.4-0.7,1.9,0.5,3.1,1.1
							c1.2,0.6,1.6,0.2,1.2,1l-1.6,2.8c-0.2,0.3-0.5,0.3-0.8,0.2l1.7-2.8C76.2,33.3,75.8,33.7,74.8,33.2z"/>
					</g>
				</g>
			</g>
			<g id="XMLID_17616_">
				<g id="XMLID_17617_">
					<g id="XMLID_17630_">
						<path id="XMLID_17633_" fill="#B26028" d="M87.9,35.9c1.2,0.6,1.6,0.2,1.2,1l-1.9,3.2c-0.4,0.7-1.9-0.5-3.1-1.1
							c-1.2-0.6-1.6-0.2-1.2-1l1.9-3.2C85.2,34.1,86.7,35.3,87.9,35.9z"/>
						<path id="XMLID_17632_" opacity="0.2" fill="#272525" d="M84.3,38.6c1.2,0.6,2.7,1.8,3.1,1.1l-0.3,0.5
							c-0.4,0.7-1.9-0.5-3.1-1.1c-1.2-0.6-1.6-0.2-1.2-1l0.3-0.5C82.7,38.3,83.1,38,84.3,38.6z"/>
						<path id="XMLID_17631_" opacity="0.1" fill="#272525" d="M87.3,36c-1-0.5-2.3-1.6-2.7-0.9l0.2-0.3c0.4-0.7,1.9,0.5,3.1,1.1
							c1.2,0.6,1.6,0.2,1.2,1l-1.6,2.8c-0.2,0.3-0.5,0.3-0.8,0.2l1.7-2.8C88.7,36.2,88.3,36.5,87.3,36z"/>
					</g>
					<g id="XMLID_17626_">
						<path id="XMLID_17629_" fill="#B26028" d="M84.4,33.8c1.2,0.6,1.6,0.2,1.2,1L83.7,38c-0.4,0.7-1.9-0.5-3.1-1.1s-1.6-0.2-1.2-1
							l1.9-3.2C81.7,32,83.2,33.3,84.4,33.8z"/>
						<path id="XMLID_17628_" opacity="0.2" fill="#272525" d="M80.8,36.5c1.2,0.6,2.7,1.8,3.1,1.1L83.7,38
							c-0.4,0.7-1.9-0.5-3.1-1.1s-1.6-0.2-1.2-1l0.3-0.5C79.2,36.3,79.6,36,80.8,36.5z"/>
						<path id="XMLID_17627_" opacity="0.1" fill="#272525" d="M83.8,34c-1-0.5-2.3-1.6-2.7-0.9l0.2-0.3c0.4-0.7,1.9,0.5,3.1,1.1
							c1.2,0.6,1.6,0.2,1.2,1L84,37.6c-0.2,0.3-0.5,0.3-0.8,0.2l1.7-2.8C85.2,34.1,84.8,34.5,83.8,34z"/>
					</g>
					<g id="XMLID_17622_">
						<path id="XMLID_17625_" fill="#B26028" d="M80.9,31.8c1.2,0.6,1.6,0.2,1.2,1L80.2,36c-0.4,0.7-1.9-0.5-3.1-1.1s-1.6-0.2-1.2-1
							l1.9-3.2C78.2,30,79.7,31.2,80.9,31.8z"/>
						<path id="XMLID_17624_" opacity="0.2" fill="#272525" d="M77.3,34.5c1.2,0.6,2.7,1.8,3.1,1.1L80.2,36
							c-0.4,0.7-1.9-0.5-3.1-1.1s-1.6-0.2-1.2-1l0.3-0.5C75.7,34.3,76.2,33.9,77.3,34.5z"/>
						<path id="XMLID_17623_" opacity="0.1" fill="#272525" d="M80.3,32c-1-0.5-2.3-1.6-2.7-0.9l0.2-0.3c0.4-0.7,1.9,0.5,3.1,1.1
							s1.6,0.2,1.2,1l-1.6,2.8c-0.2,0.3-0.5,0.3-0.8,0.2l1.7-2.8C81.7,32.1,81.3,32.4,80.3,32z"/>
					</g>
					<g id="XMLID_17618_">
						<path id="XMLID_17621_" fill="#B26028" d="M77.4,29.8c1.2,0.6,1.6,0.2,1.2,1L76.7,34c-0.4,0.7-1.9-0.5-3.1-1.1s-1.6-0.2-1.2-1
							l1.9-3.2C74.7,28,76.2,29.2,77.4,29.8z"/>
						<path id="XMLID_17620_" opacity="0.2" fill="#272525" d="M73.8,32.4c1.2,0.6,2.7,1.8,3.1,1.1L76.7,34
							c-0.4,0.7-1.9-0.5-3.1-1.1s-1.6-0.2-1.2-1l0.3-0.5C72.2,32.2,72.7,31.9,73.8,32.4z"/>
						<path id="XMLID_17619_" opacity="0.1" fill="#272525" d="M76.8,29.9c-1-0.5-2.3-1.6-2.7-0.9l0.2-0.3c0.4-0.7,1.9,0.5,3.1,1.1
							c1.2,0.6,1.6,0.2,1.2,1L77,33.5c-0.2,0.3-0.5,0.3-0.8,0.2l1.7-2.8C78.2,30.1,77.8,30.4,76.8,29.9z"/>
					</g>
				</g>
			</g>
		</g>
	</g>
</g>
</svg>
