<?xml version="1.0" encoding="utf-8"?>
<!-- Generator: Adobe Illustrator 16.0.0, SVG Export Plug-In . SVG Version: 6.00 Build 0)  -->
<!DOCTYPE svg PUBLIC "-//W3C//DTD SVG 1.1//EN" "http://www.w3.org/Graphics/SVG/1.1/DTD/svg11.dtd">
<svg version="1.1" id="Layer_1" xmlns="http://www.w3.org/2000/svg" xmlns:xlink="http://www.w3.org/1999/xlink" x="0px" y="0px"
	 width="164px" height="164px" viewBox="0 0 164 164" enable-background="new 0 0 164 164" xml:space="preserve">
<g id="XMLID_18749_">
	<g id="XMLID_18751_">
		<polygon id="XMLID_18776_" fill="#848484" points="72.1,62.4 73.1,62.9 73.8,61.8 72.7,61.3 		"/>
		<path id="XMLID_18775_" opacity="0.3" d="M77.9,55.1l-11.7-6.4c-0.1-0.1-0.2,0-0.3,0.1l-0.3,0.5l0.3,0.2l0,0l-3.3,5.7l-0.3-0.2
			l-0.3,0.5c0,0.1,0,0.2,0.1,0.3l11.7,6.4c0.1,0.1,0.2,0,0.3-0.1l0.3-0.5l-0.3-0.2l3.3-5.7l0.3,0.2l0.3-0.5
			C78,55.3,78,55.2,77.9,55.1z"/>
		<polygon id="XMLID_18774_" fill="#002947" points="62.4,54.6 65.7,48.9 77.2,54.8 77.1,55.2 73.8,60.9 62.9,55.3 		"/>
		<g id="XMLID_18757_">
			<g id="XMLID_18758_">
				<polygon id="XMLID_18773_" fill="#001B24" points="77.1,55.2 76.7,55 73.4,60.7 73.8,60.9 				"/>
				<g id="XMLID_18759_">
					<polygon id="XMLID_18772_" fill="#001B24" points="67.4,49.8 67,49.6 63.6,55.3 64.4,55.7 64.4,55.7 64,55.5 					"/>
					<polygon id="XMLID_18771_" fill="#001B24" points="69.8,51.1 69.4,50.9 66.1,56.6 66.9,57.1 66.9,57.1 66.5,56.8 					"/>
					<polygon id="XMLID_18770_" fill="#001B24" points="72.2,52.5 71.8,52.3 68.5,58 69.3,58.4 69.3,58.4 68.9,58.2 					"/>
					<polygon id="XMLID_18769_" fill="#001B24" points="74.7,53.8 74.3,53.6 71,59.3 71.8,59.8 71.8,59.8 71.4,59.5 					"/>
					<polygon id="XMLID_18768_" fill="#001B24" points="66.1,49.1 62.8,54.8 63.2,55.1 66.5,49.3 					"/>
					<polygon id="XMLID_18767_" fill="#001B24" points="68.2,50.2 67.4,49.8 67.4,49.8 67.8,50 64.4,55.7 64.8,55.9 					"/>
					<polygon id="XMLID_18766_" fill="#001B24" points="68.6,50.5 65.3,56.2 65.7,56.4 69,50.7 					"/>
					<polygon id="XMLID_18765_" fill="#001B24" points="70.6,51.6 69.8,51.1 69.8,51.1 70.2,51.4 66.9,57.1 67.3,57.3 					"/>
					<polygon id="XMLID_18764_" fill="#001B24" points="71,51.8 67.7,57.5 68.1,57.7 71.4,52 					"/>
					<polygon id="XMLID_18763_" fill="#001B24" points="73.1,52.9 72.2,52.5 72.2,52.5 72.7,52.7 69.3,58.4 69.7,58.6 					"/>
					<polygon id="XMLID_18762_" fill="#001B24" points="73.5,53.2 70.1,58.9 70.6,59.1 73.9,53.4 					"/>
					<polygon id="XMLID_18761_" fill="#001B24" points="75.5,54.3 74.7,53.8 74.7,53.8 75.1,54.1 71.8,59.8 72.2,60 					"/>
					<polygon id="XMLID_18760_" fill="#001B24" points="75.9,54.5 72.6,60.2 73,60.4 76.3,54.7 					"/>
				</g>
			</g>
		</g>
		<path id="XMLID_18756_" fill="#001B24" d="M61.8,54.9c0,0.1,0,0.2,0.1,0.3l11.7,6.4c0.1,0.1,0.2,0,0.3-0.1l0.3-0.5l-12.1-6.6
			L61.8,54.9z"/>
		<path id="XMLID_18755_" fill="#001B24" d="M77.7,54.9c0.1-0.1,0-0.2-0.1-0.3L66,48.2c-0.1-0.1-0.2,0-0.3,0.1l-0.3,0.5l12,6.6
			L77.7,54.9z"/>
		<polygon id="XMLID_18754_" opacity="0.2" points="73.2,62.1 73.4,62.5 73.1,62.9 72.9,62.8 72.7,62.1 		"/>
		<path id="XMLID_18753_" fill="#001B24" d="M73.3,61.1l-0.4-0.2l-0.4,0.7c0,0.1,0,0.1,0,0.2l0,0v0l0.1,0.2c0,0.1,0.1,0.2,0.3,0.2
			c0.2,0,0.3-0.2,0.3-0.2L73,61.7L73.3,61.1z"/>
		<path id="XMLID_18752_" opacity="0.2" d="M72.5,61.8l0.1,0.2c0,0.1,0.1,0.2,0.3,0.2c0.2,0,0.3-0.2,0.3-0.2L73,61.7
			C73,61.7,72.8,62.1,72.5,61.8L72.5,61.8L72.5,61.8z"/>
	</g>
	<polygon id="XMLID_18750_" opacity="4.000000e-002" fill="#FFFFFF" points="65.7,48.9 77.1,55.2 62.4,54.6 	"/>
</g>
</svg>
