<?xml version="1.0" encoding="utf-8"?>
<!-- Generator: Adobe Illustrator 16.0.0, SVG Export Plug-In . SVG Version: 6.00 Build 0)  -->
<!DOCTYPE svg PUBLIC "-//W3C//DTD SVG 1.1//EN" "http://www.w3.org/Graphics/SVG/1.1/DTD/svg11.dtd">
<svg version="1.1" id="Layer_1" xmlns="http://www.w3.org/2000/svg" xmlns:xlink="http://www.w3.org/1999/xlink" x="0px" y="0px"
	 width="164px" height="164px" viewBox="0 0 164 164" enable-background="new 0 0 164 164" xml:space="preserve">
<g id="XMLID_7285_">
	<polygon id="XMLID_7390_" fill="#D2C7B0" points="89.1,102.3 117.4,85.9 89.1,69.5 60.7,85.9 	"/>
	<g id="XMLID_7286_">
		<polygon id="XMLID_7389_" fill="#AD856A" points="89.1,118.6 89.1,102.3 89.1,102.3 103.2,94.1 117.4,85.9 117.4,102.3 
			117.4,102.3 103.2,110.5 		"/>
		<g id="Door_13_">
			<defs>
				<polygon id="XMLID_7360_" points="74.9,110.5 89.1,118.6 89.1,102.3 74.9,94.1 				"/>
			</defs>
			<clipPath id="XMLID_11_">
				<use xlink:href="#XMLID_7360_"  overflow="visible"/>
			</clipPath>
			<g id="XMLID_7361_" clip-path="url(#XMLID_11_)">
				<g id="XMLID_7378_">
					<g id="XMLID_7381_">
						<g id="XMLID_7382_">
							<g id="XMLID_7383_">
								<g id="XMLID_7384_">
									<g id="XMLID_7385_">
										<g id="XMLID_7386_">
											<polygon id="XMLID_7388_" fill="none" points="79.2,100.6 79.2,112.9 84.7,116.1 84.7,103.8 											"/>
											<polygon id="XMLID_7387_" fill="#544129" points="79.2,99.7 78.2,99.1 78.2,112.4 78.8,112.7 79.2,112.9 79.2,100.6 
												84.7,103.8 84.7,116.1 85.1,116.3 85.7,116.7 85.7,115.4 85.8,103.4 											"/>
										</g>
									</g>
								</g>
							</g>
						</g>
					</g>
					<g id="XMLID_7379_">
						<polygon id="XMLID_7380_" fill="none" points="79.2,100.6 79.2,112.9 84.7,116.1 84.7,103.8 						"/>
					</g>
				</g>
				<g id="XMLID_7362_">
					<g id="XMLID_7365_">
						<polygon id="XMLID_7377_" fill="#60462F" points="84.7,116.1 79.2,112.9 79.2,100.5 84.7,103.8 						"/>
						<polygon id="XMLID_7376_" opacity="0.1" points="84.7,116.1 79.2,112.9 79.2,100.6 84.7,103.8 						"/>
						<g id="XMLID_7366_">
							<g id="XMLID_7369_">
								<g id="XMLID_7370_">
									<g id="XMLID_7371_">
										<g id="XMLID_7372_">
											<g id="XMLID_7373_">
												<g id="XMLID_7374_">
													<polygon id="XMLID_7375_" fill="none" points="79.2,100.6 79.2,112.9 84.7,116.1 84.7,103.8 													"/>
												</g>
											</g>
										</g>
									</g>
								</g>
							</g>
							<g id="XMLID_7367_">
								<polygon id="XMLID_7368_" fill="none" points="79.2,100.6 79.2,112.9 84.7,116.1 84.7,103.8 								"/>
							</g>
						</g>
					</g>
					<polygon id="XMLID_7364_" opacity="0.1" points="79.2,99.7 78.2,99.1 78.2,112.4 79.2,112.9 79.2,100.6 84.7,103.8 84.7,116.1 
						85.7,116.7 85.7,115.4 85.8,103.4 					"/>
					<polygon id="XMLID_7363_" opacity="0.3" points="79.2,100.6 79.2,112.9 79.6,113.2 79.6,100.8 					"/>
				</g>
			</g>
		</g>
		<polygon id="XMLID_7359_" fill="#D4AB90" points="60.7,102.3 89.1,118.6 89.1,102.3 60.7,85.9 		"/>
		<polygon id="XMLID_7358_" fill="#AD856A" points="89.1,118.6 89.1,102.3 89.1,102.3 103.2,94.1 117.4,85.9 117.4,102.3 
			117.4,102.3 103.2,110.5 		"/>
		<g id="XMLID_7347_">
			<polygon id="XMLID_7357_" fill="none" points="74.9,94.1 74.9,110.5 74.9,110.5 89.1,118.7 89.1,102.3 89.1,102.3 			"/>
			<polygon id="XMLID_7356_" fill="#B68E72" points="86.7,100.9 86.7,102.9 89.1,104.3 89.1,102.3 			"/>
			<polygon id="XMLID_7355_" fill="#B68E72" points="84.4,104.3 88.4,106.7 88.4,104.7 84.4,102.3 			"/>
			<polygon id="XMLID_7354_" fill="#B68E72" points="84.4,115.3 88.4,117.6 88.4,115.6 84.4,113.3 			"/>
			<polygon id="XMLID_7353_" fill="#B68E72" points="79.6,112.5 83.7,114.9 83.7,112.9 79.6,110.5 			"/>
			<polyline id="XMLID_7352_" fill="#B68E72" points="78.9,112.1 78.9,110.1 74.9,107.8 74.9,109.8 			"/>
			<polygon id="XMLID_7351_" fill="#B68E72" points="79.6,107 83.7,109.4 83.7,107.4 79.6,105.1 			"/>
			<polygon id="XMLID_7350_" fill="#B68E72" points="78.9,104.7 74.9,102.3 74.9,104.3 78.9,106.7 			"/>
			<polygon id="XMLID_7349_" fill="#B68E72" points="86.7,113.9 89.1,115.3 89.1,113.3 86.7,111.9 			"/>
			<polygon id="XMLID_7348_" fill="#B68E72" points="86.7,108.5 89.1,109.8 89.1,107.8 86.7,106.5 			"/>
		</g>
		<g id="XMLID_7336_">
			<g id="XMLID_7337_">
				<polygon id="XMLID_7346_" fill="#90674C" points="92.1,100.6 96.1,98.2 96.2,98.2 96.2,100.2 92.1,102.6 				"/>
				<polygon id="XMLID_7345_" fill="#90674C" points="91.4,100.9 91.4,102.9 89.1,104.3 89.1,102.3 				"/>
				<polygon id="XMLID_7344_" fill="#90674C" points="93.8,104.3 89.7,106.6 89.7,104.6 93.8,102.3 				"/>
				<polygon id="XMLID_7343_" fill="#90674C" points="93.8,115.2 89.7,117.6 89.7,115.6 93.8,113.2 				"/>
				<polygon id="XMLID_7342_" fill="#90674C" points="99.2,110.1 103.2,107.8 103.2,109.8 99.2,112.1 				"/>
				<polygon id="XMLID_7341_" fill="#90674C" points="93.8,109.8 89.7,112.1 89.7,110.1 93.8,107.8 				"/>
				<polygon id="XMLID_7340_" fill="#90674C" points="91.4,113.9 89.1,115.3 89.1,113.3 91.4,111.9 				"/>
				<polygon id="XMLID_7339_" fill="#90674C" points="101.6,106.1 103.2,105.1 103.2,107.1 101.6,108 				"/>
				<polygon id="XMLID_7338_" fill="#90674C" points="91.4,108.5 89.1,109.8 89.1,107.8 91.4,106.5 				"/>
			</g>
		</g>
		<g id="XMLID_7326_">
			<g id="XMLID_7327_">
				<polygon id="XMLID_7335_" fill="#90674C" points="115.7,86.9 117.4,85.9 117.4,87.9 115.7,88.9 				"/>
				<polygon id="XMLID_7334_" fill="#90674C" points="111,89.6 114,87.9 115.1,87.3 115.1,89.3 111,91.6 				"/>
				<polygon id="XMLID_7333_" fill="#90674C" points="112.7,93.4 108.6,95.7 108.6,93.7 112.7,91.4 				"/>
				<polygon id="XMLID_7332_" fill="#90674C" points="113.4,91 117.4,88.7 117.4,90.7 113.4,93 				"/>
				<polygon id="XMLID_7331_" fill="#90674C" points="108,107.1 103.9,109.4 103.9,107.4 108,105.1 				"/>
				<polygon id="XMLID_7330_" fill="#90674C" points="113.4,96.5 117.4,94.1 117.4,96.1 113.4,98.5 				"/>
				<polygon id="XMLID_7329_" fill="#90674C" points="115.8,97.9 117.4,96.9 117.4,98.9 115.8,99.9 				"/>
				<polygon id="XMLID_7328_" fill="#90674C" points="115.8,92.4 117.4,91.4 117.4,93.4 115.8,94.4 				"/>
			</g>
		</g>
		<g id="XMLID_7317_">
			<polygon id="XMLID_7325_" fill="#B68E72" points="62.4,86.9 60.7,85.9 60.7,87.9 62.4,88.9 			"/>
			<polygon id="XMLID_7324_" fill="#B68E72" points="67.1,89.6 64.2,87.9 63.1,87.3 63.1,89.3 67.1,91.6 			"/>
			<polygon id="XMLID_7323_" fill="#B68E72" points="65.4,93.4 69.5,95.7 69.5,93.7 65.4,91.4 			"/>
			<polygon id="XMLID_7322_" fill="#B68E72" points="70.2,96.1 74.3,98.5 74.3,96.5 70.2,94.1 			"/>
			<polygon id="XMLID_7321_" fill="#B68E72" points="64.8,91 60.7,88.7 60.7,90.7 64.8,93 			"/>
			<polygon id="XMLID_7320_" fill="#B68E72" points="64.8,102 60.7,99.6 60.7,101.6 64.8,104 			"/>
			<polygon id="XMLID_7319_" fill="#B68E72" points="62.4,97.9 60.7,96.9 60.7,98.9 62.4,99.9 			"/>
			<polygon id="XMLID_7318_" fill="#B68E72" points="62.4,92.4 60.7,91.4 60.7,93.4 62.4,94.4 			"/>
		</g>
		<polyline id="XMLID_7316_" fill="#B68E72" points="76.6,108.1 76.6,106.1 72.6,103.7 72.6,105.7 		"/>
		<polygon id="XMLID_7315_" fill="#B68E72" points="76.6,95.1 72.6,92.8 72.6,92.7 72.6,94.7 76.6,97.1 		"/>
		<g id="Door_12_">
			<g id="XMLID_7287_">
				<g id="XMLID_7304_">
					<g id="XMLID_7307_">
						<g id="XMLID_7308_">
							<g id="XMLID_7309_">
								<g id="XMLID_7310_">
									<g id="XMLID_7311_">
										<g id="XMLID_7312_">
											<polygon id="XMLID_7314_" fill="none" points="65,92.4 65,104.7 70.5,107.9 70.6,95.6 											"/>
											<polygon id="XMLID_7313_" fill="#544129" points="65,91.5 64,90.9 64,104.2 64.6,104.5 65,104.7 65,92.4 70.6,95.6 
												70.5,107.9 70.9,108.2 71.5,108.5 71.5,107.2 71.6,95.2 											"/>
										</g>
									</g>
								</g>
							</g>
						</g>
					</g>
					<g id="XMLID_7305_">
						<polygon id="XMLID_7306_" fill="none" points="65,92.4 65,104.7 70.5,107.9 70.6,95.6 						"/>
					</g>
				</g>
				<g id="XMLID_7288_">
					<g id="XMLID_7291_">
						<polygon id="XMLID_7303_" fill="#60462F" points="70.5,107.9 65,104.7 65,92.3 70.6,95.6 						"/>
						<polygon id="XMLID_7302_" opacity="0.1" points="70.5,107.9 65,104.7 65,92.4 70.6,95.6 						"/>
						<g id="XMLID_7292_">
							<g id="XMLID_7295_">
								<g id="XMLID_7296_">
									<g id="XMLID_7297_">
										<g id="XMLID_7298_">
											<g id="XMLID_7299_">
												<g id="XMLID_7300_">
													<polygon id="XMLID_7301_" fill="none" points="65,92.4 65,104.7 70.5,107.9 70.6,95.6 													"/>
												</g>
											</g>
										</g>
									</g>
								</g>
							</g>
							<g id="XMLID_7293_">
								<polygon id="XMLID_7294_" fill="none" points="65,92.4 65,104.7 70.5,107.9 70.6,95.6 								"/>
							</g>
						</g>
					</g>
					<polygon id="XMLID_7290_" opacity="0.1" points="65,91.5 64,90.9 64,104.2 65,104.7 65,92.4 70.6,95.6 70.5,107.9 71.5,108.5 
						71.5,107.2 71.6,95.2 					"/>
					<polygon id="XMLID_7289_" opacity="0.3" points="65,92.4 65,104.7 65.4,105 65.4,92.6 					"/>
				</g>
			</g>
		</g>
	</g>
</g>
<g id="XMLID_7198_">
	<g id="XMLID_7200_">
		<polygon id="XMLID_7284_" fill="#D2C7B0" points="89.1,85.9 117.4,69.5 89.1,53.2 60.7,69.5 		"/>
		<polygon id="XMLID_7283_" fill="#AD856A" points="89.1,102.3 89.1,85.9 89.1,85.9 103.2,77.7 117.4,69.5 117.4,85.9 117.4,85.9 
			103.2,94.1 		"/>
		<g id="Door_6_">
			<defs>
				<polygon id="XMLID_7254_" points="74.9,94.1 89.1,102.3 89.1,85.9 74.9,77.7 				"/>
			</defs>
			<clipPath id="XMLID_12_">
				<use xlink:href="#XMLID_7254_"  overflow="visible"/>
			</clipPath>
			<g id="XMLID_7255_" clip-path="url(#XMLID_12_)">
				<g id="XMLID_7272_">
					<g id="XMLID_7275_">
						<g id="XMLID_7276_">
							<g id="XMLID_7277_">
								<g id="XMLID_7278_">
									<g id="XMLID_7279_">
										<g id="XMLID_7280_">
											<polygon id="XMLID_7282_" fill="none" points="79.2,84.2 79.2,96.6 84.7,99.8 84.7,87.4 											"/>
											<polygon id="XMLID_7281_" fill="#544129" points="79.2,83.3 78.2,82.8 78.2,96 78.8,96.3 79.2,96.6 79.2,84.2 84.7,87.4 
												84.7,99.8 85.1,100 85.7,100.3 85.7,99.1 85.8,87.1 											"/>
										</g>
									</g>
								</g>
							</g>
						</g>
					</g>
					<g id="XMLID_7273_">
						<polygon id="XMLID_7274_" fill="none" points="79.2,84.2 79.2,96.6 84.7,99.8 84.7,87.4 						"/>
					</g>
				</g>
				<g id="XMLID_7256_">
					<g id="XMLID_7259_">
						<polygon id="XMLID_7271_" fill="#60462F" points="84.7,99.8 79.2,96.6 79.2,84.1 84.7,87.4 						"/>
						<polygon id="XMLID_7270_" opacity="0.1" points="84.7,99.8 79.2,96.6 79.2,84.2 84.7,87.4 						"/>
						<g id="XMLID_7260_">
							<g id="XMLID_7263_">
								<g id="XMLID_7264_">
									<g id="XMLID_7265_">
										<g id="XMLID_7266_">
											<g id="XMLID_7267_">
												<g id="XMLID_7268_">
													<polygon id="XMLID_7269_" fill="none" points="79.2,84.2 79.2,96.6 84.7,99.8 84.7,87.4 													"/>
												</g>
											</g>
										</g>
									</g>
								</g>
							</g>
							<g id="XMLID_7261_">
								<polygon id="XMLID_7262_" fill="none" points="79.2,84.2 79.2,96.6 84.7,99.8 84.7,87.4 								"/>
							</g>
						</g>
					</g>
					<polygon id="XMLID_7258_" opacity="0.1" points="79.2,83.3 78.2,82.8 78.2,96 79.2,96.6 79.2,84.2 84.7,87.4 84.7,99.8 
						85.7,100.3 85.7,99.1 85.8,87.1 					"/>
					<polygon id="XMLID_7257_" opacity="0.3" points="79.2,84.2 79.2,96.6 79.6,96.8 79.6,84.5 					"/>
				</g>
			</g>
		</g>
		<polygon id="XMLID_7253_" fill="#D4AB90" points="60.7,85.9 89.1,102.3 89.1,85.9 60.7,69.5 		"/>
		<polygon id="XMLID_7252_" fill="#AD856A" points="89.1,102.3 89.1,85.9 89.1,85.9 103.2,77.7 117.4,69.5 117.4,85.9 117.4,85.9 
			103.2,94.1 		"/>
		<g id="XMLID_7241_">
			<polygon id="XMLID_7251_" fill="none" points="74.9,77.7 74.9,94.1 74.9,94.1 89.1,102.3 89.1,85.9 89.1,85.9 			"/>
			<polygon id="XMLID_7250_" fill="#B68E72" points="86.7,84.6 86.7,86.6 89.1,87.9 89.1,85.9 			"/>
			<polygon id="XMLID_7249_" fill="#B68E72" points="84.4,87.9 88.4,90.3 88.4,88.3 84.4,85.9 			"/>
			<polygon id="XMLID_7248_" fill="#B68E72" points="84.4,98.9 88.4,101.2 88.4,99.2 84.4,96.9 			"/>
			<polygon id="XMLID_7247_" fill="#B68E72" points="79.6,96.2 83.7,98.5 83.7,96.5 79.6,94.2 			"/>
			<polyline id="XMLID_7246_" fill="#B68E72" points="78.9,95.8 78.9,93.8 74.9,91.5 74.9,93.5 			"/>
			<polygon id="XMLID_7245_" fill="#B68E72" points="79.6,90.7 83.7,93 83.7,91 79.6,88.7 			"/>
			<polygon id="XMLID_7244_" fill="#B68E72" points="78.9,88.3 74.9,86 74.9,88 78.9,90.3 			"/>
			<polygon id="XMLID_7243_" fill="#B68E72" points="86.7,97.6 89.1,98.9 89.1,96.9 86.7,95.6 			"/>
			<polygon id="XMLID_7242_" fill="#B68E72" points="86.7,92.1 89.1,93.4 89.1,91.4 86.7,90.1 			"/>
		</g>
		<g id="XMLID_7230_">
			<polygon id="XMLID_7240_" fill="none" points="103.2,77.7 103.2,94.1 103.2,94.1 89.1,102.3 89.1,85.9 89.1,85.9 			"/>
			<g id="XMLID_7231_">
				<polygon id="XMLID_7239_" fill="#90674C" points="92.1,84.2 96.1,81.9 96.2,81.8 96.2,83.8 92.1,86.2 				"/>
				<polygon id="XMLID_7238_" fill="#90674C" points="91.4,84.6 91.4,86.6 89.1,87.9 89.1,85.9 				"/>
				<polygon id="XMLID_7237_" fill="#90674C" points="93.8,87.9 89.7,90.3 89.7,88.3 93.8,85.9 				"/>
				<polygon id="XMLID_7236_" fill="#90674C" points="93.8,98.9 89.7,101.2 89.7,99.2 93.8,96.9 				"/>
				<polygon id="XMLID_7235_" fill="#90674C" points="99.2,93.8 103.2,91.4 103.2,93.4 99.2,95.8 				"/>
				<polygon id="XMLID_7234_" fill="#90674C" points="93.8,93.4 89.7,95.8 89.7,93.8 93.8,91.4 				"/>
				<polygon id="XMLID_7233_" fill="#90674C" points="91.4,97.6 89.1,98.9 89.1,96.9 91.4,95.6 				"/>
				<polygon id="XMLID_7232_" fill="#90674C" points="91.4,92.1 89.1,93.4 89.1,91.4 91.4,90.1 				"/>
			</g>
		</g>
		<g id="XMLID_7219_">
			<polygon id="XMLID_7229_" fill="none" points="117.4,69.5 117.4,85.9 117.4,85.9 103.2,94.1 103.2,77.7 103.2,77.7 			"/>
			<g id="XMLID_7220_">
				<polygon id="XMLID_7228_" fill="#90674C" points="115.7,70.5 117.4,69.5 117.4,71.5 115.7,72.5 				"/>
				<polygon id="XMLID_7227_" fill="#90674C" points="111,73.3 114,71.6 115.1,70.9 115.1,72.9 111,75.3 				"/>
				<polygon id="XMLID_7226_" fill="#90674C" points="112.7,77 108.6,79.4 108.6,77.4 112.7,75 				"/>
				<polygon id="XMLID_7225_" fill="#90674C" points="113.4,74.6 117.4,72.3 117.4,74.3 113.4,76.6 				"/>
				<polygon id="XMLID_7224_" fill="#90674C" points="108,90.7 103.9,93 103.9,91.1 108,88.7 				"/>
				<polygon id="XMLID_7223_" fill="#90674C" points="113.4,80.1 117.4,77.8 117.4,79.8 113.4,82.1 				"/>
				<polygon id="XMLID_7222_" fill="#90674C" points="115.8,81.5 117.4,80.5 117.4,82.5 115.8,83.5 				"/>
				<polygon id="XMLID_7221_" fill="#90674C" points="115.8,76 117.4,75.1 117.4,77.1 115.8,78 				"/>
			</g>
		</g>
		<g id="XMLID_7209_">
			<polygon id="XMLID_7218_" fill="none" points="60.7,69.5 60.7,85.9 60.7,85.9 74.9,94.1 74.9,77.7 74.9,77.7 			"/>
			<polygon id="XMLID_7217_" fill="#B68E72" points="62.4,70.5 60.7,69.5 60.7,71.5 62.4,72.5 			"/>
			<polygon id="XMLID_7216_" fill="#B68E72" points="67.1,73.3 64.2,71.6 63.1,70.9 63.1,72.9 67.1,75.3 			"/>
			<polygon id="XMLID_7215_" fill="#B68E72" points="65.4,77 69.5,79.4 69.5,77.4 65.4,75 			"/>
			<polygon id="XMLID_7214_" fill="#B68E72" points="70.2,79.7 74.3,82.1 74.3,80.1 70.2,77.7 			"/>
			<polygon id="XMLID_7213_" fill="#B68E72" points="64.8,74.6 60.7,72.3 60.7,74.3 64.8,76.6 			"/>
			<polygon id="XMLID_7212_" fill="#B68E72" points="64.8,85.6 60.7,83.3 60.7,85.3 64.8,87.6 			"/>
			<polygon id="XMLID_7211_" fill="#B68E72" points="62.4,81.5 60.7,80.5 60.7,82.5 62.4,83.5 			"/>
			<polygon id="XMLID_7210_" fill="#B68E72" points="62.4,76 60.7,75.1 60.7,77.1 62.4,78 			"/>
		</g>
		<polyline id="XMLID_7208_" fill="#B68E72" points="76.6,91.7 76.6,89.7 72.6,87.4 72.6,89.4 		"/>
		<polygon id="XMLID_7207_" fill="#B68E72" points="76.6,78.7 72.6,76.4 72.6,76.4 72.6,78.4 76.6,80.7 		"/>
		<g id="XMLID_7201_">
			<g id="XMLID_7202_">
				<polygon id="XMLID_7206_" fill="#90674C" points="111,73.3 112.7,72.3 112.7,74.3 111,75.3 				"/>
				<polygon id="XMLID_7205_" fill="#90674C" points="103.2,82.5 99.2,84.8 99.2,82.8 103.2,80.5 				"/>
				<polygon id="XMLID_7204_" fill="#90674C" points="106.3,87 110.4,84.6 110.4,86.6 106.3,89 				"/>
				<polygon id="XMLID_7203_" fill="#90674C" points="101.6,84.2 105.6,81.9 105.6,83.9 101.6,86.2 				"/>
			</g>
		</g>
	</g>
	<polygon id="XMLID_7199_" fill="#90674C" points="105.6,89.4 101.6,91.7 101.6,89.7 105.6,87.4 	"/>
</g>
<g id="XMLID_6178_">
	<g id="XMLID_6180_">
		<polygon id="XMLID_6380_" fill="#D2C7B0" points="89.1,69.5 117.4,53.2 89.1,36.8 60.7,53.2 		"/>
		<polygon id="XMLID_6379_" fill="#AD856A" points="89.1,85.9 89.1,69.5 89.1,69.5 103.2,61.4 117.4,53.2 117.4,69.5 117.4,69.5 
			103.2,77.7 		"/>
		<g id="Door_8_">
			<defs>
				<polygon id="XMLID_6350_" points="74.9,77.7 89.1,85.9 89.1,69.6 74.9,61.4 				"/>
			</defs>
			<clipPath id="XMLID_13_">
				<use xlink:href="#XMLID_6350_"  overflow="visible"/>
			</clipPath>
			<g id="XMLID_6351_" clip-path="url(#XMLID_13_)">
				<g id="XMLID_6368_">
					<g id="XMLID_6371_">
						<g id="XMLID_6372_">
							<g id="XMLID_6373_">
								<g id="XMLID_6374_">
									<g id="XMLID_6375_">
										<g id="XMLID_6376_">
											<polygon id="XMLID_6378_" fill="none" points="79.2,67.8 79.2,80.2 84.7,83.4 84.7,71 											"/>
											<polygon id="XMLID_6377_" fill="#544129" points="79.2,66.9 78.2,66.4 78.2,79.7 78.8,80 79.2,80.2 79.2,67.8 84.7,71 
												84.7,83.4 85.1,83.6 85.7,84 85.7,82.7 85.8,70.7 											"/>
										</g>
									</g>
								</g>
							</g>
						</g>
					</g>
					<g id="XMLID_6369_">
						<polygon id="XMLID_6370_" fill="none" points="79.2,67.8 79.2,80.2 84.7,83.4 84.7,71 						"/>
					</g>
				</g>
				<g id="XMLID_6352_">
					<g id="XMLID_6355_">
						<polygon id="XMLID_6367_" fill="#60462F" points="84.7,83.4 79.2,80.2 79.2,67.7 84.7,71 						"/>
						<polygon id="XMLID_6366_" opacity="0.1" points="84.7,83.4 79.2,80.2 79.2,67.8 84.7,71 						"/>
						<g id="XMLID_6356_">
							<g id="XMLID_6359_">
								<g id="XMLID_6360_">
									<g id="XMLID_6361_">
										<g id="XMLID_6362_">
											<g id="XMLID_6363_">
												<g id="XMLID_6364_">
													<polygon id="XMLID_6365_" fill="none" points="79.2,67.8 79.2,80.2 84.7,83.4 84.7,71 													"/>
												</g>
											</g>
										</g>
									</g>
								</g>
							</g>
							<g id="XMLID_6357_">
								<polygon id="XMLID_6358_" fill="none" points="79.2,67.8 79.2,80.2 84.7,83.4 84.7,71 								"/>
							</g>
						</g>
					</g>
					<polygon id="XMLID_6354_" opacity="0.1" points="79.2,66.9 78.2,66.4 78.2,79.7 79.2,80.2 79.2,67.8 84.7,71 84.7,83.4 
						85.7,84 85.7,82.7 85.8,70.7 					"/>
					<polygon id="XMLID_6353_" opacity="0.3" points="79.2,67.8 79.2,80.2 79.6,80.4 79.6,68.1 					"/>
				</g>
			</g>
		</g>
		<polygon id="XMLID_6349_" fill="#D4AB90" points="60.7,69.5 89.1,85.9 89.1,69.6 60.7,53.2 		"/>
		<polygon id="XMLID_6348_" fill="#AD856A" points="89.1,85.9 89.1,69.5 89.1,69.5 103.2,61.4 117.4,53.2 117.4,69.5 117.4,69.5 
			103.2,77.7 		"/>
		<g id="XMLID_6337_">
			<polygon id="XMLID_6347_" fill="none" points="74.9,61.4 74.9,77.7 74.9,77.7 89.1,85.9 89.1,69.6 89.1,69.6 			"/>
			<polygon id="XMLID_6346_" fill="#B68E72" points="86.7,68.2 86.7,70.2 89.1,71.6 89.1,69.6 			"/>
			<polygon id="XMLID_6345_" fill="#B68E72" points="84.4,71.6 88.4,73.9 88.4,71.9 84.4,69.6 			"/>
			<polygon id="XMLID_6344_" fill="#B68E72" points="84.4,82.5 88.4,84.9 88.4,82.9 84.4,80.5 			"/>
			<polygon id="XMLID_6343_" fill="#B68E72" points="79.6,79.8 83.7,82.1 83.7,80.1 79.6,77.8 			"/>
			<polyline id="XMLID_6342_" fill="#B68E72" points="78.9,79.4 78.9,77.4 74.9,75.1 74.9,77.1 			"/>
			<polygon id="XMLID_6341_" fill="#B68E72" points="79.6,74.3 83.7,76.7 83.7,74.7 79.6,72.3 			"/>
			<polygon id="XMLID_6340_" fill="#B68E72" points="78.9,71.9 74.9,69.6 74.9,71.6 78.9,73.9 			"/>
			<polygon id="XMLID_6339_" fill="#B68E72" points="86.7,81.2 89.1,82.6 89.1,80.6 86.7,79.2 			"/>
			<polygon id="XMLID_6338_" fill="#B68E72" points="86.7,75.7 89.1,77.1 89.1,75.1 86.7,73.7 			"/>
		</g>
		<g id="XMLID_6326_">
			<polygon id="XMLID_6336_" fill="none" points="103.2,61.4 103.2,77.7 103.2,77.7 89.1,85.9 89.1,69.5 89.1,69.5 			"/>
			<g id="XMLID_6327_">
				<polygon id="XMLID_6335_" fill="#90674C" points="92.1,67.8 96.1,65.5 96.2,65.5 96.2,67.5 92.1,69.8 				"/>
				<polygon id="XMLID_6334_" fill="#90674C" points="91.4,68.2 91.4,70.2 89.1,71.5 89.1,69.5 				"/>
				<polygon id="XMLID_6333_" fill="#90674C" points="93.8,71.6 89.7,73.9 89.7,71.9 93.8,69.6 				"/>
				<polygon id="XMLID_6332_" fill="#90674C" points="93.8,82.5 89.7,84.9 89.7,82.9 93.8,80.5 				"/>
				<polygon id="XMLID_6331_" fill="#90674C" points="99.2,77.4 103.2,75.1 103.2,77.1 99.2,79.4 				"/>
				<polygon id="XMLID_6330_" fill="#90674C" points="93.8,77 89.7,79.4 89.7,77.4 93.8,75 				"/>
				<polygon id="XMLID_6329_" fill="#90674C" points="91.4,81.2 89.1,82.5 89.1,80.5 91.4,79.2 				"/>
				<polygon id="XMLID_6328_" fill="#90674C" points="91.4,75.7 89.1,77.1 89.1,75.1 91.4,73.7 				"/>
			</g>
		</g>
		<g id="XMLID_6315_">
			<polygon id="XMLID_6325_" fill="none" points="117.4,53.2 117.4,69.5 117.4,69.5 103.2,77.7 103.2,61.4 103.2,61.4 			"/>
			<g id="XMLID_6316_">
				<polygon id="XMLID_6324_" fill="#90674C" points="115.7,54.2 117.4,53.2 117.4,55.2 115.7,56.2 				"/>
				<polygon id="XMLID_6323_" fill="#90674C" points="111,56.9 114,55.2 115.1,54.6 115.1,56.6 111,58.9 				"/>
				<polygon id="XMLID_6322_" fill="#90674C" points="112.7,60.6 108.6,63 108.6,61 112.7,58.7 				"/>
				<polygon id="XMLID_6321_" fill="#90674C" points="113.4,58.3 117.4,55.9 117.4,57.9 113.4,60.3 				"/>
				<polygon id="XMLID_6320_" fill="#90674C" points="108,74.3 103.9,76.7 103.9,74.7 108,72.3 				"/>
				<polygon id="XMLID_6319_" fill="#90674C" points="113.4,63.7 117.4,61.4 117.4,63.4 113.4,65.7 				"/>
				<polygon id="XMLID_6318_" fill="#90674C" points="115.8,65.1 117.4,64.2 117.4,66.2 115.8,67.1 				"/>
				<polygon id="XMLID_6317_" fill="#90674C" points="115.8,59.7 117.4,58.7 117.4,60.7 115.8,61.7 				"/>
			</g>
		</g>
		<g id="XMLID_6189_">
			<polygon id="XMLID_6314_" fill="none" points="60.7,53.2 60.7,69.5 60.7,69.5 74.9,77.7 74.9,61.4 74.9,61.4 			"/>
			<polygon id="XMLID_6313_" fill="#B68E72" points="62.4,54.2 60.7,53.2 60.7,55.2 62.4,56.1 			"/>
			<polygon id="XMLID_6312_" fill="#B68E72" points="67.1,56.9 64.2,55.2 63.1,54.6 63.1,56.6 67.1,58.9 			"/>
			<polygon id="XMLID_6311_" fill="#B68E72" points="65.4,60.6 69.5,63 69.5,61 65.4,58.7 			"/>
			<polygon id="XMLID_6194_" fill="#B68E72" points="70.2,63.4 74.3,65.7 74.3,63.7 70.2,61.4 			"/>
			<polygon id="XMLID_6193_" fill="#B68E72" points="64.8,58.3 60.7,55.9 60.7,57.9 64.8,60.3 			"/>
			<polygon id="XMLID_6192_" fill="#B68E72" points="64.8,69.2 60.7,66.9 60.7,68.9 64.8,71.2 			"/>
			<polygon id="XMLID_6191_" fill="#B68E72" points="62.4,65.1 60.7,64.2 60.7,66.2 62.4,67.1 			"/>
			<polygon id="XMLID_6190_" fill="#B68E72" points="62.4,59.7 60.7,58.7 60.7,60.7 62.4,61.7 			"/>
		</g>
		<polyline id="XMLID_6188_" fill="#B68E72" points="76.6,75.3 76.6,73.3 72.6,71 72.6,73 		"/>
		<polygon id="XMLID_6187_" fill="#B68E72" points="76.6,62.4 72.6,60.1 72.6,60 72.6,62 76.6,64.4 		"/>
		<g id="XMLID_6181_">
			<g id="XMLID_6182_">
				<polygon id="XMLID_6186_" fill="#90674C" points="111,56.9 112.7,55.9 112.7,57.9 111,58.9 				"/>
				<polygon id="XMLID_6185_" fill="#90674C" points="103.2,66.1 99.2,68.5 99.2,66.5 103.2,64.1 				"/>
				<polygon id="XMLID_6184_" fill="#90674C" points="106.3,70.6 110.4,68.3 110.4,70.3 106.3,72.6 				"/>
				<polygon id="XMLID_6183_" fill="#90674C" points="101.6,67.9 105.6,65.5 105.6,67.5 101.6,69.9 				"/>
			</g>
		</g>
	</g>
	<polygon id="XMLID_6179_" fill="#90674C" points="105.6,73 101.6,75.3 101.6,73.3 105.6,71 	"/>
</g>
<g id="XMLID_7733_">
	<g id="XMLID_7829_">
		<g id="XMLID_7831_">
			<g id="XMLID_7832_">
				<g id="Window_3_">
					<g id="XMLID_7879_">
						<g id="XMLID_7888_">
							<g id="XMLID_7889_">
								<g id="XMLID_7890_">
									<g id="XMLID_7891_">
										<g id="XMLID_7894_">
											<g id="XMLID_7900_">
												<g id="XMLID_7913_">
													<polygon fill="#78D5FB" points="85.3,95.3 78.2,91 78.2,82.7 85.4,87 													"/>
												</g>
												<g id="XMLID_7907_">
													<polygon id="XMLID_7912_" fill="#78D5FB" points="81.7,92.9 79,91.3 79,83.5 81.7,85 													"/>
													<path id="XMLID_7911_" opacity="0.2" d="M81.7,85L79,83.5v7.9l1.7,1c0-2-0.7-3.5-0.7-3.5C81.4,88.9,81.7,85,81.7,85z"
														/>
													<g id="XMLID_7908_" opacity="0.6">
														<path id="XMLID_7910_" fill="#C6C6C6" d="M81.1,84.7L79,83.5v7.9l1.3,0.7c0-2-0.5-3.4-0.5-3.4
															C80.8,88.6,81.1,84.7,81.1,84.7z"/>
														<path id="XMLID_7909_" fill="#FFFFFF" d="M80.9,84.6L79,83.5v7.9l1.2,0.7c0-2-0.5-3.4-0.5-3.4
															C80.7,88.5,80.9,84.6,80.9,84.6z"/>
													</g>
												</g>
												<g id="XMLID_7901_">
													<polygon id="XMLID_7906_" fill="#78D5FB" points="82,93.1 85.1,94.9 85.1,87 82,85.2 													"/>
													<path id="XMLID_7905_" opacity="0.2" d="M82,85.2l3.1,1.8v7.9l-1.9-1.1c0-2,0.8-2.6,0.8-2.6C82.4,89.5,82,85.2,82,85.2
														z"/>
													<g id="XMLID_7902_" opacity="0.6">
														<path id="XMLID_7904_" fill="#C6C6C6" d="M82.8,85.6l2.4,1.4v7.9L83.7,94c0-2,0.6-2.7,0.6-2.7
															C83,89.9,82.8,85.6,82.8,85.6z"/>
														<path id="XMLID_7903_" fill="#FFFFFF" d="M82.9,85.7l2.2,1.2v7.9l-1.3-0.8c0-2,0.5-2.8,0.5-2.8
															C83.2,90,82.9,85.7,82.9,85.7z"/>
													</g>
												</g>
											</g>
											<polygon id="XMLID_7899_" opacity="8.000000e-002" points="78.6,83.2 85.1,94.8 85.1,87 											"/>
											<polygon id="XMLID_7898_" fill="none" points="78.6,91.5 85.1,95.2 85.1,87 78.6,83.2 											"/>
											<path id="XMLID_7895_" fill="#544129" d="M78.6,82.3l-0.8-0.4v10.4l0.3,0.2l7.3,4.2l0.6,0.3l0-1.3l0.1-9.2L78.6,82.3z
												 M85.1,95.2l-6.5-3.8v-8.2l6.6,3.8L85.1,95.2z"/>
										</g>
										<polygon id="XMLID_7893_" fill="#544129" points="85.1,94.8 78.9,91.3 78.6,91.5 85.1,95.2 										"/>
										<polygon id="XMLID_7892_" fill="#544129" points="79,83.5 78.9,91.3 78.6,91.5 78.6,83.2 										"/>
									</g>
								</g>
							</g>
						</g>
						<g id="XMLID_7885_">
							<polygon id="XMLID_7887_" fill="#544129" points="81.4,84.8 81.4,93.1 81.7,93.3 81.7,85 							"/>
							<polygon id="XMLID_7886_" fill="#544129" points="81.7,85 81.7,85 81.7,93.3 82,93.1 82,85.2 							"/>
						</g>
						<polygon id="XMLID_7884_" opacity="0.3" points="79,83.5 78.9,91.3 78.6,91.5 78.6,83.2 						"/>
						<polygon id="XMLID_7883_" opacity="0.3" points="81.7,85 81.7,85 81.7,93.3 82,93.1 82,85.2 						"/>
						<path id="XMLID_7880_" opacity="0.1" d="M78.6,82.3l-0.8-0.4v10.4l0.3,0.2l7.3,4.2l0.6,0.3l0-1.3l0.1-9.2L78.6,82.3z
							 M85.1,95.2l-6.5-3.8v-8.2l6.6,3.8L85.1,95.2z"/>
					</g>
				</g>
				<g id="Window_1_">
					<polygon id="XMLID_7878_" opacity="0.5" fill="none" points="60.7,85.9 89.1,102.3 89.1,85.9 60.7,69.5 					"/>
					<g id="XMLID_7833_">
						<g id="XMLID_7842_">
							<g id="XMLID_7843_">
								<g id="XMLID_7844_">
									<g id="XMLID_7845_">
										<g id="XMLID_7850_">
											<g id="XMLID_7860_">
												<g id="XMLID_7877_">
													<polygon fill="#78D5FB" points="71.2,87.1 64,82.8 64,74.5 71.2,78.9 													"/>
												</g>
												<g id="XMLID_7871_">
													<polygon id="XMLID_7876_" fill="#78D5FB" points="67.5,84.7 64.8,83.2 64.8,75.3 67.5,76.8 													"/>
													<path id="XMLID_7875_" opacity="0.2" d="M67.5,76.8l-2.7-1.6v7.9l1.7,1c0-2-0.7-3.5-0.7-3.5
														C67.2,80.8,67.5,76.8,67.5,76.8z"/>
													<g id="XMLID_7872_" opacity="0.6">
														<path id="XMLID_7874_" fill="#C6C6C6" d="M66.9,76.5l-2.1-1.2v7.9l1.3,0.7c0-2-0.5-3.4-0.5-3.4
															C66.7,80.4,66.9,76.5,66.9,76.5z"/>
														<path id="XMLID_7873_" fill="#FFFFFF" d="M66.7,76.4l-1.9-1.1v7.9l1.2,0.7c0-2-0.5-3.4-0.5-3.4
															C66.5,80.3,66.7,76.4,66.7,76.4z"/>
													</g>
												</g>
												<g id="XMLID_7864_">
													<polygon id="XMLID_7870_" fill="#78D5FB" points="67.9,84.9 70.9,86.7 70.9,78.8 67.9,77 													"/>
													<path id="XMLID_7869_" opacity="0.2" d="M67.9,77l3.1,1.8v7.9L69,85.6c0-2,0.8-2.6,0.8-2.6C68.2,81.3,67.9,77,67.9,77z
														"/>
													<g id="XMLID_7866_" opacity="0.6">
														<path id="XMLID_7868_" fill="#C6C6C6" d="M68.6,77.4l2.4,1.4v7.9l-1.5-0.8c0-2,0.6-2.7,0.6-2.7
															C68.8,81.7,68.6,77.4,68.6,77.4z"/>
														<path id="XMLID_7867_" fill="#FFFFFF" d="M68.8,77.5l2.2,1.3v7.9l-1.3-0.8c0-2,0.5-2.8,0.5-2.8
															C69,81.8,68.8,77.5,68.8,77.5z"/>
													</g>
												</g>
											</g>
											<polygon id="XMLID_7858_" opacity="8.000000e-002" points="64.4,75 70.9,86.6 70.9,78.8 											"/>
											<polygon id="XMLID_7857_" fill="none" points="64.4,83.3 70.9,87.1 70.9,78.8 64.4,75 											"/>
											<path id="XMLID_7851_" fill="#544129" d="M64.4,74.1l-0.8-0.4v10.4l0.3,0.2l7.3,4.2l0.6,0.3l0-1.3l0.1-9.2L64.4,74.1z
												 M70.9,87.1l-6.5-3.8V75l6.6,3.8L70.9,87.1z"/>
										</g>
										<polygon id="XMLID_7848_" fill="#544129" points="70.9,86.6 64.8,83.1 64.4,83.3 70.9,87.1 										"/>
										<polygon id="XMLID_7846_" fill="#544129" points="64.8,75.3 64.8,83.1 64.4,83.3 64.4,75 										"/>
									</g>
								</g>
							</g>
						</g>
						<g id="XMLID_7839_">
							<polygon id="XMLID_7841_" fill="#544129" points="67.2,76.6 67.2,84.9 67.5,85.1 67.5,76.8 							"/>
							<polygon id="XMLID_7840_" fill="#544129" points="67.5,76.8 67.5,76.8 67.5,85.1 67.9,84.9 67.9,77 							"/>
						</g>
						<polygon id="XMLID_7838_" opacity="0.3" points="64.8,75.3 64.8,83.1 64.4,83.3 64.4,75 						"/>
						<polygon id="XMLID_7837_" opacity="0.3" points="67.5,76.8 67.5,76.8 67.5,85.1 67.9,84.9 67.9,77 						"/>
						<path id="XMLID_7834_" opacity="0.1" d="M64.4,74.1l-0.8-0.4v10.4l0.3,0.2l7.3,4.2l0.6,0.3l0-1.3l0.1-9.2L64.4,74.1z
							 M70.9,87.1l-6.5-3.8V75l6.6,3.8L70.9,87.1z"/>
					</g>
				</g>
			</g>
		</g>
		<polygon id="XMLID_7830_" fill="none" points="117.4,85.9 117.4,69.5 89.1,85.9 89.1,102.3 		"/>
	</g>
</g>
<g id="XMLID_7524_">
	<g id="XMLID_7525_">
		<g id="XMLID_7583_">
			<g id="XMLID_7584_">
				<g id="Window_49_">
					<g id="XMLID_7621_">
						<g id="XMLID_7630_">
							<g id="XMLID_7631_">
								<g id="XMLID_7632_">
									<g id="XMLID_7633_">
										<g id="XMLID_7636_">
											<g id="XMLID_7642_">
												<g id="XMLID_7655_">
													<polygon fill="#78D5FB" points="85.3,78.9 78.2,74.7 78.2,66.4 85.4,70.7 													"/>
												</g>
												<g id="XMLID_7649_">
													<polygon id="XMLID_7654_" fill="#78D5FB" points="81.7,76.5 79,75 79,67.1 81.7,68.7 													"/>
													<path id="XMLID_7653_" opacity="0.2" d="M81.7,68.7L79,67.1V75l1.7,1c0-2-0.7-3.5-0.7-3.5
														C81.4,72.6,81.7,68.7,81.7,68.7z"/>
													<g id="XMLID_7650_" opacity="0.6">
														<path id="XMLID_7652_" fill="#C6C6C6" d="M81.1,68.3L79,67.1V75l1.3,0.7c0-2-0.5-3.4-0.5-3.4
															C80.8,72.3,81.1,68.3,81.1,68.3z"/>
														<path id="XMLID_7651_" fill="#FFFFFF" d="M80.9,68.2L79,67.1V75l1.2,0.7c0-2-0.5-3.4-0.5-3.4
															C80.7,72.2,80.9,68.2,80.9,68.2z"/>
													</g>
												</g>
												<g id="XMLID_7643_">
													<polygon id="XMLID_7648_" fill="#78D5FB" points="82,76.7 85.1,78.5 85.1,70.6 82,68.9 													"/>
													<path id="XMLID_7647_" opacity="0.2" d="M82,68.9l3.1,1.8v7.9l-1.9-1.1c0-2,0.8-2.6,0.8-2.6C82.4,73.1,82,68.9,82,68.9
														z"/>
													<g id="XMLID_7644_" opacity="0.6">
														<path id="XMLID_7646_" fill="#C6C6C6" d="M82.8,69.3l2.4,1.4v7.9l-1.5-0.8c0-2,0.6-2.7,0.6-2.7
															C83,73.5,82.8,69.3,82.8,69.3z"/>
														<path id="XMLID_7645_" fill="#FFFFFF" d="M82.9,69.4l2.2,1.3v7.9l-1.3-0.8c0-2,0.5-2.8,0.5-2.8
															C83.2,73.6,82.9,69.4,82.9,69.4z"/>
													</g>
												</g>
											</g>
											<polygon id="XMLID_7641_" opacity="8.000000e-002" points="78.6,66.9 85.1,78.5 85.1,70.6 											"/>
											<polygon id="XMLID_7640_" fill="none" points="78.6,75.1 85.1,78.9 85.1,70.6 78.6,66.9 											"/>
											<path id="XMLID_7637_" fill="#544129" d="M78.6,66l-0.8-0.4v10.4l0.3,0.2l7.3,4.2l0.6,0.3l0-1.3l0.1-9.2L78.6,66z
												 M85.1,78.9l-6.5-3.8v-8.2l6.6,3.8L85.1,78.9z"/>
										</g>
										<polygon id="XMLID_7635_" fill="#544129" points="85.1,78.5 78.9,74.9 78.6,75.1 85.1,78.9 										"/>
										<polygon id="XMLID_7634_" fill="#544129" points="79,67.1 78.9,74.9 78.6,75.1 78.6,66.9 										"/>
									</g>
								</g>
							</g>
						</g>
						<g id="XMLID_7627_">
							<polygon id="XMLID_7629_" fill="#544129" points="81.4,68.5 81.4,76.7 81.7,76.9 81.7,68.7 							"/>
							<polygon id="XMLID_7628_" fill="#544129" points="81.7,68.7 81.7,68.7 81.7,76.9 82,76.7 82,68.9 							"/>
						</g>
						<polygon id="XMLID_7626_" opacity="0.3" points="79,67.1 78.9,74.9 78.6,75.1 78.6,66.9 						"/>
						<polygon id="XMLID_7625_" opacity="0.3" points="81.7,68.7 81.7,68.7 81.7,76.9 82,76.7 82,68.9 						"/>
						<path id="XMLID_7622_" opacity="0.1" d="M78.6,66l-0.8-0.4v10.4l0.3,0.2l7.3,4.2l0.6,0.3l0-1.3l0.1-9.2L78.6,66z M85.1,78.9
							l-6.5-3.8v-8.2l6.6,3.8L85.1,78.9z"/>
					</g>
				</g>
				<g id="Window_48_">
					<polygon id="XMLID_7620_" opacity="0.5" fill="none" points="60.7,69.5 89.1,85.9 89.1,69.6 60.7,53.2 					"/>
					<g id="XMLID_7585_">
						<g id="XMLID_7594_">
							<g id="XMLID_7595_">
								<g id="XMLID_7596_">
									<g id="XMLID_7597_">
										<g id="XMLID_7600_">
											<g id="XMLID_7606_">
												<g id="XMLID_7619_">
													<polygon fill="#78D5FB" points="71.2,70.7 64,66.5 64,58.2 71.2,62.5 													"/>
												</g>
												<g id="XMLID_7613_">
													<polygon id="XMLID_7618_" fill="#78D5FB" points="67.5,68.4 64.8,66.8 64.8,58.9 67.5,60.5 													"/>
													<path id="XMLID_7617_" opacity="0.2" d="M67.5,60.5l-2.7-1.6v7.9l1.7,1c0-2-0.7-3.5-0.7-3.5
														C67.2,64.4,67.5,60.5,67.5,60.5z"/>
													<g id="XMLID_7614_" opacity="0.6">
														<path id="XMLID_7616_" fill="#C6C6C6" d="M66.9,60.1l-2.1-1.2v7.9l1.3,0.7c0-2-0.5-3.4-0.5-3.4
															C66.7,64.1,66.9,60.1,66.9,60.1z"/>
														<path id="XMLID_7615_" fill="#FFFFFF" d="M66.7,60l-1.9-1.1v7.9l1.2,0.7c0-2-0.5-3.4-0.5-3.4C66.5,64,66.7,60,66.7,60
															z"/>
													</g>
												</g>
												<g id="XMLID_7607_">
													<polygon id="XMLID_7612_" fill="#78D5FB" points="67.9,68.5 70.9,70.3 70.9,62.4 67.9,60.7 													"/>
													<path id="XMLID_7611_" opacity="0.2" d="M67.9,60.7l3.1,1.8v7.9L69,69.2c0-2,0.8-2.6,0.8-2.6
														C68.2,64.9,67.9,60.7,67.9,60.7z"/>
													<g id="XMLID_7608_" opacity="0.6">
														<path id="XMLID_7610_" fill="#C6C6C6" d="M68.6,61.1l2.4,1.4v7.9l-1.5-0.8c0-2,0.6-2.7,0.6-2.7
															C68.8,65.3,68.6,61.1,68.6,61.1z"/>
														<path id="XMLID_7609_" fill="#FFFFFF" d="M68.8,61.2l2.2,1.2v7.9l-1.3-0.8c0-2,0.5-2.8,0.5-2.8
															C69,65.4,68.8,61.2,68.8,61.2z"/>
													</g>
												</g>
											</g>
											<polygon id="XMLID_7605_" opacity="8.000000e-002" points="64.4,58.7 70.9,70.3 70.9,62.4 											"/>
											<polygon id="XMLID_7604_" fill="none" points="64.4,66.9 70.9,70.7 70.9,62.4 64.4,58.7 											"/>
											<path id="XMLID_7601_" fill="#544129" d="M64.4,57.8l-0.8-0.4v10.4L64,68l7.3,4.2l0.6,0.3l0-1.3l0.1-9.2L64.4,57.8z
												 M70.9,70.7l-6.5-3.8v-8.2l6.6,3.8L70.9,70.7z"/>
										</g>
										<polygon id="XMLID_7599_" fill="#544129" points="70.9,70.3 64.8,66.7 64.4,66.9 70.9,70.7 										"/>
										<polygon id="XMLID_7598_" fill="#544129" points="64.8,58.9 64.8,66.7 64.4,66.9 64.4,58.7 										"/>
									</g>
								</g>
							</g>
						</g>
						<g id="XMLID_7591_">
							<polygon id="XMLID_7593_" fill="#544129" points="67.2,60.3 67.2,68.5 67.5,68.7 67.5,60.5 							"/>
							<polygon id="XMLID_7592_" fill="#544129" points="67.5,60.5 67.5,60.5 67.5,68.7 67.9,68.5 67.9,60.7 							"/>
						</g>
						<polygon id="XMLID_7590_" opacity="0.3" points="64.8,58.9 64.8,66.7 64.4,66.9 64.4,58.7 						"/>
						<polygon id="XMLID_7589_" opacity="0.3" points="67.5,60.5 67.5,60.5 67.5,68.7 67.9,68.5 67.9,60.7 						"/>
						<path id="XMLID_7586_" opacity="0.1" d="M64.4,57.8l-0.8-0.4v10.4L64,68l7.3,4.2l0.6,0.3l0-1.3l0.1-9.2L64.4,57.8z M70.9,70.7
							l-6.5-3.8v-8.2l6.6,3.8L70.9,70.7z"/>
					</g>
				</g>
			</g>
		</g>
		<g id="XMLID_7526_">
			<g id="XMLID_7556_">
				<g id="XMLID_7561_">
					<g id="XMLID_7562_">
						<g id="XMLID_7563_">
							<g id="XMLID_7564_">
								<g id="XMLID_7567_">
									<g id="XMLID_7573_">
										<g id="XMLID_7582_">
											<polygon fill="#78D5FB" points="103.2,72.9 110.3,68.7 110.3,60.4 103.2,64.7 											"/>
										</g>
										<g id="XMLID_7576_">
											<polygon id="XMLID_7581_" fill="#78D5FB" points="106.8,70.5 109.6,69 109.6,61.1 106.8,62.7 											"/>
											<path id="XMLID_7580_" opacity="0.2" d="M106.8,62.7l2.7-1.6V69l-1.7,1c0-2,0.7-3.5,0.7-3.5
												C107.1,66.6,106.8,62.7,106.8,62.7z"/>
											<g id="XMLID_7577_" opacity="0.6">
												<path id="XMLID_7579_" fill="#C6C6C6" d="M107.5,62.3l2.1-1.2V69l-1.3,0.7c0-2,0.5-3.4,0.5-3.4
													C107.7,66.2,107.5,62.3,107.5,62.3z"/>
												<path id="XMLID_7578_" fill="#FFFFFF" d="M107.6,62.2l1.9-1.1V69l-1.2,0.7c0-2,0.5-3.4,0.5-3.4
													C107.8,66.2,107.6,62.2,107.6,62.2z"/>
											</g>
										</g>
										<g id="XMLID_7574_">
											<polygon id="XMLID_7575_" fill="#78D5FB" points="106.5,70.7 103.4,72.5 103.4,64.6 106.5,62.8 											"/>
										</g>
									</g>
									<polygon id="XMLID_7572_" opacity="8.000000e-002" points="110,60.9 110,68.9 103.4,64.6 									"/>
									<polygon id="XMLID_7571_" fill="none" points="110,69.1 103.4,72.9 103.4,64.6 110,60.9 									"/>
									<path id="XMLID_7568_" fill="#544129" d="M102.4,64.3l0.1,9.2l0,1.3l0.6-0.3l7.3-4.2l0.3-0.2V59.5l-0.8,0.4L102.4,64.3z
										 M103.4,64.6l6.6-3.8v8.2l-6.5,3.8L103.4,64.6z"/>
								</g>
								<polygon id="XMLID_7566_" fill="#544129" points="103.4,72.5 109.6,68.9 110,69.1 103.4,72.9 								"/>
								<polygon id="XMLID_7565_" fill="#544129" points="109.6,61.1 109.6,68.9 110,69.1 110,60.9 								"/>
							</g>
						</g>
					</g>
				</g>
				<polygon id="XMLID_7560_" opacity="0.3" points="109.6,61.1 109.6,68.9 110,69.1 110,60.9 				"/>
				<path id="XMLID_7557_" opacity="0.1" d="M102.4,64.3l0.1,9.2l0,1.3l0.6-0.3l7.3-4.2l0.3-0.2V59.5l-0.8,0.4L102.4,64.3z
					 M103.4,64.6l6.6-3.8v8.2l-6.5,3.8L103.4,64.6z"/>
			</g>
			<g id="XMLID_7529_">
				<g id="XMLID_7534_">
					<g id="XMLID_7535_">
						<g id="XMLID_7536_">
							<g id="XMLID_7537_">
								<g id="XMLID_7540_">
									<g id="XMLID_7546_">
										<g id="XMLID_7555_">
											<polygon fill="#78D5FB" points="96.6,76.7 103.8,72.4 103.7,64.1 96.6,68.4 											"/>
										</g>
										<g id="XMLID_7553_">
											<polygon id="XMLID_7554_" fill="#78D5FB" points="100.3,74.3 103,72.7 103,64.8 100.3,66.4 											"/>
										</g>
										<g id="XMLID_7547_">
											<polygon id="XMLID_7552_" fill="#78D5FB" points="99.9,74.5 96.9,76.3 96.9,68.4 99.9,66.6 											"/>
											<path id="XMLID_7551_" opacity="0.2" d="M99.9,66.6l-3.1,1.8v7.9l1.9-1.1c0-2-0.8-2.6-0.8-2.6
												C99.6,70.9,99.9,66.6,99.9,66.6z"/>
											<g id="XMLID_7548_" opacity="0.6">
												<path id="XMLID_7550_" fill="#C6C6C6" d="M99.2,67l-2.4,1.4v7.9l1.5-0.8c0-2-0.6-2.7-0.6-2.7C99,71.2,99.2,67,99.2,67z"
													/>
												<path id="XMLID_7549_" fill="#FFFFFF" d="M99,67.1l-2.2,1.2v7.9l1.3-0.8c0-2-0.5-2.8-0.5-2.8C98.8,71.3,99,67.1,99,67.1
													z"/>
											</g>
										</g>
									</g>
									<polygon id="XMLID_7545_" opacity="8.000000e-002" points="103.4,64.6 103,72.7 96.9,68.4 									"/>
									<polygon id="XMLID_7544_" fill="none" points="103.4,72.9 96.9,76.6 96.9,68.4 103.4,64.6 									"/>
									<path id="XMLID_7541_" fill="#544129" d="M95.8,68l0.1,9.2l0,1.3l0.6-0.3l7.3-4.2l0,0l0-10.4l-0.4,0.2L95.8,68z M96.9,68.4
										l6.6-3.8v8.2l-6.5,3.8L96.9,68.4z"/>
								</g>
								<polygon id="XMLID_7539_" fill="#544129" points="96.9,76.2 103,72.7 103.4,72.9 96.9,76.6 								"/>
								<polygon id="XMLID_7538_" fill="#544129" points="103,64.8 103,72.7 103.4,72.9 103.4,64.6 								"/>
							</g>
						</g>
					</g>
				</g>
				<polygon id="XMLID_7533_" opacity="0.3" points="103,64.8 103,72.7 103.4,72.9 103.4,64.6 				"/>
				<path id="XMLID_7530_" opacity="0.1" d="M95.8,68l0.1,9.2l0,1.3l0.6-0.3l7.3-4.2l0,0l0-10.4l-0.4,0.2L95.8,68z M96.9,68.4
					l6.6-3.8v8.2l-6.5,3.8L96.9,68.4z"/>
			</g>
			<polygon id="XMLID_7528_" opacity="0.1" points="110.7,69.9 95.9,78.4 95.8,68 110.7,59.5 			"/>
			<polygon id="XMLID_7527_" fill="none" points="117.4,53.2 117.4,69.5 117.4,69.5 89.1,85.9 89.1,69.5 			"/>
		</g>
	</g>
</g>
<g id="XMLID_7656_">
	<g id="XMLID_7852_">
		<g id="XMLID_7854_">
			<g id="XMLID_7964_">
				<g id="XMLID_7994_">
					<g id="XMLID_7999_">
						<g id="XMLID_8000_">
							<g id="XMLID_8001_">
								<g id="XMLID_8002_">
									<g id="XMLID_8005_">
										<g id="XMLID_8011_">
											<g id="XMLID_8020_">
												<polygon fill="#78D5FB" points="103.2,105.7 110.3,101.4 110.3,93.1 103.2,97.4 												"/>
											</g>
											<g id="XMLID_8014_">
												<polygon id="XMLID_8019_" fill="#78D5FB" points="106.8,103.3 109.6,101.7 109.6,93.8 106.8,95.4 												"/>
												<path id="XMLID_8018_" opacity="0.2" d="M106.8,95.4l2.7-1.6v7.9l-1.7,1c0-2,0.7-3.5,0.7-3.5
													C107.1,99.3,106.8,95.4,106.8,95.4z"/>
												<g id="XMLID_8015_" opacity="0.6">
													<path id="XMLID_8017_" fill="#C6C6C6" d="M107.5,95l2.1-1.2v7.9l-1.3,0.7c0-2,0.5-3.4,0.5-3.4
														C107.7,99,107.5,95,107.5,95z"/>
													<path id="XMLID_8016_" fill="#FFFFFF" d="M107.6,94.9l1.9-1.1v7.9l-1.2,0.7c0-2,0.5-3.4,0.5-3.4
														C107.8,98.9,107.6,94.9,107.6,94.9z"/>
												</g>
											</g>
											<g id="XMLID_8012_">
												<polygon id="XMLID_8013_" fill="#78D5FB" points="106.5,103.5 103.4,105.2 103.4,97.4 106.5,95.6 												"/>
											</g>
										</g>
										<polygon id="XMLID_8010_" opacity="8.000000e-002" points="110,93.6 110,101.6 103.4,97.4 										"/>
										<polygon id="XMLID_8009_" fill="none" points="110,101.8 103.4,105.6 103.4,97.4 110,93.6 										"/>
										<path id="XMLID_8006_" fill="#544129" d="M102.4,97l0.1,9.2l0,1.3l0.6-0.3l7.3-4.2l0.3-0.2V92.3l-0.8,0.4L102.4,97z
											 M103.4,97.4l6.6-3.8v8.2l-6.5,3.8L103.4,97.4z"/>
									</g>
									<polygon id="XMLID_8004_" fill="#544129" points="103.4,105.2 109.6,101.6 110,101.8 103.4,105.6 									"/>
									<polygon id="XMLID_8003_" fill="#544129" points="109.6,93.8 109.6,101.6 110,101.8 110,93.6 									"/>
								</g>
							</g>
						</g>
					</g>
					<polygon id="XMLID_7998_" opacity="0.3" points="109.6,93.8 109.6,101.6 110,101.8 110,93.6 					"/>
					<path id="XMLID_7995_" opacity="0.1" d="M102.4,97l0.1,9.2l0,1.3l0.6-0.3l7.3-4.2l0.3-0.2V92.3l-0.8,0.4L102.4,97z M103.4,97.4
						l6.6-3.8v8.2l-6.5,3.8L103.4,97.4z"/>
				</g>
				<g id="XMLID_7967_">
					<g id="XMLID_7972_">
						<g id="XMLID_7973_">
							<g id="XMLID_7974_">
								<g id="XMLID_7975_">
									<g id="XMLID_7978_">
										<g id="XMLID_7984_">
											<g id="XMLID_7993_">
												<polygon fill="#78D5FB" points="96.6,109.4 103.8,105.1 103.7,96.9 96.6,101.2 												"/>
											</g>
											<g id="XMLID_7991_">
												<polygon id="XMLID_7992_" fill="#78D5FB" points="100.3,107 103,105.5 103,97.6 100.3,99.1 												"/>
											</g>
											<g id="XMLID_7985_">
												<polygon id="XMLID_7990_" fill="#78D5FB" points="99.9,107.2 96.8,109 96.8,101.1 99.9,99.3 												"/>
												<path id="XMLID_7989_" opacity="0.2" d="M99.9,99.3l-3.1,1.8v7.9l1.9-1.1c0-2-0.8-2.6-0.8-2.6
													C99.6,103.6,99.9,99.3,99.9,99.3z"/>
												<g id="XMLID_7986_" opacity="0.6">
													<path id="XMLID_7988_" fill="#C6C6C6" d="M99.2,99.7l-2.4,1.4v7.9l1.5-0.8c0-2-0.6-2.7-0.6-2.7
														C99,104,99.2,99.7,99.2,99.7z"/>
													<path id="XMLID_7987_" fill="#FFFFFF" d="M99,99.9l-2.2,1.3v7.9l1.3-0.8c0-2-0.5-2.8-0.5-2.8
														C98.8,104.1,99,99.9,99,99.9z"/>
												</g>
											</g>
										</g>
										<polygon id="XMLID_7983_" opacity="8.000000e-002" points="103.4,97.4 103,105.4 96.8,101.1 										"/>
										<polygon id="XMLID_7982_" fill="none" points="103.4,105.6 96.9,109.4 96.8,101.1 103.4,97.4 										"/>
										<path id="XMLID_7979_" fill="#544129" d="M95.8,100.8l0.1,9.2l0,1.3l0.6-0.3l7.3-4.2l0,0l0-10.4l-0.4,0.2L95.8,100.8z
											 M96.8,101.1l6.6-3.8v8.2l-6.5,3.8L96.8,101.1z"/>
									</g>
									<polygon id="XMLID_7977_" fill="#544129" points="96.9,108.9 103,105.4 103.4,105.6 96.9,109.4 									"/>
									<polygon id="XMLID_7976_" fill="#544129" points="103,97.6 103,105.4 103.4,105.6 103.4,97.4 									"/>
								</g>
							</g>
						</g>
					</g>
					<polygon id="XMLID_7971_" opacity="0.3" points="103,97.6 103,105.4 103.4,105.6 103.4,97.4 					"/>
					<path id="XMLID_7968_" opacity="0.1" d="M95.8,100.8l0.1,9.2l0,1.3l0.6-0.3l7.3-4.2l0,0l0-10.4l-0.4,0.2L95.8,100.8z
						 M96.8,101.1l6.6-3.8v8.2l-6.5,3.8L96.8,101.1z"/>
				</g>
				<polygon id="XMLID_7966_" opacity="0.1" points="110.7,102.7 95.9,111.2 95.8,100.8 110.7,92.3 				"/>
				<polygon id="XMLID_7965_" fill="none" points="117.4,85.9 117.4,102.3 117.4,102.3 89.1,118.6 89.1,102.3 				"/>
			</g>
			<g id="Window_4_">
				<g id="XMLID_7861_">
					<g id="XMLID_7920_">
						<g id="XMLID_7924_">
							<g id="XMLID_7925_">
								<g id="XMLID_7927_">
									<g id="XMLID_7943_">
										<g id="XMLID_7950_">
											<g id="XMLID_7963_">
												<polygon fill="#78D5FB" points="85.3,111.7 78.2,107.4 78.2,99.1 85.4,103.4 												"/>
											</g>
											<g id="XMLID_7957_">
												<polygon id="XMLID_7962_" fill="#78D5FB" points="81.7,109.3 79,107.7 79,99.8 81.7,101.4 												"/>
												<path id="XMLID_7961_" opacity="0.2" d="M81.7,101.4L79,99.8v7.9l1.7,1c0-2-0.7-3.5-0.7-3.5
													C81.4,105.3,81.7,101.4,81.7,101.4z"/>
												<g id="XMLID_7958_" opacity="0.6">
													<path id="XMLID_7960_" fill="#C6C6C6" d="M81.1,101L79,99.8v7.9l1.3,0.7c0-2-0.5-3.4-0.5-3.4
														C80.8,105,81.1,101,81.1,101z"/>
													<path id="XMLID_7959_" fill="#FFFFFF" d="M80.9,100.9L79,99.8v7.9l1.2,0.7c0-2-0.5-3.4-0.5-3.4
														C80.7,104.9,80.9,100.9,80.9,100.9z"/>
												</g>
											</g>
											<g id="XMLID_7951_">
												<polygon id="XMLID_7956_" fill="#78D5FB" points="82,109.5 85.1,111.2 85.1,103.4 82,101.6 												"/>
												<path id="XMLID_7955_" opacity="0.2" d="M82,101.6l3.1,1.8v7.9l-1.9-1.1c0-2,0.8-2.6,0.8-2.6
													C82.4,105.9,82,101.6,82,101.6z"/>
												<g id="XMLID_7952_" opacity="0.6">
													<path id="XMLID_7954_" fill="#C6C6C6" d="M82.8,102l2.4,1.4v7.9l-1.5-0.8c0-2,0.6-2.7,0.6-2.7
														C83,106.2,82.8,102,82.8,102z"/>
													<path id="XMLID_7953_" fill="#FFFFFF" d="M82.9,102.1l2.2,1.3v7.9l-1.3-0.8c0-2,0.5-2.8,0.5-2.8
														C83.2,106.3,82.9,102.1,82.9,102.1z"/>
												</g>
											</g>
										</g>
										<polygon id="XMLID_7949_" opacity="8.000000e-002" points="78.6,99.6 85.1,111.2 85.1,103.4 										"/>
										<polygon id="XMLID_7948_" fill="none" points="78.6,107.9 85.1,111.6 85.1,103.4 78.6,99.6 										"/>
										<path id="XMLID_7945_" fill="#544129" d="M78.6,98.7l-0.8-0.4v10.4l0.3,0.2l7.3,4.2l0.6,0.3l0-1.3l0.1-9.2L78.6,98.7z
											 M85.1,111.6l-6.5-3.8v-8.2l6.6,3.8L85.1,111.6z"/>
									</g>
									<polygon id="XMLID_7941_" fill="#544129" points="85.1,111.2 78.9,107.6 78.6,107.9 85.1,111.6 									"/>
									<polygon id="XMLID_7937_" fill="#544129" points="79,99.8 78.9,107.6 78.6,107.9 78.6,99.6 									"/>
								</g>
							</g>
						</g>
					</g>
					<g id="XMLID_7917_">
						<polygon id="XMLID_7919_" fill="#544129" points="81.4,101.2 81.4,109.5 81.7,109.7 81.7,101.4 						"/>
						<polygon id="XMLID_7918_" fill="#544129" points="81.7,101.4 81.7,101.4 81.7,109.7 82,109.4 82,101.6 						"/>
					</g>
					<polygon id="XMLID_7916_" opacity="0.3" points="79,99.8 78.9,107.6 78.6,107.9 78.6,99.6 					"/>
					<polygon id="XMLID_7915_" opacity="0.3" points="81.7,101.4 81.7,101.4 81.7,109.7 82,109.4 82,101.6 					"/>
					<path id="XMLID_7863_" opacity="0.1" d="M78.6,98.7l-0.8-0.4v10.4l0.3,0.2l7.3,4.2l0.6,0.3l0-1.3l0.1-9.2L78.6,98.7z
						 M85.1,111.6l-6.5-3.8v-8.2l6.6,3.8L85.1,111.6z"/>
				</g>
			</g>
			<polygon id="XMLID_7856_" opacity="0.5" fill="none" points="60.7,102.3 89.1,118.6 89.1,102.3 60.7,85.9 			"/>
		</g>
	</g>
</g>
</svg>
