<?xml version="1.0" encoding="utf-8"?>
<!-- Generator: Adobe Illustrator 16.0.0, SVG Export Plug-In . SVG Version: 6.00 Build 0)  -->
<!DOCTYPE svg PUBLIC "-//W3C//DTD SVG 1.1//EN" "http://www.w3.org/Graphics/SVG/1.1/DTD/svg11.dtd">
<svg version="1.1" id="Layer_1" xmlns="http://www.w3.org/2000/svg" xmlns:xlink="http://www.w3.org/1999/xlink" x="0px" y="0px"
	 width="164px" height="164px" viewBox="0 0 164 164" enable-background="new 0 0 164 164" xml:space="preserve">
<g id="XMLID_18304_">
	<defs>
		<path id="XMLID_18305_" d="M70.8,57.2c-0.7-0.3-1.4-0.8-2-1.1c0-0.1,0.1-0.1,0.1-0.2l1.8-3c0.1-0.1,0.1-0.2,0.1-0.3l1.8-3
			c0.1-0.1,0.1-0.2,0.1-0.3l1.8-3c0.1-0.1,0.1-0.2,0.1-0.3l1.8-3c0.1-0.1,0.1-0.2,0.1-0.3l1.8-3c0.1-0.1,0.1-0.2,0.1-0.3l1.4-2.4
			c0.2,0.1,0.5,0.1,0.8,0.3c0.7,0.3,1.6,1,2.2,1.2c-0.3,0.6,0.2,0.3,1.3,0.8c0.7,0.3,1.6,0.9,2.2,1.2l-1.9,3.2
			c-0.1,0.1-0.1,0.2-0.1,0.3l-1.7,2.9c-0.1,0-0.1,0.1-0.2,0.2l-1.9,3.2c-0.1,0.1-0.1,0.2-0.1,0.3l-1.8,3c-0.1,0.1-0.1,0.2-0.1,0.3
			l-1.8,3c-0.1,0.1-0.1,0.2-0.1,0.3l-1.4,2.4c-0.2-0.1-0.5-0.1-0.8-0.3c-0.7-0.3-1.6-1-2.2-1.2C72.4,57.5,71.9,57.7,70.8,57.2z"/>
	</defs>
	<clipPath id="XMLID_2_">
		<use xlink:href="#XMLID_18305_"  overflow="visible"/>
	</clipPath>
	<g id="XMLID_18307_" clip-path="url(#XMLID_2_)">
		<g id="XMLID_18363_">
			<defs>
				<polygon id="XMLID_18364_" points="75.4,29.8 60.6,55.3 65.6,58.2 80.4,32.7 				"/>
			</defs>
			<clipPath id="XMLID_3_">
				<use xlink:href="#XMLID_18364_"  overflow="visible"/>
			</clipPath>
			<polygon id="XMLID_18373_" clip-path="url(#XMLID_3_)" fill="#D1BE6F" points="75.4,29.8 60.3,55.8 65.3,58.7 80.4,32.7 			"/>
			
				<polygon id="XMLID_18372_" clip-path="url(#XMLID_3_)" fill="#D1BE6F" stroke="#918243" stroke-width="0.1" stroke-miterlimit="10" points="
				73.1,33.7 69.3,40.3 71.8,41.7 75.6,35.2 			"/>
			
				<polygon id="XMLID_18371_" clip-path="url(#XMLID_3_)" fill="#D1BE6F" stroke="#918243" stroke-width="0.1" stroke-miterlimit="10" points="
				69.3,40.3 65.5,46.8 68,48.3 71.8,41.7 			"/>
			
				<polygon id="XMLID_18370_" clip-path="url(#XMLID_3_)" fill="#D1BE6F" stroke="#918243" stroke-width="0.1" stroke-miterlimit="10" points="
				77.8,31.2 74.1,37.7 76.6,39.2 80.4,32.7 			"/>
			
				<polygon id="XMLID_18369_" clip-path="url(#XMLID_3_)" fill="#D1BE6F" stroke="#918243" stroke-width="0.1" stroke-miterlimit="10" points="
				74.1,37.7 70.3,44.3 72.8,45.8 76.6,39.2 			"/>
			
				<polygon id="XMLID_18368_" clip-path="url(#XMLID_3_)" fill="#D1BE6F" stroke="#918243" stroke-width="0.1" stroke-miterlimit="10" points="
				65.5,46.8 61.7,53.4 64.2,54.8 68,48.3 			"/>
			
				<polygon id="XMLID_18367_" clip-path="url(#XMLID_3_)" fill="#D1BE6F" stroke="#918243" stroke-width="0.1" stroke-miterlimit="10" points="
				61.7,53.4 57.9,59.9 60.5,61.4 64.2,54.8 			"/>
			
				<polygon id="XMLID_18366_" clip-path="url(#XMLID_3_)" fill="#D1BE6F" stroke="#918243" stroke-width="0.1" stroke-miterlimit="10" points="
				70.3,44.3 66.5,50.8 69,52.3 72.8,45.8 			"/>
			
				<polygon id="XMLID_18365_" clip-path="url(#XMLID_3_)" fill="#D1BE6F" stroke="#918243" stroke-width="0.1" stroke-miterlimit="10" points="
				66.5,50.8 62.7,57.4 65.2,58.9 69,52.3 			"/>
		</g>
		<g id="XMLID_18345_">
			<g id="XMLID_18360_">
				<polygon id="XMLID_18362_" fill="#A06137" points="97.5,41.6 80.8,32 65.4,58.6 66.7,59.5 81.3,34.2 95.9,42.6 				"/>
				<polygon id="XMLID_18361_" fill="#7C4723" points="98.9,42.4 82.1,32.7 66.7,59.4 68.1,60.3 82.7,35 97.2,43.4 				"/>
			</g>
			<g id="XMLID_18346_">
				<g id="XMLID_18349_">
					<defs>
						<polygon id="XMLID_18350_" points="82.4,33.8 67.6,59.4 72.6,62.3 87.4,36.7 						"/>
					</defs>
					<clipPath id="XMLID_4_">
						<use xlink:href="#XMLID_18350_"  overflow="visible"/>
					</clipPath>
					<polygon id="XMLID_18359_" clip-path="url(#XMLID_4_)" fill="#D1BE6F" points="82.4,33.8 67.4,59.8 72.4,62.7 87.4,36.7 					
						"/>
					
						<polygon id="XMLID_18358_" clip-path="url(#XMLID_4_)" fill="#D1BE6F" stroke="#918243" stroke-width="0.1" stroke-miterlimit="10" points="
						80.1,37.8 76.3,44.3 78.9,45.8 82.6,39.3 					"/>
					
						<polygon id="XMLID_18357_" clip-path="url(#XMLID_4_)" fill="#D1BE6F" stroke="#918243" stroke-width="0.1" stroke-miterlimit="10" points="
						76.3,44.3 72.6,50.9 75.1,52.4 78.9,45.8 					"/>
					
						<polygon id="XMLID_18356_" clip-path="url(#XMLID_4_)" fill="#D1BE6F" stroke="#918243" stroke-width="0.1" stroke-miterlimit="10" points="
						84.9,35.3 81.1,41.8 83.6,43.3 87.4,36.7 					"/>
					
						<polygon id="XMLID_18355_" clip-path="url(#XMLID_4_)" fill="#D1BE6F" stroke="#918243" stroke-width="0.1" stroke-miterlimit="10" points="
						81.1,41.8 77.3,48.4 79.8,49.8 83.6,43.3 					"/>
					
						<polygon id="XMLID_18354_" clip-path="url(#XMLID_4_)" fill="#D1BE6F" stroke="#918243" stroke-width="0.1" stroke-miterlimit="10" points="
						72.6,50.9 68.8,57.4 71.3,58.9 75.1,52.4 					"/>
					
						<polygon id="XMLID_18353_" clip-path="url(#XMLID_4_)" fill="#D1BE6F" stroke="#918243" stroke-width="0.1" stroke-miterlimit="10" points="
						68.8,57.4 65,64 67.5,65.5 71.3,58.9 					"/>
					
						<polygon id="XMLID_18352_" clip-path="url(#XMLID_4_)" fill="#D1BE6F" stroke="#918243" stroke-width="0.1" stroke-miterlimit="10" points="
						77.3,48.4 73.5,54.9 76.1,56.4 79.8,49.8 					"/>
					
						<polygon id="XMLID_18351_" clip-path="url(#XMLID_4_)" fill="#D1BE6F" stroke="#918243" stroke-width="0.1" stroke-miterlimit="10" points="
						73.5,54.9 69.8,61.5 72.3,62.9 76.1,56.4 					"/>
				</g>
				
					<rect id="XMLID_18348_" x="60.9" y="46.2" transform="matrix(0.5 -0.866 0.866 0.5 -2.8584 89.0712)" opacity="0.2" width="29.5" height="1.6"/>
				
					<rect id="XMLID_18347_" x="53.9" y="42.2" transform="matrix(0.5 -0.866 0.866 0.5 -2.8654 80.9374)" opacity="0.2" width="29.5" height="1.6"/>
			</g>
		</g>
		<g id="XMLID_18328_">
			<g id="XMLID_18342_">
				<polygon id="XMLID_18344_" fill="#A06137" points="104.5,45.7 87.8,36 72.4,62.7 73.7,63.5 88.3,38.3 102.9,46.7 				"/>
				<polygon id="XMLID_18343_" fill="#7C4723" points="105.9,46.5 89.2,36.8 73.7,63.5 75.1,64.3 89.7,39.1 104.3,47.5 				"/>
			</g>
			<g id="XMLID_18329_">
				<g id="XMLID_18331_">
					<defs>
						<polygon id="XMLID_18332_" points="89.5,37.9 74.7,63.5 79.7,66.4 94.4,40.8 						"/>
					</defs>
					<clipPath id="XMLID_5_">
						<use xlink:href="#XMLID_18332_"  overflow="visible"/>
					</clipPath>
					<polygon id="XMLID_18341_" clip-path="url(#XMLID_5_)" fill="#D1BE6F" points="89.4,37.9 74.4,63.9 79.4,66.8 94.4,40.8 					
						"/>
					
						<polygon id="XMLID_18340_" clip-path="url(#XMLID_5_)" fill="#D1BE6F" stroke="#918243" stroke-width="0.1" stroke-miterlimit="10" points="
						87.2,41.9 83.4,48.4 85.9,49.9 89.7,43.3 					"/>
					
						<polygon id="XMLID_18339_" clip-path="url(#XMLID_5_)" fill="#D1BE6F" stroke="#918243" stroke-width="0.1" stroke-miterlimit="10" points="
						83.4,48.4 79.6,55 82.1,56.4 85.9,49.9 					"/>
					
						<polygon id="XMLID_18338_" clip-path="url(#XMLID_5_)" fill="#D1BE6F" stroke="#918243" stroke-width="0.1" stroke-miterlimit="10" points="
						91.9,39.3 88.1,45.9 90.7,47.4 94.4,40.8 					"/>
					
						<polygon id="XMLID_18337_" clip-path="url(#XMLID_5_)" fill="#D1BE6F" stroke="#918243" stroke-width="0.1" stroke-miterlimit="10" points="
						88.1,45.9 84.4,52.4 86.9,53.9 90.7,47.4 					"/>
					
						<polygon id="XMLID_18336_" clip-path="url(#XMLID_5_)" fill="#D1BE6F" stroke="#918243" stroke-width="0.1" stroke-miterlimit="10" points="
						79.6,55 75.8,61.5 78.3,63 82.1,56.4 					"/>
					
						<polygon id="XMLID_18335_" clip-path="url(#XMLID_5_)" fill="#D1BE6F" stroke="#918243" stroke-width="0.1" stroke-miterlimit="10" points="
						75.8,61.5 72,68.1 74.5,69.5 78.3,63 					"/>
					
						<polygon id="XMLID_18334_" clip-path="url(#XMLID_5_)" fill="#D1BE6F" stroke="#918243" stroke-width="0.1" stroke-miterlimit="10" points="
						84.4,52.4 80.6,59 83.1,60.5 86.9,53.9 					"/>
					
						<polygon id="XMLID_18333_" clip-path="url(#XMLID_5_)" fill="#D1BE6F" stroke="#918243" stroke-width="0.1" stroke-miterlimit="10" points="
						80.6,59 76.8,65.5 79.3,67 83.1,60.5 					"/>
				</g>
				
					<rect id="XMLID_18330_" x="68" y="50.3" transform="matrix(0.5 -0.866 0.866 0.5 -2.8781 97.203)" opacity="0.2" width="29.5" height="1.6"/>
			</g>
		</g>
		<g id="XMLID_18311_">
			<g id="XMLID_18325_">
				<polygon id="XMLID_18327_" fill="#A06137" points="111.6,49.8 94.8,40.1 79.4,66.8 80.8,67.6 95.4,42.3 109.9,50.7 				"/>
				<polygon id="XMLID_18326_" fill="#7C4723" points="113,50.6 96.2,40.9 80.8,67.6 82.1,68.4 96.7,43.1 111.3,51.5 				"/>
			</g>
			<g id="XMLID_18312_">
				<g id="XMLID_18314_">
					<defs>
						<polygon id="XMLID_18315_" points="96.5,42 81.7,67.6 86.7,70.5 101.5,44.9 						"/>
					</defs>
					<clipPath id="XMLID_6_">
						<use xlink:href="#XMLID_18315_"  overflow="visible"/>
					</clipPath>
					<polygon id="XMLID_18324_" clip-path="url(#XMLID_6_)" fill="#D1BE6F" points="96.5,42 81.5,68 86.5,70.9 101.5,44.9 					"/>
					
						<polygon id="XMLID_18323_" clip-path="url(#XMLID_6_)" fill="#D1BE6F" stroke="#918243" stroke-width="0.1" stroke-miterlimit="10" points="
						94.2,46 90.4,52.5 92.9,54 96.7,47.4 					"/>
					
						<polygon id="XMLID_18322_" clip-path="url(#XMLID_6_)" fill="#D1BE6F" stroke="#918243" stroke-width="0.1" stroke-miterlimit="10" points="
						90.4,52.5 86.6,59.1 89.1,60.5 92.9,54 					"/>
					
						<polygon id="XMLID_18321_" clip-path="url(#XMLID_6_)" fill="#D1BE6F" stroke="#918243" stroke-width="0.1" stroke-miterlimit="10" points="
						99,43.4 95.2,50 97.7,51.4 101.5,44.9 					"/>
					
						<polygon id="XMLID_18320_" clip-path="url(#XMLID_6_)" fill="#D1BE6F" stroke="#918243" stroke-width="0.1" stroke-miterlimit="10" points="
						95.2,50 91.4,56.5 93.9,58 97.7,51.4 					"/>
					
						<polygon id="XMLID_18319_" clip-path="url(#XMLID_6_)" fill="#D1BE6F" stroke="#918243" stroke-width="0.1" stroke-miterlimit="10" points="
						86.6,59.1 82.8,65.6 85.4,67.1 89.1,60.5 					"/>
					
						<polygon id="XMLID_18318_" clip-path="url(#XMLID_6_)" fill="#D1BE6F" stroke="#918243" stroke-width="0.1" stroke-miterlimit="10" points="
						82.8,65.6 79.1,72.2 81.6,73.6 85.4,67.1 					"/>
					
						<polygon id="XMLID_18317_" clip-path="url(#XMLID_6_)" fill="#D1BE6F" stroke="#918243" stroke-width="0.1" stroke-miterlimit="10" points="
						91.4,56.5 87.6,63.1 90.1,64.5 93.9,58 					"/>
					
						<polygon id="XMLID_18316_" clip-path="url(#XMLID_6_)" fill="#D1BE6F" stroke="#918243" stroke-width="0.1" stroke-miterlimit="10" points="
						87.6,63.1 83.8,69.6 86.3,71.1 90.1,64.5 					"/>
				</g>
				
					<rect id="XMLID_18313_" x="75" y="54.4" transform="matrix(0.5 -0.866 0.866 0.5 -2.8965 105.3371)" opacity="0.2" width="29.5" height="1.6"/>
			</g>
		</g>
		<g id="XMLID_18308_">
			<polygon id="XMLID_18310_" fill="#A06137" points="118.6,53.9 101.9,44.2 86.5,70.9 87.8,71.7 102.4,46.4 117,54.8 			"/>
			<polygon id="XMLID_18309_" fill="#7C4723" points="120,54.7 103.2,45 87.8,71.7 89.2,72.5 103.8,47.2 118.3,55.6 			"/>
		</g>
	</g>
</g>
</svg>
