<?xml version="1.0" encoding="utf-8"?>
<!-- Generator: Adobe Illustrator 16.0.0, SVG Export Plug-In . SVG Version: 6.00 Build 0)  -->
<!DOCTYPE svg PUBLIC "-//W3C//DTD SVG 1.1//EN" "http://www.w3.org/Graphics/SVG/1.1/DTD/svg11.dtd">
<svg version="1.1" id="Layer_1" xmlns="http://www.w3.org/2000/svg" xmlns:xlink="http://www.w3.org/1999/xlink" x="0px" y="0px"
	 width="164px" height="164px" viewBox="0 0 164 164" enable-background="new 0 0 164 164" xml:space="preserve">
<g id="XMLID_18453_">
	<g id="XMLID_18482_">
		<g id="XMLID_18484_">
			<g id="XMLID_18490_">
				<polygon id="XMLID_18494_" fill="#3A3A3A" points="77.3,41.7 77.3,41.7 77,41.5 77,42.8 77,42.8 77.3,43.1 				"/>
				<polygon id="XMLID_18493_" fill="#2D2D2D" points="77.3,41.7 77.3,41.7 77.7,41.5 77.7,42.8 77.7,42.8 77.3,43.1 				"/>
				<polygon id="XMLID_18492_" fill="#AFA28B" points="77.3,41.7 77.7,41.5 77.3,41.3 77,41.5 77.3,41.7 77.3,41.7 77.3,41.7 
					77.3,41.7 				"/>
				<line id="XMLID_18491_" fill="#AFA28B" x1="77.3" y1="41.3" x2="77" y2="41.5"/>
			</g>
			<g id="XMLID_18485_">
				<polygon id="XMLID_18489_" fill="#3A3A3A" points="80.3,44.2 80.3,44.2 79.9,44 79.9,45.3 79.9,45.3 80.3,45.5 				"/>
				<polygon id="XMLID_18488_" fill="#2D2D2D" points="80.3,44.2 80.3,44.2 80.7,44 80.7,45.3 80.7,45.3 80.3,45.5 				"/>
				<polygon id="XMLID_18487_" fill="#AFA28B" points="80.3,44.2 80.7,44 80.3,43.8 79.9,44 80.3,44.2 80.3,44.2 80.3,44.2 
					80.3,44.2 				"/>
				<line id="XMLID_18486_" fill="#AFA28B" x1="80.3" y1="43.8" x2="79.9" y2="44"/>
			</g>
		</g>
		<path id="XMLID_18483_" opacity="0.3" d="M74.4,42.7l7.5-4.4c0.1,0,0.2,0,0.3,0l0.4,0.2l-0.2,0.1l0,0l5.1,2.8l0.2-0.1l0.5,0.3
			c0.1,0,0.1,0.1,0,0.2l-7.5,4.4c-0.1,0-0.2,0-0.3,0l-0.5-0.3l0.2-0.1L75,42.9l-0.2,0.1l-0.4-0.2C74.3,42.8,74.3,42.7,74.4,42.7z"/>
	</g>
	<g id="XMLID_18454_">
		<g id="XMLID_18458_">
			<g id="XMLID_18460_">
				<polygon id="XMLID_18481_" fill="#565656" points="81.7,46.2 80.7,46.7 81.7,47.3 82.7,46.7 				"/>
				<polygon id="XMLID_18480_" fill="#002947" points="89.1,40.4 85,36 76.2,40.8 76.3,41 80.4,45.5 88.8,41 				"/>
				<g id="XMLID_18463_">
					<g id="XMLID_18464_">
						<polygon id="XMLID_18479_" fill="#001B24" points="76.3,41 76.6,40.9 80.7,45.3 80.4,45.5 						"/>
						<g id="XMLID_18465_">
							<polygon id="XMLID_18478_" fill="#001B24" points="83.7,36.7 84,36.5 88.1,41 87.5,41.3 87.5,41.3 87.8,41.2 							"/>
							<polygon id="XMLID_18477_" fill="#001B24" points="81.9,37.8 82.2,37.6 86.3,42.1 85.7,42.4 85.7,42.4 86,42.2 							"/>
							<polygon id="XMLID_18476_" fill="#001B24" points="80,38.9 80.3,38.7 84.4,43.1 83.8,43.5 83.8,43.5 84.1,43.3 							"/>
							<polygon id="XMLID_18475_" fill="#001B24" points="78.2,39.9 78.5,39.8 82.6,44.2 82,44.6 82,44.6 82.3,44.4 							"/>
							<polygon id="XMLID_18474_" fill="#001B24" points="84.7,36.2 88.8,40.6 88.5,40.8 84.4,36.4 							"/>
							<polygon id="XMLID_18473_" fill="#001B24" points="83.1,37.1 83.7,36.7 83.7,36.7 83.4,36.9 87.5,41.3 87.2,41.5 							"/>
							<polygon id="XMLID_18472_" fill="#001B24" points="82.8,37.3 86.9,41.7 86.6,41.9 82.5,37.4 							"/>
							<polygon id="XMLID_18471_" fill="#001B24" points="81.3,38.1 81.9,37.8 81.9,37.8 81.6,38 85.7,42.4 85.4,42.6 							"/>
							<polygon id="XMLID_18470_" fill="#001B24" points="81,38.3 85.1,42.8 84.8,43 80.7,38.5 							"/>
							<polygon id="XMLID_18469_" fill="#001B24" points="79.4,39.2 80,38.9 80,38.9 79.7,39.1 83.8,43.5 83.5,43.7 							"/>
							<polygon id="XMLID_18468_" fill="#001B24" points="79.1,39.4 83.2,43.9 82.9,44 78.8,39.6 							"/>
							<polygon id="XMLID_18467_" fill="#001B24" points="77.6,40.3 78.2,39.9 78.2,39.9 77.9,40.1 82,44.6 81.7,44.7 							"/>
							<polygon id="XMLID_18466_" fill="#001B24" points="77.3,40.5 81.4,44.9 81.1,45.1 77,40.7 							"/>
						</g>
					</g>
				</g>
				<path id="XMLID_18462_" fill="#001B24" d="M89.7,40.7c0.1,0.1,0,0.2,0,0.2L80.8,46c-0.1,0-0.2,0-0.2,0l-0.4-0.4l9.1-5.3
					L89.7,40.7z"/>
				<path id="XMLID_18461_" fill="#001B24" d="M75.8,40.8c-0.1-0.1-0.1-0.2,0-0.2l8.8-5.1c0.1,0,0.2,0,0.3,0.1l0.3,0.4l-9.1,5.3
					L75.8,40.8z"/>
			</g>
			<polygon id="XMLID_18459_" opacity="4.000000e-002" fill="#FFFFFF" points="85,36 76.3,41 89.1,40.4 			"/>
		</g>
		<g id="XMLID_18455_">
			<path id="XMLID_18457_" fill="#001B24" d="M81.9,46c0-0.2-0.8-0.4-0.8-0.4l-0.3,0.3c0,0,0.7,0.2,0.7,0.3v0.6
				c0,0.1,0.1,0.1,0.2,0.1c0.1,0,0.2-0.1,0.2-0.1V46C81.9,46,81.9,46,81.9,46z"/>
			<path id="XMLID_18456_" opacity="0.2" d="M81.7,46.8c0.1,0,0.2-0.1,0.2-0.1V46c0,0,0,0,0,0c0,0,0,0,0,0c0,0,0,0.1-0.4,0.2v0.6
				C81.5,46.8,81.6,46.8,81.7,46.8z"/>
		</g>
	</g>
</g>
</svg>
