<?xml version="1.0" encoding="utf-8"?>
<!-- Generator: Adobe Illustrator 16.0.0, SVG Export Plug-In . SVG Version: 6.00 Build 0)  -->
<!DOCTYPE svg PUBLIC "-//W3C//DTD SVG 1.1//EN" "http://www.w3.org/Graphics/SVG/1.1/DTD/svg11.dtd">
<svg version="1.1" id="Layer_1" xmlns="http://www.w3.org/2000/svg" xmlns:xlink="http://www.w3.org/1999/xlink" x="0px" y="0px"
	 width="68.964px" height="27.018px" viewBox="0 0 68.964 27.018" enable-background="new 0 0 68.964 27.018" xml:space="preserve">
<g>
	<g opacity="0.3">
		<path fill="#C2C2C2" d="M67.39,1.573v23.871H43.52V1.573H67.39 M68.964,0H41.945v27.018h27.019V0L68.964,0z"/>
		<path fill="#C2C2C2" d="M51.452,11.6v1.321h-4.193V7.037h1.411V11.6H51.452z"/>
		<path fill="#C2C2C2" d="M56.474,11.6v1.321h-4.328V7.037h4.277v1.319h-2.866v0.967h2.244v1.235h-2.244V11.6H56.474z"/>
		<path fill="#C2C2C2" d="M57.189,12.921V7.037h1.412v5.884H57.189z"/>
		<path fill="#C2C2C2" d="M63.651,11.6v1.321h-4.328V7.037h4.277v1.319h-2.866v0.967h2.244v1.235h-2.244V11.6H63.651z"/>
		<path fill="#C2C2C2" d="M49.831,14.098c1.68,0,3.041,1.201,3.041,2.966c0,1.766-1.361,2.916-3.041,2.916h-2.572v-5.882H49.831z
			 M49.831,18.66c0.84,0,1.57-0.588,1.57-1.597s-0.73-1.648-1.57-1.648H48.67v3.245H49.831z"/>
		<path fill="#C2C2C2" d="M56.977,19.056h-2.328l-0.337,0.924H52.79l2.354-5.882h1.337l2.353,5.882h-1.521L56.977,19.056z
			 M56.521,17.821l-0.419-1.145c-0.127-0.335-0.279-0.865-0.286-0.865h-0.008c-0.009,0-0.16,0.53-0.287,0.865l-0.42,1.145H56.521z"
			/>
		<path fill="#C2C2C2" d="M63.517,18.66v1.319h-4.193v-5.882h1.411v4.563H63.517z"/>
	</g>
	<path opacity="0.3" fill="#C2C2C2" d="M0,7.253h2.098c1.241,0,2.246,0.458,2.246,1.85c0,1.349-1.031,1.947-2.246,1.947H1.295v1.947
		H0V7.253z M2.018,10.019c0.714,0,1.057-0.316,1.057-0.916c0-0.599-0.37-0.818-1.057-0.818H1.295v1.734H2.018z"/>
	<path opacity="0.3" fill="#C2C2C2" d="M5.066,10.099c0-1.877,1.057-2.951,2.607-2.951s2.608,1.084,2.608,2.951
		c0,1.876-1.058,3.004-2.608,3.004S5.066,11.975,5.066,10.099z M8.951,10.099c0-1.146-0.493-1.832-1.277-1.832
		s-1.277,0.687-1.277,1.832c0,1.154,0.493,1.886,1.277,1.886S8.951,11.253,8.951,10.099z"/>
	<path opacity="0.3" fill="#C2C2C2" d="M10.811,7.253h1.33l0.396,2.688c0.07,0.599,0.159,1.206,0.229,1.814h0.035
		c0.114-0.608,0.229-1.216,0.343-1.814l0.617-2.688h1.102l0.616,2.688c0.114,0.581,0.229,1.197,0.344,1.814h0.035
		c0.079-0.617,0.159-1.225,0.238-1.814l0.396-2.688h1.242l-1.022,5.744h-1.63L14.52,10.39c-0.097-0.44-0.167-0.908-0.229-1.33
		h-0.036c-0.07,0.422-0.141,0.89-0.237,1.33l-0.538,2.607h-1.603L10.811,7.253z"/>
	<path opacity="0.3" fill="#C2C2C2" d="M18.528,7.253h3.595v1.093h-2.3v1.153h1.956v1.084h-1.956v1.321h2.388v1.093h-3.683V7.253z"
		/>
	<path opacity="0.3" fill="#C2C2C2" d="M26.466,12.997l-1.101-2.07h-0.714v2.07h-1.295V7.253h2.07c1.216,0,2.211,0.423,2.211,1.788
		c0,0.847-0.405,1.384-1.021,1.656l1.304,2.3H26.466z M24.651,9.896h0.67c0.678,0,1.048-0.29,1.048-0.854
		c0-0.563-0.37-0.757-1.048-0.757h-0.67V9.896z"/>
	<path opacity="0.3" fill="#C2C2C2" d="M28.784,7.253h3.594v1.093h-2.3v1.153h1.956v1.084h-1.956v1.321h2.389v1.093h-3.683V7.253z"
		/>
	<path opacity="0.3" fill="#C2C2C2" d="M33.611,7.253h1.621c1.753,0,2.881,0.872,2.881,2.846s-1.128,2.898-2.81,2.898h-1.692V7.253z
		 M35.153,11.948c0.979,0,1.63-0.476,1.63-1.85c0-1.375-0.651-1.797-1.63-1.797h-0.247v3.646H35.153z"/>
	<path opacity="0.3" fill="#C2C2C2" d="M28.542,14.127h1.964c1.189,0,2.115,0.325,2.115,1.427c0,0.511-0.291,1.066-0.961,1.242
		v0.035c0.819,0.15,1.242,0.582,1.242,1.348c0,1.172-0.986,1.692-2.229,1.692h-2.132V14.127z M30.444,16.444
		c0.635,0,0.908-0.273,0.908-0.705s-0.291-0.607-0.899-0.607h-0.616v1.313H30.444z M30.568,18.866c0.705,0,1.065-0.264,1.065-0.784
		c0-0.503-0.353-0.723-1.065-0.723h-0.731v1.507H30.568z"/>
	<path opacity="0.3" fill="#C2C2C2" d="M34.7,17.827l-1.735-3.7h1.392l0.512,1.321c0.158,0.432,0.308,0.828,0.466,1.269h0.036
		c0.167-0.44,0.326-0.837,0.484-1.269l0.52-1.321h1.356l-1.735,3.7v2.044H34.7V17.827z"/>
</g>
</svg>
